<?xml version="1.0" encoding="UTF-8" standalone="no"?>
<!-- Created with Inkscape (http://www.inkscape.org/) -->

<svg
   width="22.518379mm"
   height="24.33802mm"
   viewBox="0 0 22.518379 24.338021"
   version="1.1"
   id="svg1"
   inkscape:version="1.4 (e7c3feb1, 2024-10-09)"
   sodipodi:docname="ARC.svg"
   xmlns:inkscape="http://www.inkscape.org/namespaces/inkscape"
   xmlns:sodipodi="http://sodipodi.sourceforge.net/DTD/sodipodi-0.dtd"
   xmlns="http://www.w3.org/2000/svg"
   xmlns:svg="http://www.w3.org/2000/svg">
  <sodipodi:namedview
     id="namedview1"
     pagecolor="#ffffff"
     bordercolor="#000000"
     borderopacity="0.25"
     inkscape:showpageshadow="2"
     inkscape:pageopacity="0.0"
     inkscape:pagecheckerboard="0"
     inkscape:deskcolor="#d1d1d1"
     inkscape:document-units="mm"
     inkscape:zoom="2.9647587"
     inkscape:cx="42.330595"
     inkscape:cy="46.040847"
     inkscape:window-width="1440"
     inkscape:window-height="872"
     inkscape:window-x="0"
     inkscape:window-y="28"
     inkscape:window-maximized="0"
     inkscape:current-layer="layer1" />
  <defs
     id="defs1" />
  <g
     inkscape:label="Layer 1"
     inkscape:groupmode="layer"
     id="layer1"
     transform="translate(-1948.0526,-474.26829)">
    <path
       d="m 1964.9552,496.8543 -2.0955,-1.7457 -6.4079,0.73094 c -3.5244,0.40202 -6.4178,0.71891 -6.4297,0.70422 -0.012,-0.0147 -0.46,-3.86552 -0.9956,-8.55738 l -0.9739,-8.53066 0.9302,-1.56372 0.9301,-1.56373 9.1908,-1.05234 c 5.055,-0.57879 9.2114,-1.03178 9.2366,-1.00664 0.025,0.0251 0.5652,4.57717 1.2001,10.11564 0.8468,7.38705 1.1154,10.09401 1.0082,10.16029 -0.08,0.0497 -0.8788,0.16292 -1.7741,0.25159 -0.8954,0.0887 -1.7002,0.20588 -1.7885,0.26047 -0.1538,0.0951 -0.085,1.12084 0.2066,3.07901 0.039,0.26194 0.023,0.47343 -0.036,0.46998 -0.058,-0.003 -1.0494,-0.79183 -2.2019,-1.75197 z m 1.9202,-0.157 c -0.1539,-1.36306 -0.1578,-1.67964 -0.022,-1.76375 0.091,-0.0564 0.8985,-0.17506 1.7938,-0.26374 0.8953,-0.0887 1.6877,-0.19819 1.7608,-0.24336 0.09,-0.0553 -0.24,-3.33365 -1.0084,-10.03348 -0.6277,-5.47323 -1.1559,-9.9659 -1.1737,-9.9837 -0.018,-0.0178 -4.1171,0.43523 -9.1094,1.00673 l -9.0768,1.03909 -0.9181,1.54358 -0.9182,1.54357 0.9619,8.4239 c 0.5291,4.63315 0.9691,8.43091 0.978,8.43946 0.01,0.009 2.8956,-0.31412 6.415,-0.71706 l 6.3988,-0.73262 2.0467,1.69849 c 1.1256,0.93417 2.0494,1.69976 2.0528,1.70131 0,0.002 -0.078,-0.74473 -0.1814,-1.65842 z m -14.1796,-2.66304 c -0.108,-0.17481 0.038,-2.2535 0.2759,-3.91772 0.2294,-1.60724 0.6706,-3.0497 1.1769,-3.84793 0.3093,-0.48763 0.4781,-0.62214 0.9252,-0.73726 1.9127,-0.4925 2.5611,-0.95493 3.2035,-2.28446 l 0.3994,-0.82685 2.5678,-0.0344 2.5677,-0.0344 v -0.44187 -0.44187 h -5.5329 c -3.571,0 -5.6199,0.0466 -5.7785,0.13147 -0.2972,0.15907 -0.3219,0.66308 -0.046,0.93896 0.1615,0.16153 0.5232,0.19957 1.8973,0.19957 h 1.6978 l 0.039,-0.47625 c 0.031,-0.37844 0.092,-0.47625 0.2934,-0.47625 0.2258,0 0.254,0.0847 0.254,0.762 v 0.762 l -1.0478,0.0369 c -1.155,0.0407 -1.1597,0.0453 -0.8809,0.86789 0.202,0.5961 0.1432,0.96613 -0.1448,0.91067 -0.2609,-0.0503 -0.5368,-0.60663 -0.6243,-1.25888 l -0.066,-0.49307 h -0.7551 c -0.6652,0 -0.7992,-0.0442 -1.1263,-0.37123 -0.298,-0.29798 -0.3704,-0.47965 -0.3672,-0.92075 0.01,-1.09621 0.3507,-1.24802 2.8169,-1.24802 2.0258,0 2.2866,-0.0601 2.7293,-0.62917 0.4811,-0.61832 0.2032,-1.61612 -0.5495,-1.9733 -0.8796,-0.41738 -1.7994,0.18715 -1.9206,1.26224 -0.073,0.64737 -0.2046,0.80399 -0.4822,0.57362 -0.4643,-0.3854 -0.095,-1.66566 0.6435,-2.22872 0.393,-0.29971 0.6007,-0.36253 1.2103,-0.36599 0.7951,-0.005 1.2021,0.20345 1.6978,0.8674 0.3407,0.45631 0.3612,1.65826 0.037,2.15349 l -0.2231,0.34043 h 3.051 c 1.678,0 3.0509,-0.0216 3.0509,-0.048 0,-0.0264 -0.081,-0.24071 -0.18,-0.47625 -0.4736,-1.12696 -1.6196,-2.22744 -2.8335,-2.7208 -0.5082,-0.20655 -0.733,-0.36753 -0.733,-0.52494 0,-0.37544 0.4087,-0.33921 1.3807,0.1224 1.5672,0.74426 2.847,2.34488 3.0714,3.84141 l 0.084,0.56137 1.7943,0.0351 c 1.5915,0.0312 1.799,0.0603 1.8369,0.2574 0.039,0.20337 -0.1131,0.22225 -1.7905,0.22225 h -1.8331 l -0.074,0.62862 c -0.2021,1.70667 -1.6763,3.47189 -3.4997,4.1906 -0.696,0.27436 -1.0332,0.23725 -1.0332,-0.1137 0,-0.14533 0.1654,-0.26987 0.486,-0.36592 1.3937,-0.41758 2.8394,-1.82403 3.253,-3.16485 l 0.088,-0.28575 h -2.2681 -2.2681 l -0.3292,0.67121 c -0.6574,1.34042 -1.4094,1.93527 -2.9588,2.34061 -0.7418,0.19405 -0.9327,0.30152 -1.1755,0.66184 -0.6063,0.89969 -1.1419,3.27523 -1.355,6.01009 l -0.067,0.85725 h 0.5009 c 0.5716,0 0.5125,0.13052 0.8336,-1.8415 0.2715,-1.66795 0.7217,-3.07013 1.2296,-3.83021 0.5017,-0.75063 0.8592,-0.84381 1.3679,-0.35649 0.7204,0.6902 1.1897,2.35048 1.3482,4.77013 l 0.082,1.25807 h 0.4803 c 0.6256,0 0.6769,-0.17196 0.5636,-1.8904 -0.1491,-2.26345 -0.5182,-3.78457 -1.1506,-4.74263 -0.3801,-0.57598 -0.41,-0.98697 -0.072,-0.98697 0.5201,0 1.3939,1.88878 1.6499,3.56637 0.2036,1.33499 0.3042,3.23868 0.2106,3.98779 l -0.088,0.70084 h -1.0626 -1.0625 l -0.067,-0.53975 c -0.037,-0.29686 -0.1018,-0.99695 -0.1442,-1.55575 -0.1506,-1.98269 -0.8253,-4.22871 -1.2311,-4.09831 -0.5029,0.16156 -1.1637,2.15619 -1.5654,4.72545 -0.1085,0.69418 -0.226,1.30854 -0.2611,1.36525 -0.095,0.15326 -2.0517,0.12577 -2.1481,-0.0302 z"
       style="fill:#000000;stroke-width:0.264583"
       id="path1" />
  </g>
</svg>
