<?xml version="1.0" encoding="UTF-8" standalone="no"?>
<!-- Created with Inkscape (http://www.inkscape.org/) -->

<svg
   width="20.827999mm"
   height="24.14098mm"
   viewBox="0 0 20.827999 24.14098"
   version="1.1"
   id="svg1"
   inkscape:version="1.4 (e7c3feb1, 2024-10-09)"
   sodipodi:docname="ATH.svg"
   xmlns:inkscape="http://www.inkscape.org/namespaces/inkscape"
   xmlns:sodipodi="http://sodipodi.sourceforge.net/DTD/sodipodi-0.dtd"
   xmlns="http://www.w3.org/2000/svg"
   xmlns:svg="http://www.w3.org/2000/svg">
  <sodipodi:namedview
     id="namedview1"
     pagecolor="#ffffff"
     bordercolor="#000000"
     borderopacity="0.25"
     inkscape:showpageshadow="2"
     inkscape:pageopacity="0.0"
     inkscape:pagecheckerboard="0"
     inkscape:deskcolor="#d1d1d1"
     inkscape:document-units="mm"
     inkscape:zoom="2.9647587"
     inkscape:cx="61.556443"
     inkscape:cy="70.663424"
     inkscape:window-width="1440"
     inkscape:window-height="872"
     inkscape:window-x="0"
     inkscape:window-y="28"
     inkscape:window-maximized="0"
     inkscape:current-layer="layer1" />
  <defs
     id="defs1" />
  <g
     inkscape:label="Layer 1"
     inkscape:groupmode="layer"
     id="layer1"
     transform="translate(-1942.9313,-467.75155)">
    <path
       d="m 1957.8915,489.8844 -1.9938,-2.00814 -6.3991,0.0487 -6.3991,0.0487 -0.084,-5.82481 c -0.046,-3.20364 -0.084,-7.08568 -0.084,-8.62676 l -2e-4,-2.80196 1.1077,-1.48429 1.1078,-1.48429 h 9.3062 9.3063 v 10.2235 10.2235 h -1.9016 -1.9016 l -0.035,1.84699 -0.035,1.84699 z m 3.8388,-1.81283 h 1.9014 v -10.0965 -10.0965 h -9.1793 -9.1792 l -1.1078,1.48429 -1.1077,1.48429 2e-4,2.67496 c 0,1.47123 0.038,5.29667 0.084,8.50098 l 0.084,5.82602 6.396,-0.0536 6.3959,-0.0536 1.8699,1.88517 1.8698,1.88517 0.035,-1.72035 0.035,-1.72035 z m -16.4564,-2.42315 c -0.047,-0.0764 -0.033,-0.19157 0.031,-0.25584 0.069,-0.0694 3.4894,-0.1036 8.4281,-0.0842 7.2885,0.0286 8.3112,0.0561 8.3112,0.22317 0,0.16707 -1.0261,0.19452 -8.3422,0.22316 -5.9362,0.0232 -8.367,-0.007 -8.4281,-0.10631 z m 0.4275,-0.66633 c -0.2793,-0.27921 -0.6511,-1.1966 -0.5704,-1.40701 0.041,-0.10568 0.2622,-0.24648 0.4925,-0.31287 0.2923,-0.0843 0.3371,-0.12419 0.1485,-0.13218 -0.2936,-0.0124 -0.6044,-0.30102 -0.4695,-0.43589 0.046,-0.046 0.4896,-0.0836 0.9859,-0.0836 0.8306,0 0.9424,-0.0329 1.404,-0.41275 l 0.5015,-0.41275 -1.4568,-0.0635 c -1.1821,-0.0515 -1.4569,-0.0994 -1.4569,-0.254 0,-0.15784 0.2852,-0.19655 1.664,-0.2258 1.9423,-0.0412 1.7536,0.11686 2.2804,-1.91063 0.1737,-0.66847 0.4184,-1.38992 0.5439,-1.60323 0.2528,-0.42999 0.2342,-0.42775 2.1304,-0.25648 1.345,0.12149 2.055,0.005 2.7444,-0.45213 0.4941,-0.3273 0.6152,-0.35746 0.9964,-0.24816 0.6646,0.19063 2.2783,0.14808 3.0475,-0.0804 0.3793,-0.11264 1.0742,-0.39847 1.5442,-0.63519 0.811,-0.40838 0.8476,-0.44594 0.7162,-0.73439 l -0.1385,-0.304 -0.674,0.29805 c -0.9545,0.42213 -2.0792,0.69177 -2.8717,0.68852 -0.7684,-0.003 -1.4905,-0.28796 -2.4161,-0.95293 -0.7185,-0.51622 -0.7698,-0.52183 -1.6747,-0.18324 -0.6391,0.23909 -1.5707,1.04131 -1.9319,1.66349 -0.065,0.11231 -0.2471,0.24411 -0.4043,0.29289 -0.6927,0.21503 -0.1018,-1.06843 0.8701,-1.88982 0.2374,-0.20063 0.7106,-0.48838 1.0515,-0.63943 l 0.6198,-0.27464 -0.6312,-0.27157 c -1.3617,-0.58577 -2.2736,-0.66061 -3.4861,-0.2861 -1.0303,0.31824 -1.3063,0.51512 -1.1984,0.85502 0.078,0.24645 0.1097,0.25066 0.603,0.0807 0.328,-0.11301 0.9021,-0.16579 1.5523,-0.1427 0.9604,0.0341 1.0346,0.0564 1.0724,0.32237 0.039,0.2765 0.01,0.28584 -1.016,0.28854 -0.783,0.002 -1.2025,0.069 -1.6202,0.25845 -0.3099,0.14062 -0.6359,0.22787 -0.7245,0.1939 -0.2094,-0.0804 -0.6804,-1.00599 -0.6804,-1.33727 0,-0.53687 1.5191,-1.24485 2.921,-1.36131 1.5129,-0.12569 3.0464,0.39897 4.699,1.60766 1.4772,1.0804 2.1835,1.27022 2.8312,0.7608 1.0276,-0.80837 0.4646,-2.41102 -0.8471,-2.41102 -0.4175,0 -0.5787,0.0834 -0.9827,0.508 -0.5578,0.58639 -0.8744,0.6569 -0.8744,0.19474 0,-0.43747 0.772,-1.17728 1.3397,-1.28377 1.4648,-0.27481 2.523,0.53304 2.5242,1.92704 0,0.39612 -0.083,0.77532 -0.2152,0.97672 l -0.2157,0.32921 0.6709,-0.2308 c 0.3689,-0.12695 0.9153,-0.35552 1.214,-0.50794 0.2988,-0.15242 0.6299,-0.25948 0.7358,-0.23791 0.2957,0.0602 0.811,1.37693 0.6538,1.67061 -0.1577,0.29466 -2.2187,1.27082 -3.1241,1.47969 -0.3842,0.0887 -1.2254,0.13543 -1.9685,0.10945 -1.1803,-0.0413 -1.3547,-0.0167 -1.9324,0.27205 -0.5618,0.28083 -0.796,0.31741 -2.032,0.31741 -0.7684,0 -1.5821,-0.0413 -1.8083,-0.0918 -0.3637,-0.0812 -0.4321,-0.0514 -0.5917,0.25706 -0.099,0.19186 -0.2989,0.84785 -0.4437,1.45776 -0.1449,0.60991 -0.3826,1.34264 -0.5283,1.62829 -0.4265,0.83594 -1.3066,1.61422 -2.414,2.13474 -0.9418,0.44272 -0.9953,0.48893 -0.829,0.71636 0.1629,0.22273 0.2293,0.22973 0.7929,0.0836 1.8001,-0.4668 3.7413,-2.02348 4.4859,-3.59729 0.2109,-0.4459 0.3835,-0.88217 0.3836,-0.96948 2e-4,-0.34775 1.2364,-0.0724 1.7463,0.38898 0.203,0.18363 0.2858,0.40154 0.2858,0.75201 0,0.41859 -0.097,0.59631 -0.6411,1.17129 -0.3525,0.3728 -0.8633,0.83184 -1.1349,1.02009 -0.4476,0.31015 -0.4808,0.37097 -0.3546,0.64808 0.077,0.16819 0.1764,0.3058 0.2217,0.3058 0.2297,0 1.6673,-0.97787 2.2049,-1.49983 1.3215,-1.28306 1.449,-2.38406 0.3753,-3.24014 -0.3604,-0.28733 -0.3881,-0.72103 -0.046,-0.72103 0.3129,0 0.9807,0.56052 1.2207,1.02482 0.1023,0.19776 0.186,0.64716 0.186,0.99866 v 0.63908 l 3.1432,0.034 c 2.6943,0.0291 3.1433,0.0612 3.1433,0.22447 0,0.16276 -0.4765,0.19975 -3.2724,0.254 l -3.2724,0.0635 -0.25,0.381 -0.2499,0.381 3.5224,0.0635 c 3.018,0.0544 3.5223,0.0908 3.5223,0.254 0,0.16433 -0.5214,0.19513 -3.7958,0.22417 l -3.7958,0.0337 -0.5131,0.37736 -0.5132,0.37737 4.309,0.0335 c 3.7306,0.029 4.3089,0.059 4.3089,0.22397 0,0.16486 -0.6497,0.19924 -4.826,0.25539 -3.8183,0.0513 -4.9109,0.10306 -5.2324,0.24769 -0.3642,0.16385 -0.4311,0.16041 -0.645,-0.0331 -0.389,-0.35208 -2.4859,-0.3016 -3.6381,0.0876 -1.2653,0.42743 -1.7881,0.50318 -2.0013,0.28999 z m 5.1249,-1.32377 c -0.063,-0.12224 -0.089,-0.29369 -0.057,-0.381 0.1023,-0.28543 -0.3958,-0.16152 -0.9077,0.22579 l -0.4988,0.37746 h 0.789 c 0.7104,0 0.7777,-0.0222 0.6748,-0.22225 z m 1.1063,-1.4605 0.539,-0.41275 -0.4641,-0.0401 c -0.4639,-0.0401 -0.6182,0.0638 -0.9554,0.64336 -0.2201,0.37822 0.2787,0.27031 0.8805,-0.1905 z m 1.0946,-1.35594 c 0,-0.22582 -0.1058,-0.35139 -0.396,-0.46979 -0.3928,-0.16025 -0.3977,-0.15738 -0.5957,0.34659 l -0.1996,0.50819 0.5956,-0.0384 c 0.5354,-0.0345 0.5957,-0.0696 0.5957,-0.34659 z"
       style="fill:#000000;stroke-width:0.264583"
       id="path1" />
  </g>
</svg>
