<?xml version="1.0" encoding="UTF-8" standalone="no"?>
<!-- Created with Inkscape (http://www.inkscape.org/) -->

<svg
   width="21.247267mm"
   height="24.497805mm"
   viewBox="0 0 21.247266 24.497805"
   version="1.1"
   id="svg1"
   inkscape:version="1.4 (e7c3feb1, 2024-10-09)"
   sodipodi:docname="BDM.svg"
   xmlns:inkscape="http://www.inkscape.org/namespaces/inkscape"
   xmlns:sodipodi="http://sodipodi.sourceforge.net/DTD/sodipodi-0.dtd"
   xmlns="http://www.w3.org/2000/svg"
   xmlns:svg="http://www.w3.org/2000/svg">
  <sodipodi:namedview
     id="namedview1"
     pagecolor="#ffffff"
     bordercolor="#000000"
     borderopacity="0.25"
     inkscape:showpageshadow="2"
     inkscape:pageopacity="0.0"
     inkscape:pagecheckerboard="0"
     inkscape:deskcolor="#d1d1d1"
     inkscape:document-units="mm"
     inkscape:zoom="2.9647587"
     inkscape:cx="40.644117"
     inkscape:cy="46.040847"
     inkscape:window-width="1440"
     inkscape:window-height="872"
     inkscape:window-x="0"
     inkscape:window-y="28"
     inkscape:window-maximized="0"
     inkscape:current-layer="layer1" />
  <defs
     id="defs1" />
  <g
     inkscape:label="Layer 1"
     inkscape:groupmode="layer"
     id="layer1"
     transform="translate(-1947.189,-493.58578)">
    <path
       d="m 1961.998,516.04956 c -1.0097,-1.11897 -1.9527,-2.05697 -2.0955,-2.08444 -0.1428,-0.0275 -3.06,-0.11612 -6.4826,-0.19701 -3.4227,-0.0809 -6.2266,-0.15655 -6.2309,-0.16817 0,-0.0116 0.091,-3.56438 0.2126,-7.89508 0.1213,-4.3307 0.2249,-8.19515 0.2302,-8.58765 0.01,-0.70024 0.03,-0.74007 1.1208,-2.121 l 1.1113,-1.40736 0.5715,-0.003 c 1.5737,-0.007 17.9368,0.48559 17.993,0.54174 0.036,0.0358 -0.055,4.51261 -0.2024,9.94846 -0.1471,5.43586 -0.2668,10.02083 -0.266,10.18884 v 0.30549 l -1.9685,-0.0849 -1.9685,-0.0849 -0.01,1.36689 c 0,0.75181 -0.047,1.58049 -0.095,1.84153 l -0.088,0.47458 z m 1.8867,-0.35168 0.013,-1.43701 1.9685,0.09 1.9685,0.09 v -0.36756 c 0,-0.20214 0.1181,-4.73057 0.2633,-10.06319 0.1452,-5.3326 0.236,-9.72363 0.2018,-9.75785 -0.066,-0.0656 -18.2589,-0.58424 -18.3035,-0.52179 -0.014,0.0199 -0.5147,0.64876 -1.1122,1.39732 l -1.0864,1.36104 -0.087,2.57596 c -0.048,1.41679 -0.1545,5.23938 -0.2364,8.49465 l -0.1488,5.91868 2.6035,0.0814 c 1.4319,0.0448 4.2323,0.1138 6.223,0.15349 1.9907,0.0397 3.7355,0.095 3.8772,0.12308 0.1418,0.0281 1.0276,0.90284 1.9685,1.94403 1.9694,2.17927 1.8687,2.18366 1.8886,-0.0823 z m -11.3278,-3.40532 c -0.1416,-0.14166 -0.1041,-2.25195 0.053,-2.99371 0.3248,-1.53106 1.2373,-2.68986 2.375,-3.01614 0.2856,-0.0819 0.4286,-0.0652 0.5345,0.0623 0.1985,0.23916 0.088,0.37193 -0.5767,0.69374 -1.1549,0.55912 -1.6934,1.60972 -1.8061,3.52383 l -0.069,1.17475 h 0.4441 0.4442 l 0.067,-0.73695 c 0.131,-1.44423 0.9826,-2.73132 2.0157,-3.04633 1.0804,-0.32946 1.0963,-0.32666 1.456,0.25728 0.7337,1.19086 1.0298,1.55218 1.6643,2.03129 0.7937,0.59917 2.0749,1.06809 3.2462,1.18803 0.7288,0.0746 0.8573,0.0581 0.8573,-0.10991 0,-0.10869 0.032,-0.28104 0.071,-0.38296 0.053,-0.13938 -0.074,-0.20703 -0.5128,-0.27292 -0.8326,-0.12485 -1.9545,-0.53236 -2.4931,-0.90556 -0.3031,-0.2101 -0.6479,-0.66566 -1.003,-1.32543 l -0.541,-1.00528 -0.9039,-0.33814 c -1.9677,-0.73623 -2.6444,-1.4424 -2.7235,-2.84215 -0.046,-0.82042 -0.063,-0.85741 -0.4891,-1.08683 -0.2425,-0.13065 -0.749,-0.57026 -1.1255,-0.97692 -0.8105,-0.87536 -1.2012,-1.92644 -1.2012,-3.23109 v -0.81912 l 0.7167,-0.31695 c 1.0541,-0.46619 1.2316,-0.4009 1.3429,0.49402 0.097,0.78001 0.4748,1.76205 0.8345,2.16921 0.1745,0.19752 1.6479,0.96971 1.8504,0.96971 0.028,0 0.076,-0.34581 0.1066,-0.76846 0.049,-0.67901 0.1092,-0.82214 0.5168,-1.22968 0.4078,-0.40785 0.5504,-0.46768 1.2318,-0.51697 0.6686,-0.0484 0.836,-0.0125 1.2634,0.27029 0.8572,0.56732 1.1373,1.86032 0.5853,2.70276 -0.2185,0.33337 -0.7014,0.41455 -0.7014,0.11787 0,-0.10242 0.093,-0.38214 0.2076,-0.62161 0.6177,-1.29527 -1.1064,-2.50398 -2.1224,-1.48798 -0.4929,0.49295 -0.5138,1.21784 -0.051,1.76801 0.4384,0.52105 1.891,1.07014 3.9046,1.4759 0.3829,0.0772 0.6009,-0.28038 0.6027,-0.98896 0,-0.8917 0.1084,-1.22918 0.3864,-1.22918 0.2233,0 0.2235,-0.0235 0.01,-0.66675 -0.2129,-0.62729 -0.2557,-0.67092 -0.7225,-0.7372 -0.7322,-0.10398 -1.0611,-0.33257 -1.3297,-0.92405 -0.3022,-0.66574 -0.3012,-0.90353 0.01,-1.58273 0.558,-1.2294 2.4043,-1.31782 3.0952,-0.14821 0.1191,0.20156 0.2077,0.62767 0.2077,0.99842 0,0.55457 -0.061,0.71475 -0.4262,1.12341 l -0.4262,0.47661 0.2694,0.79893 c 0.1918,0.56859 0.3604,0.84415 0.585,0.95578 0.2876,0.14294 0.3191,0.24102 0.3556,1.10608 0.068,1.59877 -0.3624,2.45054 -1.4454,2.86416 -0.4773,0.1823 -0.8372,0.20619 -2.1616,0.14362 l -1.5888,-0.0751 -0.1345,0.34173 c -0.2358,0.59958 -0.3214,0.72277 -0.5021,0.72277 -0.3012,0 -0.2063,-1.04289 0.1249,-1.3733 0.2614,-0.26069 0.3941,-0.2777 2.1676,-0.2777 1.8385,0 1.8986,-0.008 2.2347,-0.3175 0.4754,-0.43707 0.6936,-1.01039 0.6936,-1.82261 0,-0.6059 -0.034,-0.69689 -0.2857,-0.76436 -0.4617,-0.12372 -0.4762,-0.10784 -0.4781,0.52322 -0.01,1.98432 -1.1445,1.98509 -5.8621,0.004 -1.3955,-0.58606 -2.2574,-1.02516 -2.5281,-1.28798 -0.4734,-0.45965 -0.9456,-1.4321 -1.0676,-2.19861 -0.084,-0.52728 -0.086,-0.52918 -0.4725,-0.39452 -0.3879,0.13524 -0.3881,0.13577 -0.3153,0.91084 0.1319,1.40384 0.7675,2.4329 1.9806,3.20641 l 0.7686,0.49011 v 0.74279 c 0,1.35459 0.631,2.09222 2.2271,2.62335 1.0791,0.35911 1.4002,0.63709 1.8602,1.61065 0.5863,1.24094 1.5259,1.79734 3.4843,2.06308 0.3772,0.0512 0.7258,0.13306 0.7747,0.18193 0.088,0.0883 -0.077,0.84188 -0.3305,1.50945 -0.1219,0.32052 -0.1879,0.34906 -0.8027,0.34703 -2.3668,-0.008 -4.646,-1.20505 -5.7235,-3.00662 -0.4314,-0.72128 -0.5465,-0.77399 -1.0805,-0.49501 -0.8939,0.46702 -1.4024,1.37332 -1.5243,2.7165 l -0.089,0.97785 -0.9582,0.0366 c -0.5271,0.0201 -0.9986,-0.004 -1.0478,-0.0529 z m 10.797,-13.70235 c 0.3838,-0.38379 0.436,-0.50526 0.3687,-0.85725 -0.089,-0.46545 -0.7222,-1.10861 -1.0912,-1.10861 -0.6372,0 -1.2814,0.62525 -1.2695,1.23195 0.01,0.34945 0.3069,0.81669 0.6445,1.00382 0.5061,0.28054 0.87,0.20767 1.3475,-0.26991 z m -5.0991,-1.05915 c -0.4142,-0.25982 -0.7781,-0.5474 -0.8087,-0.63905 -0.063,-0.1903 1.343,-1.66466 1.588,-1.66466 0.2071,0 1.0533,1.67362 1.0533,2.08326 0,0.41137 -0.3176,0.71288 -0.7393,0.7018 -0.1871,-0.005 -0.6791,-0.22153 -1.0933,-0.48135 z m 1.2679,-0.15577 c 0.047,-0.0759 0.019,-0.20405 -0.061,-0.28469 -0.1108,-0.11083 -0.1742,-0.10186 -0.2599,0.0367 -0.1211,0.19586 -0.06,0.386 0.1239,0.386 0.062,0 0.1504,-0.0621 0.1973,-0.13806 z m -0.6464,-0.67203 c 0.2946,-0.27303 0.3429,-0.71391 0.078,-0.71391 -0.1876,0 -0.796,0.74772 -0.7151,0.87868 0.1279,0.20688 0.2775,0.16815 0.6368,-0.16477 z"
       style="fill:#000000;stroke-width:0.264583"
       id="path1" />
  </g>
</svg>
