<?xml version="1.0" encoding="UTF-8" standalone="no"?>
<!-- Created with Inkscape (http://www.inkscape.org/) -->

<svg
   width="22.00647mm"
   height="24.243513mm"
   viewBox="0 0 22.00647 24.243512"
   version="1.1"
   id="svg1"
   inkscape:version="1.4 (e7c3feb1, 2024-10-09)"
   sodipodi:docname="BOX.svg"
   xmlns:inkscape="http://www.inkscape.org/namespaces/inkscape"
   xmlns:sodipodi="http://sodipodi.sourceforge.net/DTD/sodipodi-0.dtd"
   xmlns="http://www.w3.org/2000/svg"
   xmlns:svg="http://www.w3.org/2000/svg">
  <sodipodi:namedview
     id="namedview1"
     pagecolor="#ffffff"
     bordercolor="#000000"
     borderopacity="0.25"
     inkscape:showpageshadow="2"
     inkscape:pageopacity="0.0"
     inkscape:pagecheckerboard="0"
     inkscape:deskcolor="#d1d1d1"
     inkscape:document-units="mm"
     inkscape:zoom="4.2436444"
     inkscape:cx="41.827256"
     inkscape:cy="46.068893"
     inkscape:window-width="1440"
     inkscape:window-height="872"
     inkscape:window-x="0"
     inkscape:window-y="28"
     inkscape:window-maximized="0"
     inkscape:current-layer="layer1" />
  <defs
     id="defs1" />
  <g
     inkscape:label="Layer 1"
     inkscape:groupmode="layer"
     id="layer1"
     transform="translate(-119.86183,-156.4723)">
    <path
       d="m 123.61833,179.54109 c 0.0447,-0.64611 0.11229,-1.43903 0.15021,-1.76204 0.0685,-0.58395 0.0665,-0.5877 -0.35356,-0.66003 -0.23236,-0.04 -1.12686,-0.11193 -1.98782,-0.15985 l -1.56533,-0.0871 0.07,-0.58636 c 0.0385,-0.32249 0.3656,-4.90118 0.72686,-10.17485 0.36129,-5.27368 0.67506,-9.61037 0.69728,-9.63709 0.0394,-0.0474 16.442,1.06419 17.83077,1.20839 l 0.70022,0.0727 0.99066,1.49678 0.99068,1.49678 -0.12774,1.37946 -0.12772,1.37947 0.0527,-1.33337 0.0527,-1.33336 -0.98017,-1.48092 -0.98015,-1.48092 -0.76272,-0.0751 c -1.43822,-0.14156 -17.48671,-1.23668 -17.51967,-1.19551 -0.018,0.0226 -0.32777,4.35597 -0.68808,9.62965 -0.36033,5.27367 -0.68228,9.79342 -0.71546,10.04388 l -0.0603,0.45539 1.90432,0.12786 c 1.04737,0.0703 1.93452,0.15804 1.97141,0.19493 0.0369,0.0369 0.008,0.79828 -0.0649,1.69197 -0.0726,0.89369 -0.11755,1.63857 -0.1,1.65529 0.0177,0.0167 0.74634,-0.62385 1.61947,-1.42351 0.87312,-0.79965 1.76585,-1.59544 1.98384,-1.76842 l 0.39635,-0.31452 6.38368,0.45095 c 3.51102,0.24802 6.39643,0.43491 6.41202,0.41531 0.0156,-0.0196 0.25072,-3.23603 0.52247,-7.14763 0.27178,-3.9116 0.51432,-6.96913 0.53898,-6.7945 0.0246,0.17462 -0.17192,3.41788 -0.43688,7.20725 -0.46974,6.71791 -0.48829,6.88969 -0.74337,6.88772 -0.14388,-0.001 -3.03064,-0.19853 -6.41506,-0.4387 -4.82545,-0.34244 -6.19588,-0.40382 -6.35,-0.2844 -0.10808,0.0838 -1.03267,0.90982 -2.05462,1.8357 -1.02198,0.92589 -1.89958,1.68342 -1.95025,1.68342 -0.0507,0 -0.0556,-0.52863 -0.0109,-1.17475 z m 12.87765,-4.33464 c -1.2753,-0.52452 -2.14712,-1.31702 -2.60133,-2.3646 -0.106,-0.24448 -0.23321,-0.95885 -0.28269,-1.5875 l -0.0899,-1.143 -0.73792,0.7414 c -0.88093,0.88508 -1.50413,2.13267 -1.75855,3.5205 l -0.17328,0.94509 h -1.07238 -1.07238 l 0.0146,-0.95249 c 0.018,-1.18756 0.4214,-2.68848 1.03957,-3.86778 0.57804,-1.10276 1.93032,-2.51811 2.349,-2.45856 0.43683,0.0621 0.27982,0.44508 -0.46001,1.12201 -1.15001,1.05223 -2.08039,3.00766 -2.30999,4.85508 l -0.0908,0.73025 h 0.51687 c 0.49845,0 0.51975,-0.017 0.59671,-0.47625 0.11743,-0.70071 0.43522,-1.66716 0.7646,-2.32527 0.68352,-1.36564 2.04687,-2.60995 2.75034,-2.51016 0.27609,0.0392 0.29361,0.10623 0.35938,1.37468 0.06,1.15726 0.11788,1.42285 0.43802,2.00959 0.36862,0.67559 0.93369,1.21487 1.65185,1.57642 0.74644,0.37578 0.8985,0.38 1.05828,0.0293 0.18783,-0.41222 0.186,-0.44034 -0.0285,-0.44034 -0.32028,0 -1.45124,-1.13301 -1.60943,-1.61236 -0.14986,-0.45407 -0.11634,-1.24126 0.12051,-2.83068 0.1636,-1.09777 0.0541,-1.31715 -0.71231,-1.42745 -1.13752,-0.16371 -2.01337,-0.5701 -2.55516,-1.1856 -0.49406,-0.5613 -0.5003,-0.56391 -1.34392,-0.56391 -0.49168,0 -0.99693,-0.0773 -1.20338,-0.18402 -0.47562,-0.24594 -1.08614,-0.95746 -1.46772,-1.7105 -0.27009,-0.53297 -0.37608,-0.62622 -0.79352,-0.69815 -0.265,-0.0457 -0.63201,-0.11265 -0.8156,-0.14888 -0.27829,-0.0549 -0.3475,-0.0113 -0.41616,0.26229 -0.11277,0.44926 -0.77637,0.8272 -1.45349,0.82778 -0.45927,2.7e-4 -0.62529,-0.0724 -0.98425,-0.43132 -0.37304,-0.37303 -0.4318,-0.51612 -0.4318,-1.05124 0,-1.18751 0.5621,-1.56496 2.3305,-1.56496 1.1983,0 1.20076,-5.3e-4 1.63711,-0.43702 0.76383,-0.76382 1.70005,-0.76523 2.36881,-0.004 0.21276,0.24231 0.43665,0.44056 0.49753,0.44056 0.0609,0 0.10628,-0.32861 0.10083,-0.73025 -0.0177,-1.30312 0.73419,-2.06428 2.0379,-2.06327 1.18142,7.9e-4 1.98252,0.82193 1.92029,1.96802 -0.0293,0.53885 -0.0729,0.635 -0.28847,0.635 -0.20963,0 -0.26646,-0.10842 -0.32525,-0.6206 -0.18122,-1.5781 -2.17194,-1.87194 -2.66015,-0.39266 -0.19966,0.60496 0.13652,1.30532 0.77692,1.6185 0.4273,0.20898 0.52208,0.21086 1.39298,0.0277 0.8841,-0.18598 0.95181,-0.18389 1.25598,0.0387 0.78311,0.57313 1.58485,2.85204 1.50219,4.26995 -0.032,0.5492 -0.0759,0.64642 -0.29167,0.64642 -0.22405,0 -0.26432,-0.11386 -0.34158,-0.96549 -0.1035,-1.14105 -0.50837,-2.42673 -0.94573,-3.00326 -0.34776,-0.45841 -0.40182,-0.46998 -1.2978,-0.27782 -0.51845,0.11118 -0.65651,0.20102 -0.78473,0.51057 -0.4332,1.04583 -1.63891,1.33908 -2.47767,0.60263 -0.45291,-0.39766 -0.45775,-0.4123 -0.37438,-1.13072 0.0986,-0.84927 -0.0269,-1.16136 -0.55473,-1.37999 -1.09032,-0.45163 -1.80374,1.16969 -0.76888,1.74736 0.24437,0.1364 0.54957,0.52863 0.8436,1.08417 0.31083,0.58726 0.61892,0.97512 0.94692,1.19219 0.44519,0.29461 0.56377,0.3151 1.40607,0.24296 l 0.91991,-0.0788 0.33385,0.55248 c 0.4124,0.68244 1.31011,1.1518 2.5835,1.35075 0.48694,0.0761 0.90852,0.16151 0.93686,0.18985 0.2086,0.20858 0.23762,1.29298 0.0662,2.47346 -0.10638,0.73279 -0.16002,1.49955 -0.11914,1.7039 0.11904,0.5951 0.65149,1.17344 1.41124,1.53286 0.61642,0.29162 0.69458,0.36923 0.61732,0.6129 -0.11202,0.35327 -0.67955,1.2651 -0.8641,1.3883 -0.18941,0.12647 -0.17224,0.13004 -0.98729,-0.2052 z m -10.73799,-11.35009 c 0.11073,-0.12236 0.26382,-0.38682 0.3402,-0.58767 0.12912,-0.33964 0.1769,-0.36091 0.68263,-0.3039 0.53708,0.0605 0.54314,0.0568 0.49059,-0.30133 l -0.0532,-0.36261 h -1.11144 c -1.30148,0 -1.78072,0.24173 -1.78072,0.89821 0,0.73594 0.96144,1.17725 1.43197,0.6573 z m 5.99234,-0.55652 0.33491,-0.39801 -0.48236,-0.29653 c -0.2653,-0.16309 -0.63204,-0.29831 -0.815,-0.30049 -0.28652,-0.003 -0.34372,0.0621 -0.41259,0.47229 -0.0653,0.38909 -0.0309,0.51692 0.18796,0.6985 0.40328,0.33454 0.80814,0.2746 1.18708,-0.17576 z"
       style="fill:#000000;stroke-width:0.264583"
       id="path1" />
  </g>
</svg>
