<?xml version="1.0" encoding="UTF-8" standalone="no"?>
<!-- Created with Inkscape (http://www.inkscape.org/) -->

<svg
   width="22.578022mm"
   height="24.346498mm"
   viewBox="0 0 22.578023 24.346498"
   version="1.1"
   id="svg1"
   inkscape:version="1.4 (e7c3feb1, 2024-10-09)"
   sodipodi:docname="CRD.svg"
   xmlns:inkscape="http://www.inkscape.org/namespaces/inkscape"
   xmlns:sodipodi="http://sodipodi.sourceforge.net/DTD/sodipodi-0.dtd"
   xmlns="http://www.w3.org/2000/svg"
   xmlns:svg="http://www.w3.org/2000/svg">
  <sodipodi:namedview
     id="namedview1"
     pagecolor="#ffffff"
     bordercolor="#000000"
     borderopacity="0.25"
     inkscape:showpageshadow="2"
     inkscape:pageopacity="0.0"
     inkscape:pagecheckerboard="0"
     inkscape:deskcolor="#d1d1d1"
     inkscape:document-units="mm"
     inkscape:zoom="4.2436444"
     inkscape:cx="9.3080371"
     inkscape:cy="53.138288"
     inkscape:window-width="1440"
     inkscape:window-height="872"
     inkscape:window-x="0"
     inkscape:window-y="28"
     inkscape:window-maximized="0"
     inkscape:current-layer="layer1" />
  <defs
     id="defs1" />
  <g
     inkscape:label="Layer 1"
     inkscape:groupmode="layer"
     id="layer1"
     transform="translate(-110.84711,-142.79511)">
    <path
       d="m 127.74478,165.3742 -2.10037,-1.75546 -6.40863,0.73745 c -3.52475,0.40559 -6.41517,0.7282 -6.42316,0.7169 -0.008,-0.0113 -0.4535,-3.86069 -0.99002,-8.55422 l -0.97549,-8.53369 0.92268,-1.57068 0.92268,-1.57069 9.18917,-1.05145 c 5.05407,-0.5783 9.21424,-1.02639 9.24488,-0.99577 0.0915,0.0915 2.36977,20.17116 2.2969,20.24402 -0.0369,0.0369 -0.89998,0.16 -1.91793,0.27354 -1.7086,0.19058 -1.85076,0.22627 -1.84984,0.46442 0,0.14189 0.0863,0.94161 0.1905,1.77716 0.10422,0.83554 0.1895,1.53563 0.1895,1.55575 0,0.14329 -0.44048,-0.19074 -2.29087,-1.73728 z m 1.95746,0.2181 c -0.0893,-0.71596 -0.1652,-1.50356 -0.16854,-1.75023 l -0.006,-0.44848 1.85084,-0.20644 c 1.01796,-0.11354 1.87531,-0.23091 1.90521,-0.26082 0.0578,-0.0578 -2.19906,-19.91763 -2.27169,-19.99023 -0.0235,-0.0235 -4.12646,0.42478 -9.11775,0.99618 l -9.07502,1.03891 -0.91086,1.55057 -0.91085,1.55058 0.94406,8.2361 c 0.51922,4.52986 0.95946,8.32447 0.9783,8.43247 0.0299,0.17136 0.8478,0.10278 6.4263,-0.53881 l 6.39202,-0.73517 2.05348,1.70743 c 1.1294,0.93908 2.05788,1.71018 2.06325,1.71356 0.005,0.003 -0.0633,-0.57965 -0.15269,-1.29562 z m -13.06509,-3.7752 c -0.7266,-0.18679 -1.08035,-0.37959 -1.63563,-0.89145 -1.85137,-1.70652 -1.41851,-4.76432 0.83764,-5.91744 0.32949,-0.16838 0.72954,-0.30797 0.889,-0.31019 0.25551,-0.004 0.2657,-0.0225 0.0857,-0.1596 -0.11234,-0.0856 -0.30033,-0.48603 -0.41775,-0.88996 -0.11742,-0.40392 -0.32229,-0.84321 -0.45527,-0.97618 -0.35256,-0.35255 -0.37595,-0.6927 -0.0508,-0.7391 0.17471,-0.0249 0.38399,0.0984 0.59748,0.35215 l 0.32859,0.39051 0.92181,-0.19219 c 1.09207,-0.22771 1.38094,-0.47201 1.46764,-1.24121 l 0.0639,-0.56708 -0.52727,-0.0707 c -1.84552,-0.24753 -2.28227,-2.58374 -0.64203,-3.43426 0.81719,-0.42376 2.15794,-0.0355 2.26054,0.65467 0.0518,0.34819 -0.15401,0.34817 -0.81161,-1.2e-4 -1.30802,-0.69276 -2.48126,0.78686 -1.44534,1.82279 0.551,0.55101 1.14785,0.45559 2.06817,-0.33066 l 0.68358,-0.58401 1.06582,8e-4 c 1.75654,0.002 3.5423,0.52544 3.5423,1.03938 0,0.15489 -0.49057,0.12133 -1.27,-0.0869 -0.38418,-0.10262 -1.14036,-0.2474 -1.6804,-0.32172 -1.09736,-0.15102 -1.20182,-0.12066 -2.09785,0.60988 -0.49263,0.40163 -0.53999,0.49139 -0.54253,1.028 -0.003,0.32338 -0.10994,0.82386 -0.24085,1.11217 -0.26437,0.58217 -0.80926,0.86885 -1.98247,1.04302 -0.56984,0.0846 -0.62804,0.12344 -0.59693,0.39841 0.019,0.16756 0.053,0.3232 0.0757,0.34587 0.0873,0.0873 1.98715,-0.33744 2.35098,-0.52558 0.47474,-0.2455 0.97581,-0.88861 1.20253,-1.54346 l 0.1719,-0.49647 1.3842,-9e-5 c 1.24409,-8e-5 1.45962,-0.0354 2.12904,-0.3489 0.40969,-0.19185 0.93827,-0.51865 1.17468,-0.72621 0.2364,-0.20757 0.50387,-0.34899 0.59436,-0.31426 0.0905,0.0347 0.31914,0.30156 0.5081,0.59297 0.49038,0.75628 0.47228,1.46651 -0.0526,2.06431 -0.42346,0.4823 -1.48958,1.11572 -2.69489,1.60113 -0.68201,0.27466 -0.71768,0.30811 -0.4445,0.41679 0.16336,0.065 0.67596,0.28629 1.13914,0.49178 l 0.84209,0.37362 0.49141,-0.32442 c 0.62484,-0.41251 1.67529,-0.6395 2.43343,-0.52581 1.78572,0.26779 3.20146,1.86886 3.20146,3.62059 0,1.29924 -0.91776,2.72996 -2.13006,3.32059 -0.8088,0.39405 -2.2434,0.40476 -3.08829,0.023 -0.74161,-0.33504 -1.47019,-1.06217 -1.81195,-1.8083 -0.40291,-0.87971 -0.37743,-2.27581 0.0576,-3.15486 l 0.32983,-0.66643 -0.65143,-0.30818 c -0.35827,-0.16949 -0.80177,-0.3459 -0.98552,-0.39202 l -0.33412,-0.0839 0.12348,0.55075 c 0.0679,0.30291 0.32401,0.99519 0.56912,1.53841 0.24511,0.54321 0.42728,1.08305 0.40481,1.19966 -0.0545,0.28316 -1.57424,0.74545 -1.8093,0.55038 -0.28752,-0.23863 -1.33059,-2.47637 -1.55741,-3.34122 -0.20773,-0.79194 -0.24395,-0.84338 -0.64701,-0.919 -0.2566,-0.0481 -0.4988,-0.0205 -0.60688,0.0692 -0.14912,0.12376 -0.0873,0.21994 0.36153,0.56265 0.29773,0.22735 0.71162,0.72079 0.91972,1.09653 0.33657,0.60769 0.37838,0.80243 0.37838,1.76267 0,0.96024 -0.0418,1.15497 -0.37838,1.76266 -0.79172,1.42948 -2.52154,2.19361 -4.06662,1.79639 z m 2.19265,-0.87682 c 1.79747,-0.917 2.21724,-3.14555 0.87887,-4.66601 -0.27681,-0.31446 -0.5484,-0.5254 -0.60357,-0.46873 -0.0552,0.0567 -0.22275,0.41734 -0.37245,0.80151 -0.3936,1.01021 -0.99635,1.905 -1.28323,1.905 -0.32311,0 -0.3148,-0.42832 0.0175,-0.89476 0.26532,-0.3726 0.79714,-1.49378 0.94197,-1.98583 0.0735,-0.24962 0.0225,-0.28596 -0.51462,-0.3665 -1.97937,-0.29683 -3.79521,1.63581 -3.36079,3.57698 0.24535,1.09629 1.06982,2.00088 2.13736,2.34506 0.52187,0.16824 1.58353,0.0469 2.15913,-0.24672 z m 10.39588,0.007 c 1.06021,-0.54515 1.62536,-1.47754 1.6302,-2.68948 0.004,-1.01218 -0.36322,-1.75361 -1.17483,-2.37186 -0.97906,-0.74581 -2.11558,-0.84908 -3.20844,-0.29155 l -0.51419,0.26233 0.59475,0.49148 c 1.31199,1.08417 2.11201,2.4176 1.45048,2.4176 -0.1397,0 -0.254,-0.0489 -0.254,-0.10863 0,-0.15831 -1.47881,-1.7469 -1.91596,-2.05817 l -0.3728,-0.26546 -0.31488,0.67638 c -0.7929,1.70322 0.0839,3.56778 1.96782,4.18462 0.48916,0.16016 1.56432,0.0343 2.11185,-0.24726 z m -5.95546,-2.73971 c 0.0164,-0.0163 -0.13972,-0.43259 -0.34668,-0.92513 -0.74358,-1.76977 -0.77907,-2.98346 -0.0967,-3.30745 2.5228,-1.19788 3.03154,-1.47305 3.25974,-1.76316 0.3042,-0.3867 0.33838,-0.8965 0.0828,-1.2337 -0.16659,-0.21978 -0.2013,-0.2123 -0.70361,0.15159 -0.81719,0.59196 -1.67767,0.8317 -3.00419,0.83697 l -1.16062,0.005 -0.1524,0.42115 c -0.18428,0.5093 -0.81629,1.25088 -1.33635,1.56804 l -0.381,0.23236 0.54289,5.2e-4 c 0.47538,5.3e-4 0.55939,-0.0429 0.67546,-0.34821 0.31419,-0.82641 1.27812,-1.67329 1.7141,-1.50599 0.29771,0.11424 0.20804,0.30186 -0.44614,0.93352 -0.34385,0.33201 -0.66741,0.77298 -0.71903,0.97993 -0.14153,0.56721 0.12512,1.5927 0.76573,2.94505 0.55756,1.17701 0.58682,1.21263 0.9261,1.12747 0.19269,-0.0484 0.36369,-0.10125 0.37996,-0.11753 z m -4.55811,-3.82167 c -0.0235,-0.0231 -0.32871,-0.007 -0.67796,0.0353 l -0.635,0.0773 0.635,0.1419 c 0.52339,0.11696 0.64254,0.11075 0.67796,-0.0353 0.0236,-0.0975 0.0236,-0.19614 0,-0.21925 z"
       style="fill:#000000;stroke-width:0.264583"
       id="path1" />
  </g>
</svg>
