<?xml version="1.0" encoding="UTF-8" standalone="no"?>
<!-- Created with Inkscape (http://www.inkscape.org/) -->

<svg
   width="21.54915mm"
   height="24.307981mm"
   viewBox="0 0 21.54915 24.307982"
   version="1.1"
   id="svg1"
   inkscape:version="1.4 (e7c3feb1, 2024-10-09)"
   sodipodi:docname="CSP.svg"
   xmlns:inkscape="http://www.inkscape.org/namespaces/inkscape"
   xmlns:sodipodi="http://sodipodi.sourceforge.net/DTD/sodipodi-0.dtd"
   xmlns="http://www.w3.org/2000/svg"
   xmlns:svg="http://www.w3.org/2000/svg">
  <sodipodi:namedview
     id="namedview1"
     pagecolor="#ffffff"
     bordercolor="#000000"
     borderopacity="0.25"
     inkscape:showpageshadow="2"
     inkscape:pageopacity="0.0"
     inkscape:pagecheckerboard="0"
     inkscape:deskcolor="#d1d1d1"
     inkscape:document-units="mm"
     inkscape:zoom="2.9647587"
     inkscape:cx="41.318709"
     inkscape:cy="46.040847"
     inkscape:window-width="1440"
     inkscape:window-height="872"
     inkscape:window-x="0"
     inkscape:window-y="28"
     inkscape:window-maximized="0"
     inkscape:current-layer="layer1" />
  <defs
     id="defs1" />
  <g
     inkscape:label="Layer 1"
     inkscape:groupmode="layer"
     id="layer1"
     transform="translate(-1948.3335,-474.23201)">
    <path
       d="m 1952.093,496.68216 0.088,-1.85764 -1.9237,-0.0928 -1.9236,-0.0928 v -0.33299 c -0.011,-0.9208 0.5811,-12.56874 0.6138,-12.06459 0.021,0.32307 -0.079,3.01308 -0.2223,5.97781 -0.1432,2.96473 -0.2603,5.59345 -0.2603,5.8416 v 0.45117 l 1.9235,0.0927 1.9234,0.0928 -0.072,1.71196 -0.072,1.71196 0.269,-0.2327 c 0.1479,-0.12799 1.0105,-0.9328 1.9168,-1.78846 l 1.6478,-1.55575 0.7082,0.008 c 0.3896,0.004 3.2943,0.13325 6.455,0.28665 3.7659,0.18276 5.7501,0.23481 5.7565,0.151 0.01,-0.0703 0.1931,-3.87122 0.4174,-8.44639 l 0.4077,-8.3185 -0.99,-1.4901 c -0.6775,-1.01986 -1.0798,-1.50797 -1.2746,-1.54675 -0.3992,-0.0794 -18.0007,-0.87981 -18.0578,-0.82112 -0.026,0.0264 -0.1223,1.67675 -0.2148,3.66747 -0.092,1.99073 -0.1903,3.47663 -0.2172,3.302 -0.056,-0.36412 0.2357,-7.02125 0.3114,-7.1013 0.059,-0.0618 17.8842,0.74276 18.3054,0.82621 0.1945,0.0385 0.5996,0.52823 1.2794,1.54649 l 0.9947,1.4901 -0.4094,8.54914 c -0.2251,4.70203 -0.4294,8.56478 -0.4539,8.58391 -0.024,0.0191 -2.6734,-0.0956 -5.8865,-0.25493 -3.2131,-0.15933 -6.1036,-0.29305 -6.4233,-0.29715 -0.573,-0.007 -0.6052,0.0152 -2.286,1.59995 -0.9376,0.88408 -1.8644,1.75445 -2.0596,1.93415 l -0.3549,0.32673 z m 1.8483,-4.55902 c -0.1637,-0.0656 -0.5312,-0.31916 -0.8166,-0.56345 -0.6048,-0.51767 -1.0888,-0.57122 -1.7145,-0.1897 -0.5403,0.32939 -0.9177,0.33139 -0.9177,0.005 0,-0.35283 0.9698,-0.89468 1.5987,-0.89317 0.4051,10e-4 5.0806,-0.99246 5.7673,-1.22543 0.1552,-0.0526 0.1405,-0.10542 -0.079,-0.28453 -0.1481,-0.12095 -0.3091,-0.3453 -0.3578,-0.49857 -0.1544,-0.48639 0.3745,-0.33343 1.2986,0.37557 0.4689,0.35982 1.0365,0.73129 1.2613,0.8255 0.859,0.36001 1.7104,0.1372 2.7028,-0.70733 l 0.4445,-0.37825 -0.2833,-0.2863 -0.2832,-0.2863 -0.3817,0.28217 c -1.1754,0.86906 -1.4745,0.74377 -4.1962,-1.758 -3.0589,-2.81178 -3.3011,-3.07248 -3.3011,-3.55366 0,-0.44671 0.1636,-0.81745 0.546,-1.2373 l 0.2603,-0.28575 -0.299,-0.31821 -0.2989,-0.31821 -0.3018,0.28355 c -0.5467,0.51354 -1.0496,1.39346 -1.0496,1.83632 0,0.23314 0.2389,0.98058 0.5309,1.66097 0.4394,1.02361 0.5315,1.37953 0.534,2.06258 0,0.94615 -0.4746,2.31795 -0.8318,2.38674 -0.347,0.0668 -0.3837,-0.39679 -0.084,-1.06432 0.425,-0.94716 0.3676,-1.66112 -0.2558,-3.18304 -0.7656,-1.869 -0.7111,-2.49118 0.3337,-3.8075 l 0.5172,-0.65161 -0.372,-0.3564 c -0.2115,-0.20258 -0.372,-0.48955 -0.372,-0.66493 0,-0.26141 0.049,-0.29919 0.3205,-0.24728 0.1763,0.0337 0.3461,0.0199 0.3774,-0.0307 0.099,-0.16044 -1.7987,-1.90594 -2.0723,-1.90594 -0.3281,0 -0.6576,0.32493 -0.6576,0.64848 0,0.14044 0.4725,0.73946 1.0818,1.37154 0.7599,0.78832 1.0582,1.18375 1.0024,1.32909 -0.044,0.11379 -0.1508,0.20689 -0.2382,0.20689 -0.2872,0 -2.3197,-2.22154 -2.4104,-2.63458 -0.1229,-0.55976 0.1908,-1.22207 0.6737,-1.42207 0.7243,-0.30003 1.1335,-0.10379 2.3665,1.13493 l 1.1362,1.14156 -0.2382,0.40327 -0.2382,0.40327 0.4325,0.38105 c 1.4248,1.25548 1.8929,1.74583 1.8929,1.98287 0,0.34089 -0.3932,0.34409 -0.6994,0.006 -0.2115,-0.23366 -0.2494,-0.23821 -0.4526,-0.0543 -0.122,0.11039 -0.2946,0.37644 -0.3836,0.59123 -0.1611,0.38914 -0.1578,0.39427 0.9314,1.44737 1.2028,1.16292 1.7838,1.57155 2.2356,1.57227 0.7538,10e-4 1.5282,-0.93029 1.3547,-1.62954 -0.1141,-0.45994 -0.5243,-0.87418 -1.0314,-1.04155 -0.5391,-0.17792 -1.1683,0.0951 -1.4954,0.64874 -0.2625,0.44437 -0.6287,0.45384 -0.6908,0.0179 -0.028,-0.19306 0.1005,-0.42941 0.3886,-0.71758 1.4231,-1.4231 3.7043,-0.35557 3.4847,1.63076 l -0.072,0.64728 1.4559,1.37936 1.4559,1.37936 1.7809,-0.40659 c 0.9795,-0.22363 1.8642,-0.37464 1.966,-0.33559 0.2674,0.10263 0.2355,0.28449 -0.254,1.44509 l -0.439,1.04091 0.8199,0.73323 c 0.451,0.40328 0.82,0.83325 0.82,0.95548 10e-5,0.30383 -0.4488,0.28715 -0.8542,-0.0317 -0.4686,-0.36856 -0.7942,-0.31639 -1.5514,0.24857 -1.1176,0.83385 -1.9403,0.81711 -2.9654,-0.0603 -0.6879,-0.58886 -1.1343,-0.58554 -1.904,0.0142 -1.0383,0.8089 -1.8789,0.81103 -2.9317,0.007 -0.784,-0.59843 -1.1944,-0.60394 -1.8356,-0.0247 -0.7446,0.67273 -1.4431,0.85639 -2.1618,0.56844 z m 1.4045,-0.85791 c 0.7505,-0.64451 1.0358,-0.78472 1.5968,-0.78472 0.6024,0 0.8771,0.11439 1.5509,0.64575 0.6587,0.51948 1.182,0.53475 1.7566,0.0513 0.2085,-0.17545 0.5415,-0.4037 0.74,-0.50722 l 0.3609,-0.18823 -0.5208,-8e-4 c -0.605,-7.9e-4 -1.2447,-0.19662 -1.7174,-0.5254 -0.3281,-0.22827 -0.3726,-0.22273 -2.952,0.36868 -1.4404,0.33024 -2.6015,0.65759 -2.5803,0.72744 0.051,0.16636 0.8513,0.57105 1.1303,0.57131 0.1198,1e-4 0.4056,-0.16104 0.635,-0.35809 z m 9.1733,0.24243 c 0.039,-0.0637 -0.1573,-0.29712 -0.437,-0.51867 -0.5634,-0.44618 -0.6639,-0.88834 -0.2948,-1.29618 0.1976,-0.21843 0.1981,-0.2518 0.01,-0.44343 -0.1916,-0.19164 -0.247,-0.17128 -0.7361,0.27059 -0.2909,0.26279 -0.7653,0.58517 -1.0543,0.71639 l -0.5254,0.23857 0.4211,0.003 c 0.4591,0.003 0.8357,0.16173 1.2299,0.51823 0.3046,0.27549 0.9568,0.62569 1.1673,0.62678 0.083,5.3e-4 0.1834,-0.0514 0.2228,-0.11507 z m 1.2727,-0.75752 0.5762,-0.36538 -0.6988,-0.59695 c -0.6932,-0.59225 -0.9134,-1.0853 -0.4846,-1.0853 0.1177,0 0.3413,0.11956 0.4968,0.2657 l 0.2829,0.26569 0.2666,-0.60282 c 0.1467,-0.33155 0.2511,-0.61839 0.2321,-0.63741 -0.019,-0.019 -0.5697,0.0898 -1.2237,0.24188 l -1.189,0.27646 0.6506,0.60834 c 0.6688,0.62539 0.848,1.10616 0.4121,1.10616 -0.1311,0 -0.3101,-0.0864 -0.3978,-0.19206 -0.124,-0.1494 -0.1993,-0.15897 -0.3389,-0.0431 -0.1498,0.12435 -0.1008,0.22957 0.2966,0.63657 0.2619,0.26818 0.4911,0.48759 0.5095,0.48759 0.018,0 0.2925,-0.16442 0.6094,-0.36537 z m -3.9253,-3.0758 c 0.05,-0.0802 -0.3119,-0.54277 -0.8386,-1.07297 l -0.9258,-0.93197 -0.3022,0.23777 c -0.1663,0.13078 -0.4698,0.27456 -0.6744,0.3195 l -0.3721,0.0817 0.771,0.7208 c 0.4241,0.39645 0.9453,0.81805 1.1583,0.93689 0.3444,0.19213 0.4266,0.19575 0.742,0.0326 0.1951,-0.10088 0.3939,-0.24686 0.4418,-0.3244 z"
       style="fill:#000000;stroke-width:0.264583"
       id="path1" />
  </g>
</svg>
