<?xml version="1.0" encoding="UTF-8" standalone="no"?>
<!-- Created with Inkscape (http://www.inkscape.org/) -->

<svg
   width="21.013382mm"
   height="23.910774mm"
   viewBox="0 0 21.013382 23.910773"
   version="1.1"
   id="svg1"
   inkscape:version="1.4 (e7c3feb1, 2024-10-09)"
   sodipodi:docname="EJP.svg"
   xmlns:inkscape="http://www.inkscape.org/namespaces/inkscape"
   xmlns:sodipodi="http://sodipodi.sourceforge.net/DTD/sodipodi-0.dtd"
   xmlns="http://www.w3.org/2000/svg"
   xmlns:svg="http://www.w3.org/2000/svg">
  <sodipodi:namedview
     id="namedview1"
     pagecolor="#ffffff"
     bordercolor="#000000"
     borderopacity="0.25"
     inkscape:showpageshadow="2"
     inkscape:pageopacity="0.0"
     inkscape:pagecheckerboard="0"
     inkscape:deskcolor="#d1d1d1"
     inkscape:document-units="mm"
     inkscape:zoom="4.2436444"
     inkscape:cx="-1.7673488"
     inkscape:cy="57.379925"
     inkscape:window-width="1440"
     inkscape:window-height="872"
     inkscape:window-x="0"
     inkscape:window-y="28"
     inkscape:window-maximized="0"
     inkscape:current-layer="layer1" />
  <defs
     id="defs1" />
  <g
     inkscape:label="Layer 1"
     inkscape:groupmode="layer"
     id="layer1"
     transform="translate(-123.59765,-138.81053)">
    <path
       d="m 138.76524,161.0393 -1.97173,-1.97353 -6.38606,0.14336 c -3.51234,0.0788 -6.42316,0.10625 -6.46851,0.0609 -0.14605,-0.14605 -0.44389,-16.98006 -0.30556,-17.27025 0.0692,-0.14522 0.55951,-0.84983 1.08955,-1.56579 l 0.96369,-1.30175 2.25468,-0.0112 c 1.2401,-0.006 5.39795,-0.08 9.2397,-0.16406 3.84175,-0.0841 6.9951,-0.14992 7.00743,-0.14631 0.029,0.008 0.42328,18.23146 0.4226,19.53029 v 0.98425 h -1.93675 l -1.93675,-1e-5 0.0437,1.49226 c 0.0736,2.5102 0.25133,2.49064 -2.01546,0.2218 z m 1.88325,-0.12655 -0.0582,-1.7145 h 1.94656 1.9466 l -0.003,-1.17475 c -0.003,-0.64611 -0.0861,-4.8895 -0.18786,-9.42975 -0.10173,-4.54025 -0.18613,-8.56933 -0.18751,-8.9535 l -0.003,-0.6985 -6.88986,0.14727 c -3.78942,0.081 -7.90379,0.15244 -9.14307,0.15875 l -2.25322,0.0115 -0.86694,1.17475 c -0.4768,0.64612 -0.96718,1.32821 -1.08974,1.51576 -0.21119,0.32322 -0.21375,0.77844 -0.0494,8.72608 0.0953,4.61179 0.2095,8.42122 0.25368,8.4654 0.0442,0.0442 2.95357,0.0153 6.46533,-0.064 l 6.38504,-0.14436 1.84721,1.84721 c 1.01595,1.01596 1.86918,1.8472 1.89606,1.8472 0.0269,0 0.0228,-0.77152 -0.009,-1.7145 z m -14.83399,-3.9309 c 0,-0.10142 0.24831,-0.35524 0.55178,-0.56405 0.30351,-0.2088 0.74142,-0.59558 0.97314,-0.85949 0.44215,-0.50359 1.05114,-1.73048 1.19809,-2.4137 0.0948,-0.44055 0.41902,-0.65708 0.53425,-0.35676 0.0399,0.10412 0.0359,0.38512 -0.009,0.62445 l -0.0816,0.43514 0.60743,0.10365 c 0.33409,0.057 1.49325,0.10128 2.57593,0.0984 1.84391,-0.005 2.02478,-0.0275 2.8575,-0.35619 0.71948,-0.28398 1.01007,-0.33635 1.524,-0.27464 1.69217,0.20322 2.22144,0.48376 2.03295,1.07761 -0.17981,0.56659 -2.10984,1.81844 -2.38276,1.54552 -0.21854,-0.21855 -0.0172,-0.4743 0.68803,-0.87363 0.37277,-0.21109 0.78044,-0.49824 0.9059,-0.63809 0.22117,-0.24652 0.21908,-0.25657 -0.0688,-0.32882 -1.0129,-0.25422 -1.69399,-0.23006 -2.65358,0.0941 -1.26156,0.4262 -2.9835,0.53157 -4.91649,0.30083 l -1.44174,-0.1721 -0.12285,0.32334 c -0.0676,0.17783 -0.34303,0.61505 -0.61216,0.97159 -0.75306,0.99768 -2.16001,1.82024 -2.16001,1.26284 z m 11.38766,-0.28127 c -0.21558,-0.21559 -0.0378,-0.51211 0.46781,-0.78035 0.6975,-0.37003 1.56366,-1.25115 1.6746,-1.70353 0.12097,-0.49338 -0.45537,-1.03535 -1.38999,-1.30704 -0.90593,-0.26337 -0.90916,-0.52753 -0.0106,-0.86095 0.8345,-0.30963 1.31577,-0.69005 2.04131,-1.61355 0.81519,-1.03759 1.16057,-1.01833 2.02319,0.11284 0.46107,0.60459 0.49258,0.62259 0.77058,0.44044 0.27791,-0.1821 0.28236,-0.21112 0.10808,-0.70511 -0.1,-0.28336 -0.38179,-0.89186 -0.62624,-1.35223 -0.46144,-0.86898 -0.54248,-1.26805 -0.30562,-1.5049 0.10046,-0.10047 -0.0393,-0.16335 -0.50554,-0.22748 -0.63807,-0.0878 -0.98105,-0.0596 -2.52415,0.20732 -1.10014,0.19029 -1.20174,0.42533 -0.14105,0.32628 1.07899,-0.10076 1.236,-0.003 1.01417,0.63224 -0.35272,1.00991 -0.4178,1.05469 -1.53294,1.05469 -0.55264,0 -1.1657,-0.0607 -1.36234,-0.13479 -0.49406,-0.18627 -1.11234,-0.81003 -1.37062,-1.38279 -0.21262,-0.47151 -0.2303,-0.48068 -1.06204,-0.55077 -1.09379,-0.0922 -1.96458,-0.39113 -2.72928,-0.93698 -0.69046,-0.49286 -0.97407,-0.42738 -0.97407,0.22488 0,0.48216 0.52517,1.04472 1.38732,1.48608 1.44579,0.74016 1.48079,1.46248 0.13314,2.74791 -0.60926,0.58113 -0.73763,0.76804 -0.62265,0.90659 0.19916,0.23994 0.44829,0.0892 1.51371,-0.91586 1.23582,-1.1658 1.34734,-1.6242 0.64487,-2.65077 -0.33562,-0.49047 -0.32911,-0.5715 0.0459,-0.5715 0.37152,0 0.77774,0.47887 0.98059,1.15602 0.26864,0.89655 -0.36793,2.00126 -1.77368,3.07817 -1.18322,0.90643 -1.17859,0.90544 -1.85053,0.39237 -0.32213,-0.24595 -0.58443,-0.54459 -0.58295,-0.66363 0.003,-0.11903 0.37089,-0.51523 0.82082,-0.88043 0.80824,-0.65602 1.29233,-1.32006 1.14088,-1.56507 -0.0429,-0.0694 -0.40238,-0.29484 -0.79894,-0.50107 -0.39653,-0.20622 -0.80806,-0.44783 -0.91448,-0.5369 -0.93858,-0.78566 -1.02124,-1.84635 -0.21299,-2.73371 0.36076,-0.39609 0.60384,-0.35896 1.11181,0.16988 0.72279,0.75245 1.78459,1.14936 3.28774,1.22899 0.54348,0.0288 0.57973,0.0568 0.9947,0.76836 0.57049,0.97825 0.99711,1.22894 2.09248,1.22955 0.67755,2.6e-4 0.85725,-0.0395 0.85725,-0.19003 0,-0.13784 -0.14155,-0.1905 -0.51207,-0.1905 -1.20859,0 -1.75824,-0.58318 -1.87076,-1.98492 -0.0613,-0.764 -0.0821,-0.80328 -0.63204,-1.19826 -0.56817,-0.40802 -0.56968,-0.4083 -1.72964,-0.32622 -0.63854,0.0452 -1.37607,0.14181 -1.63893,0.21472 -0.54086,0.15001 -0.72856,0.0835 -0.72856,-0.25829 0,-0.29857 0.82952,-0.49272 2.56122,-0.59945 l 1.22772,-0.0757 0.6308,0.46305 c 0.77694,0.57033 1.28844,0.60973 1.66706,0.12841 0.42957,-0.54613 0.32932,-1.08298 -0.25908,-1.38726 -0.44789,-0.23162 -0.88686,-0.13552 -1.2409,0.27165 -0.31522,0.36256 -0.46532,0.38624 -0.57851,0.0913 -0.12412,-0.32344 0.3238,-0.83795 0.90982,-1.04509 0.44725,-0.15808 0.57682,-0.1575 1.00248,0.004 0.90953,0.34618 1.31818,1.41339 0.87175,2.2767 -0.20638,0.39906 -0.77356,0.75784 -1.19806,0.75784 -0.22188,0 -0.26001,0.0797 -0.25834,0.53975 0.003,0.8509 0.0796,0.89864 1.02346,0.6387 1.15562,-0.31826 4.45238,-0.32721 4.76658,-0.0129 0.19925,0.19932 0.18603,0.23757 -0.20585,0.59549 l -0.41876,0.38249 0.45207,0.86501 c 0.35333,0.67606 0.85754,2.01917 0.85754,2.28426 0,0.13744 -1.10217,0.80201 -1.3208,0.7964 -0.17695,-0.005 -0.45011,-0.26395 -0.81166,-0.77084 -0.29975,-0.4202 -0.59357,-0.74573 -0.65294,-0.7234 -0.0593,0.0223 -0.34742,0.34484 -0.6401,0.7167 -0.29271,0.37186 -0.78277,0.83503 -1.08906,1.02926 l -0.55684,0.35314 0.47197,0.30424 c 0.59391,0.38288 0.94768,1.06879 0.8369,1.62267 -0.10763,0.5382 -1.07006,1.59178 -1.87666,2.05442 -0.69708,0.39982 -0.75145,0.41768 -0.88014,0.28899 z m -11.38766,-5.49819 c 0,-0.58606 1.3839,-1.40767 2.90541,-1.72492 1.221,-0.25458 3.38109,-0.21064 3.38109,0.0688 0,0.15302 -0.27835,0.20666 -1.41463,0.27263 -1.96342,0.114 -3.2695,0.52037 -4.2065,1.3088 -0.4608,0.38774 -0.66537,0.41071 -0.66537,0.0747 z"
       style="fill:#000000;stroke-width:0.264583"
       id="path1" />
  </g>
</svg>
