<?xml version="1.0" encoding="UTF-8" standalone="no"?>
<!-- Created with Inkscape (http://www.inkscape.org/) -->

<svg
   width="23.316519mm"
   height="24.627441mm"
   viewBox="0 0 23.316519 24.62744"
   version="1.1"
   id="svg1"
   inkscape:version="1.4 (e7c3feb1, 2024-10-09)"
   sodipodi:docname="FEN.svg"
   xmlns:inkscape="http://www.inkscape.org/namespaces/inkscape"
   xmlns:sodipodi="http://sodipodi.sourceforge.net/DTD/sodipodi-0.dtd"
   xmlns="http://www.w3.org/2000/svg"
   xmlns:svg="http://www.w3.org/2000/svg">
  <sodipodi:namedview
     id="namedview1"
     pagecolor="#ffffff"
     bordercolor="#000000"
     borderopacity="0.25"
     inkscape:showpageshadow="2"
     inkscape:pageopacity="0.0"
     inkscape:pagecheckerboard="0"
     inkscape:deskcolor="#d1d1d1"
     inkscape:document-units="mm"
     inkscape:zoom="4.2436444"
     inkscape:cx="44.419367"
     inkscape:cy="46.068893"
     inkscape:window-width="1440"
     inkscape:window-height="872"
     inkscape:window-x="0"
     inkscape:window-y="28"
     inkscape:window-maximized="0"
     inkscape:current-layer="layer1" />
  <defs
     id="defs1" />
  <g
     inkscape:label="Layer 1"
     inkscape:groupmode="layer"
     id="layer1"
     transform="translate(-119.15077,-156.44827)">
    <path
       d="m 133.90795,178.94967 -1.905,-2.12608 -0.889,-0.001 c -1.06725,-0.001 -11.92364,-0.38916 -11.96198,-0.42751 -0.0148,-0.0148 0.10864,-3.8914 0.27424,-8.61474 l 0.30113,-8.58788 1.09545,-1.34176 c 0.60248,-0.73797 1.13591,-1.36678 1.18539,-1.39735 0.0495,-0.0306 3.94729,0.0802 8.66185,0.24615 4.71455,0.16596 8.87685,0.30354 9.24954,0.30573 l 0.67765,0.004 -0.077,2.44475 c -0.0423,1.34461 -0.10811,2.88529 -0.14615,3.42373 l -0.0692,0.97898 1.056,0.037 c 0.98539,0.0345 1.05876,0.0561 1.09662,0.32277 0.0393,0.27691 0.008,0.28575 -1.02843,0.28575 h -1.06903 l -0.0786,1.68275 c -0.0433,0.92551 -0.1487,3.84601 -0.23431,6.49 l -0.15563,4.80726 -1.94403,-0.0448 -1.94402,-0.0448 -0.0172,0.31755 c -0.01,0.17464 -0.0523,1.00334 -0.0953,1.84154 l -0.078,1.524 z m 1.95233,-1.3775 0.0161,-0.32857 1.94543,0.0591 1.94543,0.0591 0.15364,-4.81055 c 0.0845,-2.6458 0.18915,-5.53921 0.23257,-6.4298 l 0.0789,-1.61925 -1.38424,8e-4 -1.38425,7.9e-4 -0.21008,0.3693 c -0.2631,0.46248 -0.76269,0.79645 -1.22626,0.81976 -0.1958,0.01 -0.49565,0.10919 -0.66633,0.22076 -0.94213,0.61585 -1.43391,0.77886 -2.1531,0.71364 -0.40849,-0.037 -0.99994,-0.21001 -1.38457,-0.4049 -0.36927,-0.18714 -0.68172,-0.32211 -0.69432,-0.29995 -0.0124,0.0222 -0.11755,0.24892 -0.23328,0.50391 -0.29281,0.6452 -0.90395,1.06845 -2.15178,1.49024 -0.58811,0.19879 -1.26174,0.46097 -1.49698,0.58262 -0.97655,0.50499 -2.31569,2.05617 -3.48724,4.03942 -0.32096,0.54335 -0.58356,1.01484 -0.58356,1.04775 0,0.0329 0.24289,0.0565 0.53975,0.0524 0.52755,-0.007 0.55266,-0.0277 1.11125,-0.90312 0.78647,-1.23257 2.31582,-2.64775 3.48676,-3.22647 0.895,-0.44233 0.96025,-0.45557 1.58504,-0.32158 1.74318,0.37385 2.78011,1.5573 3.19548,3.64701 l 0.16131,0.81161 h 0.53181 0.53182 l -0.10586,-0.56653 c -0.46638,-2.49643 -1.00936,-3.50359 -2.46502,-4.57229 -0.45395,-0.33327 -0.82534,-0.62315 -0.82534,-0.64417 0,-0.021 -0.0347,-0.12863 -0.0771,-0.23912 -0.12906,-0.33634 0.43664,-0.24114 1.10125,0.18534 0.74263,0.47655 1.66282,1.44568 1.99776,2.10399 0.35915,0.70593 0.73411,1.98597 0.92033,3.1418 0.19317,1.19885 0.17407,1.22125 -1.04392,1.22404 -1.01092,0.002 -1.18022,-0.124 -1.30796,-0.97585 -0.11848,-0.78999 -0.47776,-1.72666 -0.89109,-2.32309 -0.38463,-0.55502 -1.39206,-1.14469 -1.993,-1.16655 -1.10303,-0.0401 -3.04181,1.52026 -4.44627,3.57843 l -0.5633,0.8255 -0.87794,0.0382 c -1.04619,0.0455 -1.45476,-0.0385 -1.45476,-0.29904 0,-0.22531 0.96591,-1.96191 1.67116,-3.00449 1.43253,-2.11785 2.36276,-2.88794 4.34359,-3.59592 1.78792,-0.63903 1.97934,-0.80478 2.18299,-1.89045 0.0534,-0.28452 0.15772,-0.45582 0.27766,-0.45582 0.10564,0 0.64883,0.2286 1.20705,0.508 1.4047,0.70308 1.76377,0.66928 3.1128,-0.29303 0.41719,-0.2976 0.53975,-0.46665 0.53975,-0.7445 0,-0.1977 -0.0297,-0.35947 -0.066,-0.35947 -0.0363,0 -0.30565,0.15127 -0.59852,0.33615 -0.55425,0.34988 -1.38223,0.51344 -1.9182,0.37892 -0.1715,-0.043 -0.75631,-0.37871 -1.29958,-0.74592 l -0.98777,-0.66765 -2.93071,-0.0635 c -1.9835,-0.043 -3.01906,-0.11411 -3.20408,-0.22009 -0.30102,-0.17242 -0.75623,-1.02267 -0.88066,-1.64485 -0.0761,-0.3806 -0.0967,-0.39242 -0.46191,-0.26511 -0.36627,0.12768 -0.37902,0.15691 -0.30475,0.69866 0.0946,0.68992 0.50197,1.63967 0.87913,2.04943 0.42228,0.45874 1.00452,0.65196 1.96458,0.65196 0.86006,0 1.17248,0.12731 1.17248,0.47777 0,0.0951 0.14375,0.47681 0.31943,0.84818 0.29443,0.62239 0.31705,1.08705 0.0529,1.08705 -0.22334,0 -0.62619,-0.56897 -0.82355,-1.16319 l -0.20423,-0.61481 -0.72003,-7.9e-4 c -0.39603,-2.6e-4 -0.93806,-0.0613 -1.20455,-0.13525 -0.67677,-0.18793 -1.39927,-0.9577 -1.73606,-1.84971 -0.33676,-0.89185 -0.47974,-2.12617 -0.27488,-2.373 0.0786,-0.0947 0.49097,-0.27758 0.91639,-0.40639 0.89408,-0.2707 0.93363,-0.24448 1.05921,0.70202 0.044,0.33189 0.20978,0.79606 0.36835,1.03149 l 0.28829,0.42805 2.1518,0.035 c 2.31926,0.0377 2.69997,-0.0336 3.05224,-0.57118 0.48421,-0.73904 0.13104,-1.73869 -0.71337,-2.01919 -0.82111,-0.27276 -1.6351,0.30712 -1.7616,1.255 -0.0581,0.43501 -0.12674,0.54621 -0.35761,0.579 -0.26313,0.0374 -0.28575,-0.009 -0.28575,-0.58447 0,-1.97668 2.74293,-2.74716 3.73467,-1.04907 0.31176,0.53381 0.32539,1.4432 0.0301,2.0073 l -0.21694,0.41434 0.3456,0.13139 c 0.19008,0.0723 0.72057,0.40017 1.17883,0.72866 1.10304,0.79066 1.65086,0.81464 2.69248,0.11782 0.39393,-0.26353 0.74578,-0.59207 0.78187,-0.7301 0.13337,-0.51003 1.109,-0.2206 1.50206,0.44559 l 0.26342,0.44646 h 1.37306 1.37305 l 0.0712,-1.04775 c 0.0391,-0.57627 0.10506,-2.09074 0.14655,-3.3655 l 0.0754,-2.31775 -0.73842,-0.005 c -0.40611,-0.003 -4.5103,-0.1391 -9.1204,-0.30248 -4.6101,-0.16338 -8.42222,-0.2735 -8.47135,-0.24471 -0.0492,0.0288 -0.58238,0.65619 -1.18494,1.39424 l -1.09556,1.3419 -0.29726,8.46447 c -0.16351,4.65546 -0.28686,8.47488 -0.27413,8.4876 0.0365,0.0365 10.96809,0.42283 11.95824,0.42265 l 0.889,-1.6e-4 1.778,1.99443 1.778,1.99443 0.0791,-1.39122 c 0.0435,-0.76516 0.0864,-1.53907 0.0953,-1.71979 z m 0.96152,-13.11648 c 0.0946,-0.26435 0.0662,-0.40682 -0.13472,-0.67594 -0.45416,-0.6083 -0.55663,-0.52115 -0.55663,0.47341 v 0.91508 l 0.28575,-0.18881 c 0.15716,-0.10384 0.33967,-0.33952 0.4056,-0.52374 z"
       style="fill:#000000;stroke-width:0.264583"
       id="path1" />
  </g>
</svg>
