<?xml version="1.0" encoding="UTF-8" standalone="no"?>
<!-- Created with Inkscape (http://www.inkscape.org/) -->

<svg
   width="21.22011mm"
   height="24.378471mm"
   viewBox="0 0 21.22011 24.37847"
   version="1.1"
   id="svg1"
   inkscape:version="1.4 (e7c3feb1, 2024-10-09)"
   sodipodi:docname="GAR.svg"
   xmlns:inkscape="http://www.inkscape.org/namespaces/inkscape"
   xmlns:sodipodi="http://sodipodi.sourceforge.net/DTD/sodipodi-0.dtd"
   xmlns="http://www.w3.org/2000/svg"
   xmlns:svg="http://www.w3.org/2000/svg">
  <sodipodi:namedview
     id="namedview1"
     pagecolor="#ffffff"
     bordercolor="#000000"
     borderopacity="0.25"
     inkscape:showpageshadow="2"
     inkscape:pageopacity="0.0"
     inkscape:pagecheckerboard="0"
     inkscape:deskcolor="#d1d1d1"
     inkscape:document-units="mm"
     inkscape:zoom="4.2436444"
     inkscape:cx="14.020967"
     inkscape:cy="50.781823"
     inkscape:window-width="1440"
     inkscape:window-height="872"
     inkscape:window-x="0"
     inkscape:window-y="28"
     inkscape:window-maximized="0"
     inkscape:current-layer="layer1" />
  <defs
     id="defs1" />
  <g
     inkscape:label="Layer 1"
     inkscape:groupmode="layer"
     id="layer1"
     transform="translate(-127.42345,-155.0526)">
    <path
       d="m 142.12149,177.39906 -1.83101,-2.02606 -0.89949,0.001 c -0.95378,0.002 -11.93566,-0.2769 -11.9668,-0.30335 -0.01,-0.009 0.0828,-3.88421 0.20636,-8.61256 l 0.22467,-8.59701 1.11692,-1.40424 1.11692,-1.40424 1.15322,0.01 c 2.86326,0.024 17.33169,0.44194 17.39216,0.50243 0.0372,0.0372 -0.0428,4.20913 -0.17762,9.271 -0.13485,5.06188 -0.24623,9.64864 -0.2475,10.19279 l -0.002,0.98938 -1.9685,-0.0878 -1.9685,-0.0878 -8e-4,0.74945 c -0.001,1.07887 -0.15067,2.84597 -0.24031,2.839 -0.042,-0.003 -0.90038,-0.91767 -1.90744,-2.032 z m 2.00772,-0.6807 0.0138,-1.00413 1.9685,0.0812 1.9685,0.0812 0.003,-1.04559 c 0.002,-0.57508 0.11152,-5.1031 0.24373,-10.06228 0.13221,-4.95918 0.21168,-9.0454 0.1766,-9.0805 -0.0556,-0.0556 -14.48842,-0.47257 -17.26139,-0.49866 l -1.02622,-0.01 -1.11747,1.40494 -1.11747,1.40493 -0.22188,8.46932 c -0.12202,4.65812 -0.21464,8.47631 -0.2058,8.48487 0.0272,0.0264 11.00904,0.30483 11.96306,0.30335 l 0.898,-10e-4 1.769,1.94187 1.769,1.94187 0.0815,-0.70362 c 0.0448,-0.38699 0.0877,-1.15548 0.0952,-1.70775 z m -10.12588,-3.15383 c -0.081,-0.081 -0.14733,-0.42165 -0.14733,-0.75693 v -0.6096 h 0.80803 0.80804 l -0.24679,-0.98425 c -0.35243,-1.40564 -0.44785,-3.95944 -0.1821,-4.8736 0.41689,-1.43406 1.41056,-2.34878 3.38482,-3.11591 1.86145,-0.72329 2.79645,-1.37465 3.82225,-2.66277 0.59402,-0.74592 1.7592,-2.75596 1.76362,-3.04241 0.001,-0.0756 -0.19508,-0.19797 -0.43611,-0.27194 l -0.43823,-0.1345 -0.53518,0.90694 c -0.74768,1.26702 -2.01101,2.48009 -3.17621,3.04985 -1.67035,0.81676 -2.21655,0.90509 -5.59715,0.90509 h -3.0095 l -0.18703,0.47625 c -0.10287,0.26193 -0.17734,0.47626 -0.1655,0.47627 0.0119,1e-5 0.47874,0.0916 1.03754,0.20347 0.5588,0.11189 1.8161,0.24047 2.794,0.28572 1.6659,0.0771 1.778,0.0983 1.778,0.33629 0,0.2362 -0.0967,0.25653 -1.3806,0.2902 -1.21381,0.0318 -3.8253,-0.27212 -4.81065,-0.55991 -0.29934,-0.0874 -0.28258,-0.24299 0.13634,-1.26515 l 0.35859,-0.87496 3.16566,-0.005 c 2.62482,-0.004 3.29584,-0.0429 3.92766,-0.22659 1.914,-0.55656 3.32125,-1.593 4.39722,-3.23854 0.33335,-0.50982 0.64149,-1.03845 0.68475,-1.17475 0.10158,-0.32005 0.44594,-0.31576 1.43387,0.0179 0.97586,0.32956 0.9947,0.46711 0.26394,1.92791 -1.3231,2.64493 -3.26564,4.46916 -5.50978,5.17421 -1.30777,0.41086 -2.29762,1.18521 -2.82849,2.21266 -0.62552,1.21065 -0.51731,3.56743 0.29155,6.3498 0.19778,0.68033 0.22175,0.70676 0.64095,0.70676 h 0.43549 v -0.82948 c 0,-0.64341 0.0456,-0.84699 0.20331,-0.90751 0.23631,-0.0907 0.42696,0.15607 0.42974,0.55618 0.002,0.25414 0.0745,0.28315 0.7957,0.3175 l 0.79375,0.0378 v 0.6985 c 0,0.53623 -0.0443,0.6985 -0.1905,0.6985 -0.12846,0 -0.20334,-0.1551 -0.22992,-0.47625 -0.039,-0.47183 -0.0446,-0.47625 -0.59558,-0.47625 -0.55101,0 -0.55654,0.004 -0.59559,0.47625 l -0.0394,0.47625 -0.86869,0.0378 c -0.96381,0.042 -1.15988,-0.0524 -1.27183,-0.61216 -0.0719,-0.35934 -0.10739,-0.37816 -0.71381,-0.37816 H 134.364 v 0.43701 c 0,0.48523 -0.13694,0.64526 -0.36067,0.42152 z m 3.58948,-2.63186 c -1.21002,-0.61563 -1.45687,-2.44522 -0.45255,-3.35413 0.29271,-0.26489 0.65274,-0.19849 0.65274,0.12039 0,0.11434 -0.14288,0.3777 -0.3175,0.58523 -0.45731,0.54347 -0.43771,1.27317 0.0472,1.7581 0.4558,0.4558 0.92546,0.5798 1.42005,0.37493 0.94479,-0.39134 1.17427,-1.43373 0.48777,-2.21562 -0.48116,-0.548 -0.42142,-0.76107 0.3001,-1.07035 1.02076,-0.43754 2.3861,-0.66962 4.07271,-0.69225 1.34241,-0.018 1.64874,-0.0574 1.74202,-0.22408 0.0906,-0.16183 0.0189,-0.22997 -0.35885,-0.34116 -1.58782,-0.46737 -3.83846,-0.51155 -4.97487,-0.0977 -0.81683,0.29749 -0.89465,0.22677 -0.89465,-0.81308 0,-0.86785 0.009,-0.89298 0.3175,-0.89298 0.28724,0 0.3175,0.0498 0.3175,0.5228 0,0.50618 0.0111,0.52012 0.34925,0.43819 0.19208,-0.0465 0.94932,-0.1158 1.68275,-0.15391 1.04784,-0.0545 1.59195,-0.0151 2.54,0.18385 2.05756,0.43173 2.15769,0.52394 1.61315,1.48557 l -0.28766,0.508 -1.8375,0.0212 c -1.40342,0.0163 -2.07507,0.0838 -2.8432,0.28604 -0.55314,0.14564 -1.02884,0.28792 -1.05712,0.3162 -0.0283,0.0283 0.0385,0.22533 0.14846,0.4379 0.10993,0.21257 0.19987,0.66663 0.19987,1.00902 0,1.50637 -1.54498,2.48048 -2.86719,1.80776 z"
       style="fill:#000000;stroke-width:0.264583"
       id="path1" />
  </g>
</svg>
