<?xml version="1.0" encoding="UTF-8" standalone="no"?>
<!-- Created with Inkscape (http://www.inkscape.org/) -->

<svg
   width="22.813128mm"
   height="25.603601mm"
   viewBox="0 0 22.813128 25.6036"
   version="1.1"
   id="svg1"
   inkscape:version="1.4 (e7c3feb1, 2024-10-09)"
   sodipodi:docname="GRY.svg"
   xmlns:inkscape="http://www.inkscape.org/namespaces/inkscape"
   xmlns:sodipodi="http://sodipodi.sourceforge.net/DTD/sodipodi-0.dtd"
   xmlns="http://www.w3.org/2000/svg"
   xmlns:svg="http://www.w3.org/2000/svg">
  <sodipodi:namedview
     id="namedview1"
     pagecolor="#ffffff"
     bordercolor="#000000"
     borderopacity="0.25"
     inkscape:showpageshadow="2"
     inkscape:pageopacity="0.0"
     inkscape:pagecheckerboard="0"
     inkscape:deskcolor="#d1d1d1"
     inkscape:document-units="mm"
     inkscape:zoom="4.2436444"
     inkscape:cx="42.769842"
     inkscape:cy="48.189711"
     inkscape:window-width="1440"
     inkscape:window-height="872"
     inkscape:window-x="0"
     inkscape:window-y="28"
     inkscape:window-maximized="0"
     inkscape:current-layer="layer1" />
  <defs
     id="defs1" />
  <g
     inkscape:label="Layer 1"
     inkscape:groupmode="layer"
     id="layer1"
     transform="translate(-111.83208,-141.26292)">
    <path
       d="m 118.22242,165.3786 c -0.244,-2.34556 0.0389,-2.10192 -2.14574,-1.84811 -1.02653,0.11926 -1.90058,0.17818 -1.94228,0.13093 -0.12266,-0.13898 -2.39697,-20.14442 -2.29926,-20.22489 0.049,-0.0403 4.19592,-0.54591 9.21539,-1.12348 l 9.1263,-1.05013 0.50485,0.4883 c 0.27768,0.26857 0.85145,0.87713 1.27508,1.35237 l 0.7702,0.86406 0.98361,8.47044 c 0.54097,4.65874 0.96097,8.49426 0.93335,8.52339 -0.0277,0.0291 -2.91669,0.38571 -6.42006,0.79241 -3.50338,0.4067 -6.38181,0.75434 -6.39649,0.77254 -0.0148,0.0182 -0.75012,0.98784 -1.63428,2.15475 -0.88413,1.16692 -1.65298,2.14975 -1.70852,2.18408 -0.0556,0.0343 -0.17351,-0.63466 -0.26215,-1.48666 z m 2.01816,-1.04108 c 0.78918,-1.04775 1.44619,-1.91958 1.46,-1.9374 0.0138,-0.0178 2.79186,-0.34925 6.17339,-0.73649 3.38153,-0.38725 6.26528,-0.72804 6.40829,-0.75731 0.25646,-0.0525 0.24672,-0.16821 -0.71086,-8.43213 l -0.97089,-8.37891 -0.77049,-0.86438 c -0.42376,-0.47541 -0.99211,-1.07867 -1.26296,-1.34059 l -0.49247,-0.47621 -8.73689,1.01596 c -4.80528,0.55878 -8.90793,1.01596 -9.11701,1.01596 -0.34663,0 -0.37412,0.0308 -0.3117,0.34925 0.0376,0.19209 0.56078,4.66408 1.16255,9.93775 0.60177,5.27368 1.113,9.65044 1.13607,9.72613 0.0294,0.0964 0.60716,0.0718 1.92728,-0.082 1.03692,-0.12076 1.90584,-0.20029 1.9309,-0.17673 0.0251,0.0236 0.13377,0.79263 0.24162,1.70904 0.15364,1.30581 0.22875,1.63017 0.34718,1.49961 0.0831,-0.0916 0.79682,-1.02385 1.58599,-2.0716 z m -3.91718,-3.26822 c -0.65693,-0.36904 -0.67831,-0.39806 -0.60881,-0.8264 0.0396,-0.24416 0.30674,-0.83897 0.59357,-1.32178 0.94274,-1.58689 2.60043,-3.12326 4.27958,-3.96642 0.80285,-0.40313 1.17899,-0.43028 1.17899,-0.0851 0,0.18033 -0.27041,0.38826 -0.99555,0.76551 -1.77035,0.92104 -3.09928,2.21062 -4.06905,3.94859 l -0.39458,0.70716 0.42876,0.20446 0.42876,0.20446 0.47323,-0.68711 c 0.74499,-1.08168 2.08764,-2.26784 3.1387,-2.77289 0.55287,-0.26565 1.77094,-0.65181 3.02173,-0.95797 3.16484,-0.77465 4.47619,-1.54264 5.79866,-3.39589 l 0.58838,-0.82456 -0.30964,-0.30966 -0.30965,-0.30965 -0.6025,0.69788 c -1.49585,1.73262 -4.72702,3.28275 -5.85785,2.81025 -0.81328,-0.3398 -1.58578,-1.61534 -1.59063,-2.62638 l -0.003,-0.58373 -1.49225,-0.0842 c -0.82073,-0.0463 -1.84798,-0.15944 -2.28277,-0.25133 -0.54004,-0.11414 -0.83179,-0.12582 -0.92075,-0.0369 -0.2281,0.22809 -0.14435,0.33638 0.46072,0.59574 0.7802,0.33445 1.53945,0.49979 2.77455,0.60425 0.90268,0.0763 1.016,0.11425 1.016,0.33992 0,0.23682 -0.079,0.25285 -1.16721,0.23691 -1.50002,-0.022 -3.7234,-0.67746 -4.041,-1.19139 -0.10745,-0.17386 0.51279,-1.227 0.8192,-1.391 0.1687,-0.0903 0.36274,-0.0761 0.66278,0.0485 0.41317,0.17161 2.33117,0.45437 3.0869,0.45509 l 0.37666,2.6e-4 -0.64985,-0.66675 c -0.75303,-0.77264 -1.45232,-1.83459 -1.81655,-2.7586 -0.39499,-1.00215 -0.35038,-1.21902 0.34095,-1.65745 0.85002,-0.53908 0.98816,-0.50264 1.43266,0.37795 0.47154,0.93411 1.68241,2.24722 2.69703,2.92476 0.42013,0.28055 0.80698,0.51009 0.85969,0.51009 0.0527,0 0.12771,-0.23794 0.16671,-0.52875 0.13594,-1.01353 0.99335,-1.75725 2.02586,-1.75725 0.86921,0 1.43539,0.30153 1.82978,0.9745 0.27191,0.464 0.31885,0.67623 0.27263,1.23336 -0.0632,0.76184 -0.48501,1.47514 -0.87239,1.47514 -0.32702,0 -0.32263,-0.43318 0.009,-0.85434 0.65493,-0.83262 -0.0526,-2.19434 -1.1395,-2.19318 -0.66829,7.9e-4 -1.23127,0.40065 -1.41171,1.00287 -0.21244,0.70903 0.0116,1.18104 0.85653,1.80528 0.37327,0.27576 0.67868,0.58758 0.67868,0.69294 0,0.62197 -1.1235,2.08643 -1.60065,2.08643 -0.43243,0 -0.39266,-0.3765 0.088,-0.83349 0.33846,-0.3218 0.75065,-0.93505 0.75065,-1.11683 0,-0.0527 -0.49027,-0.38474 -3.07869,-2.08488 -0.99634,-0.65442 -1.99395,-1.6996 -2.53164,-2.65229 -0.37039,-0.65632 -0.38539,-0.66685 -0.67746,-0.47548 -0.28824,0.18887 -0.29229,0.21383 -0.11552,0.71488 0.40526,1.14863 1.58213,2.72909 2.49179,3.34636 0.71702,0.48655 0.73232,0.51352 0.73457,1.29606 0.003,0.81414 0.26246,1.47739 0.79531,2.02792 0.47024,0.48587 0.77745,0.51405 1.79347,0.16449 1.46558,-0.50424 2.2582,-1.02365 3.53301,-2.31522 0.6767,-0.68559 1.26492,-1.24652 1.3072,-1.24652 0.18415,0 1.33596,1.19797 1.33596,1.38952 0,0.60427 -1.91301,2.83517 -3.06519,3.57452 -0.84916,0.5449 -1.64696,0.82945 -3.91981,1.39808 -1.16416,0.29126 -2.34352,0.67704 -2.88631,0.94416 -1.07484,0.52897 -2.25996,1.63625 -3.01919,2.82086 -0.58861,0.91842 -0.70061,0.94378 -1.69682,0.38414 z m 14.07933,-14.60596 c -0.86125,-0.39677 -2.14593,-0.44061 -3.25266,-0.11101 -0.50956,0.15176 -1.25635,0.26869 -1.71593,0.26869 -0.91636,0 -1.37882,-0.19728 -2.44173,-1.04162 -1.82597,-1.45048 -3.53081,-1.50646 -4.10395,-0.13476 -0.0993,0.23758 -0.24951,0.40899 -0.33385,0.3809 -0.47432,-0.15792 -0.0416,-1.20109 0.66225,-1.59672 1.02452,-0.5758 2.6013,-0.26231 3.93123,0.7816 1.56041,1.22483 2.04496,1.33056 3.81754,0.83292 1.71699,-0.48202 4.3261,-0.0939 4.3261,0.64354 0,0.31946 -0.15328,0.3154 -0.889,-0.0236 z"
       style="fill:#000000;stroke-width:0.264583"
       id="path1" />
  </g>
</svg>
