<?xml version="1.0" encoding="UTF-8" standalone="no"?>
<!-- Created with Inkscape (http://www.inkscape.org/) -->

<svg
   width="22.573622mm"
   height="25.492601mm"
   viewBox="0 0 22.573622 25.492601"
   version="1.1"
   id="svg1"
   inkscape:version="1.4 (e7c3feb1, 2024-10-09)"
   sodipodi:docname="HBL.svg"
   xmlns:inkscape="http://www.inkscape.org/namespaces/inkscape"
   xmlns:sodipodi="http://sodipodi.sourceforge.net/DTD/sodipodi-0.dtd"
   xmlns="http://www.w3.org/2000/svg"
   xmlns:svg="http://www.w3.org/2000/svg">
  <sodipodi:namedview
     id="namedview1"
     pagecolor="#ffffff"
     bordercolor="#000000"
     borderopacity="0.25"
     inkscape:showpageshadow="2"
     inkscape:pageopacity="0.0"
     inkscape:pagecheckerboard="0"
     inkscape:deskcolor="#d1d1d1"
     inkscape:document-units="mm"
     inkscape:zoom="4.2436444"
     inkscape:cx="56.672986"
     inkscape:cy="55.259107"
     inkscape:window-width="1440"
     inkscape:window-height="872"
     inkscape:window-x="0"
     inkscape:window-y="28"
     inkscape:window-maximized="0"
     inkscape:current-layer="layer1" />
  <defs
     id="defs1" />
  <g
     inkscape:label="Layer 1"
     inkscape:groupmode="layer"
     id="layer1"
     transform="translate(-80.002415,-150.31504)">
    <path
       d="m 86.305586,175.68334 c -0.03409,-0.10478 -0.128725,-0.90488 -0.210309,-1.778 -0.08158,-0.87313 -0.171249,-1.61049 -0.199253,-1.63858 -0.02801,-0.0281 -0.894712,0.0377 -1.926013,0.14611 -1.031301,0.10845 -1.888855,0.18435 -1.905672,0.16866 -0.06715,-0.0626 -2.11614,-20.25721 -2.060824,-20.31114 0.03267,-0.0319 4.174202,-0.48484 9.203402,-1.00663 l 9.144,-0.94872 0.298677,0.2699 c 0.164272,0.14844 0.741312,0.75567 1.282317,1.3494 l 0.983639,1.0795 0.87186,8.47149 c 0.47953,4.65931 0.83243,8.51093 0.78422,8.55914 -0.0482,0.0482 -2.903554,0.37942 -6.34519,0.73601 -3.441637,0.3566 -6.326323,0.69296 -6.41041,0.74748 -0.117642,0.0763 -2.171912,2.65946 -3.298793,4.14814 -0.13153,0.17376 -0.157194,0.17464 -0.211651,0.007 z m 2.649987,-3.4187 0.764659,-0.9597 6.318364,-0.64991 c 3.475101,-0.35745 6.353044,-0.68458 6.395424,-0.72697 0.0424,-0.0424 -0.3098,-3.83685 -0.78264,-8.43214 l -0.85971,-8.35508 -1.098601,-1.19596 c -0.604235,-0.65777 -1.193343,-1.25571 -1.309132,-1.32875 -0.152445,-0.0962 -2.691136,0.12319 -9.202272,0.79509 -4.945462,0.51034 -9.013417,0.94897 -9.039905,0.97474 -0.04079,0.0397 1.780627,18.06159 1.976144,19.55278 l 0.06686,0.50991 1.888549,-0.1851 c 1.038704,-0.10181 1.915512,-0.15814 1.948465,-0.12519 0.03295,0.033 0.130369,0.81213 0.216477,1.7315 l 0.156559,1.67158 0.898054,-1.15855 c 0.493927,-0.63721 1.242148,-1.59042 1.662708,-2.11825 z m -3.438149,-3.15645 c -0.229653,-0.15887 -0.962409,-1.56484 -0.921478,-1.76807 0.02342,-0.11619 0.509104,-0.36119 1.215901,-0.61334 1.260517,-0.44968 2.114206,-0.89744 2.478474,-1.29995 0.124354,-0.13741 0.424405,-0.72716 0.666779,-1.31056 0.242374,-0.5834 0.512035,-1.12699 0.599249,-1.20799 0.08721,-0.081 0.561962,-0.26701 1.055,-0.41337 1.71468,-0.50901 2.247678,-1.08625 2.342068,-2.53645 l 0.0635,-0.97562 0.727247,-0.36364 c 1.016563,-0.50829 2.057529,-0.57803 3.14266,-0.21054 l 0.821907,0.27835 0.235701,-0.29108 c 0.227346,-0.28076 0.227539,-0.29705 0.0054,-0.45948 -0.324874,-0.23756 -1.639099,-0.62706 -2.463163,-0.73002 -1.073864,-0.13417 -2.037096,0.10805 -5.064286,1.27347 -1.565997,0.60288 -2.983656,1.07444 -3.230131,1.07444 -0.322514,0 -0.518203,-0.0928 -0.736296,-0.34925 -0.252013,-0.29631 -0.368985,-0.33963 -0.771655,-0.28575 l -0.474615,0.0635 0.380368,0.664 c 0.606071,1.05802 1.20636,1.24177 2.730217,0.83572 1.015963,-0.27072 1.346364,-0.15112 1.56092,0.565 0.08317,0.27761 0.151225,0.68385 0.151225,0.90276 0,0.33989 -0.04637,0.39802 -0.3175,0.39802 -0.248626,0 -0.3175,-0.0648 -0.3175,-0.29855 0,-0.3568 -0.244686,-1.09902 -0.361675,-1.09708 -0.04555,8e-4 -0.36337,0.0865 -0.70626,0.1905 -1.742469,0.5286 -2.821419,0.0155 -3.608006,-1.71587 -0.174538,-0.38418 -0.47973,-0.88623 -0.678201,-1.11567 -0.297233,-0.34362 -0.360773,-0.53395 -0.360384,-1.0795 5.29e-4,-0.82431 0.309427,-1.36489 0.954717,-1.6711 1.580872,-0.75017 3.169251,0.9196 2.368619,2.48999 -0.184378,0.36165 -0.20111,0.49793 -0.08125,0.66185 0.08302,0.11354 0.232425,0.20643 0.332017,0.20643 0.186571,0 4.220514,-1.53187 4.67631,-1.7758 0.300968,-0.16108 0.639111,-0.76698 0.639111,-1.1452 0,-0.43026 -0.356505,-0.99681 -0.757843,-1.20435 -1.06176,-0.54906 -2.092452,0.25006 -2.010244,1.55858 0.03306,0.52613 0.007,0.59827 -0.216413,0.59827 -0.186028,0 -0.284231,-0.12233 -0.366974,-0.45712 -0.177631,-0.71873 0.0086,-1.37337 0.542533,-1.90732 1.368015,-1.36802 3.664318,-0.23575 3.407347,1.68011 -0.06464,0.48194 -0.0588,0.49054 0.271015,0.39901 0.185394,-0.0515 0.908579,-0.0881 1.607079,-0.0813 0.95817,0.009 1.472689,0.0817 2.0955,0.29549 0.829882,0.28479 1.640277,0.71078 1.800889,0.94663 0.168855,0.24796 -0.790231,1.60105 -1.134845,1.60105 -0.11089,0 -0.575564,-0.14961 -1.032614,-0.33245 -0.932063,-0.37289 -1.676812,-0.36543 -2.64968,0.0265 l -0.53975,0.21746 v 0.74681 c 0,0.8965 -0.204367,1.43149 -0.758531,1.98565 -0.504291,0.50429 -1.162661,0.85134 -1.986651,1.04722 -0.762664,0.18131 -0.951409,0.38811 -1.381537,1.51374 -0.468522,1.22611 -1.182608,1.8554 -2.843411,2.50575 l -1.245463,0.48772 0.195996,0.41384 c 0.230931,0.48761 0.371644,0.47882 1.941941,-0.12133 1.755883,-0.67109 3.152325,-1.79298 3.971353,-3.19054 0.302641,-0.51642 0.409051,-0.60122 0.753121,-0.60015 0.635831,0.002 1.631548,0.54168 2.208416,1.19704 0.578892,0.65766 0.872691,1.39621 1.001059,2.51647 l 0.08368,0.73025 h 0.509151 0.509151 l -0.07835,-0.92687 c -0.104365,-1.23462 -0.490808,-2.43939 -1.022213,-3.18682 -0.425511,-0.59849 -1.496578,-1.47431 -1.802979,-1.47431 -0.180666,0 -0.341874,-0.35163 -0.238149,-0.51946 0.219334,-0.35489 1.414285,0.23386 2.16154,1.06499 0.302707,0.33668 0.704461,0.93746 0.892791,1.33506 0.450041,0.95013 0.76802,2.86353 0.610971,3.67647 l -0.116385,0.60244 h -1.016 -1.016 l -0.08174,-0.8255 c -0.181322,-1.83113 -0.657455,-2.67369 -1.837036,-3.25081 -0.508159,-0.24861 -0.746403,-0.31065 -0.782077,-0.20362 -0.02822,0.0847 -0.296209,0.48659 -0.595537,0.8932 -0.977723,1.32814 -2.401692,2.29526 -4.286615,2.91136 -1.643992,0.53735 -1.672008,0.54413 -1.821485,0.44072 z m 0.453536,-10.88867 c 0.447794,-0.23156 0.632457,-0.54678 0.632457,-1.0796 0,-0.55865 -0.597353,-1.14255 -1.164982,-1.13876 -1.066993,0.007 -1.601271,1.29471 -0.82868,1.99706 0.491344,0.44668 0.821555,0.50037 1.361205,0.2213 z"
       style="fill:#000000;stroke-width:0.264583"
       id="path1" />
  </g>
</svg>
