<?xml version="1.0" encoding="UTF-8" standalone="no"?>
<!-- Created with Inkscape (http://www.inkscape.org/) -->

<svg
   width="21.241924mm"
   height="24.260979mm"
   viewBox="0 0 21.241924 24.260979"
   version="1.1"
   id="svg1"
   inkscape:version="1.4 (e7c3feb1, 2024-10-09)"
   sodipodi:docname="HO5.svg"
   xmlns:inkscape="http://www.inkscape.org/namespaces/inkscape"
   xmlns:sodipodi="http://sodipodi.sourceforge.net/DTD/sodipodi-0.dtd"
   xmlns="http://www.w3.org/2000/svg"
   xmlns:svg="http://www.w3.org/2000/svg">
  <sodipodi:namedview
     id="namedview1"
     pagecolor="#ffffff"
     bordercolor="#000000"
     borderopacity="0.25"
     inkscape:showpageshadow="2"
     inkscape:pageopacity="0.0"
     inkscape:pagecheckerboard="0"
     inkscape:deskcolor="#d1d1d1"
     inkscape:document-units="mm"
     inkscape:zoom="2.9647587"
     inkscape:cx="-16.02154"
     inkscape:cy="49.076507"
     inkscape:window-width="1440"
     inkscape:window-height="872"
     inkscape:window-x="0"
     inkscape:window-y="28"
     inkscape:window-maximized="0"
     inkscape:current-layer="layer1" />
  <defs
     id="defs1" />
  <g
     inkscape:label="Layer 1"
     inkscape:groupmode="layer"
     id="layer1"
     transform="translate(-1963.4677,-473.46252)">
    <path
       d="m 1978.3739,496.11661 c -0.943,-1.03437 -1.7717,-1.9552 -1.8415,-2.04628 -0.098,-0.12802 -1.5916,-0.20595 -6.5784,-0.3433 -3.5483,-0.0977 -6.4661,-0.19872 -6.484,-0.22443 -0.018,-0.0257 0.072,-3.89845 0.2001,-8.60609 l 0.2325,-8.55936 1.1475,-1.43732 1.1475,-1.43731 0.9764,0.0599 c 0.537,0.0329 4.6911,0.15151 9.2314,0.26346 4.5402,0.11195 8.2754,0.22235 8.3002,0.24534 0.044,0.0409 -0.2831,13.27888 -0.445,17.99587 l -0.082,2.38125 h -1.95 -1.95 l -0.015,1.42875 c -0.026,2.4758 0.096,2.45778 -1.89,0.2795 z m 1.7691,-0.4065 0.01,-1.42875 h 1.9685 c 1.7905,0 1.9684,-0.0201 1.9674,-0.22225 0,-0.12224 0.1185,-4.64178 0.2647,-10.04343 0.1462,-5.40166 0.2467,-9.83882 0.2234,-9.86036 -0.023,-0.0215 -3.7858,-0.13133 -8.361,-0.24396 -4.5752,-0.11264 -8.6758,-0.22662 -9.1125,-0.25329 l -0.7939,-0.0485 -1.1407,1.42889 -1.1407,1.42889 -0.2191,8.39375 c -0.1204,4.61656 -0.1799,8.43279 -0.1322,8.48052 0.067,0.0666 6.765,0.30086 12.3486,0.43185 0.4895,0.0115 0.5703,0.0813 2.2191,1.91589 1.3812,1.53698 1.7284,1.86017 1.8008,1.67673 0.049,-0.12498 0.094,-0.87018 0.099,-1.65599 z m -6.6326,-4.04854 c -0.049,-0.0492 -0.089,-0.29824 -0.089,-0.55332 0,-1.08973 -0.9617,-3.26015 -1.9354,-4.36783 l -0.5411,-0.61559 0.036,1.06202 c 0.03,0.88167 -0.01,1.13123 -0.2172,1.46964 -0.3804,0.61181 -1.0995,0.91611 -2.4558,1.03911 -1.4309,0.12978 -2.0958,0.062 -2.1761,-0.22188 -0.181,-0.64042 -0.3369,-1.68327 -0.2681,-1.79453 0.044,-0.0709 0.5271,-0.12883 1.074,-0.12883 0.7642,0 1.0541,-0.0514 1.2522,-0.22225 l 0.2578,-0.22225 -0.3157,-1.016 c -0.3475,-1.11817 -0.3461,-2.12789 0,-2.66171 0.1765,-0.26943 0.2817,-0.29255 1.3314,-0.29255 1.2396,0 2.2279,-0.18517 2.9649,-0.55548 0.2592,-0.13022 0.5487,-0.23676 0.6434,-0.23676 0.095,0 0.4012,0.35719 0.681,0.79375 0.591,0.92216 1.8639,2.51578 2.4861,3.11248 l 0.4314,0.41372 0.3314,-0.35022 0.3314,-0.35023 -0.8203,-1.0795 c -0.9468,-1.24591 -1.8117,-2.89524 -1.9126,-3.64688 -0.054,-0.40308 -0.2019,-0.64886 -0.6579,-1.09377 l -0.5881,-0.57387 -0.5715,0.19446 c -0.8881,0.30217 -2.2163,1.24977 -3.0081,2.14598 -0.7748,0.87708 -1.0559,1.0075 -1.0559,0.48989 0,-0.23673 0.2678,-0.59158 0.9842,-1.30434 1.0379,-1.03251 2.3023,-1.80757 3.3229,-2.03688 l 0.5474,-0.123 0.8081,0.75171 c 0.7154,0.66554 0.868,0.7517 1.3319,0.7517 0.4265,0 0.6042,-0.0803 0.9557,-0.4318 1.3502,-1.3502 -0.598,-3.11587 -1.9786,-1.7932 -0.4167,0.39922 -0.6376,0.40776 -0.6376,0.0246 0,-0.5798 0.8294,-1.10163 1.7509,-1.10163 1.49,0 2.3859,1.53364 1.6912,2.8953 -0.3015,0.59104 -1.0701,1.0417 -1.7767,1.0417 -0.2873,0 -0.5224,0.0565 -0.5224,0.12563 0,0.592 0.9525,2.22195 2.2418,3.83634 0.3735,0.46776 0.6792,0.91068 0.6792,0.98425 0,0.0736 -0.1094,0.24313 -0.243,0.37678 -0.2393,0.23934 -0.2248,0.26759 0.9632,1.87325 1.9167,2.59053 1.9649,2.64586 2.0983,2.40744 0.063,-0.11313 0.2266,-0.20569 0.3628,-0.20569 0.1892,0 0.2477,0.0878 0.2477,0.37193 0,0.5009 -0.3172,0.79416 -0.807,0.74617 -0.35,-0.0343 -0.5725,-0.2835 -1.9844,-2.22341 -1.5481,-2.12709 -1.6005,-2.18302 -1.9823,-2.11698 -0.3595,0.0622 -0.4729,-0.019 -1.3603,-0.97424 -0.5325,-0.57315 -1.265,-1.47789 -1.6278,-2.01053 -0.3628,-0.53264 -0.6998,-1.01464 -0.7489,-1.0711 -0.049,-0.0565 -0.4546,0.0215 -0.9011,0.17328 -0.5433,0.18471 -1.2597,0.29792 -2.1667,0.34241 -1.2432,0.061 -1.361,0.0886 -1.427,0.33472 -0.1377,0.51277 -0.074,1.17597 0.1872,1.94932 0.5089,1.50693 0.1815,2.02168 -1.3687,2.15164 -0.5748,0.0482 -0.8892,0.12732 -0.8624,0.21706 0.023,0.0777 0.079,0.30614 0.123,0.50771 l 0.081,0.36648 1.1103,-0.0633 c 1.4216,-0.0811 2.2147,-0.40782 2.5142,-1.03582 0.188,-0.39412 0.1946,-0.57279 0.058,-1.55 -0.1888,-1.34965 -0.1003,-1.51539 0.5966,-1.1172 1.0798,0.61692 2.4914,2.90589 2.886,4.67968 l 0.213,0.95719 h 0.5128 0.5128 l -0.087,-0.85725 c -0.048,-0.47149 -0.1483,-1.11443 -0.2226,-1.42875 -0.2258,-0.95594 -1.0637,-2.55548 -1.8113,-3.45737 -0.7473,-0.90165 -0.872,-1.24163 -0.4552,-1.24163 0.3557,0 1.7213,1.75225 2.2449,2.88048 0.5797,1.2492 0.8222,2.38348 0.7778,3.63779 l -0.037,1.03823 -0.9582,0.0366 c -0.527,0.0201 -0.9985,-0.004 -1.0478,-0.0529 z m 6.8262,-2.64493 c -0.1714,-0.17145 -0.3117,-0.4598 -0.3117,-0.64078 0,-0.41379 0.5257,-0.9525 0.9296,-0.9525 0.5033,0 0.9754,0.46103 0.9754,0.9525 0,0.30902 -0.092,0.49838 -0.3346,0.68928 -0.4439,0.34917 -0.8777,0.33246 -1.2587,-0.0485 z m 1.006,-0.47964 c 0.1065,-0.16914 0.09,-0.26838 -0.072,-0.43012 -0.3804,-0.38046 -0.948,0.11677 -0.605,0.53005 0.1974,0.23794 0.4914,0.19454 0.6768,-0.0999 z"
       style="fill:#000000;stroke-width:0.264583"
       id="path1" />
  </g>
</svg>
