<?xml version="1.0" encoding="UTF-8" standalone="no"?>
<!-- Created with Inkscape (http://www.inkscape.org/) -->

<svg
   width="22.607479mm"
   height="24.320734mm"
   viewBox="0 0 22.607479 24.320733"
   version="1.1"
   id="svg1"
   inkscape:version="1.4 (e7c3feb1, 2024-10-09)"
   sodipodi:docname="JUD.svg"
   xmlns:inkscape="http://www.inkscape.org/namespaces/inkscape"
   xmlns:sodipodi="http://sodipodi.sourceforge.net/DTD/sodipodi-0.dtd"
   xmlns="http://www.w3.org/2000/svg"
   xmlns:svg="http://www.w3.org/2000/svg">
  <sodipodi:namedview
     id="namedview1"
     pagecolor="#ffffff"
     bordercolor="#000000"
     borderopacity="0.25"
     inkscape:showpageshadow="2"
     inkscape:pageopacity="0.0"
     inkscape:pagecheckerboard="0"
     inkscape:deskcolor="#d1d1d1"
     inkscape:document-units="mm"
     inkscape:zoom="4.2436444"
     inkscape:cx="71.047423"
     inkscape:cy="35.229153"
     inkscape:window-width="1440"
     inkscape:window-height="872"
     inkscape:window-x="0"
     inkscape:window-y="28"
     inkscape:window-maximized="0"
     inkscape:current-layer="layer1" />
  <defs
     id="defs1" />
  <g
     inkscape:label="Layer 1"
     inkscape:groupmode="layer"
     id="layer1"
     transform="translate(-112.11545,-159.30872)">
    <path
       d="m 115.62203,183.49725 c 0,-0.0931 0.0849,-0.88034 0.1874,-1.74935 0.10245,-0.86901 0.16844,-1.59786 0.14663,-1.61966 -0.0217,-0.0218 -0.89487,-0.13392 -1.94013,-0.24913 l -1.90048,-0.20948 1.13345,-10.17236 c 0.62339,-5.59479 1.14065,-10.17917 1.14948,-10.18749 0.0585,-0.0553 18.33356,2.06633 18.44982,2.14188 0.0802,0.0521 0.53483,0.76464 1.01026,1.58341 l 0.86447,1.48868 -0.93628,8.44958 c -0.51496,4.64727 -0.97017,8.4902 -1.01161,8.53983 -0.0414,0.0496 -2.94042,-0.23098 -6.4422,-0.62358 l -6.36686,-0.71383 -2.0484,1.70308 c -1.1266,0.9367 -2.10423,1.72214 -2.17252,1.74542 -0.0683,0.0233 -0.12364,-0.0339 -0.12303,-0.127 z m 2.36461,-1.91558 c 1.52106,-1.26405 1.86105,-1.49156 2.22321,-1.48773 0.23516,0.002 3.11362,0.31012 6.39657,0.68362 3.28295,0.37351 6.00207,0.64293 6.0425,0.59873 0.0404,-0.0442 0.49022,-3.83384 0.99954,-8.4214 l 0.92607,-8.34103 -0.84781,-1.45998 c -0.4663,-0.80299 -0.91609,-1.51266 -0.99957,-1.57705 -0.16189,-0.12491 -18.07583,-2.15062 -18.17057,-2.05473 -0.0784,0.0794 -2.28862,19.92463 -2.22552,19.98271 0.0283,0.026 0.87641,0.14074 1.88481,0.25499 1.00844,0.11424 1.85582,0.23007 1.88315,0.25738 0.049,0.049 -0.16076,2.13571 -0.30004,2.98556 -0.0844,0.51463 -0.3466,0.68497 2.18766,-1.42107 z m 2.74396,-4.445 c -0.0706,-0.0873 -0.15033,-0.5626 -0.17714,-1.05618 -0.0373,-0.68677 -0.14419,-1.09139 -0.4555,-1.72374 -0.22373,-0.45447 -0.50832,-0.91818 -0.63238,-1.03046 -0.2132,-0.19296 -0.22321,-0.17425 -0.18222,0.34118 0.0614,0.77158 -0.33676,1.49694 -1.05161,1.91586 -0.7012,0.41094 -2.52302,0.81368 -2.82345,0.62417 -0.22537,-0.14216 -0.54436,-1.06572 -0.54745,-1.58504 -0.003,-0.29972 0.0595,-0.33398 0.83537,-0.46688 0.4605,-0.0789 0.8727,-0.17882 0.91596,-0.22209 0.0433,-0.0433 -0.19063,-0.58268 -0.5198,-1.19868 -0.49155,-0.91993 -0.59846,-1.23724 -0.59846,-1.77619 0,-0.80599 0.1167,-0.86853 1.18107,-0.63292 1.25251,0.27725 2.54328,0.2101 3.56478,-0.18547 0.47983,-0.1858 0.95176,-0.33781 1.04881,-0.33781 0.097,0 0.5792,0.3382 1.07151,0.75156 1.19576,1.00401 2.71502,1.79463 4.5307,2.35777 0.51401,0.15942 0.57833,0.14785 1.41978,-0.25542 0.4848,-0.23232 1.22785,-0.74089 1.65127,-1.13016 0.42343,-0.38926 0.82751,-0.70775 0.89797,-0.70775 0.0704,0 0.12811,0.14658 0.12811,0.32574 0,0.49048 -1.08485,1.47082 -2.30148,2.07975 -0.56645,0.28353 -1.1276,0.51551 -1.24698,0.51551 -0.11938,0 -0.64141,-0.14549 -1.16004,-0.3233 -1.13152,-0.38793 -1.61621,-0.33887 -2.07836,0.21036 -0.89651,1.06546 0.33192,2.59977 1.56922,1.95994 0.3597,-0.18601 0.61304,-0.57013 0.82648,-1.25314 0.0428,-0.13678 0.16356,-0.21305 0.29501,-0.18626 0.1688,0.0344 0.21889,0.16228 0.20714,0.52883 -0.0278,0.86851 -0.80756,1.60762 -1.78477,1.69183 -0.7556,0.0651 -1.37673,-0.22627 -1.78493,-0.83729 -0.54277,-0.81247 -0.27927,-2.2035 0.50813,-2.68234 0.3433,-0.20878 0.35248,-0.23264 0.11808,-0.30704 -0.43505,-0.13808 -1.84253,-1.0885 -2.37701,-1.60513 l -0.51002,-0.49297 -0.82348,0.34009 c -0.70676,0.29188 -1.00352,0.33983 -2.09349,0.33831 -0.6985,-0.001 -1.49135,-0.0669 -1.76192,-0.14642 l -0.49191,-0.14464 0.0703,0.43322 c 0.0387,0.23828 0.30286,0.82473 0.58713,1.30323 0.54785,0.92214 0.65564,1.53445 0.31928,1.8136 -0.10867,0.0902 -0.46586,0.2318 -0.79375,0.31468 -0.42331,0.10701 -0.60558,0.22047 -0.62863,0.39132 -0.0656,0.48576 0.1228,0.57676 0.86757,0.41908 1.78737,-0.37842 2.41856,-1.17307 1.97226,-2.48293 -0.28123,-0.82529 -0.26453,-1.06103 0.0751,-1.06103 0.74345,0 2.06243,1.52318 2.45047,2.82984 0.10538,0.35489 0.19161,0.92064 0.19161,1.25721 0,0.60987 0.003,0.61195 0.4268,0.61195 0.41714,0 0.42851,-0.0143 0.50157,-0.63116 0.0938,-0.79177 -0.0988,-2.0219 -0.42529,-2.71644 -0.1374,-0.29229 -0.47824,-0.80788 -0.75745,-1.14575 -0.56854,-0.68801 -0.59839,-0.77865 -0.29486,-0.89513 0.31698,-0.12163 1.22939,0.83844 1.6164,1.70081 0.38986,0.86869 0.59131,2.15397 0.49368,3.14956 -0.10903,1.11184 -0.16676,1.17311 -1.10527,1.17311 -0.49122,0 -0.85558,-0.0619 -0.9339,-0.15875 z m 4.9225,-5.54791 c -1.36028,-0.41378 -2.79318,-1.946 -2.79318,-2.98679 0,-0.45054 -1.35073,-1.14691 -2.01539,-1.03905 -0.65878,0.10691 -2.38011,0.97472 -3.27255,1.64985 -0.82756,0.62607 -1.18906,0.73533 -1.18906,0.35941 0,-0.69761 3.07599,-2.50636 4.5149,-2.65487 0.5951,-0.0614 0.76052,-0.0215 1.39462,0.33634 1.11516,0.62936 2.00297,0.53987 2.40765,-0.24269 0.29784,-0.57597 0.24059,-1.06648 -0.17663,-1.51311 -0.72173,-0.77263 -1.84896,-0.4261 -2.22843,0.68507 -0.11758,0.3443 -0.24836,0.508 -0.40582,0.508 -0.60547,0 -0.16213,-1.42253 0.60063,-1.92732 0.42739,-0.28282 0.59481,-0.31864 1.26334,-0.27029 0.67942,0.0491 0.82457,0.10967 1.22615,0.51127 0.37254,0.37253 0.46684,0.57315 0.51758,1.10121 0.0359,0.37348 -0.005,0.80717 -0.0966,1.02874 -0.20466,0.49408 -0.94496,1.14333 -1.30654,1.14583 -0.6984,0.005 -0.73734,0.417 -0.11983,1.26806 0.43772,0.60328 0.74226,0.85143 1.4895,1.21367 0.86103,0.41742 1.13998,0.39492 1.60006,-0.12908 0.56928,-0.64838 1.60073,-1.10672 2.66134,-1.18261 l 0.88607,-0.0634 -0.33682,-0.57471 c -0.68897,-1.17564 -0.2898,-2.12747 1.03135,-2.45918 0.79012,-0.19839 0.74628,-0.16111 0.57221,-0.48636 -0.12811,-0.2394 -0.21452,-0.26312 -0.67704,-0.18588 -1.36779,0.22843 -2.11116,0.90128 -2.57352,2.32941 -0.33817,1.04448 -0.59016,1.14447 -0.94025,0.37306 -0.13714,-0.30218 -0.25004,-0.77802 -0.25088,-1.05742 -0.003,-0.66226 0.48167,-1.68521 1.12879,-2.38725 0.50017,-0.54261 0.50871,-0.56647 0.27752,-0.77568 -0.22757,-0.20596 -0.27337,-0.18359 -0.99872,0.48796 -1.23852,1.14664 -1.68386,2.63967 -1.23354,4.13547 0.34118,1.13324 0.31721,1.42119 -0.1284,1.54208 -0.22027,0.0598 -0.58918,0.0461 -0.88133,-0.0325 -0.54528,-0.14683 -1.34334,-0.84984 -1.34334,-1.18334 0,-0.38806 0.38343,-0.37362 0.80211,0.0302 0.22241,0.2145 0.56541,0.45072 0.76224,0.52492 0.31456,0.1186 0.34983,0.10802 0.29149,-0.0875 -0.60045,-2.01224 -0.32176,-3.73865 0.81195,-5.02987 0.51274,-0.58398 1.42317,-1.22549 1.73659,-1.22363 0.23524,10e-4 1.31062,0.9415 1.31062,1.14576 0,0.0616 -0.20185,0.27164 -0.44858,0.4667 -0.60187,0.4759 -1.30834,1.52191 -1.39747,2.06917 l -0.0724,0.4445 0.18547,-0.39937 c 0.51985,-1.11945 1.69124,-1.8833 3.11653,-2.03227 0.75718,-0.0791 0.75864,-0.0786 1.02047,0.35069 0.14422,0.23647 0.2985,0.62194 0.34284,0.8566 0.0946,0.50085 -0.0627,0.64801 -0.69569,0.6509 -0.23392,0.001 -0.62029,0.0945 -0.85863,0.20757 -0.60939,0.28918 -0.68294,0.7016 -0.2595,1.45492 0.19132,0.34034 0.33695,0.79714 0.33695,1.05692 v 0.45754 h -0.86638 c -1.19346,0 -1.96197,0.29089 -2.73365,1.03468 -0.55906,0.53886 -0.70422,0.61495 -1.15493,0.6054 -0.28356,-0.006 -0.65879,-0.0545 -0.83386,-0.10774 z"
       style="fill:#000000;stroke-width:0.264583"
       id="path1" />
  </g>
</svg>
