<?xml version="1.0" encoding="UTF-8" standalone="no"?>
<!-- Created with Inkscape (http://www.inkscape.org/) -->

<svg
   width="21.918011mm"
   height="24.254313mm"
   viewBox="0 0 21.918011 24.254312"
   version="1.1"
   id="svg1"
   inkscape:version="1.4 (e7c3feb1, 2024-10-09)"
   sodipodi:docname="MPN.svg"
   xmlns:inkscape="http://www.inkscape.org/namespaces/inkscape"
   xmlns:sodipodi="http://sodipodi.sourceforge.net/DTD/sodipodi-0.dtd"
   xmlns="http://www.w3.org/2000/svg"
   xmlns:svg="http://www.w3.org/2000/svg">
  <sodipodi:namedview
     id="namedview1"
     pagecolor="#ffffff"
     bordercolor="#000000"
     borderopacity="0.25"
     inkscape:showpageshadow="2"
     inkscape:pageopacity="0.0"
     inkscape:pagecheckerboard="0"
     inkscape:deskcolor="#d1d1d1"
     inkscape:document-units="mm"
     inkscape:zoom="4.2436444"
     inkscape:cx="41.355963"
     inkscape:cy="46.068893"
     inkscape:window-width="1440"
     inkscape:window-height="872"
     inkscape:window-x="0"
     inkscape:window-y="28"
     inkscape:window-maximized="0"
     inkscape:current-layer="layer1" />
  <defs
     id="defs1" />
  <g
     inkscape:label="Layer 1"
     inkscape:groupmode="layer"
     id="layer1"
     transform="translate(-102.37164,-144.68932)">
    <path
       d="m 106.07357,167.51488 c 0.0531,-0.78582 0.0991,-1.6002 0.10207,-1.80975 l 0.006,-0.381 -1.905,-0.127 -1.905,-0.127 0.0225,-0.5715 c 0.0527,-1.34029 1.3531,-19.75382 1.39882,-19.80697 0.0526,-0.0612 17.28261,1.09623 18.09502,1.21549 0.435,0.0639 0.53131,0.16959 1.43398,1.57428 l 0.96769,1.50584 -0.59552,8.54943 c -0.32753,4.70218 -0.60717,8.56477 -0.62143,8.58353 -0.0143,0.0188 -2.92187,-0.17119 -6.46139,-0.4221 l -6.43549,-0.45621 -2.01972,1.85085 c -1.11085,1.01797 -2.05547,1.85086 -2.09915,1.85086 -0.0437,0 -0.036,-0.64294 0.0172,-1.42875 z m 10.42857,-1.95993 c 3.53934,0.24989 6.44277,0.44305 6.452,0.42926 0.009,-0.0138 0.28131,-3.82071 0.60452,-8.45982 l 0.58764,-8.43473 -0.96202,-1.49706 c -1.10919,-1.72603 -0.6911,-1.53582 -3.85863,-1.75544 -1.01283,-0.0702 -4.88503,-0.33848 -8.60489,-0.59614 -3.71986,-0.25765 -6.78323,-0.44493 -6.80749,-0.41618 -0.0337,0.04 -1.26243,17.43298 -1.38986,19.67379 l -0.0251,0.4445 1.905,0.127 1.905,0.127 -0.003,0.508 c -0.003,0.2794 -0.043,1.06893 -0.0924,1.75451 l -0.0898,1.24651 1.9718,-1.80276 1.97178,-1.80277 z m -10.85101,-1.89337 c -0.0994,-0.25916 0.19405,-0.86861 1.05323,-2.1871 1.31852,-2.02341 2.43157,-2.97565 4.92667,-4.21485 1.48199,-0.73605 1.6909,-0.88055 1.9277,-1.3335 0.32198,-0.61586 0.48821,-0.60747 1.34253,0.0678 1.08444,0.85722 1.78797,0.80924 2.76738,-0.1887 0.47183,-0.48076 0.52938,-0.59948 0.45492,-0.93849 l -0.0852,-0.38811 -0.59458,0.35846 c -1.17639,0.7092 -1.52241,0.64689 -2.7501,-0.49522 l -0.82259,-0.76525 h -2.09246 c -2.69023,0 -3.24366,-0.11603 -3.95729,-0.82967 -0.33078,-0.33078 -0.61251,-0.76445 -0.7126,-1.09694 -0.0995,-0.33055 -0.24154,-0.54989 -0.35605,-0.54989 -0.10478,0 -0.24951,-0.18252 -0.32161,-0.40559 -0.0952,-0.29458 -0.17838,-0.37636 -0.30384,-0.29882 -0.20228,0.12502 -0.12235,0.97699 0.1905,2.03043 0.3421,1.15204 1.35882,1.97377 2.76614,2.23566 0.41121,0.0765 0.5181,0.16477 0.66706,0.55072 0.0976,0.25278 0.29152,0.67095 0.43106,0.92926 0.32002,0.59245 0.32264,0.86384 0.008,0.86384 -0.2843,0 -0.6622,-0.49101 -0.90752,-1.17914 -0.12248,-0.34363 -0.26316,-0.50047 -0.49348,-0.55024 -2.17844,-0.47077 -3.17055,-1.73958 -3.39259,-4.33875 l -0.079,-0.92462 0.40362,-0.15236 c 0.36529,-0.13788 0.39524,-0.18878 0.31534,-0.53587 -0.18688,-0.81151 -0.1523,-0.88841 0.41814,-0.92999 0.43913,-0.032 0.60286,0.0276 0.97563,0.35483 l 0.44791,0.39328 2.8711,-0.899 c 1.57911,-0.49444 2.9292,-0.8631 3.00019,-0.81923 0.071,0.0439 0.1116,0.16855 0.0903,0.27707 -0.0271,0.13767 -0.92152,0.47089 -2.95979,1.10263 -2.70256,0.83763 -2.92431,0.92856 -2.96527,1.21602 -0.0243,0.17088 -0.11969,0.41837 -0.21188,0.54997 -0.13885,0.19824 -0.13869,0.32125 0,0.71707 0.42863,1.21485 0.91676,1.53539 2.47338,1.62414 1.38441,0.0789 1.92096,-0.0162 2.40922,-0.42702 1.05254,-0.88565 0.25016,-2.63936 -1.10683,-2.41915 -0.7878,0.12784 -1.32956,0.89254 -1.20555,1.70161 0.0577,0.37651 0.0341,0.41275 -0.26863,0.41275 -0.31954,0 -0.33192,-0.0274 -0.33192,-0.73252 0,-0.95904 0.38846,-1.56532 1.202,-1.87602 1.36753,-0.52226 2.69388,0.26865 2.83025,1.68768 0.0452,0.47046 -0.006,0.75133 -0.21082,1.15246 l -0.27059,0.5304 h 0.42995 c 0.46466,0 0.78425,0.20463 1.82104,1.16602 0.71711,0.66494 0.73375,0.6663 1.65889,0.13572 0.46027,-0.26398 0.52787,-0.3545 0.46167,-0.61822 l -0.0776,-0.30896 2.07833,0.035 c 1.7472,0.0294 2.07833,0.0653 2.07833,0.22547 0,0.13281 -0.16087,0.2022 -0.53118,0.22913 -0.4831,0.0351 -0.53901,0.0754 -0.61791,0.4445 -0.11856,0.55477 -0.28069,0.72337 -0.69553,0.72337 -0.27808,0 -0.38124,0.0809 -0.48586,0.381 -0.0754,0.21636 -0.22362,0.381 -0.343,0.381 -0.1156,0 -0.50435,0.26543 -0.86387,0.58985 -0.75049,0.67723 -1.27981,0.93415 -1.92463,0.93415 -0.45336,0 -1.32874,-0.36687 -1.7421,-0.73012 -0.19888,-0.17476 -0.25162,-0.15799 -0.5715,0.18172 -0.19383,0.20583 -1.0714,0.72302 -1.95016,1.14931 -1.68471,0.81725 -2.89983,1.69092 -3.72414,2.67768 -0.526,0.62962 -1.72657,2.43415 -1.72659,2.59516 -3e-5,0.0524 0.24286,0.0938 0.53972,0.092 0.50821,-0.003 0.56568,-0.042 0.98359,-0.66675 0.61986,-0.92659 2.22901,-2.48508 3.10107,-3.00344 1.03394,-0.61459 1.80819,-0.66359 2.74061,-0.17344 0.95496,0.50199 1.41422,1.37001 1.49892,2.83289 l 0.0587,1.01402 h 0.50808 0.50805 l -0.0906,-1.15854 c -0.158,-2.01994 -0.56329,-2.87187 -1.78284,-3.74782 -0.69318,-0.49786 -0.88487,-0.73811 -0.7557,-0.9471 0.12697,-0.20547 0.44328,-0.12371 0.99809,0.25801 1.29537,0.89124 1.92937,2.04269 2.11555,3.84213 0.0669,0.64719 0.19228,1.24554 0.2785,1.32966 0.33216,0.32406 0.78306,0.32074 1.23944,-0.009 1.27135,-0.91896 1.86719,-1.03048 2.74791,-0.51434 0.41289,0.24196 0.55092,0.40106 0.55092,0.635 0,0.40355 -0.24125,0.39933 -0.85162,-0.0149 -0.59391,-0.40304 -0.95313,-0.35275 -1.7331,0.24261 -0.64293,0.49075 -1.23295,0.64533 -1.82028,0.47689 -0.30895,-0.0886 -0.41862,-0.0738 -0.47135,0.0635 -0.0506,0.13177 -0.31753,0.17901 -1.01158,0.17901 -0.99055,0 -1.09707,-0.0638 -1.09707,-0.65668 0,-0.24006 -0.0225,-0.23605 -0.38473,0.0688 -0.75306,0.63365 -1.69942,0.58851 -2.54939,-0.12162 -0.74597,-0.62324 -1.06598,-0.67035 -1.79375,-0.26403 -0.74633,0.4167 -0.86013,0.42085 -0.86013,0.0314 0,-0.73383 1.80464,-1.21086 2.54558,-0.67289 0.17156,0.12456 0.5061,0.36745 0.74345,0.53975 0.59876,0.4347 0.89403,0.39523 1.65124,-0.22073 0.59706,-0.48568 0.64895,-0.56902 0.57312,-0.92075 -0.22874,-1.06097 -0.88154,-1.75122 -1.82468,-1.92938 -0.34136,-0.0645 -0.58872,-0.004 -1.11437,0.27083 -0.84719,0.44357 -2.25639,1.73918 -3.01326,2.7704 -0.31787,0.43308 -0.63717,0.85885 -0.70953,0.94617 -0.0864,0.1042 -0.5021,0.15875 -1.21005,0.15875 -0.86886,0 -1.09355,-0.0393 -1.15601,-0.20205 z m 13.46695,-9.22576 c 0.0792,-0.0513 0.30123,-0.0942 0.49332,-0.0952 0.26392,-0.002 0.34925,-0.064 0.34925,-0.25594 0,-0.22321 -0.0847,-0.254 -0.6985,-0.254 -0.38418,0 -0.69819,0.0429 -0.69779,0.0952 0,0.0524 0.0677,0.32385 0.14952,0.60325 0.11099,0.37891 0.16295,0.44345 0.20447,0.254 0.0306,-0.1397 0.12051,-0.29599 0.19973,-0.34731 z m -11.73043,-4.68903 c 0,-0.24909 -0.52716,-0.86916 -0.73891,-0.86916 -0.0635,0 -0.0254,0.37687 0.0849,0.8375 0.19929,0.83294 0.20164,0.83598 0.42717,0.55743 0.12476,-0.15404 0.22681,-0.39064 0.22681,-0.52577 z"
       style="fill:#000000;stroke-width:0.264583"
       id="path1" />
  </g>
</svg>
