<?xml version="1.0" encoding="UTF-8" standalone="no"?>
<!-- Created with Inkscape (http://www.inkscape.org/) -->

<svg
   width="20.8682mm"
   height="24.143644mm"
   viewBox="0 0 20.8682 24.143643"
   version="1.1"
   id="svg1"
   inkscape:version="1.4 (e7c3feb1, 2024-10-09)"
   sodipodi:docname="ROW.svg"
   xmlns:inkscape="http://www.inkscape.org/namespaces/inkscape"
   xmlns:sodipodi="http://sodipodi.sourceforge.net/DTD/sodipodi-0.dtd"
   xmlns="http://www.w3.org/2000/svg"
   xmlns:svg="http://www.w3.org/2000/svg">
  <sodipodi:namedview
     id="namedview1"
     pagecolor="#ffffff"
     bordercolor="#000000"
     borderopacity="0.25"
     inkscape:showpageshadow="2"
     inkscape:pageopacity="0.0"
     inkscape:pagecheckerboard="0"
     inkscape:deskcolor="#d1d1d1"
     inkscape:document-units="mm"
     inkscape:zoom="4.2436444"
     inkscape:cx="-0.11782325"
     inkscape:cy="28.866697"
     inkscape:window-width="1440"
     inkscape:window-height="872"
     inkscape:window-x="0"
     inkscape:window-y="28"
     inkscape:window-maximized="0"
     inkscape:current-layer="layer1" />
  <defs
     id="defs1" />
  <g
     inkscape:label="Layer 1"
     inkscape:groupmode="layer"
     id="layer1"
     transform="translate(-130.93481,-161.02032)">
    <path
       d="m 145.76201,183.1572 -1.91342,-2.00627 -6.45689,-0.0516 -6.45689,-0.0517 0.075,-8.61651 0.075,-8.61651 1.05635,-1.39399 1.05635,-1.39399 7.6835,-0.006 c 4.22592,-0.004 8.41216,0.0307 9.30275,0.0761 l 1.61925,0.0826 v 9.23225 c 0,5.07773 -0.037,9.66948 -0.0821,10.2039 l -0.0822,0.97166 h -1.88635 -1.88637 l -0.01,1.23825 c -0.005,0.68103 -0.048,1.48582 -0.0953,1.78841 l -0.0858,0.55016 z m 1.96191,-0.39582 0.0151,-1.30175 h 1.88637 1.88635 l 0.0822,-0.97166 c 0.0452,-0.53442 0.0821,-5.06902 0.0821,-10.0769 v -9.10524 l -1.61925,-0.0826 c -0.89059,-0.0454 -5.01968,-0.0797 -9.17575,-0.0761 l -7.5565,0.006 -1.05574,1.39321 -1.05577,1.39321 -0.0756,8.49029 -0.0756,8.49029 6.45779,0.0517 6.45782,0.0517 1.7856,1.87519 c 2.05877,2.16206 1.93442,2.1708 1.96106,-0.13776 z m -8.76073,-5.85531 -0.38327,-0.61656 -0.53364,0.19189 c -0.72549,0.26089 -1.28376,0.1326 -2.10354,-0.48336 -0.79391,-0.59654 -1.16782,-0.63313 -1.83529,-0.17957 -0.51294,0.34856 -0.84751,0.33347 -0.84494,-0.0381 0.003,-0.35374 0.86299,-0.83742 1.58594,-0.89144 0.65645,-0.049 0.70202,-0.0293 1.82853,0.79424 0.52591,0.38447 0.88884,0.39873 1.32935,0.0522 0.24442,-0.19226 0.33462,-0.37976 0.33462,-0.69557 v -0.43235 l -2.25261,-0.0347 c -2.02833,-0.0312 -2.25687,-0.0568 -2.29532,-0.25693 -0.0382,-0.19888 0.0823,-0.22225 1.14613,-0.22225 h 1.18885 l 0.61888,-0.62834 0.61892,-0.62835 -1.22161,-1.85165 c -0.71609,-1.08542 -1.19189,-1.92903 -1.14983,-2.03865 0.0606,-0.1579 0.57486,-0.18701 3.30388,-0.18701 h 3.2321 l -0.1977,-0.28226 c -0.31112,-0.44419 -0.26159,-1.61654 0.0906,-2.14371 0.98462,-1.47389 3.32441,-0.94499 3.58772,0.81099 0.10401,0.69354 -0.23138,1.61498 -0.5878,1.61498 -0.27678,0 -0.30051,-0.21378 -0.0986,-0.88774 0.25895,-0.86428 -0.43762,-1.77926 -1.35454,-1.77926 -0.21336,0 -0.4945,0.15802 -0.76829,0.4318 -0.58574,0.58574 -0.60945,1.31509 -0.0606,1.86397 0.32076,0.32076 0.46667,0.37123 1.07326,0.37123 2.0288,0 2.72973,0.5053 3.52348,2.54 0.60976,1.56311 0.67207,1.9685 0.30253,1.9685 -0.2054,0 -0.36584,-0.27948 -0.83844,-1.46041 -0.32144,-0.80323 -0.73168,-1.60979 -0.91162,-1.79237 -0.54269,-0.55067 -1.15557,-0.62072 -5.43066,-0.62072 H 135.903 l 0.26114,0.41275 0.26112,0.41275 3.07464,0.0635 c 2.30854,0.0477 3.08787,0.10324 3.12769,0.22299 0.0292,0.0877 0.2948,0.48793 0.59031,0.88935 0.61379,0.83378 1.50398,1.61638 2.56593,2.25587 l 0.73367,0.44179 h 1.87322 c 1.10128,0 1.90532,0.0519 1.95106,0.12594 0.0428,0.0693 -0.0655,0.26929 -0.24071,0.4445 -0.17524,0.17521 -0.25855,0.31856 -0.18521,0.31856 0.31046,0 0.87109,0.53687 0.87109,0.83415 0,0.39356 -0.22022,0.39106 -0.762,-0.009 -0.58513,-0.43169 -0.8472,-0.40177 -1.62947,0.18602 -1.04219,0.7831 -1.93479,0.8282 -2.72973,0.13794 -0.90056,-0.78199 -1.24039,-0.81165 -2.06732,-0.18045 -0.70313,0.53673 -1.30077,0.73291 -1.86854,0.61337 -0.33052,-0.0696 -0.37542,-0.0548 -0.24569,0.0806 0.24487,0.2557 0.20042,0.74998 -0.0674,0.74998 -0.15009,0 -0.45466,-0.38592 -0.9054,-1.14729 -0.86283,-1.45748 -1.40618,-1.88057 -1.58464,-1.23396 -0.0533,0.19302 0.0705,0.58316 0.38139,1.20222 0.43154,0.85918 0.49126,1.30603 0.17458,1.30603 -0.0749,0 -0.30869,-0.27745 -0.51949,-0.61656 z m 4.07676,-1.40281 c 1.15443,-0.91523 1.8492,-0.89235 3.09721,0.102 0.74128,0.59062 0.79915,0.57779 2.37836,-0.52738 l 0.68054,-0.47625 h -4.47614 c -4.26519,0 -4.46945,0.0107 -4.33451,0.22677 0.0779,0.12473 0.46339,0.44185 0.85667,0.70472 0.81436,0.54432 1.07918,0.53992 1.79787,-0.0299 z m -5.0251,-1.72242 -0.20495,-0.31278 -0.36946,0.27317 c -0.20323,0.15024 -0.36949,0.29099 -0.36949,0.31278 0,0.0218 0.25849,0.0396 0.57443,0.0396 h 0.57441 z m 2.3581,0.12229 c -0.1991,-0.23991 -0.39267,-0.24102 -0.70599,-0.004 -0.229,0.17322 -0.20706,0.18675 0.30879,0.1905 0.47943,0.003 0.53369,-0.022 0.3972,-0.18646 z m 4.3815,-0.0951 c -0.71298,-0.51946 -1.9729,-1.79019 -2.32048,-2.3404 l -0.34652,-0.54852 -2.57924,-2.2e-4 c -2.02817,-1.8e-4 -2.55947,0.0337 -2.48664,0.15852 0.0509,0.0873 0.25829,0.40339 0.46078,0.7024 l 0.36816,0.54365 0.40397,-0.34104 c 0.55531,-0.46879 1.33178,-0.80364 1.87129,-0.80697 0.86371,-0.005 2.66018,1.19465 2.66018,1.77692 0,0.39163 -0.34767,0.30385 -1.01738,-0.25686 -1.21875,-1.0204 -2.00639,-1.09147 -2.93764,-0.26507 -0.45315,0.40215 -0.50723,0.50253 -0.38576,0.71621 0.35665,0.62741 0.35737,0.62765 0.78316,0.26936 0.61175,-0.51475 1.15824,-0.46312 1.7499,0.16531 l 0.47422,0.50366 1.8415,2.7e-4 1.8415,2.6e-4 z"
       style="fill:#000000;stroke-width:0.264583"
       id="path1" />
  </g>
</svg>
