<?xml version="1.0" encoding="UTF-8" standalone="no"?>
<!-- Created with Inkscape (http://www.inkscape.org/) -->

<svg
   width="21.829105mm"
   height="24.212347mm"
   viewBox="0 0 21.829105 24.212346"
   version="1.1"
   id="svg1"
   inkscape:version="1.4 (e7c3feb1, 2024-10-09)"
   sodipodi:docname="RU7.svg"
   xmlns:inkscape="http://www.inkscape.org/namespaces/inkscape"
   xmlns:sodipodi="http://sodipodi.sourceforge.net/DTD/sodipodi-0.dtd"
   xmlns="http://www.w3.org/2000/svg"
   xmlns:svg="http://www.w3.org/2000/svg">
  <sodipodi:namedview
     id="namedview1"
     pagecolor="#ffffff"
     bordercolor="#000000"
     borderopacity="0.25"
     inkscape:showpageshadow="2"
     inkscape:pageopacity="0.0"
     inkscape:pagecheckerboard="0"
     inkscape:deskcolor="#d1d1d1"
     inkscape:document-units="mm"
     inkscape:zoom="4.2436444"
     inkscape:cx="50.31053"
     inkscape:cy="47.011479"
     inkscape:window-width="1440"
     inkscape:window-height="872"
     inkscape:window-x="0"
     inkscape:window-y="28"
     inkscape:window-maximized="0"
     inkscape:current-layer="layer1" />
  <defs
     id="defs1" />
  <g
     inkscape:label="Layer 1"
     inkscape:groupmode="layer"
     id="layer1"
     transform="translate(-117.57884,-156.17109)">
    <path
       d="m 133.54317,178.52189 -2.00827,-1.8559 -6.41192,0.41578 c -3.52655,0.22868 -6.43201,0.39487 -6.45657,0.3693 -0.0553,-0.0575 -1.09046,-15.96875 -1.08756,-16.71614 0.002,-0.45972 0.14588,-0.75655 0.96254,-1.98275 l 0.96044,-1.44209 0.84931,-0.0743 c 2.79266,-0.24423 17.56335,-1.13252 17.6353,-1.06057 0.0477,0.0477 0.35731,4.27237 0.68793,9.38807 0.33062,5.1157 0.63095,9.6812 0.66738,10.14555 l 0.0662,0.84427 -1.96832,0.0922 -1.96832,0.0923 0.076,1.15898 c 0.0418,0.63743 0.10678,1.45901 0.14444,1.82572 0.0377,0.36671 0.0215,0.66421 -0.0359,0.6611 -0.0574,-0.003 -1.00812,-0.84081 -2.11267,-1.86155 z m 2.01776,1.32745 c -0.0324,-0.15716 -0.0943,-0.95016 -0.13762,-1.76223 l -0.0788,-1.47648 1.95217,-0.0915 1.95218,-0.0915 -0.0488,-0.71803 c -0.0268,-0.39491 -0.31994,-4.9036 -0.65133,-10.0193 -0.33139,-5.1157 -0.63866,-9.3374 -0.68282,-9.38157 -0.067,-0.067 -14.39411,0.80093 -17.3238,1.04946 l -0.91231,0.0774 -0.98498,1.4755 -0.98498,1.47549 0.54332,8.4455 c 0.29883,4.64503 0.56042,8.46292 0.58132,8.4842 0.0209,0.0213 2.92331,-0.1477 6.4498,-0.37553 l 6.4118,-0.41424 1.95267,1.79977 c 1.07396,0.98987 1.96804,1.8018 1.98684,1.80428 0.0188,0.002 0.008,-0.12407 -0.0247,-0.28123 z m -0.41734,-6.50987 c -1.99405,-0.43333 -4.17418,-2.10836 -5.01998,-3.85693 l -0.42484,-0.87831 -0.40742,0.1713 c -0.75574,0.31777 -0.46964,0.88532 0.9955,1.97481 0.99793,0.74207 1.06705,0.94705 0.59735,1.77148 -0.36497,0.64058 -0.58822,0.70513 -1.26278,0.36507 -1.41086,-0.71123 -2.65226,-1.80821 -3.14969,-2.78327 -0.28382,-0.55633 -0.34189,-1.62634 -0.11254,-2.07363 0.2598,-0.50667 0.91726,-1.1029 1.21617,-1.1029 0.40572,0 0.38635,0.44071 -0.0314,0.71444 -0.1782,0.11675 -0.4068,0.37241 -0.508,0.56812 -0.4131,0.79884 -0.11141,1.68013 0.91698,2.67861 0.53759,0.52196 1.97516,1.49983 2.2049,1.49983 0.0453,0 0.14608,-0.1399 0.22399,-0.31089 0.13051,-0.28644 0.0947,-0.3456 -0.45587,-0.75224 -1.904,-1.40637 -2.25352,-2.51064 -0.98851,-3.12303 0.6003,-0.2906 1.34344,-0.34596 1.3436,-0.10009 5e-5,0.0873 0.17406,0.52648 0.38668,0.97591 0.74549,1.57585 2.69133,3.12534 4.48991,3.57536 0.56057,0.14026 0.63885,0.13289 0.79044,-0.0744 0.15361,-0.21009 0.0814,-0.27235 -0.83043,-0.71605 -1.10864,-0.53948 -2.01202,-1.33459 -2.416,-2.12645 -0.14636,-0.2869 -0.38463,-1.02066 -0.52949,-1.63057 -0.14485,-0.60991 -0.34352,-1.26393 -0.44149,-1.45338 -0.16102,-0.31137 -0.22393,-0.33606 -0.65517,-0.25705 -0.26238,0.0481 -1.07713,0.0874 -1.81055,0.0874 -1.19073,0 -1.40149,-0.0355 -1.9685,-0.3316 -0.59794,-0.31225 -0.71397,-0.32799 -1.98797,-0.26965 -1.15101,0.0527 -1.49142,0.0199 -2.28053,-0.21978 -1.14866,-0.3489 -2.60388,-1.07066 -2.75981,-1.36882 -0.13765,-0.26319 0.30627,-1.54369 0.57029,-1.64501 0.0914,-0.0351 0.64498,0.14193 1.23025,0.39331 0.58527,0.25138 1.12267,0.45705 1.19423,0.45705 0.0817,0 0.0669,-0.1771 -0.0399,-0.47625 -0.23135,-0.64825 -0.21757,-1.0187 0.0607,-1.63137 0.31797,-0.70014 0.93031,-1.06738 1.77975,-1.06738 0.36194,0 0.82218,0.0849 1.02275,0.18859 0.44193,0.22853 0.89271,0.83259 0.89271,1.19627 0,0.41349 -0.34063,0.31928 -0.87443,-0.24186 -0.40741,-0.42828 -0.56336,-0.508 -0.99378,-0.508 -1.3627,0 -1.89929,1.72397 -0.75395,2.42236 0.71245,0.43442 1.0727,0.33407 2.70837,-0.75442 1.75651,-1.16891 2.66363,-1.53997 3.99402,-1.63379 0.77324,-0.0545 1.14486,-0.0133 1.8415,0.20426 0.48002,0.14991 1.01421,0.35222 1.18708,0.44959 0.27703,0.15602 0.37033,0.14844 0.78641,-0.0638 0.25965,-0.13247 0.55956,-0.20728 0.66648,-0.16625 0.43958,0.16869 0.43117,2.09261 -0.0118,2.69059 -0.34368,0.464 -1.02857,0.91548 -1.38875,0.91548 -0.35872,0 -0.55718,-0.3386 -0.55718,-0.95063 0,-0.40409 -0.053,-0.48146 -0.44042,-0.64335 -0.25793,-0.10776 -0.85435,-0.18402 -1.43934,-0.18402 -0.5494,0 -1.035,-0.0361 -1.07911,-0.0802 -0.0441,-0.0441 -0.023,-0.18698 0.0468,-0.3175 0.10855,-0.20282 0.282,-0.2373 1.19377,-0.2373 0.58672,0 1.2229,0.0594 1.41374,0.13192 0.26152,0.0994 0.37256,0.0916 0.45082,-0.0317 0.20067,-0.31627 0.10208,-0.45232 -0.5224,-0.72097 -1.23355,-0.53066 -2.62237,-0.48129 -4.06886,0.14463 l -0.5715,0.24729 0.65723,0.29355 c 1.1271,0.50342 2.36371,1.86623 2.16449,2.38539 -0.0966,0.25176 -0.56524,0.14308 -0.65917,-0.15287 -0.10981,-0.34596 -1.05037,-1.25935 -1.5696,-1.52424 -0.26277,-0.13406 -0.6878,-0.28314 -0.94451,-0.3313 -0.40708,-0.0764 -0.54633,-0.0291 -1.08926,0.3694 -1.61658,1.18668 -2.83882,1.25277 -5.23909,0.28325 l -0.72652,-0.29345 -0.13573,0.29789 c -0.12784,0.28058 -0.0861,0.32291 0.71892,0.72829 0.47006,0.23672 1.16497,0.52255 1.54425,0.63519 0.78788,0.23397 2.25416,0.26746 2.97286,0.0679 0.4322,-0.12001 0.54092,-0.10045 0.9525,0.17136 0.80389,0.5309 1.34218,0.64259 2.61194,0.54195 2.18005,-0.17278 2.12623,-0.17884 2.3894,0.26923 0.12959,0.22063 0.36782,0.935 0.5294,1.5875 0.57944,2.33987 1.14022,2.93467 3.79214,4.02218 0.19208,0.0788 0.34925,0.23245 0.34925,0.3415 0,0.25081 -0.49549,1.23695 -0.68381,1.36097 -0.16773,0.11045 -0.0779,0.11847 -1.05755,-0.0944 z m -0.38598,-9.30163 c 0.53899,-0.56498 0.75416,-1.37457 0.4804,-1.80752 -0.0994,-0.15714 -0.18349,-0.12653 -0.50889,0.18523 -0.44635,0.42763 -0.70957,1.16179 -0.58891,1.64254 0.10449,0.41631 0.20404,0.41304 0.6174,-0.0202 z"
       style="fill:#000000;stroke-width:0.264583"
       id="path1" />
  </g>
</svg>
