<?xml version="1.0" encoding="UTF-8" standalone="no"?>
<!-- Created with Inkscape (http://www.inkscape.org/) -->

<svg
   width="20.701mm"
   height="24.0665mm"
   viewBox="0 0 20.701 24.0665"
   version="1.1"
   id="svg1"
   inkscape:version="1.4 (e7c3feb1, 2024-10-09)"
   sodipodi:docname="SAL.svg"
   xmlns:inkscape="http://www.inkscape.org/namespaces/inkscape"
   xmlns:sodipodi="http://sodipodi.sourceforge.net/DTD/sodipodi-0.dtd"
   xmlns="http://www.w3.org/2000/svg"
   xmlns:svg="http://www.w3.org/2000/svg">
  <sodipodi:namedview
     id="namedview1"
     pagecolor="#ffffff"
     bordercolor="#000000"
     borderopacity="0.25"
     inkscape:showpageshadow="2"
     inkscape:pageopacity="0.0"
     inkscape:pagecheckerboard="0"
     inkscape:deskcolor="#d1d1d1"
     inkscape:document-units="mm"
     inkscape:zoom="2.9647587"
     inkscape:cx="64.254808"
     inkscape:cy="23.779338"
     inkscape:window-width="1440"
     inkscape:window-height="872"
     inkscape:window-x="0"
     inkscape:window-y="28"
     inkscape:window-maximized="0"
     inkscape:current-layer="layer1" />
  <defs
     id="defs1" />
  <g
     inkscape:label="Layer 1"
     inkscape:groupmode="layer"
     id="layer1"
     transform="translate(-1942.1906,-480.17084)">
    <path
       d="m 1946.1376,502.42759 -0.01,-1.80975 h -1.9685 -1.9685 v -10.2235 -10.2235 l 9.3027,2.1e-4 9.3028,2e-4 1.0477,1.37693 1.0478,1.37694 v 8.65586 8.65586 h -6.4416 -6.4415 l -1.9339,2.00025 -1.9338,2.00025 z m 10.1863,-2.31775 h 6.4441 v -8.52886 -8.52886 l -1.0478,-1.37694 -1.0477,-1.37693 -9.1758,-2e-4 -9.1757,-2.1e-4 v 10.0965 10.0965 h 1.9685 1.9685 l 0.01,1.68275 0.01,1.68275 1.8044,-1.87325 1.8043,-1.87325 z m -9.2404,-2.43386 c -0.1397,-0.0771 -0.3969,-0.27173 -0.5715,-0.43256 -0.6046,-0.55678 -0.987,-0.61369 -1.6863,-0.25089 -0.7453,0.38667 -0.9807,0.40579 -0.9807,0.0797 0,-0.51041 1.4123,-1.05056 2.218,-0.84833 0.1806,0.0453 0.5626,0.29398 0.8488,0.55256 0.6768,0.61149 1.3088,0.64805 1.8722,0.1083 l 0.3777,-0.36184 -0.3724,-0.31331 c -0.4853,-0.40838 -0.484,-0.87277 0,-1.35123 0.6216,-0.60968 0.8054,-1.1428 0.7079,-2.05331 -0.054,-0.50535 -0.037,-0.82723 0.046,-0.8788 0.072,-0.0448 0.6112,0.002 1.1973,0.10462 1.214,0.21191 1.5841,0.15981 3.1472,-0.44299 1.0111,-0.38991 1.1329,-0.52229 0.8435,-0.91702 -0.1488,-0.20296 -0.2055,-0.20012 -0.9032,0.0453 -1.4807,0.52085 -2.7677,0.46557 -4.8465,-0.20814 l -1.019,-0.33024 -0.8225,0.24522 -0.8226,0.24522 0.028,0.6631 c 0.032,0.74142 0.4488,1.68407 1.103,2.49196 0.5878,0.72583 0.6505,0.95254 0.2636,0.95254 -0.4027,0 -1.36,-1.19085 -1.7139,-2.13201 -0.29,-0.77135 -0.3457,-2.20538 -0.094,-2.41212 0.087,-0.0716 0.5766,-0.2567 1.0872,-0.41128 0.5107,-0.15457 1.0946,-0.42073 1.2975,-0.59147 0.9573,-0.80556 0.3652,-2.3907 -0.8798,-2.3553 -0.8041,0.0229 -1.3896,0.77606 -1.2298,1.58216 0.1618,0.81653 0.1481,0.92102 -0.1251,0.96009 -0.3426,0.049 -0.5629,-0.42836 -0.5623,-1.21829 0,-1.14568 0.8053,-1.92944 1.981,-1.9303 1.5759,-10e-4 2.4517,1.60288 1.6452,3.01337 l -0.3072,0.53734 0.8485,0.26922 c 0.8829,0.28014 3.0252,0.46495 3.2743,0.28246 0.077,-0.0563 0.8116,-2.12106 1.6328,-4.58834 1.4238,-4.27723 1.7013,-4.9086 1.9683,-4.47671 0.053,0.0864 -0.5139,2.00675 -1.2829,4.34303 -0.7581,2.30351 -1.3785,4.2395 -1.3785,4.30219 0,0.0627 0.1969,0.0318 0.4375,-0.0688 0.2405,-0.10051 0.5168,-0.15227 0.6138,-0.11502 0.1892,0.0726 0.7267,1.25834 0.7267,1.6031 0,0.19445 -0.2049,0.29718 -2.3627,1.18415 -0.2168,0.0891 -0.4242,0.27687 -0.4609,0.41721 -0.064,0.24343 -0.021,0.25206 0.9184,0.18764 1.1224,-0.0769 2.3931,0.23235 3.1752,0.77285 l 0.4445,0.30717 0.635,-0.24974 c 0.3493,-0.13735 1.1239,-0.50216 1.7214,-0.81068 1.2085,-0.62402 1.5171,-0.68691 1.5171,-0.30908 0,0.19635 -0.3618,0.4306 -1.6414,1.06267 l -1.6415,0.81081 0.3664,0.27082 c 0.3128,0.23133 0.5407,0.27082 1.5624,0.27082 0.8374,0 1.2379,0.0504 1.3356,0.16812 0.3452,0.41594 -0.081,0.46688 -3.9086,0.46688 h -3.7493 l 0.2668,0.26675 c 0.2173,0.21735 0.3151,0.24087 0.5278,0.127 0.5741,-0.30726 1.6258,-0.0864 2.0558,0.43175 0.2987,0.35989 0.8831,0.593 1.2722,0.50752 0.2006,-0.0441 0.6107,-0.27576 0.9115,-0.51492 0.5795,-0.46076 1.1712,-0.64211 1.6792,-0.51461 0.3962,0.0994 1.0901,0.68146 1.0901,0.9143 0,0.2612 -0.4807,0.21912 -0.8543,-0.0748 -0.4795,-0.37714 -0.9276,-0.31737 -1.6107,0.21483 -0.4973,0.38743 -0.7269,0.47758 -1.3226,0.51924 -0.7545,0.0528 -0.6718,0.0881 -1.8975,-0.80923 -0.4486,-0.32835 -0.8379,-0.25395 -1.7046,0.32574 -0.7312,0.48914 -0.8584,0.53169 -1.4458,0.48357 -0.4983,-0.0408 -0.7825,-0.15858 -1.2565,-0.52046 -0.8323,-0.6355 -1.2655,-0.62692 -2.0365,0.0403 -0.5245,0.45401 -0.6569,0.50759 -1.2459,0.50414 -0.3625,-0.002 -0.7734,-0.0669 -0.9131,-0.144 z m 6.2565,-0.66054 c 0.1288,-0.1257 0.086,-0.22771 -0.2141,-0.5156 l -0.3746,-0.3589 -0.5721,0.2366 c -0.5474,0.22645 -0.5628,0.24685 -0.3574,0.47544 0.4208,0.46815 1.1276,0.54378 1.5182,0.16246 z m -0.8883,-1.47934 c 1.4193,-0.63316 2.2678,-0.7538 3.1772,-0.45176 0.3767,0.12512 0.9226,0.19743 1.3191,0.17473 l 0.6765,-0.0387 -0.635,-0.47442 c -1.4534,-1.0859 -2.9351,-1.26663 -4.9234,-0.60052 -0.7424,0.24874 -1.1944,0.34191 -1.2738,0.26254 -0.226,-0.22601 0.011,-0.48604 0.6542,-0.71727 0.4733,-0.17019 0.6571,-0.30889 0.715,-0.53945 0.043,-0.17069 0.061,-0.32438 0.04,-0.34153 -0.021,-0.0171 -0.4808,-0.0631 -1.0222,-0.10222 l -0.9842,-0.071 v 0.59346 c 0,0.62947 -0.4373,1.73436 -0.804,2.03775 -0.301,0.24892 -0.2649,0.36682 0.202,0.66093 0.5842,0.36799 1.4088,0.25483 2.8599,-0.39247 z"
       style="fill:#000000;stroke-width:0.264583"
       id="path1" />
  </g>
</svg>
