<?xml version="1.0" encoding="UTF-8" standalone="no"?>
<!-- Created with Inkscape (http://www.inkscape.org/) -->

<svg
   width="22.270266mm"
   height="24.297188mm"
   viewBox="0 0 22.270266 24.297187"
   version="1.1"
   id="svg1"
   inkscape:version="1.4 (e7c3feb1, 2024-10-09)"
   sodipodi:docname="SHO.svg"
   xmlns:inkscape="http://www.inkscape.org/namespaces/inkscape"
   xmlns:sodipodi="http://sodipodi.sourceforge.net/DTD/sodipodi-0.dtd"
   xmlns="http://www.w3.org/2000/svg"
   xmlns:svg="http://www.w3.org/2000/svg">
  <sodipodi:namedview
     id="namedview1"
     pagecolor="#ffffff"
     bordercolor="#000000"
     borderopacity="0.25"
     inkscape:showpageshadow="2"
     inkscape:pageopacity="0.0"
     inkscape:pagecheckerboard="0"
     inkscape:deskcolor="#d1d1d1"
     inkscape:document-units="mm"
     inkscape:zoom="4.2436444"
     inkscape:cx="42.062902"
     inkscape:cy="45.833246"
     inkscape:window-width="1440"
     inkscape:window-height="872"
     inkscape:window-x="0"
     inkscape:window-y="28"
     inkscape:window-maximized="0"
     inkscape:current-layer="layer1" />
  <defs
     id="defs1" />
  <g
     inkscape:label="Layer 1"
     inkscape:groupmode="layer"
     id="layer1"
     transform="translate(-102.18187,-144.76572)">
    <path
       d="m 118.82872,167.30939 -2.0955,-1.80148 -6.38612,0.62476 c -3.51237,0.34361 -6.4112,0.59967 -6.44184,0.56901 -0.0307,-0.0307 -0.43098,-3.88793 -0.88958,-8.57172 l -0.83381,-8.51598 0.93636,-1.50984 c 0.88538,-1.4276 0.96346,-1.51493 1.43367,-1.60353 0.70112,-0.13211 17.95839,-1.79299 18.01001,-1.73332 0.0233,0.027 0.48514,4.58514 1.02624,10.12929 0.71604,7.33625 0.94466,10.10449 0.83984,10.16926 -0.0792,0.049 -0.92853,0.1614 -1.88738,0.24989 -0.95888,0.0885 -1.76443,0.18156 -1.79017,0.20683 -0.0257,0.0253 0.0259,0.82111 0.11451,1.76852 0.0887,0.94741 0.13832,1.74444 0.11028,1.77117 -0.0281,0.0267 -0.99399,-0.76206 -2.14651,-1.75286 z m 1.88232,-0.2454 c -0.0832,-0.88304 -0.12644,-1.63001 -0.0961,-1.65995 0.0304,-0.0299 0.83976,-0.12683 1.79864,-0.21531 0.95885,-0.0885 1.80308,-0.19779 1.87608,-0.2429 0.0897,-0.0554 -0.18248,-3.30952 -0.84,-10.04227 -0.53496,-5.47813 -0.98676,-9.97736 -1.00394,-9.99828 -0.0172,-0.0209 -4.1045,0.36149 -9.08293,0.8498 -6.32915,0.6208 -9.0973,0.93783 -9.20342,1.05404 -0.0835,0.0914 -0.52928,0.78051 -0.99066,1.53134 l -0.83886,1.36515 0.82344,8.40678 c 0.45288,4.62373 0.8441,8.42746 0.86939,8.45275 0.0254,0.0253 2.91992,-0.23585 6.4325,-0.58029 l 6.38654,-0.62626 1.97165,1.69411 c 1.08442,0.93176 1.98905,1.67672 2.0103,1.65546 0.0212,-0.0212 -0.0294,-0.76113 -0.11266,-1.64417 z m -9.21134,-4.1767 c 0.12282,-2.11596 0.80807,-4.10286 1.95022,-5.6548 0.33642,-0.4571 0.57857,-0.66542 0.77505,-0.66675 0.41894,-0.003 0.35713,0.29541 -0.21948,1.05915 -1.00346,1.32904 -1.90066,3.89331 -1.90611,5.44767 -0.003,0.47086 0.004,0.47625 0.50393,0.47625 0.44968,0 0.5134,-0.0386 0.57645,-0.34925 0.43455,-2.14141 0.97768,-3.48873 1.89433,-4.699 0.73554,-0.97117 0.9878,-1.01211 1.65894,-0.26924 0.8382,0.92781 1.40142,2.5054 1.54697,4.33324 l 0.0784,0.98425 h 0.55266 0.55269 v -0.47625 c -0.004,-1.85111 -0.48694,-3.97195 -1.22598,-5.3844 -0.4174,-0.79773 -0.47093,-0.84855 -0.97345,-0.9239 -0.62117,-0.0932 -1.72823,-0.58121 -1.96342,-0.86558 -0.14751,-0.17837 -0.22281,-0.17855 -0.77542,-0.002 -0.73255,0.23426 -1.14408,0.15313 -1.68788,-0.33276 -0.38836,-0.34697 -0.41828,-0.35309 -0.86638,-0.17708 -0.80711,0.31705 -1.14273,0.0707 -2.86361,-2.10196 l -1.51733,-1.91569 -1.42127,-0.006 c -1.43668,-0.006 -1.72802,-0.0992 -1.4316,-0.45633 0.12943,-0.15597 0.90762,-0.18494 4.96718,-0.18494 h 4.81372 l -0.20756,-0.40137 c -0.14738,-0.28499 -0.19188,-0.61826 -0.15344,-1.14945 0.0475,-0.65696 0.11057,-0.80455 0.51761,-1.2116 0.41902,-0.41901 0.54012,-0.46783 1.26143,-0.50844 0.92577,-0.0521 1.45819,0.19974 1.87812,0.88845 0.30781,0.50487 0.34922,1.63671 0.0684,1.86979 -0.30003,0.24902 -0.45005,0.0322 -0.45005,-0.65058 0,-0.55874 -0.055,-0.69515 -0.4318,-1.072 -1.15234,-1.15235 -2.80575,0.12849 -2.05068,1.58862 0.25916,0.50119 0.68969,0.62647 2.31219,0.67283 1.17025,0.0334 1.46304,0.082 1.68026,0.27855 0.55224,0.49977 0.45527,1.58825 -0.21214,2.38143 -0.26643,0.31664 -0.34515,0.57102 -0.40185,1.29852 -0.062,0.79658 -0.10086,0.90475 -0.32448,0.90475 -0.23321,0 -0.25371,-0.0835 -0.2504,-1.01955 0.003,-0.93795 0.0358,-1.06501 0.40613,-1.5875 0.22138,-0.31238 0.43463,-0.71083 0.4739,-0.88545 0.15946,-0.70914 0.25699,-0.69541 -5.21603,-0.73452 -4.5176,-0.0323 -5.02353,-0.0158 -4.87865,0.15875 0.13362,0.16098 0.53435,0.19477 2.31016,0.19477 1.89788,0 2.2066,0.0296 2.64639,0.254 0.61706,0.3148 0.60864,0.31521 0.65791,-0.0318 0.0652,-0.45877 0.5402,-0.38105 0.58211,0.0952 0.0185,0.20955 0.0643,0.56867 0.10184,0.79806 l 0.0683,0.41705 0.70123,-0.62499 c 0.4827,-0.43021 0.77747,-0.60504 0.94593,-0.56099 0.3759,0.0983 0.2997,0.28206 -0.39438,0.95108 -0.88003,0.84824 -1.35687,1.11425 -1.9983,1.11481 -0.48019,5.3e-4 -0.60827,-0.0682 -1.12519,-0.60277 -0.32081,-0.33179 -0.66932,-0.73184 -0.77446,-0.889 -0.13542,-0.20241 -0.31655,-0.28575 -0.62106,-0.28575 -0.23643,0 -0.42989,0.0325 -0.42989,0.0722 0,0.15275 2.19509,2.73218 2.43377,2.85992 0.18949,0.10142 0.40801,0.0786 0.88355,-0.0925 0.50964,-0.18326 0.67363,-0.19701 0.84799,-0.0711 0.85711,0.61892 1.45759,0.87445 2.58262,1.09907 0.26405,0.0527 0.44305,0.27558 0.8509,1.0595 0.82868,1.59283 1.28736,3.73717 1.29014,6.03138 v 0.86202 l -1.17475,-0.0365 -1.17475,-0.0365 -0.082,-1.143 c -0.13689,-1.90801 -0.68704,-3.55251 -1.41578,-4.23206 l -0.31642,-0.29506 -0.5139,0.71766 c -0.68932,0.96264 -1.2283,2.29917 -1.51344,3.75302 l -0.23527,1.19944 -1.12427,0.037 -1.12429,0.037 z m 0.40775,-8.22884 c 0.0433,-0.07 -0.31054,-0.61027 -0.78626,-1.20048 -0.80732,-1.00157 -0.89723,-1.07351 -1.34871,-1.07913 -0.3528,-0.004 -0.45868,0.0369 -0.39119,0.15272 0.1387,0.23784 1.05889,1.37165 1.49453,1.8415 0.37417,0.40352 0.87328,0.5416 1.03163,0.28539 z m 2.34927,-1.32228 c 0,-0.0988 -0.25718,-0.32338 -0.5715,-0.49906 -0.67572,-0.37766 -0.71848,-0.31053 -0.16558,0.25991 0.42696,0.4405 0.73708,0.54113 0.73708,0.23915 z"
       style="fill:#000000;stroke-width:0.264583"
       id="path1" />
  </g>
</svg>
