<?xml version="1.0" encoding="UTF-8" standalone="no"?>
<!-- Created with Inkscape (http://www.inkscape.org/) -->

<svg
   width="20.931499mm"
   height="24.17264mm"
   viewBox="0 0 20.931499 24.17264"
   version="1.1"
   id="svg1"
   inkscape:version="1.4 (e7c3feb1, 2024-10-09)"
   sodipodi:docname="SWM.svg"
   xmlns:inkscape="http://www.inkscape.org/namespaces/inkscape"
   xmlns:sodipodi="http://sodipodi.sourceforge.net/DTD/sodipodi-0.dtd"
   xmlns="http://www.w3.org/2000/svg"
   xmlns:svg="http://www.w3.org/2000/svg">
  <sodipodi:namedview
     id="namedview1"
     pagecolor="#ffffff"
     bordercolor="#000000"
     borderopacity="0.25"
     inkscape:showpageshadow="2"
     inkscape:pageopacity="0.0"
     inkscape:pagecheckerboard="0"
     inkscape:deskcolor="#d1d1d1"
     inkscape:document-units="mm"
     inkscape:zoom="2.9647587"
     inkscape:cx="53.461349"
     inkscape:cy="84.492543"
     inkscape:window-width="1440"
     inkscape:window-height="872"
     inkscape:window-x="0"
     inkscape:window-y="28"
     inkscape:window-maximized="0"
     inkscape:current-layer="layer1" />
  <defs
     id="defs1" />
  <g
     inkscape:label="Layer 1"
     inkscape:groupmode="layer"
     id="layer1"
     transform="translate(-1943.7996,-483.37403)">
    <path
       d="m 1958.6351,505.51388 -1.9036,-2.03113 h -6.4659 -6.466 l 0.087,-8.64901 0.087,-8.649 1.0714,-1.40536 1.0714,-1.40535 9.307,0.0312 c 5.1189,0.0172 9.3073,0.0411 9.3077,0.0531 0,0.012 -0.016,4.64486 -0.035,10.29521 l -0.036,10.27335 -1.9641,-0.0898 -1.9642,-0.0899 v 1.84975 c 0,1.01735 -0.043,1.84973 -0.097,1.84973 -0.053,0 -0.9533,-0.914 -2.0003,-2.03112 z m 3.939,-1.71334 1.9619,0.0919 0.035,-10.14349 c 0.019,-5.57893 0.034,-10.15384 0.033,-10.16648 0,-0.0126 -4.1332,-0.0353 -9.1827,-0.0505 l -9.1809,-0.0275 -1.0688,1.40191 -1.0687,1.4019 -0.088,8.52281 -0.088,8.52284 h 6.4659 6.4659 l 1.8415,1.96503 1.8415,1.96506 0.035,-1.78866 0.035,-1.78866 z m -2.4697,-5.89378 c -0.2397,-0.44778 -1.2854,-1.59893 -1.8862,-2.07615 -0.8026,-0.6377 -1.3248,-0.64588 -2.0592,-0.0323 -0.2932,0.24495 -0.6735,0.48059 -0.8451,0.52367 -0.6043,0.15168 -1.4066,-0.0323 -1.9224,-0.4408 -0.9336,-0.73948 -1.3756,-0.73938 -2.1411,0 -0.7089,0.68506 -1.8174,0.69707 -2.656,0.0288 -0.9071,-0.72295 -1.0082,-0.74467 -1.7581,-0.3778 -0.7785,0.38092 -1.1554,0.42712 -1.0404,0.12748 0.042,-0.11049 0.077,-0.24284 0.077,-0.29411 0,-0.14065 0.8982,-0.60889 1.3521,-0.70491 0.4903,-0.10369 1.1766,0.16315 1.7783,0.69149 0.6311,0.55407 1.2752,0.53108 1.9396,-0.0692 0.9199,-0.83105 1.7682,-0.82954 2.818,0.005 0.7348,0.58407 1.1738,0.58412 1.9049,1.9e-4 0.9241,-0.73822 1.5811,-0.80746 2.6104,-0.27517 0.4071,0.21056 2.2017,2.0564 2.2017,2.26462 0,0.0667 0.1714,0.0201 0.381,-0.10374 0.2095,-0.12377 0.381,-0.2613 0.381,-0.30562 0,-0.0443 -0.1815,-0.33203 -0.4033,-0.63937 -0.6747,-0.93477 -1.8951,-2.00795 -2.796,-2.45864 l -0.8538,-0.42714 -0.5481,0.54814 c -0.4255,0.4255 -0.6762,0.56734 -1.1204,0.63394 -0.7277,0.10914 -1.6444,-0.21831 -1.6444,-0.58738 0,-0.35023 0.2946,-0.41441 0.7712,-0.16798 0.7282,0.37661 1.64,-0.0653 1.883,-0.91273 0.22,-0.76698 -0.5263,-1.82251 -1.2885,-1.82251 -0.4288,0 -1.0506,0.37029 -1.2832,0.76404 -0.1231,0.20844 -0.2836,0.37896 -0.3565,0.37896 -0.073,0 -0.5312,-0.36896 -1.0183,-0.81989 -1.2052,-1.11592 -1.8604,-1.3594 -3.8654,-1.43648 l -1.5382,-0.0591 -0.1323,0.37965 -0.1324,0.37964 1.2997,0.0578 c 1.97,0.0876 2.9232,0.66389 3.0842,1.86468 0.093,0.69225 -0.2225,1.20972 -1.0138,1.66354 -0.7878,0.45183 -1.2355,0.49942 -1.2355,0.13134 0,-0.17421 0.1931,-0.34973 0.6262,-0.56918 0.6509,-0.32985 1.0248,-0.73207 1.0248,-1.10249 0,-0.1188 -0.1478,-0.39166 -0.3285,-0.6064 -0.4294,-0.5103 -1.2843,-0.74829 -2.91,-0.81012 -1.4982,-0.057 -1.5368,-0.1057 -1.0159,-1.28343 l 0.328,-0.74166 1.8679,0.0605 c 2.3028,0.0746 2.974,0.29085 4.0797,1.31449 0.6721,0.62224 0.7589,0.66743 0.9163,0.47711 0.2434,-0.29408 1.1177,-0.67185 1.5627,-0.67518 0.561,-0.004 1.4265,0.47031 1.718,0.94196 0.1424,0.23029 0.2588,0.6281 0.2588,0.88397 0,0.33362 0.063,0.48369 0.2222,0.53039 0.7061,0.2069 1.9028,0.93477 2.6253,1.59684 0.799,0.73207 0.8413,0.7534 1.1152,0.5615 0.448,-0.31377 1.3568,-0.25554 1.9133,0.12263 0.5313,0.36102 0.648,0.82092 0.2083,0.82092 -0.1462,0 -0.4111,-0.1143 -0.5886,-0.254 -0.3529,-0.27757 -0.8061,-0.32586 -1.18,-0.12575 -0.2279,0.12194 -0.2206,0.15885 0.1474,0.75088 0.4733,0.76132 0.4234,0.9592 -0.3786,1.50212 -0.6978,0.47234 -0.9736,0.51351 -1.1561,0.17251 z"
       style="fill:#000000;stroke-width:0.264583"
       id="path1" />
  </g>
</svg>
