<?xml version="1.0" encoding="UTF-8" standalone="no"?>
<!-- Created with Inkscape (http://www.inkscape.org/) -->

<svg
   width="21.01906mm"
   height="24.38393mm"
   viewBox="0 0 21.01906 24.383929"
   version="1.1"
   id="svg1"
   inkscape:version="1.4 (e7c3feb1, 2024-10-09)"
   sodipodi:docname="TEN.svg"
   xmlns:inkscape="http://www.inkscape.org/namespaces/inkscape"
   xmlns:sodipodi="http://sodipodi.sourceforge.net/DTD/sodipodi-0.dtd"
   xmlns="http://www.w3.org/2000/svg"
   xmlns:svg="http://www.w3.org/2000/svg">
  <sodipodi:namedview
     id="namedview1"
     pagecolor="#ffffff"
     bordercolor="#000000"
     borderopacity="0.25"
     inkscape:showpageshadow="2"
     inkscape:pageopacity="0.0"
     inkscape:pagecheckerboard="0"
     inkscape:deskcolor="#d1d1d1"
     inkscape:document-units="mm"
     inkscape:zoom="4.2436444"
     inkscape:cx="39.235144"
     inkscape:cy="45.5976"
     inkscape:window-width="1440"
     inkscape:window-height="872"
     inkscape:window-x="0"
     inkscape:window-y="28"
     inkscape:window-maximized="0"
     inkscape:current-layer="layer1" />
  <defs
     id="defs1" />
  <g
     inkscape:label="Layer 1"
     inkscape:groupmode="layer"
     id="layer1"
     transform="translate(-120.52003,-156.59651)">
    <path
       d="m 124.74612,179.09023 -0.003,-1.89025 -1.95353,0.0594 -1.95355,0.0594 -0.0777,-3.18562 c -0.0427,-1.7521 -0.11382,-6.36435 -0.15801,-10.24945 l -0.0803,-7.06382 7.85829,-0.0807 c 4.32207,-0.0444 8.50963,-0.0946 9.30568,-0.11168 l 1.44741,-0.031 1.11357,1.4605 1.11361,1.4605 0.0902,8.58333 0.0903,8.58332 -6.45218,0.0823 -6.45216,0.0823 -1.27754,1.36734 c -0.70265,0.75203 -1.5771,1.68166 -1.94326,2.06584 l -0.66572,0.6985 z m 2.48298,-1.00109 1.27908,-1.36734 6.45171,-0.0823 6.4517,-0.0823 -0.0901,-8.45633 -0.0901,-8.45633 -1.1066,-1.4525 -1.10656,-1.45251 -1.96213,0.0228 c -1.07915,0.0125 -5.21232,0.0602 -9.18482,0.10593 l -7.22273,0.0832 0.0801,6.93457 c 0.044,3.81401 0.11475,8.36332 0.15714,10.10957 l 0.077,3.175 1.95386,-0.0453 1.95385,-0.0453 0.003,1.75982 0.003,1.75982 0.53678,-0.5715 c 0.29525,-0.31433 1.11239,-1.18681 1.81587,-1.93884 z m 2.75969,-3.98669 c -0.11494,-0.29951 0.17515,-1.59553 0.60666,-2.71047 0.75512,-1.95111 2.74513,-4.318 3.63045,-4.318 0.45305,0 0.37754,0.43729 -0.12961,0.75074 -1.33501,0.82507 -2.86452,3.17975 -3.31232,5.09931 l -0.17921,0.76814 0.44546,-0.0388 c 0.4124,-0.036 0.46278,-0.0882 0.67905,-0.70453 0.37502,-1.06868 1.1198,-2.18786 2.11079,-3.17196 0.89694,-0.89068 1.464,-1.21015 1.71048,-0.96365 0.0759,0.0759 0.075,0.44115 -0.003,0.98759 -0.26266,1.85468 0.28347,3.02053 1.62861,3.47679 0.63294,0.21467 0.74025,0.18543 0.79944,-0.21791 0.0464,-0.31624 -0.003,-0.38418 -0.36272,-0.51483 -1.13437,-0.41018 -1.242,-1.53412 -0.36041,-3.76313 0.4073,-1.02979 0.5715,-1.62662 0.5715,-2.0772 v -0.63223 l -0.58103,0.25702 c -0.86889,0.38435 -1.76286,0.43539 -2.58836,0.14776 l -0.69287,-0.24142 -0.81407,0.86296 c -0.95057,1.00764 -1.96924,1.56929 -3.24157,1.78723 l -0.84357,0.1445 -0.41867,-0.4571 c -0.24429,-0.2667 -0.64143,-0.52384 -0.9534,-0.61731 -0.49271,-0.14762 -0.6041,-0.13227 -1.41817,0.19545 -0.71763,0.2889 -0.99573,0.34025 -1.48183,0.27362 -0.73657,-0.10096 -1.58744,-0.58436 -1.96712,-1.11759 -0.38222,-0.53676 -0.47921,-1.62973 -0.18455,-2.07945 0.59473,-0.90767 2.0411,-1.1097 3.19723,-0.4466 0.56176,0.3222 0.72025,0.50986 1.1848,1.40277 0.37743,0.7255 0.63363,1.06782 0.86495,1.15577 0.21773,0.0828 0.35526,0.0819 0.40743,-0.003 0.0433,-0.0701 0.37915,-0.19189 0.74626,-0.27062 0.83145,-0.17831 1.60893,-0.75729 2.11431,-1.57451 0.3234,-0.52293 0.38373,-0.74955 0.38373,-1.44141 v -0.82092 l -0.50792,-0.0533 c -1.36488,-0.14313 -2.16054,-1.41892 -1.71908,-2.75649 0.30652,-0.92879 1.6954,-1.49748 2.67062,-1.09353 0.52282,0.21657 1.16798,0.97359 1.1193,1.31342 -0.0626,0.43696 -0.4259,0.39749 -0.71991,-0.0782 -0.52165,-0.84406 -1.44811,-0.97265 -2.12571,-0.29504 -0.33547,0.33546 -0.4318,0.53664 -0.4318,0.9017 0,0.36506 0.0963,0.56623 0.4318,0.9017 0.6318,0.63179 1.16316,0.599 2.26433,-0.1397 0.46852,-0.31433 0.97083,-0.5715 1.1162,-0.5715 0.83833,0 3.93467,2.38994 3.93467,3.03703 0,0.42492 -0.40513,0.31793 -0.95848,-0.25311 -0.61542,-0.6351 -1.85177,-1.57926 -2.50317,-1.91157 l -0.48369,-0.24676 -0.69283,0.48095 -0.69282,0.48096 -0.007,0.889 c -0.004,0.48895 -0.0846,1.10628 -0.17931,1.37185 -0.40224,1.12772 -1.35451,2.05136 -2.45478,2.38101 -0.58602,0.17558 -0.61544,0.21859 -0.37475,0.54777 0.14144,0.19342 0.23998,0.20423 0.77293,0.0848 1.22568,-0.27468 2.38072,-1.05705 3.19182,-2.16202 0.25673,-0.34975 0.52962,-0.6359 0.60638,-0.6359 0.0768,0 0.40052,0.12858 0.71945,0.28575 0.81973,0.40397 1.77035,0.37567 2.65385,-0.079 0.37235,-0.19163 0.76988,-0.33053 0.88342,-0.30866 0.50183,0.0966 0.54999,1.97532 0.0791,3.08642 -0.85588,2.01956 -1.01418,2.89425 -0.5918,3.26967 0.12224,0.10864 0.44083,0.28781 0.70795,0.39815 l 0.48572,0.20062 -0.0886,0.73278 c -0.0487,0.40303 -0.14574,0.80421 -0.21551,0.89153 -0.32004,0.40044 -1.9753,0.003 -2.62805,-0.63179 -0.6463,-0.62804 -0.91419,-1.34846 -0.9366,-2.51882 l -0.0193,-1.00355 -0.55401,0.53721 c -0.76129,0.73817 -1.53266,1.89655 -1.92091,2.88469 -0.46487,1.18312 -0.41777,1.14501 -1.41448,1.14501 -0.70739,0 -0.90173,-0.0423 -0.96629,-0.21053 z m -4.30305,-6.34359 c 0.20142,-0.0773 0.70882,-1.07596 0.70882,-1.3951 0,-0.32045 -0.77391,-1.05132 -1.34361,-1.26889 -1.00862,-0.38519 -2.02139,0.13575 -1.99612,1.02675 0.007,0.23809 0.13173,0.60067 0.27776,0.80574 0.46937,0.65919 1.68386,1.08833 2.35315,0.8315 z m 1.09955,-2.79167 c -0.83018,-0.69857 -0.30469,-1.95721 0.81719,-1.95721 0.47996,0 1.07808,0.63414 1.07808,1.143 0,0.27337 -0.11788,0.51841 -0.37124,0.77177 -0.47326,0.47326 -0.99476,0.48779 -1.52403,0.0424 z m 1.25519,-0.58928 c 0.18081,-0.32318 0.17544,-0.36501 -0.0795,-0.61992 -0.58208,-0.58208 -1.41012,0.17691 -0.85828,0.7867 0.30258,0.33434 0.69657,0.26427 0.93774,-0.16678 z"
       style="fill:#000000;stroke-width:0.264583"
       id="path1" />
  </g>
</svg>
