<?xml version="1.0" encoding="UTF-8" standalone="no"?>
<!-- Created with Inkscape (http://www.inkscape.org/) -->

<svg
   width="21.6462mm"
   height="24.642532mm"
   viewBox="0 0 21.646199 24.642533"
   version="1.1"
   id="svg1"
   inkscape:version="1.4 (e7c3feb1, 2024-10-09)"
   sodipodi:docname="TKD.svg"
   xmlns:inkscape="http://www.inkscape.org/namespaces/inkscape"
   xmlns:sodipodi="http://sodipodi.sourceforge.net/DTD/sodipodi-0.dtd"
   xmlns="http://www.w3.org/2000/svg"
   xmlns:svg="http://www.w3.org/2000/svg">
  <sodipodi:namedview
     id="namedview1"
     pagecolor="#ffffff"
     bordercolor="#000000"
     borderopacity="0.25"
     inkscape:showpageshadow="2"
     inkscape:pageopacity="0.0"
     inkscape:pagecheckerboard="0"
     inkscape:deskcolor="#d1d1d1"
     inkscape:document-units="mm"
     inkscape:zoom="2.9647587"
     inkscape:cx="65.60399"
     inkscape:cy="27.152294"
     inkscape:window-width="1440"
     inkscape:window-height="872"
     inkscape:window-x="0"
     inkscape:window-y="28"
     inkscape:window-maximized="0"
     inkscape:current-layer="layer1" />
  <defs
     id="defs1" />
  <g
     inkscape:label="Layer 1"
     inkscape:groupmode="layer"
     id="layer1"
     transform="translate(-1940.6209,-498.60125)">
    <path
       d="m 1945.5971,523.21911 c -0.01,-0.0175 -0.051,-0.80328 -0.095,-1.74625 l -0.08,-1.7145 -1.9265,0.0481 -1.9265,0.0481 -0.068,-0.5561 c -0.038,-0.30583 -0.2168,-4.21367 -0.3982,-8.68407 -0.1814,-4.4704 -0.3641,-8.8281 -0.406,-9.68376 l -0.076,-1.55575 h 0.4369 c 0.2403,0 4.4068,-0.17407 9.2589,-0.38681 l 8.8219,-0.38682 0.4628,0.51505 c 0.2546,0.28327 0.7888,0.91345 1.1872,1.4004 l 0.7244,0.88536 0.1829,4.09816 c 0.1006,2.25399 0.1664,4.44107 0.1463,4.86017 -0.02,0.4191 -0.1288,-1.39383 -0.2415,-4.02871 l -0.205,-4.79072 -0.7292,-0.89131 c -0.4011,-0.49022 -0.9375,-1.12115 -1.1921,-1.40207 l -0.4628,-0.51077 -9.0805,0.39636 c -4.9943,0.21799 -9.0991,0.41352 -9.1219,0.4345 -0.055,0.0506 0.7327,18.88836 0.8196,19.6031 l 0.068,0.55539 1.9266,-0.0474 1.9266,-0.0474 0.063,1.54572 c 0.035,0.85016 0.1,1.5816 0.1438,1.62541 0.044,0.0438 0.8316,-0.77308 1.75,-1.81541 l 1.6698,-1.8951 0.9804,-0.0756 c 0.5393,-0.0416 3.4592,-0.17497 6.4887,-0.29641 l 5.5082,-0.22077 -0.076,-1.14843 c -0.042,-0.63161 -0.1016,-2.29139 -0.1328,-3.68839 -0.055,-2.45269 -0.053,-2.47452 0.048,-0.635 0.057,1.04775 0.1425,2.73624 0.189,3.75221 l 0.085,1.84722 -5.501,0.22047 c -3.0255,0.12126 -5.9423,0.25453 -6.4818,0.29615 l -0.9808,0.0756 -1.7497,2.00705 c -1.5361,1.76209 -1.8925,2.12545 -1.9551,1.993 z m 2.3142,-6.30738 c -0.2325,-0.14724 -0.1003,-1.90897 0.2468,-3.28933 0.3234,-1.28592 1.2192,-3.07612 2.0135,-4.02404 1.2355,-1.47434 1.519,-2.13987 1.531,-3.59406 0.01,-0.82691 0.2554,-1.33732 0.7515,-1.54281 0.8348,-0.34578 1.1964,0.19813 0.397,0.59705 l -0.4445,0.22181 -0.091,1.17759 c -0.1127,1.4664 -0.3215,1.9473 -1.4634,3.37047 -1.4153,1.76401 -2.1499,3.52759 -2.3773,5.7072 l -0.089,0.85725 h 0.5181 c 0.4615,0 0.5181,-0.0331 0.5181,-0.3033 0,-0.54419 0.6393,-2.52521 1.0943,-3.39119 1.417,-2.69642 4.2617,-4.64468 7.8325,-5.36411 0.7649,-0.15412 0.7899,-0.17176 0.8299,-0.58502 l 0.041,-0.42613 -0.9401,0.0852 c -1.2423,0.11258 -3.0547,0.60651 -4.2473,1.15753 -1.0524,0.48625 -1.6419,0.58139 -1.5125,0.24413 0.042,-0.11049 0.077,-0.22397 0.077,-0.25218 0,-0.0994 1.4703,-0.78483 2.2718,-1.0591 1.7293,-0.59176 4.4754,-1.02385 4.7992,-0.75513 0.2218,0.18404 0.2283,1.67816 0.01,1.86088 -0.088,0.073 -0.5594,0.22416 -1.0477,0.33599 -2.6779,0.61323 -4.4061,1.4863 -5.913,2.98718 -1.4842,1.47833 -2.2341,2.94658 -2.6584,5.20467 -0.072,0.38058 -0.2007,0.73686 -0.2872,0.79182 -0.2145,0.13618 -1.6389,0.12671 -1.8586,-0.0124 z m -2.1367,-5.06881 c -0.2948,-0.11977 -0.6033,-0.28503 -0.6855,-0.36727 -0.2336,-0.23362 0.1053,-1.58152 0.6956,-2.76629 0.5258,-1.05543 1.3825,-2.0061 3.6691,-4.07178 0.9134,-0.82514 0.9843,-0.92542 0.9838,-1.39318 -10e-4,-1.12631 -1.0273,-1.86721 -1.9662,-1.41949 -0.9054,0.43177 -1.1289,1.35558 -0.5352,2.21229 0.4236,0.61132 0.4318,0.79865 0.035,0.79865 -0.5943,0 -1.198,-1.2285 -1.0193,-2.07437 0.2305,-1.09065 1.2224,-1.82346 2.3033,-1.70163 0.9476,0.10681 1.8183,0.97793 1.8183,1.81926 v 0.41869 l 0.677,-0.30996 c 1.6969,-0.77684 3.2896,-0.35183 3.5765,0.95435 0.1871,0.85212 -0.5953,2.17594 -1.5684,2.65344 -0.5855,0.28733 -0.8421,0.2278 -1.036,-0.2404 -0.254,-0.61317 0.02,-0.97545 0.4283,-0.56688 0.1047,0.10478 0.2489,0.1905 0.3204,0.1905 0.2355,0 1.0181,-0.90887 1.1645,-1.35247 0.1811,-0.54898 -0.073,-0.99528 -0.7214,-1.26614 -0.976,-0.4078 -2.0348,0.0922 -4.2099,1.98791 -2.5188,2.19535 -3.3592,3.28842 -3.8819,5.04912 l -0.1995,0.67191 0.3205,0.12184 c 0.1762,0.067 0.3611,0.12184 0.4109,0.12184 0.05,0 0.2576,-0.38365 0.4619,-0.85252 0.4166,-0.95633 1.3343,-2.00091 1.8768,-2.13616 0.6033,-0.15045 1.3984,0.60774 1.1945,1.13908 -0.116,0.30229 -0.4531,0.23715 -0.6153,-0.1189 -0.08,-0.17463 -0.2432,-0.3175 -0.3635,-0.3175 -0.4634,0 -1.5075,1.51754 -1.9442,2.82575 -0.093,0.27813 -0.4891,0.2749 -1.1897,-0.01 z"
       style="fill:#000000;stroke-width:0.264583"
       id="path1" />
  </g>
</svg>
