<?xml version="1.0" encoding="UTF-8" standalone="no"?>
<!-- Created with Inkscape (http://www.inkscape.org/) -->

<svg
   width="20.911177mm"
   height="24.066099mm"
   viewBox="0 0 20.911176 24.066099"
   version="1.1"
   id="svg1"
   inkscape:version="1.4 (e7c3feb1, 2024-10-09)"
   sodipodi:docname="TRI.svg"
   xmlns:inkscape="http://www.inkscape.org/namespaces/inkscape"
   xmlns:sodipodi="http://sodipodi.sourceforge.net/DTD/sodipodi-0.dtd"
   xmlns="http://www.w3.org/2000/svg"
   xmlns:svg="http://www.w3.org/2000/svg">
  <sodipodi:namedview
     id="namedview1"
     pagecolor="#ffffff"
     bordercolor="#000000"
     borderopacity="0.25"
     inkscape:showpageshadow="2"
     inkscape:pageopacity="0.0"
     inkscape:pagecheckerboard="0"
     inkscape:deskcolor="#d1d1d1"
     inkscape:document-units="mm"
     inkscape:zoom="2.9647587"
     inkscape:cx="-31.537137"
     inkscape:cy="58.183487"
     inkscape:window-width="1440"
     inkscape:window-height="872"
     inkscape:window-x="0"
     inkscape:window-y="28"
     inkscape:window-maximized="0"
     inkscape:current-layer="layer1" />
  <defs
     id="defs1" />
  <g
     inkscape:label="Layer 1"
     inkscape:groupmode="layer"
     id="layer1"
     transform="translate(-1967.5093,-471.02685)">
    <path
       d="m 1982.3397,493.11056 -1.8991,-1.98283 -6.4657,-0.0689 -6.4656,-0.0689 0.088,-8.61959 0.088,-8.61958 1.0501,-1.36195 1.0501,-1.36196 9.2913,0.005 c 5.1102,0.003 9.3079,0.0316 9.3283,0.0635 0.02,0.032 0.021,4.64439 0,10.24985 l -0.035,10.19175 h -1.9648 -1.9649 v 1.778 c 0,0.9779 -0.045,1.778 -0.1011,1.778 -0.056,0 -0.9557,-0.89227 -2.0002,-1.98283 z m 3.9442,-1.70017 h 1.9627 l 0.034,-10.06475 c 0.019,-5.53561 0.017,-10.0907 0,-10.12242 -0.02,-0.0317 -4.1607,-0.0603 -9.2013,-0.0635 l -9.1647,-0.006 -1.0495,1.36115 -1.0495,1.36115 -0.088,8.49339 -0.088,8.49339 6.4656,0.0688 6.4656,0.0688 1.8415,1.92349 1.8415,1.92348 0.035,-1.71857 0.035,-1.71857 z m -13.9869,-3.048 c -0.7139,-0.58994 -1.3271,-0.67365 -1.8606,-0.254 -0.4518,0.35542 -0.8844,0.34068 -0.8314,-0.0283 0.061,-0.42197 0.9171,-0.85605 1.6939,-0.8586 0.558,-0.002 0.7139,0.0612 1.2521,0.50591 0.4808,0.39734 0.7208,0.508 1.1014,0.508 0.2677,0 0.5244,-0.0609 0.5704,-0.13539 0.046,-0.0745 0.3151,-0.30306 0.598,-0.508 0.7774,-0.56314 1.4891,-0.52406 2.4594,0.13509 0.4111,0.27923 0.8942,0.50783 1.0737,0.508 0.1829,1.7e-4 0.6255,-0.22294 1.0072,-0.5077 0.5889,-0.43941 0.7696,-0.508 1.3376,-0.508 0.761,0 1.4946,0.4051 1.5605,0.86162 0.053,0.36807 -0.3802,0.38234 -0.8314,0.0274 -0.4698,-0.36952 -1.0842,-0.32754 -1.586,0.10838 -0.5996,0.5208 -0.9037,0.65362 -1.4967,0.65362 -0.5846,0 -0.8733,-0.12422 -1.5212,-0.65449 -0.5846,-0.47848 -1.1296,-0.4782 -1.6811,7.9e-4 -0.6176,0.53643 -0.9047,0.65363 -1.6015,0.65363 -0.5473,0 -0.7098,-0.0663 -1.2443,-0.508 z m 0.3101,-1.20633 c -0.08,-0.17454 -0.3866,-0.45916 -0.6824,-0.63251 -0.6782,-0.39743 -1.1138,-0.91243 -1.3953,-1.6497 -0.3869,-1.01291 -0.056,-2.47617 0.7231,-3.20283 0.3941,-0.36738 1.3533,-0.79535 1.7903,-0.79884 0.2462,-0.002 0.3499,-0.0684 0.3513,-0.22504 0,-0.45979 0.2245,-0.58858 1.1639,-0.67984 1.2751,-0.12386 2.2765,-0.52675 2.994,-1.20453 0.3263,-0.30821 0.6018,-0.56038 0.6122,-0.56038 0.01,0 0.2304,0.16805 0.4889,0.37343 0.8006,0.63625 1.9434,0.87726 3.7733,0.79579 0.5498,-0.0245 0.5926,-0.0515 0.6448,-0.40722 l 0.056,-0.381 h -1.3178 c -0.9086,0 -1.4295,-0.0577 -1.6774,-0.18594 -0.4286,-0.22165 -0.9217,-0.78312 -1.1323,-1.28944 -0.1633,-0.39242 -1.5279,-1.32292 -2.5572,-1.74368 -0.7888,-0.32245 -2.4715,-0.24627 -3.362,0.1522 -0.6572,0.29404 -1.9743,1.22519 -1.9743,1.3957 0,0.0542 0.076,0.2024 0.1686,0.32924 0.159,0.21741 0.2023,0.20493 0.7564,-0.21803 0.7846,-0.59886 1.3588,-0.77605 2.5329,-0.78158 0.7534,-0.004 1.0308,0.0448 1.1943,0.20834 0.2406,0.2406 0.2584,0.20472 -0.7022,1.41542 -0.2687,0.33866 -0.5622,0.83872 -0.6521,1.11125 -0.1282,0.38826 -0.2279,0.49552 -0.4607,0.49552 -0.1989,0 -0.2968,-0.0736 -0.296,-0.22225 0,-0.31825 0.5627,-1.47953 0.9771,-2.02275 l 0.353,-0.46285 -0.687,0.0911 c -0.9167,0.12161 -1.4765,0.37004 -2.1908,0.9724 -0.327,0.27573 -0.6229,0.50132 -0.6575,0.50132 -0.187,0 -1.0955,-1.12047 -1.0966,-1.3525 0,-0.36767 1.2104,-1.46244 2.0693,-1.86877 1.0299,-0.48723 1.7565,-0.62504 2.9855,-0.56629 1.1803,0.0564 1.0428,0.003 3.3312,1.28944 0.5454,0.30656 1.0216,0.22338 1.4659,-0.25606 0.6031,-0.65073 0.2484,-1.79524 -0.6242,-2.01425 -0.4356,-0.10932 -1.1246,0.24095 -1.4038,0.7136 -0.2952,0.49963 -0.6609,0.45403 -0.6229,-0.0777 0.035,-0.49073 0.7536,-1.15774 1.3721,-1.27377 0.63,-0.11818 1.3262,0.11078 1.7813,0.58576 0.3416,0.35656 0.3757,0.47121 0.3757,1.2626 0,0.75203 -0.043,0.91723 -0.3175,1.21453 -0.1746,0.18925 -0.5032,0.42322 -0.7303,0.51994 -0.4766,0.20305 -0.4737,0.19406 -0.2201,0.68458 0.3129,0.60507 0.77,0.75784 2.2672,0.75784 1.5547,0 1.7312,0.0478 1.7312,0.46867 0,0.41204 0.3044,0.31931 0.3557,-0.10833 0.059,-0.48903 -0.2045,-0.60103 -1.5056,-0.64099 -0.9653,-0.0297 -1.1996,-0.0741 -1.1996,-0.22735 0,-0.1558 0.2579,-0.19702 1.4163,-0.22629 1.4018,-0.0354 1.4192,-0.0323 1.6828,0.30288 0.1465,0.18626 0.2664,0.52328 0.2664,0.74891 0,0.50952 -0.43,1.0795 -0.8143,1.0795 -0.1839,0 -0.3402,0.11475 -0.4326,0.3175 -0.124,0.2721 -0.2287,0.3175 -0.7325,0.3175 -0.4855,0 -0.5743,0.0352 -0.5101,0.2023 0.043,0.11126 0.1101,0.33193 0.1499,0.49038 0.068,0.27209 0.1201,0.28465 0.934,0.22642 1.063,-0.0761 1.6544,0.10545 2.3311,0.71548 0.6693,0.60344 0.9732,1.29152 0.9767,2.21125 0,0.83251 -0.1839,1.36693 -0.6877,1.96442 l -0.3481,0.41275 h 0.6308 c 0.6338,0 1.0245,0.22937 0.8557,0.50244 -0.054,0.0879 -1.5492,0.13256 -4.4385,0.13256 h -4.3566 l -0.1536,-0.9525 -0.1537,-0.9525 h -1.005 -1.0051 l -0.1763,0.42199 c -0.2899,0.69392 -0.9839,1.37332 -1.7944,1.75677 -0.9534,0.45103 -1.2946,0.46112 -1.4847,0.0439 z m 1.674,-0.91517 c 0.8969,-0.58129 1.397,-1.84894 1.397,-3.54113 0,-1.13173 0.1409,-1.29905 0.8462,-1.00447 1.1484,0.47975 2.0427,1.96826 2.3087,3.84305 0.081,0.57141 0.107,0.60362 0.5169,0.64282 l 0.4316,0.0413 -0.08,-1.12932 c -0.044,-0.62113 -0.2009,-1.52043 -0.3486,-1.99844 -0.23,-0.7447 -0.3853,-0.98545 -1.0852,-1.68191 -0.4493,-0.44704 -0.7837,-0.86648 -0.7431,-0.93208 0.041,-0.0666 1.0064,-0.11928 2.1871,-0.11928 2.2878,0 2.6344,-0.15563 0.8499,-0.38166 -0.5937,-0.0752 -1.2804,-0.26024 -1.6666,-0.44906 l -0.6567,-0.32116 -0.5498,0.38544 c -0.7255,0.5087 -1.8841,0.90739 -2.8765,0.98991 l -0.8028,0.0668 0.089,1.99133 c 0.1019,2.2738 0,2.70654 -0.7831,3.1878 -0.493,0.3047 -0.4754,0.26333 -0.2882,0.67422 0.1282,0.28129 0.1772,0.29864 0.4763,0.16876 0.1834,-0.0796 0.5334,-0.2744 0.7779,-0.43284 z m 7.206,-0.38675 c -0.4843,-0.50566 -0.7294,-1.18996 -0.7262,-2.02792 0,-0.86395 0.2958,-1.584 0.8707,-2.1431 0.2671,-0.25979 0.3765,-0.46404 0.3231,-0.60325 -0.069,-0.17971 -0.3025,-0.21048 -1.5972,-0.21048 h -1.5164 l 0.3876,0.48225 c 0.6561,0.81645 1.139,2.607 1.1459,4.2485 v 0.60325 h 0.7223 0.7222 z m 3.6706,-0.10773 c 0.909,-0.73572 1.2417,-2.00942 0.7654,-2.93043 -0.288,-0.55684 -1.019,-1.15272 -1.6092,-1.31165 -0.5756,-0.15499 -1.3968,-0.0499 -1.3968,0.17879 0,0.0828 0.2572,0.56758 0.5715,1.0774 0.5891,0.95552 0.7123,1.41087 0.3818,1.41087 -0.2137,0 -0.7418,-0.6838 -1.2107,-1.56767 -0.1725,-0.32523 -0.3515,-0.59133 -0.3978,-0.59133 -0.046,0 -0.2307,0.17405 -0.4097,0.38678 -0.7682,0.91292 -0.6806,2.31314 0.1956,3.12903 0.5778,0.53807 1.015,0.69037 1.8488,0.64407 0.6507,-0.0361 0.8718,-0.11081 1.2611,-0.42586 z m -13.0356,-0.0412 c 0,-0.0644 0.1991,-0.18287 0.4425,-0.26319 0.6957,-0.2296 0.9545,-0.6598 0.9545,-1.58666 0,-0.43435 -0.037,-1.14102 -0.082,-1.57037 -0.075,-0.71738 -0.1064,-0.78063 -0.3873,-0.78063 -0.3372,0 -0.9885,0.29745 -1.3544,0.61857 -0.6669,0.58534 -0.9173,1.91805 -0.5114,2.72149 0.3423,0.67729 0.9377,1.22392 0.9377,0.86079 z m 5.6486,-1.5656 c -0.1819,-0.62292 -1.2269,-1.91967 -1.3888,-1.7233 -0.018,0.0223 -0.069,0.48346 -0.113,1.0248 l -0.08,0.98425 h 0.8325 c 0.8033,0 0.8295,-0.01 0.7489,-0.28575 z"
       style="fill:#000000;stroke-width:0.264583"
       id="path1" />
  </g>
</svg>
