<?xml version="1.0" encoding="UTF-8" standalone="no"?>
<!-- Created with Inkscape (http://www.inkscape.org/) -->

<svg
   width="21.822306mm"
   height="24.167048mm"
   viewBox="0 0 21.822305 24.167048"
   version="1.1"
   id="svg1"
   inkscape:version="1.4 (e7c3feb1, 2024-10-09)"
   sodipodi:docname="TTE.svg"
   xmlns:inkscape="http://www.inkscape.org/namespaces/inkscape"
   xmlns:sodipodi="http://sodipodi.sourceforge.net/DTD/sodipodi-0.dtd"
   xmlns="http://www.w3.org/2000/svg"
   xmlns:svg="http://www.w3.org/2000/svg">
  <sodipodi:namedview
     id="namedview1"
     pagecolor="#ffffff"
     bordercolor="#000000"
     borderopacity="0.25"
     inkscape:showpageshadow="2"
     inkscape:pageopacity="0.0"
     inkscape:pagecheckerboard="0"
     inkscape:deskcolor="#d1d1d1"
     inkscape:document-units="mm"
     inkscape:zoom="2.9647587"
     inkscape:cx="25.128521"
     inkscape:cy="8.9383329"
     inkscape:window-width="1440"
     inkscape:window-height="872"
     inkscape:window-x="0"
     inkscape:window-y="28"
     inkscape:window-maximized="0"
     inkscape:current-layer="layer1" />
  <defs
     id="defs1" />
  <g
     inkscape:label="Layer 1"
     inkscape:groupmode="layer"
     id="layer1"
     transform="translate(-1952.5772,-484.02684)">
    <path
       d="m 1968.6166,506.33854 -2.0268,-1.85539 -0.9525,0.0717 c -3.6496,0.27486 -11.8192,0.75217 -11.8774,0.69394 -0.039,-0.0391 -0.3212,-3.89304 -0.6269,-8.56426 l -0.5558,-8.49315 0.962,-1.50388 c 0.5291,-0.82713 1.0244,-1.52559 1.1008,-1.55214 0.3924,-0.13642 18.278,-1.20762 18.3845,-1.10108 0.1208,0.12079 1.4751,20.16924 1.3691,20.26742 -0.031,0.029 -0.8696,0.10529 -1.863,0.16965 -0.9934,0.0644 -1.8425,0.15336 -1.8869,0.19776 -0.044,0.0444 -0.032,0.85565 0.028,1.80276 0.06,0.94711 0.078,1.72202 0.04,1.72202 -0.038,-1e-5 -0.9808,-0.83493 -2.0955,-1.85539 z m 1.9062,-0.16311 -0.091,-1.63749 0.3648,-0.0704 c 0.2006,-0.0387 1.0649,-0.10826 1.9205,-0.15454 l 1.5558,-0.0842 v -0.34873 c 0,-0.69812 -1.2683,-19.72986 -1.3182,-19.77971 -0.058,-0.0577 -17.9714,1.08683 -18.1881,1.16207 -0.076,0.0265 -0.5693,0.72493 -1.0954,1.55206 l -0.9566,1.50388 0.5499,8.36565 c 0.3024,4.6011 0.5792,8.39498 0.615,8.43083 0.036,0.0359 2.8531,-0.11522 6.2606,-0.33575 3.4074,-0.22052 6.287,-0.39967 6.3991,-0.39809 0.1121,0.002 1.046,0.77439 2.0752,1.71736 1.0292,0.94298 1.9,1.7145 1.9349,1.7145 0.035,0 0.023,-0.73687 -0.027,-1.63749 z m -0.2545,-4.01061 c -1.408,-0.44505 -2.6351,-1.42643 -3.0706,-2.45582 -0.1091,-0.25772 -0.2348,-0.92578 -0.2794,-1.48458 l -0.081,-1.016 -1.0126,1.01623 c -1.1044,1.10821 -1.6538,1.99711 -1.9625,3.17477 l -0.1997,0.762 h -0.9493 -0.9492 l -0.038,-0.65226 c -0.05,-0.85677 0.2663,-2.18363 0.7582,-3.18271 0.6614,-1.34347 2.5702,-3.21353 3.2802,-3.21353 0.4867,0 0.232,0.44254 -0.635,1.10312 -1.4785,1.12642 -2.5424,2.95079 -2.7518,4.71849 l -0.078,0.65539 h 0.446 c 0.4168,0 0.451,-0.0311 0.5238,-0.47625 0.1209,-0.73901 0.74,-1.92611 1.4488,-2.77782 0.7017,-0.84311 2.2456,-2.07675 2.6015,-2.07871 0.256,-10e-4 0.2562,-4e-5 0.2252,1.28067 -0.029,1.1774 0.1327,1.81851 0.6299,2.50493 0.6118,0.8445 2.8099,1.92898 3.0723,1.51573 0.2074,-0.32654 0.084,-0.47349 -0.7182,-0.85641 -1.5177,-0.72431 -1.9157,-1.80413 -1.3506,-3.66441 0.4322,-1.42292 0.3585,-1.79773 -0.3532,-1.79773 -0.6444,0 -1.8646,-0.33044 -2.5656,-0.69475 l -0.5839,-0.30352 -0.7988,0.806 c -0.4394,0.4433 -1.0624,0.94861 -1.3846,1.12291 -0.8973,0.48553 -2.7238,0.93275 -3.0252,0.74075 -0.1496,-0.0953 -0.4517,-1.38706 -0.3593,-1.53656 0.033,-0.0539 0.4011,-0.22212 0.8173,-0.37389 1.2668,-0.46189 1.9182,-0.98246 2.4027,-1.91994 l 0.4266,-0.8255 -1.085,-0.0843 c -0.5968,-0.0463 -1.1382,-0.11715 -1.2033,-0.15735 -0.065,-0.0402 -0.194,0.0182 -0.2866,0.12976 -0.1424,0.17165 -0.1315,0.22978 0.071,0.37799 0.1317,0.0963 0.4439,0.2089 0.6937,0.25015 0.7008,0.11574 0.7717,0.15545 0.7717,0.43224 0,0.20964 -0.082,0.25798 -0.4397,0.25798 -0.5495,0 -1.8,-0.45804 -1.8898,-0.69223 -0.048,-0.12569 -0.2124,-0.15531 -0.5843,-0.10542 -1.6615,0.22284 -2.9775,-1.58562 -1.922,-2.64112 0.3138,-0.31375 0.4721,-0.37123 1.0223,-0.37123 0.3581,0 0.8129,0.0837 1.0107,0.18594 0.4506,0.23305 1.0248,0.90471 1.0248,1.19885 0,0.17286 0.1798,0.25544 0.8084,0.37126 1.1364,0.20939 2.1126,0.19672 2.1126,-0.0274 0,-0.0983 -0.1827,-0.21089 -0.4128,-0.25437 -1.5416,-0.29136 -2.2361,-2.10199 -1.2846,-3.34945 0.6213,-0.81458 1.9083,-1.05231 2.7233,-0.50305 0.8464,0.57035 1.3071,1.73548 0.7296,1.84492 -0.1476,0.028 -0.2903,-0.1345 -0.4651,-0.52964 -0.4461,-1.00851 -1.449,-1.26807 -2.2346,-0.57835 -0.7933,0.69658 -0.6942,1.72395 0.2201,2.28144 0.5626,0.34302 0.8147,0.31526 1.7774,-0.19564 0.948,-0.50307 1.1932,-0.53347 1.8485,-0.22915 1.4716,0.68343 3.5608,4.03915 2.5147,4.03915 -0.1624,0 -0.3034,-0.18016 -0.4564,-0.58324 -0.2948,-0.77661 -0.8665,-1.58952 -1.5811,-2.24824 -0.9316,-0.85873 -1.0702,-0.88758 -1.9473,-0.40539 l -0.7507,0.41272 -0.1505,0.8775 c -0.3277,1.9109 -1.3316,3.01906 -3.3563,3.7049 -0.1222,0.0414 -0.2222,0.19914 -0.2222,0.35053 0,0.25512 0.044,0.26923 0.6003,0.19296 1.0839,-0.14856 2.1554,-0.75947 3.1551,-1.79879 0.5012,-0.5211 0.985,-0.94745 1.0751,-0.94745 0.09,0 0.4265,0.1686 0.7476,0.37467 0.6793,0.4359 1.8423,0.76833 2.688,0.76833 0.3777,0 0.6514,0.0707 0.7544,0.19472 0.291,0.35058 0.2953,1.34405 0.01,2.35985 -0.3999,1.42531 -0.3653,1.82292 0.2086,2.39555 0.2953,0.29472 0.7827,0.58676 1.283,0.76885 0.7879,0.28669 0.8053,0.30298 0.7423,0.69174 -0.036,0.21898 -0.1528,0.60922 -0.2606,0.86722 -0.172,0.41166 -0.2473,0.46753 -0.6153,0.45652 -0.2305,-0.007 -0.6498,-0.0854 -0.9317,-0.17455 z m -10.3907,-11.55728 c -0.035,-0.0924 -0.2669,-0.23485 -0.5143,-0.31649 -1.1476,-0.37874 -1.7183,0.88876 -0.6835,1.51805 l 0.4017,0.24429 0.4303,-0.63889 c 0.2366,-0.3514 0.4012,-0.71452 0.3658,-0.80696 z m 0.4922,0.93995 c 0.1343,-0.42313 0.016,-0.38737 -0.2966,0.0899 -0.2694,0.411 -0.2722,0.43345 -0.039,0.30854 0.1384,-0.0741 0.2894,-0.25338 0.3354,-0.39841 z m -2.4,10.48278 c -0.044,-0.11392 -0.08,-1.4026 -0.08,-2.86374 v -2.65661 h -1.2788 c -1.2536,0 -1.2781,-0.006 -1.2383,-0.28575 0.04,-0.2839 0.055,-0.28575 2.2631,-0.28575 2.2081,0 2.2228,0.002 2.2631,0.28575 0.038,0.26689 -0.01,0.28575 -0.6643,0.28575 h -0.7049 l -0.034,2.82409 c -0.03,2.48831 -0.059,2.8288 -0.2405,2.86373 -0.1134,0.0218 -0.242,-0.0536 -0.2857,-0.16747 z m -0.7583,-7.1496 c -0.1156,-0.12774 -0.2102,-0.40463 -0.2102,-0.61531 0,-0.53634 0.3654,-0.82994 0.9709,-0.7801 1.1091,0.0913 0.9819,1.62766 -0.1348,1.62766 -0.2415,0 -0.5038,-0.0973 -0.6259,-0.23225 z m 0.8975,-0.41822 c 0.1951,-0.19511 0.059,-0.49253 -0.2248,-0.49253 -0.28,0 -0.4236,0.19804 -0.3266,0.45058 0.084,0.21979 0.3531,0.24023 0.5514,0.0419 z"
       style="fill:#000000;stroke-width:0.264583"
       id="path1" />
  </g>
</svg>
