<?xml version="1.0" encoding="UTF-8" standalone="no"?>
<!-- Created with Inkscape (http://www.inkscape.org/) -->

<svg
   width="21.842443mm"
   height="24.217951mm"
   viewBox="0 0 21.842444 24.21795"
   version="1.1"
   id="svg1"
   inkscape:version="1.4 (e7c3feb1, 2024-10-09)"
   sodipodi:docname="VBV.svg"
   xmlns:inkscape="http://www.inkscape.org/namespaces/inkscape"
   xmlns:sodipodi="http://sodipodi.sourceforge.net/DTD/sodipodi-0.dtd"
   xmlns="http://www.w3.org/2000/svg"
   xmlns:svg="http://www.w3.org/2000/svg">
  <sodipodi:namedview
     id="namedview1"
     pagecolor="#ffffff"
     bordercolor="#000000"
     borderopacity="0.25"
     inkscape:showpageshadow="2"
     inkscape:pageopacity="0.0"
     inkscape:pagecheckerboard="0"
     inkscape:deskcolor="#d1d1d1"
     inkscape:document-units="mm"
     inkscape:zoom="4.2436444"
     inkscape:cx="8.3654511"
     inkscape:cy="42.769842"
     inkscape:window-width="1440"
     inkscape:window-height="872"
     inkscape:window-x="0"
     inkscape:window-y="28"
     inkscape:window-maximized="0"
     inkscape:current-layer="layer1" />
  <defs
     id="defs1" />
  <g
     inkscape:label="Layer 1"
     inkscape:groupmode="layer"
     id="layer1"
     transform="translate(-120.93558,-142.69884)">
    <path
       d="m 124.53831,166.56739 c 0.0368,-0.19209 0.10441,-0.98636 0.15013,-1.76505 l 0.0832,-1.41579 -0.36227,-0.0698 c -0.19926,-0.0384 -1.06238,-0.1077 -1.91804,-0.15399 l -1.55575,-0.0841 0.003,-0.52572 c 0.007,-1.03587 1.36271,-19.77784 1.43589,-19.851 0.0681,-0.0681 16.26584,1.00601 17.8389,1.18291 l 0.67286,0.0757 0.94639,1.45146 c 0.79803,1.22394 0.94622,1.53508 0.9454,1.98486 -0.003,0.81976 -1.13096,16.63017 -1.19239,16.6916 -0.047,0.047 -9.98043,-0.60942 -12.07813,-0.79808 l -0.762,-0.0685 -2.02967,1.84745 c -1.11633,1.0161 -2.07814,1.84745 -2.13736,1.84745 -0.0592,0 -0.0775,-0.15717 -0.0407,-0.34925 z m 2.04873,-1.61046 c 0.76835,-0.69638 1.54619,-1.40065 1.72857,-1.56505 l 0.33158,-0.29891 6.38693,0.45324 c 3.51282,0.24929 6.40829,0.43188 6.43441,0.40577 0.0262,-0.0261 0.31215,-3.84173 0.63566,-8.47916 l 0.58817,-8.43168 -0.96785,-1.47925 -0.96787,-1.47925 -0.7348,-0.077 c -1.71853,-0.18004 -17.46602,-1.23064 -17.52733,-1.16934 -0.0619,0.0619 -1.42028,18.81193 -1.4284,19.71653 l -0.004,0.39872 1.55575,0.0841 c 0.85567,0.0463 1.71897,0.11562 1.91844,0.15408 l 0.3627,0.0699 -0.0927,1.66659 c -0.10827,1.94653 -0.32938,1.94272 1.78032,0.0306 z m 0.52914,-4.31751 c -0.083,-0.21621 0.22913,-0.51032 0.4178,-0.39372 0.0729,0.0451 0.13256,0.19286 0.13256,0.32843 0,0.29105 -0.44355,0.34367 -0.55036,0.0653 z m 4.2796,-0.008 c -0.044,-0.11463 -0.019,-0.26932 0.0554,-0.34375 0.19349,-0.19349 0.56012,-0.0166 0.50958,0.24581 -0.0563,0.29234 -0.46326,0.3629 -0.56494,0.0979 z m 5.29588,0.009 c -0.19714,-0.23755 -0.0721,-0.4543 0.2622,-0.4543 0.18987,0 0.24493,0.0707 0.21476,0.27581 -0.0507,0.34464 -0.27072,0.42698 -0.47696,0.17849 z m -10.67612,-0.3908 c 0,-0.23283 0.0677,-0.3175 0.254,-0.3175 0.18626,0 0.254,0.0847 0.254,0.3175 0,0.23284 -0.0677,0.3175 -0.254,0.3175 -0.18627,0 -0.254,-0.0847 -0.254,-0.3175 z m 6.49859,0.0419 c 0.0542,-0.38235 0.54991,-0.42014 0.54991,-0.0419 0,0.16934 -0.0986,0.26798 -0.29591,0.29592 -0.24625,0.0349 -0.28888,-0.008 -0.254,-0.254 z m 3.11372,0.19356 c -0.19563,-0.19564 -0.0822,-0.55298 0.17552,-0.55298 0.19754,0 0.25276,0.0685 0.22225,0.27581 -0.0421,0.28642 -0.24627,0.42867 -0.39777,0.27717 z m -12.53331,-0.36248 c 0,-0.22685 0.0686,-0.3175 0.2404,-0.3175 0.25625,0 0.39277,0.21545 0.30181,0.47625 -0.0305,0.0873 -0.16492,0.15875 -0.2988,0.15875 -0.17497,0 -0.24341,-0.0893 -0.24341,-0.3175 z m 5.00485,0.0155 c -0.0409,-0.10659 -0.0411,-0.2477 0,-0.31358 0.0407,-0.0659 -0.0114,-0.15254 -0.11575,-0.19259 -0.27935,-0.1072 -0.2467,-1.59559 0.0615,-2.80044 0.38566,-1.50794 1.37687,-3.12235 1.91701,-3.12235 0.33772,0 0.32367,0.52421 -0.0225,0.83741 -0.6796,0.61503 -1.33842,2.24897 -1.46772,3.6401 l -0.0812,0.87409 0.48599,-0.0405 c 0.48186,-0.0402 0.48742,-0.0469 0.65641,-0.79411 0.30405,-1.34449 0.95649,-2.49945 1.90071,-3.36466 0.76229,-0.69849 1.34625,-1.03436 1.51135,-0.86926 0.0327,0.0327 0.14645,0.39321 0.25268,0.80105 0.6558,2.51784 1.93704,3.77247 4.18806,4.10111 0.59352,0.0866 0.63955,0.073 0.767,-0.22681 0.13259,-0.31185 0.11549,-0.32537 -0.762,-0.60294 -1.71886,-0.54372 -2.31325,-1.37124 -2.45959,-3.42418 l -0.089,-1.24875 -1.2065,-0.0635 c -0.90199,-0.0475 -1.31868,-0.12911 -1.651,-0.32346 -0.43143,-0.25231 -0.4613,-0.25348 -1.016,-0.0398 -1.28407,0.4947 -4.6768,1.08304 -5.18289,0.89879 -0.0915,-0.0333 -0.25165,-0.27368 -0.35587,-0.53414 -0.10422,-0.26047 -0.33133,-0.54949 -0.50469,-0.64227 -0.49429,-0.26454 -0.81465,-0.89313 -0.8137,-1.59662 0.003,-1.05324 0.73488,-1.8241 1.73715,-1.82568 0.68463,-10e-4 1.11575,0.16752 1.50651,0.58914 0.30091,0.32468 0.33584,0.33195 0.85238,0.17737 0.55653,-0.16654 1.99911,-0.85499 1.99911,-0.95403 0,-0.0308 -0.13798,-0.25936 -0.30662,-0.50787 -0.47932,-0.70631 -0.53647,-1.35679 -0.1814,-2.06464 0.37142,-0.74041 0.8033,-1.06028 1.54432,-1.14381 0.68352,-0.077 1.59586,0.30209 1.92098,0.79829 0.30337,0.463 0.38751,1.02145 0.16669,1.10619 -0.24003,0.0921 -0.38542,-0.0213 -0.57222,-0.44652 -0.17835,-0.40597 -0.85174,-0.85579 -1.28214,-0.85648 -0.45651,-7.9e-4 -1.00909,0.38564 -1.23627,0.86438 -0.1774,0.37385 -0.1819,0.49157 -0.0337,0.88094 0.0941,0.24718 0.32853,0.56701 0.52101,0.71072 0.55819,0.41675 1.07858,0.33574 2.15572,-0.33561 1.32824,-0.82785 2.04166,-0.76144 2.45531,0.22857 0.40944,0.97997 0.32644,3.27585 -0.13515,3.73743 -0.36978,0.36978 -0.47556,-5.3e-4 -0.31022,-1.08581 0.18023,-1.18322 0.0127,-2.28872 -0.4041,-2.66588 -0.28784,-0.26049 -0.2191,-0.28548 -1.59491,0.58004 -0.43474,0.2735 -0.84995,0.42616 -1.22301,0.44964 -0.33864,0.0213 -0.8115,0.18012 -1.18084,0.39656 -0.33882,0.19855 -1.07434,0.54536 -1.63449,0.77067 -0.75644,0.30428 -1.02891,0.47645 -1.05904,0.66927 -0.0519,0.3318 -0.023,0.32944 1.25502,-0.10274 1.35845,-0.45935 2.85658,-1.15021 3.59312,-1.65697 0.69821,-0.48037 0.97094,-0.50435 0.97094,-0.0854 0,0.2408 -0.16724,0.4099 -0.76374,0.77226 -0.98986,0.60131 -2.73254,1.35418 -4.14645,1.79134 -0.61727,0.19085 -1.29852,0.47952 -1.51392,0.64149 -0.21537,0.16198 -0.57163,0.33051 -0.79168,0.37451 -0.2227,0.0446 -0.36492,0.13691 -0.32078,0.20833 0.19534,0.31608 3.22749,-0.2208 4.89344,-0.86644 l 0.59536,-0.23074 0.66075,0.35961 c 0.62397,0.33961 0.72287,0.35559 1.7776,0.28726 0.89572,-0.058 1.14779,-0.0351 1.27291,0.11562 0.0858,0.10339 0.20027,0.75931 0.25435,1.4576 0.12292,1.5869 0.26908,2.03353 0.82515,2.52178 0.50618,0.44443 0.97573,0.66052 1.934,0.89005 0.37208,0.0891 0.70726,0.24216 0.74483,0.34008 0.1016,0.26475 -0.4967,1.55612 -0.76126,1.64306 -0.1778,0.0584 -0.19664,0.11416 -0.0843,0.2495 0.18619,0.22437 0.0517,0.43939 -0.27485,0.43939 -0.20235,0 -0.24709,-0.0704 -0.21476,-0.33817 0.0391,-0.32371 0.003,-0.34582 -0.84352,-0.51736 -2.1309,-0.43179 -3.54054,-1.74073 -4.13924,-3.84347 -0.0895,-0.31433 -0.20061,-0.61619 -0.24694,-0.6708 -0.13451,-0.15857 -1.30035,1.07119 -1.68148,1.77368 -0.1914,0.35282 -0.48247,1.14912 -0.64677,1.76955 l -0.29874,1.12807 -0.62323,0.0635 c -0.51581,0.0525 -0.62323,0.10697 -0.62323,0.31576 0,0.30362 -0.41433,0.41861 -0.51964,0.1442 z m -1.2774,-8.2054 c 0.84425,-0.81486 0.0628,-2.29151 -1.09554,-2.07008 -0.41775,0.0799 -0.9285,0.57244 -1.03547,0.99863 -0.18487,0.73656 0.71451,1.66184 1.45156,1.49337 0.17462,-0.0399 0.48037,-0.22977 0.67945,-0.42192 z m 3.6006,8.17316 c -0.049,-0.049 -0.0891,-0.19781 -0.0891,-0.33072 0,-0.17798 0.0753,-0.23097 0.28575,-0.20109 0.18679,0.0265 0.28575,0.12793 0.28575,0.29285 0,0.25191 -0.31399,0.40743 -0.48245,0.23896 z m 9.35519,-0.10938 c -0.044,-0.11463 -0.019,-0.26931 0.0554,-0.34374 0.19349,-0.1935 0.56012,-0.0166 0.50958,0.2458 -0.0563,0.29234 -0.46326,0.3629 -0.56494,0.0979 z m -12.6616,-0.24556 c -0.083,-0.21621 0.22913,-0.51033 0.4178,-0.39372 0.0729,0.0451 0.13256,0.19285 0.13256,0.32843 0,0.29105 -0.44355,0.34367 -0.55036,0.0653 z m 4.2796,-0.008 c -0.044,-0.11463 -0.019,-0.26932 0.0554,-0.34375 0.19349,-0.1935 0.56012,-0.0166 0.50958,0.24581 -0.0563,0.29234 -0.46326,0.36289 -0.56494,0.0979 z m -7.41224,-0.18386 c 0,-0.34198 0.24024,-0.45668 0.47172,-0.22521 0.23146,0.23146 0.11676,0.47171 -0.22521,0.47171 -0.15936,0 -0.24651,-0.0872 -0.24651,-0.2465 z m 1.05865,0.0475 c -0.042,-0.10947 -0.0156,-0.25993 0.0589,-0.33436 0.19753,-0.19754 0.5334,-0.0241 0.5334,0.27541 0,0.31321 -0.47657,0.36064 -0.59235,0.059 z m 8.46635,-0.0414 c 0,-0.27743 0.26474,-0.41792 0.50628,-0.26866 0.23595,0.14584 0.0588,0.50907 -0.24829,0.50907 -0.16846,0 -0.25799,-0.0834 -0.25799,-0.24041 z m 1.143,0.003 c 0,-0.30965 0.15986,-0.42548 0.43926,-0.31826 0.29382,0.11275 0.18587,0.48441 -0.15481,0.53302 -0.21373,0.0305 -0.28445,-0.0229 -0.28445,-0.21476 z m 4.11585,0.0626 c -0.10279,-0.26787 0.0415,-0.45997 0.34547,-0.45997 0.19188,0 0.24524,0.0707 0.21476,0.28446 -0.0474,0.33197 -0.45159,0.45861 -0.56023,0.17551 z m -12.75185,-0.26947 c 0,-0.23283 0.0677,-0.3175 0.254,-0.3175 0.18626,0 0.254,0.0847 0.254,0.3175 0,0.23284 -0.0677,0.3175 -0.254,0.3175 -0.18627,0 -0.254,-0.0847 -0.254,-0.3175 z m 6.49859,0.0419 c 0.0542,-0.38235 0.54991,-0.42014 0.54991,-0.0419 0,0.16934 -0.0986,0.26798 -0.29591,0.29592 -0.24625,0.0349 -0.28888,-0.008 -0.254,-0.254 z m -9.33493,0.0639 c -0.0466,-0.0466 -0.0847,-0.18945 -0.0847,-0.3175 0,-0.26587 0.45368,-0.32786 0.54221,-0.0741 0.12178,0.34912 -0.21326,0.63587 -0.45755,0.39159 z m 7.24339,-0.24961 c -0.049,-0.049 -0.0891,-0.19781 -0.0891,-0.33073 0,-0.17797 0.0753,-0.23097 0.28575,-0.20108 0.18679,0.0265 0.28575,0.12793 0.28575,0.29284 0,0.25192 -0.31399,0.40744 -0.48245,0.23897 z m 9.35519,-0.10938 c -0.044,-0.11463 -0.019,-0.26932 0.0554,-0.34375 0.19349,-0.1935 0.56012,-0.0166 0.50958,0.24581 -0.0563,0.29234 -0.46326,0.36289 -0.56494,0.0979 z m -15.79424,-0.43786 c 0,-0.34198 0.24024,-0.45668 0.47172,-0.22521 0.23146,0.23146 0.11676,0.47171 -0.22521,0.47171 -0.15936,0 -0.24651,-0.0872 -0.24651,-0.2465 z m 1.05865,0.0475 c -0.042,-0.10947 -0.0156,-0.25993 0.0589,-0.33436 0.19753,-0.19754 0.5334,-0.0241 0.5334,0.27541 0,0.31321 -0.47657,0.36064 -0.59235,0.059 z m 8.46635,-0.0386 c 0,-0.30965 0.15986,-0.42548 0.43926,-0.31826 0.29382,0.11274 0.18587,0.48441 -0.15481,0.53301 -0.21373,0.0305 -0.28445,-0.0229 -0.28445,-0.21475 z"
       style="fill:#000000;stroke-width:0.264583"
       id="path1" />
  </g>
</svg>
