<?xml version="1.0" encoding="UTF-8" standalone="no"?>
<!-- Created with Inkscape (http://www.inkscape.org/) -->

<svg
   width="21.25028mm"
   height="24.278088mm"
   viewBox="0 0 21.250281 24.278087"
   version="1.1"
   id="svg1"
   inkscape:version="1.4 (e7c3feb1, 2024-10-09)"
   sodipodi:docname="WLF.svg"
   xmlns:inkscape="http://www.inkscape.org/namespaces/inkscape"
   xmlns:sodipodi="http://sodipodi.sourceforge.net/DTD/sodipodi-0.dtd"
   xmlns="http://www.w3.org/2000/svg"
   xmlns:svg="http://www.w3.org/2000/svg">
  <sodipodi:namedview
     id="namedview1"
     pagecolor="#ffffff"
     bordercolor="#000000"
     borderopacity="0.25"
     inkscape:showpageshadow="2"
     inkscape:pageopacity="0.0"
     inkscape:pagecheckerboard="0"
     inkscape:deskcolor="#d1d1d1"
     inkscape:document-units="mm"
     inkscape:zoom="4.2436444"
     inkscape:cx="-7.6585116"
     inkscape:cy="19.91213"
     inkscape:window-width="1440"
     inkscape:window-height="872"
     inkscape:window-x="0"
     inkscape:window-y="28"
     inkscape:window-maximized="0"
     inkscape:current-layer="layer1" />
  <defs
     id="defs1" />
  <g
     inkscape:label="Layer 1"
     inkscape:groupmode="layer"
     id="layer1"
     transform="translate(-96.994488,-159.68681)">
    <path
       d="m 112.03817,182.49214 c -0.87313,-0.95543 -1.7018,-1.87631 -1.8415,-2.0464 l -0.254,-0.30926 -6.46414,-0.18173 c -3.555264,-0.0999 -6.472718,-0.19705 -6.483196,-0.21577 -0.01058,-0.0187 0.0793,-3.54875 0.199522,-7.84453 0.120253,-4.29577 0.223044,-8.15389 0.228468,-8.57359 l 0.0098,-0.76308 1.152578,-1.43549 1.152577,-1.43548 1.609671,0.0743 c 0.88532,0.0409 5.03772,0.16252 9.22756,0.2703 4.18983,0.10778 7.63915,0.21723 7.66516,0.24322 0.0259,0.026 -0.0737,4.52275 -0.22148,9.99278 -0.1478,5.47003 -0.26813,10.04552 -0.26739,10.16776 0,0.20217 -0.17658,0.22225 -1.96718,0.22225 h -1.9685 l -0.0151,1.42875 c -0.0257,2.44524 0.0787,2.4212 -1.76297,0.40594 z m 1.64189,-0.56469 0.009,-1.4605 1.96865,0.0407 c 1.83452,0.0379 1.96861,0.0249 1.96758,-0.1905 0,-0.12715 0.11851,-4.65072 0.26471,-10.05237 0.14621,-5.40166 0.2458,-9.84126 0.22128,-9.86578 -0.0246,-0.0245 -3.47266,-0.13253 -7.6625,-0.24001 -4.18983,-0.10749 -8.28675,-0.22706 -9.10423,-0.26572 l -1.48635,-0.0703 -1.129479,1.40671 -1.129454,1.4067 -0.07895,2.05729 c -0.157718,4.11056 -0.386477,14.81756 -0.318029,14.88601 0.03863,0.0386 2.947222,0.15114 6.463502,0.25002 l 6.39326,0.17979 0.38643,0.4472 c 0.21254,0.24596 0.98623,1.10474 1.71934,1.9084 1.0605,1.16255 1.35067,1.41641 1.41983,1.24203 0.0478,-0.12054 0.0908,-0.87639 0.0957,-1.67967 z m -10.74512,-3.63293 c -0.10867,-0.28315 0.3111,-2.16034 0.62132,-2.77856 0.57219,-1.1403 1.63285,-2.13781 2.13384,-2.0068 0.13864,0.0362 0.25207,0.1164 0.25207,0.1781 0,0.11334 -0.0919,0.20963 -0.94012,0.98534 -0.57071,0.52192 -1.03381,1.4053 -1.27204,2.42642 l -0.17833,0.76443 h 0.53515 c 0.52329,0 0.53996,-0.0134 0.75221,-0.60325 0.3071,-0.8535 1.0705,-1.80414 1.72635,-2.14977 0.42442,-0.22367 0.76213,-0.29425 1.397,-0.29196 1.40163,0.005 2.71563,0.6854 4.34819,2.25139 0.79433,0.76195 0.87506,0.80717 1.37456,0.7698 l 0.53065,-0.0397 -0.63087,-0.89689 c -1.09384,-1.5551 -2.32323,-2.4613 -3.83275,-2.82517 -0.31433,-0.0758 -1.15758,-0.2251 -1.87392,-0.33185 -1.64427,-0.24505 -2.40979,-0.57333 -3.1284,-1.34157 -0.78917,-0.8437 -0.96668,-1.51748 -0.96668,-3.66948 v -1.71637 l -0.4431,0.42946 c -0.37764,0.36605 -0.55113,0.43705 -1.17475,0.48089 -0.6545,0.046 -0.78679,0.0112 -1.25455,-0.32964 -0.74179,-0.54057 -1.100137,-1.34711 -1.164563,-2.62113 -0.04162,-0.82272 0,-1.16129 0.22008,-1.74163 0.808353,-2.14294 3.086123,-2.31603 4.021963,-0.30563 0.16512,0.35475 0.33549,0.90679 0.37859,1.22673 l 0.0783,0.58173 2.62173,0.47654 c 1.44198,0.2621 2.70155,0.4861 2.79908,0.49777 0.0975,0.0117 0.23458,-0.15021 0.30459,-0.35976 0.6581,-1.97023 2.67263,-2.46395 3.80108,-0.93156 0.5111,0.69404 0.67001,1.24644 0.6699,2.32856 -8e-5,0.83155 -0.0607,1.14528 -0.3339,1.72809 -0.70806,1.51045 -2.13022,1.94397 -3.22472,0.98299 l -0.44177,-0.38789 v 0.93391 c 0,0.51364 -0.0377,1.40822 -0.0828,1.98795 -0.0756,0.97113 -0.10266,1.05106 -0.34427,1.016 -0.25691,-0.0373 -0.26234,-0.1031 -0.26644,-3.234 -0.003,-1.75777 -0.0425,-3.23438 -0.0894,-3.28135 -0.0469,-0.047 -0.27546,-0.12832 -0.508,-0.18077 l -0.42281,-0.0954 v 2.04322 c 0,2.4126 -0.1102,2.73209 -1.11487,3.23216 -0.84709,0.42162 -1.6133,0.30376 -2.26558,-0.34851 -1.25888,-1.2589 -0.37943,-3.31694 1.41746,-3.31694 0.66873,0 1.09127,0.24135 0.97104,0.55465 -0.0666,0.17366 -0.19769,0.19678 -0.75088,0.13247 -0.56378,-0.0655 -0.72414,-0.0352 -1.01024,0.19098 -0.187,0.14788 -0.40505,0.46583 -0.48447,0.70655 -0.19569,0.59289 0.10567,1.23747 0.71331,1.52582 0.81418,0.38636 1.60748,-0.0613 1.8333,-1.03444 0.13153,-0.56673 0.15211,-2.23031 0.0392,-3.16973 l -0.078,-0.6492 -0.90514,-0.15416 c -0.49784,-0.0848 -1.01065,-0.18401 -1.13958,-0.22049 -0.21217,-0.06 -0.23191,0.0104 -0.20765,0.73987 0.0365,1.09621 0.0306,1.12368 -0.23979,1.12368 -0.26014,0 -0.39365,-0.50283 -0.39621,-1.49225 0,-0.34545 -0.0586,-0.54037 -0.16016,-0.54148 -0.0873,-0.001 -0.28733,-0.0362 -0.4445,-0.0783 l -0.28575,-0.0766 0.006,2.52306 c 0.004,1.77332 0.0561,2.66466 0.1756,2.99957 0.45337,1.27036 1.46487,1.9146 3.4657,2.2073 3.3932,0.4964 4.71477,1.28921 6.36519,3.81851 0.9139,1.40054 0.88312,1.48904 -0.53369,1.53557 l -1.12329,0.0369 -1.10143,-1.06179 c -1.78573,-1.72145 -3.37495,-2.34699 -4.63021,-1.82252 -0.57285,0.23937 -1.29887,1.12595 -1.61592,1.97332 -0.14547,0.38882 -0.33168,0.74967 -0.41378,0.80188 -0.0821,0.0522 -0.56539,0.0958 -1.074,0.0969 -0.73311,0.002 -0.94094,-0.0403 -1.00298,-0.20199 z m 10.3659,-9.42503 c 1.27407,-1.33935 0.93175,-4.0258 -0.59592,-4.67661 -0.35357,-0.15063 -0.47527,-0.14971 -0.84884,0.006 -0.83235,0.34778 -1.45045,1.79915 -1.27595,2.9962 0.10707,0.73449 0.61285,1.66741 1.05153,1.93949 0.59899,0.37152 1.14599,0.28453 1.66918,-0.26545 z m -10.70729,-1.62707 c 0.44468,-0.21101 0.97226,-0.95684 1.12982,-1.59719 0.0932,-0.37864 0.1719,-0.33979 -1.24195,-0.61278 -0.57841,-0.11169 -0.73025,-0.19039 -0.73025,-0.37851 0,-0.36201 0.14417,-0.38771 1.12588,-0.20065 0.88117,0.1679 0.90612,0.16559 0.90612,-0.0836 0,-0.56507 -0.33674,-1.32097 -0.79071,-1.77493 -0.62333,-0.62334 -1.1638,-0.65108 -1.80012,-0.0924 -1.260766,1.10696 -1.16258,3.76164 0.17238,4.66133 0.50556,0.34072 0.65637,0.35038 1.22883,0.0787 z"
       style="fill:#000000;stroke-width:0.264583"
       id="path1" />
  </g>
</svg>
