<?xml version="1.0" encoding="UTF-8" standalone="no"?>
<!-- Created with Inkscape (http://www.inkscape.org/) -->

<svg
   width="21.271294mm"
   height="24.558746mm"
   viewBox="0 0 21.271294 24.558747"
   version="1.1"
   id="svg1"
   inkscape:version="1.4 (e7c3feb1, 2024-10-09)"
   sodipodi:docname="WRE.svg"
   xmlns:inkscape="http://www.inkscape.org/namespaces/inkscape"
   xmlns:sodipodi="http://sodipodi.sourceforge.net/DTD/sodipodi-0.dtd"
   xmlns="http://www.w3.org/2000/svg"
   xmlns:svg="http://www.w3.org/2000/svg">
  <sodipodi:namedview
     id="namedview1"
     pagecolor="#ffffff"
     bordercolor="#000000"
     borderopacity="0.25"
     inkscape:showpageshadow="2"
     inkscape:pageopacity="0.0"
     inkscape:pagecheckerboard="0"
     inkscape:deskcolor="#d1d1d1"
     inkscape:document-units="mm"
     inkscape:zoom="2.9647587"
     inkscape:cx="40.306822"
     inkscape:cy="46.378142"
     inkscape:window-width="1440"
     inkscape:window-height="872"
     inkscape:window-x="0"
     inkscape:window-y="28"
     inkscape:window-maximized="0"
     inkscape:current-layer="layer1" />
  <defs
     id="defs1" />
  <g
     inkscape:label="Layer 1"
     inkscape:groupmode="layer"
     id="layer1"
     transform="translate(-1948.5485,-474.14402)">
    <path
       d="m 1953.1829,498.39394 c -0.045,-0.17002 -0.083,-0.99494 -0.084,-1.83317 v -1.52402 l -1.9548,0.045 -1.9548,0.0451 -0.08,-1.69601 c -0.1231,-2.61763 -0.6018,-18.67386 -0.558,-18.7171 0.044,-0.044 16.5001,-0.57168 17.7655,-0.56971 l 0.8357,0.001 1.1099,1.39535 1.1098,1.39534 0.265,8.52269 c 0.2026,6.51817 0.2297,8.54446 0.1153,8.61521 -0.082,0.0509 -2.8487,0.1629 -6.1476,0.24897 -3.2988,0.0861 -6.1499,0.18534 -6.3359,0.22061 -0.2958,0.0561 -1.9852,1.79181 -3.6732,3.77402 l -0.3284,0.38555 z m 2.5748,-2.75079 c 0.8071,-0.89998 1.1431,-1.18603 1.4492,-1.23354 0.2191,-0.034 3.0682,-0.13087 6.3314,-0.21519 3.2631,-0.0843 5.9997,-0.19455 6.0812,-0.24495 0.1125,-0.0696 0.085,-2.1131 -0.1145,-8.48974 l -0.2627,-8.39815 -1.1093,-1.39463 -1.1093,-1.39463 -0.7087,-10e-4 c -1.1094,-0.002 -17.5955,0.5272 -17.6349,0.56612 -0.041,0.0406 0.4372,15.96995 0.5547,18.46999 l 0.08,1.69934 1.9546,-0.0594 1.9546,-0.0594 v 1.60917 c 0,0.88503 0.035,1.64388 0.077,1.68632 0.078,0.0776 0.5155,-0.37523 2.4568,-2.54 z m 1.8356,-2.92614 c -0.076,-0.0513 -0.2612,-0.49853 -0.4104,-0.99393 -0.3052,-1.01325 -1.2392,-2.51947 -2.0346,-3.28105 l -0.5209,-0.49879 0.075,0.63775 c 0.096,0.80809 -0.1961,1.47061 -0.8322,1.88958 -0.5267,0.34687 -1.7514,0.69276 -2.4528,0.69276 -0.4672,0 -0.4953,-0.0262 -0.8875,-0.82143 -0.2228,-0.45177 -0.3703,-0.85619 -0.3278,-0.89871 0.043,-0.0425 0.4877,-0.18285 0.9892,-0.31186 0.5015,-0.12901 0.9485,-0.2712 0.9933,-0.316 0.045,-0.0448 -0.027,-0.26344 -0.1589,-0.48596 -0.8747,-1.47227 -0.9568,-1.67745 -0.9591,-2.39654 0,-0.85085 0.1668,-1.3735 0.4454,-1.3735 0.1099,0 0.3828,0.0948 0.6063,0.21063 0.9998,0.51816 1.8557,0.43926 3.0291,-0.27921 0.3947,-0.2417 0.7465,-0.43942 0.7817,-0.43942 0.035,0 0.2097,0.24857 0.3878,0.55242 0.6179,1.05444 2.6128,2.62258 3.3363,2.62258 0.6585,0 2.414,-1.39584 3.0487,-2.42401 0.2549,-0.41304 0.4896,-0.75099 0.5216,-0.75099 0.032,0 0.381,0.19772 0.7757,0.43942 1.1887,0.72787 1.983,0.7943 3.0873,0.25815 0.6293,-0.30551 0.8335,-0.19431 0.9393,0.51141 0.1275,0.84995 0,1.54276 -0.5217,2.79906 -0.5181,1.25145 -0.5158,1.69785 0.012,2.32479 0.4108,0.48818 0.3946,0.69736 -0.1003,1.29341 -0.4965,0.59801 -0.7773,0.62407 -1.4525,0.13491 -0.7822,-0.5666 -1.1049,-1.35607 -1.1128,-2.72219 l -0.01,-1.12056 -0.4174,0.48556 c -0.5452,0.63418 -1.3524,2.30195 -1.6179,3.34272 -0.1158,0.45387 -0.2767,0.86733 -0.3576,0.91882 -0.2041,0.12986 -1.5061,0.11771 -1.7171,-0.0161 -0.4029,-0.25525 0.2738,-3.19593 1.0951,-4.75877 0.5803,-1.10443 1.5485,-2.19091 1.8494,-2.07545 0.3334,0.12796 0.2546,0.38563 -0.2946,0.9629 -0.8568,0.90072 -1.7927,3.11518 -2.0865,4.93707 -0.064,0.39439 -0.048,0.41275 0.3447,0.41275 0.3875,0 0.4198,-0.0359 0.5587,-0.62079 0.2461,-1.036 0.8979,-2.44782 1.5016,-3.25271 0.8623,-1.14961 1.8222,-1.77453 1.9994,-1.30175 0.033,0.0873 -0.027,0.60307 -0.1329,1.14613 -0.2392,1.22703 -0.086,2.09396 0.4944,2.79807 0.4349,0.52763 0.677,0.58722 0.8759,0.21558 0.1084,-0.20248 0.077,-0.33239 -0.1543,-0.64566 -0.4558,-0.61648 -0.3963,-1.55937 0.1888,-2.99011 0.28,-0.68477 0.4738,-1.37046 0.4738,-1.67627 v -0.51752 l -0.4763,0.20254 c -0.7898,0.33589 -1.9745,0.25392 -2.8491,-0.19717 -0.4062,-0.20952 -0.7386,-0.33118 -0.7386,-0.27038 0,0.0608 -0.3286,0.46615 -0.7303,0.90075 -0.7904,0.85527 -1.7649,1.5431 -2.6072,1.84031 -0.5208,0.18375 -0.5492,0.17867 -1.4227,-0.25427 -0.9718,-0.48164 -2.1824,-1.48619 -2.5944,-2.1528 l -0.2608,-0.42194 -0.7594,0.37637 c -0.8845,0.43842 -2.0358,0.50996 -2.833,0.17606 l -0.4762,-0.19947 v 0.53906 c 0,0.41315 0.133,0.76018 0.5694,1.48577 0.8759,1.45645 0.7603,1.97977 -0.5059,2.28939 -0.3493,0.0854 -0.6515,0.16803 -0.6715,0.18364 -0.02,0.0156 0.034,0.18339 0.1204,0.37291 0.1462,0.32078 0.1955,0.33877 0.715,0.26085 0.7347,-0.11017 1.5522,-0.47051 1.8681,-0.82346 0.3433,-0.38362 0.3264,-1.15028 -0.046,-2.05978 -0.4781,-1.16936 -0.1151,-1.31673 1.0297,-0.41802 0.4015,0.31525 1.0702,1.00118 1.4859,1.52432 0.7091,0.89228 1.5281,2.36011 1.5324,2.7465 0,0.3751 0.1961,0.50486 0.5483,0.37092 0.4272,-0.16242 0.4279,-0.37975 0.01,-1.55625 -0.4192,-1.16692 -1.206,-2.37741 -2.1275,-3.27348 -0.7604,-0.73937 -0.913,-1.14734 -0.4292,-1.14734 0.4649,0 1.9822,1.67855 2.6126,2.89037 0.5534,1.06373 1.0931,2.83725 0.9758,3.2068 -0.036,0.11395 -0.3921,0.34605 -0.7911,0.51575 -0.3989,0.16973 -0.7555,0.32195 -0.7924,0.33827 -0.037,0.0164 -0.1297,-0.0122 -0.2062,-0.0635 z m 1.1864,-6.62675 c -0.7543,-0.47834 -1.3007,-1.41341 -1.4933,-2.55543 l -0.1435,-0.85061 -0.9084,-0.40124 -0.9085,-0.40124 -0.9013,0.44546 c -0.4957,0.245 -1.1632,0.67601 -1.4833,0.95779 -0.634,0.55803 -1.1146,0.6731 -1.1146,0.26683 0,-0.45887 2.0073,-1.85835 3.1072,-2.1663 0.5579,-0.1562 0.6163,-0.14503 1.605,0.3069 1.1287,0.51598 1.5368,0.52304 1.9944,0.0346 0.4396,-0.46933 0.5554,-0.93063 0.3545,-1.41163 -0.3897,-0.93256 -1.3419,-1.11965 -2.0573,-0.40423 -0.2375,0.23749 -0.4318,0.52722 -0.4318,0.64384 0,0.14728 -0.087,0.19959 -0.2858,0.17132 -0.2308,-0.0329 -0.2804,-0.1132 -0.258,-0.41765 0.064,-0.86798 0.9644,-1.50814 2.0132,-1.43104 1.0967,0.0806 1.7056,0.74674 1.7056,1.86588 0,1.02941 -0.5168,1.73777 -1.4288,1.95824 -0.4612,0.11153 -0.4405,0.25649 0.083,0.58002 0.2377,0.14693 0.6407,0.49792 0.8956,0.77997 l 0.4633,0.51284 0.7627,-0.70609 c 0.4195,-0.38839 0.8166,-0.70612 0.8824,-0.70612 0.066,0 0.1198,-0.19857 0.1198,-0.44125 0,-0.35777 -0.069,-0.47704 -0.3659,-0.63045 -0.5728,-0.2962 -1.0067,-0.90117 -1.102,-1.53653 -0.1742,-1.16166 0.7417,-2.21778 1.9234,-2.21778 0.9297,0 1.8504,0.85019 1.8785,1.7348 0.013,0.39967 -0.031,0.49437 -0.2425,0.52465 -0.2095,0.03 -0.2871,-0.0718 -0.4128,-0.54163 -0.1733,-0.64782 -0.7099,-1.08151 -1.3392,-1.08234 -0.4172,-5.3e-4 -1.0468,0.56264 -1.1677,1.04471 -0.1259,0.5016 0.2403,1.2068 0.7538,1.45168 0.4213,0.2009 0.5065,0.20001 1.4486,-0.0152 0.9416,-0.21504 1.0388,-0.21609 1.6365,-0.0176 1.1412,0.37905 2.9583,1.67903 2.9583,2.11639 0,0.40626 -0.4806,0.2912 -1.1146,-0.26684 -0.3201,-0.28178 -0.9893,-0.7136 -1.4871,-0.95961 l -0.905,-0.44731 -0.9136,0.20781 -0.9137,0.2078 v 0.47114 c 0,0.72938 -0.3566,1.93265 -0.7361,2.48354 -0.356,0.51684 -1.3201,1.21597 -1.6769,1.21597 -0.1123,0 -0.4697,-0.16832 -0.7941,-0.37406 z m 1.4123,-0.7108 c 0.4434,-0.37307 0.9727,-1.17653 0.8536,-1.29562 -0.045,-0.0446 -0.3968,0.22985 -0.7827,0.60992 l -0.7016,0.69107 -0.6968,-0.74684 c -0.3833,-0.41077 -0.7274,-0.71634 -0.7646,-0.67906 -0.1247,0.12468 0.442,1.07247 0.8431,1.40992 0.4959,0.41727 0.763,0.41955 1.249,0.0106 z"
       style="fill:#000000;stroke-width:0.264583"
       id="path1" />
  </g>
</svg>
