<?xml version="1.0" encoding="UTF-8" standalone="no"?>
<!-- Created with Inkscape (http://www.inkscape.org/) -->

<svg
   width="22.870409mm"
   height="22.869383mm"
   viewBox="0 0 22.870408 22.869383"
   version="1.1"
   id="svg1"
   inkscape:version="1.4 (e7c3feb1, 2024-10-09)"
   sodipodi:docname="BMF.svg"
   xmlns:inkscape="http://www.inkscape.org/namespaces/inkscape"
   xmlns:sodipodi="http://sodipodi.sourceforge.net/DTD/sodipodi-0.dtd"
   xmlns="http://www.w3.org/2000/svg"
   xmlns:svg="http://www.w3.org/2000/svg">
  <sodipodi:namedview
     id="namedview1"
     pagecolor="#ffffff"
     bordercolor="#000000"
     borderopacity="0.25"
     inkscape:showpageshadow="2"
     inkscape:pageopacity="0.0"
     inkscape:pagecheckerboard="0"
     inkscape:deskcolor="#d1d1d1"
     inkscape:document-units="mm"
     inkscape:zoom="2.7989408"
     inkscape:cx="43.409279"
     inkscape:cy="43.052001"
     inkscape:window-width="1440"
     inkscape:window-height="872"
     inkscape:window-x="0"
     inkscape:window-y="28"
     inkscape:window-maximized="0"
     inkscape:current-layer="layer1" />
  <defs
     id="defs1">
    <clipPath
       clipPathUnits="userSpaceOnUse"
       id="clipPath66">
      <path
         d="m 107.125,266.484 h 64.834 v 64.833 h -64.834 z"
         transform="translate(-170.7181,-300.65661)"
         id="path66" />
    </clipPath>
    <clipPath
       clipPathUnits="userSpaceOnUse"
       id="clipPath68">
      <path
         d="m 107.13,266.484 h 64.83 v 64.827 h -64.83 z"
         transform="translate(-122.74491,-298.74401)"
         id="path68" />
    </clipPath>
    <clipPath
       clipPathUnits="userSpaceOnUse"
       id="clipPath70">
      <path
         d="m 107.13,266.484 h 64.83 v 64.827 h -64.83 z"
         transform="translate(-133.3953,-284.34611)"
         id="path70" />
    </clipPath>
    <clipPath
       clipPathUnits="userSpaceOnUse"
       id="clipPath72">
      <path
         d="m 107.125,266.484 h 64.834 v 64.833 h -64.834 z"
         transform="translate(-156.9679,-291.6002)"
         id="path72" />
    </clipPath>
    <clipPath
       clipPathUnits="userSpaceOnUse"
       id="clipPath74">
      <path
         d="m 107.13,266.484 h 64.83 v 64.827 h -64.83 z"
         transform="translate(-134.079,-285.39071)"
         id="path74" />
    </clipPath>
    <clipPath
       clipPathUnits="userSpaceOnUse"
       id="clipPath76">
      <path
         d="m 107.13,266.484 h 64.83 v 64.827 h -64.83 z"
         transform="translate(-159.41481,-308.21091)"
         id="path76" />
    </clipPath>
    <clipPath
       clipPathUnits="userSpaceOnUse"
       id="clipPath97">
      <path
         d="m 188.739,266.484 h 64.833 v 64.833 h -64.833 z"
         transform="translate(-228.40251,-307.92571)"
         id="path97" />
    </clipPath>
    <clipPath
       clipPathUnits="userSpaceOnUse"
       id="clipPath99">
      <path
         d="m 188.743,266.484 h 64.829 v 64.827 h -64.829 z"
         transform="translate(-247.78411,-326.61891)"
         id="path99" />
    </clipPath>
    <clipPath
       clipPathUnits="userSpaceOnUse"
       id="clipPath101">
      <path
         d="m 188.743,266.484 h 64.829 v 64.827 h -64.829 z"
         transform="translate(-247.78411,-323.21321)"
         id="path101" />
    </clipPath>
    <clipPath
       clipPathUnits="userSpaceOnUse"
       id="clipPath120">
      <path
         d="m 270.353,266.484 h 64.834 v 64.833 h -64.834 z"
         transform="translate(-299.87551,-288.41351)"
         id="path120" />
    </clipPath>
    <clipPath
       clipPathUnits="userSpaceOnUse"
       id="clipPath122">
      <path
         d="m 270.357,266.484 h 64.83 v 64.827 h -64.83 z"
         transform="translate(-287.13241,-296.58521)"
         id="path122" />
    </clipPath>
    <clipPath
       clipPathUnits="userSpaceOnUse"
       id="clipPath124">
      <path
         d="m 270.357,266.484 h 64.83 v 64.827 h -64.83 z"
         transform="translate(-307.82851,-291.9554)"
         id="path124" />
    </clipPath>
    <clipPath
       clipPathUnits="userSpaceOnUse"
       id="clipPath126">
      <path
         d="m 270.353,266.484 h 64.834 v 64.833 h -64.834 z"
         transform="translate(-301.21691,-302.64941)"
         id="path126" />
    </clipPath>
  </defs>
  <g
     inkscape:label="Layer 1"
     inkscape:groupmode="layer"
     id="layer1"
     transform="translate(-3682.4708,3417.8875)">
    <g
       id="g498"
       transform="matrix(0.26458333,0,0,0.26458333,3587.0949,-3511.0085)">
      <path
         id="path119"
         d="m 0,0 c -2.301,0 -4.465,-0.896 -6.092,-2.523 -3.359,-3.36 -3.359,-8.825 0,-12.185 1.627,-1.627 3.791,-2.523 6.092,-2.523 2.301,0 4.465,0.896 6.092,2.523 3.359,3.36 3.359,8.825 0,12.185 C 4.465,-0.896 2.301,0 0,0"
         style="fill:#190900;fill-opacity:1;fill-rule:nonzero;stroke:none"
         transform="matrix(1.3333333,0,0,-1.3333333,399.834,409.15)"
         clip-path="url(#clipPath120)" />
      <path
         id="path121"
         d="M 0,0 H 8.501 L 4.251,4.251 Z"
         style="fill:#190900;fill-opacity:1;fill-rule:nonzero;stroke:none"
         transform="matrix(1.3333333,0,0,-1.3333333,382.8432,398.2544)"
         clip-path="url(#clipPath122)" />
      <path
         id="path123"
         d="m 0,0 -26.665,-0.001 c -1.334,0 -2.667,0.509 -3.684,1.526 l 12.266,12.267 c 0.905,0.905 2.371,0.905 3.275,0 L -5.645,4.63 0,4.629 C 1.258,4.605 2.271,3.578 2.271,2.314 2.271,1.05 1.258,0.024 0,0 m -0.995,-19.116 c -1.921,-1.921 -4.439,-2.882 -6.958,-2.882 -2.518,0 -5.037,0.961 -6.958,2.882 -3.844,3.843 -3.844,10.074 0,13.917 1.921,1.922 4.44,2.882 6.958,2.882 2.519,0 5.037,-0.96 6.958,-2.882 3.844,-3.843 3.844,-10.074 0,-13.917 m -30.692,38.917 c 0,1.037 0.396,2.074 1.187,2.865 0.803,0.803 1.859,1.197 2.911,1.186 h 9.701 l 6.697,6.697 c 0.904,0.904 2.37,0.904 3.274,0 0.904,-0.905 0.904,-2.371 0,-3.275 l -7.384,-7.359 c -0.42,-0.428 -1.005,-0.694 -1.652,-0.694 h -6.63 V 11.56 l -8.104,-8.104 z m 5.812,14.034 c 2.238,0 4.052,-1.814 4.052,-4.052 0,-2.238 -1.814,-4.052 -4.052,-4.052 -2.238,0 -4.052,1.814 -4.052,4.052 0,2.238 1.814,4.052 4.052,4.052 M 6.439,23.745 c 3.843,-3.844 3.843,-10.074 0,-13.917 C 4.517,7.906 1.999,6.945 -0.52,6.945 c -2.518,0 -5.037,0.961 -6.958,2.883 -3.843,3.843 -3.843,10.073 0,13.917 1.921,1.921 4.44,2.882 6.958,2.882 2.519,0 5.037,-0.961 6.959,-2.882 M 8.834,-12.157 V 4.63 H 27.358 V 39.362 H -37.475 V -25.471 H 27.358 V 3.405 H 10.06 v -15.562 c 0,-2.432 -0.477,-4.791 -1.416,-7.012 -0.908,-2.145 -2.206,-4.071 -3.86,-5.725 -0.198,-0.198 -0.402,-0.39 -0.608,-0.577 H 2.271 c 3.991,3.069 6.563,7.89 6.563,13.314"
         style="fill:#190900;fill-opacity:1;fill-rule:nonzero;stroke:none"
         transform="matrix(1.3333333,0,0,-1.3333333,410.438,404.42747)"
         clip-path="url(#clipPath124)" />
      <path
         id="path125"
         d="m 0,0 c 1.627,-1.627 3.791,-2.523 6.092,-2.523 2.301,0 4.465,0.896 6.092,2.523 3.359,3.359 3.359,8.825 0,12.184 -1.627,1.627 -3.791,2.524 -6.092,2.524 C 3.791,14.708 1.627,13.811 0,12.184 -3.359,8.825 -3.359,3.359 0,0"
         style="fill:#190900;fill-opacity:1;fill-rule:nonzero;stroke:none"
         transform="matrix(1.3333333,0,0,-1.3333333,401.62253,390.1688)"
         clip-path="url(#clipPath126)" />
    </g>
  </g>
</svg>
