<?xml version="1.0" encoding="UTF-8" standalone="no"?>
<!-- Created with Inkscape (http://www.inkscape.org/) -->

<svg
   width="22.87023mm"
   height="22.86945mm"
   viewBox="0 0 22.870229 22.86945"
   version="1.1"
   id="svg1"
   inkscape:version="1.4 (e7c3feb1, 2024-10-09)"
   sodipodi:docname="CKT.svg"
   xmlns:inkscape="http://www.inkscape.org/namespaces/inkscape"
   xmlns:sodipodi="http://sodipodi.sourceforge.net/DTD/sodipodi-0.dtd"
   xmlns="http://www.w3.org/2000/svg"
   xmlns:svg="http://www.w3.org/2000/svg">
  <sodipodi:namedview
     id="namedview1"
     pagecolor="#ffffff"
     bordercolor="#000000"
     borderopacity="0.25"
     inkscape:showpageshadow="2"
     inkscape:pageopacity="0.0"
     inkscape:pagecheckerboard="0"
     inkscape:deskcolor="#d1d1d1"
     inkscape:document-units="mm"
     inkscape:zoom="2.7989408"
     inkscape:cx="43.409279"
     inkscape:cy="43.052001"
     inkscape:window-width="1440"
     inkscape:window-height="872"
     inkscape:window-x="0"
     inkscape:window-y="28"
     inkscape:window-maximized="0"
     inkscape:current-layer="layer1" />
  <defs
     id="defs1">
    <clipPath
       clipPathUnits="userSpaceOnUse"
       id="clipPath66">
      <path
         d="m 107.125,266.484 h 64.834 v 64.833 h -64.834 z"
         transform="translate(-170.7181,-300.65661)"
         id="path66" />
    </clipPath>
    <clipPath
       clipPathUnits="userSpaceOnUse"
       id="clipPath68">
      <path
         d="m 107.13,266.484 h 64.83 v 64.827 h -64.83 z"
         transform="translate(-122.74491,-298.74401)"
         id="path68" />
    </clipPath>
    <clipPath
       clipPathUnits="userSpaceOnUse"
       id="clipPath70">
      <path
         d="m 107.13,266.484 h 64.83 v 64.827 h -64.83 z"
         transform="translate(-133.3953,-284.34611)"
         id="path70" />
    </clipPath>
    <clipPath
       clipPathUnits="userSpaceOnUse"
       id="clipPath72">
      <path
         d="m 107.125,266.484 h 64.834 v 64.833 h -64.834 z"
         transform="translate(-156.9679,-291.6002)"
         id="path72" />
    </clipPath>
    <clipPath
       clipPathUnits="userSpaceOnUse"
       id="clipPath74">
      <path
         d="m 107.13,266.484 h 64.83 v 64.827 h -64.83 z"
         transform="translate(-134.079,-285.39071)"
         id="path74" />
    </clipPath>
    <clipPath
       clipPathUnits="userSpaceOnUse"
       id="clipPath76">
      <path
         d="m 107.13,266.484 h 64.83 v 64.827 h -64.83 z"
         transform="translate(-159.41481,-308.21091)"
         id="path76" />
    </clipPath>
    <clipPath
       clipPathUnits="userSpaceOnUse"
       id="clipPath97">
      <path
         d="m 188.739,266.484 h 64.833 v 64.833 h -64.833 z"
         transform="translate(-228.40251,-307.92571)"
         id="path97" />
    </clipPath>
    <clipPath
       clipPathUnits="userSpaceOnUse"
       id="clipPath99">
      <path
         d="m 188.743,266.484 h 64.829 v 64.827 h -64.829 z"
         transform="translate(-247.78411,-326.61891)"
         id="path99" />
    </clipPath>
    <clipPath
       clipPathUnits="userSpaceOnUse"
       id="clipPath101">
      <path
         d="m 188.743,266.484 h 64.829 v 64.827 h -64.829 z"
         transform="translate(-247.78411,-323.21321)"
         id="path101" />
    </clipPath>
  </defs>
  <g
     inkscape:label="Layer 1"
     inkscape:groupmode="layer"
     id="layer1"
     transform="translate(-3682.4708,3417.8875)">
    <g
       id="g462"
       transform="matrix(0.26458333,0,0,0.26458333,3615.8865,-3511.0085)">
      <path
         id="path95"
         d="m 0,0 h -5.628 l 2.814,-2.814 z"
         style="fill:#190900;fill-opacity:1;fill-rule:nonzero;stroke:none"
         transform="matrix(1.3333333,0,0,-1.3333333,290.46707,389.7816)" />
      <path
         id="path96"
         d="m 0,0 c 0.024,-0.024 0.054,-0.037 0.088,-0.037 0.034,0 0.064,0.013 0.088,0.037 l 11.681,11.681 c 0.025,0.024 0.037,0.054 0.037,0.088 0,0.035 -0.012,0.064 -0.037,0.089 l -2.293,2.293 c -0.025,0.025 -0.054,0.037 -0.089,0.037 -0.034,0 -0.064,-0.012 -0.088,-0.037 L -2.294,2.47 C -2.318,2.446 -2.33,2.416 -2.33,2.382 c 0,-0.034 0.012,-0.064 0.036,-0.088 z"
         style="fill:#190900;fill-opacity:1;fill-rule:nonzero;stroke:none"
         transform="matrix(1.3333333,0,0,-1.3333333,304.53667,383.13373)"
         clip-path="url(#clipPath97)" />
      <path
         id="path98"
         d="m 0,0 c -0.601,0 -1.09,-0.489 -1.09,-1.09 0,-0.601 0.489,-1.09 1.09,-1.09 0.601,0 1.09,0.489 1.09,1.09 C 1.09,-0.489 0.601,0 0,0"
         style="fill:#190900;fill-opacity:1;fill-rule:nonzero;stroke:none"
         transform="matrix(1.3333333,0,0,-1.3333333,330.3788,358.20947)"
         clip-path="url(#clipPath99)" />
      <path
         id="path100"
         d="m 0,0 c -1.279,0 -2.316,1.037 -2.316,2.315 0,1.279 1.037,2.316 2.316,2.316 1.279,0 2.315,-1.037 2.315,-2.316 C 2.315,1.037 1.279,0 0,0 m -6.532,-52.578 c -0.904,-0.904 -2.371,-0.904 -3.275,0 l -21.285,21.285 3.275,3.275 21.285,-21.285 c 0.904,-0.904 0.904,-2.371 0,-3.275 m -18.028,9.841 -9.824,-9.823 c -0.904,-0.905 -2.37,-0.905 -3.274,0 -0.905,0.904 -0.905,2.37 0,3.274 l 8.186,8.187 -5.713,5.713 3.275,3.274 7.367,-7.368 c 0.887,-0.905 0.881,-2.358 -0.017,-3.257 m -21.676,-10.519 h -1.225 v 18.515 h -2.248 v -18.515 h -1.225 v 18.515 h -2.305 v -18.515 h -1.225 v 19.74 h 8.228 z m -2.36,46.265 c 1.582,1.582 4.148,1.582 5.731,0 1.582,-1.583 1.582,-4.148 0,-5.731 -1.583,-1.582 -4.149,-1.582 -5.731,0 -1.582,1.583 -1.582,4.148 0,5.731 m 25.396,-8.955 1.372,1.372 -0.714,0.714 c -0.527,0.527 -0.527,1.382 0,1.909 l 11.681,11.681 c 0.264,0.264 0.609,0.396 0.955,0.396 0.345,0 0.691,-0.132 0.954,-0.396 l 2.294,-2.294 c 0.527,-0.527 0.527,-1.382 0,-1.909 l -11.681,-11.681 c -0.263,-0.264 -0.609,-0.395 -0.954,-0.395 -0.346,0 -0.691,0.131 -0.955,0.395 l -0.714,0.714 -1.372,-1.372 c 0.158,-0.278 0.261,-0.591 0.293,-0.924 0,-0.007 0.001,-0.013 0.001,-0.019 0.003,-0.031 0.005,-0.061 0.007,-0.092 0.001,-0.025 0.001,-0.051 0.002,-0.076 0,-0.012 10e-4,-0.023 10e-4,-0.035 v -0.001 -0.001 c 0,-0.039 -10e-4,-0.077 -0.003,-0.116 -10e-4,-0.005 -10e-4,-0.01 -10e-4,-0.016 -0.002,-0.033 -0.005,-0.066 -0.008,-0.099 -10e-4,-0.009 -0.002,-0.018 -0.003,-0.026 -0.004,-0.03 -0.007,-0.059 -0.011,-0.088 -0.002,-0.01 -0.004,-0.019 -0.005,-0.028 -0.005,-0.029 -0.01,-0.058 -0.015,-0.086 -0.002,-0.008 -0.004,-0.016 -0.006,-0.024 -0.006,-0.03 -0.013,-0.06 -0.02,-0.09 -0.002,-0.005 -0.003,-0.01 -0.005,-0.015 -0.008,-0.033 -0.017,-0.065 -0.027,-0.097 -0.001,-0.002 -0.001,-0.003 -0.001,-0.004 -0.108,-0.347 -0.299,-0.674 -0.574,-0.948 l -14.113,-14.152 c 0,0 -10.755,10.754 -10.761,10.76 -0.84,0.84 -1.26,1.942 -1.26,3.043 0,1.101 0.42,2.203 1.26,3.043 0.84,0.84 1.942,1.261 3.043,1.261 h 20.194 c 0.417,0 0.808,-0.111 1.146,-0.304 M -59.045,-56.729 H 5.788 V 8.104 h -64.833 z"
         style="fill:#190900;fill-opacity:1;fill-rule:nonzero;stroke:none"
         transform="matrix(1.3333333,0,0,-1.3333333,330.3788,362.7504)"
         clip-path="url(#clipPath101)" />
    </g>
  </g>
</svg>
