<?xml version="1.0" encoding="UTF-8" standalone="no"?>
<!-- Created with Inkscape (http://www.inkscape.org/) -->

<svg
   width="22.87023mm"
   height="22.869486mm"
   viewBox="0 0 22.870228 22.869486"
   version="1.1"
   id="svg1"
   inkscape:version="1.4 (e7c3feb1, 2024-10-09)"
   sodipodi:docname="DIV.svg"
   xmlns:inkscape="http://www.inkscape.org/namespaces/inkscape"
   xmlns:sodipodi="http://sodipodi.sourceforge.net/DTD/sodipodi-0.dtd"
   xmlns="http://www.w3.org/2000/svg"
   xmlns:svg="http://www.w3.org/2000/svg">
  <sodipodi:namedview
     id="namedview1"
     pagecolor="#ffffff"
     bordercolor="#000000"
     borderopacity="0.25"
     inkscape:showpageshadow="2"
     inkscape:pageopacity="0.0"
     inkscape:pagecheckerboard="0"
     inkscape:deskcolor="#d1d1d1"
     inkscape:document-units="mm"
     inkscape:zoom="2.7989408"
     inkscape:cx="43.409279"
     inkscape:cy="43.052001"
     inkscape:window-width="1440"
     inkscape:window-height="872"
     inkscape:window-x="0"
     inkscape:window-y="28"
     inkscape:window-maximized="0"
     inkscape:current-layer="layer1" />
  <defs
     id="defs1">
    <clipPath
       clipPathUnits="userSpaceOnUse"
       id="clipPath66">
      <path
         d="m 107.125,266.484 h 64.834 v 64.833 h -64.834 z"
         transform="translate(-170.7181,-300.65661)"
         id="path66" />
    </clipPath>
    <clipPath
       clipPathUnits="userSpaceOnUse"
       id="clipPath68">
      <path
         d="m 107.13,266.484 h 64.83 v 64.827 h -64.83 z"
         transform="translate(-122.74491,-298.74401)"
         id="path68" />
    </clipPath>
    <clipPath
       clipPathUnits="userSpaceOnUse"
       id="clipPath70">
      <path
         d="m 107.13,266.484 h 64.83 v 64.827 h -64.83 z"
         transform="translate(-133.3953,-284.34611)"
         id="path70" />
    </clipPath>
    <clipPath
       clipPathUnits="userSpaceOnUse"
       id="clipPath72">
      <path
         d="m 107.125,266.484 h 64.834 v 64.833 h -64.834 z"
         transform="translate(-156.9679,-291.6002)"
         id="path72" />
    </clipPath>
    <clipPath
       clipPathUnits="userSpaceOnUse"
       id="clipPath74">
      <path
         d="m 107.13,266.484 h 64.83 v 64.827 h -64.83 z"
         transform="translate(-134.079,-285.39071)"
         id="path74" />
    </clipPath>
    <clipPath
       clipPathUnits="userSpaceOnUse"
       id="clipPath76">
      <path
         d="m 107.13,266.484 h 64.83 v 64.827 h -64.83 z"
         transform="translate(-159.41481,-308.21091)"
         id="path76" />
    </clipPath>
    <clipPath
       clipPathUnits="userSpaceOnUse"
       id="clipPath97">
      <path
         d="m 188.739,266.484 h 64.833 v 64.833 h -64.833 z"
         transform="translate(-228.40251,-307.92571)"
         id="path97" />
    </clipPath>
    <clipPath
       clipPathUnits="userSpaceOnUse"
       id="clipPath99">
      <path
         d="m 188.743,266.484 h 64.829 v 64.827 h -64.829 z"
         transform="translate(-247.78411,-326.61891)"
         id="path99" />
    </clipPath>
    <clipPath
       clipPathUnits="userSpaceOnUse"
       id="clipPath101">
      <path
         d="m 188.743,266.484 h 64.829 v 64.827 h -64.829 z"
         transform="translate(-247.78411,-323.21321)"
         id="path101" />
    </clipPath>
    <clipPath
       clipPathUnits="userSpaceOnUse"
       id="clipPath120">
      <path
         d="m 270.353,266.484 h 64.834 v 64.833 h -64.834 z"
         transform="translate(-299.87551,-288.41351)"
         id="path120" />
    </clipPath>
    <clipPath
       clipPathUnits="userSpaceOnUse"
       id="clipPath122">
      <path
         d="m 270.357,266.484 h 64.83 v 64.827 h -64.83 z"
         transform="translate(-287.13241,-296.58521)"
         id="path122" />
    </clipPath>
    <clipPath
       clipPathUnits="userSpaceOnUse"
       id="clipPath124">
      <path
         d="m 270.357,266.484 h 64.83 v 64.827 h -64.83 z"
         transform="translate(-307.82851,-291.9554)"
         id="path124" />
    </clipPath>
    <clipPath
       clipPathUnits="userSpaceOnUse"
       id="clipPath126">
      <path
         d="m 270.353,266.484 h 64.834 v 64.833 h -64.834 z"
         transform="translate(-301.21691,-302.64941)"
         id="path126" />
    </clipPath>
    <clipPath
       clipPathUnits="userSpaceOnUse"
       id="clipPath153">
      <path
         d="m 351.967,266.484 h 64.834 v 64.833 h -64.834 z"
         transform="translate(-386.76671,-296.0063)"
         id="path153" />
    </clipPath>
    <clipPath
       clipPathUnits="userSpaceOnUse"
       id="clipPath155">
      <path
         d="m 351.967,266.484 h 64.834 v 64.833 h -64.834 z"
         transform="translate(-378.13211,-295.2368)"
         id="path155" />
    </clipPath>
    <clipPath
       clipPathUnits="userSpaceOnUse"
       id="clipPath157">
      <path
         d="m 351.967,266.484 h 64.834 v 64.833 h -64.834 z"
         transform="translate(-369.91191,-288.41351)"
         id="path157" />
    </clipPath>
    <clipPath
       clipPathUnits="userSpaceOnUse"
       id="clipPath159">
      <path
         d="m 351.971,266.484 h 64.83 v 64.827 h -64.83 z"
         transform="translate(-410.06331,-281.46701)"
         id="path159" />
    </clipPath>
    <clipPath
       clipPathUnits="userSpaceOnUse"
       id="clipPath161">
      <path
         d="m 351.971,266.484 h 64.83 v 64.827 h -64.83 z"
         transform="translate(-364.62521,-302.19451)"
         id="path161" />
    </clipPath>
    <clipPath
       clipPathUnits="userSpaceOnUse"
       id="clipPath183">
      <path
         d="m 433.585,266.484 h 64.829 v 64.827 h -64.829 z"
         transform="translate(-447.47361,-318.51471)"
         id="path183" />
    </clipPath>
    <clipPath
       clipPathUnits="userSpaceOnUse"
       id="clipPath185">
      <path
         d="m 433.585,266.484 h 64.829 v 64.827 h -64.829 z"
         transform="translate(-447.30121,-283.25371)"
         id="path185" />
    </clipPath>
    <clipPath
       clipPathUnits="userSpaceOnUse"
       id="clipPath187">
      <path
         d="m 433.58,266.484 h 64.833 v 64.833 H 433.58 Z"
         transform="translate(-479.89031,-296.50231)"
         id="path187" />
    </clipPath>
    <clipPath
       clipPathUnits="userSpaceOnUse"
       id="clipPath189">
      <path
         d="m 433.585,266.484 h 64.829 v 64.827 h -64.829 z"
         transform="translate(-465.83701,-301.62171)"
         id="path189" />
    </clipPath>
    <clipPath
       clipPathUnits="userSpaceOnUse"
       id="clipPath191">
      <path
         d="m 433.585,266.484 h 64.829 v 64.827 h -64.829 z"
         transform="translate(-489.73111,-317.42451)"
         id="path191" />
    </clipPath>
    <clipPath
       clipPathUnits="userSpaceOnUse"
       id="clipPath215">
      <path
         d="m 515.194,266.484 h 64.833 v 64.833 h -64.833 z"
         transform="translate(-559.18861,-299.99081)"
         id="path215" />
    </clipPath>
    <clipPath
       clipPathUnits="userSpaceOnUse"
       id="clipPath217">
      <path
         d="m 515.199,266.484 h 64.829 v 64.827 h -64.829 z"
         transform="translate(-536.03392,-293.49221)"
         id="path217" />
    </clipPath>
    <clipPath
       clipPathUnits="userSpaceOnUse"
       id="clipPath219">
      <path
         d="m 515.199,266.484 h 64.829 v 64.827 h -64.829 z"
         transform="translate(-559.18861,-273.4304)"
         id="path219" />
    </clipPath>
    <clipPath
       clipPathUnits="userSpaceOnUse"
       id="clipPath263">
      <path
         d="m 596.812,266.484 h 64.829 v 64.827 h -64.829 z"
         transform="translate(-640.80242,-273.4304)"
         id="path263" />
    </clipPath>
    <clipPath
       clipPathUnits="userSpaceOnUse"
       id="clipPath265">
      <path
         d="m 596.808,266.484 h 64.833 v 64.833 h -64.833 z"
         transform="translate(-640.80242,-299.99081)"
         id="path265" />
    </clipPath>
    <clipPath
       clipPathUnits="userSpaceOnUse"
       id="clipPath304">
      <path
         d="m 678.426,266.484 h 64.829 v 64.827 h -64.829 z"
         transform="translate(-722.38652,-295.45711)"
         id="path304" />
    </clipPath>
  </defs>
  <g
     inkscape:label="Layer 1"
     inkscape:groupmode="layer"
     id="layer1"
     transform="translate(-3682.4709,3417.8875)">
    <g
       id="group-MC42"
       transform="matrix(0.26458333,0,0,0.26458333,3443.1373,-3511.0085)">
      <path
         id="path303"
         d="m 0,0 c -1.582,-1.582 -4.148,-1.582 -5.73,0 -1.583,1.582 -1.583,4.148 0,5.731 1.582,1.582 4.148,1.582 5.73,0 C 1.582,4.148 1.582,1.582 0,0 m -17.335,8.588 c 0,0 0.012,-12.011 0.012,-12.091 0,-1.279 -1.037,-2.315 -2.316,-2.315 -1.278,0 -2.315,1.036 -2.315,2.315 l -0.013,27.762 c 0,2.558 2.074,4.631 4.631,4.631 l 10e-4,-15.671 h 5.834 l -3.52,3.52 V 28.2 L -2.327,15.505 c 0.734,-0.733 1.187,-1.746 1.187,-2.865 0,-2.238 -1.814,-4.052 -4.052,-4.052 z M -43.964,35.86 v -54.925 c 1.424,0 2.101,0.483 2.885,1.043 0.835,0.596 1.781,1.272 3.598,1.272 1.818,0 2.764,-0.676 3.598,-1.272 0.784,-0.56 1.461,-1.043 2.886,-1.043 1.425,0 2.102,0.483 2.886,1.043 0.834,0.596 1.78,1.272 3.597,1.272 1.818,0 2.764,-0.676 3.598,-1.272 0.784,-0.56 1.461,-1.043 2.886,-1.043 1.424,0 2.101,0.483 2.885,1.043 0.835,0.596 1.781,1.272 3.598,1.272 1.817,0 2.763,-0.676 3.598,-1.272 0.784,-0.56 1.461,-1.043 2.885,-1.043 1.425,0 2.102,0.483 2.886,1.043 0.834,0.596 1.78,1.272 3.598,1.272 1.817,0 2.763,-0.676 3.597,-1.272 0.784,-0.56 1.461,-1.043 2.886,-1.043 1.424,0 2.101,0.483 2.885,1.043 0.835,0.596 1.781,1.272 3.598,1.272 1.817,0 2.763,-0.676 3.598,-1.272 0.783,-0.56 1.461,-1.043 2.885,-1.043 v -1.226 c -1.817,0 -2.763,0.676 -3.598,1.272 -0.784,0.56 -1.461,1.044 -2.885,1.044 -1.425,0 -2.102,-0.484 -2.886,-1.044 -0.834,-0.596 -1.78,-1.272 -3.597,-1.272 -1.818,0 -2.763,0.676 -3.598,1.272 -0.784,0.56 -1.461,1.044 -2.885,1.044 -1.425,0 -2.102,-0.484 -2.886,-1.044 -0.835,-0.596 -1.781,-1.272 -3.598,-1.272 -1.817,0 -2.763,0.676 -3.597,1.272 -0.784,0.56 -1.462,1.044 -2.886,1.044 -1.424,0 -2.102,-0.484 -2.886,-1.044 -0.834,-0.596 -1.78,-1.272 -3.597,-1.272 -1.817,0 -2.763,0.676 -3.598,1.272 -0.784,0.56 -1.461,1.044 -2.886,1.044 -1.424,0 -2.101,-0.484 -2.885,-1.044 -0.835,-0.596 -1.781,-1.272 -3.598,-1.272 -1.817,0 -2.763,0.676 -3.598,1.272 -0.784,0.56 -1.461,1.044 -2.886,1.044 -1.424,0 -2.101,-0.484 -2.885,-1.044 -0.835,-0.596 -1.781,-1.272 -3.598,-1.272 v -8.682 H 20.869 V 35.86 Z"
         style="fill:#190900;fill-opacity:1;fill-rule:nonzero;stroke:none"
         transform="matrix(1.3333333,0,0,-1.3333333,963.182,399.75853)"
         clip-path="url(#clipPath304)" />
    </g>
  </g>
</svg>
