<?xml version="1.0" encoding="UTF-8" standalone="no"?>
<!-- Created with Inkscape (http://www.inkscape.org/) -->

<svg
   width="22.87023mm"
   height="22.869524mm"
   viewBox="0 0 22.870228 22.869524"
   version="1.1"
   id="svg1"
   inkscape:version="1.4 (e7c3feb1, 2024-10-09)"
   sodipodi:docname="EQU.svg"
   xmlns:inkscape="http://www.inkscape.org/namespaces/inkscape"
   xmlns:sodipodi="http://sodipodi.sourceforge.net/DTD/sodipodi-0.dtd"
   xmlns="http://www.w3.org/2000/svg"
   xmlns:svg="http://www.w3.org/2000/svg">
  <sodipodi:namedview
     id="namedview1"
     pagecolor="#ffffff"
     bordercolor="#000000"
     borderopacity="0.25"
     inkscape:showpageshadow="2"
     inkscape:pageopacity="0.0"
     inkscape:pagecheckerboard="0"
     inkscape:deskcolor="#d1d1d1"
     inkscape:document-units="mm"
     inkscape:zoom="2.7989408"
     inkscape:cx="46.267503"
     inkscape:cy="29.118158"
     inkscape:window-width="1440"
     inkscape:window-height="872"
     inkscape:window-x="0"
     inkscape:window-y="28"
     inkscape:window-maximized="0"
     inkscape:current-layer="layer1" />
  <defs
     id="defs1">
    <clipPath
       clipPathUnits="userSpaceOnUse"
       id="clipPath66">
      <path
         d="m 107.125,266.484 h 64.834 v 64.833 h -64.834 z"
         transform="translate(-170.7181,-300.65661)"
         id="path66" />
    </clipPath>
    <clipPath
       clipPathUnits="userSpaceOnUse"
       id="clipPath68">
      <path
         d="m 107.13,266.484 h 64.83 v 64.827 h -64.83 z"
         transform="translate(-122.74491,-298.74401)"
         id="path68" />
    </clipPath>
    <clipPath
       clipPathUnits="userSpaceOnUse"
       id="clipPath70">
      <path
         d="m 107.13,266.484 h 64.83 v 64.827 h -64.83 z"
         transform="translate(-133.3953,-284.34611)"
         id="path70" />
    </clipPath>
    <clipPath
       clipPathUnits="userSpaceOnUse"
       id="clipPath72">
      <path
         d="m 107.125,266.484 h 64.834 v 64.833 h -64.834 z"
         transform="translate(-156.9679,-291.6002)"
         id="path72" />
    </clipPath>
    <clipPath
       clipPathUnits="userSpaceOnUse"
       id="clipPath74">
      <path
         d="m 107.13,266.484 h 64.83 v 64.827 h -64.83 z"
         transform="translate(-134.079,-285.39071)"
         id="path74" />
    </clipPath>
    <clipPath
       clipPathUnits="userSpaceOnUse"
       id="clipPath76">
      <path
         d="m 107.13,266.484 h 64.83 v 64.827 h -64.83 z"
         transform="translate(-159.41481,-308.21091)"
         id="path76" />
    </clipPath>
    <clipPath
       clipPathUnits="userSpaceOnUse"
       id="clipPath97">
      <path
         d="m 188.739,266.484 h 64.833 v 64.833 h -64.833 z"
         transform="translate(-228.40251,-307.92571)"
         id="path97" />
    </clipPath>
    <clipPath
       clipPathUnits="userSpaceOnUse"
       id="clipPath99">
      <path
         d="m 188.743,266.484 h 64.829 v 64.827 h -64.829 z"
         transform="translate(-247.78411,-326.61891)"
         id="path99" />
    </clipPath>
    <clipPath
       clipPathUnits="userSpaceOnUse"
       id="clipPath101">
      <path
         d="m 188.743,266.484 h 64.829 v 64.827 h -64.829 z"
         transform="translate(-247.78411,-323.21321)"
         id="path101" />
    </clipPath>
    <clipPath
       clipPathUnits="userSpaceOnUse"
       id="clipPath120">
      <path
         d="m 270.353,266.484 h 64.834 v 64.833 h -64.834 z"
         transform="translate(-299.87551,-288.41351)"
         id="path120" />
    </clipPath>
    <clipPath
       clipPathUnits="userSpaceOnUse"
       id="clipPath122">
      <path
         d="m 270.357,266.484 h 64.83 v 64.827 h -64.83 z"
         transform="translate(-287.13241,-296.58521)"
         id="path122" />
    </clipPath>
    <clipPath
       clipPathUnits="userSpaceOnUse"
       id="clipPath124">
      <path
         d="m 270.357,266.484 h 64.83 v 64.827 h -64.83 z"
         transform="translate(-307.82851,-291.9554)"
         id="path124" />
    </clipPath>
    <clipPath
       clipPathUnits="userSpaceOnUse"
       id="clipPath126">
      <path
         d="m 270.353,266.484 h 64.834 v 64.833 h -64.834 z"
         transform="translate(-301.21691,-302.64941)"
         id="path126" />
    </clipPath>
    <clipPath
       clipPathUnits="userSpaceOnUse"
       id="clipPath153">
      <path
         d="m 351.967,266.484 h 64.834 v 64.833 h -64.834 z"
         transform="translate(-386.76671,-296.0063)"
         id="path153" />
    </clipPath>
    <clipPath
       clipPathUnits="userSpaceOnUse"
       id="clipPath155">
      <path
         d="m 351.967,266.484 h 64.834 v 64.833 h -64.834 z"
         transform="translate(-378.13211,-295.2368)"
         id="path155" />
    </clipPath>
    <clipPath
       clipPathUnits="userSpaceOnUse"
       id="clipPath157">
      <path
         d="m 351.967,266.484 h 64.834 v 64.833 h -64.834 z"
         transform="translate(-369.91191,-288.41351)"
         id="path157" />
    </clipPath>
    <clipPath
       clipPathUnits="userSpaceOnUse"
       id="clipPath159">
      <path
         d="m 351.971,266.484 h 64.83 v 64.827 h -64.83 z"
         transform="translate(-410.06331,-281.46701)"
         id="path159" />
    </clipPath>
    <clipPath
       clipPathUnits="userSpaceOnUse"
       id="clipPath161">
      <path
         d="m 351.971,266.484 h 64.83 v 64.827 h -64.83 z"
         transform="translate(-364.62521,-302.19451)"
         id="path161" />
    </clipPath>
    <clipPath
       clipPathUnits="userSpaceOnUse"
       id="clipPath183">
      <path
         d="m 433.585,266.484 h 64.829 v 64.827 h -64.829 z"
         transform="translate(-447.47361,-318.51471)"
         id="path183" />
    </clipPath>
    <clipPath
       clipPathUnits="userSpaceOnUse"
       id="clipPath185">
      <path
         d="m 433.585,266.484 h 64.829 v 64.827 h -64.829 z"
         transform="translate(-447.30121,-283.25371)"
         id="path185" />
    </clipPath>
    <clipPath
       clipPathUnits="userSpaceOnUse"
       id="clipPath187">
      <path
         d="m 433.58,266.484 h 64.833 v 64.833 H 433.58 Z"
         transform="translate(-479.89031,-296.50231)"
         id="path187" />
    </clipPath>
    <clipPath
       clipPathUnits="userSpaceOnUse"
       id="clipPath189">
      <path
         d="m 433.585,266.484 h 64.829 v 64.827 h -64.829 z"
         transform="translate(-465.83701,-301.62171)"
         id="path189" />
    </clipPath>
    <clipPath
       clipPathUnits="userSpaceOnUse"
       id="clipPath191">
      <path
         d="m 433.585,266.484 h 64.829 v 64.827 h -64.829 z"
         transform="translate(-489.73111,-317.42451)"
         id="path191" />
    </clipPath>
    <clipPath
       clipPathUnits="userSpaceOnUse"
       id="clipPath215">
      <path
         d="m 515.194,266.484 h 64.833 v 64.833 h -64.833 z"
         transform="translate(-559.18861,-299.99081)"
         id="path215" />
    </clipPath>
    <clipPath
       clipPathUnits="userSpaceOnUse"
       id="clipPath217">
      <path
         d="m 515.199,266.484 h 64.829 v 64.827 h -64.829 z"
         transform="translate(-536.03392,-293.49221)"
         id="path217" />
    </clipPath>
    <clipPath
       clipPathUnits="userSpaceOnUse"
       id="clipPath219">
      <path
         d="m 515.199,266.484 h 64.829 v 64.827 h -64.829 z"
         transform="translate(-559.18861,-273.4304)"
         id="path219" />
    </clipPath>
    <clipPath
       clipPathUnits="userSpaceOnUse"
       id="clipPath263">
      <path
         d="m 596.812,266.484 h 64.829 v 64.827 h -64.829 z"
         transform="translate(-640.80242,-273.4304)"
         id="path263" />
    </clipPath>
    <clipPath
       clipPathUnits="userSpaceOnUse"
       id="clipPath265">
      <path
         d="m 596.808,266.484 h 64.833 v 64.833 h -64.833 z"
         transform="translate(-640.80242,-299.99081)"
         id="path265" />
    </clipPath>
    <clipPath
       clipPathUnits="userSpaceOnUse"
       id="clipPath304">
      <path
         d="m 678.426,266.484 h 64.829 v 64.827 h -64.829 z"
         transform="translate(-722.38652,-295.45711)"
         id="path304" />
    </clipPath>
    <clipPath
       clipPathUnits="userSpaceOnUse"
       id="clipPath335">
      <path
         d="m 760.04,266.484 h 64.829 v 64.827 H 760.04 Z"
         transform="translate(-794.74629,-317.44881)"
         id="path335" />
    </clipPath>
  </defs>
  <g
     inkscape:label="Layer 1"
     inkscape:groupmode="layer"
     id="layer1"
     transform="translate(-3681.6772,3414.1833)">
    <g
       id="group-MC47"
       transform="matrix(0.26458333,0,0,0.26458333,3413.552,-3507.3043)">
      <path
         id="path334"
         d="m 0,0 c -1.582,-1.582 -4.148,-1.582 -5.731,0 -1.582,1.582 -1.582,4.148 0,5.73 1.583,1.583 4.149,1.583 5.731,0 C 1.582,4.148 1.582,1.582 0,0 m -34.71,13.869 v -44 h 5.549 c 3.6,0 6.986,1.402 9.532,3.949 l 0.521,0.521 -5.472,5.472 c -1.808,1.809 -1.808,4.741 0,6.549 l 8.746,-8.745 5.881,5.886 c -0.307,0.393 -0.49,0.887 -0.49,1.424 v 4.131 l -6.789,-6.789 -5.731,5.731 10.233,10.233 c 0.733,0.733 1.746,1.187 2.865,1.187 2.198,0 3.986,-1.75 4.049,-3.933 0.002,-0.039 0.004,-7.841 0.004,-7.841 L 6.871,0.336 c 2.777,2.777 6.47,4.307 10.399,4.307 h 7.098 v -18.031 c 0,-1.615 -1.313,-2.928 -2.928,-2.928 -0.782,0 -1.518,0.304 -2.071,0.858 l -6.367,6.367 0.866,0.867 6.368,-6.368 c 0.321,-0.322 0.749,-0.499 1.204,-0.499 0.939,0 1.703,0.764 1.703,1.703 V 3.418 H 17.27 c -3.601,0 -6.987,-1.402 -9.533,-3.949 l -12.22,-12.228 h 6.82 c 1.279,0 2.316,-1.037 2.316,-2.316 0,-1.279 -1.037,-2.315 -2.316,-2.315 H -8.128 c -0.292,0 -0.572,0.054 -0.829,0.153 l -6.011,-6.014 3.84,-3.841 c 0.884,-0.906 0.878,-2.357 -0.02,-3.254 -10e-4,-0.001 -10.947,-10.947 -10.947,-10.947 -0.904,-0.904 -2.371,-0.904 -3.275,0 -0.904,0.904 -0.904,2.37 0,3.274 l 9.31,9.31 -2.181,2.182 -0.521,-0.522 c -2.778,-2.777 -6.471,-4.307 -10.399,-4.307 h -5.549 v -19.609 h 64.833 v 64.834 z"
         style="fill:#190900;fill-opacity:1;fill-rule:nonzero;stroke:none"
         transform="matrix(1.3333333,0,0,-1.3333333,1059.6617,370.43627)"
         clip-path="url(#clipPath335)" />
    </g>
  </g>
</svg>
