<?xml version="1.0" encoding="UTF-8" standalone="no"?>
<!-- Created with Inkscape (http://www.inkscape.org/) -->

<svg
   width="22.87023mm"
   height="22.869453mm"
   viewBox="0 0 22.870228 22.869453"
   version="1.1"
   id="svg1"
   inkscape:version="1.4 (e7c3feb1, 2024-10-09)"
   sodipodi:docname="FBS.svg"
   xmlns:inkscape="http://www.inkscape.org/namespaces/inkscape"
   xmlns:sodipodi="http://sodipodi.sourceforge.net/DTD/sodipodi-0.dtd"
   xmlns="http://www.w3.org/2000/svg"
   xmlns:svg="http://www.w3.org/2000/svg">
  <sodipodi:namedview
     id="namedview1"
     pagecolor="#ffffff"
     bordercolor="#000000"
     borderopacity="0.25"
     inkscape:showpageshadow="2"
     inkscape:pageopacity="0.0"
     inkscape:pagecheckerboard="0"
     inkscape:deskcolor="#d1d1d1"
     inkscape:document-units="mm"
     inkscape:zoom="2.7989408"
     inkscape:cx="52.341229"
     inkscape:cy="71.99152"
     inkscape:window-width="1440"
     inkscape:window-height="872"
     inkscape:window-x="0"
     inkscape:window-y="28"
     inkscape:window-maximized="0"
     inkscape:current-layer="layer1" />
  <defs
     id="defs1">
    <clipPath
       clipPathUnits="userSpaceOnUse"
       id="clipPath66">
      <path
         d="m 107.125,266.484 h 64.834 v 64.833 h -64.834 z"
         transform="translate(-170.7181,-300.65661)"
         id="path66" />
    </clipPath>
    <clipPath
       clipPathUnits="userSpaceOnUse"
       id="clipPath68">
      <path
         d="m 107.13,266.484 h 64.83 v 64.827 h -64.83 z"
         transform="translate(-122.74491,-298.74401)"
         id="path68" />
    </clipPath>
    <clipPath
       clipPathUnits="userSpaceOnUse"
       id="clipPath70">
      <path
         d="m 107.13,266.484 h 64.83 v 64.827 h -64.83 z"
         transform="translate(-133.3953,-284.34611)"
         id="path70" />
    </clipPath>
    <clipPath
       clipPathUnits="userSpaceOnUse"
       id="clipPath72">
      <path
         d="m 107.125,266.484 h 64.834 v 64.833 h -64.834 z"
         transform="translate(-156.9679,-291.6002)"
         id="path72" />
    </clipPath>
    <clipPath
       clipPathUnits="userSpaceOnUse"
       id="clipPath74">
      <path
         d="m 107.13,266.484 h 64.83 v 64.827 h -64.83 z"
         transform="translate(-134.079,-285.39071)"
         id="path74" />
    </clipPath>
    <clipPath
       clipPathUnits="userSpaceOnUse"
       id="clipPath76">
      <path
         d="m 107.13,266.484 h 64.83 v 64.827 h -64.83 z"
         transform="translate(-159.41481,-308.21091)"
         id="path76" />
    </clipPath>
    <clipPath
       clipPathUnits="userSpaceOnUse"
       id="clipPath97">
      <path
         d="m 188.739,266.484 h 64.833 v 64.833 h -64.833 z"
         transform="translate(-228.40251,-307.92571)"
         id="path97" />
    </clipPath>
    <clipPath
       clipPathUnits="userSpaceOnUse"
       id="clipPath99">
      <path
         d="m 188.743,266.484 h 64.829 v 64.827 h -64.829 z"
         transform="translate(-247.78411,-326.61891)"
         id="path99" />
    </clipPath>
    <clipPath
       clipPathUnits="userSpaceOnUse"
       id="clipPath101">
      <path
         d="m 188.743,266.484 h 64.829 v 64.827 h -64.829 z"
         transform="translate(-247.78411,-323.21321)"
         id="path101" />
    </clipPath>
    <clipPath
       clipPathUnits="userSpaceOnUse"
       id="clipPath120">
      <path
         d="m 270.353,266.484 h 64.834 v 64.833 h -64.834 z"
         transform="translate(-299.87551,-288.41351)"
         id="path120" />
    </clipPath>
    <clipPath
       clipPathUnits="userSpaceOnUse"
       id="clipPath122">
      <path
         d="m 270.357,266.484 h 64.83 v 64.827 h -64.83 z"
         transform="translate(-287.13241,-296.58521)"
         id="path122" />
    </clipPath>
    <clipPath
       clipPathUnits="userSpaceOnUse"
       id="clipPath124">
      <path
         d="m 270.357,266.484 h 64.83 v 64.827 h -64.83 z"
         transform="translate(-307.82851,-291.9554)"
         id="path124" />
    </clipPath>
    <clipPath
       clipPathUnits="userSpaceOnUse"
       id="clipPath126">
      <path
         d="m 270.353,266.484 h 64.834 v 64.833 h -64.834 z"
         transform="translate(-301.21691,-302.64941)"
         id="path126" />
    </clipPath>
    <clipPath
       clipPathUnits="userSpaceOnUse"
       id="clipPath153">
      <path
         d="m 351.967,266.484 h 64.834 v 64.833 h -64.834 z"
         transform="translate(-386.76671,-296.0063)"
         id="path153" />
    </clipPath>
    <clipPath
       clipPathUnits="userSpaceOnUse"
       id="clipPath155">
      <path
         d="m 351.967,266.484 h 64.834 v 64.833 h -64.834 z"
         transform="translate(-378.13211,-295.2368)"
         id="path155" />
    </clipPath>
    <clipPath
       clipPathUnits="userSpaceOnUse"
       id="clipPath157">
      <path
         d="m 351.967,266.484 h 64.834 v 64.833 h -64.834 z"
         transform="translate(-369.91191,-288.41351)"
         id="path157" />
    </clipPath>
    <clipPath
       clipPathUnits="userSpaceOnUse"
       id="clipPath159">
      <path
         d="m 351.971,266.484 h 64.83 v 64.827 h -64.83 z"
         transform="translate(-410.06331,-281.46701)"
         id="path159" />
    </clipPath>
    <clipPath
       clipPathUnits="userSpaceOnUse"
       id="clipPath161">
      <path
         d="m 351.971,266.484 h 64.83 v 64.827 h -64.83 z"
         transform="translate(-364.62521,-302.19451)"
         id="path161" />
    </clipPath>
    <clipPath
       clipPathUnits="userSpaceOnUse"
       id="clipPath183">
      <path
         d="m 433.585,266.484 h 64.829 v 64.827 h -64.829 z"
         transform="translate(-447.47361,-318.51471)"
         id="path183" />
    </clipPath>
    <clipPath
       clipPathUnits="userSpaceOnUse"
       id="clipPath185">
      <path
         d="m 433.585,266.484 h 64.829 v 64.827 h -64.829 z"
         transform="translate(-447.30121,-283.25371)"
         id="path185" />
    </clipPath>
    <clipPath
       clipPathUnits="userSpaceOnUse"
       id="clipPath187">
      <path
         d="m 433.58,266.484 h 64.833 v 64.833 H 433.58 Z"
         transform="translate(-479.89031,-296.50231)"
         id="path187" />
    </clipPath>
    <clipPath
       clipPathUnits="userSpaceOnUse"
       id="clipPath189">
      <path
         d="m 433.585,266.484 h 64.829 v 64.827 h -64.829 z"
         transform="translate(-465.83701,-301.62171)"
         id="path189" />
    </clipPath>
    <clipPath
       clipPathUnits="userSpaceOnUse"
       id="clipPath191">
      <path
         d="m 433.585,266.484 h 64.829 v 64.827 h -64.829 z"
         transform="translate(-489.73111,-317.42451)"
         id="path191" />
    </clipPath>
    <clipPath
       clipPathUnits="userSpaceOnUse"
       id="clipPath215">
      <path
         d="m 515.194,266.484 h 64.833 v 64.833 h -64.833 z"
         transform="translate(-559.18861,-299.99081)"
         id="path215" />
    </clipPath>
    <clipPath
       clipPathUnits="userSpaceOnUse"
       id="clipPath217">
      <path
         d="m 515.199,266.484 h 64.829 v 64.827 h -64.829 z"
         transform="translate(-536.03392,-293.49221)"
         id="path217" />
    </clipPath>
    <clipPath
       clipPathUnits="userSpaceOnUse"
       id="clipPath219">
      <path
         d="m 515.199,266.484 h 64.829 v 64.827 h -64.829 z"
         transform="translate(-559.18861,-273.4304)"
         id="path219" />
    </clipPath>
    <clipPath
       clipPathUnits="userSpaceOnUse"
       id="clipPath263">
      <path
         d="m 596.812,266.484 h 64.829 v 64.827 h -64.829 z"
         transform="translate(-640.80242,-273.4304)"
         id="path263" />
    </clipPath>
    <clipPath
       clipPathUnits="userSpaceOnUse"
       id="clipPath265">
      <path
         d="m 596.808,266.484 h 64.833 v 64.833 h -64.833 z"
         transform="translate(-640.80242,-299.99081)"
         id="path265" />
    </clipPath>
    <clipPath
       clipPathUnits="userSpaceOnUse"
       id="clipPath304">
      <path
         d="m 678.426,266.484 h 64.829 v 64.827 h -64.829 z"
         transform="translate(-722.38652,-295.45711)"
         id="path304" />
    </clipPath>
    <clipPath
       clipPathUnits="userSpaceOnUse"
       id="clipPath335">
      <path
         d="m 760.04,266.484 h 64.829 v 64.827 H 760.04 Z"
         transform="translate(-794.74629,-317.44881)"
         id="path335" />
    </clipPath>
    <clipPath
       clipPathUnits="userSpaceOnUse"
       id="clipPath338">
      <path
         d="m 760.04,166.217 h 64.829 v 64.827 H 760.04 Z"
         transform="translate(-791.29479,-170.8486)"
         id="path338" />
    </clipPath>
    <clipPath
       clipPathUnits="userSpaceOnUse"
       id="clipPath307">
      <path
         d="m 678.426,166.217 h 64.829 v 64.827 h -64.829 z"
         transform="translate(-720.65752,-217.73701)"
         id="path307" />
    </clipPath>
    <clipPath
       clipPathUnits="userSpaceOnUse"
       id="clipPath268">
      <path
         d="m 596.812,166.217 h 64.829 v 64.827 h -64.829 z"
         transform="translate(-645.43331,-212.88301)"
         id="path268" />
    </clipPath>
    <clipPath
       clipPathUnits="userSpaceOnUse"
       id="clipPath222">
      <path
         d="m 515.199,166.217 h 64.829 v 64.827 h -64.829 z"
         transform="translate(-540.08591,-180.0382)"
         id="path222" />
    </clipPath>
    <clipPath
       clipPathUnits="userSpaceOnUse"
       id="clipPath224">
      <path
         d="m 515.199,166.217 h 64.829 v 64.827 h -64.829 z"
         transform="translate(-519.35711,-177.1142)"
         id="path224" />
    </clipPath>
  </defs>
  <g
     inkscape:label="Layer 1"
     inkscape:groupmode="layer"
     id="layer1"
     transform="translate(-3680.0899,3425.5604)">
    <g
       id="group-MC33"
       transform="matrix(0.26458333,0,0,0.26458333,3498.3391,-3554.0534)">
      <path
         id="path221"
         d="m 0,0 c -1.556,0 -2.822,-1.266 -2.822,-2.822 0,-1.556 1.266,-2.822 2.822,-2.822 1.556,0 2.822,1.266 2.822,2.822 C 2.822,-1.266 1.556,0 0,0"
         style="fill:#190900;fill-opacity:1;fill-rule:nonzero;stroke:none"
         transform="matrix(1.3333333,0,0,-1.3333333,720.11453,553.6504)"
         clip-path="url(#clipPath222)" />
      <path
         id="path223"
         d="M 0,0 21.271,21.271 24.543,17.998 3.272,-3.272 C 2.369,-4.176 0.904,-4.176 0,-3.272 -0.904,-2.369 -0.904,-0.904 0,0 M 5.727,13.908 17.18,25.361 20.453,22.089 8.999,10.635 c -0.904,-0.903 -2.369,-0.903 -3.272,0 -0.904,0.904 -0.904,2.369 0,3.273 m 4.231,16.599 6.544,6.544 c 0.452,0.452 1.044,0.678 1.637,0.678 h 36.776 c 1.278,0 2.314,-1.036 2.314,-2.314 0,-1.278 -1.036,-2.314 -2.314,-2.314 H 39.646 L 26.179,19.634 18.816,26.997 24.92,33.101 H 19.097 L 13.23,27.234 c -0.904,-0.903 -2.369,-0.903 -3.272,0 -0.904,0.904 -0.904,2.369 0,3.273 m 20.643,15.874 c 0.732,0.732 1.745,1.186 2.863,1.186 1.118,0 2.13,-0.454 2.863,-1.186 0.733,-0.733 1.186,-1.746 1.186,-2.864 0,-1.118 -0.453,-2.13 -1.186,-2.863 -0.733,-0.733 -1.745,-1.186 -2.863,-1.186 -1.118,0 -2.131,0.453 -2.863,1.186 -0.733,0.733 -1.187,1.745 -1.187,2.863 0,1.118 0.454,2.131 1.187,2.864 M 20.729,-3.95 c -2.238,0 -4.052,1.814 -4.052,4.052 0,2.238 1.814,4.052 4.052,4.052 2.238,0 4.052,-1.814 4.052,-4.052 0,-2.238 -1.814,-4.052 -4.052,-4.052 M 60.671,-6.811 V 53.937 H -4.163 v -64.834 h 64.834 v 2.861 H -4.163 v 1.225 z"
         style="fill:#190900;fill-opacity:1;fill-rule:nonzero;stroke:none"
         transform="matrix(1.3333333,0,0,-1.3333333,692.47613,557.54907)"
         clip-path="url(#clipPath224)" />
    </g>
  </g>
</svg>
