<?xml version="1.0" encoding="UTF-8" standalone="no"?>
<!-- Created with Inkscape (http://www.inkscape.org/) -->

<svg
   width="22.87023mm"
   height="22.869488mm"
   viewBox="0 0 22.870228 22.869486"
   version="1.1"
   id="svg1"
   inkscape:version="1.4 (e7c3feb1, 2024-10-09)"
   sodipodi:docname="MPN.svg"
   xmlns:inkscape="http://www.inkscape.org/namespaces/inkscape"
   xmlns:sodipodi="http://sodipodi.sourceforge.net/DTD/sodipodi-0.dtd"
   xmlns="http://www.w3.org/2000/svg"
   xmlns:svg="http://www.w3.org/2000/svg">
  <sodipodi:namedview
     id="namedview1"
     pagecolor="#ffffff"
     bordercolor="#000000"
     borderopacity="0.25"
     inkscape:showpageshadow="2"
     inkscape:pageopacity="0.0"
     inkscape:pagecheckerboard="0"
     inkscape:deskcolor="#d1d1d1"
     inkscape:document-units="mm"
     inkscape:zoom="2.7989408"
     inkscape:cx="19.471652"
     inkscape:cy="58.057677"
     inkscape:window-width="1440"
     inkscape:window-height="872"
     inkscape:window-x="0"
     inkscape:window-y="28"
     inkscape:window-maximized="0"
     inkscape:current-layer="layer1" />
  <defs
     id="defs1">
    <clipPath
       clipPathUnits="userSpaceOnUse"
       id="clipPath66">
      <path
         d="m 107.125,266.484 h 64.834 v 64.833 h -64.834 z"
         transform="translate(-170.7181,-300.65661)"
         id="path66" />
    </clipPath>
    <clipPath
       clipPathUnits="userSpaceOnUse"
       id="clipPath68">
      <path
         d="m 107.13,266.484 h 64.83 v 64.827 h -64.83 z"
         transform="translate(-122.74491,-298.74401)"
         id="path68" />
    </clipPath>
    <clipPath
       clipPathUnits="userSpaceOnUse"
       id="clipPath70">
      <path
         d="m 107.13,266.484 h 64.83 v 64.827 h -64.83 z"
         transform="translate(-133.3953,-284.34611)"
         id="path70" />
    </clipPath>
    <clipPath
       clipPathUnits="userSpaceOnUse"
       id="clipPath72">
      <path
         d="m 107.125,266.484 h 64.834 v 64.833 h -64.834 z"
         transform="translate(-156.9679,-291.6002)"
         id="path72" />
    </clipPath>
    <clipPath
       clipPathUnits="userSpaceOnUse"
       id="clipPath74">
      <path
         d="m 107.13,266.484 h 64.83 v 64.827 h -64.83 z"
         transform="translate(-134.079,-285.39071)"
         id="path74" />
    </clipPath>
    <clipPath
       clipPathUnits="userSpaceOnUse"
       id="clipPath76">
      <path
         d="m 107.13,266.484 h 64.83 v 64.827 h -64.83 z"
         transform="translate(-159.41481,-308.21091)"
         id="path76" />
    </clipPath>
    <clipPath
       clipPathUnits="userSpaceOnUse"
       id="clipPath97">
      <path
         d="m 188.739,266.484 h 64.833 v 64.833 h -64.833 z"
         transform="translate(-228.40251,-307.92571)"
         id="path97" />
    </clipPath>
    <clipPath
       clipPathUnits="userSpaceOnUse"
       id="clipPath99">
      <path
         d="m 188.743,266.484 h 64.829 v 64.827 h -64.829 z"
         transform="translate(-247.78411,-326.61891)"
         id="path99" />
    </clipPath>
    <clipPath
       clipPathUnits="userSpaceOnUse"
       id="clipPath101">
      <path
         d="m 188.743,266.484 h 64.829 v 64.827 h -64.829 z"
         transform="translate(-247.78411,-323.21321)"
         id="path101" />
    </clipPath>
    <clipPath
       clipPathUnits="userSpaceOnUse"
       id="clipPath120">
      <path
         d="m 270.353,266.484 h 64.834 v 64.833 h -64.834 z"
         transform="translate(-299.87551,-288.41351)"
         id="path120" />
    </clipPath>
    <clipPath
       clipPathUnits="userSpaceOnUse"
       id="clipPath122">
      <path
         d="m 270.357,266.484 h 64.83 v 64.827 h -64.83 z"
         transform="translate(-287.13241,-296.58521)"
         id="path122" />
    </clipPath>
    <clipPath
       clipPathUnits="userSpaceOnUse"
       id="clipPath124">
      <path
         d="m 270.357,266.484 h 64.83 v 64.827 h -64.83 z"
         transform="translate(-307.82851,-291.9554)"
         id="path124" />
    </clipPath>
    <clipPath
       clipPathUnits="userSpaceOnUse"
       id="clipPath126">
      <path
         d="m 270.353,266.484 h 64.834 v 64.833 h -64.834 z"
         transform="translate(-301.21691,-302.64941)"
         id="path126" />
    </clipPath>
    <clipPath
       clipPathUnits="userSpaceOnUse"
       id="clipPath153">
      <path
         d="m 351.967,266.484 h 64.834 v 64.833 h -64.834 z"
         transform="translate(-386.76671,-296.0063)"
         id="path153" />
    </clipPath>
    <clipPath
       clipPathUnits="userSpaceOnUse"
       id="clipPath155">
      <path
         d="m 351.967,266.484 h 64.834 v 64.833 h -64.834 z"
         transform="translate(-378.13211,-295.2368)"
         id="path155" />
    </clipPath>
    <clipPath
       clipPathUnits="userSpaceOnUse"
       id="clipPath157">
      <path
         d="m 351.967,266.484 h 64.834 v 64.833 h -64.834 z"
         transform="translate(-369.91191,-288.41351)"
         id="path157" />
    </clipPath>
    <clipPath
       clipPathUnits="userSpaceOnUse"
       id="clipPath159">
      <path
         d="m 351.971,266.484 h 64.83 v 64.827 h -64.83 z"
         transform="translate(-410.06331,-281.46701)"
         id="path159" />
    </clipPath>
    <clipPath
       clipPathUnits="userSpaceOnUse"
       id="clipPath161">
      <path
         d="m 351.971,266.484 h 64.83 v 64.827 h -64.83 z"
         transform="translate(-364.62521,-302.19451)"
         id="path161" />
    </clipPath>
    <clipPath
       clipPathUnits="userSpaceOnUse"
       id="clipPath183">
      <path
         d="m 433.585,266.484 h 64.829 v 64.827 h -64.829 z"
         transform="translate(-447.47361,-318.51471)"
         id="path183" />
    </clipPath>
    <clipPath
       clipPathUnits="userSpaceOnUse"
       id="clipPath185">
      <path
         d="m 433.585,266.484 h 64.829 v 64.827 h -64.829 z"
         transform="translate(-447.30121,-283.25371)"
         id="path185" />
    </clipPath>
    <clipPath
       clipPathUnits="userSpaceOnUse"
       id="clipPath187">
      <path
         d="m 433.58,266.484 h 64.833 v 64.833 H 433.58 Z"
         transform="translate(-479.89031,-296.50231)"
         id="path187" />
    </clipPath>
    <clipPath
       clipPathUnits="userSpaceOnUse"
       id="clipPath189">
      <path
         d="m 433.585,266.484 h 64.829 v 64.827 h -64.829 z"
         transform="translate(-465.83701,-301.62171)"
         id="path189" />
    </clipPath>
    <clipPath
       clipPathUnits="userSpaceOnUse"
       id="clipPath191">
      <path
         d="m 433.585,266.484 h 64.829 v 64.827 h -64.829 z"
         transform="translate(-489.73111,-317.42451)"
         id="path191" />
    </clipPath>
    <clipPath
       clipPathUnits="userSpaceOnUse"
       id="clipPath215">
      <path
         d="m 515.194,266.484 h 64.833 v 64.833 h -64.833 z"
         transform="translate(-559.18861,-299.99081)"
         id="path215" />
    </clipPath>
    <clipPath
       clipPathUnits="userSpaceOnUse"
       id="clipPath217">
      <path
         d="m 515.199,266.484 h 64.829 v 64.827 h -64.829 z"
         transform="translate(-536.03392,-293.49221)"
         id="path217" />
    </clipPath>
    <clipPath
       clipPathUnits="userSpaceOnUse"
       id="clipPath219">
      <path
         d="m 515.199,266.484 h 64.829 v 64.827 h -64.829 z"
         transform="translate(-559.18861,-273.4304)"
         id="path219" />
    </clipPath>
    <clipPath
       clipPathUnits="userSpaceOnUse"
       id="clipPath263">
      <path
         d="m 596.812,266.484 h 64.829 v 64.827 h -64.829 z"
         transform="translate(-640.80242,-273.4304)"
         id="path263" />
    </clipPath>
    <clipPath
       clipPathUnits="userSpaceOnUse"
       id="clipPath265">
      <path
         d="m 596.808,266.484 h 64.833 v 64.833 h -64.833 z"
         transform="translate(-640.80242,-299.99081)"
         id="path265" />
    </clipPath>
    <clipPath
       clipPathUnits="userSpaceOnUse"
       id="clipPath304">
      <path
         d="m 678.426,266.484 h 64.829 v 64.827 h -64.829 z"
         transform="translate(-722.38652,-295.45711)"
         id="path304" />
    </clipPath>
    <clipPath
       clipPathUnits="userSpaceOnUse"
       id="clipPath335">
      <path
         d="m 760.04,266.484 h 64.829 v 64.827 H 760.04 Z"
         transform="translate(-794.74629,-317.44881)"
         id="path335" />
    </clipPath>
    <clipPath
       clipPathUnits="userSpaceOnUse"
       id="clipPath338">
      <path
         d="m 760.04,166.217 h 64.829 v 64.827 H 760.04 Z"
         transform="translate(-791.29479,-170.8486)"
         id="path338" />
    </clipPath>
    <clipPath
       clipPathUnits="userSpaceOnUse"
       id="clipPath307">
      <path
         d="m 678.426,166.217 h 64.829 v 64.827 h -64.829 z"
         transform="translate(-720.65752,-217.73701)"
         id="path307" />
    </clipPath>
    <clipPath
       clipPathUnits="userSpaceOnUse"
       id="clipPath268">
      <path
         d="m 596.812,166.217 h 64.829 v 64.827 h -64.829 z"
         transform="translate(-645.43331,-212.88301)"
         id="path268" />
    </clipPath>
    <clipPath
       clipPathUnits="userSpaceOnUse"
       id="clipPath222">
      <path
         d="m 515.199,166.217 h 64.829 v 64.827 h -64.829 z"
         transform="translate(-540.08591,-180.0382)"
         id="path222" />
    </clipPath>
    <clipPath
       clipPathUnits="userSpaceOnUse"
       id="clipPath224">
      <path
         d="m 515.199,166.217 h 64.829 v 64.827 h -64.829 z"
         transform="translate(-519.35711,-177.1142)"
         id="path224" />
    </clipPath>
    <clipPath
       clipPathUnits="userSpaceOnUse"
       id="clipPath194">
      <path
         d="m 433.585,166.217 h 64.829 v 64.827 h -64.829 z"
         transform="translate(-460.20881,-180.043)"
         id="path194" />
    </clipPath>
    <clipPath
       clipPathUnits="userSpaceOnUse"
       id="clipPath196">
      <path
         d="m 433.585,166.217 h 64.829 v 64.827 h -64.829 z"
         transform="translate(-492.65831,-209.05781)"
         id="path196" />
    </clipPath>
    <clipPath
       clipPathUnits="userSpaceOnUse"
       id="clipPath165">
      <path
         d="m 351.971,166.217 h 64.83 v 64.827 h -64.83 z"
         transform="translate(-400.10161,-199.27231)"
         id="path165" />
    </clipPath>
    <clipPath
       clipPathUnits="userSpaceOnUse"
       id="clipPath167">
      <path
         d="m 351.971,166.217 h 64.83 v 64.827 h -64.83 z"
         transform="translate(-383.75371,-182.5082)"
         id="path167" />
    </clipPath>
    <clipPath
       clipPathUnits="userSpaceOnUse"
       id="clipPath129">
      <path
         d="m 270.357,166.217 h 64.83 v 64.827 h -64.83 z"
         transform="translate(-328.25781,-203.60221)"
         id="path129" />
    </clipPath>
    <clipPath
       clipPathUnits="userSpaceOnUse"
       id="clipPath105">
      <path
         d="m 188.743,166.217 h 64.829 v 64.827 h -64.829 z"
         transform="translate(-223.44981,-217.18241)"
         id="path105" />
    </clipPath>
    <clipPath
       clipPathUnits="userSpaceOnUse"
       id="clipPath79">
      <path
         d="m 107.13,166.217 h 64.83 v 64.827 h -64.83 z"
         transform="translate(-141.83601,-217.18241)"
         id="path79" />
    </clipPath>
    <clipPath
       clipPathUnits="userSpaceOnUse"
       id="clipPath47">
      <path
         d="m 25.516,166.217 h 64.83 v 64.827 h -64.83 z"
         transform="translate(-85.748005,-198.6343)"
         id="path47" />
    </clipPath>
    <clipPath
       clipPathUnits="userSpaceOnUse"
       id="clipPath50">
      <path
         d="m 25.516,65.951 h 64.83 v 64.827 h -64.83 z"
         transform="translate(-84.589405,-107.6362)"
         id="path50" />
    </clipPath>
    <clipPath
       clipPathUnits="userSpaceOnUse"
       id="clipPath52">
      <path
         d="m 25.511,65.951 h 64.834 v 64.833 H 25.511 Z"
         transform="translate(-46.930001,-119.27461)"
         id="path52" />
    </clipPath>
    <clipPath
       clipPathUnits="userSpaceOnUse"
       id="clipPath83">
      <path
         d="m 107.13,65.951 h 64.83 v 64.827 h -64.83 z"
         transform="translate(-166.2082,-76.054804)"
         id="path83" />
    </clipPath>
    <clipPath
       clipPathUnits="userSpaceOnUse"
       id="clipPath108">
      <path
         d="m 188.743,65.951 h 64.829 v 64.827 h -64.829 z"
         transform="translate(-247.822,-76.054804)"
         id="path108" />
    </clipPath>
    <clipPath
       clipPathUnits="userSpaceOnUse"
       id="clipPath132">
      <path
         d="m 270.353,65.951 h 64.834 v 64.833 h -64.834 z"
         transform="translate(-330.85161,-94.000805)"
         id="path132" />
    </clipPath>
    <clipPath
       clipPathUnits="userSpaceOnUse"
       id="clipPath134">
      <path
         d="m 270.353,65.951 h 64.834 v 64.833 h -64.834 z"
         transform="translate(-319.48901,-126.0751)"
         id="path134" />
    </clipPath>
    <clipPath
       clipPathUnits="userSpaceOnUse"
       id="clipPath136">
      <path
         d="m 270.353,65.951 h 64.834 v 64.833 h -64.834 z"
         transform="translate(-287.73531,-121.577)"
         id="path136" />
    </clipPath>
    <clipPath
       clipPathUnits="userSpaceOnUse"
       id="clipPath138">
      <path
         d="m 270.353,65.951 h 64.834 v 64.833 h -64.834 z"
         transform="translate(-287.73531,-124.9891)"
         id="path138" />
    </clipPath>
    <clipPath
       clipPathUnits="userSpaceOnUse"
       id="clipPath170">
      <path
         d="m 351.971,65.951 h 64.83 v 64.827 h -64.83 z"
         transform="translate(-391.39871,-93.230502)"
         id="path170" />
    </clipPath>
    <clipPath
       clipPathUnits="userSpaceOnUse"
       id="clipPath199">
      <path
         d="m 433.585,65.951 h 64.829 v 64.827 h -64.829 z"
         transform="translate(-485.70341,-108.9122)"
         id="path199" />
    </clipPath>
    <clipPath
       clipPathUnits="userSpaceOnUse"
       id="clipPath227">
      <path
         d="m 515.194,65.951 h 64.833 v 64.833 h -64.833 z"
         transform="translate(-527.73721,-119.957)"
         id="path227" />
    </clipPath>
    <clipPath
       clipPathUnits="userSpaceOnUse"
       id="clipPath229">
      <path
         d="m 515.194,65.951 h 64.833 v 64.833 h -64.833 z"
         transform="translate(-548.95792,-97.887605)"
         id="path229" />
    </clipPath>
    <clipPath
       clipPathUnits="userSpaceOnUse"
       id="clipPath231">
      <path
         d="m 515.199,65.951 h 64.829 v 64.827 h -64.829 z"
         transform="translate(-541.59011,-105.25531)"
         id="path231" />
    </clipPath>
    <clipPath
       clipPathUnits="userSpaceOnUse"
       id="clipPath233">
      <path
         d="m 515.199,65.951 h 64.829 v 64.827 h -64.829 z"
         transform="translate(-574.23931,-122.6725)"
         id="path233" />
    </clipPath>
    <clipPath
       clipPathUnits="userSpaceOnUse"
       id="clipPath235">
      <path
         d="m 515.194,65.951 h 64.833 v 64.833 h -64.833 z"
         transform="translate(-574.23931,-126.0782)"
         id="path235" />
    </clipPath>
    <clipPath
       clipPathUnits="userSpaceOnUse"
       id="clipPath272">
      <path
         d="m 596.812,65.951 h 64.829 v 64.827 h -64.829 z"
         transform="translate(-629.61832,-99.3236)"
         id="path272" />
    </clipPath>
    <clipPath
       clipPathUnits="userSpaceOnUse"
       id="clipPath274">
      <path
         d="m 596.812,65.951 h 64.829 v 64.827 h -64.829 z"
         transform="translate(-640.77892,-109.13551)"
         id="path274" />
    </clipPath>
    <clipPath
       clipPathUnits="userSpaceOnUse"
       id="clipPath276">
      <path
         d="m 596.812,65.951 h 64.829 v 64.827 h -64.829 z"
         transform="translate(-658.04402,-81.115805)"
         id="path276" />
    </clipPath>
    <clipPath
       clipPathUnits="userSpaceOnUse"
       id="clipPath278">
      <path
         d="m 596.812,65.951 h 64.829 v 64.827 h -64.829 z"
         transform="translate(-603.29201,-83.384705)"
         id="path278" />
    </clipPath>
    <clipPath
       clipPathUnits="userSpaceOnUse"
       id="clipPath311">
      <path
         d="m 678.426,65.951 h 64.829 v 64.827 h -64.829 z"
         transform="translate(-706.98242,-111.9458)"
         id="path311" />
    </clipPath>
    <clipPath
       clipPathUnits="userSpaceOnUse"
       id="clipPath313">
      <path
         d="m 678.426,65.951 h 64.829 v 64.827 h -64.829 z"
         transform="translate(-740.94002,-87.777102)"
         id="path313" />
    </clipPath>
  </defs>
  <g
     inkscape:label="Layer 1"
     inkscape:groupmode="layer"
     id="layer1"
     transform="translate(-3688.8211,3421.8563)">
    <g
       id="group-MC44"
       transform="matrix(0.26458333,0,0,0.26458333,3449.4875,-3585.7209)">
      <path
         id="path309"
         d="M 0,0 H 4.818 L 2.409,2.409 Z"
         style="fill:#190900;fill-opacity:1;fill-rule:nonzero;stroke:none"
         transform="matrix(1.3333333,0,0,-1.3333333,920.0896,692.72413)" />
      <path
         id="path310"
         d="M 0,0 C 0,0.735 -0.496,1.357 -1.17,1.548 V -1.548 C -0.496,-1.357 0,-0.735 0,0"
         style="fill:#190900;fill-opacity:1;fill-rule:nonzero;stroke:none"
         transform="matrix(1.3333333,0,0,-1.3333333,942.6432,644.44027)"
         clip-path="url(#clipPath311)" />
      <path
         id="path312"
         d="m 0,0 h -4.271 c 0.732,0 1.325,-0.593 1.325,-1.324 0,-0.732 -0.593,-1.325 -1.325,-1.325 h -9.451 v -7.946 h -5.96 v 8.277 c 0,1.28 1.038,2.318 2.318,2.318 h 11.769 c 0,0.731 0.593,1.324 1.324,1.324 H 0 Z m -11.077,-21.826 -5.723,9.906 3.05,10e-4 5.728,-9.907 z m -5.956,0 h -2.649 v 9.907 h 2.649 z m 1.987,25.468 c 0,-1.28 -1.038,-2.318 -2.318,-2.318 -1.28,0 -2.318,1.038 -2.318,2.318 0,1.28 1.038,2.318 2.318,2.318 1.28,0 2.318,-1.038 2.318,-2.318 m -7.276,1.95 -5.596,-5.595 c -0.515,-0.515 -1.35,-0.515 -1.865,0 -0.515,0.515 -0.515,1.35 0,1.865 l 4.663,4.663 -4.455,4.455 h -9.788 v 0.98 h 15.565 c 2.013,0 3.906,0.784 5.33,2.208 l 1.469,1.472 c -0.027,0.023 -0.054,0.046 -0.079,0.071 l -2.098,2.099 -4.691,-4.691 h -6.526 l 8.225,8.225 c 0.904,0.863 2.336,0.851 3.225,-0.037 l 3.344,-3.344 h 0.919 l 2.709,2.713 c 1.609,1.609 3.748,2.495 6.023,2.495 h 4.79 V 13.119 h -0.98 v 9.072 h -3.81 c -2.013,0 -3.906,-0.784 -5.33,-2.208 l -2.017,-2.02 h 3.088 c 0.728,0 1.319,-0.591 1.319,-1.319 0,-0.729 -0.591,-1.319 -1.319,-1.319 h -5.721 l -1.847,-1.85 c -1.609,-1.609 -3.748,-2.495 -6.023,-2.495 h -2.047 l 3.523,-3.522 c 0.515,-0.515 0.515,-1.35 0,-1.866 M -37.823,3.514 c 0.901,0.901 2.361,0.901 3.261,0 0.901,-0.9 0.901,-2.36 0,-3.26 -0.9,-0.901 -2.36,-0.901 -3.261,0 -0.9,0.9 -0.9,2.36 0,3.26 m 6.847,-7.428 -3.274,-3.274 c -0.514,-0.514 -1.349,-0.514 -1.863,0 l -2.623,2.623 -4.604,-4.604 -4.192,4.192 4.604,4.604 -1.491,1.491 -2.795,-2.795 c -0.238,-0.238 -0.567,-0.386 -0.931,-0.386 -0.364,0 -0.693,0.148 -0.932,0.386 -0.238,0.239 -0.386,0.568 -0.386,0.932 0,0.364 0.148,0.693 0.386,0.931 l 3.727,3.727 c 0.238,0.238 0.567,0.386 0.931,0.386 0.364,0 0.693,-0.148 0.932,-0.386 l 8.306,-8.306 2.342,2.342 c 0.514,0.515 1.348,0.515 1.863,0 0.515,-0.514 0.515,-1.348 0,-1.863 m -10.966,-10.379 c -0.258,-0.257 -0.595,-0.386 -0.932,-0.386 h -10.634 l -4.445,-4.446 c -0.258,-0.257 -0.595,-0.386 -0.932,-0.386 -0.337,0 -0.674,0.129 -0.932,0.386 -0.257,0.258 -0.385,0.595 -0.385,0.932 0,0.337 0.128,0.674 0.385,0.932 l 11.353,11.352 6.522,-6.521 c 0.257,-0.257 0.386,-0.594 0.386,-0.932 0,-0.337 -0.129,-0.674 -0.386,-0.931 m -17.874,23.946 5.217,5.216 10e-4,7.594 c 0,0.76 0.29,1.521 0.87,2.101 l 9.308,-9.308 c 0.516,-0.516 0.516,-1.352 0,-1.868 -0.258,-0.258 -0.596,-0.387 -0.934,-0.387 h -7.377 l -5.217,-5.216 c -0.516,-0.516 -1.352,-0.516 -1.868,0 -0.515,0.515 -0.515,1.352 0,1.868 m 4.812,25.095 h 5.283 c 0.364,0 0.695,-0.147 0.934,-0.386 l 8.873,-8.874 h 3.765 v 1.311 h 0.582 c 1.278,0 2.343,-0.912 2.58,-2.12 h 8.179 v -1.021 h -8.179 c -0.237,-1.208 -1.302,-2.12 -2.58,-2.12 l -0.582,0.012 v 1.297 h -4.312 c -0.338,0 -0.676,0.129 -0.934,0.387 l -2.629,2.629 -4.567,-4.567 -4.203,4.202 4.567,4.567 -2.041,2.042 h -4.736 c -0.73,0 -1.321,0.591 -1.321,1.321 0,0.729 0.591,1.32 1.321,1.32 m 11.6,-0.667 c 0.903,0.903 2.366,0.903 3.269,0 0.902,-0.903 0.902,-2.366 0,-3.269 -0.903,-0.902 -2.366,-0.902 -3.269,0 -0.903,0.903 -0.903,2.366 0,3.269 m 28.68,-11.819 c -0.902,-0.902 -2.363,-0.902 -3.264,0 -0.902,0.901 -0.902,2.362 0,3.264 0.901,0.901 2.362,0.901 3.264,0 0.901,-0.902 0.901,-2.363 0,-3.264 m -18.858,9.862 c 1.078,0 1.635,-0.398 2.127,-0.749 0.443,-0.316 0.793,-0.566 1.557,-0.566 0.763,0 1.113,0.25 1.556,0.566 0.124,0.088 0.251,0.179 0.391,0.266 l 4.126,2.871 -1.988,1.988 -3.428,-2.384 c -0.598,-0.416 -1.42,-0.268 -1.837,0.33 -0.416,0.598 -0.268,1.421 0.33,1.837 l 4.334,3.015 c 0.533,0.371 1.244,0.294 1.687,-0.151 l 6.181,-6.18 h 9.983 c 0.337,0 0.675,-0.129 0.933,-0.387 0.481,-0.481 0.513,-1.242 0.095,-1.76 0.583,0.053 0.899,0.278 1.287,0.555 0.491,0.351 1.048,0.749 2.125,0.749 v -0.98 c -0.763,0 -1.113,-0.25 -1.556,-0.567 -0.491,-0.351 -1.048,-0.749 -2.125,-0.749 -1.078,0 -1.635,0.398 -2.126,0.749 -0.443,0.317 -0.793,0.567 -1.557,0.567 -0.763,0 -1.113,-0.25 -1.556,-0.567 -0.491,-0.351 -1.048,-0.749 -2.126,-0.749 -1.078,0 -1.635,0.398 -2.126,0.749 -0.443,0.317 -0.793,0.567 -1.557,0.567 -0.763,0 -1.113,-0.25 -1.555,-0.567 -0.492,-0.351 -1.049,-0.749 -2.126,-0.749 -1.078,0 -1.635,0.398 -2.126,0.749 -0.443,0.317 -0.793,0.567 -1.557,0.567 -0.763,0 -1.113,-0.25 -1.556,-0.567 -0.491,-0.351 -1.048,-0.749 -2.126,-0.749 -1.078,0 -1.635,0.398 -2.127,0.749 -0.443,0.317 -0.793,0.567 -1.557,0.567 z m 14.711,6.281 c 0.902,0.902 2.364,0.902 3.266,0 0.902,-0.902 0.902,-2.365 0,-3.267 -0.902,-0.902 -2.364,-0.902 -3.266,0 -0.902,0.902 -0.902,2.365 0,3.267 M -62.518,-21.826 H 2.315 v 64.833 h -64.833 z"
         style="fill:#190900;fill-opacity:1;fill-rule:nonzero;stroke:none"
         transform="matrix(1.3333333,0,0,-1.3333333,987.92,676.6652)"
         clip-path="url(#clipPath313)" />
      <path
         id="path314"
         d="M 0,0 V -3.415 H 3.415 Z"
         style="fill:#190900;fill-opacity:1;fill-rule:nonzero;stroke:none"
         transform="matrix(1.3333333,0,0,-1.3333333,918.64333,651.25467)" />
    </g>
  </g>
</svg>
