<?xml version="1.0" encoding="UTF-8" standalone="no"?>
<!-- Created with Inkscape (http://www.inkscape.org/) -->

<svg
   width="22.870205mm"
   height="22.869415mm"
   viewBox="0 0 22.870203 22.869413"
   version="1.1"
   id="svg1"
   inkscape:version="1.4 (e7c3feb1, 2024-10-09)"
   sodipodi:docname="RQT.svg"
   xmlns:inkscape="http://www.inkscape.org/namespaces/inkscape"
   xmlns:sodipodi="http://sodipodi.sourceforge.net/DTD/sodipodi-0.dtd"
   xmlns="http://www.w3.org/2000/svg"
   xmlns:svg="http://www.w3.org/2000/svg">
  <sodipodi:namedview
     id="namedview1"
     pagecolor="#ffffff"
     bordercolor="#000000"
     borderopacity="0.25"
     inkscape:showpageshadow="2"
     inkscape:pageopacity="0.0"
     inkscape:pagecheckerboard="0"
     inkscape:deskcolor="#d1d1d1"
     inkscape:document-units="mm"
     inkscape:zoom="2.7989408"
     inkscape:cx="43.409279"
     inkscape:cy="43.052001"
     inkscape:window-width="1440"
     inkscape:window-height="872"
     inkscape:window-x="0"
     inkscape:window-y="28"
     inkscape:window-maximized="0"
     inkscape:current-layer="layer1" />
  <defs
     id="defs1">
    <clipPath
       clipPathUnits="userSpaceOnUse"
       id="clipPath66">
      <path
         d="m 107.125,266.484 h 64.834 v 64.833 h -64.834 z"
         transform="translate(-170.7181,-300.65661)"
         id="path66" />
    </clipPath>
    <clipPath
       clipPathUnits="userSpaceOnUse"
       id="clipPath68">
      <path
         d="m 107.13,266.484 h 64.83 v 64.827 h -64.83 z"
         transform="translate(-122.74491,-298.74401)"
         id="path68" />
    </clipPath>
    <clipPath
       clipPathUnits="userSpaceOnUse"
       id="clipPath70">
      <path
         d="m 107.13,266.484 h 64.83 v 64.827 h -64.83 z"
         transform="translate(-133.3953,-284.34611)"
         id="path70" />
    </clipPath>
    <clipPath
       clipPathUnits="userSpaceOnUse"
       id="clipPath72">
      <path
         d="m 107.125,266.484 h 64.834 v 64.833 h -64.834 z"
         transform="translate(-156.9679,-291.6002)"
         id="path72" />
    </clipPath>
    <clipPath
       clipPathUnits="userSpaceOnUse"
       id="clipPath74">
      <path
         d="m 107.13,266.484 h 64.83 v 64.827 h -64.83 z"
         transform="translate(-134.079,-285.39071)"
         id="path74" />
    </clipPath>
    <clipPath
       clipPathUnits="userSpaceOnUse"
       id="clipPath76">
      <path
         d="m 107.13,266.484 h 64.83 v 64.827 h -64.83 z"
         transform="translate(-159.41481,-308.21091)"
         id="path76" />
    </clipPath>
    <clipPath
       clipPathUnits="userSpaceOnUse"
       id="clipPath97">
      <path
         d="m 188.739,266.484 h 64.833 v 64.833 h -64.833 z"
         transform="translate(-228.40251,-307.92571)"
         id="path97" />
    </clipPath>
    <clipPath
       clipPathUnits="userSpaceOnUse"
       id="clipPath99">
      <path
         d="m 188.743,266.484 h 64.829 v 64.827 h -64.829 z"
         transform="translate(-247.78411,-326.61891)"
         id="path99" />
    </clipPath>
    <clipPath
       clipPathUnits="userSpaceOnUse"
       id="clipPath101">
      <path
         d="m 188.743,266.484 h 64.829 v 64.827 h -64.829 z"
         transform="translate(-247.78411,-323.21321)"
         id="path101" />
    </clipPath>
    <clipPath
       clipPathUnits="userSpaceOnUse"
       id="clipPath120">
      <path
         d="m 270.353,266.484 h 64.834 v 64.833 h -64.834 z"
         transform="translate(-299.87551,-288.41351)"
         id="path120" />
    </clipPath>
    <clipPath
       clipPathUnits="userSpaceOnUse"
       id="clipPath122">
      <path
         d="m 270.357,266.484 h 64.83 v 64.827 h -64.83 z"
         transform="translate(-287.13241,-296.58521)"
         id="path122" />
    </clipPath>
    <clipPath
       clipPathUnits="userSpaceOnUse"
       id="clipPath124">
      <path
         d="m 270.357,266.484 h 64.83 v 64.827 h -64.83 z"
         transform="translate(-307.82851,-291.9554)"
         id="path124" />
    </clipPath>
    <clipPath
       clipPathUnits="userSpaceOnUse"
       id="clipPath126">
      <path
         d="m 270.353,266.484 h 64.834 v 64.833 h -64.834 z"
         transform="translate(-301.21691,-302.64941)"
         id="path126" />
    </clipPath>
    <clipPath
       clipPathUnits="userSpaceOnUse"
       id="clipPath153">
      <path
         d="m 351.967,266.484 h 64.834 v 64.833 h -64.834 z"
         transform="translate(-386.76671,-296.0063)"
         id="path153" />
    </clipPath>
    <clipPath
       clipPathUnits="userSpaceOnUse"
       id="clipPath155">
      <path
         d="m 351.967,266.484 h 64.834 v 64.833 h -64.834 z"
         transform="translate(-378.13211,-295.2368)"
         id="path155" />
    </clipPath>
    <clipPath
       clipPathUnits="userSpaceOnUse"
       id="clipPath157">
      <path
         d="m 351.967,266.484 h 64.834 v 64.833 h -64.834 z"
         transform="translate(-369.91191,-288.41351)"
         id="path157" />
    </clipPath>
    <clipPath
       clipPathUnits="userSpaceOnUse"
       id="clipPath159">
      <path
         d="m 351.971,266.484 h 64.83 v 64.827 h -64.83 z"
         transform="translate(-410.06331,-281.46701)"
         id="path159" />
    </clipPath>
    <clipPath
       clipPathUnits="userSpaceOnUse"
       id="clipPath161">
      <path
         d="m 351.971,266.484 h 64.83 v 64.827 h -64.83 z"
         transform="translate(-364.62521,-302.19451)"
         id="path161" />
    </clipPath>
    <clipPath
       clipPathUnits="userSpaceOnUse"
       id="clipPath183">
      <path
         d="m 433.585,266.484 h 64.829 v 64.827 h -64.829 z"
         transform="translate(-447.47361,-318.51471)"
         id="path183" />
    </clipPath>
    <clipPath
       clipPathUnits="userSpaceOnUse"
       id="clipPath185">
      <path
         d="m 433.585,266.484 h 64.829 v 64.827 h -64.829 z"
         transform="translate(-447.30121,-283.25371)"
         id="path185" />
    </clipPath>
    <clipPath
       clipPathUnits="userSpaceOnUse"
       id="clipPath187">
      <path
         d="m 433.58,266.484 h 64.833 v 64.833 H 433.58 Z"
         transform="translate(-479.89031,-296.50231)"
         id="path187" />
    </clipPath>
    <clipPath
       clipPathUnits="userSpaceOnUse"
       id="clipPath189">
      <path
         d="m 433.585,266.484 h 64.829 v 64.827 h -64.829 z"
         transform="translate(-465.83701,-301.62171)"
         id="path189" />
    </clipPath>
    <clipPath
       clipPathUnits="userSpaceOnUse"
       id="clipPath191">
      <path
         d="m 433.585,266.484 h 64.829 v 64.827 h -64.829 z"
         transform="translate(-489.73111,-317.42451)"
         id="path191" />
    </clipPath>
    <clipPath
       clipPathUnits="userSpaceOnUse"
       id="clipPath215">
      <path
         d="m 515.194,266.484 h 64.833 v 64.833 h -64.833 z"
         transform="translate(-559.18861,-299.99081)"
         id="path215" />
    </clipPath>
    <clipPath
       clipPathUnits="userSpaceOnUse"
       id="clipPath217">
      <path
         d="m 515.199,266.484 h 64.829 v 64.827 h -64.829 z"
         transform="translate(-536.03392,-293.49221)"
         id="path217" />
    </clipPath>
    <clipPath
       clipPathUnits="userSpaceOnUse"
       id="clipPath219">
      <path
         d="m 515.199,266.484 h 64.829 v 64.827 h -64.829 z"
         transform="translate(-559.18861,-273.4304)"
         id="path219" />
    </clipPath>
    <clipPath
       clipPathUnits="userSpaceOnUse"
       id="clipPath263">
      <path
         d="m 596.812,266.484 h 64.829 v 64.827 h -64.829 z"
         transform="translate(-640.80242,-273.4304)"
         id="path263" />
    </clipPath>
    <clipPath
       clipPathUnits="userSpaceOnUse"
       id="clipPath265">
      <path
         d="m 596.808,266.484 h 64.833 v 64.833 h -64.833 z"
         transform="translate(-640.80242,-299.99081)"
         id="path265" />
    </clipPath>
    <clipPath
       clipPathUnits="userSpaceOnUse"
       id="clipPath304">
      <path
         d="m 678.426,266.484 h 64.829 v 64.827 h -64.829 z"
         transform="translate(-722.38652,-295.45711)"
         id="path304" />
    </clipPath>
    <clipPath
       clipPathUnits="userSpaceOnUse"
       id="clipPath335">
      <path
         d="m 760.04,266.484 h 64.829 v 64.827 H 760.04 Z"
         transform="translate(-794.74629,-317.44881)"
         id="path335" />
    </clipPath>
    <clipPath
       clipPathUnits="userSpaceOnUse"
       id="clipPath338">
      <path
         d="m 760.04,166.217 h 64.829 v 64.827 H 760.04 Z"
         transform="translate(-791.29479,-170.8486)"
         id="path338" />
    </clipPath>
    <clipPath
       clipPathUnits="userSpaceOnUse"
       id="clipPath307">
      <path
         d="m 678.426,166.217 h 64.829 v 64.827 h -64.829 z"
         transform="translate(-720.65752,-217.73701)"
         id="path307" />
    </clipPath>
    <clipPath
       clipPathUnits="userSpaceOnUse"
       id="clipPath268">
      <path
         d="m 596.812,166.217 h 64.829 v 64.827 h -64.829 z"
         transform="translate(-645.43331,-212.88301)"
         id="path268" />
    </clipPath>
    <clipPath
       clipPathUnits="userSpaceOnUse"
       id="clipPath222">
      <path
         d="m 515.199,166.217 h 64.829 v 64.827 h -64.829 z"
         transform="translate(-540.08591,-180.0382)"
         id="path222" />
    </clipPath>
    <clipPath
       clipPathUnits="userSpaceOnUse"
       id="clipPath224">
      <path
         d="m 515.199,166.217 h 64.829 v 64.827 h -64.829 z"
         transform="translate(-519.35711,-177.1142)"
         id="path224" />
    </clipPath>
    <clipPath
       clipPathUnits="userSpaceOnUse"
       id="clipPath194">
      <path
         d="m 433.585,166.217 h 64.829 v 64.827 h -64.829 z"
         transform="translate(-460.20881,-180.043)"
         id="path194" />
    </clipPath>
    <clipPath
       clipPathUnits="userSpaceOnUse"
       id="clipPath196">
      <path
         d="m 433.585,166.217 h 64.829 v 64.827 h -64.829 z"
         transform="translate(-492.65831,-209.05781)"
         id="path196" />
    </clipPath>
    <clipPath
       clipPathUnits="userSpaceOnUse"
       id="clipPath165">
      <path
         d="m 351.971,166.217 h 64.83 v 64.827 h -64.83 z"
         transform="translate(-400.10161,-199.27231)"
         id="path165" />
    </clipPath>
    <clipPath
       clipPathUnits="userSpaceOnUse"
       id="clipPath167">
      <path
         d="m 351.971,166.217 h 64.83 v 64.827 h -64.83 z"
         transform="translate(-383.75371,-182.5082)"
         id="path167" />
    </clipPath>
    <clipPath
       clipPathUnits="userSpaceOnUse"
       id="clipPath129">
      <path
         d="m 270.357,166.217 h 64.83 v 64.827 h -64.83 z"
         transform="translate(-328.25781,-203.60221)"
         id="path129" />
    </clipPath>
    <clipPath
       clipPathUnits="userSpaceOnUse"
       id="clipPath105">
      <path
         d="m 188.743,166.217 h 64.829 v 64.827 h -64.829 z"
         transform="translate(-223.44981,-217.18241)"
         id="path105" />
    </clipPath>
    <clipPath
       clipPathUnits="userSpaceOnUse"
       id="clipPath79">
      <path
         d="m 107.13,166.217 h 64.83 v 64.827 h -64.83 z"
         transform="translate(-141.83601,-217.18241)"
         id="path79" />
    </clipPath>
    <clipPath
       clipPathUnits="userSpaceOnUse"
       id="clipPath47">
      <path
         d="m 25.516,166.217 h 64.83 v 64.827 h -64.83 z"
         transform="translate(-85.748005,-198.6343)"
         id="path47" />
    </clipPath>
    <clipPath
       clipPathUnits="userSpaceOnUse"
       id="clipPath50">
      <path
         d="m 25.516,65.951 h 64.83 v 64.827 h -64.83 z"
         transform="translate(-84.589405,-107.6362)"
         id="path50" />
    </clipPath>
    <clipPath
       clipPathUnits="userSpaceOnUse"
       id="clipPath52">
      <path
         d="m 25.511,65.951 h 64.834 v 64.833 H 25.511 Z"
         transform="translate(-46.930001,-119.27461)"
         id="path52" />
    </clipPath>
    <clipPath
       clipPathUnits="userSpaceOnUse"
       id="clipPath83">
      <path
         d="m 107.13,65.951 h 64.83 v 64.827 h -64.83 z"
         transform="translate(-166.2082,-76.054804)"
         id="path83" />
    </clipPath>
    <clipPath
       clipPathUnits="userSpaceOnUse"
       id="clipPath108">
      <path
         d="m 188.743,65.951 h 64.829 v 64.827 h -64.829 z"
         transform="translate(-247.822,-76.054804)"
         id="path108" />
    </clipPath>
    <clipPath
       clipPathUnits="userSpaceOnUse"
       id="clipPath132">
      <path
         d="m 270.353,65.951 h 64.834 v 64.833 h -64.834 z"
         transform="translate(-330.85161,-94.000805)"
         id="path132" />
    </clipPath>
    <clipPath
       clipPathUnits="userSpaceOnUse"
       id="clipPath134">
      <path
         d="m 270.353,65.951 h 64.834 v 64.833 h -64.834 z"
         transform="translate(-319.48901,-126.0751)"
         id="path134" />
    </clipPath>
    <clipPath
       clipPathUnits="userSpaceOnUse"
       id="clipPath136">
      <path
         d="m 270.353,65.951 h 64.834 v 64.833 h -64.834 z"
         transform="translate(-287.73531,-121.577)"
         id="path136" />
    </clipPath>
    <clipPath
       clipPathUnits="userSpaceOnUse"
       id="clipPath138">
      <path
         d="m 270.353,65.951 h 64.834 v 64.833 h -64.834 z"
         transform="translate(-287.73531,-124.9891)"
         id="path138" />
    </clipPath>
    <clipPath
       clipPathUnits="userSpaceOnUse"
       id="clipPath170">
      <path
         d="m 351.971,65.951 h 64.83 v 64.827 h -64.83 z"
         transform="translate(-391.39871,-93.230502)"
         id="path170" />
    </clipPath>
    <clipPath
       clipPathUnits="userSpaceOnUse"
       id="clipPath199">
      <path
         d="m 433.585,65.951 h 64.829 v 64.827 h -64.829 z"
         transform="translate(-485.70341,-108.9122)"
         id="path199" />
    </clipPath>
    <clipPath
       clipPathUnits="userSpaceOnUse"
       id="clipPath227">
      <path
         d="m 515.194,65.951 h 64.833 v 64.833 h -64.833 z"
         transform="translate(-527.73721,-119.957)"
         id="path227" />
    </clipPath>
    <clipPath
       clipPathUnits="userSpaceOnUse"
       id="clipPath229">
      <path
         d="m 515.194,65.951 h 64.833 v 64.833 h -64.833 z"
         transform="translate(-548.95792,-97.887605)"
         id="path229" />
    </clipPath>
    <clipPath
       clipPathUnits="userSpaceOnUse"
       id="clipPath231">
      <path
         d="m 515.199,65.951 h 64.829 v 64.827 h -64.829 z"
         transform="translate(-541.59011,-105.25531)"
         id="path231" />
    </clipPath>
    <clipPath
       clipPathUnits="userSpaceOnUse"
       id="clipPath233">
      <path
         d="m 515.199,65.951 h 64.829 v 64.827 h -64.829 z"
         transform="translate(-574.23931,-122.6725)"
         id="path233" />
    </clipPath>
    <clipPath
       clipPathUnits="userSpaceOnUse"
       id="clipPath235">
      <path
         d="m 515.194,65.951 h 64.833 v 64.833 h -64.833 z"
         transform="translate(-574.23931,-126.0782)"
         id="path235" />
    </clipPath>
    <clipPath
       clipPathUnits="userSpaceOnUse"
       id="clipPath272">
      <path
         d="m 596.812,65.951 h 64.829 v 64.827 h -64.829 z"
         transform="translate(-629.61832,-99.3236)"
         id="path272" />
    </clipPath>
    <clipPath
       clipPathUnits="userSpaceOnUse"
       id="clipPath274">
      <path
         d="m 596.812,65.951 h 64.829 v 64.827 h -64.829 z"
         transform="translate(-640.77892,-109.13551)"
         id="path274" />
    </clipPath>
    <clipPath
       clipPathUnits="userSpaceOnUse"
       id="clipPath276">
      <path
         d="m 596.812,65.951 h 64.829 v 64.827 h -64.829 z"
         transform="translate(-658.04402,-81.115805)"
         id="path276" />
    </clipPath>
    <clipPath
       clipPathUnits="userSpaceOnUse"
       id="clipPath278">
      <path
         d="m 596.812,65.951 h 64.829 v 64.827 h -64.829 z"
         transform="translate(-603.29201,-83.384705)"
         id="path278" />
    </clipPath>
    <clipPath
       clipPathUnits="userSpaceOnUse"
       id="clipPath311">
      <path
         d="m 678.426,65.951 h 64.829 v 64.827 h -64.829 z"
         transform="translate(-706.98242,-111.9458)"
         id="path311" />
    </clipPath>
    <clipPath
       clipPathUnits="userSpaceOnUse"
       id="clipPath313">
      <path
         d="m 678.426,65.951 h 64.829 v 64.827 h -64.829 z"
         transform="translate(-740.94002,-87.777102)"
         id="path313" />
    </clipPath>
    <clipPath
       clipPathUnits="userSpaceOnUse"
       id="clipPath343">
      <path
         d="m 760.04,65.951 h 64.829 v 64.827 H 760.04 Z"
         transform="translate(-792.17724,-87.656105)"
         id="path343" />
    </clipPath>
    <clipPath
       clipPathUnits="userSpaceOnUse"
       id="clipPath345">
      <path
         d="m 760.04,65.951 h 64.829 v 64.827 H 760.04 Z"
         transform="translate(-821.39612,-120.87481)"
         id="path345" />
    </clipPath>
    <clipPath
       clipPathUnits="userSpaceOnUse"
       id="clipPath376">
      <path
         d="m 25.516,467.017 h 64.83 v 64.827 h -64.83 z"
         transform="translate(-83.398802,-470.49011)"
         id="path376" />
    </clipPath>
    <clipPath
       clipPathUnits="userSpaceOnUse"
       id="clipPath378">
      <path
         d="M 25.511,467.017 H 90.345 V 531.85 H 25.511 Z"
         transform="translate(-83.398802,-473.89591)"
         id="path378" />
    </clipPath>
    <clipPath
       clipPathUnits="userSpaceOnUse"
       id="clipPath380">
      <path
         d="M 25.511,467.017 H 90.345 V 531.85 H 25.511 Z"
         id="path380" />
    </clipPath>
    <clipPath
       clipPathUnits="userSpaceOnUse"
       id="clipPath395">
      <path
         d="m 107.13,467.017 h 64.83 v 64.827 h -64.83 z"
         transform="translate(-161.53943,-492.42351)"
         id="path395" />
    </clipPath>
    <clipPath
       clipPathUnits="userSpaceOnUse"
       id="clipPath397">
      <path
         d="m 107.13,467.017 h 64.83 v 64.827 h -64.83 z"
         transform="translate(-144.44693,-481.47331)"
         id="path397" />
    </clipPath>
    <clipPath
       clipPathUnits="userSpaceOnUse"
       id="clipPath400">
      <path
         d="m 107.125,467.017 h 64.834 v 64.833 h -64.834 z"
         transform="translate(-158.9373,-524.25751)"
         id="path400" />
    </clipPath>
    <clipPath
       clipPathUnits="userSpaceOnUse"
       id="clipPath402">
      <path
         d="m 107.125,467.017 h 64.834 v 64.833 h -64.834 z"
         transform="translate(-133.82858,-497.13341)"
         id="path402" />
    </clipPath>
  </defs>
  <g
     inkscape:label="Layer 1"
     inkscape:groupmode="layer"
     id="layer1"
     transform="translate(-3682.4711,3417.8876)">
    <g
       id="g581"
       transform="matrix(0.26458333,0,0,0.26458333,3342.3863,-3440.265)">
      <path
         id="path394"
         d="m 0,0 c -0.603,0 -1.094,-0.491 -1.094,-1.094 0,-0.603 0.491,-1.094 1.094,-1.094 0.603,0 1.094,0.491 1.094,1.094 C 1.094,-0.491 0.603,0 0,0"
         style="fill:#190900;fill-opacity:1;fill-rule:nonzero;stroke:none"
         transform="matrix(1.3333333,0,0,-1.3333333,1357.9059,137.13667)"
         clip-path="url(#clipPath395)" />
      <path
         id="path396"
         d="m 0,0 c -0.108,-0.343 -0.298,-0.666 -0.57,-0.938 l -9.599,-9.599 c -0.904,-0.904 -2.37,-0.904 -3.274,0 -0.905,0.904 -0.905,2.371 0,3.275 L -6.181,0 h -13.548 l -10.537,-10.537 c -0.904,-0.904 -2.37,-0.904 -3.274,0 -0.905,0.905 -0.905,2.371 0,3.275 L -26.278,0 h -5.255 v 47.423 h 59.045 v 2.954 H -37.321 V -14.456 H 27.512 V 0 Z"
         style="fill:#190900;fill-opacity:1;fill-rule:nonzero;stroke:none"
         transform="matrix(1.3333333,0,0,-1.3333333,1335.1159,151.73693)"
         clip-path="url(#clipPath397)" />
      <path
         id="path398"
         d="M 0,0 H 12.497 L 6.248,6.248 Z"
         style="fill:#190900;fill-opacity:1;fill-rule:nonzero;stroke:none"
         transform="matrix(1.3333333,0,0,-1.3333333,1310.444,150.1032)" />
      <path
         id="path399"
         d="m 0,0 c -0.91,0 -1.765,-0.354 -2.408,-0.997 -0.643,-0.644 -0.998,-1.499 -0.998,-2.409 0,-0.909 0.355,-1.765 0.998,-2.408 0.643,-0.643 1.498,-0.997 2.408,-0.997 0.91,0 1.765,0.354 2.408,0.997 0.643,0.643 0.998,1.499 0.998,2.408 0,0.91 -0.355,1.765 -0.998,2.409 C 1.765,-0.354 0.91,0 0,0"
         style="fill:#190900;fill-opacity:1;fill-rule:nonzero;stroke:none"
         transform="matrix(1.3333333,0,0,-1.3333333,1354.4364,94.691333)"
         clip-path="url(#clipPath400)" />
      <path
         id="path401"
         d="M 0,0 6.077,6.108 -7.595,6.105 c -0.64,0 -1.219,0.259 -1.638,0.678 -0.419,0.419 -0.678,0.998 -0.678,1.637 0,0.64 0.259,1.219 0.678,1.638 0.419,0.419 0.998,0.678 1.638,0.678 l 33.951,0.003 5.433,5.433 -3.868,3.868 c -0.78,-0.597 -1.754,-0.952 -2.812,-0.952 -1.279,0 -2.437,0.518 -3.275,1.356 -0.838,0.838 -1.356,1.996 -1.356,3.274 0,1.279 0.518,2.437 1.356,3.275 0.838,0.838 1.996,1.356 3.275,1.356 1.279,0 2.436,-0.518 3.274,-1.356 0.838,-0.838 1.357,-1.996 1.357,-3.275 0,-1.057 -0.356,-2.032 -0.953,-2.812 l 3.925,-3.925 c 0.356,0.204 0.754,0.307 1.152,0.307 0.592,0 1.185,-0.226 1.637,-0.678 0.452,-0.452 0.678,-1.045 0.678,-1.638 0,-0.592 -0.226,-1.185 -0.678,-1.637 L 28.952,6.786 C 28.533,6.367 27.954,6.108 27.315,6.108 H 20.843 L 7.368,-7.368 Z m 14.397,20.824 c 2.238,0 4.052,-1.814 4.052,-4.052 0,-2.238 -1.814,-4.052 -4.052,-4.052 -2.238,0 -4.052,1.814 -4.052,4.052 0,2.238 1.814,4.052 4.052,4.052 M 27.711,-8.123 c -1.281,0 -2.32,1.038 -2.32,2.319 0,1.281 1.039,2.319 2.32,2.319 1.281,0 2.319,-1.038 2.319,-2.319 0,-1.281 -1.038,-2.319 -2.319,-2.319 M 10.666,-14.435 H 38.13 v 44.973 h -57.819 v -44.973 h 5.254 l 1.337,1.337 11.461,11.461 11.686,-11.686 c 0.317,-0.318 0.523,-0.704 0.617,-1.112"
         style="fill:#190900;fill-opacity:1;fill-rule:nonzero;stroke:none"
         transform="matrix(1.3333333,0,0,-1.3333333,1320.9581,130.8568)"
         clip-path="url(#clipPath402)" />
    </g>
  </g>
</svg>
