<svg xmlns="http://www.w3.org/2000/svg" width="900" height="600" viewBox="0 0 238.12499 158.75"><path fill="#fff" d="M0 0h238.125v158.75H0z"/><g fill-rule="evenodd"><path d="M120.683 81.515c-5.53 19.304 5.322 39.604 24.593 45.653 19.22 6.033 39.66-4.366 46.207-23.277.017-.042.04-.086.057-.13l.06-.187c.004-.01.018-.034.024-.045.014-.042.025-.083.04-.125l-.006-.018c0-.005.013-.017.012-.022l-.005-.018c.02-.06.063-.115.082-.175 0-.007.006-.033.007-.04l.06-.188a18.502 18.502 0 0 0 .146-10.862c-2.873-9.847-13.183-15.5-23.03-12.627a18.565 18.565 0 0 0-12.308 11.587l-.013.022c-.025.068-.05.142-.072.21-.004.013-.003.028-.007.04-.006.023-.013.04-.02.063-.006.022-.01.04-.02.063-.013.048-.036.1-.05.147-.002.004.006.013.005.018-1.775 5.774-6.32 10.56-12.552 12.378-9.85 2.874-20.177-2.772-23.047-12.622a18.5 18.5 0 0 1-.163-9.843z" fill="#0059d0"/><path d="M46.863 81.515c-5.53 19.304 5.322 39.604 24.592 45.653 19.222 6.033 39.66-4.366 46.208-23.277.016-.042.04-.086.056-.13.02-.06.038-.127.058-.187l.025-.045c.014-.042.025-.083.04-.125l-.006-.018c0-.005.013-.017.013-.022 0-.002-.006-.015-.005-.018.02-.06.062-.115.08-.175.003-.007.008-.033.01-.04l.058-.188a18.502 18.502 0 0 0 .147-10.862c-2.873-9.847-13.183-15.5-23.03-12.627A18.565 18.565 0 0 0 82.8 91.04c0 .007-.01.015-.01.022-.026.068-.05.142-.073.21-.004.013-.003.028-.007.04-.006.023-.013.04-.02.063l-.02.063c-.014.048-.036.1-.05.147-.002.004.005.013.004.018-1.774 5.774-6.32 10.56-12.552 12.378-9.85 2.874-20.176-2.772-23.047-12.622a18.5 18.5 0 0 1-.162-9.843z" fill="#fc3517"/><path d="M78.253 32.68c-5.53 19.303 5.322 39.603 24.592 45.65 19.222 6.035 39.66-4.364 46.208-23.275.016-.043.04-.087.057-.13.02-.06.038-.128.06-.188l.023-.045.04-.125-.005-.018c0-.006.012-.018.012-.023 0-.002-.006-.015-.005-.018.02-.06.062-.116.082-.176 0-.007.006-.033.007-.04l.06-.188a18.502 18.502 0 0 0 .146-10.862c-2.873-9.847-13.183-15.5-23.03-12.627a18.565 18.565 0 0 0-12.31 11.587c0 .007-.01.015-.01.022-.026.068-.05.142-.072.21-.005.013-.003.028-.008.04-.006.023-.013.04-.02.063-.007.02-.012.04-.02.06-.013.05-.036.1-.05.15-.002.003.006.012.004.017-1.774 5.774-6.32 10.56-12.55 12.378-9.85 2.873-20.178-2.773-23.05-12.623a18.5 18.5 0 0 1-.16-9.843z" fill="#309f3d"/></g></svg>