<svg width="35" height="35" viewBox="0 0 35 35" fill="none" xmlns="http://www.w3.org/2000/svg">
<path d="M6.05745 18.4689C6.20272 18.2045 6.28988 18.0448 6.41771 17.8123C8.65914 18.9309 10.8555 20.0276 13.0824 21.1389C13.5052 20.783 13.909 20.4402 14.429 20.0015C11.0211 18.2873 7.71783 16.627 4.3811 14.9492C4.47698 14.7008 4.55252 14.5032 4.6542 14.2345C5.92817 14.8678 7.15275 15.4765 8.37733 16.0837C9.06588 16.4251 9.73555 16.9683 10.4532 17.0424C11.162 17.1151 11.9218 16.717 12.6568 16.5166C13.2437 16.3568 13.8335 16.2057 14.4102 16.0154C14.9404 15.8396 15.3965 15.873 15.8134 16.2856C16.0575 16.5267 16.348 16.7228 16.7402 17.0381C15.5708 17.5567 14.5133 18.0259 13.3701 18.5328C13.6301 18.6912 13.8 18.7769 13.9511 18.8873C14.7719 19.4872 15.5272 19.4843 16.3756 18.8466C16.9784 18.3948 17.7309 18.1421 18.5299 17.7441C18.1391 17.2734 17.7817 16.8434 17.4244 16.4149C16.8085 15.6784 16.1824 14.9477 15.5752 14.204C14.9723 13.466 15.119 12.7092 16.011 12.3489C16.8666 12.0032 17.773 11.7853 18.7768 11.4744C17.9517 10.8295 17.1818 10.2266 16.4119 9.62523C16.1098 9.38845 15.8032 9.15602 15.5055 8.91343C15.0479 8.5401 15.0508 8.53575 15.1873 7.71065C16.1301 8.42825 17.0394 9.12262 17.9503 9.81698C18.1275 9.95208 18.3105 10.0843 18.4761 10.2339C19.3709 11.0328 20.3355 11.5631 21.5935 11.7185C22.5726 11.8391 23.5255 12.3489 24.4392 12.792C25.1684 13.1464 25.2905 13.4312 25.0333 14.1938C24.7777 14.9535 25.0174 15.3515 25.626 15.7844C26.8215 16.6342 27.9532 17.5726 29.1051 18.4718C29.0296 18.8597 28.97 19.1691 28.9134 19.4625C27.1368 20.5012 24.7457 19.9317 23.7608 18.5851C23.264 17.9053 23.049 17.1543 22.9938 16.351C22.9459 15.6552 22.9837 14.9535 22.9837 14.1633C21.5049 13.5663 19.9462 13.2932 18.2263 13.9251C19.2039 15.0654 20.1379 16.1563 21.072 17.2472C21.1766 17.3693 21.3015 17.4753 21.3887 17.6075C21.8738 18.3396 21.579 19.095 20.7001 19.4233C19.7196 19.7908 18.7434 20.1729 17.7658 20.5477C17.7629 20.6232 17.76 20.7002 17.757 20.7757C19.3898 21.6037 21.0226 22.4303 22.6612 23.2627C22.1644 23.8626 22.1353 23.8844 21.5949 23.6127C20.3079 22.9678 19.0078 22.3446 17.7556 21.6357C17.0496 21.2362 16.47 21.1505 15.8889 21.7897C15.7655 21.9262 15.597 22.0206 15.321 22.2327C18.3628 23.8539 21.3872 25.2644 24.384 26.8274C24.0891 27.3242 23.7884 27.4085 23.2785 27.1514C18.5952 24.785 13.8974 22.4463 9.20679 20.093C8.18122 19.5787 7.16582 19.0427 6.05891 18.4718L6.05745 18.4689ZM24.8561 16.1738C24.8808 17.8792 26.1533 18.8408 27.4564 18.1668C26.5906 17.5029 25.7539 16.8623 24.8561 16.1738Z" fill="#F4F3F4"/>
<path d="M28.768 14.2257C28.7579 15.0581 28.1986 15.6769 27.4461 15.6871C26.6443 15.6987 25.9848 14.9651 26.0182 14.0994C26.0501 13.2873 26.6457 12.6903 27.4156 12.7034C28.2335 12.7165 28.7811 13.3324 28.7695 14.2272L28.768 14.2257Z" fill="#F4F3F4"/>
</svg>
