<svg width="35" height="35" viewBox="0 0 35 35" fill="none" xmlns="http://www.w3.org/2000/svg">
<path d="M4.73419 10.3414C5.87742 10.9805 6.9117 11.5209 7.90822 12.1238C11.4701 14.278 14.833 16.717 17.9678 19.4509C18.8379 20.2092 19.849 20.6348 20.844 21.1214C22.0962 21.733 23.3774 22.2879 24.6485 22.8603C24.8344 22.9445 25.0349 22.9939 25.3487 23.0985C25.0857 22.0061 24.5032 21.2057 23.9759 20.3951C22.6627 18.3759 21.03 16.6473 19.0616 15.2513C18.665 14.9709 18.4849 14.6528 18.5169 14.1633C18.5532 13.6113 18.5256 13.0549 18.5256 12.4259C19.4872 12.6787 20.1104 13.3048 20.783 13.8132C23.2423 15.6682 25.1961 17.9808 26.6938 20.6668C27.4347 21.9959 27.9881 23.4137 28.3905 24.8852C28.5285 25.3879 28.4166 25.7975 28.0041 26.1287C27.6133 26.4425 27.2356 26.4076 26.7984 26.1955C23.9527 24.8199 21.0953 23.4689 18.2467 22.0976C17.9721 21.9654 17.7078 21.7838 17.4826 21.5776C14.4349 18.7899 11.1999 16.2406 7.78329 13.9207C7.21966 13.5372 6.67492 13.0883 6.05609 12.8341C4.95208 12.3794 4.85912 11.4744 4.73565 10.3414H4.73419Z" fill="#F4F3F4"/>
<path d="M13.0622 11.1432C13.0578 12.0308 12.4811 12.6395 11.6487 12.6351C10.783 12.6293 10.0407 11.839 10.0465 10.9282C10.0508 10.0944 10.6973 9.41894 11.4875 9.4233C12.3475 9.42621 13.068 10.2121 13.0636 11.1432H13.0622Z" fill="#F4F3F4"/>
<path d="M15.6828 14.0253C14.8519 14.0427 14.0151 13.222 13.9904 12.362C13.9687 11.5761 14.647 10.86 15.4286 10.8425C16.2798 10.8237 17.086 11.6124 17.1093 12.4869C17.1296 13.2815 16.4556 14.0078 15.6813 14.0238L15.6828 14.0253Z" fill="#F4F3F4"/>
<path d="M6.94659 19.4378C7.02358 19.2083 7.0875 19.018 7.19209 18.7057C10.0611 20.061 12.8705 21.3887 15.7569 22.7542C15.3356 23.1217 14.9826 23.2597 14.5265 23.0404C12.0163 21.8419 9.50179 20.6508 6.94659 19.4378Z" fill="#F4F3F4"/>
<path d="M28.2641 28.6229C27.7906 28.9294 27.4739 29.1255 27.0396 28.9192C24.5875 27.7484 22.1325 26.5848 19.679 25.4169C19.5701 25.3646 19.4713 25.2862 19.3231 25.1917C19.4117 25 19.496 24.8184 19.6253 24.5395C22.4971 25.8977 25.324 27.2327 28.2641 28.6229Z" fill="#F4F3F4"/>
</svg>
