<svg width="35" height="35" viewBox="0 0 35 35" fill="none" xmlns="http://www.w3.org/2000/svg">
<path d="M21.1723 12.0264C19.4523 11.7664 18.0418 12.195 16.8681 13.3062C16.3625 13.7841 15.8541 14.1342 15.1467 14.2446C12.7469 14.6223 10.353 15.0363 7.96047 15.4576C7.51015 15.5375 7.22834 15.4605 7.09615 14.8896C8.21759 14.695 9.30416 14.509 10.3893 14.3187C11.7446 14.0805 13.1028 13.8611 14.4494 13.5808C14.7196 13.5241 14.9898 13.267 15.1758 13.0346C16.2986 11.6386 17.6641 10.6334 19.4683 10.353C20.9791 10.1177 22.4433 10.2978 23.8379 10.9631C24.2141 11.1418 24.477 11.3669 24.4799 11.8115C24.4828 12.2458 24.2519 12.5262 23.8814 12.7048C22.651 13.299 21.6037 14.1226 20.69 15.1366C19.9346 15.9747 19.3855 16.932 18.8829 17.9285C18.7275 18.2365 18.5386 18.5416 18.3106 18.7987C17.1484 20.1162 15.9689 21.4163 14.6819 22.8486C16.55 23.0941 18.2946 23.2481 19.9753 23.3062C20.52 21.8565 21.0313 20.4925 21.5703 19.0558C21.3625 18.8161 21.1316 18.4646 20.8207 18.2104C20.3283 17.8065 20.3762 17.3736 20.6261 16.8885C20.6929 16.7592 20.7641 16.6328 20.8948 16.3945C21.733 17.0758 22.5479 17.7179 23.3382 18.389C23.6708 18.6723 23.6418 19.0442 23.4849 19.4378C23.0956 20.4169 22.7295 21.4047 22.362 22.3911C22.2516 22.6903 22.1673 22.9983 22.0337 23.4224C24.5613 23.6273 27.0162 23.8248 29.5133 24.0267C29.3695 24.5831 29.034 24.6935 28.5778 24.6586C25.0436 24.3899 21.5093 24.1284 17.9735 23.8669C16.9509 23.7914 15.9282 23.713 14.9041 23.6534C13.9323 23.5968 13.9323 23.6069 13.2365 24.5991C16.3262 25.475 19.3768 26.3408 22.4971 27.2255C22.224 27.6976 21.8739 27.7775 21.4541 27.6642C20.8047 27.4884 20.1583 27.2966 19.5104 27.1151C15.9587 26.1185 12.407 25.1264 8.85675 24.1255C7.87477 23.8481 6.90004 23.543 5.87738 23.2365C5.95873 23.0055 6.02264 22.8254 6.10689 22.5843C8.24373 23.1871 10.3385 23.7783 12.5624 24.4059C12.3925 23.9265 12.3024 23.5939 12.1586 23.2873C11.9843 22.914 12.0613 22.6525 12.3416 22.3489C13.7725 20.8004 15.1801 19.2301 16.5906 17.6613C16.7649 17.4666 16.9407 17.2589 17.054 17.0265C17.9648 15.1438 19.233 13.5619 20.9224 12.3213C20.9892 12.2719 21.0328 12.1921 21.1737 12.0206L21.1723 12.0264Z" fill="#F4F3F4"/>
<path d="M26.2856 11.9858C25.6304 11.9669 25.0886 11.3931 25.0843 10.7133C25.0799 9.95643 25.7278 9.28531 26.4672 9.28096C27.1964 9.2766 27.715 9.8315 27.6932 10.5912C27.6714 11.3597 27.0177 12.0076 26.2856 11.9858Z" fill="#F4F3F4"/>
</svg>
