<svg width="35" height="35" viewBox="0 0 35 35" fill="none" xmlns="http://www.w3.org/2000/svg">
<path d="M25.8353 19.8082C25.4852 20.199 25.1714 20.5505 24.7908 20.9747C21.7519 19.5918 20.2934 17.0555 19.4567 14.0107C17.0366 14.432 15.3675 15.8091 14.0863 17.7164C13.6636 18.3454 13.3846 19.0688 12.9953 19.7225C12.7905 20.0668 12.5537 20.4736 12.224 20.6464C9.76174 21.9335 7.27338 23.1697 4.79226 24.4189C4.67314 24.4785 4.5366 24.5061 4.28529 24.5903C4.18506 23.6926 4.217 22.8515 4.27366 21.9553C5.13507 21.5195 5.99796 21.0837 6.86228 20.6464C8.00841 20.0654 9.14873 19.4741 10.3021 18.9076C10.6624 18.7304 10.8934 18.4936 11.0749 18.1246C12.0642 16.1258 13.4326 14.4465 15.3442 13.2525C16.7882 12.3504 18.3512 11.8289 20.0726 11.8492C21.0328 11.8608 21.2129 12.0119 21.3916 12.946C21.64 14.2446 21.9189 15.5215 22.6075 16.6894C23.3149 17.8893 24.2301 18.8422 25.4459 19.5119C25.5592 19.5744 25.6551 19.6688 25.8367 19.8082H25.8353Z" fill="#F4F3F4"/>
<path d="M17.9953 20.0842C16.9872 19.7458 15.9863 19.4088 14.8881 19.0398C15.077 18.5372 15.228 18.1319 15.4285 17.5988C16.5238 17.792 17.5799 17.9474 18.6214 18.1697C20.6522 18.6025 20.613 18.6113 20.1743 20.6101C19.8024 22.301 19.5264 24.0136 19.1952 25.7917H17.0177C16.9131 23.8262 17.5697 22.0206 17.9968 20.0828L17.9953 20.0842Z" fill="#F4F3F4"/>
<path d="M27.5697 23.7362C27.6089 23.1333 27.4041 22.8908 26.9218 22.8966C26.6444 22.8995 26.3669 22.8951 26.0895 22.8908C25.6232 22.8849 25.5288 22.5842 25.5128 22.1121C25.8861 22.1121 26.2333 22.1543 26.5674 22.1049C27.5247 21.9625 28.1566 22.2923 28.4646 23.2423C28.5285 23.4384 28.7507 23.681 28.9381 23.7188C29.4829 23.8306 29.554 24.1836 29.5686 24.6354C29.6049 25.658 29.4349 25.8541 28.4021 25.8672C27.3969 25.8788 26.3902 25.8803 25.385 25.8716C24.4059 25.8643 24.1328 25.6145 24.1444 24.7763C24.1546 23.9686 24.3855 23.7565 25.3239 23.7405C26.0721 23.7275 26.8216 23.7376 27.5683 23.7376L27.5697 23.7362Z" fill="#F4F3F4"/>
<path d="M23.8146 9.81841C24.6266 9.83149 25.1931 10.446 25.196 11.3161C25.199 12.2923 24.5453 12.9692 23.5952 12.975C22.7483 12.9808 22.0888 12.2995 22.1281 11.4584C22.1687 10.5869 22.9735 9.80534 23.8146 9.81841Z" fill="#F4F3F4"/>
</svg>
