<svg width="35" height="35" viewBox="0 0 35 35" fill="none" xmlns="http://www.w3.org/2000/svg">
<path d="M19.0761 13.7522C16.9843 12.4332 15.3501 10.8338 14.1996 8.63162C14.5685 8.344 14.923 8.068 15.2905 7.78183C15.7989 8.41809 16.2478 9.01948 16.7373 9.58601C17.7774 10.7859 19.0238 11.7156 20.4823 12.3547C20.7118 12.455 20.9398 12.5625 21.1577 12.686C21.871 13.0854 21.9872 13.5779 21.4701 14.2083C20.7074 15.1395 19.737 15.8338 18.726 16.4686C17.545 17.2109 16.2594 17.699 14.8925 17.9503C12.4273 18.4036 10.2455 17.6511 8.24954 16.2682C7.61038 15.8251 7.03514 15.2789 6.47151 14.7371C6.04589 14.3274 5.68417 13.851 5.22949 13.3324C5.77278 12.8617 6.28118 12.4216 6.84045 11.9364C7.33871 12.4535 7.79632 12.9547 8.2815 13.4283C9.37389 14.493 10.5941 15.3487 12.1165 15.6886C14.4102 16.1984 16.4497 15.552 18.3541 14.3086C18.5604 14.1735 18.7464 14.0079 19.0746 13.7522H19.0761Z" fill="#F4F3F4"/>
<path d="M20.6653 27.7426C21.1287 27.7644 21.4977 27.7818 21.9291 27.8022C21.8536 28.222 21.7272 28.5343 21.2594 28.5358C19.8533 28.5401 18.4486 28.5372 17.0177 28.5372C17.0526 27.4986 17.8632 27.8951 18.4181 27.6932C18.405 27.4085 18.405 27.1049 18.3745 26.8056C18.1406 24.5686 17.8559 22.3359 17.6787 20.0944C17.5537 18.514 17.3983 18.7987 18.9788 17.9445C19.7022 21.1665 20.2745 24.3899 20.6668 27.7412L20.6653 27.7426Z" fill="#F4F3F4"/>
<path d="M22.3373 14.9695C22.5101 14.5541 22.6874 14.1255 22.8806 13.6592C25.0232 14.1459 27.1238 14.6557 29.2824 14.1589C29.3753 14.326 29.4465 14.4291 29.493 14.5439C29.5613 14.7124 29.6136 14.8896 29.6673 15.0494C28.1653 16.1447 23.9163 16.1011 22.3373 14.9695Z" fill="#F4F3F4"/>
<path d="M24.0935 10.7815C24.108 11.5921 23.5546 12.195 22.7948 12.1935C22.0206 12.1935 21.4076 11.5674 21.3742 10.7467C21.3407 9.89834 21.8346 9.32164 22.6147 9.2984C23.4355 9.27371 24.0775 9.91867 24.0935 10.7815Z" fill="#F4F3F4"/>
</svg>
