<svg width="35" height="35" viewBox="0 0 35 35" fill="none" xmlns="http://www.w3.org/2000/svg">
<path d="M27.1411 25.6275C27.1585 25.9428 27.1818 26.1621 27.1789 26.3815C27.1774 26.5354 27.1411 26.688 27.1063 26.9524C25.8977 26.6255 24.7341 26.3321 23.588 25.982C23.3468 25.9079 23.126 25.6595 22.9662 25.4387C21.8273 23.8698 20.7088 22.2865 19.5787 20.7103C19.3579 20.4038 19.1211 20.1089 18.8146 19.7066C17.6147 21.8739 16.4656 23.9483 15.273 26.104C15.7103 26.1592 16.0429 26.1999 16.4075 26.2464C16.4555 26.7417 16.2405 26.9538 15.7713 26.9524C14.3724 26.9494 12.9735 26.9524 11.5383 26.9524C11.5179 26.4977 11.6298 26.1723 12.0758 26.2028C12.6408 26.2406 12.8587 25.8934 13.081 25.4895C14.2896 23.2873 15.5098 21.0909 16.714 18.8873C17.1774 18.0389 17.1789 17.2661 16.5441 16.4236C15.0726 14.4683 13.6925 12.4433 12.2414 10.4009C12.8907 9.69639 13.7579 9.41894 14.5714 9.15456C17.8326 8.09268 20.9049 8.56334 23.755 10.4823C24.1385 10.7409 24.3404 11.0648 24.2823 11.5209C24.2242 11.9829 23.9337 12.2472 23.4979 12.3809C21.2942 13.0535 20.1103 14.6761 19.554 16.7896C18.9366 19.1357 18.8814 18.3295 20.196 20.2368C21.1708 21.6502 22.2007 23.0259 23.1754 24.4407C23.4325 24.8141 23.71 25.0043 24.1617 25.0712C25.1336 25.215 26.0952 25.4285 27.1426 25.629L27.1411 25.6275ZM17.2893 16.1694C17.8326 15.1496 18.219 14.1938 18.8073 13.3861C19.4101 12.5581 20.2135 11.8754 20.9717 11.0837C18.5618 10.1293 16.1954 10.0712 13.739 11.181C14.9578 12.8922 16.1126 14.5148 17.2878 16.1679L17.2893 16.1694Z" fill="#F4F3F4"/>
<path d="M15.0363 16.6749C15.4517 17.0671 15.7713 17.3664 16.1708 17.7426C15.6929 18.2481 15.2077 18.6926 14.8039 19.2025C13.7623 20.5201 12.4811 21.1883 10.7466 21.2667C9.40584 21.3277 8.08393 21.7998 6.75331 22.0889C6.53832 22.1354 6.32333 22.1833 6.02844 22.2487V19.9811C6.95087 19.5962 7.98661 19.464 9.00781 19.2984C9.8213 19.1662 10.6449 19.0645 11.4671 19.0296C12.1194 19.002 12.6075 18.7202 13.0738 18.3178C13.6955 17.7818 14.3303 17.2632 15.0363 16.672V16.6749Z" fill="#F4F3F4"/>
<path d="M27.9662 10.0203C27.9662 10.9529 27.314 11.6459 26.457 11.6255C25.6769 11.6066 25.0827 10.9355 25.1016 10.093C25.1205 9.23301 25.7713 8.55462 26.5848 8.5459C27.4201 8.53719 27.9662 9.1197 27.9662 10.0203Z" fill="#F4F3F4"/>
</svg>
