<svg width="35" height="35" viewBox="0 0 35 35" fill="none" xmlns="http://www.w3.org/2000/svg">
<path d="M17.3576 19.5177C17.0569 19.8446 16.8433 20.077 16.5833 20.3603C15.4561 19.477 14.3477 18.6113 13.2422 17.7426C12.131 16.8681 11.0211 15.9936 9.91568 15.1119C9.69053 14.9317 9.47117 14.7385 9.28088 14.5221C8.87268 14.0572 8.82184 13.3396 9.13416 12.8152C9.44793 12.2894 10.2164 11.9596 10.8047 12.1572C11.133 12.2676 11.4511 12.4448 11.7329 12.6496C15.2164 15.1816 18.6577 17.7716 22.1804 20.2455C24.2794 21.7199 26.502 23.02 28.6664 24.4C28.7434 24.4494 28.8073 24.5163 28.9874 24.6688C28.5967 24.8998 28.2568 25.1031 27.9139 25.305C27.5566 25.5157 27.1963 25.722 26.8056 25.95C23.495 24.0747 20.4575 21.8202 17.3576 19.5192V19.5177Z" fill="#F4F3F4"/>
<path d="M7.26757 17.8051C7.29807 17.67 7.29952 17.5668 7.3431 17.4869C7.40411 17.378 7.49563 17.2879 7.6133 17.1412C13.5009 20.2833 19.3768 23.4195 25.3588 26.611C24.4799 27.0424 23.8117 27.0686 23.0491 26.6357C19.3957 24.5599 15.7118 22.5363 12.041 20.4896C10.446 19.5991 8.85676 18.6984 7.26611 17.8036L7.26757 17.8051Z" fill="#F4F3F4"/>
<path d="M8.08683 8.93376C8.84656 8.93812 9.5845 9.72545 9.57579 10.5244C9.56707 11.3698 8.85383 12.0904 8.05342 12.0628C7.25011 12.0337 6.66905 11.3974 6.65307 10.5273C6.63709 9.62667 7.26463 8.92941 8.08828 8.93522L8.08683 8.93376Z" fill="#F4F3F4"/>
</svg>
