<svg width="35" height="35" viewBox="0 0 35 35" fill="none" xmlns="http://www.w3.org/2000/svg">
<path d="M9.27655 27.3881C9.32594 27.1557 9.35644 27.0134 9.41019 26.7606C11.0865 27.2211 12.7324 27.6729 14.3622 28.1203C14.4218 28.0389 14.4901 27.9765 14.4785 27.9547C14.0993 27.1935 14.3811 26.6705 14.9578 26.0997C15.9907 25.0755 16.9247 23.9497 17.8936 22.8617C18.0708 22.6627 18.2655 22.4593 18.3744 22.2225C19.0586 20.7278 20.09 19.5221 21.3713 18.5139C21.4323 18.466 21.4584 18.3745 21.547 18.2249C20.1903 18.0331 19.1109 18.4965 18.2089 19.3608C17.8195 19.7342 17.4259 19.9332 16.9044 20.0203C14.8024 20.3719 12.7062 20.7597 10.5578 21.1418C10.4459 20.5607 10.7815 20.4227 11.1722 20.353C12.6641 20.0872 14.1545 19.8097 15.6522 19.5845C16.2129 19.5003 16.6167 19.3071 16.9857 18.8437C18.6824 16.717 21.2405 16.2275 23.8349 17.2676C24.1937 17.4114 24.4654 17.6511 24.4843 18.0418C24.5032 18.4384 24.233 18.6752 23.8901 18.851C22.1077 19.7632 20.8439 21.149 19.9506 22.9474C19.5772 23.6984 18.9119 24.3071 18.357 24.9622C17.8079 25.6116 17.2298 26.2391 16.5151 27.0453C18.0665 27.1485 19.4073 27.2356 20.7292 27.3242C21.1606 26.1723 21.5645 25.0988 21.9915 23.9599C21.5456 23.3556 20.5912 22.8181 21.5005 21.733C22.1658 22.2647 22.8704 22.7847 23.5197 23.3658C23.8901 23.697 23.6998 24.1313 23.5502 24.5293C23.2568 25.3065 22.9735 26.088 22.6932 26.8695C22.6438 27.0075 22.6234 27.1543 22.5639 27.4027C24.5729 27.7571 26.595 27.67 28.6054 27.9866C28.4238 28.4573 28.1043 28.5474 27.6801 28.5154C25.4285 28.3454 23.174 28.1914 20.9209 28.0302C19.4087 27.9213 17.8965 27.8196 16.3858 27.6932C15.8788 27.6511 15.6391 27.9198 15.3907 28.4181C17.9038 29.1357 20.3689 29.8388 22.8675 30.552C22.5944 31.0575 22.2457 31.0561 21.7925 30.9268C18.5953 30.0102 15.3922 29.1153 12.1906 28.2132C11.2478 27.9474 10.3065 27.6816 9.27655 27.3911V27.3881Z" fill="#F4F3F4"/>
<path d="M18.3919 9.0311C16.6197 8.88293 15.1075 9.67753 13.482 10.2513C13.3817 9.88961 13.2902 9.55404 13.1769 9.1473C13.6243 8.91778 14.0252 8.67664 14.4538 8.49797C16.287 7.73824 18.1638 7.2211 20.1757 7.62929C20.4663 7.68885 20.7568 7.76148 21.0343 7.86607C21.4163 8.00988 21.8506 8.11302 21.8884 8.64905C21.9247 9.16329 21.5761 9.37827 21.1999 9.58454C20.5738 9.92737 19.9448 10.2615 19.3288 10.6203C16.2667 12.4056 13.6418 14.695 11.4468 17.4782C11.3466 17.6046 11.2812 17.76 11.3059 18.0201C13.8727 16.4483 16.4395 14.8751 19.0209 13.2946C19.1386 13.9744 19.1124 14.0689 18.5255 14.4349C17.468 15.0959 16.396 15.7336 15.3326 16.3873C12.3213 18.2365 9.31142 20.0886 6.30009 21.9378C6.07638 22.0744 5.83961 22.1891 5.57813 22.3315C5.44885 22.1528 5.35006 22.0163 5.19318 21.7984C6.75622 20.828 8.2815 19.8794 9.80677 18.9323C9.78063 18.7551 9.78789 18.6287 9.7414 18.527C9.33902 17.6496 9.55402 16.9698 10.1656 16.2072C12.2923 13.5575 14.7763 11.3437 17.7092 9.63249C17.914 9.51338 18.1159 9.38844 18.3135 9.2577C18.3483 9.23446 18.3498 9.16038 18.3919 9.0311Z" fill="#F4F3F4"/>
<path d="M23.4878 9.06013C22.882 9.04561 22.4782 8.58802 22.4869 7.92852C22.4956 7.2574 23.0549 6.6807 23.6592 6.71702C24.2054 6.75043 24.6964 7.30534 24.6833 7.87332C24.6659 8.55461 24.1429 9.07611 23.4892 9.06013H23.4878Z" fill="#F4F3F4"/>
<path d="M25.9268 18.1363C25.3297 18.1493 24.891 17.6816 24.8983 17.0395C24.9041 16.4352 25.4285 15.8527 25.9892 15.8265C26.5645 15.8004 27.0569 16.29 27.0656 16.8972C27.0758 17.577 26.5746 18.1217 25.9268 18.1348V18.1363Z" fill="#F4F3F4"/>
</svg>
