<svg width="35" height="35" viewBox="0 0 35 35" fill="none" xmlns="http://www.w3.org/2000/svg">
<path d="M15.3777 12.8457C15.2252 12.3823 15.1017 12.0046 14.9463 11.5311C15.446 11.2725 15.9224 10.9936 16.4222 10.7699C18.8277 9.69783 21.3147 9.10371 23.9614 9.59325C24.4451 9.68331 24.9143 9.87069 25.3806 10.0363C25.7903 10.183 26.0706 10.4445 26.0677 10.9297C26.0648 11.3989 25.8034 11.6676 25.4199 11.8724C24.8432 12.1804 24.2723 12.4985 23.6999 12.8152C20.4867 14.5918 17.5669 16.7635 15.0349 19.4233C14.005 20.504 13.0956 21.6996 12.1369 22.8472C12.07 22.9271 12.0497 23.0462 11.9204 23.3614C15.5201 21.1563 18.9309 19.0674 22.3998 16.9422C22.6075 17.5508 22.4158 17.8704 21.9567 18.1479C19.6122 19.5686 17.2807 21.0125 14.9419 22.4433C11.781 24.3782 8.61565 26.3088 5.45324 28.2394C5.35156 28.3018 5.24552 28.3585 5.09735 28.4442C4.96807 28.251 4.85479 28.0796 4.68628 27.8268C6.69819 26.5834 8.67376 25.3602 10.69 24.1139C10.5186 23.5444 10.3661 23.0128 10.1947 22.4869C10.0901 22.1659 10.1191 21.9 10.3283 21.6153C11.9466 19.4305 13.7595 17.4259 15.8339 15.6624C17.5727 14.1851 19.4378 12.8922 21.4367 11.7882C21.6226 11.6851 21.7912 11.5485 22.15 11.303C19.6194 11.0444 17.5567 11.9538 15.3763 12.8428L15.3777 12.8457Z" fill="#F4F3F4"/>
<path d="M29.6282 9.81692C29.6456 10.7147 29.0762 11.3393 28.238 11.3422C27.4913 11.3437 26.9785 10.8323 26.9495 10.0537C26.9161 9.18648 27.4971 8.50519 28.299 8.47468C29.0791 8.44418 29.6122 8.98166 29.6282 9.81838V9.81692Z" fill="#F4F3F4"/>
</svg>
