<svg width="250" height="250" viewBox="0 0 250 250" fill="none" xmlns="http://www.w3.org/2000/svg">
<path d="M222.57 153.168C205.115 160.052 187.955 166.822 170.27 173.789C169.699 170.649 169.195 168.413 168.91 166.146C167.967 158.658 167.024 151.171 166.257 143.663C165.95 140.647 164.853 138.182 161.652 137.465C154.031 135.77 146.345 134.345 138.374 132.754C138.319 134.699 138.275 135.739 138.275 136.778C138.275 140.689 139.438 143.6 144.141 144.557C147.102 145.16 149.865 146.647 152.091 147.49C153.428 158.388 154.7 168.756 156.049 179.769C144.569 184.896 132.322 189.617 118.934 194.172C122.629 180.84 126.061 168.694 129.318 156.506C129.899 154.332 130.184 152.086 130.162 149.84C130.063 141.593 130.392 133.451 132.651 125.391C135.293 115.938 139.482 107.265 145.687 99.4555C145.907 99.1852 146.104 98.9044 146.279 98.6236C147.266 98.6548 148.352 98.686 149.547 98.686C153.527 98.686 158.56 98.426 163.899 97.5005C177.758 95.1087 188.065 89.2019 194.117 80.3105C194.348 80.8097 194.49 81.2985 194.49 81.7664C194.49 88.5155 194.117 95.2335 193.854 101.962C193.646 107.349 192.922 132.598 192.681 138.162C196.244 138.338 197.056 137.122 197.143 134.886C197.593 123.01 198.591 91.2609 199.314 79.4058C199.501 76.2756 198.876 73.6238 197.143 70.9096C196.639 69.8801 195.751 69.017 194.545 68.549C192.023 67.5715 189.139 68.7258 188.109 71.1176C178.635 93.1432 142.935 88.8275 142.464 88.7651C142.42 88.7651 142.387 88.7651 142.343 88.7651C140.523 88.5051 138.626 89.0979 137.256 90.3354C133.977 93.2784 127.739 99.4867 124.504 106.735C118.342 120.556 114.395 134.387 114.768 149.351C114.812 151.202 114.351 153.105 113.847 154.904C109.79 169.505 105.755 184.105 101.501 198.654C100.667 201.503 101.051 203.417 103.507 205.226C105.525 206.713 107.279 208.533 110.075 211.029C92.9814 214.315 76.8747 217.404 60.4609 220.555C60.7241 222.364 60.9214 223.727 61.1736 225.453C69.0899 224.049 76.6883 222.811 84.2318 221.366C111.522 216.125 138.791 210.821 166.07 205.538C171.048 204.571 176.037 203.677 181.015 202.668C184.216 202.013 186.3 200.359 186.497 196.46C162.496 201.035 139.032 205.507 115.272 210.041C116.522 201.451 116.489 201.379 123.21 198.56C130.282 195.586 137.42 192.747 144.547 189.877C169.184 179.977 193.81 170.077 218.469 160.218C221.66 158.939 223.524 157.151 222.57 153.136V153.168Z" fill="white"/>
<path d="M149.696 83.0104C154.674 80.7537 156.834 74.4934 154.334 69.5225C151.856 64.6141 146.472 62.7734 141.582 65.186C136.637 67.6299 134.598 74.0254 137.24 78.8299C139.619 83.1455 145.233 85.0278 149.696 83V83.0104Z" fill="white"/>
<path d="M124.71 71.2139C125.104 70.626 125.092 69.9106 124.662 69.3422L114.776 56.1616H117.988C118.823 56.1616 119.588 55.7892 119.97 55.1816C120.364 54.5839 120.316 53.8489 119.85 53.2805L106.489 36.9052C106.071 36.3956 105.367 36.082 104.615 36.082C103.863 36.082 103.158 36.3858 102.74 36.9052L89.3794 53.2805C88.9138 53.8489 88.8779 54.5741 89.26 55.1816C89.654 55.7794 90.4182 56.1616 91.2421 56.1616H94.4539L84.5676 69.3422C84.1378 69.9106 84.1258 70.626 84.5198 71.2139C84.9139 71.8019 85.6661 72.1645 86.4899 72.1645H98.609C99.8508 72.1645 100.866 71.3413 100.866 70.3124C100.866 69.2834 99.8627 68.4602 98.609 68.4602H90.5256L100.412 55.2796C100.842 54.7113 100.854 53.9959 100.46 53.4079C100.066 52.8199 99.3135 52.4573 98.4896 52.4573H95.4569L104.591 41.2563L113.725 52.4573H110.692C109.88 52.4573 109.128 52.8199 108.722 53.4079C108.328 53.9959 108.34 54.7113 108.77 55.2796L118.656 68.4602H111.731C110.489 68.4602 109.474 69.2834 109.474 70.3124C109.474 71.3413 110.477 72.1645 111.731 72.1645H122.68C123.492 72.1645 124.244 71.8019 124.65 71.2139H124.71Z" fill="white"/>
<path d="M89.6719 107.999C89.6719 108.473 89.5504 108.947 89.2963 109.369C88.7771 110.265 87.7828 110.824 86.7113 110.824H69.5996C67.9646 110.824 66.639 109.559 66.639 107.988C66.639 106.418 67.9646 105.163 69.5996 105.163H81.3977L65.4349 80.4253C64.8715 79.561 64.8494 78.4648 65.3796 77.5689C65.8988 76.673 66.8931 76.1143 67.9646 76.1143H73.7311L58.4201 54.3064L43.12 76.1143H48.8865C49.9581 76.1143 50.9523 76.673 51.4715 77.5689C52.0018 78.4648 51.9686 79.561 51.4052 80.4359L35.4535 105.163H49.0633C50.6982 105.163 52.0239 106.428 52.0239 107.988C52.0239 109.548 50.6982 110.824 49.0633 110.824H30.1399C29.0683 110.824 28.0741 110.265 27.5549 109.369C27.0246 108.484 27.0467 107.377 27.6101 106.513L43.573 81.7745H37.5634C36.4698 81.7745 35.4645 81.2053 34.9453 80.2778C34.4261 79.3608 34.4924 78.2435 35.1 77.3686L55.9566 47.6449C56.5089 46.8649 57.4369 46.3906 58.4201 46.3906C59.4032 46.3906 60.3422 46.8649 60.8946 47.6449L81.7512 77.3686C82.3588 78.2435 82.414 79.3608 81.8948 80.2778C81.3867 81.2053 80.3814 81.7745 79.2877 81.7745H73.2782L89.23 106.513C89.5283 106.966 89.6719 107.482 89.6719 107.999Z" fill="white"/>
</svg>
