<svg width="35" height="35" viewBox="0 0 35 35" fill="none" xmlns="http://www.w3.org/2000/svg">
<path d="M15.4736 9.84752C17.6453 9.70662 19.5889 10.1017 21.4497 10.9108C22.6612 11.4382 23.7115 12.211 24.5453 13.2482C24.7952 13.559 25.0392 13.8931 25.1932 14.2563C25.5462 15.0872 25.0363 15.7452 24.1342 15.6508C23.5023 15.584 22.8791 15.4315 22.2472 15.3966C18.9919 15.2179 16.6124 16.6619 15.3196 19.647C14.9884 20.4111 14.4872 20.8586 13.7464 21.2057C11.2609 22.3664 8.80447 23.591 6.33643 24.7894C6.19117 24.8606 6.03573 24.9114 5.72486 25.0378C5.72486 24.2113 5.66676 23.4864 5.75682 22.7833C5.78733 22.5436 6.16357 22.288 6.43666 22.15C7.90093 21.4135 9.38262 20.7118 10.8585 19.9986C11.1301 19.8679 11.3989 19.7313 11.6778 19.618C12.6089 19.2403 13.2002 18.6026 13.7086 17.6933C15.154 15.1061 17.4041 13.6171 20.4053 13.36C20.7336 13.3324 21.059 13.2729 21.6313 13.1944C19.7007 11.7694 17.6467 11.4948 15.5651 11.3423C15.5229 11.1259 15.4823 10.9995 15.4779 10.8731C15.4677 10.5738 15.475 10.2746 15.475 9.85043L15.4736 9.84752Z" fill="#F4F3F4"/>
<path d="M19.6354 19.9144C18.8408 19.6035 18.0404 19.2912 17.1499 18.944C17.4216 18.4109 17.6583 17.946 17.9096 17.4521C19.2156 17.7412 20.4547 17.9809 21.6749 18.3005C22.4593 18.5053 22.7092 19.1764 22.3126 19.9739C21.6124 21.3873 21.0357 22.8414 20.6493 24.3711C20.5709 24.6819 20.5157 24.9986 20.4372 25.3705C20.9065 25.4155 21.2638 25.4489 21.6473 25.4852C21.6052 26.0532 21.3364 26.274 20.8106 26.2682C19.509 26.2537 18.206 26.2639 16.8972 26.2639C16.9708 25.7612 17.3092 25.4586 17.9126 25.356C18.482 23.5576 19.0427 21.7868 19.6354 19.9158V19.9144Z" fill="#F4F3F4"/>
<path d="M27.8283 12.3344C28.636 12.3127 29.2824 12.9329 29.3115 13.7566C29.342 14.618 28.6171 15.4141 27.7964 15.4228C26.9872 15.4315 26.3975 14.8039 26.3946 13.928C26.3902 13.0186 26.9872 12.3562 27.8283 12.3344Z" fill="#F4F3F4"/>
</svg>
