<svg width="35" height="35" viewBox="0 0 35 35" fill="none" xmlns="http://www.w3.org/2000/svg">
<path d="M17.1121 17.6395C16.8593 17.2632 16.6356 16.9335 16.3582 16.5209C16.9523 16.1534 17.5203 15.8019 18.142 15.4169C17.3677 13.9425 16.5557 12.5145 16.1388 10.8513C16.547 10.5128 16.945 10.1831 17.4099 9.79666C18.0708 11.5776 18.6998 13.2728 19.3433 15.0029C19.766 14.9434 20.0667 14.8925 20.3689 14.8606C22.1004 14.6746 23.6983 15.0044 25.119 16.0633C25.4953 16.3437 25.7437 16.6604 25.6754 17.1543C25.61 17.6308 25.2382 17.7688 24.8663 17.9561C23.9569 18.4108 23.0229 18.8423 22.1862 19.4117C21.1955 20.0857 20.6391 21.0677 20.5708 22.3112C20.5519 22.6613 20.443 23.1 20.2091 23.328C18.7448 24.7531 17.2341 26.1302 15.7175 27.5436C15.5403 27.4012 15.4052 27.2923 15.2077 27.134C14.7123 27.5683 14.2068 28.0113 13.6591 28.4907C13.3061 28.0651 13.3294 27.7121 13.71 27.3635C14.0964 27.0061 14.477 26.643 14.8895 26.2536C14.8314 26.0227 14.7719 25.7932 14.7036 25.5259C15.6289 24.663 16.5426 23.7827 17.4897 22.9373C18.033 22.4521 18.4485 21.9451 18.5821 21.1839C18.8509 19.663 19.8067 18.5721 21.0052 17.6743C21.3945 17.3824 21.8128 17.1281 22.2442 16.8391C20.9311 16.2972 20.5766 16.3539 17.1121 17.6395Z" fill="#F4F3F4"/>
<path d="M8.75355 9.61798C8.54291 9.29114 8.33084 8.96139 8.08824 8.5837C9.09347 7.72809 10.212 7.24147 11.4438 7.03665C13.1231 6.75629 14.721 6.97418 16.1446 7.98957C16.5237 8.25977 16.9494 8.53287 16.868 9.08778C16.7896 9.62671 16.3552 9.80683 15.8947 9.96516C14.92 10.2993 14.0092 10.7627 13.2626 11.489C12.5551 12.1775 12.0453 12.9649 12.0351 14.0035C12.0293 14.5236 11.8056 14.9187 11.3988 15.2804C10.0813 16.4541 8.80585 17.6744 7.48394 18.9062C7.29655 18.7798 7.1324 18.6709 6.95372 18.5503C6.46273 18.9861 5.98482 19.4074 5.48076 19.8548C5.21202 19.2941 5.32096 18.9367 5.72479 18.6316C5.97029 18.4457 6.18964 18.2205 6.40318 17.9968C6.50341 17.8908 6.65885 17.6961 6.62399 17.6221C6.31457 16.9829 6.83026 16.7345 7.16873 16.412C7.95461 15.6639 8.75936 14.9376 9.53943 14.1836C9.72828 14.0006 9.94909 13.7624 9.9854 13.5241C10.3021 11.4425 11.563 10.0814 13.2931 9.05726C13.3889 9.00061 13.4717 8.91928 13.6722 8.76239C11.7997 8.09563 10.3311 8.95994 8.755 9.62089L8.75355 9.61798Z" fill="#F4F3F4"/>
<path d="M18.678 26.8231C19.0746 26.1592 19.4508 25.5302 19.8358 24.8881C20.2469 24.8547 20.6435 24.8213 21.0865 24.785C21.0865 24.1851 21.1635 23.5953 21.0705 23.0331C20.8977 21.9887 21.3552 21.4033 22.3518 21.0299C22.4128 21.2289 22.4956 21.4134 22.5246 21.6037C22.7048 22.8269 22.8704 24.0529 23.0447 25.2775C23.2016 26.3815 22.8834 26.7926 21.7896 26.8187C20.8062 26.842 19.8213 26.8231 18.6795 26.8231H18.678Z" fill="#F4F3F4"/>
<path d="M10.8657 17.7136C11.2565 17.0439 11.5615 16.4832 11.9131 15.9515C11.993 15.8309 12.2297 15.7932 12.4011 15.7627C12.6379 15.7205 12.8805 15.722 13.1958 15.7002C13.1958 15.0843 13.1987 14.5032 13.1958 13.9207C13.1899 13.0995 13.6117 12.5141 14.461 12.1645C14.6586 13.6403 14.8736 15.0973 15.0392 16.5602C15.1016 17.1107 14.798 17.5421 14.3143 17.577C13.2204 17.6569 12.1208 17.6671 10.8643 17.7121L10.8657 17.7136Z" fill="#F4F3F4"/>
<path d="M28.1042 25.1424C28.033 25.2005 27.9197 25.3022 27.7963 25.3893C27.6713 25.4765 27.5362 25.5477 27.3198 25.6755C25.7974 23.9381 24.9607 21.8739 24.185 19.679C24.4305 19.4785 24.66 19.2853 24.8968 19.0994C25.1089 18.9323 25.3282 18.774 25.5577 18.6011C26.4046 20.7786 27.2297 22.8966 28.1042 25.1424Z" fill="#F4F3F4"/>
<path d="M29.0092 15.7932C29.0078 16.5093 28.3744 17.147 27.651 17.1616C26.929 17.1761 26.2899 16.5631 26.2623 15.8324C26.2361 15.0901 26.9131 14.4001 27.6583 14.4131C28.3439 14.4248 29.0107 15.1061 29.0092 15.7932Z" fill="#F4F3F4"/>
<path d="M18.7201 9.15895C18.0679 9.17929 17.3909 8.52559 17.3822 7.86609C17.3735 7.24727 17.9793 6.59939 18.5996 6.56308C19.3535 6.5195 19.9055 7.02937 19.9287 7.79346C19.9534 8.57353 19.4537 9.13716 18.7201 9.15895Z" fill="#F4F3F4"/>
</svg>
