<svg enable-background="new 0 0 755.115 977.227" height="359.850229" viewBox="0 0 755.115 977.227" width="277.89339" xmlns="http://www.w3.org/2000/svg"><path d="m53.704 105.956h-12.338v-25.4h41.729v104.141h-25.037v-18.869c-3.991 14.514-12.7 21.409-27.215 21.409-21.772 0-30.48-11.974-30.48-42.092v-101.602c0-29.391 13.063-43.543 41.003-43.543 27.577 0 41.729 14.152 41.729 43.543v17.055h-29.391v-17.417c0-11.612-3.629-16.329-11.974-16.329s-11.974 5.08-11.974 16.329v100.513c0 11.612 3.629 16.329 11.974 16.329s11.974-5.08 11.974-16.329c0-.001 0-37.738 0-37.738z"/><path d="m155.305 147.322h-26.852l-3.991 37.012h-30.118l25.038-182.157h46.083l25.037 182.157h-30.48zm-3.266-26.852-10.523-93.255-10.523 93.618h21.046z"/><path d="m257.632 184.697-29.392-123.736v123.736h-26.489v-182.157h33.383l29.029 122.647v-122.647h26.852v182.157z"/><path d="m363.587 105.956h-12.337v-25.4h41.729v104.141h-25.037v-18.869c-3.991 14.514-12.7 21.409-27.215 21.409-21.772 0-30.48-11.974-30.48-42.092v-101.602c0-29.391 13.063-43.543 41.003-43.543 27.577 0 41.729 14.152 41.729 43.543v17.055h-29.392v-17.417c0-11.612-3.629-16.329-11.974-16.329s-11.974 5.08-11.974 16.329v100.513c0 11.612 3.629 16.329 11.974 16.329s11.974-5.08 11.974-16.329z"/><path d="m461.197 184.697h-33.746l-23.949-182.157h29.392l13.789 139.339 15.966-139.339h26.851l18.869 139.339 11.975-139.339h29.028l-22.86 182.157h-34.834l-15.241-121.196z"/><path d="m600.536 187.237c-27.578 0-41.366-14.152-41.366-43.543v-100.151c0-29.391 13.426-43.543 41.366-43.543s41.366 14.152 41.366 43.543v100.513c0 29.029-13.426 43.181-41.366 43.181m0-27.215c8.346 0 11.974-5.08 11.974-16.329v-100.875c0-11.612-3.266-16.329-11.974-16.329-8.346 0-11.974 4.717-11.974 16.329v100.512c0 11.612 3.628 16.692 11.974 16.692"/><path d="m717.015 184.697-29.029-123.736v123.736h-26.489v-182.157h33.383l29.029 122.647v-122.647h26.489v182.157z"/><path d="m.726 498.572v-33.746c0-38.463 11.974-59.509 52.615-93.255l37.375-31.569 1.089-1.089c15.24-13.063 25.4-22.135 25.4-41.366v-4.717c0-19.232-10.16-29.392-29.755-29.392s-29.755 10.16-29.755 29.392v23.586h-54.066v-34.835c0-42.818 30.48-66.767 85.998-66.767 57.332 0 82.732 39.189 82.732 78.378v10.16c0 23.586-11.974 43.906-39.552 67.855l-43.906 37.738c-2.903 2.54-5.443 4.717-7.983 6.531-17.054 14.514-20.32 23.586-20.32 33.383h109.947v49.712h-169.819z"/><path d="m281.581 503.289c-57.332 0-87.813-32.658-87.813-93.981v-100.876c0-61.324 30.48-93.981 87.813-93.981s87.813 32.658 87.813 93.981v100.876c-.001 61.324-30.118 93.981-87.813 93.981m0-237.311c-22.497 0-31.569 13.063-31.569 44.995v93.981c0 31.206 9.797 44.995 31.569 44.995s31.569-13.789 31.569-44.995v-93.981c.362-31.932-9.072-44.995-31.569-44.995"/><path d="m390.802 498.572v-33.746c0-38.463 11.974-59.509 52.615-93.255l37.375-31.569 1.089-1.089c15.24-13.063 25.4-22.135 25.4-41.366v-4.717c0-19.232-10.16-29.392-29.755-29.392s-29.755 10.16-29.755 29.392v23.586h-54.066v-34.835c0-42.818 30.48-66.767 85.998-66.767 57.332 0 82.732 39.189 82.732 78.378v10.16c0 23.586-11.974 43.906-39.552 67.855l-43.906 37.375c-2.903 2.54-5.443 4.717-7.983 6.532-17.055 14.514-20.32 23.586-20.32 33.383h109.947v49.712h-169.819z"/><path d="m670.568 498.209v-66.404h-106.318v-56.969l83.458-155.668h75.838v161.111h31.569v51.526h-31.569v66.404zm-56.969-117.93h56.969v-111.036z"/><path d="m1.809 906.032h359.994v-317.612l-43.695-43.695-316.299-.075z" fill="#fff"/><path d="m3.618 546.459 313.741.078 42.635 42.629v315.057h-356.376zm-3.618-3.617v365h363.611v-320.176l-44.749-44.749z"/><path d="m326.215 704.44c0 25.188-20.414 45.602-45.609 45.602-23.844 0-43.401-18.288-45.43-41.6 2.726.285 5.337.857 7.854 1.67 2.733 18.3 18.513 32.333 37.576 32.333 20.986 0 37.998-17.021 37.998-38.005 0-20.983-17.012-38.004-37.998-38.004-20.204 0-36.719 15.762-37.923 35.659-2.445-.628-4.953-1.066-7.545-1.285 1.867-23.497 21.505-41.976 45.468-41.976 25.195.001 45.609 20.418 45.609 45.606" fill="#f0282d"/><path d="m231.215 708.238c19.048 0 34.834 14.029 37.579 32.336 2.501.813 5.121 1.379 7.835 1.667-2.035-23.316-21.596-41.597-45.415-41.597-1.332 0-2.651.056-3.943.166.084 1.198.138 2.404.138 3.63 0 1.351-.069 2.689-.175 4.005 1.308-.135 2.631-.207 3.981-.207m37.914 40.35c-1.207 19.895-17.725 35.657-37.914 35.657-20.995 0-37.995-17.015-37.995-38.005 0-16.859 10.968-31.151 26.167-36.125.272-1.848.422-3.746.422-5.675 0-.791-.034-1.569-.069-2.345-19.635 5.09-34.137 22.925-34.137 44.145 0 25.185 20.414 45.609 45.612 45.609 23.953 0 43.598-18.482 45.446-41.976-2.576-.222-5.096-.657-7.532-1.285" fill="#00a651"/><path d="m181.796 658.833c-23.963 0-43.598 18.482-45.452 41.978 2.579.219 5.081.657 7.535 1.285 1.194-19.901 17.719-35.66 37.917-35.66 20.999 0 38.008 17.019 38.008 38.005 0 16.856-10.971 31.157-26.17 36.132-.275 1.845-.413 3.74-.413 5.666 0 .794.003 1.576.063 2.351 19.629-5.09 34.127-22.925 34.127-44.148 0-25.189-20.417-45.609-45.615-45.609m0 83.612c-19.048 0-34.84-14.035-37.579-32.333-2.511-.813-5.121-1.385-7.851-1.67 2.032 23.312 21.59 41.6 45.43 41.6 1.338 0 2.655-.056 3.952-.172-.088-1.188-.144-2.404-.144-3.633 0-1.341.072-2.686.184-3.996-1.309.133-2.641.204-3.992.204"/><path d="m128.425 708.446c.109-1.319.178-2.658.178-4.005 0-1.226-.056-2.436-.138-3.63 1.294-.113 2.608-.169 3.94-.169 23.816 0 43.407 18.288 45.433 41.603-2.723-.294-5.353-.86-7.851-1.67-2.748-18.307-18.538-32.336-37.582-32.336-1.347.001-2.673.069-3.98.207m49.43 41.425c-1.845 23.494-21.486 41.979-45.449 41.979-25.198 0-45.609-20.426-45.609-45.608 0-21.221 14.498-39.055 34.134-44.145.038.775.063 1.554.063 2.345 0 1.929-.144 3.824-.419 5.672-15.196 4.974-26.161 19.269-26.161 36.128 0 20.992 16.99 38.001 37.992 38.001 20.189 0 36.716-15.758 37.92-35.653 2.429.625 4.955 1.059 7.529 1.281" fill="#ffb114"/><path d="m128.602 704.44c0-25.188-20.414-45.605-45.612-45.605-25.176 0-45.596 20.417-45.596 45.605s20.42 45.602 45.596 45.602c1.338 0 2.642-.053 3.946-.169-.088-1.191-.141-2.407-.141-3.633 0-1.344.069-2.686.178-3.999-1.31.131-2.636.203-3.983.203-20.983 0-38.001-17.021-38.001-38.005 0-20.983 17.018-38.004 38.001-38.004 20.999 0 38.001 17.021 38.001 38.004 0 16.859-10.971 31.157-26.173 36.135-.266 1.842-.406 3.74-.406 5.666 0 .791.006 1.573.059 2.348 19.636-5.089 34.131-22.924 34.131-44.148" fill="#0078d0"/><path d="m457.25 906.031h-68.655v-361.381l316.302.075 43.689 43.695v317.611h-224.506l-66.83 66.827z" fill="#fff"/><path d="m390.407 546.462 313.738.075 42.632 42.629v315.057h-221.945-1.501l-1.06 1.06-63.215 63.205v-60.648-3.617h-3.618-65.031zm-3.62-3.621v365h68.652v69.387l69.393-69.387h225.566v-320.176l-44.755-44.749z"/><path d="m514.163 826.384h17.931l-1.817-9.164h-14.22zm142.188 13.98c-10.03 0-15.958-5.368-15.958-14.533v-8.451h10.036v7.263c0 4.427 1.973 6.719 5.922 6.719 3.871 0 5.769-2.136 5.769-6.4v-1.501c0-4.346-2.211-8.295-6.244-10.981l-6.003-4.268c-5.609-3.789-8.923-9.555-8.923-15.877v-3.158c0-9.239 5.528-14.376 15.402-14.376 9.718 0 15.405 5.293 15.405 14.376v6.95h-9.715v-6.163c0-4.343-1.82-6.55-5.453-6.55s-5.447 2.126-5.447 6.394v1.501c0 3.399 2.051 6.716 5.528 9.086l5.925 4.027c6.397 4.584 9.711 10.668 9.711 18.328v3.08c.001 9.478-5.527 14.534-15.955 14.534m-39.574-10.109h16.115v9.161h-26.383v-63.671h25.986v8.852h-15.718v17.691h14.298v9.011h-14.298zm-21.327 9.161h-9.405v-52.531l-10.581 52.531h-6.006l-10.584-52.531v52.531h-9.402v-63.671h15.089l7.823 41.003 7.898-41.003h15.167v63.671zm-80.496 0 8.214-56.402h-.238l8.454 56.402h10.743l-10.743-63.671h-16.114l-10.9 63.671zm-27.724-27.489h-5.691v-8.767h15.955v36.257h-8.848v-8.214c-1.817 6.716-5.525 9.161-11.372 9.161-8.533 0-11.928-4.659-11.928-16.584v-32.311c0-10.981 5.453-16.668 15.955-16.668 10.587 0 16.193 5.763 16.193 16.668v4.183h-10.264v-3.79c0-5.528-1.742-7.898-5.772-7.898-4.024 0-5.841 2.448-5.841 7.898v31.204c0 5.447 1.817 7.898 5.841 7.898 4.03 0 5.772-2.451 5.772-7.898zm199.615-79.78h10.349v9.327c0 10.978-5.453 16.665-15.877 16.665-10.509 0-15.958-5.688-15.958-16.665v-32.233c0-10.978 5.45-16.665 15.958-16.665 10.424 0 15.877 5.766 15.877 16.665v7.82h-10.349v-7.426c0-5.525-1.66-7.898-5.612-7.898-3.949 0-5.528 2.292-5.528 7.898v31.204c0 5.612 1.579 7.898 5.528 7.898 3.952 0 5.612-2.367 5.612-7.898zm-32.073 25.123h-10.346v-63.746h10.346zm-36.338-54.901h-4.896v23.303h4.896c4.265 0 6.397-2.292 6.397-6.872v-9.558c0-4.585-2.132-6.873-6.397-6.873m.869-8.849c10.505 0 15.799 4.583 15.799 13.51v14.139c0 8.927-5.368 13.51-15.799 13.51h-5.766v22.59h-10.271v-63.749zm-27.095 63.75h-9.399v-52.612l-10.584 52.612h-6.003l-10.587-52.612v52.612h-9.402v-63.75h15.167l7.739 41.078 7.982-41.078h15.086v63.75zm-75.437 0v-22.512l-11.772-41.237h10.743l6.482 29.859 6.394-29.859h10.587l-11.769 41.237v22.512zm-8.451-9.24v9.239h-25.757v-63.749h10.271v54.51zm-52.453.707c4.027 0 5.762-2.445 5.762-7.898v-31.204c0-5.606-1.657-7.898-5.762-7.898-4.19 0-5.847 2.292-5.847 7.898v31.204c0 5.453 1.817 7.898 5.847 7.898m0 9.402c-10.668 0-16.115-5.606-16.115-16.665v-32.233c0-10.978 5.531-16.665 16.115-16.665 10.506 0 16.034 5.766 16.034 16.665v32.233c-.001 10.977-5.45 16.665-16.034 16.665m173.867-146.843h10.268v26.464h11.612v-26.464h10.271v63.749h-10.271v-27.965h-11.612v27.965h-10.268zm-7.504 0v9.005h-9.799v54.745h-10.346v-54.746h-9.796v-9.005h29.941zm-47.478 0h10.268v48.029c0 10.978-5.528 16.668-16.115 16.668-10.505 0-16.037-5.766-16.037-16.668v-48.029h10.271v47.238c0 5.687 1.657 7.979 5.766 7.979 4.187 0 5.847-2.292 5.847-7.979zm-48.426 55.216c4.03 0 5.769-2.445 5.769-7.979v-31.123c0-5.687-1.657-7.976-5.769-7.976-4.102 0-5.762 2.289-5.762 7.976v31.123c0 5.534 1.735 7.979 5.762 7.979m0 9.48c-10.584 0-16.03-5.691-16.03-16.668v-32.308c0-10.981 5.447-16.671 16.03-16.671 10.587 0 16.115 5.772 16.115 16.671v32.308c0 10.903-5.528 16.668-16.115 16.668m-43.839-.947v-22.512l-11.772-41.238h10.743l6.482 29.859 6.394-29.859h10.587l-11.772 41.238v22.512z"/></svg>