<?xml version="1.0" encoding="UTF-8" standalone="no"?>
<!-- Created with Inkscape (http://www.inkscape.org/) -->

<svg
   xmlns:dc="http://purl.org/dc/elements/1.1/"
   xmlns:cc="http://creativecommons.org/ns#"
   xmlns:rdf="http://www.w3.org/1999/02/22-rdf-syntax-ns#"
   xmlns:svg="http://www.w3.org/2000/svg"
   xmlns="http://www.w3.org/2000/svg"
   version="1.1"
   width="205.73036"
   height="238.13821"
   id="svg4762">
  <defs
     id="defs4764" />
  <metadata
     id="metadata4767">
    <rdf:RDF>
      <cc:Work
         rdf:about="">
        <dc:format>image/svg+xml</dc:format>
        <dc:type
           rdf:resource="http://purl.org/dc/dcmitype/StillImage" />
        <dc:title></dc:title>
      </cc:Work>
    </rdf:RDF>
  </metadata>
  <g
     transform="translate(-385.0886,-346.15022)"
     id="layer1">
    <g
       transform="matrix(1.6741797,0,0,1.6741797,-396.96977,-234.71581)"
       id="g4835">
      <path
         d="m 472.0564,480.93772 c -0.0375,-1.665 0.02,-5.0925 0.0775,-5.955 0.3825,-0.0187 0.76625,-0.0375 0.93875,-0.0375 1.58875,0 2.8725,0.325 2.8725,2.77625 0,3.12125 -2.05,3.235 -3.88875,3.21625 z m -0.89875,-6.7025 -1.70375,0.32625 c 0.095,2.145 0.13375,5.055 0.13375,6.4525 0,0.53625 -0.02,4.9025 -0.13375,6.98875 l 2.7375,-0.4975 c -0.135,-2.355 -0.15375,-4.175 -0.135,-5.85875 1.11125,0.0187 3.00625,0.0187 4.3475,-0.7475 1.51125,-0.86125 2.08625,-2.43125 2.08625,-3.71375 0,-1.2825 -0.4975,-2.14625 -1.435,-2.585 -0.6325,-0.2875 -1.37875,-0.365 -2.18375,-0.365 l -3.71375,0"
         id="path4147"
         style="fill:#231f20;fill-opacity:1;fill-rule:nonzero;stroke:none" />
      <path
         d="m 480.73515,481.83647 c 0.30625,-0.765 1.7425,-4.25 2.33625,-5.49375 0.075,0.2475 0.4975,1.37875 0.5925,1.6075 0.15375,0.42125 1.035,2.85375 1.37875,3.88625 -0.59375,0.0387 -1.12875,0.0588 -1.93375,0.0588 -0.9375,0 -1.895,-0.0387 -2.37375,-0.0588 z m 2.14375,-7.29375 c -0.97625,2.83375 -5.035,11.66125 -5.725,12.94375 l -0.28625,0.51625 1.8575,-0.4975 c 0.42,-1.7425 1.47375,-4.365 1.68375,-4.825 0.6325,-0.0375 1.14875,-0.0575 2.68125,-0.0575 1.14875,0 1.6275,0.02 2.22,0.0575 0.46,1.26375 1.3025,3.8875 1.6675,5.3225 l 2.79625,-0.4975 c -1.13125,-2.92875 -1.62875,-4.27 -2.5675,-6.95125 -1.2825,-3.6575 -1.60875,-4.78625 -2.14375,-6.56625 l -2.18375,0.555"
         id="path4149"
         style="fill:#231f20;fill-opacity:1;fill-rule:nonzero;stroke:none" />
      <path
         d="m 493.7889,480.88022 c 0,-3.71375 0.02,-4.3475 0.095,-5.935 1.935,0.0375 3.52375,0.19 3.52375,2.92875 0,1.36 -0.47875,2.43125 -1.66625,2.83375 -0.4975,0.1725 -1.015,0.1725 -1.9525,0.1725 z m -0.92,-6.645 -1.68375,0.345 c 0.0762,1.9725 0.13375,3.69625 0.13375,6.64375 0,2.35625 -0.0775,4.88375 -0.13375,6.77875 l 2.7575,-0.51625 c -0.0975,-1.47375 -0.1725,-3.84875 -0.15375,-5.9175 0.36375,0.02 0.42125,0.02 0.84125,0 0.3075,0.47875 1.6475,2.605 1.91625,3.025 1.58875,2.56625 1.76,2.835 2.08625,3.40875 l 2.79625,-0.51625 c -0.7475,-0.99625 -2.62375,-3.7725 -4.175,-6.32 0.47875,-0.17125 1.11125,-0.42 1.66625,-0.9575 0.74625,-0.72625 1.09125,-1.76125 1.09125,-2.8125 0,-0.825 -0.21,-1.6475 -0.785,-2.24125 -0.86125,-0.88125 -2.16375,-0.9 -3.50375,-0.92 l -2.85375,0"
         id="path4151"
         style="fill:#231f20;fill-opacity:1;fill-rule:nonzero;stroke:none" />
      <path
         d="m 505.22015,481.83647 c 0.30625,-0.765 1.74125,-4.25 2.33625,-5.49375 0.0763,0.2475 0.4975,1.37875 0.5925,1.6075 0.15375,0.42125 1.03375,2.85375 1.37875,3.88625 -0.59375,0.0387 -1.13,0.0588 -1.93375,0.0588 -0.93875,0 -1.895,-0.0387 -2.37375,-0.0588 z m 2.14375,-7.29375 c -0.97625,2.83375 -5.03625,11.66125 -5.725,12.94375 l -0.2875,0.51625 1.8575,-0.4975 c 0.42125,-1.7425 1.47375,-4.365 1.685,-4.825 0.6325,-0.0375 1.15,-0.0575 2.68125,-0.0575 1.1475,0 1.6275,0.02 2.22125,0.0575 0.45875,1.26375 1.3,3.8875 1.665,5.3225 l 2.795,-0.4975 c -1.12875,-2.92875 -1.62625,-4.27 -2.565,-6.95125 -1.2825,-3.6575 -1.60875,-4.78625 -2.145,-6.56625 l -2.1825,0.555"
         id="path4153"
         style="fill:#231f20;fill-opacity:1;fill-rule:nonzero;stroke:none" />
      <path
         d="m 518.40765,473.96772 c -0.135,2.565 -0.15375,5.74375 -0.15375,6.49125 0,0.67 0,4.28875 0.15375,6.53 0.74625,0.0187 1.47375,-0.0188 2.145,-0.0575 1.8575,-0.0962 2.5275,-0.21125 3.33,-0.345 l -0.4775,1.245 c -0.97625,-0.0387 -1.24375,-0.0387 -3.7725,-0.0387 -0.57375,0 -3.33125,-0.0388 -3.94375,-0.0388 0.0762,-2.22125 0.13375,-4.46 0.13375,-6.6825 0,-2.20125 -0.0187,-4.40375 -0.13375,-6.58625 l 2.71875,-0.5175"
         id="path4155"
         style="fill:#231f20;fill-opacity:1;fill-rule:nonzero;stroke:none" />
      <path
         d="m 524.36765,473.96772 c 0.66875,1.915 2.46875,5.515 3.4075,6.98875 0.535,-0.91875 2.16375,-4.07875 2.85375,-6.47125 l 1.95125,-0.5175 c -1.015,1.64625 -1.55,2.60375 -2.22125,3.81 -0.72625,1.32125 -1.455,2.6625 -2.08625,4.04 -0.02,0.345 -0.02,0.49875 -0.02,0.825 0,1.05125 0.0575,3.6175 0.155,4.8625 l -2.73875,0.4975 c 0.115,-2.24 0.13375,-4.17375 0.13375,-4.595 0,-0.2875 0,-0.4775 -0.0187,-0.785 -0.30625,-0.7475 -0.345,-0.8225 -0.9975,-2.10625 -1.16625,-2.3175 -1.3,-2.56625 -2.00875,-3.83 -0.325,-0.555 -0.6325,-1.12875 -0.9575,-1.68375 -0.0762,-0.15375 -0.15375,-0.28875 -0.23,-0.44125 l 2.7775,-0.59375"
         id="path4157"
         style="fill:#231f20;fill-opacity:1;fill-rule:nonzero;stroke:none" />
      <path
         d="m 536.37265,473.96772 c 0.6125,1.8575 2.1425,5.5925 2.23875,5.82125 0.36375,0.88125 1.55125,3.6575 2.415,5.53375 0.41875,-0.91875 0.43875,-0.93875 1.12875,-2.60375 0.36375,-0.84375 0.72625,-1.705 1.07125,-2.54625 0.4025,-0.9775 0.7675,-1.935 1.16875,-2.8925 0.68875,-1.685 0.765,-1.87625 1.0525,-2.71875 l 2.355,-0.59375 c 0.0188,0.21125 0.0188,0.4025 0.0388,0.59375 0.095,2.10625 0.21125,4.1925 0.38375,6.3 0.0375,0.45875 0.34375,4.63375 0.6125,6.64375 l -2.68,0.4975 c -0.0588,-1.6075 -0.1925,-3.9825 -0.28875,-5.45625 -0.19125,-2.85375 -0.34375,-4.36625 -0.45875,-5.55375 -0.5175,1.11125 -1.82,4.30875 -2.2025,5.26625 -0.34375,0.8225 -0.67,1.64625 -1.01625,2.48875 -0.61125,1.55125 -0.72625,1.8775 -0.99375,2.7575 l -1.935,0.4975 c -1.0325,-2.94875 -3.21625,-8.00375 -4.49875,-10.9325 -0.02,0.40125 -0.17375,2.33625 -0.21,2.77625 -0.135,1.8575 -0.26875,4.0775 -0.26875,5.91625 0,0.89875 0.0387,1.32125 0.0762,1.7425 l -1.685,0.4975 c 0.69,-3.65625 1.35875,-11.47 1.475,-13.44125 l 2.22125,-0.59375"
         id="path4159"
         style="fill:#231f20;fill-opacity:1;fill-rule:nonzero;stroke:none" />
      <path
         d="m 554.12015,480.93772 c -0.0375,-1.665 0.0213,-5.0925 0.0775,-5.955 0.38375,-0.0187 0.7675,-0.0375 0.93875,-0.0375 1.58875,0 2.87125,0.325 2.87125,2.77625 0,3.12125 -2.04875,3.235 -3.8875,3.21625 z m -0.89875,-6.7025 -1.705,0.32625 c 0.0975,2.145 0.135,5.055 0.135,6.4525 0,0.53625 -0.0187,4.9025 -0.135,6.98875 l 2.7375,-0.4975 c -0.13375,-2.355 -0.1525,-4.175 -0.13375,-5.85875 1.11125,0.0187 3.0075,0.0187 4.3475,-0.7475 1.51375,-0.86125 2.08625,-2.43125 2.08625,-3.71375 0,-1.2825 -0.49625,-2.14625 -1.43375,-2.585 -0.63375,-0.2875 -1.37875,-0.365 -2.185,-0.365 l -3.71375,0"
         id="path4161"
         style="fill:#231f20;fill-opacity:1;fill-rule:nonzero;stroke:none" />
      <path
         d="m 565.40015,473.96772 c -0.0963,2.125 -0.155,3.58 -0.155,6.58625 0,3.0075 0.0775,5.1325 0.155,6.95125 l -2.75875,0.4975 c 0.11625,-2.3925 0.15375,-4.7675 0.15375,-7.16 0,-1.015 -0.02,-3.965 -0.15375,-6.3575 l 2.75875,-0.5175"
         id="path4163"
         style="fill:#231f20;fill-opacity:1;fill-rule:nonzero;stroke:none" />
      <path
         d="m 577.5714,487.31397 c -0.6125,0.24875 -1.70375,0.68875 -3.71375,0.68875 -1.475,0 -3.23625,-0.1525 -4.69125,-1.83875 -1.475,-1.7025 -1.55125,-3.92375 -1.55125,-4.82375 0,-4.385 2.54625,-7.3525 6.95,-7.3525 1.72375,0 2.81625,0.36375 3.27375,0.51625 -0.4,0.785 -0.47625,0.97625 -0.7825,1.87625 -0.69,-0.9575 -1.51375,-1.6475 -2.8925,-1.6475 -1.435,0 -2.355,0.7675 -2.83375,1.4375 -0.63125,0.8225 -1.07125,2.1825 -1.07125,4.25 0,0.76625 0.0562,1.5325 0.20875,2.29875 0.13375,0.785 0.38375,1.55 0.805,2.24 0.74625,1.26375 1.99,2.08625 3.56125,2.08625 1.6275,0 2.62375,-0.84125 3.04375,-1.20625 l -0.30625,1.475"
         id="path4165"
         style="fill:#231f20;fill-opacity:1;fill-rule:nonzero;stroke:none" />
      <path
         d="m 586.20765,476.41897 c -0.23125,-0.38375 -0.9575,-1.55125 -2.35375,-1.55125 -0.95875,0 -1.99375,0.6325 -1.99375,2.02875 0,0.46125 0.11625,1.01625 0.71,1.57125 0.45875,0.44125 0.78375,0.6125 2.39375,1.39875 1.7025,0.86 3.005,1.66375 3.005,3.56 0,2.43125 -2.20125,4.5575 -5.49625,4.5575 -1.24375,0 -2.47,-0.23 -3.58,-0.76625 0.4975,-0.785 0.61375,-1.01375 0.99625,-1.74125 0.61125,0.7275 1.3975,1.665 2.89125,1.665 2.125,0 2.68125,-1.7225 2.68125,-2.7375 0,-1.49375 -1.03375,-2.03 -2.20375,-2.6425 -2.37375,-1.18875 -3.79,-1.915 -3.79,-3.8875 0,-2.27875 1.9725,-3.88625 4.65375,-3.88625 1.05125,0 2.08625,0.2475 3.025,0.7075 -0.44125,0.7475 -0.555,0.97625 -0.93875,1.72375"
         id="path4167"
         style="fill:#231f20;fill-opacity:1;fill-rule:nonzero;stroke:none" />
      <path
         d="m 474.90515,458.94272 c -0.20625,-0.3425 -0.86,-1.39375 -2.11875,-1.39375 -0.86125,0 -1.79125,0.5675 -1.79125,1.825 0,0.415 0.10375,0.91375 0.6375,1.41375 0.41375,0.39625 0.70625,0.55125 2.15375,1.2575 1.5325,0.77375 2.70375,1.5 2.70375,3.20375 0,2.18875 -1.98,4.10125 -4.94375,4.10125 -1.12,0 -2.2225,-0.2075 -3.2225,-0.69 0.44875,-0.70625 0.55125,-0.9125 0.89625,-1.5675 0.5525,0.655 1.2575,1.5 2.6025,1.5 1.91125,0 2.41125,-1.55125 2.41125,-2.465 0,-1.3425 -0.93,-1.82625 -1.98125,-2.37625 -2.13625,-1.06875 -3.41,-1.72375 -3.41,-3.4975 0,-2.05 1.77375,-3.49875 4.185,-3.49875 0.94875,0 1.8775,0.225 2.7225,0.63875 -0.39625,0.67125 -0.5,0.8775 -0.845,1.54875"
         id="path4169"
         style="fill:#231f20;fill-opacity:1;fill-rule:nonzero;stroke:none" />
      <path
         d="m 480.1764,463.82022 c 0.27625,-0.69 1.5675,-3.825 2.1025,-4.94625 0.0687,0.225 0.4475,1.24125 0.53375,1.44875 0.13875,0.37875 0.93,2.56625 1.24125,3.4975 -0.53375,0.0337 -1.0175,0.0512 -1.74125,0.0512 -0.84375,0 -1.705,-0.035 -2.13625,-0.0512 z m 1.93,-6.565 c -0.8775,2.55 -4.53125,10.4925 -5.15,11.64625 l -0.26,0.46625 1.6725,-0.44875 c 0.37875,-1.5675 1.325,-3.9275 1.515,-4.34125 0.56875,-0.035 1.03375,-0.0512 2.4125,-0.0512 1.03375,0 1.46375,0.0162 1.9975,0.0512 0.415,1.13625 1.1725,3.4975 1.5,4.79 l 2.51375,-0.44875 c -1.015,-2.63625 -1.46375,-3.84125 -2.30625,-6.25375 -1.155,-3.29125 -1.44875,-4.3075 -1.93,-5.91 l -1.965,0.5"
         id="path4171"
         style="fill:#231f20;fill-opacity:1;fill-rule:nonzero;stroke:none" />
      <path
         d="m 492.07765,456.73897 c -0.12125,2.3075 -0.13875,5.1675 -0.13875,5.84 0,0.6025 0,3.86 0.13875,5.875 0.67125,0.0175 1.32625,-0.0162 1.92875,-0.0512 1.67125,-0.0862 2.27375,-0.19 2.9975,-0.31 l -0.43125,1.11875 c -0.8775,-0.0337 -1.11875,-0.0337 -3.3925,-0.0337 -0.5175,0 -2.99875,-0.035 -3.55,-0.035 0.07,-1.9975 0.12125,-4.015 0.12125,-6.0125 0,-1.98125 -0.0175,-3.9625 -0.12125,-5.92625 l 2.4475,-0.465"
         id="path4173"
         style="fill:#231f20;fill-opacity:1;fill-rule:nonzero;stroke:none" />
      <path
         d="m 504.0889,458.13397 c -0.93,-0.22375 -2.27375,-0.3275 -3.27375,-0.36125 -0.0863,1.62 -0.10375,3.22125 -0.10375,4.84 0,2.1025 0.0175,4.1875 0.12125,6.28875 l -2.42875,0.46625 c 0.0687,-2.275 0.0863,-4.53125 0.0863,-6.80625 0.0175,-1.6025 0,-3.1875 -0.0688,-4.78875 -1.06875,0.0337 -2.46375,0.1375 -3.63625,0.36125 l 0.44875,-1.2225 c 0.74125,0.0175 1.48125,0.0337 2.23875,0.0512 0.7425,0.0175 1.4825,0.035 2.2225,0.035 1.6025,0 3.68625,-0.0525 4.8075,-0.0862 l -0.41375,1.2225"
         id="path4175"
         style="fill:#231f20;fill-opacity:1;fill-rule:nonzero;stroke:none" />
      <path
         d="m 512.0814,456.73897 c -0.12,2.3075 -0.1375,5.1675 -0.1375,5.84 0,0.6025 0,3.86 0.1375,5.875 0.6725,0.0175 1.3275,-0.0162 1.93,-0.0512 1.67125,-0.0862 2.27375,-0.19 2.9975,-0.31 l -0.43125,1.11875 c -0.8775,-0.0337 -1.11875,-0.0337 -3.3925,-0.0337 -0.5175,0 -2.9975,-0.035 -3.54875,-0.035 0.0688,-1.9975 0.12,-4.015 0.12,-6.0125 0,-1.98125 -0.0175,-3.9625 -0.12,-5.92625 l 2.445,-0.465"
         id="path4177"
         style="fill:#231f20;fill-opacity:1;fill-rule:nonzero;stroke:none" />
      <path
         d="m 520.4889,463.82022 c 0.27625,-0.69 1.56875,-3.825 2.1025,-4.94625 0.0688,0.225 0.4475,1.24125 0.53375,1.44875 0.1375,0.37875 0.93,2.56625 1.24,3.4975 -0.53375,0.0337 -1.01625,0.0512 -1.74,0.0512 -0.84375,0 -1.705,-0.035 -2.13625,-0.0512 z m 1.93,-6.565 c -0.87875,2.55 -4.53125,10.4925 -5.15125,11.64625 l -0.25875,0.46625 1.6725,-0.44875 c 0.3775,-1.5675 1.325,-3.9275 1.515,-4.34125 0.56875,-0.035 1.03375,-0.0512 2.41125,-0.0512 1.03375,0 1.465,0.0162 1.99875,0.0512 0.41375,1.13625 1.1725,3.4975 1.5,4.79 l 2.51375,-0.44875 c -1.01625,-2.63625 -1.46375,-3.84125 -2.3075,-6.25375 -1.15375,-3.29125 -1.4475,-4.3075 -1.93,-5.91 l -1.96375,0.5"
         id="path4179"
         style="fill:#231f20;fill-opacity:1;fill-rule:nonzero;stroke:none" />
      <path
         d="m 532.39015,456.73897 c -0.12125,1.96375 -0.13875,3.945 -0.13875,5.90875 0.655,-0.58625 1.43,-1.51625 2.13625,-2.46375 0.70625,-0.93 1.36125,-1.9125 1.84375,-2.96375 l 2.2575,-0.48125 c -1.08625,1.13625 -3.49875,3.8925 -4.1875,4.78875 0.6375,1.05125 1.80875,2.74 2.49875,3.72125 0.24125,0.3275 2.37625,3.29125 2.65375,3.67 l -2.65375,0.44875 c -1.06875,-1.88 -2.96375,-4.6175 -4.08375,-6.2375 l -0.465,0.415 c 0,0.74 0.0175,3.39375 0.13875,5.37375 l -2.46375,0.44875 c 0.10375,-2.03375 0.12,-4.06625 0.12,-6.09875 0,-0.8275 -0.0162,-1.9825 -0.035,-2.98125 -0.0163,-1.43 -0.0337,-2.0675 -0.085,-3.08375 l 2.46375,-0.465"
         id="path4181"
         style="fill:#231f20;fill-opacity:1;fill-rule:nonzero;stroke:none" />
      <path
         d="m 546.8739,458.01272 c -0.2925,-0.0675 -0.655,-0.1375 -1.29125,-0.20625 -0.07,0 -1.37875,-0.1375 -2.65375,-0.155 -0.0525,1.24125 -0.085,2.8775 -0.085,4.5825 0.44875,0 0.84375,0 1.4125,-0.0162 1.48125,-0.0512 2.015,-0.1375 2.325,-0.19 l -0.3625,1.10245 c -0.98125,-0.18875 -2.3775,-0.20625 -3.375,-0.20625 0,1.84375 0,3.68625 0.12,5.53 1.32625,0.0175 2.3075,-0.0512 3.22125,-0.12 0.9825,-0.07 1.24125,-0.1375 1.70625,-0.24125 l -0.38,1.11875 c -0.84375,-0.0337 -1.05125,-0.0337 -3.49625,-0.0337 -0.98125,0 -2.5325,-0.035 -3.515,-0.035 0.085,-2.085 0.1375,-3.37625 0.1375,-6.20125 0,-2.9975 -0.0675,-4.395 -0.1375,-5.66875 l 1.43,-0.31 c 0.86125,0 4.72,-0.0512 5.34,-0.0687 l -0.39625,1.11865"
         id="path4183"
         style="fill:#231f20;fill-opacity:1;fill-rule:nonzero;stroke:none" />
      <path
         d="m 559.7089,469.21147 c -0.74,-0.0337 -1.31,-0.0512 -1.8425,-0.0687 -0.51875,-0.0175 -1.01875,-0.0175 -1.60375,-0.0175 -0.1025,0 -3.54875,0 -4.63375,0.0175 l 0.44875,-1.51625 c 0.51625,-0.395 0.7575,-0.585 1.6525,-1.48125 2.4475,-2.42875 3.91125,-3.89375 3.91125,-6.03 0,-1.34375 -0.68875,-2.41125 -1.94625,-2.41125 -1.19125,0 -1.67,0.89625 -1.67,1.60125 0,0.2075 0.0662,0.48375 0.1025,0.62125 l -1.42875,0.6375 c -0.035,-0.225 -0.055,-0.3975 -0.055,-0.56875 0,-1.655 1.4475,-3.205 4.0325,-3.205 2.23875,0 3.36,1.32625 3.36,2.92875 0,1.36125 -0.655,2.42875 -2.75875,4.29 -0.60125,0.53375 -1.2025,1.05125 -1.79,1.585 -0.2925,0.24125 -1.62,1.49875 -1.92875,1.77375 0.5325,0.0187 0.89625,0.0187 1.55125,0.0187 1.6525,0 3.89125,-0.0525 5.52875,-0.27625 l -0.93,2.10125"
         id="path4185"
         style="fill:#231f20;fill-opacity:1;fill-rule:nonzero;stroke:none" />
      <path
         d="m 565.5314,457.47897 c 1.3625,0 1.775,1.6725 1.96375,3.24 0.10375,0.86125 0.15625,1.7225 0.15625,2.585 0,1.48125 -0.07,3.1 -0.3625,3.99625 -0.10375,0.32625 -0.4125,1.30875 -1.4475,1.30875 -1.37875,0 -1.87875,-1.79 -2.0675,-3.53125 -0.1025,-0.9125 -0.15375,-1.84375 -0.15375,-2.75875 0,-0.5325 0.0163,-1.04875 0.0512,-1.56625 0.0513,-0.58625 0.12125,-1.15375 0.27375,-1.72125 0.0875,-0.32875 0.415,-1.5 1.535,-1.5525 l 0.0512,0 z m 4.29,5.1175 c 0,-1.43 -0.17375,-2.86125 -0.82625,-3.9625 -0.84375,-1.4825 -2.08375,-1.84375 -3.15375,-1.84375 -1.94625,0 -3.515,1.31 -4.0825,3.825 -0.20625,0.8775 -0.25875,1.73875 -0.25875,2.585 0,1.395 0.1725,3.01375 0.965,4.34125 0.87875,1.44625 1.965,1.77375 3.08375,1.77375 1.41125,0 2.48,-0.5 3.3075,-2.015 0.74,-1.34375 0.965,-2.94625 0.965,-4.70375"
         id="path4187"
         style="fill:#231f20;fill-opacity:1;fill-rule:nonzero;stroke:none" />
      <path
         d="m 574.8689,457.47897 c 1.36,0 1.775,1.6725 1.96375,3.24 0.10375,0.86125 0.15625,1.7225 0.15625,2.585 0,1.48125 -0.07,3.1 -0.3625,3.99625 -0.1025,0.32625 -0.41375,1.30875 -1.4475,1.30875 -1.3775,0 -1.87625,-1.79 -2.06625,-3.53125 -0.105,-0.9125 -0.15625,-1.84375 -0.15625,-2.75875 0,-0.5325 0.0175,-1.04875 0.0513,-1.56625 0.0525,-0.58625 0.12125,-1.15375 0.2775,-1.72125 0.0862,-0.32875 0.41375,-1.5 1.53125,-1.5525 l 0.0525,0 z m 4.29,5.1175 c 0,-1.43 -0.17375,-2.86125 -0.82625,-3.9625 -0.845,-1.4825 -2.085,-1.84375 -3.15375,-1.84375 -1.94625,0 -3.51375,1.31 -4.08375,3.825 -0.205,0.8775 -0.2575,1.73875 -0.2575,2.585 0,1.395 0.1725,3.01375 0.965,4.34125 0.87875,1.44625 1.965,1.77375 3.08375,1.77375 1.4125,0 2.48,-0.5 3.30625,-2.015 0.7425,-1.34375 0.96625,-2.94625 0.96625,-4.70375"
         id="path4189"
         style="fill:#231f20;fill-opacity:1;fill-rule:nonzero;stroke:none" />
      <path
         d="m 587.8889,469.21147 c -0.74,-0.0337 -1.30875,-0.0512 -1.84375,-0.0687 -0.51625,-0.0175 -1.01625,-0.0175 -1.6025,-0.0175 -0.1025,0 -3.54875,0 -4.63375,0.0175 l 0.4475,-1.51625 c 0.5175,-0.395 0.76,-0.585 1.655,-1.48125 2.44625,-2.42875 3.91125,-3.89375 3.91125,-6.03 0,-1.34375 -0.69,-2.41125 -1.94625,-2.41125 -1.18875,0 -1.67125,0.89625 -1.67125,1.60125 0,0.2075 0.0675,0.48375 0.1025,0.62125 l -1.43,0.6375 c -0.035,-0.225 -0.0512,-0.3975 -0.0512,-0.56875 0,-1.655 1.44625,-3.205 4.03125,-3.205 2.24,0 3.35875,1.32625 3.35875,2.92875 0,1.36125 -0.655,2.42875 -2.755,4.29 -0.60375,0.53375 -1.2075,1.05125 -1.79375,1.585 -0.29125,0.24125 -1.6175,1.49875 -1.9275,1.77375 0.5325,0.0187 0.895,0.0187 1.54875,0.0187 1.65375,0 3.89375,-0.0525 5.53,-0.27625 l -0.93,2.10125"
         id="path4191"
         style="fill:#231f20;fill-opacity:1;fill-rule:nonzero;stroke:none" />
      <path
         d="m 537.7039,348.15022 c -6.13875,0 -11.11125,4.97625 -11.11125,11.1125 0,6.13625 4.9725,11.11125 11.11125,11.11125 6.1375,0 11.1125,-4.975 11.1125,-11.11125 0,-6.13625 -4.975,-11.1125 -11.1125,-11.1125"
         id="path4245"
         style="fill:#e22739;fill-opacity:1;fill-rule:evenodd;stroke:none" />
      <path
         d="m 569.26515,398.02272 c -8.8875,-2.15625 -40.1725,-19.93125 -54.5075,-26.91375 -24.48375,-11.92875 -39.695,4.91375 -39.695,4.91375 0,0 9.47,-1.4075 18.35875,0.74875 8.88875,2.155 40.17125,19.93 54.505,26.915 24.485,11.92625 39.6925,-4.91625 39.6925,-4.91625 0,0 -9.46625,1.41 -18.35375,-0.7475"
         id="path4247"
         style="fill:#74a61a;fill-opacity:1;fill-rule:evenodd;stroke:none" />
      <path
         d="m 563.7189,423.71272 c -8.88875,-2.15625 -40.1725,-19.92875 -54.50625,-26.91125 -24.48625,-11.93 -39.695,4.91375 -39.695,4.91375 0,0 9.47,-1.41125 18.35875,0.745 8.88875,2.1575 40.16875,19.93 54.50375,26.91625 24.48625,11.92625 39.695,-4.91625 39.695,-4.91625 0,0 -9.46875,1.41125 -18.35625,-0.7475"
         id="path4249"
         style="fill:#0082b8;fill-opacity:1;fill-rule:evenodd;stroke:none" />
      <path
         d="m 501.06765,428.43522 c 1.0375,-1.08 3.05,-2.29625 5.65875,-1.00625 0.0875,0.0412 0.3375,0.19 0.47375,0.28125 0.94375,0.63125 4.3725,3.765 0.265,8.985 -0.54,0.68875 -3.2975,4.1175 -8.985,3.4575 -6.11125,-0.7075 -9.68125,-6.46625 -8.33875,-11.86 0,0 -0.5,3.56875 2.64,4.875 1.4225,0.59625 3.8775,1.04 5.58125,-0.31 0.69625,-0.55125 1.35375,-1.4175 1.82875,-2.76125 0.07,-0.1925 0.30375,-1.06125 0.87625,-1.66125"
         id="path4251"
         style="fill:#0082b8;fill-opacity:1;fill-rule:nonzero;stroke:none" />
      <path
         d="m 480.77015,428.60772 c 1.03625,-1.08125 3.05,-2.2975 5.65875,-1.00875 0.0863,0.0425 0.33625,0.19 0.475,0.2825 0.9425,0.63125 4.36875,3.765 0.26375,8.985 -0.53875,0.68875 -3.29875,4.11875 -8.9875,3.4575 -6.10875,-0.7075 -9.68,-6.46375 -8.335,-11.85875 0,0 -0.50375,3.5675 2.635,4.875 1.42625,0.59375 3.8825,1.03875 5.5875,-0.31125 0.695,-0.55 1.35125,-1.415 1.8275,-2.76125 0.0675,-0.19 0.3025,-1.06125 0.875,-1.66"
         id="path4253"
         style="fill:#e22739;fill-opacity:1;fill-rule:nonzero;stroke:none" />
      <path
         d="m 489.6764,415.34397 c 1.03625,-1.08 3.04875,-2.29375 5.65875,-1.00625 0.0863,0.04 0.33375,0.19 0.4725,0.28125 0.945,0.63125 4.37,3.76625 0.265,8.98625 -0.54,0.6875 -3.29875,4.11625 -8.985,3.4575 -6.11,-0.7075 -9.6825,-6.46625 -8.33875,-11.86 0,0 -0.50125,3.5675 2.6375,4.87375 1.425,0.595 3.8825,1.04125 5.58625,-0.31 0.695,-0.55125 1.35,-1.415 1.82625,-2.75875 0.07,-0.1925 0.3025,-1.0625 0.8775,-1.66375"
         id="path4255"
         style="fill:#74a61a;fill-opacity:1;fill-rule:nonzero;stroke:none" />
      <path
         d="m 579.1714,434.78397 0.37,0 c 0.3325,0 0.4675,0 0.58375,0.105 0.08,0.0675 0.12875,0.17875 0.12875,0.30125 0,0.14125 -0.0613,0.25875 -0.1475,0.32625 -0.14125,0.105 -0.36875,0.105 -0.47875,0.105 l -0.45625,0 0,-0.8375 z m -0.405,-0.3075 0,2.7375 0.39875,0 0,-1.2725 0.1975,0 c 0.3875,0.005 0.60875,0.055 0.68875,0.46125 0.0125,0.0675 0.055,0.375 0.0675,0.43625 0.025,0.12875 0.0562,0.2525 0.11125,0.375 l 0.46,0 c -0.1225,-0.24625 -0.14,-0.39375 -0.2025,-0.79375 -0.0537,-0.3375 -0.1475,-0.4975 -0.43625,-0.6025 0.3325,-0.0487 0.6075,-0.2775 0.6075,-0.6575 0,-0.25875 -0.14,-0.51125 -0.41625,-0.615 -0.16625,-0.0625 -0.32,-0.0687 -0.63375,-0.0687 l -0.8425,0 z m 3.06875,1.3725 c 0,-1.19375 -0.92875,-2.18375 -2.19625,-2.18375 -1.175,0 -2.18375,0.92875 -2.18375,2.19 0,1.2975 1.04625,2.19 2.18375,2.19 1.2425,0 2.19625,-0.97875 2.19625,-2.19625 z m -2.19625,1.99875 c -1.08875,0 -1.98625,-0.87375 -1.98625,-1.9925 0,-1.095 0.87375,-1.99375 1.99875,-1.99375 1.1325,0 1.98625,0.89875 1.98625,1.9875 0,1.1075 -0.86625,1.99875 -1.99875,1.99875"
         id="path4257"
         style="fill:#231f20;fill-opacity:1;fill-rule:nonzero;stroke:none" />
    </g>
  </g>
</svg>
