<?xml version="1.0" encoding="utf-8"?>
<!-- Generator: Adobe Illustrator 27.0.0, SVG Export Plug-In . SVG Version: 6.00 Build 0)  -->
<svg version="1.1" id="Pictogram" xmlns="http://www.w3.org/2000/svg" xmlns:xlink="http://www.w3.org/1999/xlink" x="0px" y="0px"
	 viewBox="0 0 144 144" style="enable-background:new 0 0 144 144;" xml:space="preserve">
<style type="text/css">
	.st0{fill:none;}
</style>
<g>
	<ellipse cx="45" cy="20.7" rx="9" ry="9"/>
	<path d="M118.5,33.4c-8.7,0-16.9,3.4-23.1,9.6l-8.8,8.8c-0.5-0.2-1.2-0.3-1.8-0.3H66.7L51.4,36.1c-3.5-3.5-9.2-3.5-12.7,0
		c-1.8,1.8-2.6,4.1-2.6,6.4V72h18V53.3l7,7c1,1,2.3,1.5,3.6,1.5h12l-6.6,6.6c-5.7,5.7-13.2,8.8-21.2,8.8H0v2.7h39.1l20.1,20.1v28.7
		c0,2.8,2.3,5.1,5.1,5.1c2.8,0,5.1-2.3,5.1-5.1V97.7c0-1.4-0.6-2.7-1.5-3.6L53.4,79.5c7-1,13.6-4.2,18.7-9.3l8.5-8.5h4.3
		c2.8,0,5.1-2.3,5.1-5.1c0-1.2-0.4-2.3-1.1-3.2l8.5-8.5c5.7-5.7,13.2-8.8,21.2-8.8h12.5V72c0,2.1-1.7,3.8-3.8,3.8
		c-1,0-2-0.4-2.7-1.1l-14.1-14.1l-1.9,1.9l14.1,14.1c1.2,1.2,2.9,1.9,4.6,1.9c3.6,0,6.5-2.9,6.5-6.5V33.4H118.5z"/>
</g>
<rect class="st0" width="144" height="144"/>
</svg>
