<?xml version="1.0" encoding="UTF-8"?><svg id="Pictogram" xmlns="http://www.w3.org/2000/svg" viewBox="0 0 144 144"><defs><style>.cls-1{fill:none;}.cls-1,.cls-2{stroke-width:0px;}</style></defs><path class="cls-2" d="M127.9,63.14c-.88-.66-1.93-.99-2.97-.99s-2.09.33-2.97.99c-2.69,2.02-4.74,4.82-5.82,8.08h-4.61l-33.91-33.91c-.91-.91-2.17-1.48-3.57-1.48h-20.19c-2.79,0-5.04,2.26-5.04,5.05s2.26,5.04,5.04,5.04h18.1l7.8,7.8-18.89,18.89,16.06,16.06,18.89-18.89,10.05,10.05c.98.98,2.28,1.48,3.57,1.48h6.55c1.04,3.44,3.15,6.41,5.96,8.52.88.66,1.93.99,2.97.99s2.09-.33,2.97-.99c4.05-3.05,6.67-7.89,6.67-13.35,0-5.47-2.62-10.31-6.67-13.35ZM126.29,87.7c-.39.3-.86.46-1.37.46s-.96-.16-1.37-.46c-1.7-1.28-3.11-2.95-4.08-4.85-1.01-1.99-1.53-4.12-1.53-6.36s.52-4.38,1.53-6.36c.96-1.89,2.38-3.57,4.08-4.85.39-.3.86-.46,1.37-.46s.96.16,1.37.46c1.7,1.28,3.11,2.95,4.08,4.85,1.01,1.99,1.53,4.12,1.53,6.36s-.52,4.38-1.53,6.36c-.95,1.9-2.36,3.57-4.08,4.85ZM110.69,39.15c-3.46-3.44-9.04-3.44-12.48,0-3.46,3.46-3.46,9.04,0,12.5,3.46,3.46,9.04,3.46,12.48,0,3.46-3.46,3.46-9.04,0-12.5ZM82.3,101.17l-24.98-24.97-25.73-.2v2.74s23.01.17,23.01.17L10.92,122.59c-1.97,1.97-1.97,5.17,0,7.14,1.97,1.97,5.17,1.97,7.14,0l19.93-19.93h40.74c1.3,0,2.58-.49,3.57-1.48s1.48-2.28,1.48-3.57c-.01-1.3-.5-2.59-1.48-3.57ZM48.08,99.69l9.23-9.23,9.23,9.23h-18.46Z"/><rect class="cls-1" width="144" height="144"/></svg>