<?xml version="1.0" encoding="utf-8"?>
<!-- Generator: Adobe Illustrator 27.0.0, SVG Export Plug-In . SVG Version: 6.00 Build 0)  -->
<svg version="1.1" id="Pictogram" xmlns="http://www.w3.org/2000/svg" xmlns:xlink="http://www.w3.org/1999/xlink" x="0px" y="0px"
	 viewBox="0 0 144 144" style="enable-background:new 0 0 144 144;" xml:space="preserve">
<style type="text/css">
	.st0{fill:none;}
</style>
<g>
	<ellipse cx="93.8" cy="20.6" rx="9" ry="9"/>
	<ellipse cx="63.1" cy="93.9" rx="9" ry="9"/>
	<path d="M27.1,118.3h36V144h23.1V72h26.9c2.8,0,5.1-2.3,5.1-5.1s-2.3-5.1-5.1-5.1H86.2c0,0,0-27.1,0-27.2c-0.1-4.9-4.1-8.7-9-8.7
		c-2.5,0-4.7,1-6.4,2.6L42.7,56.6h25.5l7.8-7.8v13H41.1c0,5.7,4.6,10.3,10.3,10.3h24.5v36H27.1c-2.8,0-5.1,2.3-5.1,5.1
		S24.2,118.3,27.1,118.3z"/>
</g>
<rect class="st0" width="144" height="144"/>
</svg>
