<?xml version="1.0" encoding="utf-8"?>
<!-- Generator: Adobe Illustrator 27.0.0, SVG Export Plug-In . SVG Version: 6.00 Build 0)  -->
<svg version="1.1" id="Pictogram" xmlns="http://www.w3.org/2000/svg" xmlns:xlink="http://www.w3.org/1999/xlink" x="0px" y="0px"
	 viewBox="0 0 144 144" style="enable-background:new 0 0 144 144;" xml:space="preserve">
<style type="text/css">
	.st0{fill:none;}
</style>
<g>
	<circle cx="69.1" cy="40.2" r="9"/>
	<path d="M128.6,126c-2.8,0-5.1,2.3-5.1,5.1c0,2.8,2.3,5.1,5.1,5.1c2.8,0,5.1-2.3,5.1-5.1C133.7,128.3,131.4,126,128.6,126z
		 M128.6,133.6c-1.3,0-2.4-1.1-2.4-2.4c0-1.3,1.1-2.4,2.4-2.4s2.4,1.1,2.4,2.4C131,132.5,129.9,133.6,128.6,133.6z"/>
	<path d="M118.5,41.1c-8.7,0-16.9,3.4-23.1,9.6L83.6,62.5h-11L46.6,36.4V19.3h44.4v8.9h10.3V7.7H90.9v8.9H46.4
		c-0.2-0.9-0.7-1.7-1.3-2.3c-0.9-0.9-2.2-1.5-3.6-1.5c-1.4,0-2.7,0.6-3.6,1.5s-1.5,2.2-1.5,3.6v20.6c0,1.3,0.5,2.6,1.5,3.6l8.2,8.2
		L16.6,79.7H42l16.7-16.7l8.2,8.2c0.9,0.9,2.2,1.5,3.6,1.5h2.9L70.1,76c-5.7,5.7-13.2,8.8-21.2,8.8H0v2.7h19.2l17.9,17.9L19,123.6
		c-2,2-2,5.3,0,7.3s5.3,2,7.3,0l21.8-21.8c2-2,2-5.3,0-7.3L33.8,87.5h15.2c8.7,0,16.9-3.4,23.1-9.6l5.2-5.2h13.9
		c1.4,0,2.7-0.6,3.6-1.5s1.5-2.2,1.5-3.6s-0.6-2.7-1.5-3.6s-2.2-1.5-3.6-1.5h-3.6l9.9-9.9c5.7-5.7,13.2-8.8,21.2-8.8h12.5v35.9
		c0,2.1-1.7,3.8-3.8,3.8c-1,0-2-0.4-2.7-1.1l-14.1-14.1l-1.9,1.9l14.1,14.1c1.2,1.2,2.9,1.9,4.6,1.9c3.6,0,6.5-2.9,6.5-6.5V41.1
		H118.5z M93.7,10.4h4.8v15.1h-4.8V10.4z"/>
</g>
<rect class="st0" width="144" height="144"/>
</svg>
