<?xml version="1.0" encoding="utf-8"?>
<!-- Generator: Adobe Illustrator 27.0.0, SVG Export Plug-In . SVG Version: 6.00 Build 0)  -->
<svg version="1.1" id="Pictogram" xmlns="http://www.w3.org/2000/svg" xmlns:xlink="http://www.w3.org/1999/xlink" x="0px" y="0px"
	 viewBox="0 0 144 144" style="enable-background:new 0 0 144 144;" xml:space="preserve">
<style type="text/css">
	.st0{fill:none;}
</style>
<g>
	<path d="M87.4,30.9H37.8c-2.8,0-5.1,2.3-5.1,5.1c0,2.8,2.3,5.1,5.1,5.1h15l10.3,10.3h24.3c5.7,0,10.3-4.6,10.3-10.3
		S93.1,30.9,87.4,30.9z"/>
	<ellipse cx="108.5" cy="32.1" rx="9" ry="9"/>
	<path d="M78.5,110.6V76.2c0-1.4-0.5-2.6-1.4-3.6L48.5,44c-4,4-4,10.5,0,14.5l15.1,15.1l-28.1,28.1c-1,1-1.5,2.3-1.5,3.6
		c0,1.3,0.5,2.6,1.5,3.6c1,1,2.3,1.5,3.6,1.5c1.3,0,2.6-0.5,3.6-1.5l25.5-25.5v27c0,1.4,0.6,2.7,1.5,3.6c0.9,0.9,2.2,1.5,3.6,1.5
		c1.4,0,2.7-0.6,3.6-1.5C78,113.3,78.5,112,78.5,110.6z"/>
	<ellipse cx="59.7" cy="122.8" rx="3.2" ry="3.2"/>
	<ellipse cx="68.7" cy="122.8" rx="3.2" ry="3.2"/>
	<circle cx="77.6" cy="122.8" r="3.2"/>
	<ellipse cx="86.7" cy="122.8" rx="3.2" ry="3.2"/>
	<circle cx="26.9" cy="94.5" r="3.2"/>
	<circle cx="26.9" cy="103.5" r="3.2"/>
	<circle cx="26.9" cy="112.5" r="3.2"/>
	<circle cx="26.9" cy="121.5" r="3.2"/>
</g>
<rect class="st0" width="144" height="144"/>
</svg>
