<svg height="336.5728" viewBox="0 0 324.77 367.96" width="297.112541" xmlns="http://www.w3.org/2000/svg" xmlns:xlink="http://www.w3.org/1999/xlink"><linearGradient id="a" gradientTransform="matrix(1 -.09 .09 1 79.7 104.39)" gradientUnits="userSpaceOnUse" x1="33.83" x2="150.09" y1="3.3" y2="77.35"><stop offset="0" stop-color="#6bb92d"/><stop offset=".14" stop-color="#6fba2c"/><stop offset=".27" stop-color="#7abc28"/><stop offset=".4" stop-color="#8dc023"/><stop offset=".52" stop-color="#a8c61a"/><stop offset=".65" stop-color="#cbce10"/><stop offset=".77" stop-color="#f5d703"/><stop offset=".8" stop-color="#ffd900"/><stop offset=".84" stop-color="#fed500"/><stop offset=".88" stop-color="#fcca00"/><stop offset=".92" stop-color="#f9b700"/><stop offset=".96" stop-color="#f49c00"/><stop offset="1" stop-color="#ee7900"/><stop offset="1" stop-color="#ee7800"/></linearGradient><path d="m151.73 277.54c-8.89-2-21 .21-32.5 6.83-17.94 10.36-27.45 27.49-21.23 38.25 4 6.88 13.41 9.5 24.38 7.79-5-1.15-9-3.68-11.25-7.56-6.21-10.77 3.3-27.89 21.24-38.25a56.88 56.88 0 0 1 19.37-7.06" fill="#e72842"/><path d="m151.88 320c2.68 8.72 10.7 18.11 22.17 24.73 17.94 10.36 37.52 10 43.74-.74 4-6.87 1.52-16.35-5.44-25 1.51 4.93 1.31 9.64-.93 13.52-6.22 10.77-25.8 11.1-43.75.74a56.85 56.85 0 0 1 -15.79-13.25" fill="#094"/><path d="m139.72 298.89c-6.22 6.67-10.34 18.31-10.34 31.56 0 20.72 10.08 37.51 22.51 37.51 7.94 0 14.93-6.86 18.93-17.21-3.51 3.77-7.69 5.95-12.17 5.95-12.43 0-22.51-16.79-22.51-37.51a56.6 56.6 0 0 1 3.58-20.3" fill="#0079c5"/><path d="m226.28 138.35c1.85-1.21 21.84-21.64-.86-23.71s-65.06 26.6-67.69 33.07c11.65-7 29.72-22.49 56.31-24.36 26.17-1.82 12.09 14.79 12.24 15" fill="#00b9ef"/><path d="m200.26 20.44s-83.26 19.56-132.06 140.21c72.2-101.24 156.47-106.65 156.47-106.65z" fill="#00b9ef"/><path d="m72.28 74.45s3.88 13.55 3.63 13.71c0 0 119-40.77 148.8-34.16l-24.45-33.56s-66.95 16.37-127.98 54.01z" fill="#0059a8"/><path d="m165.71 0s-67.95 37.86-93.43 74.45c0 0 3.85 13.85 3.68 13.7 0 0 48.52-39.67 70.1-49.62z" fill="#c4092a"/><path d="m195.52 76.36c-45.58 13.26-80.72 35-116 76.49-8.75 10.29-18.35 22.9-18.35 22.9l26-2.23c99.83-105.6 202.55-92.77 143-31.52 74.39-55.39 12.92-79.49-34.65-65.64z" fill="url(#a)"/><path d="m60.07 238.47-1.9-5.56a53.34 53.34 0 0 0 -12 .05c.62-1.81 1.36-3.84 2.3-6.37a74 74 0 0 1 14.25-.79l-1.72-5.8a116.54 116.54 0 0 0 -16.11 0 1.88 1.88 0 0 0 -.7.1 201.85 201.85 0 0 0 -9.43 26.9l4.05 6h2.59c7.8-.06 8.51-.27 17.71-1l-2-6.19a59.69 59.69 0 0 1 -14.5.85c.54-2.7 1-4.82 1.49-6.72a95.32 95.32 0 0 1 15.97-1.47z"/><path d="m28 231.92a11.3 11.3 0 0 0 4.63-6.28l-1.85-5.64a.61.61 0 0 0 -.05.12v-.12a51.76 51.76 0 0 0 -30.73-.42l4.31 6.35a39.79 39.79 0 0 1 5.59-1.56 186.67 186.67 0 0 0 -8.64 27.8c28.44 4.24 32.13-11.89 32.13-11.89l-1.91-5.66a8.27 8.27 0 0 0 -3.48-2.7zm-17.11 13.47c1.26-5.24 3.33-13.07 6.31-21.85a48.74 48.74 0 0 1 10.41.83c-4.51 4.17-11.18 5.44-11.18 5.44l1.9 5.65s6.66 0 11 3c-4.53 6-12.59 7.02-18.44 6.93z"/><path d="m78.82 220h-6.65a184.38 184.38 0 0 0 -11 32.94h8.13a230.48 230.48 0 0 1 9.52-32.94z"/><path d="m100.74 220a184.38 184.38 0 0 0 -11 32.94h8.14a230.48 230.48 0 0 1 9.51-32.94z"/><path d="m133.42 220a190 190 0 0 0 -7.62 20.38 91.06 91.06 0 0 1 -4.39-20.38h-6.64a183.41 183.41 0 0 0 -11 32.94h8.13s1.55-8 4.91-19.17a95.46 95.46 0 0 0 5.59 19.23h8.14a230.48 230.48 0 0 1 9.52-33z"/><path d="m306.18 243.81c-4.72-1.84-10.37-1.95-15.74-1.31a80.61 80.61 0 0 0 10.22-14.76l-2.32-6.93c-5.67-1.34-15.29-1-22.86 3.2l2.32 6.9a35.15 35.15 0 0 1 15.08-3.73c-2.3 3.9-7.31 10-18.19 18l-2.53-2.4a30.53 30.53 0 0 0 -11.93-1.6 81.74 81.74 0 0 0 10.31-15.52l-2.3-6.92c-5.7-1.21-15-1-22.48 3.36l2.48 7s7.1-4.64 15.25-4.71c-2.28 4.28-7.83 11.58-21.37 21.28l-.2.09 5.69 8.13a48.65 48.65 0 0 1 23.68-6.32l-.14.05 5.52 8.25s19.54-11.67 38.78-5.11z"/><path d="m239.43 222.12s-7.12-2.27-7.12-2.27a29.75 29.75 0 0 0 -13.81 9.15c-5.55 6.67-5.59 12.48-4.23 16.66l-1.47-1.44a30.44 30.44 0 0 0 -12-1.76 83.2 83.2 0 0 0 10.71-15.64l-2.32-6.92a34.93 34.93 0 0 0 -23 3.6l2.34 6.92c2.3-1.55 9.47-3.92 15.63-4.41-2.43 4.29-8.14 11.4-21.5 20.71l-.18.08 5 7.37.56.83s13-7.76 27.9-5.66a16.58 16.58 0 0 0 2.48 3.11l7.7 2.33a22.64 22.64 0 0 0 13.88-9.15c10-15.1-.57-23.51-.57-23.51zm-6.65 21.15a31.23 31.23 0 0 1 -9.44 7c-2.29-4.63-4.24-12.14 1.75-19.12a31.06 31.06 0 0 1 9.65-7c2.03 4.72 3.76 12.33-1.96 19.12z"/><path d="m84.73 220s-4.13 15.21-9.61 32.15c-1.86 5.78-4.61 9.28-7.8 10.52a9.15 9.15 0 0 1 -4.95.24l8.26 3.2c8.51-1.33 11-7.94 12.8-12.67 2-5.29 9.46-33.44 9.46-33.44z"/><path d="m168.41 226.43-2.27-6.88c-20.79-.17-30.18 13.19-29.57 24.76a14.68 14.68 0 0 0 .45 3l3.17 4.65c3.41 2.15 9.05 1.21 16.14-3-1.81 3.24-4.4 6.13-8 6.93.21 0 5.7 2.83 7 2.24a22 22 0 0 0 11.91-17.39l-7.44-2.83c-4.66 7.31-14.33 10.1-17.4 8.45-4.78-2.58 4.83-20.78 26.01-19.93z"/><g fill="#231916"><path d="m315.77 221.63h-1.77v-.63h4.32v.64h-1.78v5.2h-.76z"/><path d="m323.88 224.27c0-.82-.09-1.81-.09-2.52-.21.67-.44 1.41-.74 2.21l-1 2.83h-.57l-.95-2.78c-.28-.83-.5-1.57-.67-2.26 0 .72-.06 1.69-.11 2.58l-.15 2.5h-.72l.4-5.84h1l1 2.83c.24.71.44 1.35.59 2 .15-.59.36-1.23.62-2l1-2.83h1l.37 5.84h-.86z"/></g></svg>