<?xml version="1.0" encoding="utf-8"?>
<!-- Generator: Adobe Illustrator 27.0.0, SVG Export Plug-In . SVG Version: 6.00 Build 0)  -->
<svg version="1.1" id="Pictogram" xmlns="http://www.w3.org/2000/svg" xmlns:xlink="http://www.w3.org/1999/xlink" x="0px" y="0px"
	 viewBox="0 0 144 144" style="enable-background:new 0 0 144 144;" xml:space="preserve">
<style type="text/css">
	.st0{fill:none;}
</style>
<g>
	<path d="M120.9,120.9c-2.8,0-5.1,2.3-5.1,5.1c0,2.8,2.3,5.1,5.1,5.1s5.1-2.3,5.1-5.1C126,123.2,123.7,120.9,120.9,120.9z
		 M120.9,128.4c-1.3,0-2.4-1.1-2.4-2.4s1.1-2.4,2.4-2.4c1.3,0,2.4,1.1,2.4,2.4S122.2,128.4,120.9,128.4z"/>
	<path d="M44.1,88.9L16.9,61.6c-4,4-4,10.5,0,14.5l18.5,18.5v31.3c0,2.8,2.3,5.1,5.1,5.1s5.1-2.3,5.1-5.1V92.5
		C45.6,91.2,45.1,89.9,44.1,88.9z"/>
	<g>
		<ellipse cx="65.6" cy="25.6" rx="9" ry="9"/>
		<path d="M85.7,115.2L57.4,86.9c0.9-1.1,1.3-2.4,1.1-3.7c0-0.1,0-41.6,0-41.6c0-5-4-9-9-9c-2.5,0-4.7,1-6.4,2.6L20.5,58
			c0,0,29.2,29.3,29.3,29.3c1.5,1.5,3.6,1.9,5.4,1.2l28.6,28.6l-6.3,6.3l7.3,7.3l14.5-14.5l-7.3-7.3L85.7,115.2z M48.3,71.3
			l-7.8-7.8l7.8-7.8V71.3z M84.7,126.8l-3.4-3.4L92,112.7l3.4,3.4L84.7,126.8z"/>
	</g>
</g>
<rect class="st0" width="144" height="144"/>
</svg>
