<?xml version="1.0" encoding="utf-8"?>
<!-- Generator: Adobe Illustrator 27.0.0, SVG Export Plug-In . SVG Version: 6.00 Build 0)  -->
<svg version="1.1" id="Pictogram" xmlns="http://www.w3.org/2000/svg" xmlns:xlink="http://www.w3.org/1999/xlink" x="0px" y="0px"
	 viewBox="0 0 144 144" style="enable-background:new 0 0 144 144;" xml:space="preserve">
<style type="text/css">
	.st0{fill:none;}
</style>
<g>
	<path d="M87,78.5l25.5,25.5c2,2,5.3,2,7.3,0c2-2,2-5.3,0-7.3L94.3,71.2L87,78.5z"/>
	<path d="M68.9,45.7l25.5-25.5c2-2,2-5.3,0-7.3s-5.3-2-7.3,0L37.9,62.2L25.1,49.3c-2.9-2.9-4.6-6.9-4.6-11v-17
		c-2.9,0.9-5.4,2.5-7.5,4.5c-3.3,3.3-5.4,7.9-5.4,13c0,5.1,2.1,9.7,5.4,13L34.3,73c0.9,0.9,2.2,1.5,3.6,1.5c1.4,0,2.7-0.6,3.6-1.5
		l10.9-10.9l21.8,21.8l16.4-16.4L68.9,45.7z M27.7,62.6L15,50c-3-3-4.6-6.9-4.6-11.1c0-4.2,1.6-8.1,4.6-11.1
		c0.8-0.8,1.8-1.6,2.8-2.2v12.7c0,2.4,0.5,4.8,1.4,7c0.9,2.2,2.2,4.2,4,5.9l7.9,7.9L27.7,62.6z"/>
	<circle cx="46.1" cy="34.7" r="9"/>
	<path d="M131.1,7.7c-2.8,0-5.1,2.3-5.1,5.1s2.3,5.1,5.1,5.1c2.8,0,5.1-2.3,5.1-5.1S134,7.7,131.1,7.7z M131.1,15.3
		c-1.3,0-2.4-1.1-2.4-2.4s1.1-2.4,2.4-2.4c1.3,0,2.4,1.1,2.4,2.4S132.5,15.3,131.1,15.3z"/>
	<path d="M85.2,80.3L78,87.6l47.2,47.2l0,0l0.1,0.1l0,0c2,1.9,5.2,1.9,7.2-0.1c2-2,2-5.2,0.1-7.2L85.2,80.3z"/>
</g>
<rect class="st0" width="144" height="144"/>
</svg>
