<?xml version="1.0" encoding="utf-8"?>
<!-- Generator: Adobe Illustrator 27.0.0, SVG Export Plug-In . SVG Version: 6.00 Build 0)  -->
<svg version="1.1" id="Pictogram" xmlns="http://www.w3.org/2000/svg" xmlns:xlink="http://www.w3.org/1999/xlink" x="0px" y="0px"
	 viewBox="0 0 144 144" style="enable-background:new 0 0 144 144;" xml:space="preserve">
<style type="text/css">
	.st0{fill:none;}
</style>
<g>
	<g>
		<path d="M120.9,87.6c1.3,0,2.4,1.1,2.4,2.4s-1.1,2.4-2.4,2.4s-2.4-1.1-2.4-2.4S119.5,87.6,120.9,87.6 M120.9,84.8
			c-2.9,0-5.2,2.3-5.2,5.2s2.3,5.2,5.2,5.2s5.2-2.3,5.2-5.2S123.7,84.8,120.9,84.8L120.9,84.8z"/>
		<path d="M42.4,63.5h30.4L59.3,77.1l16.4,16.4l29.9-29.9H120c1.4,0,2.7-0.6,3.6-1.5l14.5-14.5c1-1,1.5-2.3,1.5-3.6
			c0-1.3-0.5-2.6-1.5-3.6c-1-1-2.3-1.5-3.6-1.5c-0.9,0-1.8,0.2-2.6,0.7l-8.7-8.7c1.3-1.7,2.1-3.9,2.1-6.2c0-2.8-1.2-5.4-3-7.3
			s-4.4-3-7.3-3s-5.4,1.2-7.3,3c-1.9,1.9-3,4.4-3,7.3s1.2,5.4,3,7.3c1.9,1.9,4.4,3,7.3,3c2.3,0,4.5-0.8,6.2-2.1l8.6,8.6l-12.1,12.1
			H42.5c-1.4,0-2.7,0.6-3.6,1.5c-0.9,0.9-1.5,2.2-1.5,3.6c0,1.4,0.6,2.7,1.5,3.6C39.7,63,41,63.5,42.4,63.5z M120.4,29.8
			c-1.4,1.4-3.3,2.2-5.3,2.2s-3.9-0.8-5.3-2.2c-1.4-1.4-2.2-3.3-2.2-5.3c0-2,0.8-3.9,2.2-5.3c1.4-1.4,3.3-2.2,5.3-2.2
			s3.9,0.8,5.3,2.2s2.2,3.3,2.2,5.3C122.6,26.5,121.9,28.4,120.4,29.8z"/>
		<ellipse cx="91.3" cy="39.9" rx="9" ry="9"/>
		<path d="M144,109.2H83c-0.2-0.9-0.7-1.8-1.4-2.5l-26-26l-25.5,25.5l-3,3H15.6V9.3H144V6.6H12.9v105.3h11.7L8.4,128
			c-2,2-2,5.3,0,7.3s5.3,2,7.3,0l23.4-23.4h30.1L53,128c-2,2-2,5.3,0,7.3s5.3,2,7.3,0L81.6,114c0.6-0.6,1-1.3,1.3-2.1H144V109.2z
			 M41.8,109.2l13.9-13.9l13.9,13.9H41.8z"/>
	</g>
</g>
<rect class="st0" width="144" height="144"/>
</svg>
