<?xml version="1.0" encoding="UTF-8" standalone="no"?>
<!-- Created with Inkscape (http://www.inkscape.org/) -->

<svg
   xmlns:dc="http://purl.org/dc/elements/1.1/"
   xmlns:cc="http://creativecommons.org/ns#"
   xmlns:rdf="http://www.w3.org/1999/02/22-rdf-syntax-ns#"
   xmlns:svg="http://www.w3.org/2000/svg"
   xmlns="http://www.w3.org/2000/svg"
   xmlns:xlink="http://www.w3.org/1999/xlink"
   xmlns:sodipodi="http://sodipodi.sourceforge.net/DTD/sodipodi-0.dtd"
   xmlns:inkscape="http://www.inkscape.org/namespaces/inkscape"
   width="223.25201"
   height="301.01334"
   id="svg2"
   version="1.1"
   inkscape:version="0.48.2 r9819"
   sodipodi:docname="2016 Summer Paralympics logo.svg">
  <defs
     id="defs4">
    <clipPath
       id="clipPath3053"
       clipPathUnits="userSpaceOnUse">
      <path
         id="path3055"
         d="m 0,0 595.275,0 0,833.017 L 0,833.017 0,0 z"
         inkscape:connector-curvature="0" />
    </clipPath>
    <radialGradient
       id="radialGradient5129-5"
       spreadMethod="pad"
       gradientTransform="matrix(-47.629395,95.814804,95.814804,47.629395,242.86548,316.35001)"
       gradientUnits="userSpaceOnUse"
       r="1"
       cy="0"
       cx="0"
       fy="0"
       fx="0">
      <stop
         id="stop5131-1"
         offset="0"
         style="stop-opacity:1;stop-color:#ffdd00" />
      <stop
         id="stop5133-7"
         offset="1"
         style="stop-opacity:1;stop-color:#f04e23" />
    </radialGradient>
    <linearGradient
       id="linearGradient5155-1-6"
       spreadMethod="pad"
       gradientTransform="matrix(-61.267014,54.36673,54.36673,61.267014,226.86304,328.70058)"
       gradientUnits="userSpaceOnUse"
       y2="0"
       x2="1"
       y1="0"
       x1="0">
      <stop
         id="stop5157-1-8"
         offset="0"
         style="stop-opacity:1;stop-color:#ed1c24" />
      <stop
         id="stop5159-5-5"
         offset="1"
         style="stop-opacity:1;stop-color:#b8292f" />
    </linearGradient>
    <linearGradient
       id="linearGradient5181-1-1"
       spreadMethod="pad"
       gradientTransform="matrix(0,-14.34433,-14.34433,0,265.60228,339.44081)"
       gradientUnits="userSpaceOnUse"
       y2="0"
       x2="1"
       y1="0"
       x1="0">
      <stop
         id="stop5183-4-8"
         offset="0"
         style="stop-opacity:1;stop-color:#fcaf17" />
      <stop
         id="stop5185-2-9"
         offset="1"
         style="stop-opacity:1;stop-color:#f7941e" />
    </linearGradient>
    <radialGradient
       id="radialGradient5103-2-3"
       spreadMethod="pad"
       gradientTransform="matrix(58.864258,-59.984405,-77.367889,-75.923111,206.88844,345.86513)"
       gradientUnits="userSpaceOnUse"
       r="1"
       cy="0"
       cx="0"
       fy="0"
       fx="0">
      <stop
         id="stop5105-7-1"
         offset="0"
         style="stop-opacity:1;stop-color:#f68b1f" />
      <stop
         id="stop5107-6-2"
         offset="1"
         style="stop-opacity:1;stop-color:#ee3124" />
    </radialGradient>
    <radialGradient
       r="1"
       fy="0"
       fx="0"
       cy="0"
       cx="0"
       spreadMethod="pad"
       gradientTransform="matrix(38.654259,-39.389824,-50.804997,-49.856259,8.6633451,756.21058)"
       gradientUnits="userSpaceOnUse"
       id="radialGradient5860"
       xlink:href="#radialGradient5103-2-3"
       inkscape:collect="always" />
    <linearGradient
       inkscape:collect="always"
       xlink:href="#linearGradient5181-1-1"
       id="linearGradient5907"
       gradientUnits="userSpaceOnUse"
       gradientTransform="matrix(0,-9.4194586,-9.4194586,0,47.218752,751.99197)"
       spreadMethod="pad"
       x1="0"
       y1="0"
       x2="1"
       y2="0" />
    <linearGradient
       inkscape:collect="always"
       xlink:href="#linearGradient5155-1-6"
       id="linearGradient5909"
       gradientUnits="userSpaceOnUse"
       gradientTransform="matrix(-40.232073,35.700877,35.700877,40.232073,21.779939,744.93919)"
       spreadMethod="pad"
       x1="0"
       y1="0"
       x2="1"
       y2="0" />
    <radialGradient
       inkscape:collect="always"
       xlink:href="#radialGradient5129-5"
       id="radialGradient5911"
       gradientUnits="userSpaceOnUse"
       gradientTransform="matrix(-31.276687,62.918488,62.918488,31.276687,32.288214,736.82898)"
       spreadMethod="pad"
       cx="0"
       cy="0"
       fx="0"
       fy="0"
       r="1" />
  </defs>
  <sodipodi:namedview
     id="base"
     pagecolor="#ffffff"
     bordercolor="#666666"
     borderopacity="1.0"
     inkscape:pageopacity="0.0"
     inkscape:pageshadow="2"
     inkscape:zoom="1.4"
     inkscape:cx="-103.06736"
     inkscape:cy="254.73737"
     inkscape:document-units="px"
     inkscape:current-layer="g3411"
     showgrid="false"
     fit-margin-top="9"
     fit-margin-right="18"
     fit-margin-bottom="9"
     fit-margin-left="18"
     inkscape:window-width="2560"
     inkscape:window-height="1305"
     inkscape:window-x="0"
     inkscape:window-y="0"
     inkscape:window-maximized="1" />
  <metadata
     id="metadata7">
    <rdf:RDF>
      <cc:Work
         rdf:about="">
        <dc:format>image/svg+xml</dc:format>
        <dc:type
           rdf:resource="http://purl.org/dc/dcmitype/StillImage" />
        <dc:title />
      </cc:Work>
    </rdf:RDF>
  </metadata>
  <g
     inkscape:label="Calque 1"
     inkscape:groupmode="layer"
     id="layer1"
     transform="translate(405.41429,-125.73878)">
    <g
       transform="matrix(1.25,0,0,-1.25,-240.6183,1115.2552)"
       inkscape:label="rio 2016"
       id="g2993">
      <g
         id="g3049">
        <g
           clip-path="url(#clipPath3053)"
           id="g3051">
          <g
             transform="translate(162.9026,813.7717)"
             id="g3057" />
        </g>
      </g>
      <g
         id="g3165">
        <g
           id="g3167">
          <g
             id="g3173">
            <g
               id="g3175" />
          </g>
        </g>
      </g>
      <g
         id="g3187">
        <g
           id="g3189">
          <g
             id="g3195">
            <g
               id="g3197" />
          </g>
        </g>
      </g>
      <g
         id="g3411"
         transform="matrix(1.2715068,0,0,1.2715068,-66.642931,-212.64529)">
        <g
           id="g3035">
          <g
             id="g3030">
            <path
               id="path5203"
               style="fill:#c11933;fill-opacity:1;fill-rule:nonzero;stroke:none"
               d="m 17.466703,641.56796 c -0.260685,0.0972 -0.608721,0.14643 -1.033598,0.14643 -2.331818,0 -7.3507317,-1.56746 -12.0583777,-4.47255 -3.1566039,-1.94965 -8.5511238,-6.01903 -9.2051666,-11.39188 -0.3138921,-2.57743 0.2121049,-4.65906 1.5635209,-6.1845 2.27798886,-2.57151 6.2593552,-2.84927 7.8655731,-2.84927 0.9173523,0 1.6692452,0.0906 1.8662466,0.17795 0.027605,0.0119 0.048648,0.0348 0.057133,0.0631 0.00905,0.0295 0.00566,0.0604 -0.011313,0.086 -0.032809,0.0526 -0.067654,0.0578 -0.3368697,0.0958 -2.6627938,0.37955 -4.5126245,1.38885 -5.50090094,2.99768 -1.0631485,1.73098 -1.09007455,4.11534 -0.0813438,7.08873 1.54316794,4.54874 4.23024034,7.47419 7.17868774,9.40217 3.9459114,2.58069 8.8958804,4.23879 9.7075194,4.65315 0.03552,0.0177 0.0577,0.0565 0.05578,0.0972 -0.0023,0.0414 -0.02817,0.0761 -0.06698,0.09"
               inkscape:connector-curvature="0" />
            <path
               id="path5207"
               style="fill:#0061aa;fill-opacity:1;fill-rule:nonzero;stroke:none"
               d="m 12.754,636.05425 c -0.241656,-0.13856 -0.503008,-0.37298 -0.776172,-0.6987 -1.498525,-1.78679 -3.5236801,-6.63891 -4.3241644,-12.11157 -0.5364958,-3.67209 -0.8851881,-10.41935 2.8092244,-14.37316 1.773657,-1.89842 3.705578,-2.83351 5.7419,-2.77835 3.435028,0.0913 6.207483,2.96289 7.239758,4.19414 0.589035,0.70264 1.004047,1.335 1.064461,1.5425 0.0068,0.0295 0.0034,0.0605 -0.01244,0.0847 -0.01708,0.0256 -0.04333,0.0426 -0.07286,0.0466 -0.06234,0.008 -0.08734,-0.0145 -0.290892,-0.19636 -2.002834,-1.79466 -3.964306,-2.56428 -5.832521,-2.28717 -2.008751,0.2988 -3.853321,1.80978 -5.481216,4.49292 -2.49204,4.10813 -3.0062252,8.04549 -2.589234,11.54423 0.560141,4.68138 2.471042,9.54007 2.675273,10.42722 0.0079,0.0401 -0.0057,0.0808 -0.03869,0.1051 -0.03281,0.0242 -0.07614,0.0268 -0.112343,0.007"
               inkscape:connector-curvature="0" />
            <path
               id="path5211"
               style="fill:#009055;fill-opacity:1;fill-rule:nonzero;stroke:none"
               d="m 12.821304,621.86792 c 0.06958,-0.26922 0.229188,-0.58246 0.472812,-0.92983 1.337636,-1.91091 5.500901,-5.12268 10.580228,-7.312 3.407446,-1.46831 9.835565,-3.55127 14.610854,-1.00666 2.292436,1.22204 3.695724,2.84599 4.170505,4.82781 0.799161,3.34046 -1.256858,6.76236 -2.178181,8.07833 -0.525986,0.75057 -1.030317,1.31464 -1.214817,1.42628 -0.02557,0.0158 -0.05713,0.0204 -0.08542,0.0102 -0.02896,-0.0102 -0.05182,-0.0295 -0.06369,-0.0578 -0.02421,-0.0578 -0.0091,-0.0887 0.114255,-0.33097 1.21484,-2.39946 1.450578,-4.49424 0.699353,-6.22652 -0.808358,-1.86362 -2.745518,-3.25379 -5.758984,-4.1311 -4.612432,-1.3442 -8.550456,-0.82214 -11.820014,0.48724 -4.376682,1.7507 -8.575414,4.8541 -9.379191,5.28159 -0.03609,0.019 -0.0801,0.015 -0.112229,-0.0102 -0.03224,-0.0254 -0.04661,-0.0663 -0.03552,-0.10634"
               inkscape:connector-curvature="0" />
          </g>
          <g
             id="g3023">
            <path
               id="path5199"
               style="fill:#f99d1c;fill-opacity:1;fill-rule:nonzero;stroke:none"
               d="m 9.8778683,761.8115 c 4.8284737,-3.46128 10.5316257,-9.21369 13.5313007,-17.31961 3.874986,0.57328 7.049318,1.72836 9.805346,3.11392 C 21.580347,754.0162 14.818628,758.7672 9.8778683,761.8115"
               inkscape:connector-curvature="0" />
            <path
               style="fill:url(#radialGradient5911);stroke:none"
               d="m -8.7248055,784.15378 c -0.206878,0 -0.4029291,-0.005 -0.6074086,-0.0164 -0.1087224,-0.006 -0.2197641,-0.008 -0.3283394,-0.0164 -0.053626,-0.006 -0.1107588,-0.0102 -0.1641584,-0.0164 -0.021835,-0.002 -0.043783,-0.0144 -0.065618,-0.0164 -0.022061,-0.002 -0.04367,0.003 -0.065618,0 -6.8389901,-0.67319 -13.3467671,-6.88472 -13.3467671,-16.23611 0,-24.22382 37.749843,-35.005 42.601317,-48.75759 2.771131,-7.85703 -0.460978,-11.95068 -2.610254,-14.43027 -0.21473,-0.25085 -0.417637,-0.48526 -0.60742,-0.70592 -0.548975,-0.65075 -0.916707,-1.15838 -0.985007,-1.576 -0.01018,-0.0704 -0.0068,-0.14315 0,-0.21342 0.133307,-1.53595 1.637737,-1.38358 1.986418,-1.34617 6.019024,0.63697 20.096663,11.06945 28.203881,19.45378 7.530649,7.78918 15.395759,18.94656 15.907784,26.89054 3.51e-4,0.006 -3.51e-4,0.0113 0,0.0164 4.86e-4,0.006 -4.75e-4,0.0113 0,0.0164 l 0,0.0164 c 10e-4,0.0219 -10e-4,0.0438 0,0.0656 0.0057,0.0705 0.01256,0.14249 0.0164,0.21341 0.0079,0.15795 0.0164,0.31629 0.0164,0.47609 0,4.76018 -3.469172,9.20976 -9.20976,9.20976 -6.73873,0 -11.096371,-5.69855 -18.797119,-9.57094 -2.752758,-1.38557 -5.942183,-2.54589 -9.81718,-3.11916 -1.702745,-0.2502 -3.524993,-0.39401 -5.516016,-0.39401 -3.034169,0 -6.249615,0.46521 -9.472436,1.31334 -0.1650408,0.0434 -0.3274343,0.10239 -0.4924864,0.14775 -9.1360639,2.64691 -16.4659562,8.51942 -16.4659562,14.34819 0,4.08318 3.7252865,5.94284 7.5188611,5.94284 7.7138595,0 12.3703005,-6.18844 34.2452135,-18.23895 C 18.474452,759.16947 6.9604449,784.1537 -8.7247351,784.1537 z M 61.07898,746.37898 c -0.02444,-0.1289 -0.06799,-0.25082 -0.09854,-0.37759 0.03066,0.12777 0.07399,0.24769 0.09854,0.37759 z M 43.348959,742.2748 c 0.244981,-0.10148 0.483435,-0.20234 0.820837,-0.32834 -0.27098,0.10861 -0.54669,0.21111 -0.820837,0.32834 z"
               id="path5135"
               inkscape:connector-curvature="0" />
            <path
               id="path5161"
               style="fill:url(#linearGradient5909);stroke:none"
               d="m -19.651237,772.95816 c 0,-12.89892 14.1564484,-23.92568 28.1500278,-27.57676 l 0,0 c -9.40479264,2.56166 -17.0464274,8.56952 -17.0464274,14.52155 l 0,0 c 0,4.08316 3.7311808,5.94679 7.5247553,5.94679 l 0,0 c 7.7138709,0 12.3624153,-6.19305 34.2373283,-18.24355 l 0,0 C 18.468974,759.16552 6.9674454,784.15501 -8.7177233,784.15501 l 0,0 c -5.9257667,0 -10.9335137,-5.00775 -10.9335137,-11.19685"
               inkscape:connector-curvature="0" />
            <path
               id="path5187"
               style="fill:url(#linearGradient5907);stroke:none"
               d="m 33.214458,747.60618 c 0.402545,0.13726 10.068034,5.01236 15.305625,5.01236 l 0,0 c 3.17104,0 5.764878,-2.37846 5.764878,-5.54228 l 0,0 c 0,-3.16775 -2.41194,-6.05973 -5.764878,-6.05973 l 0,0 c -2.17292,0 -4.554009,0.99092 -5.509454,1.40067 l 0,0 c 3.375271,-1.4775 6.485908,-2.32065 9.780401,-2.32065 l 0,0 c 5.409635,0 8.430975,3.64186 8.430975,7.87475 l 0,0 c 0,4.76019 -3.465903,9.20189 -9.206491,9.20189 l 0,0 c -6.73873,0 -11.100308,-5.69461 -18.801056,-9.56701"
               inkscape:connector-curvature="0" />
            <path
               id="path5109"
               style="fill:url(#radialGradient5860);stroke:none"
               d="m 61.222073,747.94568 c 0,0.007 0,0.0171 0,0.025 l 0,0 c 0,-0.007 0,-0.0171 0,-0.025 m 0,0 c 0,0 0,0 0,0 m -0.0023,-0.14512 c 0.0023,0.048 0.0023,0.0965 0.0023,0.14512 l 0,0 c -5.09e-4,-0.0487 -0.0023,-0.0965 -0.0023,-0.14512 m 0,-0.0295 c 0,0.005 0,0.008 0,0.0126 l 0,0 c 0,0.006 0,0.0113 0,0.0171 l 0,0 c 0,-0.0102 0,-0.019 0,-0.0295 m 0,0.0295 c 0,0 0,0 0,0 m -0.0023,-0.0774 c 5.32e-4,0.0158 5.32e-4,0.0321 0.0023,0.048 l 0,0 c -5.32e-4,-0.0158 -5.32e-4,-0.0321 -0.0023,-0.048 m -8.427649,-7.62656 c -6.197629,0 -11.658469,2.96027 -19.576582,7.50967 l 0,0 c -2.752759,-1.38559 -5.930372,-2.5413 -9.805369,-3.11457 l 0,0 c 0.983038,-2.65032 1.671881,-5.55412 1.945056,-8.71005 l 0,0 C 27.05965,716.29517 19.98275,708.41843 16.685621,704.66031 l 0,0 c -0.214729,-0.25084 -0.423553,-0.48855 -0.613336,-0.70918 l 0,0 c -0.548975,-0.65076 -0.908822,-1.15574 -0.97711,-1.57338 l 0,0 c -0.01018,-0.0704 -0.01369,-0.13593 -0.0057,-0.2062 l 0,0 c 0.133306,-1.53595 1.651528,-1.38096 2.000209,-1.34354 l 0,0 c 6.019012,0.63697 20.094038,11.06484 28.201256,19.44917 l 0,0 c 7.70861,7.97328 15.7633,19.4735 15.927481,27.44611 l 0,0 c -0.116235,-4.1265 -3.125085,-7.62656 -8.427672,-7.62656 m 8.407307,7.11173 0,-0.0164 0,0.0164 0,0.0113 0,-0.0113 z"
               inkscape:connector-curvature="0" />
          </g>
          <path
             sodipodi:nodetypes="csccssssccssccsssccsssccssccssscccccccccsccsccsccccscccccccccccccccccccccccccccccccccccccccccccccccccccccccccccsscccccccccccssccccccccccccccccccccsccsccsccccsccsccssssccssccsssccsssccsssccssscccccsssccssscccssccsscccccccccccccccsscccccccccscccccccccccccccccccccccccccccccsccccsccccccccccccccccccccccccsccccccccccccccccccccscccccccccccccccccccccccccsccccccccccccccccccccccccccccccccccccccccccccccccsccccccccccccccccsscccccccccscc"
             inkscape:connector-curvature="0"
             d="m 73.469498,654.85394 c 0,0.65404 0.510238,1.09663 1.59176,1.09663 0.426189,0 1.027681,-0.0939 1.416423,-0.2029 l 0.05385,0.89832 c -0.414378,0.0795 -0.990256,0.1333 -1.416446,0.1333 -1.697472,0 -2.702176,-0.8031 -2.702176,-2.04749 0,-2.21757 3.450788,-1.50903 3.450788,-3.0187 0,-0.90949 -0.841857,-1.24439 -1.617373,-1.24439 -0.627773,0 -1.217465,0.12214 -1.646279,0.29484 l -0.04005,-0.97581 c 0.388742,-0.0932 1.004703,-0.17335 1.552354,-0.17335 1.550386,0 2.833525,0.82871 2.833525,2.2064 0,2.24449 -3.476401,1.53791 -3.476401,3.03315 m -3.704266,-1.71062 c 0,1.80452 -0.86746,2.76719 -2.285863,2.76719 -1.217454,0 -2.285852,-0.93573 -2.285852,-2.67395 0,-1.48275 0.576545,-2.73961 2.234636,-2.73961 1.322532,0 2.337079,0.90817 2.337079,2.64637 m 1.083501,0.1077 c 0,-2.32789 -1.535938,-3.63663 -3.486255,-3.63663 -2.247771,0 -3.249838,1.48406 -3.249838,3.51448 0,2.31279 1.589791,3.65042 3.460642,3.65042 2.046176,0 3.275451,-1.25686 3.275451,-3.52827 m -9.85198,-2.72847 c -1.644299,0 -2.512415,0.93773 -2.512415,2.63456 0,1.53661 0.776839,2.73962 2.421138,2.73962 0.533871,0 1.081533,-0.094 1.642319,-0.26661 l 0.08926,0.92196 c -0.490529,0.13331 -1.081533,0.20159 -1.600957,0.20159 -2.539997,0 -3.633998,-1.70075 -3.633998,-3.70425 0,-2.13811 1.162312,-3.42058 3.353594,-3.42058 0.734153,0 1.390832,0.13329 1.952286,0.36051 l -0.0801,0.89372 c -0.46754,-0.22721 -1.072335,-0.36052 -1.631153,-0.36052 m -6.791258,-0.79982 1.017171,0 0,6.94887 -1.017171,0 z m -3.087659,4.78515 c 0,0.81164 -0.561454,1.37703 -1.658079,1.37703 -0.359859,0 -0.614649,0 -0.828711,-0.0138 l 0,-2.80924 c 0.187803,-0.0381 0.48003,-0.0526 0.707216,-0.0526 1.124219,0 1.779574,0.50825 1.779574,1.4985 m 1.068398,0.0906 c 0,-1.46962 -1.136686,-2.40471 -2.901813,-2.40471 -0.20948,0 -0.465572,0 -0.653375,0.0269 l 0,-2.49796 -1.015214,0 0,6.94886 c 0.535183,0.0137 1.216797,0.0268 1.990355,0.0268 1.63182,0 2.580047,-0.81363 2.580047,-2.10003 m -9.466519,2.0731 -1.602258,-4.53166 c -0.158265,-0.48068 -0.266625,-0.80179 -0.374306,-1.26803 l -0.01131,0 c -0.06765,0.38546 -0.216053,0.8412 -0.389409,1.32187 l -1.537919,4.47782 -1.256869,0 -1.040149,-6.94886 1.01389,0 0.522716,4.03457 c 0.09266,0.6698 0.14445,1.21746 0.187147,1.75069 l 0.01131,0 c 0.06822,-0.41175 0.269883,-0.98896 0.441915,-1.48277 l 1.468318,-4.30249 1.113053,0 1.589802,4.59734 c 0.158898,0.45178 0.26857,0.87993 0.34867,1.18792 l 0.01131,0 c 0.04073,-0.373 0.09322,-0.92066 0.203575,-1.72376 l 0.571296,-4.0615 1.072335,0 -1.018472,6.94886 z m -9.873001,1.35142 0.451136,-0.56276 1.845237,1.35011 -0.562109,0.69672 z m 0.09062,-8.30028 1.015858,0 0,6.94886 -1.015858,0 z m -4.373401,6.94886 -1.014558,0 0,-6.94886 3.59723,0 0,0.85367 -2.582672,0 z m -4.823225,-4.63805 -0.920655,2.39356 c -0.163514,0.41174 -0.311268,0.85367 -0.416992,1.18857 l -0.01369,0 c -0.09187,-0.34869 -0.224584,-0.77683 -0.399909,-1.18857 l -0.934435,-2.39356 2.685771,0 z m -0.707906,4.63805 2.70023,-6.94886 -1.124219,0 -0.587712,1.54908 -3.247224,0 -0.601503,-1.54908 -1.016527,0 2.738956,6.94886 z m -7.915466,-3.15397 c 0.921957,0 1.50968,0.49381 1.50968,1.26802 0,0.76371 -0.60217,1.13669 -1.549729,1.13669 -0.335569,0 -0.547663,-0.0119 -0.749268,-0.0373 l 0,-2.33905 c 0.215397,-0.0171 0.508257,-0.0282 0.789317,-0.0282 m 0.963987,-1.35207 2.019261,-2.44282 -1.283795,0 -2.446741,3.08569 -0.04197,0 0,-3.08569 -1.01587,0 0,6.94887 c 0.415679,0.0138 1.083502,0.0268 1.898422,0.0268 1.589791,0 2.473022,-0.62646 2.473022,-1.79206 0,-1.22731 -0.948227,-1.93651 -2.232011,-2.00481 0.187803,-0.18714 0.401221,-0.45507 0.629741,-0.73612 m -6.5791643,-0.13199 -0.9219569,2.39355 C 8.418024,654.83868 8.273551,655.2806 8.1658581,655.6155 l -0.013689,0 c -0.093902,-0.34869 -0.227197,-0.77682 -0.4005645,-1.18857 l -0.9364042,-2.39355 2.6870837,0 z m -0.7091846,4.63804 2.7015199,-6.94885 -1.123552,0 -0.5903363,1.54907 -3.2478809,0 -0.5988896,-1.54907 -1.0165261,0 2.7396234,6.94885 z m -5.384689,-2.16372 c 0,0.81163 -0.5621095,1.37702 -1.6607261,1.37702 -0.3578789,0 -0.6107009,0 -0.82805518,-0.0138 l 0,-2.80922 c 0.18978338,-0.0381 0.48199888,-0.0526 0.70919588,-0.0526 1.1209381,0 1.7795854,0.50826 1.7795854,1.49852 m 1.0696995,0.0906 c 0,-1.46963 -1.138655,-2.40471 -2.9011571,-2.40471 -0.2153971,0 -0.4675403,0 -0.65732368,0.0269 l 0,-2.49798 -1.0145463,0 0,6.94886 c 0.53451597,0.0137 1.21548478,0.0268 1.99297998,0.0268 1.6292069,0 2.5800471,-0.81361 2.5800471,-2.10002 m -13.3828785,0.25544 c 0,0.65403 0.5076012,1.09663 1.5910918,1.09663 0.4261895,0 1.0309734,-0.094 1.417102,-0.20291 l 0.054531,0.89833 c -0.4150005,0.0795 -0.9882878,0.13328 -1.4177356,0.13328 -1.698796,0 -2.701531,-0.8031 -2.701531,-2.04748 0,-2.21757 3.4514441,-1.50902 3.4514441,-3.01869 0,-0.9095 -0.8457947,-1.2444 -1.6180292,-1.2444 -0.6297527,0 -1.2168084,0.12214 -1.6456001,0.29485 l -0.04005,-0.97582 c 0.3887533,-0.0932 1.0014226,-0.17335 1.549741,-0.17335 1.5523545,0 2.8354825,0.82872 2.8354825,2.2064 0,2.2445 -3.4763903,1.53792 -3.4763903,3.03316 m -3.7016293,-1.71063 c 0,1.80453 -0.870741,2.7672 -2.287832,2.7672 -1.217465,0 -2.285207,-0.93575 -2.285207,-2.67396 0,-1.48275 0.573276,-2.73961 2.233324,-2.73961 1.319908,0 2.339715,0.90818 2.339715,2.64637 m 1.080209,0.1077 c 0,-2.32789 -1.537251,-3.63663 -3.487556,-3.63663 -2.247771,0 -3.247214,1.48407 -3.247214,3.51449 0,2.31278 1.589135,3.6504 3.462599,3.6504 2.044208,0 3.272171,-1.25686 3.272171,-3.52826 m -9.758078,-2.56691 c -0.360504,-0.10771 -0.814264,-0.18716 -1.270638,-0.18716 -1.576023,0 -2.646379,0.96333 -2.646379,2.68708 0,1.84459 1.271973,2.7521 2.700208,2.7521 0.655367,0 1.296263,-0.14578 1.938495,-0.38677 l 0.14643,0.90882 c -0.680313,0.21342 -1.347479,0.30667 -2.043551,0.30667 -2.381067,0 -3.809324,-1.61869 -3.809324,-3.68982 0,-2.22939 1.468963,-3.44619 3.568324,-3.44619 0.894386,0 1.683048,0.14512 2.430336,0.41436 l 0,3.22161 -1.013901,0 z m -7.485351,2.45921 c 0,1.80453 -0.868117,2.7672 -2.285207,2.7672 -1.217454,0 -2.287832,-0.93575 -2.287832,-2.67396 0,-1.48275 0.57589,-2.73961 2.23398,-2.73961 1.322532,0 2.339059,0.90818 2.339059,2.64637 m 1.081522,0.1077 c 0,-2.32789 -1.535939,-3.63663 -3.488213,-3.63663 -2.245802,0 -3.24985,1.48407 -3.24985,3.51449 0,2.31278 1.59176,3.6504 3.461955,3.6504 2.044863,0 3.276108,-1.25686 3.276108,-3.52826 m -9.838846,3.42058 1.016515,0 0,-4.91779 c 0,-1.39017 -0.496435,-2.12497 -1.884631,-2.12497 -0.309288,0 -0.53584,0.0375 -0.777495,0.10375 l 0,0.90948 c 0.215397,-0.0656 0.468207,-0.11952 0.763704,-0.11952 0.629085,0 0.881907,0.30929 0.881907,1.27262 z m 111.141694,14.41979 c -0.569338,-1.05593 -1.717191,-1.63182 -2.87293,-1.69223 -3.449464,-0.18059 -5.709068,2.72714 -6.328956,6.15035 1.369812,0.82346 2.949749,1.37966 4.565153,1.3744 1.643643,-0.007 3.088305,-0.72167 3.978097,-1.80452 0.906198,-1.10648 1.360603,-2.69956 0.658636,-4.028 m -2.689052,10.12188 c -2.252375,0 -4.464689,-0.69279 -6.512834,-1.97789 0.929186,3.70492 3.553876,6.53451 6.939012,8.5774 1.185278,0.7197 2.379765,1.40855 2.871595,2.73568 0.271863,0.73284 0.189784,1.83079 -0.800461,1.90499 -0.703958,0.0526 -1.396082,-0.35264 -1.972639,-0.67111 -5.841719,-3.27283 -10.279493,-8.59053 -11.165326,-15.2984 -1.557616,-1.55302 -2.926771,-3.08174 -4.32481,-4.90792 -0.01188,-0.0145 -0.01833,-0.005 -0.01833,0 l 0,12.16477 c 0,0.84119 -0.481342,1.16492 -1.075627,1.15047 -0.524674,-0.0138 -1.266056,-0.37167 -1.636414,-0.60676 l -2.772455,-1.75461 c -0.906197,-0.57458 -1.246359,-1.03623 -1.165581,-1.79402 0.1379,-1.29693 1.599645,-1.45976 2.666719,-0.83988 l 0.0023,-13.49912 c 0,-0.55685 0.298777,-1.09269 0.939029,-1.09138 0.575244,0.007 1.062504,0.32046 1.631175,0.88125 1.824217,1.81438 3.718046,4.26046 5.959266,6.42942 0.805734,-4.08118 3.972825,-7.53919 8.405339,-7.53919 4.925,0 8.998968,4.67744 8.97073,9.29513 -0.03281,3.78833 -3.147406,6.84117 -6.94097,6.84117 m -30.6712,-11.8021 c -3.571615,-0.007 -5.879132,3.09224 -5.882436,6.30533 -0.0068,2.34823 1.312034,4.06411 3.798179,4.07724 3.568335,0.007 5.934965,-3.15398 5.945464,-6.36968 0.0023,-2.34692 -1.382279,-4.0037 -3.861207,-4.01289 m -0.101821,14.65092 c -4.883627,-0.0223 -8.778989,-4.20596 -9.636595,-8.74617 -0.33162,-1.78416 -1.047378,-2.8959 -2.388306,-4.0582 -1.631153,-1.42957 -3.570948,-2.05668 -5.647331,-2.03632 -1.011277,0.015 -2.639149,0.33095 -2.861108,1.63117 -0.12343,0.74924 0.478062,1.49062 1.018506,2.04222 0.995495,1.01325 1.7487,1.64299 2.76784,2.62274 1.673849,1.60161 3.209143,2.95632 4.673513,4.79564 1.650861,2.08492 2.82564,4.38194 2.689708,6.74201 -0.203653,3.68324 -2.933434,6.0663 -6.785454,6.05512 -2.664095,-0.0158 -5.171905,-1.08744 -7.091348,-2.79345 -0.416992,-0.35789 -0.812951,-0.83988 -1.077607,-1.36981 -0.200928,-0.41173 -0.332266,-0.84514 -0.325692,-1.27132 0.01018,-0.65995 0.609388,-1.24766 1.254233,-1.25554 0.466895,0 0.995506,0.21801 1.539231,0.67506 1.097938,0.93377 2.503217,1.71849 3.973492,1.77103 2.833526,0.10239 4.158672,-1.68633 4.245356,-3.6143 0.06234,-1.4913 -0.595586,-2.76655 -1.477505,-3.88879 -1.253577,-1.56222 -2.452657,-2.58136 -3.889434,-3.89404 -1.271972,-1.1577 -2.426398,-2.15058 -3.584094,-3.3536 -1.400675,-1.44138 -2.458563,-2.85782 -2.371879,-4.82519 0.121472,-2.83025 2.973393,-4.19874 5.407644,-4.21318 3.952483,-0.0328 7.81369,2.22413 10.39178,5.08917 0.03552,0.0373 0.0663,0.0656 0.0913,-0.006 1.24766,-2.99638 4.057552,-5.08328 7.337608,-5.08328 5.516005,0 9.792212,5.44116 9.712101,10.57629 -0.07229,4.34255 -3.44684,8.42637 -7.966026,8.40865 m -51.097944,-2.56824 c -1.490628,0.006 -2.662126,1.25227 -2.610254,2.79609 0.05645,1.54843 1.315971,2.79872 2.81711,2.79872 1.4886592,0 2.6588448,-1.25029 2.6030242,-2.79872 -0.054531,-1.54382 -1.3153035,-2.79609 -2.8098802,-2.79609 m 17.2519706,-12.0689 c -3.0535043,-0.0447 -5.96122322,4.74313 -5.70906871,7.87017 0.11030629,1.41184 0.87797011,2.47893 2.49139471,2.46907 3.0837225,-0.006 5.7714738,-4.28935 5.6663943,-7.20431 -0.056454,-1.58519 -0.7026341,-3.10669 -2.4487203,-3.13493 M 4.9712954,684.0615 c -2.6056608,0.0919 -4.97557151,-1.34553 -6.5088963,-3.55586 -0.8076909,-1.15114 -1.9673777,-3.16251 -3.259036,-5.43 -1.6699127,-2.90509 -3.3483444,-5.79049 -4.5356134,-5.77275 -0.7459647,0.009 -0.9646307,0.72429 -1.0020557,1.58256 -0.0999,2.22676 0.04469,4.43251 0.02297,6.65664 0,0.61792 0.04197,1.09795 -0.409117,1.39016 -0.681614,0.43997 -2.168317,0.45771 -3.083055,-0.72561 -1.899735,-2.44347 -3.770575,-5.04977 -5.90607,-7.30083 -0.896344,-0.94626 -1.888569,-1.64298 -3.202571,-1.64758 -0.861543,0 -1.432839,0.1333 -2.331807,1.18857 -1.224038,1.43548 -2.348268,3.81851 -2.77706,4.9342 -0.07489,0.18453 0.02104,0.22786 0.09322,0.25019 4.875096,1.42365 10.796927,4.59011 10.712223,10.70237 -0.06098,4.16459 -3.167782,6.83788 -7.363879,6.97841 -4.748363,0.16285 -9.288558,-2.16437 -11.990101,-6.07024 -4.499478,-6.49181 -3.641216,-14.84922 -2.318027,-20.58719 0.174013,-0.75189 0.758444,-1.06446 1.428913,-1.06446 1.607519,0 3.494775,1.94308 3.060067,3.56899 -2.29703,8.51369 -1.70537,13.32577 0.53059,16.42851 1.524127,2.11118 4.268989,3.48166 6.904856,3.50662 2.834182,0.023 5.83974,-1.23389 5.757661,-4.52118 -0.102387,-4.05819 -5.246767,-5.3098 -8.515001,-5.62435 -0.904896,-0.088 -1.792053,-0.4137 -2.365329,-1.17347 -0.753861,-0.99878 -0.686874,-2.22609 -0.325703,-3.47442 0.639595,-2.19065 1.627883,-3.89995 2.83813,-5.84303 1.002067,-1.6108 2.788859,-3.27481 4.870492,-3.38119 3.062691,-0.15496 4.894805,1.74741 6.597538,3.60315 1.154426,1.26409 2.115131,2.52619 3.224236,3.85135 0.07218,0.0927 0.107704,0.0473 0.107704,-0.0282 -0.04729,-3.34505 -0.02817,-7.52343 3.891413,-7.42626 2.121682,0.0492 3.5565122,1.57798 4.7713408,3.06796 1.0138901,1.24045 1.8780691,2.76129 2.7672057,4.26112 0.059056,0.0972 0.1010292,0.13724 0.1333065,0 0.8300124,-3.59 3.83756091,-7.2378 7.7427654,-7.32908 5.2973378,-0.12147 8.5846016,5.55214 8.2569296,10.15669 -0.288279,4.07593 -3.3338978,8.66736 -7.8182839,8.82823 m -18.5272131,0.22792 c 0.05645,1.54842 1.31596,2.79872 2.81711,2.79872 1.4886593,0 2.6588336,-1.2503 2.6030243,-2.79872 -0.054531,-1.54776 -1.3153035,-2.79608 -2.8098803,-2.79608 -1.490639,0.006 -2.662137,1.24832 -2.610254,2.79608 M 6.3062299,669.42497 c -3.0535042,-0.0447 -5.96123447,4.7431 -5.70907996,7.87015 0.11030629,1.41183 0.87797016,2.47892 2.49139476,2.46906 3.0837112,-0.009 5.7714624,-4.28934 5.6663943,-7.20429 -0.056454,-1.58519 -0.7026341,-3.1067 -2.4487091,-3.13492 m -1.3350115,14.63712 c -2.6056494,0.0919 -4.97557146,-1.34553 -6.5088963,-3.55587 -0.8076909,-1.15113 -1.9673663,-3.16251 -3.2590359,-5.42998 -1.6699014,-2.90509 -3.3483445,-5.7905 -4.5356021,-5.77277 -0.7459651,0.009 -0.9646431,0.72431 -1.0020791,1.58257 -0.0999,2.22677 0.04469,4.43251 0.02297,6.65664 0,0.61793 0.04197,1.09795 -0.409095,1.39017 -0.681637,0.43997 -2.168316,0.4577 -3.083055,-0.72562 -1.899735,-2.44345 -3.770597,-5.04978 -5.90607,-7.30083 -0.896366,-0.94625 -1.88858,-1.64299 -3.202583,-1.64757 -0.861531,0 -1.432839,0.13329 -2.331818,1.18856 -1.224038,1.43547 -2.348245,3.81852 -2.777048,4.9342 -0.0749,0.18453 0.02104,0.22786 0.09322,0.2502 4.875107,1.42365 10.796926,4.59009 10.712222,10.70236 -0.06098,4.16459 -3.16777,6.83788 -7.363867,6.97842 -4.748363,0.16284 -9.28857,-2.16438 -11.990112,-6.07025 -4.499489,-6.49182 -3.641216,-14.84922 -2.318027,-20.58719 0.174012,-0.75189 0.758455,-1.06445 1.428902,-1.06445 1.607519,0 3.494786,1.94308 3.060077,3.56898 -2.297029,8.51371 -1.705369,13.32576 0.53059,16.42852 1.524117,2.11118 4.269001,3.48166 6.904857,3.5066 2.834182,0.023 5.839751,-1.23388 5.757672,-4.52115 -0.102387,-4.05821 -5.24679,-5.30982 -8.515012,-5.62437 -0.904885,-0.088 -1.792042,-0.41368 -2.365318,-1.17346 -0.753861,-0.99879 -0.686885,-2.2261 -0.325714,-3.47442 0.639595,-2.19065 1.627883,-3.89996 2.838118,-5.84304 1.002079,-1.61081 2.788871,-3.27479 4.870515,-3.38117 3.062691,-0.15498 4.894794,1.74739 6.597538,3.60313 1.154426,1.26408 2.11512,2.5262 3.224236,3.85136 0.07218,0.0927 0.107704,0.0473 0.107704,-0.0283 -0.04729,-3.34506 -0.02817,-7.52344 3.891413,-7.42626 2.1216937,0.0491 3.5565012,1.57798 4.7713524,3.06797 1.0138789,1.24044 1.8780692,2.76128 2.7671944,4.2611 0.059169,0.0972 0.1010293,0.13725 0.1332953,0 0.830035,-3.58999 3.83756085,-7.23779 7.7427767,-7.32907 5.2973264,-0.12148 8.5846122,5.55213 8.2569172,10.15668 -0.288255,4.07593 -3.3338855,8.66737 -7.8182715,8.82824 m 35.2827605,-14.6509 c -3.571604,-0.007 -5.879144,3.09225 -5.882425,6.30533 -0.0068,2.34824 1.312012,4.06805 3.798168,4.07724 3.568324,0.007 5.934953,-3.15397 5.945452,-6.36967 0.0023,-2.34692 -1.382267,-4.0037 -3.861195,-4.0129 m -0.101821,14.65091 c -4.883627,-0.0223 -8.778977,-4.20595 -9.636606,-8.74615 -0.331609,-1.78416 -1.047378,-2.8959 -2.388284,-4.0582 -1.631164,-1.4322 -3.570971,-2.05669 -5.647342,-2.03633 -1.011277,0.015 -2.63916,0.33095 -2.861108,1.63116 -0.123452,0.74926 0.478051,1.49063 1.018495,2.04223 0.995495,1.01323 1.748688,1.64299 2.767839,2.62273 1.673861,1.60162 3.209133,2.95632 4.673525,4.79566 1.650861,2.08491 2.825628,4.38194 2.689697,6.74199 -0.203552,3.68129 -2.933321,6.0663 -6.785341,6.05514 -2.664106,-0.0158 -5.171917,-1.08744 -7.091348,-2.79346 -0.416992,-0.35789 -0.812974,-0.83988 -1.077596,-1.36981 -0.20095,-0.41174 -0.332288,-0.84513 -0.325704,-1.27131 0.01018,-0.65996 0.609389,-1.24767 1.254222,-1.25555 0.466885,0 0.995518,0.21801 1.539243,0.67504 1.097937,0.93708 2.503206,1.71851 3.973481,1.77105 2.833525,0.10239 4.158694,-1.68633 4.245366,-3.6143 0.06234,-1.49129 -0.595597,-2.76654 -1.477504,-3.88879 -1.253577,-1.56221 -2.452646,-2.58136 -3.889434,-3.89404 -1.271961,-1.15771 -2.426399,-2.15058 -3.584106,-3.35361 -1.400663,-1.44138 -2.458563,-2.8578 -2.371879,-4.82518 0.121484,-2.83024 2.973405,-4.19874 5.407656,-4.21319 3.952494,-0.0328 7.81369,2.22414 10.391779,5.08917 0.03552,0.0373 0.0663,0.0696 0.0913,-0.006 1.24766,-2.99638 4.057552,-5.08327 7.337597,-5.08327 5.516004,0 9.792234,5.44116 9.712112,10.57629 -0.07229,4.34254 -3.446851,8.42636 -7.966037,8.40863 m 33.461824,-12.9705 c -0.569339,-1.05592 -1.717191,-1.63181 -2.87293,-1.69223 -3.449475,-0.18059 -5.709057,2.72714 -6.328945,6.15035 1.369801,0.82347 2.949738,1.37965 4.565142,1.3744 1.643654,-0.007 3.088316,-0.72168 3.978086,-1.80452 0.906209,-1.10648 1.360625,-2.69955 0.658647,-4.028 m -2.689063,10.12187 c -2.252364,0 -4.464678,-0.69278 -6.512812,-1.97788 0.929175,3.70493 3.553865,6.53451 6.939001,8.5774 1.185278,0.71971 2.379754,1.40855 2.871595,2.73568 0.271863,0.73546 0.189784,1.83078 -0.800473,1.90499 -0.703946,0.0525 -1.39607,-0.35264 -1.972627,-0.67112 -5.841719,-3.27283 -10.279493,-8.59053 -11.165315,-15.29839 -1.557627,-1.55302 -2.926771,-3.08174 -4.324821,-4.90794 -0.01188,-0.0145 -0.01833,-0.005 -0.01833,0 l 0,12.16478 c 0,0.84645 -0.481354,1.16494 -1.075628,1.15048 -0.524673,-0.0137 -1.266044,-0.37167 -1.636413,-0.60676 l -2.772455,-1.75462 c -0.906197,-0.57458 -1.246359,-1.03622 -1.165581,-1.79401 0.137888,-1.29692 1.599644,-1.45978 2.666719,-0.83988 l 0.0023,-13.49911 c 0,-0.55686 0.298777,-1.09271 0.93904,-1.09139 0.575233,0.007 1.062482,0.32044 1.631164,0.88125 1.824217,1.81437 3.718046,4.26045 5.959266,6.42943 0.805723,-4.08118 3.972825,-7.5392 8.405339,-7.5392 4.925,0 8.998968,4.67744 8.970729,9.29514 -0.03281,3.78831 -3.147406,6.84115 -6.94098,6.84115"
             style="fill:#004b88;fill-opacity:1;fill-rule:nonzero;stroke:none"
             id="path5083" />
          <path
             sodipodi:nodetypes="ccccccccccccccccccccccccccccccccc"
             inkscape:connector-curvature="0"
             d="m 87.188987,665.07691 -0.384138,2.67461 c -0.06958,0.48594 -0.109627,0.832 -0.130681,1.04608 l -0.0068,0 c -0.03948,-0.14973 -0.100463,-0.37562 -0.202907,-0.6488 l -1.032941,-3.07189 -0.473458,0 -0.990245,2.88212 c -0.105102,0.31784 -0.183221,0.59756 -0.250853,0.83857 l -0.0091,0 c -0.01584,-0.32176 -0.05781,-0.65667 -0.109627,-1.08219 l -0.313881,-2.6385 -0.405181,0 0.571308,4.13242 0.517466,0 1.007317,-2.93793 c 0.05781,-0.20948 0.1609,-0.50959 0.231802,-0.78867 l 0.0079,0 c 0.07354,0.27515 0.135943,0.47937 0.22524,0.72956 l 1.023756,2.99704 0.533859,0 0.608744,-4.13242 -0.417637,0 z m -6.393975,3.80408 0,-3.80408 -0.393991,0 0,3.80408 -1.285097,0 0,0.32834 2.956967,0 0,-0.32834 z"
             style="fill:#004b88;fill-opacity:1;fill-rule:nonzero;stroke:none"
             id="path5083-3" />
        </g>
      </g>
    </g>
  </g>
</svg>
