<?xml version="1.0" encoding="utf-8"?>
<!-- Generator: Adobe Illustrator 13.0.0, SVG Export Plug-In . SVG Version: 6.00 Build 14948)  -->
<!DOCTYPE svg PUBLIC "-//W3C//DTD SVG 1.1//EN" "http://www.w3.org/Graphics/SVG/1.1/DTD/svg11.dtd">
<svg version="1.1" id="Layer_1" xmlns="http://www.w3.org/2000/svg" xmlns:xlink="http://www.w3.org/1999/xlink" x="0px" y="0px"
	 width="190px" height="182.622px" viewBox="0 0 190 182.622" enable-background="new 0 0 190 182.622" xml:space="preserve">
<g>
	<g>
		<path d="M32.372,118.321c-0.054,0-0.179-0.017-0.351-0.017c-0.177,0-0.318,0-0.425,0c-1.393,0-2.097,0.332-2.097,1.038v5.002
			c0,0.349-0.123,0.542-0.369,0.634c-0.105,0.034-0.368,0.057-0.793,0.057c-0.458,0-0.686-0.233-0.686-0.69l0.034-5.002
			c0-1.706,1.548-2.556,4.686-2.556c0.437,0,0.67,0.285,0.67,0.85C33.042,118.089,32.809,118.321,32.372,118.321"/>
	</g>
</g>
<g>
	<g>
		<path d="M50.354,125.035c-0.428,0-0.671-0.034-0.779-0.072c-0.245-0.076-0.37-0.287-0.37-0.618v-9.12
			c0-0.445,0.228-0.674,0.688-0.674c0.423,0,0.671,0.019,0.776,0.058c0.244,0.085,0.371,0.279,0.371,0.616v9.12
			C51.04,124.802,50.808,125.035,50.354,125.035"/>
	</g>
</g>
<g>
	<g>
		<path d="M81.401,125.035c-0.422,0-0.688-0.022-0.775-0.057c-0.248-0.092-0.371-0.303-0.371-0.634v-5.076
			c0-0.65-0.775-0.981-2.323-0.981c-0.144,0-0.32,0-0.528,0.018c-0.214,0-0.337,0.017-0.39,0.017c-1.214,0-1.812,0.388-1.812,1.181
			v4.843c0,0.331-0.124,0.542-0.372,0.634c-0.104,0.034-0.366,0.057-0.774,0.057c-0.457,0-0.688-0.233-0.688-0.69v-4.858
			c0-0.497-0.176-0.816-0.508-0.988c-0.248-0.125-0.639-0.177-1.2-0.177c-0.052,0-0.194-0.017-0.421-0.017
			c-0.247-0.018-0.443-0.018-0.616-0.018c-1.55,0-2.326,0.331-2.326,0.998v5.06c0,0.331-0.122,0.542-0.37,0.634
			c-0.108,0.034-0.368,0.057-0.776,0.057c-0.454,0-0.687-0.233-0.687-0.69v-4.877c0-1.779,1.321-2.681,3.964-2.681
			c1.106,0,1.777,0,2.028,0.034c0.649,0.092,1.284,0.304,1.884,0.673c0.562-0.354,1.196-0.563,1.899-0.65
			c0.317-0.032,1.005-0.057,2.028-0.057c2.531,0,3.804,0.901,3.804,2.681v4.877C82.07,124.802,81.857,125.035,81.401,125.035"/>
	</g>
</g>
<g>
	<g>
		<path d="M91.594,124.963h-5.654v1.67c0,0.338-0.141,0.547-0.369,0.615c-0.104,0.04-0.368,0.058-0.775,0.058
			c-0.456,0-0.685-0.217-0.685-0.673v-7.393c0-1.004,0.477-1.712,1.425-2.082c0.621-0.245,1.518-0.371,2.73-0.371h2.889
			c2.909,0,4.35,0.81,4.35,2.413v3.207C95.504,124.118,94.204,124.963,91.594,124.963 M93.676,119.24
			c0-0.445-0.336-0.724-1.004-0.867c-0.285-0.052-0.775-0.068-1.5-0.068H88.34c-1.607,0-2.4,0.313-2.4,0.964v4.177h5.654
			c1.395,0,2.082-0.332,2.082-1.022V119.24z"/>
	</g>
</g>
<g>
	<g>
		<path d="M98.743,125.035c-0.419,0-0.67-0.022-0.771-0.072c-0.229-0.076-0.353-0.287-0.353-0.618v-6.234
			c0-0.443,0.226-0.673,0.667-0.673c0.428,0,0.671,0.022,0.776,0.057c0.249,0.086,0.352,0.298,0.352,0.616v6.234
			C99.414,124.802,99.202,125.035,98.743,125.035"/>
	</g>
</g>
<g>
	<g>
		<path d="M112.553,125.035h-6.708c-1.233,0-2.17-0.124-2.801-0.375c-0.973-0.39-1.445-1.09-1.445-2.128v-3.247
			c0-1.671,1.286-2.498,3.856-2.498h7.203c0.457,0,0.702,0.245,0.702,0.76c0,0.513-0.245,0.774-0.702,0.774h-7.062
			c-1.467,0-2.188,0.297-2.188,0.919v3.223c0,0.701,0.834,1.039,2.483,1.039h6.816c0.457,0,0.686,0.278,0.686,0.843
			C113.395,124.802,113.115,125.035,112.553,125.035"/>
	</g>
</g>
<g>
	<g>
		<path d="M163.183,125.035c-0.417,0-0.682-0.022-0.772-0.057c-0.245-0.092-0.368-0.303-0.368-0.634v-5.076
			c0-0.65-0.773-0.981-2.325-0.981c-0.146,0-0.316,0-0.526,0.018c-0.212,0-0.337,0.017-0.392,0.017
			c-1.215,0-1.811,0.388-1.811,1.181v4.843c0,0.331-0.123,0.542-0.374,0.634c-0.104,0.034-0.371,0.057-0.775,0.057
			c-0.454,0-0.682-0.233-0.682-0.69v-4.858c0-0.497-0.18-0.816-0.515-0.988c-0.248-0.125-0.632-0.177-1.2-0.177
			c-0.048,0-0.188-0.017-0.416-0.017c-0.251-0.018-0.442-0.018-0.619-0.018c-1.549,0-2.328,0.331-2.328,0.998v5.06
			c0,0.331-0.122,0.542-0.367,0.634c-0.105,0.034-0.368,0.057-0.775,0.057c-0.458,0-0.688-0.233-0.688-0.69v-4.877
			c0-1.779,1.325-2.681,3.962-2.681c1.113,0,1.783,0,2.025,0.034c0.649,0.092,1.289,0.304,1.886,0.673
			c0.565-0.354,1.2-0.563,1.902-0.65c0.315-0.032,1.01-0.057,2.026-0.057c2.537,0,3.809,0.901,3.809,2.681v4.877
			C163.858,124.802,163.644,125.035,163.183,125.035"/>
	</g>
</g>
<g>
	<g>
		<path d="M131.973,121.476l0.006-0.283l0.003-2.215c0-0.845-0.528-1.472-1.611-1.871c-0.782-0.285-1.712-0.428-2.775-0.434
			c-0.101,0-0.331-0.017-0.664-0.017c-0.349-0.018-0.634-0.018-0.864-0.018c-3.223-0.01-4.838,0.753-4.843,2.301l-0.003,2.229
			l-0.005,0.799c0,0.931,0.529,1.591,1.576,1.996c0.713,0.281,1.623,0.422,2.721,0.422l4.198,0.012h0.263h0.27l0.019,0.804
			c0,0.702-0.47,1.052-1.841,1.052l-4.56-0.012c-0.213,0-0.371,0.084-0.455,0.261c-0.042,0.115-0.063,0.309-0.069,0.601
			c0.006,0.416,0.165,0.638,0.524,0.638c0.095,0,0.269,0,0.53,0c0.263,0.017,3.351,0.029,3.518,0.029
			c2.702,0,4.058-0.85,4.058-2.579l0.006-0.821v-0.462v-1.984v-0.452V121.476 M125.486,122.955c-1.697-0.008-2.541-0.339-2.541-1
			l0.004-0.814l0.002-2.175c0-0.404,0.282-0.661,0.851-0.781c0.283-0.063,0.729-0.086,1.363-0.086l2.709,0.012
			c0.499-0.006,0.967,0.058,1.412,0.177c0.646,0.183,0.964,0.451,0.964,0.799v2.064l-0.007,0.765v1.051L125.486,122.955z"/>
	</g>
</g>
<g>
	<g>
		<path d="M23.415,117.209c-0.521-0.131-1.25-0.209-2.223-0.239L18.888,117c-0.396-0.006-0.831-0.006-1.299,0
			c-0.55,0.004-0.829,0.232-0.829,0.661l0.003,0.176c0.006,0.444,0.291,0.667,0.839,0.661c0.063,0,0.242-0.022,0.548-0.028
			c0.302-0.016,0.54-0.022,0.766-0.028l2.294-0.022c1.512-0.017,2.311,0.268,2.398,0.821l-6.256,0.069
			c-0.93,0.01-1.735,0.188-2.408,0.523c-0.87,0.422-1.292,1.063-1.28,1.906l0.014,1.009c0.007,0.781,0.477,1.374,1.395,1.798
			c0.742,0.347,1.536,0.512,2.41,0.507l4.338-0.052c2.406-0.027,3.618-0.85,3.598-2.469l-0.037-3.145
			C25.37,118.287,24.707,117.552,23.415,117.209 M23.361,123.176c-0.235,0.207-0.771,0.319-1.542,0.326l-4.407,0.05
			c-0.378,0.006-0.77-0.044-1.167-0.159c-0.536-0.166-0.794-0.388-0.802-0.678l-0.01-1.011c-0.006-0.279,0.254-0.502,0.765-0.679
			c0.396-0.143,0.774-0.223,1.132-0.223l6.295-0.068c0,0.205,0,0.464,0.012,0.771c0.022,0.307,0.025,0.512,0.025,0.638
			C23.665,122.658,23.565,123.005,23.361,123.176z"/>
	</g>
</g>
<g>
	<g>
		<path d="M44.948,117.209c-0.518-0.131-1.252-0.209-2.227-0.239L40.424,117c-0.398-0.006-0.833-0.006-1.304,0
			c-0.546,0.004-0.827,0.232-0.824,0.661l0.003,0.176c0.003,0.444,0.291,0.667,0.838,0.661c0.066,0,0.24-0.022,0.542-0.028
			c0.307-0.016,0.545-0.022,0.765-0.028l2.296-0.022c1.515-0.017,2.313,0.268,2.401,0.821l-6.258,0.069
			c-0.93,0.01-1.733,0.188-2.404,0.523c-0.874,0.422-1.289,1.063-1.28,1.906l0.009,1.009c0.009,0.781,0.479,1.374,1.397,1.798
			c0.741,0.347,1.536,0.512,2.41,0.507l4.338-0.052c2.405-0.027,3.618-0.85,3.601-2.469l-0.04-3.145
			C46.901,118.287,46.237,117.552,44.948,117.209 M44.894,123.176c-0.233,0.207-0.771,0.319-1.541,0.326l-4.406,0.05
			c-0.38,0.006-0.771-0.044-1.168-0.159c-0.538-0.166-0.795-0.388-0.8-0.678l-0.012-1.011c-0.003-0.279,0.254-0.502,0.763-0.679
			c0.398-0.143,0.774-0.223,1.135-0.223l6.294-0.068c0.005,0.205,0.005,0.464,0.011,0.771c0.021,0.307,0.024,0.512,0.024,0.638
			C45.199,122.658,45.101,123.005,44.894,123.176z"/>
	</g>
</g>
<g>
	<g>
		<path d="M144.045,117.209c-0.521-0.131-1.252-0.209-2.225-0.239l-2.298,0.03c-0.4-0.006-0.834-0.006-1.304,0
			c-0.548,0.004-0.83,0.232-0.824,0.661l0.003,0.176c0.003,0.444,0.291,0.667,0.833,0.661c0.068,0,0.245-0.022,0.55-0.028
			c0.3-0.016,0.542-0.022,0.761-0.028l2.301-0.022c1.508-0.017,2.31,0.268,2.394,0.821l-6.254,0.069
			c-0.93,0.01-1.732,0.188-2.403,0.523c-0.873,0.422-1.295,1.063-1.28,1.906l0.01,1.009c0.006,0.781,0.475,1.374,1.396,1.798
			c0.74,0.347,1.532,0.512,2.409,0.507l4.339-0.052c2.406-0.027,3.618-0.85,3.598-2.469l-0.039-3.145
			C145.998,118.287,145.337,117.552,144.045,117.209 M143.99,123.176c-0.233,0.207-0.77,0.319-1.538,0.326l-4.407,0.05
			c-0.38,0.006-0.773-0.044-1.17-0.159c-0.536-0.166-0.796-0.388-0.799-0.678l-0.01-1.011c-0.006-0.279,0.252-0.502,0.761-0.679
			c0.399-0.143,0.774-0.223,1.131-0.223l6.296-0.068c0.005,0.205,0.005,0.464,0.014,0.771c0.02,0.307,0.025,0.512,0.025,0.638
			C144.296,122.658,144.196,123.005,143.99,123.176z"/>
	</g>
</g>
<g>
	<g>
		<path d="M175.735,117.084c-0.652-0.309-1.403-0.462-2.298-0.462l-3.285,0.017c-1.066,0-1.967,0.173-2.703,0.502
			c-1.014,0.445-1.526,1.131-1.526,2.054l0.013,2.949c0.006,0.685,0.318,1.266,0.979,1.779c0.464,0.378,1.183,0.594,2.158,0.686
			c0.271,0.027,0.732,0.045,1.388,0.058l3.432-0.013c0.271,0.007,0.573,0.007,0.913,0.007c0.425-0.007,0.646-0.229,0.65-0.675
			c-0.004-0.547-0.226-0.815-0.653-0.815c-0.086-0.006-0.222,0.012-0.431,0.012c-0.203,0-0.354,0-0.474,0.006l-3.438,0.005
			c-1.876,0.008-2.762-0.553-2.714-1.671l8.786-0.016c0.326-0.006,0.478-0.245,0.478-0.726v-1.934
			C177.007,118.06,176.595,117.479,175.735,117.084 M175.301,119.982l-7.609,0.016v-0.928c0-0.61,0.89-0.919,2.673-0.926
			c-0.039,0,0.099-0.022,0.404-0.022c0.325-0.018,0.637-0.018,0.928-0.018c2.401-0.006,3.599,0.279,3.599,0.879L175.301,119.982z"/>
	</g>
</g>
<g>
	<g>
		<path d="M64.28,119.423v-1.746l-0.017-0.45c0.006-0.325-0.186-0.496-0.561-0.496c-0.326,0-0.543,0.011-0.632,0.039
			c-0.196,0.048-0.298,0.206-0.298,0.451l-0.04,0.422v1.803h0.003l-0.012,1.163l0.002,2.579l-5.907-0.006
			c-0.491,0-0.93-0.068-1.327-0.216c-0.557-0.188-0.852-0.503-0.852-0.948v-1.43l0.003-1.148v-1.772l-0.009-0.452
			c0-0.319-0.186-0.49-0.552-0.49c-0.323-0.006-0.537,0.011-0.623,0.035c-0.196,0.052-0.297,0.21-0.294,0.455l-0.037,0.422
			l-0.003,1.803v1.143l-0.005,1.476c0.005,1.028,0.459,1.753,1.349,2.208c0.619,0.319,1.406,0.484,2.379,0.484h5.876l0.002,0.855
			c-0.002,0.741-0.713,1.09-2.126,1.09l-4.722-0.006c-0.217,0-0.381,0.091-0.462,0.268c-0.046,0.126-0.074,0.337-0.071,0.634
			c-0.003,0.439,0.168,0.669,0.533,0.669c0,0,0.28,0,0.553,0c0.272,0.016,3.463,0.021,3.64,0.021c2.801,0,4.198-0.901,4.198-2.698
			l0.003-4.975l0.011-1.179L64.28,119.423"/>
	</g>
</g>
<g>
	<g>
		<path d="M186.518,120.027h-3.11c-0.676,0-1.13-0.018-1.37-0.05c-0.655-0.11-0.964-0.35-0.964-0.715l0.003-0.434
			c-0.003-0.313,0.306-0.514,0.925-0.593c0.144-0.012,0.584-0.016,1.277-0.012h0.61l1.799-0.004l0.736,0.004
			c0.474-0.004,0.69-0.239,0.69-0.713l0.003-0.177c0-0.461-0.227-0.696-0.699-0.696c-0.275,0-0.545,0-0.787,0l-1.805,0.006
			c-1.189,0.017-2.02,0.068-2.498,0.16c-1.424,0.309-2.128,0.964-2.125,2.024l-0.003,0.451c-0.009,1.568,1.403,2.355,4.198,2.35
			h3.051c1.072,0,1.604,0.251,1.604,0.789l-0.007,0.306c0.007,0.571-0.581,0.851-1.763,0.856h-6.355
			c-0.457,0-0.694,0.292-0.694,0.872c0,0.474,0.24,0.708,0.697,0.708l6.353,0.005c2.478,0,3.714-0.827,3.714-2.445l0.003-0.384
			C189.997,120.791,188.833,120.027,186.518,120.027"/>
	</g>
</g>
<g>
	<g>
		<path d="M1.834,126.21v1.673c0,0.335-0.139,0.541-0.368,0.616c-0.106,0.033-0.368,0.057-0.777,0.05
			c-0.459,0.007-0.686-0.205-0.686-0.666v-1.855v-1.163L0,119.319c0-0.998,0.475-1.705,1.425-2.074
			c0.616-0.245,1.517-0.371,2.732-0.378l2.893,0.007c2.909-0.007,4.352,0.803,4.349,2.406l0.003,3.205
			c0.003,1.711-1.3,2.562-3.91,2.562H1.837L1.834,126.21 M9.57,119.319c-0.003-0.444-0.333-0.724-1.004-0.859
			c-0.284-0.058-0.779-0.076-1.503-0.076H4.226c-1.602,0-2.395,0.321-2.395,0.97l0.003,4.176h5.657c1.393,0,2.079-0.337,2.076-1.021
			L9.57,119.319z"/>
	</g>
</g>
<g>
	<g>
		<path d="M19.118,98.095h-3.896v8.71c0,0.628-0.309,0.936-0.909,0.936c-0.577,0-0.906-0.028-1.058-0.103
			c-0.334-0.091-0.502-0.375-0.502-0.833l-0.003-8.71h-0.858c-0.644,0-0.955-0.329-0.955-0.997c0-0.697,0.312-1.032,0.955-1.032
			h0.858V93.84c0-0.6,0.321-0.91,0.907-0.91c0.576,0,0.941,0.025,1.084,0.065c0.313,0.132,0.48,0.39,0.48,0.845v2.226h3.896
			c0.634,0,0.946,0.381,0.946,1.128C20.064,97.821,19.752,98.095,19.118,98.095"/>
	</g>
</g>
<g>
	<g>
		<path d="M112.807,103.046h4.789c2.935,0,4.643-0.837,5.07-2.479l0.007-0.019l0.107-1.379l0.012-0.177
			c0-0.823-0.377-1.508-1.112-2.044c-0.578-0.428-1.302-0.725-2.143-0.867c-0.61-0.108-7.654-0.13-8.924-0.13
			c-0.592,0-0.938,0.336-0.938,0.923c0,0.337,0.05,0.61,0.138,0.793c0.099,0.183,0.316,0.399,0.801,0.399
			c1.419,0,7.134,0.022,7.612,0.057c1.323,0.139,2.057,0.441,2.057,0.851v1.004c0,0.428-0.653,0.657-1.041,0.753
			c-0.568,0.125-1.149,0.193-1.73,0.193h-4.655c-1.364,0-2.433,0.166-3.288,0.514c-1.303,0.519-1.969,1.369-1.969,2.521v2.982
			c0,0.616,0.337,0.965,0.933,0.965h13.263c0.63,0,0.978-0.377,0.978-1.071c0-0.681-0.348-1.057-0.978-1.057c0,0-11.345,0-11.725,0
			c0-0.319,0-1.843,0-1.843C110.069,103.2,111.554,103.046,112.807,103.046"/>
	</g>
</g>
<g>
	<g>
		<path d="M134.807,95.951h-3.271c-3.68,0-5.541,1.111-5.541,3.313l-0.034,2.824c-0.029,1.146-0.029,2.087,0,2.807
			c0.054,1.996,1.931,3.011,5.575,3.011h3.271c3.683,0,5.545-1.112,5.545-3.303v-5.339
			C140.352,97.063,138.489,95.951,134.807,95.951 M128.484,99.333c0-0.565,0.338-0.907,1.086-1.124
			c0.365-0.097,0.963-0.143,1.93-0.143h3.346c1.998,0,3.011,0.422,3.011,1.267v5.207c0,0.542-0.354,0.903-1.081,1.096
			c-0.389,0.091-1.041,0.143-1.93,0.143H131.5c-1.373,0-3.016-0.211-3.016-1.221V99.333z"/>
	</g>
</g>
<g>
	<g>
		<path d="M152.647,95.951h-3.269c-3.674,0-5.539,1.111-5.539,3.313l-0.042,2.824v2.801c0.057,2.002,1.939,3.017,5.581,3.017h3.269
			c3.68,0,5.541-1.112,5.541-3.303v-5.339C158.188,97.063,156.327,95.951,152.647,95.951 M146.33,99.333
			c0-0.565,0.33-0.907,1.078-1.124c0.376-0.097,0.973-0.143,1.936-0.143h3.343c2.002,0,3.018,0.422,3.018,1.267v5.207
			c0,0.542-0.355,0.903-1.089,1.096c-0.394,0.091-1.044,0.143-1.929,0.143h-3.343c-1.999,0-3.014-0.411-3.014-1.221V99.333z"/>
	</g>
</g>
<g>
	<g>
		<path d="M175.132,100.793c-0.884-0.371-1.981-0.548-3.358-0.548c0,0-7.527,0-7.897,0c0-0.289,0-1.163,0-1.163
			c0-0.674,0.92-1.016,2.739-1.016h6.489c0.38,0,0.671-0.137,0.813-0.394c0.086-0.188,0.125-0.439,0.125-0.799
			c0-0.604-0.327-0.923-0.938-0.923h-0.762c-0.339-0.029-4.227-0.029-5.001-0.029c-3.968,0-5.981,1.072-5.981,3.177v5.516
			c0,0.27,0.054,0.588,0.165,0.953c0.089,0.336,0.348,0.713,0.796,1.153c0.79,0.797,2.19,1.186,4.278,1.186h5.578
			c1.182,0,2.235-0.206,3.138-0.605c1.187-0.536,1.788-1.386,1.788-2.51v-1.38C177.104,102.209,176.441,101.323,175.132,100.793
			 M172.178,105.778h-5.548c-0.601,0-1.177-0.086-1.721-0.257c-0.697-0.229-1.033-0.53-1.033-0.918c0,0,0-1.904,0-2.236
			c0.37,0,7.937,0,7.937,0c0.649,0,1.244,0.08,1.777,0.229c0.69,0.188,1.038,0.479,1.038,0.861v1.317
			c0,0.337-0.299,0.601-0.891,0.783C173.275,105.704,172.755,105.778,172.178,105.778z"/>
	</g>
</g>
<g>
	<g>
		<path d="M35.609,107.096c-0.956,0.451-2.15,0.679-3.563,0.679h-4.122c-1.41,0-2.637-0.245-3.664-0.694
			c-1.365-0.604-2.061-1.53-2.061-2.808v-4.107c0-1.255,0.695-2.19,2.061-2.857c1.051-0.506,2.27-0.741,3.662-0.741h4.119
			c3.643,0,5.462,1.169,5.462,3.572v4.134C37.503,105.55,36.883,106.503,35.609,107.096 M35.013,99.967
			c0-0.891-1.026-1.324-3.046-1.324h-4.021c-0.744,0-1.416,0.074-2.011,0.268c-0.838,0.28-1.246,0.692-1.246,1.255v4.107
			c0,0.555,0.434,0.936,1.286,1.175c0.588,0.167,1.227,0.239,1.994,0.239h4.001c0.671,0,1.275-0.072,1.846-0.268
			c0.787-0.257,1.197-0.639,1.197-1.146V99.967z"/>
	</g>
</g>
<g>
	<g>
		<path d="M47.886,98.643c-0.07,0-0.239-0.021-0.475-0.021c-0.24,0-0.436,0-0.582,0c-1.891,0-2.848,0.455-2.848,1.413l0.003,6.801
			c0,0.478-0.17,0.746-0.51,0.865c-0.145,0.048-0.496,0.074-1.079,0.074c-0.617,0-0.926-0.319-0.926-0.939l0.04-6.801
			c0-2.326,2.112-3.468,6.376-3.468c0.595,0,0.91,0.388,0.91,1.142C48.796,98.334,48.48,98.643,47.886,98.643"/>
	</g>
</g>
<g>
	<g>
		<path d="M74.969,107.774c-0.569,0-0.937-0.034-1.082-0.074c-0.33-0.119-0.505-0.41-0.505-0.865v-7.138
			c0-0.507-0.405-0.861-1.27-1.004c-0.285-0.051-0.91-0.051-1.848-0.051h-4.021c-0.956,0-1.604,0-1.894,0.051
			c-0.859,0.16-1.287,0.497-1.287,1.022v7.119c0,0.616-0.308,0.939-0.938,0.939c-0.55,0-0.909-0.034-1.053-0.074
			c-0.337-0.119-0.508-0.41-0.508-0.865v-7.086c0-2.134,1.894-3.183,5.679-3.183h4.021c3.741,0,5.615,1.049,5.615,3.149v7.119
			C75.88,107.451,75.567,107.774,74.969,107.774"/>
	</g>
</g>
<g>
	<g>
		<path d="M93.254,107.09c-0.967,0.457-2.159,0.685-3.567,0.685h-4.119c-1.421,0-2.639-0.245-3.667-0.7
			c-1.372-0.599-2.063-1.524-2.063-2.802l-0.001-4.107c0-1.255,0.692-2.19,2.062-2.857c1.055-0.506,2.275-0.741,3.665-0.741h4.124
			c3.636,0,5.462,1.169,5.462,3.572v4.134C95.148,105.55,94.523,106.503,93.254,107.09 M92.652,99.967
			c0-0.891-1.027-1.324-3.039-1.324h-4.031c-0.739,0-1.409,0.074-2.01,0.268c-0.839,0.28-1.248,0.692-1.248,1.255l0.004,4.107
			c0,0.555,0.433,0.936,1.292,1.171c0.576,0.164,1.223,0.243,1.992,0.243h4.001c0.671,0,1.27-0.079,1.839-0.268
			c0.801-0.257,1.204-0.639,1.2-1.146V99.967z"/>
	</g>
</g>
<g>
	<g>
		<path d="M55.981,94.963c0-0.404-0.169-0.717-0.499-0.958c-0.322-0.217-0.676-0.313-1.109-0.307c-0.461,0-0.82,0.09-1.128,0.307
			c-0.318,0.241-0.486,0.554-0.486,0.966c0.001,0.381,0.171,0.694,0.51,0.934c0.284,0.219,0.646,0.309,1.104,0.309
			c0.434,0,0.787-0.098,1.109-0.309C55.813,95.665,55.981,95.346,55.981,94.963 M55.636,106.794l-0.005-8.505
			c-0.006-0.423-0.148-0.713-0.488-0.833c-0.141-0.05-0.481-0.074-1.058-0.074c-0.597,0-0.913,0.313-0.913,0.907l0.013,8.505
			c0,0.456,0.163,0.747,0.482,0.844c0.144,0.074,0.477,0.092,1.057,0.092C55.346,107.729,55.636,107.421,55.636,106.794z"/>
	</g>
</g>
<g>
	<g>
		<path d="M99.626,115.623c0-0.29-0.123-0.518-0.361-0.694c-0.233-0.155-0.49-0.224-0.803-0.218c-0.337,0-0.598,0.063-0.819,0.218
			c-0.23,0.177-0.354,0.404-0.354,0.7c0,0.279,0.125,0.508,0.371,0.679c0.204,0.16,0.468,0.229,0.802,0.229
			c0.313,0,0.569-0.074,0.803-0.229C99.503,116.137,99.626,115.904,99.626,115.623"/>
	</g>
</g>
<g>
	<g>
		<path fill-rule="evenodd" clip-rule="evenodd" fill="#C8D54F" d="M73.025,60.583l-0.076-0.005l0.071-0.003
			c-0.601-0.037-1.178-0.14-1.459-0.451c-0.078-0.105-0.153-0.228-0.222-0.359c-0.188-0.499-0.129-1.469,2.238-2.495l-0.158,0.028
			l0.155-0.043c13.046-4.053,21.013-12.565,33.594-28.819c0.892-1.152,1.7-0.784,1.317,0.308c0,0-3.95,20.538,8.659,16.952
			c-2.303,1.013-2.265,2.453-2.265,2.453s-0.141,1.791,2.486,1.763c-5.162,0.815-15.569,3.65-36.037,32.731
			c-0.126,0.182-0.585,0.826-1.187,0.941c0,0-1.092,0.152-0.645-1.2C86.517,61.156,75.433,60.731,73.025,60.583"/>
	</g>
</g>
<g>
	<g>
		<path fill="#00A6DE" d="M117.419,49.899l-0.097,0.012c-2.579,0.009-2.441-1.763-2.441-1.763s-0.038-1.446,2.265-2.458
			c18.292-6.631,24.566-42.388,24.624-43.962c0.074-2.099,1.322-2.444,1.48-0.151c1.518,22.203,4.729,28.712,18.732,28.321
			c0.855-0.022,3.111-0.151,3.969-0.157c1.513-0.008,3.021,0.682-0.665,3.271c-1.026,0.725-21.632,12.102-25.321,50.838
			c-0.095,1.004-0.107,3.036-1.472,3.179c-1.27,0.134-1.284-1.531-1.344-2.393C136.922,81.292,134.915,47.957,117.419,49.899"/>
	</g>
</g>
<g>
	<g>
		<path fill="#C90019" d="M73.578,57.269c-10.548,2.017-3.471-7.541-3.471-7.541c0.79-0.981,0.02-0.995-0.338-0.762
			C48.397,62.813,34.447,64.835,22.035,68.132c-0.749,0.196-0.858,0.878-0.036,0.799l4.826-0.582
			c19.176-2.556,2.706,9.967,0.928,11.214c-0.682,0.478-0.229,1.067,0.303,0.742C56.093,62.086,71.16,60.68,73.021,60.575
			c-0.607-0.037-1.193-0.143-1.469-0.462C71.552,60.113,70.163,58.747,73.578,57.269"/>
	</g>
</g>
<g>
	<g>
		<path fill="#BE0E2F" d="M80.809,170.742c-0.808,0.354-13.474,1.256-12.158-9.543c1.313-10.797,20.568-18.379,24.158-17.044
			c-4.8,2.447-14.732,4.397-18.465,15.39C70.663,170.383,80.717,170.595,80.809,170.742"/>
	</g>
</g>
<g>
	<g>
		<path fill="#005AA2" d="M100.42,176.447c-0.245,0.845-7.699,11.129-15.125,3.176c-7.429-7.945-0.86-27.567,2.471-29.46
			c-1.211,5.246-6.104,14.112-0.081,24.035C93.625,183.988,100.249,176.423,100.42,176.447"/>
	</g>
</g>
<g>
	<g>
		<path fill="#008448" d="M116.554,160.077c0.757,0.454,8.759,10.316-0.841,15.434c-9.597,5.116-26.853-6.308-27.82-10.015
			c4.758,2.53,12.054,9.548,23.197,6.301C122.081,168.593,116.488,160.235,116.554,160.077"/>
	</g>
</g>
<g>
	<g>
		<path fill-rule="evenodd" clip-rule="evenodd" d="M189.991,135.297c0-1.779-1.403-3.153-3.185-3.153
			c-1.766,0-3.201,1.403-3.201,3.153c0,1.781,1.406,3.173,3.201,3.173C188.546,138.47,189.991,137.036,189.991,135.297
			 M189.125,135.325c0,1.278-1.03,2.333-2.318,2.333c-1.29,0-2.315-1.084-2.315-2.373s1.025-2.333,2.315-2.333
			C188.095,132.952,189.125,134.038,189.125,135.325z M188.138,136.934l-0.622-1.055c-0.099-0.177-0.203-0.349-0.274-0.422
			c0.463-0.085,0.769-0.405,0.769-0.953c0-0.524-0.319-0.873-1.131-0.873h-1.144v3.303h0.709v-1.373h0.06l0.767,1.373H188.138z
			 M187.256,134.59c0,0.245-0.159,0.508-0.61,0.508h-0.201v-0.913h0.306C187.125,134.185,187.256,134.315,187.256,134.59z"/>
	</g>
</g>
</svg>
