<?xml version="1.0" encoding="UTF-8"?>
<!-- Created with Inkscape (http://www.inkscape.org/) -->
<svg width="79.375mm" height="70.191mm" version="1.1" viewBox="0 0 79.375 70.191" xmlns="http://www.w3.org/2000/svg" xmlns:cc="http://creativecommons.org/ns#" xmlns:dc="http://purl.org/dc/elements/1.1/" xmlns:rdf="http://www.w3.org/1999/02/22-rdf-syntax-ns#">
 <metadata>
  <rdf:RDF>
   <cc:Work rdf:about="">
    <dc:format>image/svg+xml</dc:format>
    <dc:type rdf:resource="http://purl.org/dc/dcmitype/StillImage"/>
    <dc:title/>
   </cc:Work>
  </rdf:RDF>
 </metadata>
 <g transform="translate(355.77 -237.06)">
  <g transform="matrix(.25451 0 0 .25451 -265.23 229.05)">
   <path d="m-176.65 139.15c10.215 11.401 14.849 27.583 12.218 42.663-0.60465 3.4668-1.5889 6.8606-2.9063 10.121l3.3187 10.216c5.9628-8.6415 9.4578-19.117 9.4578-30.411 0-12.236-4.0989-23.515-10.999-32.538zm16.183 0c6.6903 10.522 10.251 23.008 10.118 35.476s-3.9607 24.874-10.875 35.251c-0.0634 0.0951-0.12938 0.18843-0.19327 0.28319l3.2623 10.041c12.149-12.537 19.63-29.624 19.63-48.461 0-11.778-2.9237-22.811-8.0843-32.538zm19.82 0c6.0255 13.907 8.1236 29.49 5.9914 44.495-2.1322 15.005-8.4888 29.387-18.15 41.064-0.91435 1.1052-1.8616 2.1822-2.8334 3.2365l3.3967 10.456c19.005-15.963 31.09-39.9 31.09-66.662 0-11.53-2.2422-22.468-6.3144-32.538zm19.895 0c9.8158 31.348 3.2582 67.342-16.982 93.214-3.6779 4.7012-7.7849 9.0574-12.238 13.028l3.7956 11.683-9.5317-6.9246c-12.739 9.801-27.771 16.638-43.576 19.587-24.116 4.5005-49.819-0.0897-70.851-12.629 17.425 12.662 38.822 20.111 61.959 20.111 58.255 0 105.48-47.225 105.48-105.48 0-11.38-1.8025-22.269-5.1372-32.538zm-75.689 81.408c-8.5635 3.2285-17.994 4.1807-27.009 2.5724l0.0253 0.0233c4.8334 1.4314 9.9515 2.1999 15.249 2.1999 5.3116 0 10.441-0.77619 15.286-2.2148zm13.33 9.6842c-3.9882 2.2817-8.2151 4.1435-12.599 5.5232-13.977 4.3988-29.452 3.8697-43.117-1.4748 9.234 4.5456 19.645 7.0993 30.652 7.0993 10.998 0 21.398-2.5528 30.646-7.0921zm13.496 9.8051c-9.1037 6.2582-19.443 10.725-30.266 12.946-18.28 3.7513-37.814 1.0739-54.423-7.4574 13.363 8.3809 29.18 13.227 46.129 13.227 16.942 0 32.75-4.847 46.122-13.222z" fill="#cc9143" fill-rule="evenodd"/>
   <path d="m-121.96 95.55q-0.59818-0.75896-0.97077-1.7138-0.37496-0.93489-0.32805-1.5871 0.0185-0.41268 0.21366-0.69314 0.21981-0.318 0.78903-0.76664 0.54689-0.43104 0.90169-0.69258 0.34363-0.25274 0.62265-0.47266 0.42413-0.33428 0.65312-0.3881 0.24015-0.06262 0.36331 0.09363 0.15834 0.2009-0.559 0.87484-0.72376 0.64282-1.0724 1.2795-0.58198 0.98343-0.50298 2.0249 0.0901 1.0327 0.79389 1.9256 0.95005 1.2054 2.4005 1.3469 1.4329 0.11916 2.7388-0.91006 1.2277-0.96764 1.5627-2.1726 0.18188-0.59571 0.13571-1.5726-0.0262-0.97453-0.26053-2.3279-0.43476-2.4801-0.0751-3.7226 0.35969-1.2425 1.6097-2.2277 1.7634-1.3899 3.7152-1.2093 1.9295 0.19822 3.2666 1.8947 0.64216 0.81476 1.0388 1.823 0.40778 0.99949 0.32937 1.4051-0.0412 0.17726-0.59759 0.68813-0.48939 0.45809-1.5497 1.2938-0.21206 0.16714-0.38761 0.19694-0.17556 0.0298-0.26352-0.08181-0.14955-0.18974 0.24714-0.71952 0.28035-0.4019 0.48257-0.74223 0.60903-1.0409 0.59095-1.9133-7e-3 -0.88117-0.62269-1.6624-0.90606-1.1496-2.0613-1.3067-1.1775-0.1395-2.2825 0.73138-0.94869 0.74772-1.1721 1.8647t0.21609 3.5571q0.24784 1.3246 0.23821 2.3455 0.0103 1.0232-0.2057 1.7363-0.41919 1.4884-1.859 2.6232-2.0313 1.601-4.3001 1.3626-2.2911-0.22082-3.8393-2.1852zm3.2157-24.393 2.887 2.9211q0.51945 0.52559 1.0892 1.0414 0.57975 0.52595 0.6297 0.57649 0.61934 0.62667 0.63802 0.86795-0.0215 0.24105-0.47635 0.69057l-1.789 1.7681q-0.2628 0.25973-0.44414 0.33905-0.18123 0.05923-0.30111-0.06206-0.16982-0.17183 0.1963-0.9133 0.3459-0.72149 0.43958-1.2736 0.12578-0.88356-0.17107-1.6691-0.28686-0.77545-1.0261-1.5234-1.0889-1.1017-1.7616-1.1961-0.65262-0.09427-1.4814 0.72486l-3.3962 3.3565q-0.18193 0.17981-0.17253 0.2904 0.01 0.0905 0.3092 0.39372l1.0189 1.031q0.55941 0.56602 1.0902 0.88066 0.48068 0.28419 0.88262 0.28655 0.35187-0.02808 0.58352-0.11716 0.30216-0.11881 0.63512-0.34798 0 0 0.0806-0.03972 0.38326-0.23892 0.55308-0.06709 0.11988 0.12129 0.0687 0.27172-0.031 0.15055-0.21297 0.33036-0.0809 0.07992-0.67674 0.58891-0.59587 0.50899-1.263 1.1683-1.0512 1.0389-1.7895 1.8485l-0.14151 0.13985q-0.15161 0.14984-0.32285 0.21918-0.16101 0.03925-0.26091-0.06183-0.17981-0.18194 0.19488-0.67213l0.0202-0.01998q0.0303-0.02997 0.0507-0.07004 0.0303-0.02997 0.0405-0.06006 0.4867-0.74076 0.70179-1.4329 0.15386-0.53169-0.0638-1.1158-0.20765-0.57401-0.78704-1.1602l-1.1288-1.1422q-0.15983-0.16172-0.29052-0.15244-0.13069 0.0093-0.36317 0.23904l-4.4473 4.3954q-0.76818 0.7592-0.68205 1.4933 0.0961 0.74418 1.0651 1.7246 0.94901 0.96022 1.8212 1.3171 0.87216 0.35684 1.898 0.20208 0.56319-0.07708 1.3492-0.45432 0.73573-0.36749 0.91554-0.18555 0.0499 0.05054 0.0592 0.18123 0.0294 0.13081-0.0212 0.18076-0.0404 0.03996-0.11106 0.08979-0.0706 0.04983-0.15138 0.10965-0.0606 0.05994-0.1515 0.12975l-2.1306 1.746q-0.50491 0.41909-0.73608 0.42778-0.2313 0.02879-0.58093-0.32498-0.14984-0.15161-0.50899-0.59588-1.6264-1.9691-3.3146-3.6773-1.3686-1.3847-2.7383-2.5685-0.34987-0.31357-0.34987-0.31357-0.19979-0.20215-0.23881-0.40336-0.0189-0.20109 0.14281-0.36092 0.2729-0.26972 0.75275 0.15516 0.27995 0.24282 0.40017 0.30382 0.53075 0.31463 0.82257 0.24601 0.32202-0.0785 1.0902-0.8377l9.4708-9.3602q0.54581-0.53943 0.64783-0.8001 0.0718-0.2508-0.13714-0.60374-0.14937-0.232-0.1992-0.30264-0.0798-0.10096-0.22964-0.25257-0.26948-0.3131-0.28863-0.47399-9e-3 -0.17088 0.13246-0.31074 0.14151-0.13985 0.31215-0.1087 0.15067 0.01093 0.34047 0.20298l0.17981 0.18194q0.29945 0.34342 0.91856 1.0103 0.57916 0.62643 0.90881 0.95998zm-19.254-16.081 2.2733 1.7295q0.2262 0.17209 0.27095 0.27757 0.0447 0.10547-0.0246 0.267l-4.5873 13.188q-0.0435 0.1276-0.044 0.19866 0.0108 0.07966 0.0561 0.11408 0.0452 0.03442 0.14211 9.78e-4 0.0597-0.0081 0.19103-0.08679l11.232-7.7929 0.0172-0.02262q0.42557-0.30119 0.67439-0.11189l2.3298 1.7726q0.14703 0.11186 0.19129 0.28839 0.0216 0.15932-0.0816 0.29503-0.24093 0.31668-0.70193-0.0162-0.43838-0.31567-0.77324-0.39187-0.32626-0.08751-0.55171 0.04452-0.21414 0.14064-0.63577 0.69482l-0.37 0.48632-7.3872 10.343-0.23233 0.30536-0.0172 0.02262q-0.60823 0.82291-0.31072 1.3707 0.15146 0.2938 0.52739 0.59767 0.4519 0.41524 0.19376 0.75454-0.11186 0.14703-0.3051 0.14285-0.19325-0.0042-0.40814-0.16766-0.0113-0.0086-0.66949-0.59864-0.65819-0.59004-1.0993-0.92562-0.48633-0.37-1.1853-0.81252t-0.73292-0.46834q-0.2262-0.17209-0.29308-0.36583-0.047-0.19644 0.0907-0.3774 0.21512-0.28275 0.75577 0.03931 0.57459 0.34787 0.90404 0.38425 0.28963 0.04179 0.53818-0.14409 0.25987-0.17727 0.75894-0.83324l0.43024-0.56549 6.7581-9.3756q0.12907-0.16965 0.16078-0.2348 0.0462-0.10769 0.0349-0.11629-0.0339-0.02581-0.11358-0.01499-0.0598 0.0081-0.1426 0.07008l-12.468 8.549q-0.0942 0.05335-0.17111 0.08409-0.0797 0.01082-0.13621-0.0322-0.0452-0.03442-0.0561-0.11408 4.9e-4 -0.07105 0.0354-0.18735l5.0214-14.322q0.0118-0.06245-5e-3 -0.11088-0.0506-0.07425-0.0846-0.10006-0.0339-0.02581-0.10548 0.04475-0.10866 0.09589-0.20332 0.2203l-6.098 7.2172-0.0861 0.1131-0.14627 0.19227q-0.63036 0.73465-1.0262 1.2549-1.0412 1.3685-1.1442 1.8794-0.10889 0.54212 0.35481 0.89492 0.1131 0.08605 0.21218 0.14358 0.11039 0.06613 0.24611 0.16939 0.13572 0.10326 0.13745 0.26528 0.0103 0.15071-0.11874 0.32036-0.12907 0.16965-0.33633 0.13696-0.22447-0.01007-0.4846-0.20798-0.26013-0.19791-0.59893-0.5271-0.36143-0.3464-0.62155-0.54431-0.35061-0.26675-0.79218-0.53128-0.44157-0.26453-0.64515-0.41941-0.26013-0.19791-0.3184-0.40295-0.0583-0.20504 0.088-0.39731 0.12047-0.15834 0.27979-0.17998 0.1421 9.78e-4 0.34568 0.15586 0.10179 0.07744 0.14973 0.13178 0.048 0.05433 0.11581 0.10596 0.47501 0.3614 1.1518-0.10576 0.71986-0.5237 2.683-2.8693l6.7257-7.9717 0.1979-0.26013q0.30117-0.39584 0.33165-0.69407 0.0504-0.30093-0.15221-0.59793-0.18859-0.26847-0.48535-0.51211-0.47771-0.38131-0.23678-0.69799 0.11186-0.14703 0.25126-0.16596 0.15932-0.02164 0.32896 0.10743zm-10.377-4.8104-2.9103 14.118q-0.30577 1.4881-0.29588 1.9974-0.0108 0.5466 0.19087 0.88606 0.13259 0.1711 0.52748 0.45526 0.41974 0.29796 0.26803 0.57132-0.0897 0.16153-0.26218 0.17955-0.17253 0.01802-0.43347-0.1268-0.0621-0.03448-0.14221-0.09518-0.0801-0.0607-0.21677-0.13655-0.57301-0.43178-0.97617-0.67177-0.63234-0.38344-0.96784-0.56963-0.36034-0.19998-1.1155-0.53782t-0.94156-0.44128q-0.31064-0.1724-0.388-0.29659-0.0705-0.13662 0.0261-0.31058 0.11034-0.19881 0.37121-0.20031 0.26641 0.01783 0.68335 0.23297l0.0746 0.04138q0.65576 0.28267 0.82966 0.2329 0.18632-0.04287 0.35182-0.34109 0.13792-0.24851 0.24683-0.56189 0.12406-0.36997 0.19569-0.70404l0.77131-3.7327q0.0317-0.14494-7e-3 -0.2802t-0.15054-0.19732l-3.852-2.1378q-0.11183-0.06206-0.29125-0.03162-0.167 0.03734-0.27461 0.17266l-2.5165 2.6016q-0.22627 0.23199-0.44837 0.51505-0.18073 0.2085-0.30486 0.43217-0.19308 0.34792-0.1212 0.5991 0.0664 0.23186 0.45435 0.52845 0.6531 0.49248 0.78432 0.69532 0.12985 0.23459-1e-3 0.47068-0.0828 0.14911-0.23596 0.1616-0.15321 0.01249-0.3893-0.11853-0.0746-0.04138-0.71522-0.52696-0.64068-0.48558-1.1253-0.75452-0.42247-0.23446-0.99263-0.43712-0.57015-0.20265-0.79381-0.32678-0.19881-0.11034-0.23752-0.24559-0.0567-0.16147 0.0261-0.31058 0.15171-0.27336 0.79089-0.04866 0.63917 0.2247 1.0849 0.06577 0.26497-0.09674 0.68029-0.4351 0.36289-0.30244 1.4722-1.3934l10.677-10.425q0.13245-0.12152 0.13245-0.12152 0.37941-0.39079 0.6155-0.25977 0.26094 0.14482 0.0364 1.0766-0.0978 0.35202-0.18463 0.74268zm-3.7356 8.1661 1.2009-6.176q0.0386-0.15737 0.0289-0.22776-0.01-0.07039-0.047-0.09108-0.0497-0.02758-0.11457 0.0014-0.0649 0.02901-0.1573 0.10773l-4.4992 4.4755q-0.11866 0.09667-0.11866 0.09667-0.0331 0.03038-0.0538 0.06766-0.0345 0.06213 6e-3 0.16563 0.0221 0.07729 0.13395 0.13935l3.1313 1.7378q0.12426 0.06896 0.23329 0.04821 0.11593-0.03318 0.178-0.14501l0.0621-0.11183q0.0138-0.02485 8e-3 -0.04417 0.0138-0.02485 8e-3 -0.04417zm-14.89-2.1317 1.1656-3.008q0.27727-0.71555 0.24017-0.97378-0.032-0.27148-0.35381-0.50287-0.24233-0.20058-0.63472-0.36787-0.59415-0.27594-0.46065-0.62047 0.0616-0.15901 0.19032-0.21583 0.14708-0.06493 0.3591 0.01722 0.11926 0.04621 0.83862 0.43164 0.80699 0.43462 1.496 0.70162 0.66255 0.25673 1.4854 0.45366 0.72499 0.17424 0.81775 0.21018 0.17226 0.06675 0.22908 0.19545 0.0568 0.1287-0.01 0.30096-0.13863 0.35778-0.72896 0.18999-0.3548-0.107-0.51083-0.13698-0.40697-0.05101-0.61136 0.08316-0.19115 0.1393-0.50436 0.94761l-1.2631 3.2597q-0.16431 0.42403-0.23834 0.65443-0.0278 0.11114-0.0689 0.21715t-0.0513 0.13251q-0.37483 0.96732-2.2362 1.13-1.8482 0.16781-3.8093-0.59211-3.3658-1.3042-4.589-4.5977-1.2233-3.2935 0.25037-7.0965 1.5712-4.0548 4.9752-5.7992 3.4224-1.7525 7.0001-0.36613 1.2058 0.46725 2.1957 1.2166t1.1376 1.2333q0.0628 0.19197-0.10716 0.82719-0.15752 0.56383-0.80961 2.2467-0.0668 0.17226-0.18733 0.24746-0.10734 0.08033-0.2531 0.02385-0.25177-0.09756-0.19248-0.95854 0.022-0.64681-2e-3 -0.8999-0.0205-1.1662-0.6581-2.0382-0.62429-0.86677-1.6976-1.2827-2.5044-0.97044-5.1197 0.74426t-3.9964 5.2792q-1.4069 3.6308-0.62255 6.6018 0.79243 2.9894 3.3631 3.9855 1.5106 0.58534 2.3961 0.22739 0.90388-0.36607 1.5765-2.1019zm-32.672-14.743q0.70767-4.0456 3.4694-6.3901 2.7781-2.3561 6.1238-1.7709 1.2179 0.21303 2.349 0.75713 1.1402 0.57455 1.3845 0.99238 0.0966 0.19002 0.0641 1.0355-0.058 0.8266-0.27352 2.0585-0.0245 0.13998-0.12806 0.23728-0.0896 0.09974-0.20157 0.08015-0.20998-0.03673-0.31466-0.67539-0.0956-0.60822-0.237-1.0369-0.39694-1.1947-1.1182-1.8547-0.72131-0.65997-1.8692-0.86076-2.3937-0.41872-4.3572 1.7337-1.9635 2.1524-2.6515 6.086-0.65625 3.7516 0.50127 6.5365 1.174 2.7733 3.4977 3.1798 1.3159 0.23018 2.3184-0.38792 1.033-0.6272 1.9264-2.1877 0.10428-0.18374 0.35376-0.70274 0.28727-0.5701 0.48325-0.53582 0.12599 0.02204 0.17149 0.17427 0.0619 0.14068 0.0228 0.36465-0.31833 1.8198-0.47472 2.3839-0.18998 0.67368-0.3478 0.83362-0.62148 0.58378-1.9226 0.84669-1.3456 0.26957-2.7874 0.01735-3.2896-0.57544-4.9984-3.6731-1.7063-3.1117-0.98391-7.2412zm-5.3147-7.3098-0.95154 13.282q-0.0812 1.134 0.0848 1.4023 0.167 0.25417 0.76636 0.43958 0.20856 0.07193 0.49104 0.10642 0.66113 0.1186 0.63168 0.52967-0.0132 0.18427-0.2056 0.28447-0.17822 0.10121-0.46171 0.0809-0.0142-1e-3 -0.93045-0.1379-0.91628-0.13688-1.5541-0.18258-0.60951-0.04367-1.5643-0.04083-0.95478 0.0028-0.96895 0.0018-0.29767-0.02133-0.45964-0.14691-0.16096-0.13976-0.14471-0.36655 0.0274-0.38272 0.69667-0.37751 0.38475-9.3e-4 0.52955-0.0333 0.63485-0.11124 0.8374-0.35318 0.19041-0.27131 0.26759-1.3486l0.95154-13.282q0.0528-0.73708-0.0423-1.0004-0.083-0.2339-0.49907-0.39194-0.25007-0.08915-0.68847-0.13481-0.66113-0.1186-0.63473-0.48714 0.0132-0.18427 0.11954-0.27638 0.12152-0.10527 0.34831-0.08902 0.0425 3e-3 0.91323 0.17941 0.87071 0.17636 1.5653 0.22612 0.75126 0.05382 1.6807 0.0064 0.94365-0.04637 0.94365-0.04637 0.18427 0.0132 0.31789 0.13675 0.10528 0.12152 0.0931 0.29162-0.0264 0.36854-0.69769 0.39169-0.42727-0.0021-0.58522 0.01506-0.46172 0.0809-0.61768 0.26919-0.17319 0.2298-0.23209 1.0519zm-14.965-0.40932 0.10275 5.1576 1e-3 0.05683q0.0201 1.0088 0.48212 1.3691t1.414 0.34139q1.3214-0.02632 2.1938-1.1808 0.87219-1.1687 0.83766-2.9021-0.0377-1.8897-1.0145-3.121-0.96265-1.2316-2.355-1.2039-0.98037 0.01953-1.3302 0.29656-0.34982 0.27703-0.33171 1.1864zm0.15427 7.7435 0.11181 5.6122q0.0218 1.094 0.16869 1.3327 0.11876 0.25348 0.56233 0.401 0.0858 0.02672 0.22846 0.0523 0.0426-8.49e-4 0.17107 0.02502 0.12844 0.02587 0.21397 0.03838 0.38419 0.02077 0.48563 0.11825 0.10143 0.09748 0.10596 0.32481 4e-3 0.18471-0.15034 0.30149-0.18244 0.11735-0.42398 0.12216 0 0-0.81129-0.05491-0.8539-0.05406-1.4933-0.04132-0.65358 0.01302-1.5047 0.10105-0.79424 0.08689-0.79424 0.08689-0.24154 0.0048-0.40009-0.10574-0.15884-0.12476-0.16337-0.35209-4e-3 -0.18471 0.0938-0.28614 0.11141-0.11593 0.2819-0.11933 0.8525-0.01698 1.1591-0.32158 0.30636-0.31881 0.28116-1.5833l-0.26522-13.313q-0.0159-0.79566-0.11956-1.0068-0.10399-0.22535-0.44725-0.33222-0.21425-0.05259-0.58423-0.07364-0.58395-0.05944-0.59131-0.42885-4e-3 -0.19892 0.12193-0.30092 0.0975-0.10144 0.38164-0.1071 0.28416-0.0057 0.64021 0.02989 0.37027 0.03526 0.46972 0.03328l0.41204-0.0082q0.38362-0.0076 2.0596-0.06946 1.676-0.06182 1.747-0.06323 2.2733-0.04529 3.5511 1.308 1.2775 1.3391 1.3265 3.7971 0.0416 2.0886-1.0943 3.5753-1.1359 1.4867-2.7557 1.5189-0.73882 0.01472-1.7416-0.3775-0.98857-0.39251-1.0454-0.39138-0.11367 0.0023-0.15403 0.11678-0.0406 0.10031-0.0339 0.4413zm-25.592-7.0786 2.821-0.44813q0.2807-0.04459 0.38787-0.0041 0.10716 0.04053 0.17602 0.20227l6.363 12.429q0.0622 0.11963 0.1132 0.16908 0.065 0.04722 0.12119 0.0383 0.0561-0.0089 0.0989-0.10205 0.0354-0.04879 0.0693-0.19806l2.1284-13.504-4e-3 -0.02807q0.0763-0.51575 0.38512-0.5648l2.8912-0.45928q0.18246-0.02898 0.34064 0.061 0.13012 0.09444 0.15688 0.26286 0.0624 0.39298-0.49675 0.4962-0.5311 0.09876-0.81758 0.28816-0.2887 0.17536-0.34905 0.42957-0.0463 0.25197 0.0629 0.93969l0.0959 0.60351 2.3721 12.487 0.0602 0.37895 4e-3 0.02807q0.17456 1.0083 0.77609 1.1717 0.31703 0.09353 0.79645 0.03176 0.61243-0.03973 0.67931 0.38132 0.029 0.18246-0.10757 0.31926-0.13654 0.1368-0.40321 0.17916-0.014 0.0022-0.89536 0.07028-0.88132 0.06805-1.4287 0.155-0.60351 0.09587-1.4064 0.29536-0.80289 0.19949-0.84499 0.20618-0.2807 0.04459-0.46696-0.04094-0.17445-0.10179-0.21012-0.32635-0.0557-0.35088 0.55065-0.51915 0.6485-0.17496 0.90245-0.38797 0.23033-0.18048 0.26773-0.48859 0.0514-0.31034-0.0779-1.1244l-0.11148-0.70175-2.1073-11.364q-0.0334-0.21053-0.0586-0.27847-0.0459-0.10782-0.0599-0.10559-0.0421 0.0067-0.0893 0.07175-0.0354 0.04879-0.0479 0.1515l-2.4359 14.92q-0.0265 0.10493-0.0574 0.1818-0.0472 0.06506-0.1174 0.07621-0.0561 0.0089-0.1212-0.0383-0.051-0.04945-0.11096-0.15504l-6.8827-13.526q-0.037-0.05168-0.0836-0.07306-0.0887-0.01469-0.13077-8e-3 -0.0421 0.0067-0.0405 0.10716-6e-3 0.14481 0.0188 0.2992l1.0032 9.3951 0.0223 0.14035 0.0379 0.2386q0.0955 0.9633 0.19802 1.6089 0.26977 1.6982 0.56791 2.1257 0.31662 0.45332 0.89206 0.36192 0.14035-0.02229 0.2504-0.05417 0.12409-0.0341 0.29251-0.06085t0.28673 0.08395q0.11608 0.09667 0.14952 0.3072 0.0334 0.21052-0.1334 0.33775-0.16239 0.1553-0.4852 0.20658-0.3228 0.05128-0.79488 0.06871-0.50014 0.02189-0.82295 0.07317-0.43509 0.06911-0.93143 0.20552-0.49634 0.1364-0.74897 0.17653-0.32281 0.05128-0.5113-0.04828-0.18848-0.09956-0.22638-0.33816-0.0312-0.19649 0.0632-0.32661 0.0989-0.10205 0.35153-0.14218 0.12632-0.02006 0.19872-0.01718 0.0724 0.0029 0.15662-0.01049 0.58947-0.09364 0.71948-0.9057 0.11886-0.88223-0.22014-3.9221l-1.1149-10.37-0.0513-0.32281q-0.078-0.49123-0.27255-0.71933-0.18271-0.24437-0.53739-0.30314-0.32438-0.0492-0.70555-3e-3 -0.60574 0.08183-0.66817-0.31115-0.029-0.18246 0.0537-0.29631 0.0944-0.13012 0.30497-0.16356zm-13.202 6.79 4.7381 4.6495q0.0345 0.0637 0.13279 0.09284 0.0805 0.01976 0.13478 3e-3 0.0543-0.01678 0.0825-0.07009 9e-3 -0.01777 0.0489-0.17872l1.2025-5.7854q0.14033-0.65316 0.18761-1.3668 0.0537-0.59665-9e-3 -0.80032-0.15519-0.50239-0.9533-0.38972-0.79812 0.11267-0.91136-0.25394-0.0461-0.14936 0.0373-0.26438 0.0929-0.13279 0.29652-0.1957 0.0543-0.01678 0.73122-0.13663 0.67691-0.11985 1.3015-0.31278 0.46166-0.1426 1.0245-0.39084 0.52215-0.23566 0.52215-0.23566 0.17651-0.05452 0.28734 0.01536 0.12021 0.05211 0.17473 0.22862 0.0755 0.2444 0.01 0.36881-0.0845 0.15995-0.44686 0.28677-0.0731 0.05232-0.10962 0.07848-0.0407 0.01258-0.0773 0.03874-0.0407 0.01258-0.0773 0.03874-0.0407 0.01258-0.0637 0.03455-0.52933 0.35686-0.73194 1.3862-0.0395 0.16094-0.0395 0.16094l-1.776 8.7439 1.6315 5.2818 0.0545 0.17651q0.27261 0.88257 0.49747 1.0808 0.22066 0.18469 0.68352 0.19045 0.22883 0.01856 0.50458-0.05175 0.0585-0.0032 0.11282-0.01998 0.0407-0.01258 0.0585-0.0032 0.38018-0.11744 0.51817-0.05594 0.15156 0.0573 0.22705 0.3017 0.0545 0.17651-0.0884 0.33966-0.12938 0.15895-0.40094 0.24284-0.0136 0.0042-0.88996 0.20054-0.87639 0.19634-1.4602 0.37669t-1.4183 0.51247q-0.83444 0.33212-0.84802 0.33632-0.27156 0.08388-0.46805 0.02559-0.1871-0.07607-0.25421-0.29331-0.0545-0.17651 0.0112-0.30092 0.0751-0.14218 0.23801-0.19251 0.90973-0.28101 1.1475-0.6668 0.25137-0.38999-0.1261-1.612l-1.5434-4.9967-6.5487-6.5146q-0.40898-0.40912-0.82093-0.68346-0.39-0.25137-0.69511-0.27611-0.10763-0.01138-0.50978 0.0831-0.40634 0.0809-0.48184-0.16351-0.0629-0.20367 0.0487-0.37201 0.098-0.16414 0.34244-0.23964 0 0 0.36141-0.08189 1.4457-0.32757 2.627-0.69246 0.71963-0.22229 1.2867-0.45695 0.15455-0.07749 0.15455-0.07749 0.17651-0.05452 0.28734 0.01536 0.10663 0.0563 0.16115 0.23282 0.10486 0.33945-0.48717 0.68593t-0.4704 0.74024q0.0587 0.19009 0.29416 0.51895 0.18732 0.26936 0.54716 0.6639zm-12.724 4.2916 5.3298 12.203q0.47212 1.0809 1.0538 1.2765 0.56298 0.18831 1.6048-0.26675 0.97673-0.42662 1.5614-1.1472 0.57002-0.68318 0.78303-1.7222 0.11181-0.56059 0.0244-1.3288-0.0874-0.7682 0.0949-0.84784 0.0651-0.02844 0.18471-0.0031 0.10494 0.06272 0.12769 0.11481 0.0796 0.18232 0.17139 0.49891l0.86341 2.6158q0.0114 0.02605 0.0268 0.09685 0.0284 0.06511 0.0382 0.12289 0.238 0.68692-0.29594 0.92014-0.39069 0.17065-2.1218 0.78722-1.7312 0.61657-2.9944 1.1683-1.3023 0.56882-2.7056 1.3679-0.47047 0.23651-0.47047 0.23651-0.27348 0.11945-0.46224 0.07784-0.19445-0.05464-0.28546-0.263-0.15358-0.35162 0.41539-0.64666 0.32722-0.17394 0.42736-0.2642 0.4844-0.38216 0.52526-0.67914 0.0425-0.32872-0.38979-1.3185l-5.3298-12.203q-0.29578-0.67719-0.50235-0.8661-0.18218-0.16855-0.62406-0.11511-0.26285 0.03727-0.67225 0.20058-0.64052 0.20223-0.78842-0.13637-0.0739-0.1693-0.0226-0.30028 0.0587-0.14969 0.26705-0.2407 0.0391-0.01706 0.89199-0.26555 0.85293-0.24848 1.4911-0.5272 0.69022-0.30148 1.4912-0.77539 0.81401-0.4796 0.81401-0.4796 0.1693-0.07395 0.34504-0.02665 0.14968 0.05868 0.21794 0.21495 0.1479 0.3386-0.43574 0.67106-0.37931 0.19669-0.51119 0.28531-0.37123 0.28621-0.42182 0.52541-0.0466 0.28396 0.28336 1.0393zm-12.89 5.2676 10.622 9.7437q1.1202 1.0262 1.5624 1.2791 0.46357 0.28982 0.85842 0.29097 0.21489-0.02597 0.66145-0.21903 0.47116-0.20731 0.6279 0.0632 0.0926 0.15985 0.0195 0.31717t-0.3313 0.30694q-0.0615 0.03562-0.15468 0.0732-0.0932 0.03758-0.22845 0.11595-0.66467 0.27017-1.0776 0.49299-0.65364 0.3459-0.98563 0.53826-0.35659 0.20662-1.0341 0.68134-0.67754 0.47472-0.86198 0.58159-0.3074 0.17812-0.45369 0.18076-0.15341-0.0097-0.25316-0.1818-0.11399-0.19674 0.0186-0.4214 0.15203-0.21949 0.55067-0.4669l0.0738-0.04275q0.57917-0.41772 0.62572-0.5925 0.0588-0.18191-0.11216-0.47701-0.1425-0.24592-0.35555-0.50023-0.25385-0.29637-0.50379-0.5293l-2.8076-2.5778q-0.10813-0.10159-0.24408-0.13778-0.13594-0.0362-0.24661 0.02792l-3.8118 2.2087q-0.11066 0.06412-0.17662 0.23374-0.0537 0.16249 7e-3 0.32429l0.94116 3.495q0.083 0.31326 0.2119 0.64916 0.0862 0.26212 0.21443 0.48345 0.1995 0.34429 0.45197 0.41151 0.23304 0.06206 0.68673-0.11871 0.75787-0.30774 0.99931-0.31625 0.26798 9e-3 0.40335 0.24259 0.0855 0.14755 0.0176 0.28545t-0.30154 0.27327q-0.0738 0.04275-0.81934 0.34337-0.74558 0.30062-1.2251 0.57848-0.41806 0.24224-0.88462 0.62755t-0.68788 0.51356q-0.19674 0.114-0.33268 0.0778-0.16767-0.03424-0.25316-0.1818-0.15675-0.27051 0.36417-0.70374 0.52091-0.43323 0.6133-0.89738 0.053-0.27706-0.0242-0.80717-0.0733-0.46667-0.44024-1.9786l-3.4664-14.514q-0.0363-0.17605-0.0363-0.17605-0.14066-0.5262 0.093-0.66157 0.25822-0.14962 0.94266 0.52137 0.25189 0.26465 0.54263 0.53964zm5.0911 7.3973-4.6841-4.2005q-0.11526-0.11388-0.18065-0.14169-0.0654-0.02781-0.10227-0.0064-0.0492 0.0285-0.0576 0.09906-8e-3 0.07056 0.0117 0.1903l1.5318 6.1584q0.0221 0.15146 0.0221 0.15146 9e-3 0.04401 0.0305 0.0809 0.0356 0.06148 0.14502 0.08021 0.0777 0.02069 0.18835-0.04344l3.0986-1.7954q0.12296-0.07125 0.16111-0.17548 0.031-0.11652-0.0331-0.22719l-0.0641-0.11066q-0.0143-0.02459-0.0337-0.02976-0.0143-0.02459-0.0337-0.02976zm-16.438 9.0991 0.46482-0.35132q1.7459-1.3196 2.0447-2.739 0.29026-1.4307-0.83227-2.9159-1.114-1.4738-2.4767-1.8155-1.3428-0.3389-2.5332 0.56083-1.0203 0.7712-1.2062 1.2323-0.1831 0.44123 0.40816 1.2235l3.5133 4.6482q0.18851 0.24941 0.30795 0.26602 0.10533 0.04508 0.30939-0.10916zm2.5696-1.479q0.99093-0.26802 2.9963 0.92392 0.19932 0.09874 0.24494 0.13551l2.874 1.6577q0.0741 0.05088 0.24217 0.15542 0.17941 0.09597 0.29054 0.17229 1.7859 1.0194 2.1152 0.913 0.14488-0.02043 0.27262-0.06354 0.19299-0.07462 0.28092-0.12326 0.6528-0.24402 0.83275-0.0059 0.0857 0.11337 0.0718 0.2129-0.0365 0.11667-0.16122 0.21093-0.0113 0.0086-0.27788 0.17441-0.28923 0.18298-0.35725 0.23439-0.14738 0.1114-0.62907 0.5111-0.47035 0.39114-0.47035 0.39114-0.31744 0.23993-0.57898 0.22385-0.24441 0.0066-0.86532-0.34353l-5.5912-3.2022-0.1396-0.09043q-1.8486-1.0788-2.9823-0.22195l-0.28342 0.21422q-0.19273 0.14567-0.20077 0.27644-5e-3 0.11087 0.18324 0.36028l3.4876 4.6141q0.59126 0.78225 0.83343 0.93767 0.2535 0.14685 0.65109 0.0601 0.26128-0.05498 0.68958-0.28963 0.49052-0.31732 0.73902 0.01146 0.1114 0.14738 0.0552 0.33233-0.0788 0.20209-0.27156 0.34776 0 0-0.68905 0.43174-0.72306 0.45745-1.2332 0.84305-0.5215 0.39417-1.1589 0.96499-0.59202 0.53654-0.59202 0.53654-0.19273 0.14567-0.38599 0.14923-0.20182-0.0078-0.33893-0.18917-0.1371-0.18139-0.061-0.36358 0.0534-0.16505 0.37082-0.40498 0.46482-0.35132 0.50884-0.74087 0.0355-0.40089-0.37585-0.94506-0.0428-0.05668-0.10863-0.16729-0.0658-0.1106-0.22002-0.31467l-8.0291-10.623q-0.47986-0.63487-0.68775-0.74494-0.21646-0.12141-0.5571-0.0065-0.20433 0.08319-0.51623 0.2833-0.50766 0.29464-0.73045-1.2e-4 -0.11997-0.15872-0.0892-0.30663 0.0421-0.15648 0.25745-0.31929-0.0113 0.0086-0.0113 0.0086t0.74271-0.52574q0.85607-0.61143 1.2075-0.87706 0.0113-0.0086 0.85581-0.68248 0.8218-0.65677 1.0372-0.81958 2.3014-1.7395 4.0296-1.6919 1.7396 0.03899 3.1192 1.8642 1.1311 1.4965 1.0144 2.9919-0.10227 1.538-1.4102 2.9185zm-17.996 5.0081 12.651 6.908q1.3338 0.72719 1.8238 0.86654 0.51959 0.17003 0.90317 0.07633 0.20237-0.07681 0.58951-0.37145 0.40759-0.31438 0.6247-0.08942 0.1283 0.13293 0.0951 0.3032t-0.2479 0.37751q-0.0511 0.04934-0.13258 0.1082-0.0814 0.05886-0.19392 0.16741-0.58036 0.42186-0.92767 0.73731-0.55146 0.49273-0.82754 0.75918-0.29654 0.2862-0.84027 0.90971t-0.69711 0.77155q-0.25564 0.24672-0.39701 0.28441-0.15125 0.02747-0.28941-0.11569-0.1579-0.16361-0.0831-0.41354 0.0949-0.24957 0.42245-0.58547l0.0613-0.05921q0.46193-0.54457 0.46514-0.72542 0.0134-0.19072-0.22342-0.43613-0.19737-0.20451-0.46526-0.40022-0.31758-0.22674-0.61614-0.39285l-3.3444-1.8282q-0.12937-0.07265-0.27003-0.07515t-0.23269 0.08632l-3.1699 3.0593q-0.092 0.08882-0.11533 0.26931-0.0131 0.17062 0.0849 0.31307l1.7528 3.1668q0.15576 0.28417 0.36158 0.57928 0.14661 0.23376 0.32424 0.41782 0.27633 0.28631 0.53756 0.29095 0.24113 0.0043 0.63814-0.28013 0.6618-0.48072 0.89413-0.54695 0.26229-0.05565 0.4498 0.13864 0.11843 0.1227 0.0856 0.27288-0.0328 0.15017-0.2271 0.33768-0.0614 0.05921-0.71293 0.53006-0.65157 0.47085-1.0504 0.85573-0.34767 0.33554-0.70805 0.82161-0.36039 0.48607-0.54445 0.66371-0.16361 0.1579-0.30427 0.1554-0.17098 7e-3 -0.2894-0.11569-0.21711-0.22496 0.18453-0.7706 0.40165-0.54564 0.37988-1.0184-0.0151-0.28168-0.21735-0.77773-0.18323-0.43541-0.90246-1.815l-6.8502-13.257q-0.0775-0.16218-0.0775-0.16218-0.26289-0.47703-0.0686-0.66454 0.21473-0.20724 1.0403 0.27977 0.30807 0.19642 0.65633 0.39356zm6.7184 5.9585-5.5556-2.9529q-0.13924-0.08287-0.20939-0.09417-0.0701-0.0113-0.10082 0.01831-0.0409 0.03947-0.0321 0.10998 9e-3 0.07051 0.0571 0.18192l2.9658 5.6104q0.0578 0.14173 0.0578 0.14173 0.0194 0.04054 0.049 0.07122 0.0493 0.05113 0.16004 0.04304 0.0804 0.0014 0.1724-0.08739l2.5768-2.4869q0.10226-0.09869 0.11427-0.20903 2e-3 -0.12057-0.0867-0.2126l-0.0888-0.09203q-0.0197-0.02045-0.0398-0.02081-0.0197-0.02045-0.0398-0.02081zm-18.136 8.0847 3.9868 3.2737 0.0439 0.03607q0.77978 0.64031 1.3539 0.52334 0.57414-0.11697 1.1784-0.85282 0.83872-1.0214 0.52825-2.4348-0.32144-1.4224-1.6613-2.5227-1.4607-1.1994-3.0314-1.2572-1.5617-0.06876-2.4455 1.0076-0.62227 0.75781-0.63906 1.2037-0.0168 0.44592 0.68611 1.0231zm5.9856 4.915 4.3382 3.5623q0.84568 0.69442 1.1226 0.7379 0.26984 0.07447 0.67022-0.1668 0.0761-0.04786 0.18822-0.13965 0.0271-0.03295 0.13019-0.11376 0.10313-0.08081 0.16822-0.13769 0.26547-0.2785 0.40548-0.29225 0.14-0.01375 0.31573 0.13054 0.14277 0.11724 0.13143 0.3102-0.0294 0.21492-0.18269 0.40163 0 0-0.56896 0.58093-0.59602 0.61388-1.0018 1.1081-0.41484 0.50521-0.90103 1.2093-0.45012 0.66013-0.45012 0.66013-0.15331 0.18671-0.34038 0.23537-0.19804 0.03964-0.37377-0.10465-0.14277-0.11724-0.15652-0.25725-0.0157-0.16001 0.0925-0.2918 0.54111-0.65897 0.50887-1.09-0.0432-0.44003-1.0207-1.2427l-10.291-8.4502q-0.61503-0.50503-0.8429-0.56343-0.23886-0.06741-0.54316 0.12402-0.17921 0.12867-0.43565 0.39618-0.42467 0.4052-0.71022 0.17072-0.15376-0.12626-0.14948-0.28823-0.0138-0.14001 0.16662-0.35966 0.18037-0.21966 0.43878-0.46717 0.26743-0.2585 0.33055-0.33538l0.26154-0.3185q0.24349-0.29654 1.2857-1.6105t1.0873-1.3689q1.4429-1.7572 3.3019-1.8489 1.848-0.10072 3.748 1.4595 1.6145 1.3257 2.0062 3.1552 0.39171 1.8295-0.63638 3.0815-0.46896 0.5711-1.4188 1.0784-0.94077 0.49628-0.97684 0.54021-0.0722 0.08786-0.0113 0.19296 0.0498 0.09608 0.31341 0.31252zm-18.977 12.206 14.093 3.0288q1.4855 0.31825 1.9949 0.31264 0.54649 0.0154 0.88764-0.18342 0.17221-0.13115 0.45968-0.52364 0.30147-0.41722 0.57355-0.26322 0.16078 0.091 0.17735 0.26368 0.0166 0.17267-0.13043 0.43239-0.035 0.0618-0.0964 0.1414t-0.13837 0.21562q-0.43658 0.56936-0.67995 0.97049-0.38874 0.6291-0.57774 0.96302-0.203 0.35865-0.54717 1.111t-0.44917 0.93782q-0.175 0.30918-0.29984 0.38549-0.13721 0.0693-0.31035-0.0287-0.19788-0.112-0.19718-0.37288 0.0201-0.26625 0.2387-0.68137l0.042-0.0742q0.28817-0.65337 0.23986-0.82768-0.0413-0.18667-0.33812-0.35468-0.24735-0.14-0.5598-0.25153-0.36892-0.12717-0.70237-0.2016l-3.726-0.80263q-0.14468-0.0329-0.28025 5e-3 -0.13557 0.0376-0.19857 0.14888l-2.17 3.8339q-0.063 0.11131-0.0341 0.29098 0.0359 0.16731 0.17034 0.27604l2.5804 2.5383q0.23008 0.22821 0.51126 0.45268 0.20698 0.18247 0.42959 0.30847 0.34629 0.19601 0.59807 0.12623 0.23241-0.0644 0.53225-0.44989 0.49794-0.64894 0.70188-0.77845 0.23568-0.12788 0.47066 5e-3 0.14841 0.084 0.15961 0.23731t-0.1218 0.38829q-0.042 0.0742-0.53294 0.71077-0.49095 0.63657-0.76395 1.1189-0.23801 0.42049-0.44544 0.98892t-0.33343 0.79104q-0.112 0.19788-0.24758 0.23545-0.16194 0.0553-0.31035-0.0287-0.27208-0.154-0.042-0.79127 0.23006-0.63727 0.0749-1.0844-0.0945-0.26578-0.42936-0.68393-0.29939-0.36541-1.381-1.4838l-10.335-10.765q-0.12041-0.13347-0.12041-0.13347-0.38759-0.38268-0.25459-0.61766 0.14701-0.25971 1.0769-0.0273 0.35118 0.1008 0.7411 0.19086zm8.1344 3.8041-6.1657-1.2527q-0.15704-0.0399-0.22751-0.0308-0.0705 9e-3 -0.0915 0.0462-0.028 0.0495 4.7e-4 0.11457 0.0285 0.0651 0.10641 0.1582l4.4376 4.5366q0.0957 0.11947 0.0957 0.11947 0.0301 0.0334 0.0672 0.0544 0.0618 0.035 0.16567-4e-3 0.0775-0.0215 0.14048-0.13277l1.764-3.1166q0.07-0.12367 0.0502-0.23287-0.0322-0.11621-0.1435-0.17921l-0.11131-0.063q-0.0247-0.014-0.0441-9e-3 -0.0247-0.014-0.0441-9e-3zm-14.86 5.195 0.0788 0.0326 3.6298 1.7466q0.27807 0.14571 0.30889 0.21996 0.0571 0.0851-3e-3 0.22957-0.11401 0.27579-0.81182 0.14108-0.64213-0.15782-1.1855-0.18255-0.83634-0.0228-1.3248 0.45187-0.50156 0.46926-1.0988 1.9139l-0.28776 0.69605q-0.0923 0.22326-0.0275 0.32693 0.0516 0.0982 0.34058 0.21769l13.172 5.4457 0.197 0.0814q0.86678 0.35834 1.1606 0.27991 0.28071-0.0839 0.64777-0.56258 0.13398-0.17528 0.2557-0.43251 0.31857-0.6218 0.71256-0.45892 0.17073 0.0706 0.20521 0.28475 0.0399 0.20103-0.0687 0.46369-0.0109 0.0263-0.42943 0.85276-0.42943 0.85276-0.66833 1.4306-0.23346 0.56472-0.52071 1.4455-0.28724 0.88079-0.30353 0.92019-0.11402 0.27579-0.28423 0.38995-0.18335 0.10873-0.39348 0.0219-0.35459-0.14659-0.13881-0.78013 0.12033-0.36545 0.13523-0.51307 0.10213-0.61901-0.056-0.8689-0.16581-0.26846-1.2164-0.70281l-13.172-5.4457q-0.28892-0.11944-0.4003-0.0732-0.11907 0.0277-0.20594 0.23779l-0.41264 0.9981q-0.28775 0.69605-0.19465 1.5496t0.58371 1.5638q0.25143 0.39612 0.7832 0.96965 0.51094 0.54954 0.42407 0.75966-0.0434 0.10507-0.19421 0.135-0.14534 0.0168-0.31607-0.0538-0.18386-0.076-0.42165-0.28196-0.0208-0.024-0.0471-0.0349-0.034-0.0294-0.0471-0.0348l-3.0879-2.2761t-0.0679-0.0588q-0.36912-0.26024-0.27139-0.49664 0.0489-0.11819 0.14167-0.15671 0.0743-0.0308 0.24498 0.0398l0.2758 0.11401q0.36772 0.15202 0.67051-0.24563 0.29964-0.35283 1.0055-2.0601l0.87956-2.1275q1.151-2.7842 1.5306-3.8882 0.33838-0.96729 0.23053-1.2272-0.0716-0.19876-0.33794-0.44726-0.27945-0.25393-0.20344-0.43779 0.0543-0.13133 0.2182-0.15584 0.1562-0.0431 0.36633 0.0438zm-9.6472 30.276 0.67664-2.5552q0.0764-0.28849 0.19156-0.3903 0.10506-0.11919 0.34387-0.18826l14.511-4.1692q0.22871-0.0865 0.26346-0.10665 0.10061-0.0469 0.11516-0.10181 0.0182-0.0687-0.0671-0.13536-0.1301-0.0639-0.28121-0.10387l-7.4595-1.9754q-2.7063-0.71666-3.4049-0.79875-0.72607-0.0894-1.0635 0.13-0.22952 0.14504-0.4207 0.75595-0.20491 0.60727-0.54835 0.51633-0.17859-0.0473-0.2412-0.25499-0.0763-0.21133 5e-5 -0.49981 0.0473-0.17859 0.22311-0.67596 0.17945-0.51112 0.27767-0.88203 0.11641-0.4396 0.22071-1 0.10794-0.57415 0.14068-0.69779 0.0764-0.28849 0.23723-0.45171 0.16729-0.13211 0.34588-0.0848 0.23354 0.0618 0.26302 0.17256 0.057 0.11799-0.0231 0.42021l-0.0837 0.31597q-0.17462 0.6594 0.39546 1.0603 0.55635 0.39725 3.0428 1.0557l13.257 3.5105q0.0824 0.0218 0.12646 0.0776 0.044 0.0558 0.0295 0.11071-7e-3 0.0275-0.0942 0.078-0.0942 0.078-0.18385 0.0836l-17.553 4.9956q-0.1491 0.0634-0.18749 0.0974-0.0558 0.044-0.0776 0.12646-0.0145 0.0549 0.0881 0.11153 0.1301 0.0639 0.36364 0.12569l9.9872 2.6447q2.7887 0.73849 3.4651 0.68239 0.70023-0.0351 0.8603-0.63953 0.0218-0.0824 0.0408-0.2097 0.019-0.12728 0.0736-0.33334 0.0473-0.17859 0.1964-0.24201 0.13536-0.0671 0.34142-0.0125 0.19233 0.0509 0.2513 0.27236 0.0489 0.20405-0.0312 0.50627-0.0582 0.2198-0.23766 0.73091-0.17581 0.49738-0.25585 0.7996-0.10186 0.38465-0.2098 0.95881-0.1043 0.56041-0.15523 0.75273-0.08 0.30223-0.23722 0.45171-0.15356 0.13575-0.38709 0.0739-0.17859-0.0473-0.24929-0.16892-0.0808-0.139-0.0299-0.33133l0.0582-0.2198q0.0247-0.0376 0.0465-0.12 0.0247-0.0376 0.0574-0.16121 0.15643-0.59071-0.42739-0.99523-0.5911-0.37704-3.3523-1.1082l-10.66-2.823q-0.71435-0.18916-0.99073-0.14474-0.27638 0.0444-0.46349 0.36239-0.16164 0.22181-0.28088 0.61656-0.17662 0.55596-0.54753 0.45774-0.19233-0.0509-0.26303-0.17256-0.0707-0.12163-0.0234-0.30022zm-0.57145 10.942 14.191-2.527q1.4955-0.2673 1.9649-0.46518 0.51171-0.19247 0.75231-0.50555 0.1098-0.18654 0.22745-0.65861 0.12125-0.50026 0.43137-0.46062 0.18325 0.0234 0.26391 0.177 0.0806 0.15358 0.0428 0.4496-9e-3 0.0705-0.0357 0.16736-0.0267 0.0969-0.0465 0.25193-0.18877 0.6922-0.26233 1.1556-0.12189 0.7294-0.17054 1.11-0.0522 0.4088-0.0863 1.2354-0.034 0.8266-0.0611 1.038-0.045 0.35241-0.13174 0.47027-0.1008 0.11606-0.29814 0.0908-0.22555-0.0288-0.32358-0.27059-0.0821-0.25405-0.0368-0.72103l0.0108-0.0846q0.0196-0.71382-0.091-0.85691-0.10885-0.15718-0.44716-0.20042-0.28192-0.036-0.61335-0.0211-0.38961 0.0218-0.72643 0.0791l-3.7528 0.66644q-0.14637 0.0243-0.25766 0.11033-0.11128 0.0861-0.1275 0.21293l-0.55857 4.3699q-0.0162 0.12686 0.0785 0.28224 0.0966 0.14128 0.26211 0.1911l3.3488 1.3736q0.2993 0.12422 0.64451 0.22565 0.26062 0.0906 0.51435 0.12305 0.3947 0.0505 0.60138-0.10938 0.19077-0.14753 0.32252-0.6178 0.21547-0.78907 0.35527-0.9861 0.16979-0.20752 0.43762-0.17329 0.16916 0.0216 0.23752 0.1593 0.0684 0.13768 0.0341 0.40551-0.0108 0.0846-0.22449 0.85956-0.21367 0.77498-0.28394 1.3247-0.0613 0.47928-0.0383 1.0839 0.023 0.60465-9e-3 0.85839-0.0288 0.22554-0.14012 0.3116-0.12899 0.11245-0.29814 0.0908-0.31012-0.0396-0.33821-0.71658-0.0281-0.67694-0.34085-1.0321-0.18802-0.21028-0.65617-0.47069-0.41536-0.22501-1.8396-0.85119l-13.639-6.0556q-0.16195-0.078-0.16195-0.078-0.50354-0.20763-0.46931-0.47546 0.0378-0.29603 0.98654-0.43264 0.36321-0.0395 0.75823-0.10366zm8.969 0.44444-6.1814 1.1726q-0.16046 0.0225-0.22226 0.0575-0.0618 0.0351-0.0672 0.0774-7e-3 0.0564 0.0438 0.10588 0.051 0.0495 0.15835 0.1062l5.8239 2.5209q0.13376 0.0744 0.13376 0.0744 0.0405 0.0195 0.0828 0.0249 0.0705 9e-3 0.15178-0.0666 0.0636-0.0492 0.0798-0.17604l0.45406-3.5523q0.018-0.14096-0.0417-0.23455-0.0738-0.0954-0.20064-0.1116l-0.12686-0.0162q-0.0282-4e-3 -0.0441 9e-3 -0.0282-4e-3 -0.0441 9e-3zm-9.03 16.571 13.314 0.20327q1.1794 0.018 1.5984-0.4304 0.40459-0.43442 0.42194-1.5712 0.0163-1.0657-0.39742-1.8964-0.38572-0.8018-1.2432-1.426-0.46392-0.33398-1.1993-0.57261-0.73541-0.23863-0.73238-0.43756 1e-3 -0.071 0.0736-0.16943 0.10056-0.0695 0.15739-0.0687 0.19893 3e-3 0.5251 0.0507l2.7385 0.29763q0.0284 4.4e-4 0.0992 0.0157 0.0711 1e-3 0.12767 0.0162 0.72381 0.0679 0.71491 0.65049-7e-3 0.42628-0.16238 2.2573-0.15587 1.831-0.17691 3.2094-0.0217 1.4209 0.12431 3.0292 0.0204 0.52618 0.0204 0.52618-5e-3 0.29839-0.12062 0.45296-0.13027 0.15435-0.35762 0.15088-0.38365-6e-3 -0.41652-0.64593-0.0228-0.36988-0.0634-0.49841-0.14719-0.59918-0.40058-0.75939-0.28158-0.17485-1.3615-0.19134l-13.314-0.20327q-0.73889-0.0113-0.9964 0.0985-0.22886 0.096-0.36326 0.52032-0.075 0.25469-0.0959 0.69496-0.0813 0.66676-0.45069 0.66112-0.18472-3e-3 -0.28267-0.10381-0.11194-0.11541-0.10847-0.34276 6.6e-4 -0.0426 0.12778-0.92187 0.12713-0.87925 0.13776-1.5755 0.0115-0.75309-0.0881-1.6784-0.0994-0.93955-0.0994-0.93955 3e-3 -0.18472 0.11867-0.32508 0.11541-0.11194 0.28592-0.10934 0.36944 6e-3 0.43029 0.67457 0.0219 0.42671 0.0479 0.58345 0.10673 0.45644 0.30349 0.60157 0.23917 0.15999 1.0633 0.17257zm-2.777 8.2648 0.0849-8e-3 4.0248-0.16453q0.31392-2e-3 0.37602 0.0489 0.0904 0.0483 0.10558 0.20387 0.029 0.29702-0.65023 0.50613-0.64095 0.16253-1.1322 0.39612-0.7489 0.37297-0.95687 1.0215-0.22211 0.64994-0.0702 2.2058l0.0732 0.74962q0.0235 0.24044 0.12939 0.30149 0.0918 0.0624 0.40293 0.032l14.186-1.3852 0.21216-0.0207q0.93349-0.0911 1.156-0.29849 0.20834-0.20597 0.3073-0.80105 0.0359-0.21768 0.0224-0.50194-0.0111-0.69857 0.41321-0.74 0.18387-0.0179 0.31498 0.15487 0.12972 0.15867 0.15734 0.44155 3e-3 0.0283 0.0218 0.95454 0.0218 0.95453 0.0826 1.5769 0.0594 0.60818 0.21987 1.5206 0.16049 0.91244 0.16463 0.95487 0.029 0.29702-0.0676 0.47779-0.11072 0.18216-0.33702 0.20425-0.38188 0.0373-0.48922-0.62332-0.0656-0.37912-0.12181-0.51642-0.20083-0.59437-0.45784-0.74062-0.27254-0.15901-1.404-0.0485l-14.186 1.3852q-0.31116 0.0304-0.38774 0.12353-0.0921 0.0804-0.07 0.30669l0.10495 1.0749q0.0732 0.74962 0.55656 1.4592t1.2503 1.1059q0.40812 0.23145 1.1471 0.4877 0.70928 0.24488 0.73138 0.47118 0.011 0.11315-0.10796 0.21044-0.12039 0.0831-0.30426 0.1011-0.19801 0.0193-0.50469-0.0507-0.0297-0.0114-0.058-9e-3 -0.0438-0.01-0.058-9e-3l-3.7954-0.55752t-0.0876-0.02q-0.44813-0.0562-0.47298-0.31078-0.0124-0.12729 0.0514-0.20492 0.0511-0.0621 0.23492-0.08l0.29702-0.029q0.39602-0.0387 0.47636-0.53199 0.0986-0.45226-0.0809-2.291l-0.22373-2.2913q-0.29278-2.9985-0.47674-4.1514-0.15601-1.0128-0.37335-1.1915-0.15663-0.14178-0.50851-0.23593-0.36603-0.0928-0.38536-0.29078-0.0138-0.14143 0.11934-0.24011 0.11763-0.11143 0.34393-0.13353zm4.8003 22.34 12.49-7.1947q1.3159-0.75913 1.6903-1.1046 0.41598-0.35476 0.53599-0.73093 0.04-0.21274-0.01-0.69671-0.0558-0.51172 0.24937-0.57971 0.18032-0.0402 0.30833 0.0769 0.128 0.11707 0.1929 0.40836 0.0155 0.0694 0.0232 0.16954 8e-3 0.10019 0.0418 0.25277 0.0575 0.71518 0.14557 1.176 0.13298 0.72746 0.21643 1.102 0.0896 0.40226 0.33824 1.1913 0.24862 0.78906 0.29498 0.99712 0.0773 0.34677 0.0357 0.48706-0.0554 0.14339-0.2496 0.18666-0.22193 0.0495-0.39622-0.14467-0.16351-0.21108-0.27938-0.66572l-0.0185-0.0832q-0.22389-0.67809-0.37654-0.77511-0.15575-0.11089-0.48865-0.0367-0.27742 0.0618-0.58408 0.18838-0.35906 0.15281-0.65646 0.32099l-3.3037 1.9009q-0.12944 0.0725-0.2049 0.19125-0.0755 0.11873-0.0476 0.24357l0.95813 4.3q0.0278 0.12484 0.16969 0.23882 0.13879 0.10011 0.31142 0.0908l3.6162 0.15516q0.3237 0.0152 0.68283-7e-3 0.27591-3e-3 0.52559-0.0589 0.38838-0.0865 0.52852-0.30704 0.12936-0.20354 0.0936-0.69061-0.0652-0.81536-6e-4 -1.0482 0.0893-0.25284 0.35281-0.31156 0.16645-0.0371 0.27749 0.0692 0.11104 0.10629 0.16976 0.36984 0.0186 0.0832 0.0807 0.88472 0.0621 0.80149 0.18266 1.3425 0.10508 0.4716 0.33199 1.0325 0.2269 0.56094 0.28254 0.81062 0.0494 0.22193-0.026 0.34066-0.0832 0.14957-0.2496 0.18666-0.30516 0.068-0.56139-0.55921-0.25623-0.6272-0.671-0.85509-0.24824-0.13396-0.77699-0.21998-0.46709-0.0706-2.0193-0.17611l-14.884-1.0658q-0.17882-0.0184-0.17882-0.0184-0.54413-0.0244-0.60285-0.2879-0.0649-0.29129 0.78107-0.74186 0.32822-0.1605 0.67801-0.35491zm8.5872-2.6268-5.4162 3.2015q-0.1433 0.0756-0.18952 0.12958-0.0462 0.054-0.0369 0.0956 0.0124 0.0555 0.0771 0.0847 0.0648 0.0293 0.185 0.0461l6.3338 0.39406q0.15107 0.0246 0.15107 0.0246 0.0447 5e-3 0.0863-5e-3 0.0694-0.0155 0.12016-0.11413 0.0431-0.0678 0.0153-0.19268l-0.77887-3.4955q-0.0309-0.13871-0.1188-0.20648-0.10177-0.0647-0.22661-0.0369l-0.12484 0.0278q-0.0277 6e-3 -0.0385 0.0231-0.0277 6e-3 -0.0385 0.0231zm-6.568 22.726q-0.0486-0.11833 6e-3 -0.24812 0.0543-0.1298 0.18574-0.18375 0.26294-0.1079 1.0906 0.6738 0.8115 0.74226 1.6372 1.2944 2.6408 1.6813 5.8593 1.8506 3.2502 0.17163 6.5895-1.1987 2.8529-1.1707 4.3624-2.9576 1.5172-1.8054 0.93993-3.2121-0.51253-1.249-2.1085-1.4696-1.5959-0.22067-3.7652 0.66951-2.3007 0.94414-3.4293 2.2368-1.1286 1.2926-0.67536 2.397 0.3183 0.77567 1.0893 1.1198t0.78721 0.38357q0.0378 0.092-1e-3 0.18474-0.031 0.0742-0.16248 0.12812-0.51273 0.21041-1.4621-0.30631-0.94937-0.51671-1.3054-1.3844-0.6474-1.5777 0.50875-3.3271 1.1376-1.7572 3.4647-2.7121 2.498-1.0251 4.7884-0.45958 2.2719 0.55773 3.011 2.3589 0.81466 1.9852-0.79824 4.3061-1.6129 2.3209-4.7682 3.6157-2.7477 1.1276-5.6625 0.98725-2.8776-0.12481-5.8774-1.5206-1.5744-0.76714-2.8316-1.772-1.2997-1.0335-1.4723-1.4542zm18.062 18.518q-2.3846 1.2966-4.7068 0.89315-2.3415-0.40914-3.3734-2.3068-0.47519-0.87393-0.39668-1.9195 0.0592-1.0513 0.68575-2.2493 1.2519-2.4277 4.0985-3.9755 2.5844-1.4052 5.5617-1.5521 2.9649-0.1401 6.3556 1.0088 0.86839 0.2881 1.5077 0.57135 0.65178 0.27647 1.4814 0.73124 1.3622 0.77984 1.593 1.2043 0.0611 0.11237 9e-3 0.25407-0.0467 0.12243-0.19648 0.20389-0.19976 0.10861-1.3874-0.58821-1.1616-0.67863-2.5436-1.108-3.103-0.91711-6.1599-0.67846-3.0626 0.25793-5.6344 1.6564-2.4221 1.317-3.6098 3.2083-1.182 1.8721-0.4828 3.158 0.60417 1.1112 2.2486 1.2199t3.5171-0.90947q2.035-1.1065 2.8637-2.5276 0.82869-1.4212 0.17021-2.6322-0.38015-0.69915-1.1498-1.0733-0.12922-0.0591-0.14279-0.0841-0.0475-0.0874 2.3e-4 -0.17806 0.0534-0.10995 0.14085-0.15746 0.38703-0.21045 1.2042 0.25111 0.83069 0.48652 1.2108 1.1857 0.90286 1.6605 0.11794 3.4299-0.7974 1.7762-2.9822 2.9642zm8.0014 11.92q-2.2304 1.5469-4.5826 1.397-2.372-0.1535-3.603-1.9285-0.56692-0.81742-0.60195-1.8654-0.0548-1.0515 0.43846-2.3102 0.98203-2.5489 3.6445-4.3954 2.4172-1.6765 5.3612-2.1445 2.9324-0.45994 6.4275 0.31548 0.89445 0.19249 1.5606 0.40494 0.67785 0.20435 1.5518 0.56673 1.4386 0.62794 1.7139 1.025 0.0729 0.10509 0.0362 0.25162-0.0332 0.12676-0.17328 0.22395-0.18684 0.12958-1.4429-0.4347-1.2282-0.54903-2.6485-0.82646-3.184-0.57615-6.1971-8e-3 -3.0167 0.58764-5.4223 2.256-2.2654 1.5712-3.2416 3.5799-0.97261 1.9889-0.13843 3.1917 0.7208 1.0393 2.3673 0.9696 1.6465-0.0697 3.3981-1.2845 1.9034-1.3201 2.5735-2.8225 0.67014-1.5024-0.11545-2.6351-0.45354-0.65393-1.2591-0.94266-0.13485-0.0448-0.15105-0.0682-0.0567-0.0817-0.019-0.17704 0.0412-0.11508 0.12299-0.17177 0.362-0.25106 1.2242 0.11941 0.87844 0.39383 1.332 1.0478 1.0771 1.5531 0.48819 3.397-0.60064 1.852-2.6442 3.2693zm1.2113 9.1062 11.022-9.545q0.71976-0.6233 0.87238-0.92465 0.13256-0.3028 0.0275-0.66296-0.11153-0.41099-0.68832-1.077-0.55675-0.6646-0.22372-0.953 0.17188-0.14885 0.34011-0.10654 0.15749 0.0516 0.35285 0.2772 0 0 0.19249 0.26569 0.80715 1.1057 1.5514 1.9651 0.71634 0.82719 1.553 1.663 0.82731 0.82509 0.86452 0.86806 0.17676 0.20411 0.19315 0.3967 0.0164 0.1926-0.14475 0.33214-0.17188 0.14885-0.36016 0.10511-0.16679-0.0623-0.48309-0.4276l-0.16746-0.19337q-0.26979-0.31154-0.36426-0.39892-0.0573-0.0444-0.0945-0.0874-0.048-0.0337-0.0852-0.0766-0.0573-0.0444-0.0945-0.0874-0.44876-0.34454-0.83539-0.29171-0.39737 0.0621-1.1279 0.69474l-9.9907 8.6519-0.376 0.32561q-0.20411 0.17676-0.24209 0.28485-0.038 0.10809 0.055 0.21552 0.3163 0.36525 1.4344 0.78809 1.1367 0.44432 1.2391 0.56249 0.093 0.10743 0.0815 0.26779-0.0223 0.16967-0.17266 0.29991-0.26856 0.23258-1.2886-0.29403-0.72652-0.40478-0.99996-0.52517-0.92554-0.43923-1.932-0.73315-1.0051-0.31397-1.0795-0.39991-0.093-0.10743-0.0736-0.23701 9e-3 -0.12027 0.12681-0.22261l0.13965-0.12094q0.39172-0.26403 0.77846-0.59894z" stroke="#000" stroke-width=".26458"/>
   <g fill-rule="evenodd">
    <path d="m-270.18 257.08 23.678-72.883-61.996-45.046 76.633-3e-3 23.684-72.881 23.684 72.881 76.633 3e-3z" fill="#3b3e75"/>
    <path d="m-135.89 262.44c16.086-15.539 27.926-35.432 33.915-56.981 5.9883-21.549 6.109-44.699 0.34597-66.309l25.005-0.0176c2.6292 10.658 3.9588 21.635 3.9502 32.612-0.0279 35.47-14.632 70.714-39.71 95.798s-60.324 39.698-95.794 39.706c-31.605 7e-3 -63.089-11.48-87.264-31.838 23.756 16.458 53.291 24.39 82.096 22.048 28.805-2.3417 56.671-14.94 77.457-35.019z" fill="#3b3e75"/>
    <path d="m-93.136 128.04c-0.13414-22.402 37.325-26.742 49.231-56.791 0.4415 40.066-39.121 40.065-49.231 56.791zm43.089-20.978c-12.475 15.612-16.347 27.309-40.443 27.309-24.096 0-25.513-19.371-10.016-30.333 15.497-10.961 33.734-14.552 43.184-31.183 0.30248 25.071-42.617 34.778-42.617 52.35 0 8.9054 11.21 10.588 22.112-0.75595 10.859-11.3 19.914-17.186 27.781-17.387z" fill="#dd4133"/>
   </g>
  </g>
 </g>
</svg>
