<?xml version="1.0" encoding="UTF-8" standalone="no"?>
<!-- Generator: Adobe Illustrator 13.0.0, SVG Export Plug-In . SVG Version: 6.00 Build 14948)  -->

<svg
   xmlns:dc="http://purl.org/dc/elements/1.1/"
   xmlns:cc="http://creativecommons.org/ns#"
   xmlns:rdf="http://www.w3.org/1999/02/22-rdf-syntax-ns#"
   xmlns:svg="http://www.w3.org/2000/svg"
   xmlns="http://www.w3.org/2000/svg"
   xmlns:sodipodi="http://sodipodi.sourceforge.net/DTD/sodipodi-0.dtd"
   xmlns:inkscape="http://www.inkscape.org/namespaces/inkscape"
   version="1.1"
   id="Layer_1"
   x="0px"
   y="0px"
   width="199.77477"
   height="254"
   viewBox="0 0 199.77477 254"
   xml:space="preserve"
   sodipodi:docname="2010 Vancouver.svg"
   inkscape:version="0.92.2 (5c3e80d, 2017-08-06)"><metadata
     id="metadata119"><rdf:RDF><cc:Work
         rdf:about=""><dc:format>image/svg+xml</dc:format><dc:type
           rdf:resource="http://purl.org/dc/dcmitype/StillImage" /><dc:title></dc:title></cc:Work></rdf:RDF></metadata><defs
     id="defs117" /><sodipodi:namedview
     pagecolor="#ffffff"
     bordercolor="#666666"
     borderopacity="1"
     objecttolerance="10"
     gridtolerance="10"
     guidetolerance="10"
     inkscape:pageopacity="0"
     inkscape:pageshadow="2"
     inkscape:window-width="1366"
     inkscape:window-height="705"
     id="namedview115"
     showgrid="false"
     fit-margin-top="2"
     fit-margin-right="2"
     fit-margin-bottom="2"
     fit-margin-left="2"
     inkscape:zoom="1.0543273"
     inkscape:cx="125.75"
     inkscape:cy="160.79572"
     inkscape:window-x="-8"
     inkscape:window-y="-8"
     inkscape:window-maximized="1"
     inkscape:current-layer="Layer_1" /><g
     id="g177"
     transform="matrix(0.78917574,0,0,0.78917574,-18.715863,-17.342301)"><path
       id="path2"
       d="m 220.641,163.987 c 0.329,-9.886 0.297,-24.773 -0.034,-37.389 -0.132,-1.761 -1.789,-3.163 -1.789,-3.163 -13.347,-13.029 -33.437,-27.583 -46.064,-26.137 -11.503,1.315 -25.729,17.95 -36.194,17.581 -12.91,-0.451 -18.247,-11.828 -27.697,-12.123 -5.083,-0.153 -15.372,4.974 -21.973,9.583 0,0 -1.625,0.915 -1.608,2.952 -0.245,11.199 -0.189,25.464 0.222,35.7 0,0 0.034,2.342 2.165,1.296 9.638,-4.718 29.002,-13.72 46.179,-14.387 28.502,-1.101 65.88,15.266 84.464,26.927 -0.001,0 2.084,1.693 2.329,-0.84"
       style="fill:#0061aa"
       inkscape:connector-curvature="0" /><path
       id="path4"
       d="m 86.53,165.984 c 0.681,6.698 1.622,12.162 2.859,15.666 0,0 0.91,2.973 3.316,5.403 12.646,11.732 99.428,13.734 120.209,3.867 2.064,-1.076 -0.545,-3.061 -0.545,-3.061 -16.562,-13.52 -49.912,-40.202 -82.486,-38.817 -11.708,0.501 -30.828,9.091 -42.352,14.817 10e-4,0.001 -1.282,0.779 -1.001,2.125"
       style="fill:#54b948"
       inkscape:connector-curvature="0" /><path
       id="path6"
       d="m 88.198,102.642 c 0.91,-0.495 1.753,-0.918 2.477,-1.288 12.473,-6.371 18.317,-11.656 28.56,-5.138 11.937,7.594 13.758,11.052 32.349,-3.43 17.164,-13.372 28.012,-26.885 64.695,2.793 0,0 2.931,2.871 2.955,-0.35 -1.646,-27.036 -4.386,-52.502 -7.588,-63.179 0,0 -0.27,-1.273 -1.13,-2.826 -0.478,-0.985 -0.897,-1.394 -1.542,-2.148 -10.057,-9.933 -106.891,11.202 -115.762,25.256 -1.5,2.473 -2.178,4.74 -2.178,4.74 -2.476,7.719 -4.328,24.755 -5.246,43.814 -10e-4,0 -0.057,3.088 2.41,1.756 M 126.23,57.191 c 7.764,-9.639 18.059,-3.213 21.608,3.196 3.545,6.403 -0.262,17.222 -10.351,18.128 C 127.41,79.414 118.353,66.972 126.23,57.191"
       style="fill:#00a4e3"
       inkscape:connector-curvature="0" /><polyline
       id="polyline8"
       points="195.704,202.324 198.333,202.324 198.333,202.691 197.236,202.691 197.236,206.029 196.786,206.029   196.786,202.691 195.704,202.691 " /><polyline
       id="polyline10"
       points="202.645,202.324 202.717,206.029 202.274,206.029 202.229,203.271 201.145,206.069 200.866,206.069   199.824,203.364 199.737,206.029 199.346,206.029 199.465,202.324 199.893,202.324 201.054,205.341 202.216,202.324 " /><polyline
       id="polyline12"
       points="205.783,202.028 206.031,202.186 204.029,206.353 203.766,206.197 " /><polyline
       id="polyline14"
       points="210.363,202.324 210.439,206.029 209.987,206.029 209.946,203.271 208.858,206.069 208.581,206.069   207.538,203.364 207.451,206.029 207.06,206.029 207.185,202.324 207.613,202.324 208.769,205.341 209.931,202.324 " /><path
       id="path16"
       d="m 214.391,205.874 c -0.228,0.161 -0.552,0.346 -1.184,0.346 -1.055,0 -1.69,-0.989 -1.69,-1.981 0,-0.979 0.636,-1.979 1.69,-1.979 0.671,0 0.968,0.194 1.115,0.289 l -0.138,0.362 c -0.108,-0.05 -0.419,-0.251 -0.957,-0.251 -0.677,0 -1.229,0.689 -1.229,1.579 0,0.892 0.581,1.581 1.28,1.581 0.563,0 0.803,-0.167 0.95,-0.269"
       inkscape:connector-curvature="0" /><polyline
       id="polyline18"
       points="30.3,220.396 34.556,231.933 38.851,220.396 42.467,220.396 35.263,237.987 32.937,237.987 26.25,220.396 " /><path
       id="path20"
       d="m 54.25,233.702 c -0.786,0.551 -2.047,1.497 -3.585,1.497 -1.491,0 -2.905,-0.585 -2.905,-2.33 0,-1.887 1.767,-2.717 4.051,-2.904 l 2.439,-0.201 m 0.04,6.421 c -0.04,0.396 0.12,1.057 0.354,1.534 h 4.408 c -0.272,-0.511 -0.592,-1.808 -0.632,-2.714 v -9.882 c 0,-3.036 -2.119,-5.123 -6.097,-5.123 -3.583,0 -6.026,1.179 -7.086,1.69 l 0.985,2.243 c 0.826,-0.345 2.478,-1.136 4.843,-1.136 2.675,0 3.185,1.536 3.185,3.072 v 1.451 l -3.658,0.161 c -4.37,0.246 -6.734,2.827 -6.734,5.826 0,2.876 2.049,4.806 5.354,4.806 2.479,0.001 4.171,-1.261 5.078,-1.928"
       inkscape:connector-curvature="0" /><path
       id="path22"
       d="m 74.463,237.719 v -11.455 c 0,-1.734 -0.707,-2.999 -2.762,-2.999 -1.962,0 -3.62,1.181 -4.398,1.692 v 12.762 H 63.08 v -17.323 h 4.022 l 0.115,1.813 C 68,221.574 69.892,220 73.397,220 c 3.382,0 5.28,2.132 5.28,5.313 v 12.406"
       inkscape:connector-curvature="0" /><path
       id="path24"
       d="m 91.712,220 c 3.385,0 4.957,0.662 5.903,1.062 l -0.913,2.639 c -0.898,-0.356 -2.005,-0.824 -4.448,-0.824 -2.278,0 -5.235,2.046 -5.235,6.177 0,3.904 2.957,6.18 5.235,6.18 2.443,0 3.589,-0.466 4.528,-0.779 l 0.985,2.555 c -0.904,0.467 -2.55,1.106 -6.095,1.106 -5.594,0 -9.177,-3.711 -9.177,-9.062 10e-4,-5.465 4.449,-9.054 9.217,-9.054"
       inkscape:connector-curvature="0" /><path
       id="path26"
       d="m 109.351,222.798 c 2.711,0 4.843,2.683 4.843,6.255 0,3.587 -2.132,6.264 -4.843,6.264 -2.958,0 -4.882,-2.677 -4.882,-6.264 0,-3.618 1.692,-6.255 4.882,-6.255 m 0,-2.798 c -5.283,0 -9.414,3.511 -9.414,9.053 0,5.562 4.13,9.062 9.414,9.062 5.311,0 9.449,-3.5 9.449,-9.062 0,-5.542 -4.138,-9.053 -9.449,-9.053"
       inkscape:connector-curvature="0" /><path
       id="path28"
       d="m 126.874,220.396 v 11.461 c 0,1.724 0.591,2.981 2.592,2.981 1.938,0 3.477,-1.136 4.217,-1.682 v -12.761 h 4.22 v 17.323 h -4.022 l -0.12,-1.808 c -0.785,0.629 -2.835,2.203 -6.106,2.203 -3.344,0 -5.035,-2.087 -5.035,-5.318 v -12.4"
       inkscape:connector-curvature="0" /><polyline
       id="polyline30"
       points="144.985,220.396 149.235,231.933 153.524,220.396 157.154,220.396 149.936,237.987 147.616,237.987   140.924,220.396 " /><path
       id="path32"
       d="m 169.773,226.898 h -7.285 c 0.277,-2.242 1.41,-4.068 3.696,-4.068 2.089,0 3.388,1.465 3.589,4.068 m -7.366,2.593 h 11.854 c 0,-6.661 -3.702,-9.491 -7.953,-9.491 -4.683,0 -8.385,3.934 -8.385,9.218 0,5.549 3.384,8.896 8.697,8.896 4.304,0 5.947,-0.984 6.969,-1.463 l -0.946,-2.324 c -0.787,0.36 -2.044,0.905 -4.769,0.905 -3.65,0 -5.467,-2.202 -5.467,-5.741"
       inkscape:connector-curvature="0" /><path
       id="path34"
       d="m 178.046,237.719 v -17.323 h 3.935 l 0.16,2.869 c 0.627,-0.822 2.433,-3.265 4.724,-3.265 1.499,0 2.431,0.662 2.991,1.062 l -1.62,2.995 c -0.473,-0.356 -1.1,-0.636 -2.197,-0.636 -1.738,0 -3.158,1.82 -3.789,2.449 v 11.849"
       inkscape:connector-curvature="0" /><path
       id="path36"
       d="m 209.395,233.374 0.345,-0.251 c 1.906,-1.389 5.843,-4.316 5.843,-7.743 0,-3.337 -2.93,-5.769 -6.979,-5.769 -3.143,0 -5.519,1.118 -6.533,1.585 l -0.251,0.124 1.093,2.308 0.251,-0.106 c 0.685,-0.322 2.279,-1.063 4.963,-1.063 2.438,0 3.544,1.636 3.544,3.26 0,2.699 -3.789,5.559 -5.407,6.771 l -0.263,0.201 c -0.011,0 -4.789,3.711 -4.789,3.711 l 0.974,1.662 h 13.746 l 0.811,-3.092 h -9.35 c 0.721,-0.579 2.002,-1.598 2.002,-1.598"
       inkscape:connector-curvature="0" /><path
       id="path38"
       d="m 229.842,219.611 c -5.55,0 -9.428,3.865 -9.428,9.401 0,5.548 3.878,9.431 9.428,9.431 5.539,0 9.398,-3.883 9.398,-9.431 0,-5.535 -3.859,-9.401 -9.398,-9.401 m 0,16.206 c -2.615,0 -5.437,-2.604 -5.437,-6.805 0,-4.056 2.19,-6.771 5.437,-6.771 2.637,0 5.371,2.531 5.371,6.771 0,3.805 -2.365,6.805 -5.371,6.805"
       inkscape:connector-curvature="0" /><path
       id="path40"
       d="m 241.412,222.135 0.252,1.748 c 0,0 4.465,-0.193 4.971,-0.217 v 14.398 h 3.694 v -18.415 l -0.341,0.088"
       inkscape:connector-curvature="0" /><path
       id="path42"
       d="m 264.931,219.611 c -5.556,0 -9.431,3.865 -9.431,9.401 0,5.548 3.875,9.431 9.431,9.431 5.54,0 9.394,-3.883 9.394,-9.431 -10e-4,-5.535 -3.854,-9.401 -9.394,-9.401 m 0,16.206 c -2.61,0 -5.437,-2.604 -5.437,-6.805 0,-4.056 2.186,-6.771 5.437,-6.771 3.007,0 5.366,2.972 5.366,6.771 0,3.805 -2.359,6.805 -5.366,6.805"
       inkscape:connector-curvature="0" /><path
       id="path44"
       d="m 131.744,325.178 c -1.099,0.478 -18.293,1.701 -16.504,-12.952 1.783,-14.654 27.917,-24.936 32.788,-23.133 -6.518,3.327 -19.999,5.971 -25.064,20.885 -4.995,14.714 8.65,14.999 8.78,15.2"
       style="fill:#004a8d"
       inkscape:connector-curvature="0" /><path
       id="path46"
       d="m 158.346,332.911 c -0.331,1.156 -10.443,15.099 -20.516,4.322 -10.083,-10.788 -1.168,-37.419 3.355,-39.985 -1.652,7.122 -8.285,19.156 -0.113,32.619 8.06,13.279 17.051,3.02 17.274,3.044"
       style="fill:#004a8d"
       inkscape:connector-curvature="0" /><path
       id="path48"
       d="m 180.249,310.7 c 1.026,0.623 11.878,14.004 -1.152,20.947 -13.02,6.938 -36.438,-8.563 -37.748,-13.585 6.463,3.432 16.356,12.945 31.483,8.545 14.908,-4.356 7.318,-15.688 7.417,-15.907"
       style="fill:#004a8d"
       inkscape:connector-curvature="0" /><path
       id="path50"
       d="m 70.69,258.838 v -11.745 h 3.739 c 2.813,0 4.345,1.521 4.345,3.385 0,2.113 -2.005,3.487 -4.398,3.487 h -1.218 v 4.873 m 0.882,-6.541 c 1.054,0 2.147,-0.545 2.147,-1.819 0,-1.213 -1.093,-1.742 -2.147,-1.742 h -0.882 v 3.562 h 0.882 z"
       inkscape:connector-curvature="0" /><path
       id="path52"
       d="m 80.432,258.838 h -2.239 l 4.793,-11.771 h 1.708 l 4.332,11.771 H 86.45 l -0.946,-2.636 h -4.067 m 2.088,-5.515 -1.475,3.88 h 2.866 z"
       inkscape:connector-curvature="0" /><path
       id="path54"
       d="m 97.192,259.017 -3.154,-5.229 H 92.93 v 5.051 h -2.5 v -11.745 h 3.418 c 3.218,0 4.679,1.397 4.679,3.224 0,1.696 -1.461,2.625 -2.098,2.892 l 3.578,5.63 m -6.055,-6.744 c 1.43,0 2.13,-0.791 2.13,-1.657 0,-0.881 -0.656,-1.654 -2.13,-1.654 H 92.93 v 3.312 h 1.022 z"
       inkscape:connector-curvature="0" /><path
       id="path56"
       d="m 102.986,258.838 h -2.239 l 4.799,-11.771 h 1.702 l 4.331,11.771 h -2.57 l -0.951,-2.636 h -4.068 m 2.095,-5.515 -1.479,3.88 h 2.87 z"
       inkscape:connector-curvature="0" /><polyline
       id="polyline58"
       points="115.488,257.009 119.833,257.009 119.833,258.838 112.989,258.838 112.989,247.093 115.488,247.093 " /><polyline
       id="polyline60"
       points="128.771,247.093 124.989,253.152 124.989,258.838 122.486,258.838 122.486,253.152 118.772,247.093   121.501,247.093 124.002,251.389 126.555,247.093 " /><polyline
       id="polyline62"
       points="141.983,258.838 139.591,258.838 139.466,251.729 136.456,258.894 134.874,258.894 132.02,251.729   131.733,258.838 129.746,258.838 130.242,247.093 132.565,247.093 135.945,255.711 139.538,247.093 141.697,247.093 " /><path
       id="path64"
       d="m 144.42,258.838 v -11.745 h 3.739 c 2.812,0 4.346,1.521 4.346,3.385 0,2.113 -2.006,3.487 -4.405,3.487 h -1.212 v 4.873 m 0.876,-6.541 c 1.06,0 2.156,-0.545 2.156,-1.819 0,-1.213 -1.097,-1.742 -2.156,-1.742 h -0.876 v 3.562 h 0.876 z"
       inkscape:connector-curvature="0" /><line
       id="line66"
       y2="247.093"
       x2="155.30901"
       y1="258.83801"
       x1="155.30901"
       style="stroke:#231f20;stroke-width:2.4611001;stroke-miterlimit:10" /><path
       id="path68"
       d="m 168.953,258.21 c -0.833,0.439 -1.978,0.863 -4.192,0.863 -3.489,0 -6.201,-2.499 -6.201,-6.092 0,-3.59 2.712,-6.11 6.201,-6.11 2.446,0 3.571,0.562 4.083,0.862 l -0.707,1.692 c -0.382,-0.179 -1.305,-0.674 -3.115,-0.674 -1.886,0 -3.843,1.708 -3.843,4.229 0,2.424 1.957,4.199 3.843,4.199 1.724,0 2.575,-0.401 3.191,-0.646"
       inkscape:connector-curvature="0" /><path
       id="path70"
       d="m 181.114,259.073 c -3.578,0 -6.39,-2.394 -6.39,-6.092 0,-3.734 2.835,-6.11 6.39,-6.11 2.256,0 3.362,0.562 3.944,0.829 l -0.743,1.709 c -0.348,-0.162 -1.49,-0.657 -3.099,-0.657 -1.903,0 -3.872,1.586 -3.872,4.229 0,2.636 1.92,4.199 3.98,4.199 0.987,0 1.321,-0.061 1.762,-0.223 v -3.171 h 2.375 v 4.439 c -0.597,0.262 -2.114,0.848 -4.347,0.848"
       inkscape:connector-curvature="0" /><path
       id="path72"
       d="m 188.842,258.838 h -2.239 l 4.789,-11.771 h 1.709 l 4.331,11.771 h -2.576 l -0.945,-2.636 h -4.068 m 2.097,-5.515 -1.483,3.88 h 2.872 z"
       inkscape:connector-curvature="0" /><polyline
       id="polyline74"
       points="210.979,258.838 208.585,258.838 208.467,251.729 205.454,258.894 203.867,258.894 201.015,251.729   200.735,258.838 198.747,258.838 199.238,247.093 201.563,247.093 204.939,255.711 208.534,247.093 210.701,247.093 " /><polyline
       id="polyline76"
       points="220.641,258.838 213.065,258.838 213.065,247.093 220.425,247.093 220.425,248.931 215.565,248.931   215.565,251.891 219.126,251.891 219.126,253.721 215.565,253.721 215.565,257.009 220.641,257.009 " /><path
       id="path78"
       d="m 225.535,257.242 c 0.951,0 1.815,-0.463 1.815,-1.272 0,-0.947 -1.075,-1.482 -2.342,-2.266 -1.125,-0.708 -2.733,-1.569 -2.733,-3.668 0,-1.835 1.712,-3.165 3.687,-3.165 1.896,0 2.831,0.457 3.379,0.707 l -0.706,1.669 c -0.425,-0.218 -1.197,-0.546 -2.098,-0.546 -0.826,0 -1.745,0.269 -1.745,1.036 0,0.989 1.13,1.468 2.275,2.214 1.078,0.711 2.904,1.836 2.904,3.527 0,2.286 -2.146,3.595 -4.474,3.595 -1.968,0 -3.098,-0.563 -3.554,-0.83 l 0.707,-1.657 c 0.424,0.193 1.284,0.656 2.885,0.656"
       inkscape:connector-curvature="0" /><path
       id="path80"
       d="m 66.351,275.111 c 0,1.129 -0.07,2.498 -0.826,3.556 -0.76,1.056 -1.87,1.619 -2.359,1.902 l -1.129,-1.29 c 0.406,-0.362 0.792,-0.68 1.271,-1.492 0.331,-0.534 0.544,-1.425 0.544,-2.124 V 265.32 h 2.499"
       inkscape:connector-curvature="0" /><polyline
       id="polyline82"
       points="76.485,277.064 68.913,277.064 68.913,265.32 76.268,265.32 76.268,267.15 71.409,267.15 71.409,270.11   74.969,270.11 74.969,271.945 71.409,271.945 71.409,275.238 76.485,275.238 " /><path
       id="path84"
       d="m 87.923,273.015 c 0,2.414 -1.782,4.276 -4.968,4.276 -3.201,0 -4.966,-1.773 -4.966,-4.276 v -7.694 h 2.501 v 7.399 c 0,1.741 0.757,2.72 2.59,2.72 1.813,0 2.57,-1.402 2.57,-2.72 v -7.399 h 2.272"
       inkscape:connector-curvature="0" /><polyline
       id="polyline86"
       points="91.386,277.064 89.081,277.064 93.125,271.095 89.428,265.32 92.113,265.32 94.538,269.052 96.953,265.32   99.256,265.32 95.626,270.711 99.735,277.064 96.953,277.064 94.235,272.825 " /><path
       id="path88"
       d="M 105.613,277.064 V 265.32 h 3.732 c 2.813,0 4.345,1.513 4.345,3.382 0,2.116 -2.006,3.489 -4.397,3.489 h -1.219 v 4.873 m 0.882,-6.554 c 1.055,0 2.15,-0.533 2.15,-1.808 0,-1.213 -1.095,-1.742 -2.15,-1.742 h -0.881 v 3.55 z"
       inkscape:connector-curvature="0" /><path
       id="path90"
       d="m 115.348,277.064 h -2.239 l 4.793,-11.783 h 1.708 l 4.331,11.783 h -2.576 l -0.946,-2.644 h -4.066 m 2.088,-5.506 -1.475,3.872 h 2.866 z"
       inkscape:connector-curvature="0" /><path
       id="path92"
       d="m 132.111,277.242 -3.157,-5.229 h -1.104 v 5.052 h -2.501 V 265.32 h 3.416 c 3.219,0 4.685,1.386 4.685,3.22 0,1.692 -1.465,2.628 -2.098,2.895 l 3.573,5.63 m -6.057,-6.744 c 1.43,0 2.131,-0.789 2.131,-1.652 0,-0.885 -0.648,-1.658 -2.131,-1.658 h -1.018 v 3.311 h 1.018 z"
       inkscape:connector-curvature="0" /><path
       id="path94"
       d="m 137.92,277.064 h -2.238 l 4.791,-11.783 h 1.708 l 4.331,11.783 h -2.57 l -0.952,-2.644 h -4.061 m 2.092,-5.506 -1.483,3.872 h 2.871 z"
       inkscape:connector-curvature="0" /><polyline
       id="polyline96"
       points="150.426,275.238 154.765,275.238 154.765,277.064 147.925,277.064 147.925,265.32 150.426,265.32 " /><polyline
       id="polyline98"
       points="163.706,265.32 159.922,271.379 159.922,277.064 157.427,277.064 157.427,271.379 153.709,265.32 156.444,265.32   158.938,269.621 161.488,265.32 " /><polyline
       id="polyline100"
       points="176.916,277.064 174.523,277.064 174.405,269.954 171.388,277.121 169.807,277.121 166.951,269.954   166.674,277.064 164.684,277.064 165.174,265.32 167.501,265.32 170.883,273.933 174.472,265.32 176.639,265.32 " /><path
       id="path102"
       d="M 179.362,277.064 V 265.32 h 3.73 c 2.814,0 4.347,1.513 4.347,3.382 0,2.116 -2.005,3.489 -4.403,3.489 h -1.215 v 4.873 m 0.884,-6.554 c 1.054,0 2.147,-0.533 2.147,-1.808 0,-1.213 -1.094,-1.742 -2.147,-1.742 h -0.884 v 3.55 z"
       inkscape:connector-curvature="0" /><line
       id="line104"
       y2="265.32001"
       x2="190.24001"
       y1="277.064"
       x1="190.24001"
       style="stroke:#231f20;stroke-width:2.4611001;stroke-miterlimit:10" /><path
       id="path106"
       d="m 205.715,277.748 -0.775,1.942 -7.377,-2.716 c -2.637,-1.057 -4.066,-2.848 -4.066,-5.774 0,-3.482 2.728,-6.104 6.196,-6.104 3.681,0 6.198,2.532 6.198,6.104 0,2.765 -1.812,4.952 -3.839,5.53 m -5.936,-5.53 c 0,2.348 1.377,4.296 3.576,4.296 2.2,0 3.573,-1.97 3.573,-4.296 0,-2.319 -1.373,-4.294 -3.573,-4.294 -2.216,0 -3.576,1.975 -3.576,4.294"
       inkscape:connector-curvature="0" /><path
       id="path108"
       d="m 217.751,273.015 c 0,2.414 -1.776,4.276 -4.967,4.276 -3.202,0 -4.963,-1.773 -4.963,-4.276 v -7.694 h 2.503 v 7.399 c 0,1.741 0.757,2.72 2.585,2.72 1.814,0 2.576,-1.402 2.576,-2.72 v -7.399 h 2.266"
       inkscape:connector-curvature="0" /><polyline
       id="polyline110"
       points="227.45,277.064 219.877,277.064 219.877,265.32 227.231,265.32 227.231,267.15 222.378,267.15 222.378,270.11   225.927,270.11 225.927,271.945 222.378,271.945 222.378,275.238 227.45,275.238 " /><path
       id="path112"
       d="m 232.343,275.462 c 0.951,0 1.811,-0.457 1.811,-1.269 0,-0.944 -1.076,-1.474 -2.34,-2.271 -1.13,-0.701 -2.729,-1.563 -2.729,-3.665 0,-1.83 1.709,-3.161 3.682,-3.161 1.902,0 2.837,0.456 3.382,0.701 l -0.706,1.676 c -0.42,-0.218 -1.196,-0.546 -2.098,-0.546 -0.824,0 -1.742,0.256 -1.742,1.039 0,0.985 1.127,1.459 2.272,2.221 1.072,0.695 2.905,1.825 2.905,3.517 0,2.287 -2.147,3.587 -4.47,3.587 -1.974,0 -3.101,-0.561 -3.561,-0.823 l 0.706,-1.651 c 0.42,0.188 1.286,0.645 2.888,0.645"
       inkscape:connector-curvature="0" /></g></svg>