<?xml version="1.0" encoding="UTF-8" standalone="no"?>
<!-- Created with Inkscape (http://www.inkscape.org/) -->

<svg
   xmlns:dc="http://purl.org/dc/elements/1.1/"
   xmlns:cc="http://creativecommons.org/ns#"
   xmlns:rdf="http://www.w3.org/1999/02/22-rdf-syntax-ns#"
   xmlns:svg="http://www.w3.org/2000/svg"
   xmlns="http://www.w3.org/2000/svg"
   xmlns:sodipodi="http://sodipodi.sourceforge.net/DTD/sodipodi-0.dtd"
   xmlns:inkscape="http://www.inkscape.org/namespaces/inkscape"
   version="1.1"
   id="svg2"
   xml:space="preserve"
   width="173.6788"
   height="198.11453"
   viewBox="0 0 173.6788 198.11453"
   sodipodi:docname="Logo Paris 2024 copie.svg"
   inkscape:version="0.92.2 5c3e80d, 2017-08-06"><metadata
     id="metadata8"><rdf:RDF><cc:Work
         rdf:about=""><dc:format>image/svg+xml</dc:format><dc:type
           rdf:resource="http://purl.org/dc/dcmitype/StillImage" /><dc:title></dc:title></cc:Work></rdf:RDF></metadata><defs
     id="defs6" /><sodipodi:namedview
     pagecolor="#ffffff"
     bordercolor="#666666"
     borderopacity="1"
     objecttolerance="10"
     gridtolerance="10"
     guidetolerance="10"
     inkscape:pageopacity="0"
     inkscape:pageshadow="2"
     inkscape:window-width="1280"
     inkscape:window-height="682"
     id="namedview4"
     showgrid="false"
     inkscape:zoom="0.42048248"
     inkscape:cx="188.93398"
     inkscape:cy="266.056"
     inkscape:window-x="0"
     inkscape:window-y="1"
     inkscape:window-maximized="1"
     inkscape:current-layer="g10"
     fit-margin-top="5"
     fit-margin-left="5"
     fit-margin-bottom="5"
     fit-margin-right="5" /><g
     id="g10"
     inkscape:groupmode="layer"
     inkscape:label="Paris2024_Nouvel_embleme_Dossier_de_presse"
     transform="matrix(1.3333333,0,0,-1.3333333,-431.63679,697.58692)"><g
       id="g5460"
       transform="translate(333.6346,430.5627)"><path
         d="m 0,0 c -0.914,0.44 -1.901,0.491 -2.895,0.491 h -3.262 v -12.276 h 1.907 c 0,0.695 -0.046,1.417 0.252,2.066 0.481,1.045 1.601,1.547 2.579,2.021 1.048,0.507 2.212,1.002 2.908,1.985 0.617,0.871 0.785,2.025 0.605,3.066 C 1.887,-1.457 1.073,-0.517 0,0 M -0.094,-4.693 C -0.547,-5.371 -1.313,-5.752 -2.023,-6.106 -2.798,-6.493 -3.596,-6.877 -4.25,-7.457 v 6.173 h 1.808 c 1.012,0 2.127,-0.311 2.527,-1.351 0.244,-0.634 0.202,-1.485 -0.179,-2.058"
         style="fill:#000000;fill-opacity:1;fill-rule:nonzero;stroke:none"
         id="path5462"
         inkscape:connector-curvature="0" /></g><g
       id="g5464"
       transform="translate(347.6573,430.7137)"><path
         d="m 0,0 c -1.652,0.934 -4.02,0.658 -5.297,-0.781 -0.621,-0.699 -0.936,-1.599 -0.991,-2.524 -0.015,-0.234 -0.01,-8.631 -0.01,-8.631 h 1.888 v 4.067 c 1.112,0.141 2.357,0.033 3.29,-0.645 0.836,-0.607 1.203,-1.563 1.205,-2.573 0,-0.283 0,-0.849 0,-0.849 h 1.889 v 8.232 C 1.972,-2.194 1.353,-0.765 0,0 m -0.019,-7.328 c -1.122,1.138 -2.844,1.536 -4.391,1.289 v 2.006 c 0,0.369 -0.009,0.738 0.086,1.099 0.181,0.692 0.707,1.263 1.387,1.491 0.709,0.239 1.53,0.131 2.132,-0.318 0.604,-0.451 0.883,-1.144 0.89,-1.884 0.005,-0.576 0,-1.153 0,-1.729 v -2.073 c -0.035,0.039 -0.067,0.082 -0.104,0.119"
         style="fill:#000000;fill-opacity:1;fill-rule:nonzero;stroke:none"
         id="path5466"
         inkscape:connector-curvature="0" /></g><g
       id="g5468"
       transform="translate(362.6149,423.3387)"><path
         d="M 0,0 C -0.218,0.116 -0.45,0.212 -0.695,0.289 -0.088,0.622 0.511,1.033 0.935,1.588 1.328,2.103 1.552,2.697 1.623,3.339 1.77,4.685 1.33,5.968 0.222,6.789 -1.254,7.885 -3.121,7.715 -4.854,7.715 H -6.657 V -4.561 h 1.907 c 0,0.364 -0.013,0.731 0.004,1.095 0.038,0.811 0.396,1.594 1.105,2.028 0.693,0.423 1.639,0.473 2.378,0.142 0.745,-0.334 1.228,-1.05 1.35,-1.846 0.071,-0.464 0.036,-0.951 0.036,-1.419 h 1.926 c 0,0.674 0.037,1.36 -0.112,2.022 C 1.69,-1.448 0.986,-0.527 0,0 m -2.88,5.94 c 1.214,0 2.442,-0.593 2.574,-1.921 C -0.242,3.38 -0.382,2.747 -0.807,2.256 -1.272,1.72 -1.965,1.396 -2.593,1.094 -3.354,0.727 -4.12,0.345 -4.75,-0.228 V 5.94 Z"
         style="fill:#000000;fill-opacity:1;fill-rule:nonzero;stroke:none"
         id="path5470"
         inkscape:connector-curvature="0" /></g><g
       id="g5472"
       transform="translate(370.5944,429.335)"><path
         d="M 0,0 C 0.622,0.166 1.266,0.243 1.907,0.283 V 1.719 H 0 Z"
         style="fill:#000000;fill-opacity:1;fill-rule:nonzero;stroke:none"
         id="path5474"
         inkscape:connector-curvature="0" /></g><g
       id="g5476"
       transform="translate(370.5944,428.2586)"><path
         d="M 0,0 V -9.481 H 1.907 V 0.283 C 1.266,0.256 0.621,0.162 0,0"
         style="fill:#000000;fill-opacity:1;fill-rule:nonzero;stroke:none"
         id="path5478"
         inkscape:connector-curvature="0" /></g><g
       id="g5480"
       transform="translate(385.2308,424.6701)"><path
         d="m 0,0 c -0.684,0.537 -1.503,0.846 -2.312,1.142 -0.75,0.273 -1.622,0.562 -2.164,1.181 -0.5,0.571 -0.389,1.476 0.128,1.995 0.533,0.536 1.39,0.656 2.094,0.433 0.793,-0.251 1.272,-0.966 1.272,-1.786 h 1.889 c 0,0.9 -0.289,1.765 -0.908,2.428 C -0.6,6.035 -1.428,6.417 -2.293,6.53 -3.192,6.648 -4.124,6.531 -4.919,6.078 -5.664,5.654 -6.294,4.98 -6.561,4.153 -6.816,3.363 -6.76,2.377 -6.354,1.645 -5.901,0.83 -5.083,0.34 -4.248,-0.017 c 0.908,-0.387 1.955,-0.625 2.767,-1.204 0.327,-0.233 0.599,-0.532 0.696,-0.931 0.095,-0.39 0.06,-0.83 -0.121,-1.19 -0.441,-0.877 -1.539,-1.145 -2.438,-0.972 -1.008,0.193 -1.736,1.035 -1.736,2.067 h -1.87 c 0,-0.999 0.325,-1.941 1.04,-2.652 0.708,-0.706 1.691,-1.087 2.678,-1.166 1.035,-0.083 2.104,0.127 2.96,0.733 0.789,0.559 1.32,1.425 1.423,2.39 C 1.271,-1.816 0.906,-0.712 0,0"
         style="fill:#000000;fill-opacity:1;fill-rule:nonzero;stroke:none"
         id="path5482"
         inkscape:connector-curvature="0" /></g><g
       id="g5484"
       transform="translate(403.0028,424.4058)"><path
         d="M 0,0 C 0.422,0.524 0.833,1.076 1.112,1.692 1.387,2.3 1.486,2.973 1.412,3.636 1.271,4.898 0.398,5.945 -0.74,6.465 -1.903,6.996 -3.368,6.971 -4.506,6.389 -5.655,5.802 -6.479,4.681 -6.548,3.375 -6.619,2.04 -5.999,0.86 -4.948,0.057 l 1.076,1.378 c -0.386,0.369 -0.692,0.816 -0.78,1.352 -0.085,0.516 0.003,1.037 0.317,1.462 0.616,0.833 1.853,1.084 2.768,0.624 0.457,-0.229 0.841,-0.627 1.005,-1.116 0.171,-0.509 0.09,-1.094 -0.127,-1.576 -0.22,-0.487 -0.57,-0.903 -0.902,-1.317 -1.274,-1.595 -2.548,-3.189 -3.823,-4.783 -0.455,-0.57 -0.911,-1.14 -1.366,-1.709 h 8.631 v 1.756 H -3.1 Z"
         style="fill:#000000;fill-opacity:1;fill-rule:nonzero;stroke:none"
         id="path5486"
         inkscape:connector-curvature="0" /></g><g
       id="g5488"
       transform="translate(420.9447,429.4107)"><path
         d="m 0,0 c -1.902,1.859 -4.881,2.359 -7.295,1.245 -2.435,-1.124 -3.902,-3.709 -3.648,-6.373 0.248,-2.612 2.2,-4.851 4.737,-5.494 2.574,-0.652 5.398,0.308 6.939,2.492 1.549,2.196 1.504,5.279 -0.113,7.426 C 0.431,-0.454 0.224,-0.219 0,0 m -0.425,-6.261 c -0.744,-1.749 -2.503,-2.873 -4.408,-2.758 -1.846,0.11 -3.449,1.433 -3.984,3.192 -0.549,1.806 0.103,3.823 1.601,4.967 1.505,1.148 3.636,1.189 5.191,0.112 1.738,-1.204 2.429,-3.563 1.6,-5.513"
         style="fill:#000000;fill-opacity:1;fill-rule:nonzero;stroke:none"
         id="path5490"
         inkscape:connector-curvature="0" /></g><g
       id="g5492"
       transform="translate(434.9584,424.4058)"><path
         d="M 0,0 C 0.422,0.524 0.833,1.076 1.112,1.692 1.387,2.3 1.486,2.973 1.412,3.636 1.271,4.898 0.398,5.945 -0.74,6.465 -1.903,6.996 -3.368,6.971 -4.507,6.389 -5.655,5.802 -6.479,4.681 -6.548,3.375 -6.619,2.04 -5.999,0.86 -4.948,0.057 l 1.076,1.378 c -0.386,0.369 -0.692,0.816 -0.78,1.352 -0.085,0.516 0.002,1.037 0.317,1.462 0.616,0.833 1.853,1.084 2.768,0.624 0.457,-0.229 0.841,-0.627 1.005,-1.116 0.17,-0.509 0.09,-1.094 -0.127,-1.576 -0.22,-0.487 -0.57,-0.903 -0.902,-1.317 -1.274,-1.595 -2.548,-3.189 -3.823,-4.783 -0.455,-0.57 -0.911,-1.14 -1.366,-1.709 h 8.631 v 1.756 H -3.1 Z"
         style="fill:#000000;fill-opacity:1;fill-rule:nonzero;stroke:none"
         id="path5494"
         inkscape:connector-curvature="0" /></g><g
       id="g5496"
       transform="translate(448.4047,427.7676)"><path
         d="m 0,0 v -4.161 c -0.907,0.647 -2.042,0.844 -2.993,1.413 -0.821,0.491 -1.082,1.35 -1.086,2.259 -0.005,0.89 0,3.775 0,3.775 h -1.908 c 0,0 -0.002,-2.555 0,-3.833 0.002,-1.308 0.324,-2.587 1.395,-3.429 0.661,-0.519 1.455,-0.839 2.241,-1.114 0.703,-0.246 1.449,-0.554 1.93,-1.147 C -0.042,-6.704 0,-7.263 0,-7.839 V -8.99 H 1.832 V 0 Z"
         style="fill:#000000;fill-opacity:1;fill-rule:nonzero;stroke:none"
         id="path5498"
         inkscape:connector-curvature="0" /></g><g
       id="g5500"
       transform="translate(386.8561,407.4719)"><path
         d="m 0,0 c -2.863,0.659 -6.772,-0.067 -10.466,-2.199 -5.778,-3.336 -8.839,-8.851 -6.838,-12.318 1.279,-2.216 4.316,-3.058 7.85,-2.508 -1.617,0.372 -2.899,1.185 -3.622,2.436 -2.001,3.467 1.06,8.982 6.838,12.318 C -4.151,-1.067 -1.997,-0.311 0,0"
         style="fill:#e52645;fill-opacity:1;fill-rule:nonzero;stroke:none"
         id="path5502"
         inkscape:connector-curvature="0" /></g><g
       id="g5504"
       transform="translate(386.9061,393.7934)"><path
         d="m 0,0 c 0.861,-2.809 3.444,-5.832 7.137,-7.964 5.779,-3.336 12.086,-3.23 14.087,0.237 1.279,2.215 0.491,5.267 -1.753,8.052 0.486,-1.586 0.424,-3.103 -0.299,-4.354 C 17.17,-7.497 10.864,-7.602 5.085,-4.266 2.999,-3.062 1.268,-1.573 0,0"
         style="fill:#00a652;fill-opacity:1;fill-rule:nonzero;stroke:none"
         id="path5506"
         inkscape:connector-curvature="0" /></g><g
       id="g5508"
       transform="translate(382.9884,400.5983)"><path
         d="m 0,0 c -2.002,-2.15 -3.329,-5.898 -3.329,-10.163 0,-6.672 3.246,-12.081 7.249,-12.081 2.558,0 4.806,2.208 6.097,5.544 -1.131,-1.214 -2.477,-1.919 -3.921,-1.919 -4.003,0 -7.248,5.41 -7.248,12.082 0,2.409 0.423,4.653 1.152,6.537"
         style="fill:#0082c7;fill-opacity:1;fill-rule:nonzero;stroke:none"
         id="path5510"
         inkscape:connector-curvature="0" /></g><g
       id="g5512"
       transform="translate(393.1832,452.0781)"><path
         d="M 0,0 C -1.054,0.392 -2.827,0.428 -4.326,-0.792 -5.825,0.428 -7.598,0.392 -8.652,0 c -0.881,-0.328 -1.572,-0.547 -2.871,-0.536 1.287,-2.681 4.027,-4.53 7.197,-4.53 3.17,0 5.91,1.849 7.196,4.53 C 1.572,-0.547 0.881,-0.328 0,0"
         style="fill:#d6c278;fill-opacity:1;fill-rule:nonzero;stroke:none"
         id="path5514"
         inkscape:connector-curvature="0" /></g><g
       id="g5516"
       transform="translate(388.858,519.4402)"><path
         d="m 0,0 c -21.695,0 -39.284,-17.588 -39.284,-39.284 0,-18.597 12.924,-34.177 30.282,-38.247 -13.793,7.379 -19.417,24.299 -12.766,38.472 1.075,-5.597 4.724,-10.584 10.176,-13.172 -7.111,16.632 -1.875,36.184 12.801,46.997 -2.888,-9.885 1.546,-18.93 11.057,-25.759 10.879,-7.81 11.339,-23.747 1.738,-32.362 3.813,0.888 7.362,2.988 10.012,6.203 C 22.381,-65.576 17.099,-73.198 9,-77.531 c 17.358,4.07 30.282,19.65 30.282,38.247 C 39.282,-17.588 21.695,0 0,0"
         style="fill:#d6c278;fill-opacity:1;fill-rule:nonzero;stroke:none"
         id="path5518"
         inkscape:connector-curvature="0" /></g><g
       id="g5520"
       transform="translate(417.5065,444.4763)"><path
         d="M 0,0 H 0.742 V -2.569 H 1.099 V 0 H 1.841 V 0.335 H 0 Z M 5.125,0.335 C 4.571,0.335 4.129,0.094 3.914,-0.304 3.7,0.094 3.258,0.335 2.703,0.335 H 2.511 v -2.904 h 0.358 v 2.546 h 0.013 c 0.518,0 0.854,-0.366 0.854,-0.929 v -0.723 h 0.357 v 0.723 c 0,0.563 0.335,0.929 0.853,0.929 h 0.013 v -2.546 h 0.358 v 2.904 z"
         style="fill:#d6c278;fill-opacity:1;fill-rule:nonzero;stroke:none"
         id="path5522"
         inkscape:connector-curvature="0" /></g></g></svg>