<?xml version="1.0" encoding="UTF-8" standalone="no"?>
<svg
   xmlns:dc="http://purl.org/dc/elements/1.1/"
   xmlns:cc="http://creativecommons.org/ns#"
   xmlns:rdf="http://www.w3.org/1999/02/22-rdf-syntax-ns#"
   xmlns:svg="http://www.w3.org/2000/svg"
   xmlns="http://www.w3.org/2000/svg"
   xmlns:sodipodi="http://sodipodi.sourceforge.net/DTD/sodipodi-0.dtd"
   xmlns:inkscape="http://www.inkscape.org/namespaces/inkscape"
   width="171.16866"
   height="246"
   overflow="hidden"
   version="1.1"
   id="svg99"
   sodipodi:docname="LA_2028_Paralympic_logo.svg"
   style="overflow:hidden"
   inkscape:version="0.92.4 (5da689c313, 2019-01-14)">
  <metadata
     id="metadata103">
    <rdf:RDF>
      <cc:Work
         rdf:about="">
        <dc:format>image/svg+xml</dc:format>
        <dc:type
           rdf:resource="http://purl.org/dc/dcmitype/StillImage" />
        <dc:title></dc:title>
      </cc:Work>
    </rdf:RDF>
  </metadata>
  <sodipodi:namedview
     pagecolor="#ffffff"
     bordercolor="#666666"
     borderopacity="1"
     objecttolerance="10"
     gridtolerance="10"
     guidetolerance="10"
     inkscape:pageopacity="0"
     inkscape:pageshadow="2"
     inkscape:window-width="1366"
     inkscape:window-height="705"
     id="namedview101"
     showgrid="false"
     fit-margin-top="1"
     fit-margin-right="1"
     fit-margin-bottom="1"
     fit-margin-left="1"
     inkscape:zoom="0.74920635"
     inkscape:cx="169.45512"
     inkscape:cy="276.33273"
     inkscape:window-x="-8"
     inkscape:window-y="-8"
     inkscape:window-maximized="1"
     inkscape:current-layer="svg99" />
  <defs
     id="defs39">
    <clipPath
       id="clip0">
      <path
         d="M 421,45 H 859 V 675 H 421 Z"
         id="path2"
         inkscape:connector-curvature="0"
         style="clip-rule:evenodd;fill-rule:evenodd" />
    </clipPath>
    <clipPath
       id="clip1">
      <path
         d="M 422,46 H 858 V 674 H 422 Z"
         id="path5"
         inkscape:connector-curvature="0"
         style="clip-rule:evenodd;fill-rule:evenodd" />
    </clipPath>
    <clipPath
       id="clip2">
      <path
         d="M 422,46 H 859 V 674 H 422 Z"
         id="path8"
         inkscape:connector-curvature="0"
         style="clip-rule:evenodd;fill-rule:evenodd" />
    </clipPath>
    <clipPath
       id="clip3">
      <path
         d="M -63,-1 H 1868 V 674 H -63 Z"
         id="path11"
         inkscape:connector-curvature="0"
         style="clip-rule:evenodd;fill-rule:evenodd" />
    </clipPath>
    <linearGradient
       x1="252.54401"
       y1="586.41699"
       x2="512.19897"
       y2="586.41699"
       gradientUnits="userSpaceOnUse"
       spreadMethod="pad"
       id="fill4">
      <stop
         offset="0"
         stop-color="#FF15CB"
         id="stop14" />
      <stop
         offset="0.11"
         stop-color="#FE5088"
         id="stop16" />
      <stop
         offset="0.22"
         stop-color="#FE834E"
         id="stop18" />
      <stop
         offset="0.31"
         stop-color="#FDA824"
         id="stop20" />
      <stop
         offset="0.38"
         stop-color="#FDBF0B"
         id="stop22" />
      <stop
         offset="0.43"
         stop-color="#FDC701"
         id="stop24" />
      <stop
         offset="0.46"
         stop-color="#FDC800"
         id="stop26" />
      <stop
         offset="0.7"
         stop-color="#3FFFEC"
         id="stop28" />
      <stop
         offset="1"
         stop-color="#3FFFEC"
         id="stop30" />
    </linearGradient>
    <clipPath
       id="clip5">
      <path
         d="M 646.505,260.229 751.701,46.0746 856.896,260.229 Z"
         id="path33"
         inkscape:connector-curvature="0" />
    </clipPath>
    <clipPath
       id="clip6">
      <path
         d="M 646.505,260.229 751.701,46.0746 751.973,260.229 Z"
         id="path36"
         inkscape:connector-curvature="0" />
    </clipPath>
  </defs>
  <g
     clip-path="url(#clip0)"
     transform="matrix(0.3889841,0,0,0.3889841,-163.15129,-16.893269)"
     id="g97">
    <g
       clip-path="url(#clip1)"
       id="g95">
      <g
         clip-path="url(#clip2)"
         id="g93">
        <g
           clip-path="url(#clip3)"
           id="g91">
          <path
             d="m 283.631,687.69 c 0.2,5.218 -3.868,9.61 -9.086,9.809 -0.241,0.009 -0.482,0.009 -0.722,0 h -170.56 c -5.2182,0.199 -9.6096,-3.869 -9.809,-9.086 -0.0092,-0.241 -0.0092,-0.482 0,-0.723 V 516.858 c -0.1995,-5.218 3.8686,-9.61 9.086,-9.809 0.241,-0.009 0.482,-0.009 0.723,0 h 63.21 c 5.218,-0.199 9.61,3.869 9.809,9.086 0.009,0.241 0.009,0.482 0,0.723 v 98.358 c -0.312,4.503 3.086,8.407 7.59,8.719 0.376,0.026 0.753,0.026 1.129,0 h 88.822 c 5.218,-0.2 9.609,3.868 9.808,9.086 0.01,0.241 0.01,0.482 0,0.722 z m -67.842,95.362 v -10.354 l -6.812,-6.811 h -44.956 l -6.811,6.811 v 10.898 H 93.454 v -43.321 l 28.881,-28.881 h 132.688 l 28.881,28.881 v 62.666 l -19.345,19.345 -83.645,23.976 h 102.99 v 55.582 H 93.454 v -68.66 l 19.345,-19.344 z m 108.984,23.976 c -22.614,-7.901 -32.423,-21.524 -32.423,-41.414 0,-37.055 32.423,-56.127 102.445,-56.127 70.023,0 102.445,19.345 102.445,56.127 0,19.89 -9.808,33.513 -32.422,41.414 24.521,8.174 35.147,22.614 35.147,43.594 0,37.054 -32.968,55.854 -105.17,55.854 -72.202,0 -105.169,-19.072 -105.169,-55.854 0,-20.98 10.625,-35.42 35.147,-43.594 z m 70.022,50.678 c 20.435,0 30.788,-4.905 30.788,-14.441 0,-9.536 -10.626,-14.713 -30.788,-14.713 -20.162,0 -30.515,5.177 -30.515,14.713 0,9.536 10.626,14.441 30.515,14.441 z m 29.426,-86.098 c 0,-9.536 -10.081,-14.44 -29.426,-14.44 -18.527,0 -29.153,5.177 -29.153,14.44 0,9.264 10.626,14.713 29.153,14.713 19.073,0 29.426,-5.177 29.426,-14.713 z m 59.941,122.335 h 5.994 v 0.817 h -2.452 v 7.084 h -1.089 v -7.084 h -2.453 z m 8.447,7.901 h -1.09 v -8.173 h 1.362 l 1.635,3.269 1.635,-3.269 h 1.362 v 7.901 h -1.09 v -6.539 l -1.907,3.814 -1.907,-3.814 z"
             transform="matrix(1.00025,0,0,1,-154.183,-437.815)"
             id="path41"
             inkscape:connector-curvature="0" />
          <path
             d="m 218.786,984.128 c 0,-34.61 -28.057,-62.666 -62.666,-62.666 -34.61,0 -62.666,28.056 -62.666,62.666 0,34.612 28.056,62.662 62.666,62.662 1.821,0.05 3.642,-0.04 5.449,-0.27 -0.226,-1.62 -0.317,-3.26 -0.272,-4.9 -0.053,-1.82 0.039,-3.65 0.272,-5.45 -1.807,0.22 -3.628,0.32 -5.449,0.27 -29.101,0.21 -52.863,-23.21 -53.074,-52.311 -0.21,-29.102 23.21,-52.863 52.311,-53.074 29.102,-0.211 52.864,23.21 53.074,52.311 0.165,22.794 -14.347,43.114 -35.963,50.354 -0.327,2.62 -0.509,5.25 -0.545,7.9 v 3.27 c 27.538,-7.37 46.736,-32.26 46.863,-60.762"
             transform="matrix(1.00025,0,0,1,-154.183,-437.815)"
             id="path43"
             inkscape:connector-curvature="0"
             style="fill:#0081c8" />
          <path
             d="m 490.156,984.128 c -0.207,34.612 -28.431,62.492 -63.04,62.292 -32.208,-0.2 -59.025,-24.77 -62.019,-56.843 3.705,0.305 7.362,1.036 10.898,2.179 4.479,28.424 31.149,47.834 59.569,43.354 28.42,-4.48 47.829,-31.15 43.35,-59.571 -4.478,-28.421 -31.148,-47.829 -59.568,-43.351 -24.188,3.811 -42.456,23.954 -43.895,48.397 -3.4,-0.83 -6.863,-1.377 -10.354,-1.634 3.205,-34.461 33.74,-59.799 68.2,-56.593 31.983,2.975 56.538,29.65 56.859,61.769"
             transform="matrix(1.00025,0,0,1,-154.183,-437.815)"
             id="path45"
             inkscape:connector-curvature="0"
             style="fill:#ee334e" />
          <path
             d="m 411.688,1044.89 c -1.779,28.79 -26.561,50.69 -55.352,48.91 -28.792,-1.78 -50.69,-26.56 -48.911,-55.36 1.32,-21.36 15.537,-39.75 35.875,-46.411 0.327,-2.622 0.509,-5.26 0.545,-7.902 v -3.269 c -33.501,8.688 -53.617,42.892 -44.929,76.392 8.688,33.5 42.889,53.61 76.39,44.93 25.844,-6.71 44.604,-29.05 46.735,-55.66 -3.49,-0.26 -6.953,-0.8 -10.353,-1.63 m -52.04,-55.586 c 25.81,-0.032 47.734,18.876 51.495,44.416 3.45,1.11 7.014,1.84 10.626,2.17 -2.825,-32.36 -29.91,-57.194 -62.394,-57.212 -1.82,-0.045 -3.642,0.046 -5.449,0.273 0.227,1.624 0.318,3.264 0.273,4.904 0.052,1.821 -0.039,3.643 -0.273,5.449 1.905,0.136 3.817,0.136 5.722,0"
             transform="matrix(1.00025,0,0,1,-154.183,-437.815)"
             id="path47"
             inkscape:connector-curvature="0"
             style="fill:#00a651" />
          <path
             d="m 286.356,1046.52 c -2.763,34.5 -32.97,60.23 -67.469,57.46 -34.499,-2.76 -60.226,-32.97 -57.463,-67.47 2.132,-26.61 20.892,-48.95 46.736,-55.652 v 3.27 c -0.046,2.641 -0.228,5.278 -0.545,7.901 -27.435,8.961 -42.41,38.471 -33.448,65.901 8.962,27.43 38.467,42.41 65.901,33.45 20.382,-6.66 34.629,-25.09 35.935,-46.49 3.399,0.83 6.863,1.37 10.353,1.63 m -67.843,-56.943 c 0.227,-1.807 0.318,-3.629 0.273,-5.449 0.045,-1.64 -0.046,-3.28 -0.273,-4.905 1.908,0 3.542,-0.272 5.45,-0.272 32.484,0.018 59.568,24.859 62.393,57.219 -3.705,-0.31 -7.362,-1.04 -10.898,-2.18 -3.848,-25.49 -25.72,-44.352 -51.495,-44.413 -1.814,-0.137 -3.636,-0.137 -5.45,0"
             transform="matrix(1.00025,0,0,1,-154.183,-437.815)"
             id="path49"
             inkscape:connector-curvature="0"
             style="fill:#fcb131" />
          <path
             d="m 291.805,1036.44 c -25.809,0.03 -47.734,-18.88 -51.495,-44.411 -3.537,-1.144 -7.194,-1.875 -10.898,-2.18 2.824,32.361 29.909,57.201 62.393,57.221 1.821,0.04 3.642,-0.05 5.449,-0.28 -0.226,-1.62 -0.317,-3.26 -0.272,-4.9 -0.052,-1.82 0.039,-3.64 0.272,-5.45 -1.813,-0.14 -3.635,-0.14 -5.449,0 m 0,-114.978 c -32.712,-0.051 -59.925,25.142 -62.393,57.761 3.49,0.257 6.953,0.804 10.353,1.635 1.779,-28.791 26.561,-50.689 55.352,-48.91 28.792,1.779 50.69,26.56 48.911,55.352 -1.32,21.36 -15.537,39.75 -35.875,46.42 -0.327,2.62 -0.509,5.25 -0.545,7.9 v 3.27 c 33.557,-8.47 53.894,-42.54 45.425,-76.1 -7.067,-27.999 -32.352,-47.544 -61.228,-47.328"
             transform="matrix(1.00025,0,0,1,-154.183,-437.815)"
             id="path51"
             inkscape:connector-curvature="0" />
          <path
             d="m 366.187,441.931 c -0.545,-0.545 -1.09,-0.272 -1.362,-1.09 l 0.272,-0.272 c 7.735,1.303 15.032,4.484 21.252,9.263 1.526,1.239 3.564,1.646 5.449,1.09 0.818,-0.272 1.363,0.273 1.907,0.818 2.18,1.634 4.632,3.269 6.812,5.176 5.722,5.45 12.261,10.354 14.985,18.528 1.363,-1.635 2.725,-2.453 2.452,-4.36 0.057,-0.579 0.243,-1.137 0.545,-1.635 4.688,-6.686 10.606,-12.419 17.438,-16.892 1.047,-0.683 2.302,-0.972 3.542,-0.817 1.635,0.544 3.269,-0.545 4.632,-1.363 4.631,-2.724 10.353,-2.724 15.257,-4.087 -0.544,0.273 -0.817,0.818 -1.362,1.09 2.725,-0.272 4.904,-2.452 8.174,-1.09 -2.997,2.452 -5.722,5.45 -8.446,7.902 -3.322,2.803 -5.935,6.35 -7.629,10.353 -1.635,5.177 -4.36,10.354 -4.904,15.803 -1.908,13.895 -0.273,27.791 1.362,41.686 1.635,14.532 3.542,28.972 5.721,43.322 2.453,16.075 5.722,32.15 9.264,48.225 3.911,17.255 8.824,34.267 14.713,50.95 0.675,2.514 1.22,5.06 1.635,7.629 0.272,1.362 0.545,2.452 2.179,0.818 1.363,-1.09 2.998,-2.18 4.905,-3.542 -0.818,2.997 -2.997,4.631 -4.087,6.811 1.362,0 1.635,-1.362 2.18,-1.907 3.814,-3.27 8.446,-3.27 13.078,-2.997 0.817,0 1.634,0.545 2.452,0 1.949,-1.234 4.346,-1.533 6.539,-0.818 1.566,0.7 3.4,0.376 4.632,-0.817 0.545,-0.545 1.362,-1.09 1.907,-0.272 0.545,0.817 0,1.362 -0.545,1.907 -2.452,3.542 -5.177,6.811 -7.629,10.353 -6.892,9.402 -11.382,20.345 -13.078,31.878 -0.545,3.27 -1.362,6.539 -1.907,9.809 -0.094,2.541 -1.553,4.833 -3.815,5.994 -1.656,0.791 -3.068,2.015 -4.087,3.542 -0.545,1.09 -1.634,1.09 -2.724,0.817 -3.746,-1.136 -7.757,-1.041 -11.444,0.273 -1.368,0.045 -2.737,-0.047 -4.086,-0.273 -3.537,0.273 -7.09,0.273 -10.626,0 -1.204,-0.034 -2.318,-0.641 -2.998,-1.635 -1.382,-2.082 -2.395,-4.386 -2.997,-6.811 -1.089,-4.359 -2.452,-8.719 -3.542,-13.078 -0.272,-1.09 -0.544,-2.18 0.273,-2.997 0.492,-0.822 0.592,-1.821 0.272,-2.725 -1.089,0.273 -0.272,1.635 -1.362,2.18 -1.635,-5.722 -2.997,-11.443 -4.632,-17.438 -3.542,-12.805 -6.539,-25.611 -9.263,-38.417 -2.997,-13.623 -4.905,-27.518 -7.902,-41.141 -2.724,-12.533 -5.177,-25.066 -7.901,-37.6 -0.545,-1.907 1.09,-2.724 0.817,-4.631 -4.359,-22.07 -5.449,-44.139 -6.266,-66.481 0,-0.545 0.272,-1.635 -0.545,-1.635 -0.818,0 0,1.09 -1.09,1.363 -1.907,-2.725 -3.815,-5.45 -5.722,-8.447 -0.545,-0.817 -1.09,-1.634 -2.179,-1.362 -1.09,0.273 -1.09,1.362 -1.09,1.907 -3.27,17.165 -7.357,34.33 -10.354,51.495 -2.179,11.716 -4.904,23.432 -7.901,34.875 -0.818,2.725 -1.09,5.45 -1.635,7.902 -0.545,2.452 0,2.997 2.452,3.269 2.561,0.23 5.107,0.594 7.629,1.09 0.889,-0.167 1.78,0.279 2.18,1.09 -3.563,-0.271 -7.147,0.005 -10.626,0.817 2.452,0.545 4.904,1.09 7.084,1.363 8.912,1.496 17.987,1.771 26.973,0.817 0.545,0 0.818,-0.273 1.09,0.272 0.273,0.545 0,0.818 -0.272,1.363 -0.273,0.545 -1.635,1.362 -1.635,2.724 0,0.818 -0.817,1.363 0.545,1.635 0.817,0.273 0.545,1.09 0.272,1.635 -0.545,1.09 -1.362,2.724 -2.452,2.724 -1.635,0 -2.997,1.09 -4.359,1.363 0.817,0 1.907,0.272 2.724,0.272 -7.356,3.815 -14.985,0.818 -22.341,1.635 3.97,1.208 8.112,1.761 12.26,1.635 4.227,0.494 8.512,0.029 12.534,-1.363 -0.273,2.453 -2.997,2.18 -3.815,3.815 1.362,0.817 2.452,-1.635 4.087,-0.273 -4.904,5.757 -12.394,8.63 -19.89,7.629 3.542,1.363 7.084,0.273 10.626,1.09 -2.452,3.542 -5.994,3.27 -9.263,2.997 -6.539,-0.272 -12.806,-0.817 -19.345,-1.362 -1.362,-0.273 -1.907,0.545 -2.18,1.907 -1.362,7.902 -2.997,15.53 -4.359,23.159 -1.362,7.629 -2.997,14.713 -4.359,22.07 -0.273,0.817 0,1.907 -1.363,1.907 -1.362,0 -1.089,1.09 -1.089,1.907 0,0.817 0,1.907 -1.363,2.725 2.997,-18.255 4.632,-36.238 7.084,-54.22 -1.635,0.545 -1.635,1.635 -1.635,2.725 l -4.086,32.695 c -0.545,4.359 -1.363,8.719 -2.18,13.078 -0.172,2.1 -1.148,4.052 -2.725,5.449 -1.635,1.09 -0.817,3.27 1.09,4.087 1.554,0.505 3.023,1.239 4.359,2.18 1.09,0.817 2.725,1.09 4.632,2.179 -2.997,0 -4.632,-2.179 -7.356,-1.634 1.362,2.179 3.814,2.452 5.721,3.269 3.815,1.907 8.174,1.907 11.989,3.815 1.09,0.545 2.452,0.272 3.269,0.545 0.818,0.272 3.542,-1.908 3.542,1.362 0,0.272 1.363,0.545 1.635,0.272 2.966,-1.105 6.273,-0.804 8.991,0.818 1.907,0.817 3.815,-0.545 5.722,-0.273 5.722,0.273 10.898,-1.907 16.348,-3.269 1.907,-0.545 2.452,-2.997 4.904,-2.997 -0.716,2.808 -2.468,5.242 -4.904,6.811 -0.273,0.273 -1.908,0.818 -0.273,1.635 0.817,0.272 0,0.545 -0.272,1.09 -2.32,2.41 -4.776,4.684 -7.357,6.811 -4.055,2.554 -7.724,5.674 -10.898,9.264 -2.009,2.69 -4.395,5.076 -7.084,7.084 -1.363,0.817 0,2.452 -1.09,3.27 -2.13,2.267 -4.735,4.034 -7.629,5.176 -9.264,3.27 -18.527,2.452 -27.791,1.363 -11.096,-1.604 -22.035,-4.157 -32.695,-7.629 -8.446,-2.453 -16.348,-5.722 -25.067,-7.357 -9.481,-1.597 -19.21,-0.848 -28.335,2.18 -3.282,1.321 -6.469,2.869 -9.537,4.632 -0.817,0.272 -1.362,1.362 -2.452,0.817 -1.09,-0.545 0,-1.362 0.273,-2.18 -0.128,-1.704 0.465,-3.385 1.635,-4.631 0.492,-0.589 0.414,-1.465 -0.175,-1.958 -0.111,-0.093 -0.236,-0.168 -0.37,-0.222 -2.18,-0.817 -1.09,-1.635 -0.545,-2.725 5.095,-9.081 11.524,-17.347 19.072,-24.521 2.18,-2.18 4.904,-3.27 6.539,-5.449 2.997,-3.542 7.084,-4.905 10.626,-7.357 4.168,-2.582 8.993,-3.907 13.895,-3.814 6.278,-0.409 12.582,-0.134 18.8,0.817 2.18,0.273 2.997,-0.545 3.27,-2.452 0.168,-3.843 0.624,-7.668 1.362,-11.443 0.817,-4.905 1.362,-9.809 2.452,-14.713 l 2.452,-14.713 v -0.273 c 0.545,-3.814 0.545,-3.814 -3.542,-2.997 -6.999,1.148 -13.681,3.746 -19.617,7.629 -3.738,2.013 -6.348,5.627 -7.084,9.809 -0.272,1.635 -1.362,2.997 -1.635,4.904 0,0.273 0.273,1.09 -0.545,1.362 0,-1.089 -1.634,0 -1.634,-1.362 0,-0.545 -0.273,-0.817 -0.273,-1.362 -0.408,-5.169 -0.408,-10.362 0,-15.53 0.531,-2.277 1.355,-4.475 2.452,-6.539 2.453,-7.357 3.815,-15.258 9.537,-21.525 1.089,-1.362 -0.273,-1.09 -0.545,-1.635 -5.722,-4.087 -12.534,-6.266 -17.71,-11.17 -10.626,-9.809 -20.707,-20.163 -27.791,-32.696 -5.74,-9.204 -8.5,-19.956 -7.902,-30.788 0.182,-3.544 0.091,-7.096 -0.272,-10.626 -0.273,-5.994 2.452,-11.171 3.814,-16.892 0.818,-3.27 2.997,-5.994 3.542,-8.992 0.545,-2.997 3.27,-5.176 3.815,-8.446 0.272,-1.09 2.179,-1.907 2.452,-2.997 3.269,-8.719 11.716,-12.261 18.255,-17.71 13.35,-11.171 29.426,-16.892 46.046,-20.434 3.542,-0.818 7.084,0 10.353,-1.635 1.09,-0.545 2.452,0.272 3.815,0.545 1.849,0.573 3.797,0.758 5.721,0.545 4.116,-1.058 8.477,-0.573 12.261,1.362 -0.817,0.817 -0.545,0.545 0,0.545 z m -62.938,93.454 c -0.273,-0.545 -0.545,-0.545 -0.545,-0.817 0,-0.273 -0.273,-0.818 -0.273,-1.09 0.818,-4.36 1.362,-9.264 4.632,-12.533 4.632,-4.905 9.264,-9.264 13.896,-14.168 10.081,-10.626 22.886,-14.713 37.054,-14.713 1.635,0 2.18,-0.273 2.725,-1.908 1.634,-5.176 2.452,-10.353 4.087,-15.53 0.272,-0.817 0.272,-1.362 -0.545,-1.635 -4.06,-1.787 -8.387,-2.891 -12.806,-3.269 -4.226,0.092 -8.393,1.018 -12.261,2.725 -14.435,4.091 -27.451,12.108 -37.599,23.159 -7.817,9.138 -13.827,19.679 -17.71,31.06 -1.533,3.712 -2.276,7.702 -2.18,11.716 0,0.545 -0.545,1.362 0.545,1.635 1.09,0.272 1.362,0.545 0.545,1.362 -0.817,0.817 -0.272,1.635 -0.272,2.18 -0.273,5.721 1.907,10.626 3.269,15.803 4.087,13.622 10.626,25.611 23.432,33.512 0.817,0.545 3.269,0.545 1.634,2.725 -0.272,0.545 4.632,2.997 5.722,2.452 6.561,-2.978 13.548,-4.909 20.707,-5.722 1.635,-0.272 2.452,-1.362 2.18,-2.724 -0.168,-2.213 0.11,-4.436 0.817,-6.539 1.09,-4.632 2.997,-9.264 3.815,-13.896 2.452,-11.171 4.631,-22.342 6.811,-33.513 0.818,-3.814 1.907,-7.628 2.725,-11.715 0.272,-1.09 0.545,-2.18 -1.09,-2.453 -10.619,-3.588 -22.138,-3.492 -32.695,0.273 -2.725,1.09 -6.267,1.907 -7.902,4.359 -2.179,3.27 -6.539,4.905 -8.718,9.264 z m 82.01,-24.794 c -7.084,26.701 -12.261,53.675 -16.892,80.921 6.266,-26.974 11.171,-53.947 16.892,-80.921 z m -72.202,-44.956 c 6.729,-3.377 13.875,-5.851 21.252,-7.356 -4.2,-0.23 -8.397,0.516 -12.261,2.179 -0.545,0.273 -1.362,0.545 -1.907,-0.272 -0.272,-0.273 1.09,-1.09 -0.272,-0.818 -0.545,0 -1.635,0.273 -1.635,1.09 -0.273,2.452 -1.09,2.452 -2.997,1.09 -1.09,-0.817 -1.635,0.273 -2.452,0.545 -0.818,0.273 -0.545,0.817 0,1.362 1.634,0.545 -0.273,1.09 0.272,2.18 z M 425.856,569.17 c -0.048,-6.988 -0.963,-13.944 -2.725,-20.707 0.272,6.971 1.184,13.903 2.725,20.707 z m 41.959,117.158 c 0.137,1.723 0.137,3.454 0,5.177 -0.273,1.907 1.362,4.087 2.179,5.994 0.273,0.545 0.545,1.635 1.363,1.362 0.817,-0.272 0.545,-1.362 0.272,-2.179 -1.09,-3.27 -2.452,-6.812 -3.814,-10.354 z M 336.216,457.734 c 4.208,0.191 8.422,-0.176 12.533,-1.09 -4.086,-0.273 -8.446,-1.362 -12.533,1.09 z m -32.967,12.533 c 2.221,-0.88 4.255,-2.175 5.994,-3.815 -0.545,0.273 -1.363,0.273 -2.18,0.545 0.565,-1.189 1.299,-2.29 2.18,-3.269 -1.908,0.817 -3.542,1.635 -5.177,2.452 -0.273,0.272 -0.545,0.545 -0.545,0.817 0,0.273 0.545,0.545 1.09,0.545 0.545,0 0.817,-0.817 1.362,0 -0.545,1.09 -1.907,1.363 -2.724,2.725 z m 154.485,238.948 c -0.65,-3.352 -1.846,-6.573 -3.542,-9.536 0.272,3.542 0.545,7.084 3.542,9.536 z M 430.76,517.13 c 0,3.27 0.273,6.539 0.273,10.081 -0.273,-3.269 2.452,-6.811 -0.273,-10.081 z m -0.272,-57.762 c 2.179,-1.634 4.087,-3.269 6.266,-4.904 -2.824,0.376 -5.223,2.253 -6.266,4.904 z m -52.04,20.435 c -0.818,-1.635 -2.452,-1.362 -3.27,-2.18 0,0 -0.545,0 -0.545,0.273 v 1.09 c 1.09,0.272 2.18,1.362 3.815,0.817 z m 85.28,132.688 c -0.217,0.32 -0.313,0.706 -0.273,1.09 l 6.539,26.156 c -1.539,-9.199 -3.632,-18.298 -6.266,-27.246 z m -55.037,-50.405 c -1.09,-6.811 -1.907,-13.078 -2.725,-19.345 -0.128,6.553 0.792,13.083 2.725,19.345 z M 434.03,689.87 c -1.09,-5.449 -2.725,-10.898 -4.087,-16.348 0.684,5.597 2.056,11.088 4.087,16.348 z m -22.615,-101.9 -2.452,-15.53 c -0.12,5.281 0.711,10.542 2.452,15.53 z m 3.27,14.985 c -0.545,-2.997 -1.362,-6.266 -2.18,-9.264 0.043,3.21 0.787,6.372 2.18,9.264 z"
             transform="matrix(1.00025,0,0,1,-154.183,-437.815)"
             id="path53"
             style="fill:url(#fill4)"
             inkscape:connector-curvature="0" />
          <path
             d="m 773.515,688.235 c 0.2,5.218 -3.868,9.609 -9.086,9.809 -0.241,0.009 -0.481,0.009 -0.722,0 h -170.56 c -5.218,0.199 -9.61,-3.869 -9.809,-9.086 -0.009,-0.241 -0.009,-0.482 0,-0.723 v -170.56 c -0.199,-5.218 3.869,-9.609 9.086,-9.809 0.241,-0.009 0.482,-0.009 0.723,0 h 63.21 c 5.218,-0.199 9.61,3.869 9.809,9.087 0.009,0.24 0.009,0.481 0,0.722 v 98.358 c -0.312,4.504 3.086,8.407 7.59,8.719 0.376,0.026 0.753,0.026 1.129,0 h 88.822 c 5.218,-0.199 9.609,3.869 9.808,9.086 0.01,0.241 0.01,0.482 0,0.723 z m -67.842,95.361 v -10.353 l -6.812,-6.812 h -44.956 l -6.811,6.812 v 10.898 H 583.338 V 740.82 l 28.881,-28.881 h 132.688 l 28.881,28.881 v 62.666 l -19.345,19.345 -83.645,23.976 h 102.99 v 55.855 H 583.61 v -68.933 l 19.345,-19.344 z m 108.984,23.977 c -22.614,-7.901 -32.423,-21.524 -32.423,-41.414 0,-37.055 32.423,-56.127 102.445,-56.127 70.023,0 102.445,19.345 102.445,56.127 0,19.89 -9.808,33.513 -32.422,41.414 24.521,8.174 35.147,22.614 35.147,43.594 0,37.054 -32.968,55.854 -105.17,55.854 -72.202,0 -105.169,-19.072 -105.169,-55.854 0.272,-20.98 10.898,-35.42 35.147,-43.594 z m 70.295,50.678 c 20.434,0 30.788,-4.905 30.788,-14.441 0,-9.536 -10.626,-14.713 -30.788,-14.713 -20.162,0 -30.516,5.177 -30.516,14.713 0,9.536 10.626,14.441 30.516,14.441 z m 29.426,-85.825 c 0,-9.537 -10.081,-14.441 -29.426,-14.441 -18.528,0 -29.153,5.177 -29.153,14.441 0,9.263 10.625,14.712 29.153,14.712 19.072,-0.272 29.426,-5.449 29.426,-14.712 z m 59.941,122.062 h 5.994 v 0.817 h -2.452 v 7.084 h -1.09 v -7.084 h -2.452 z m 8.174,7.901 h -1.09 v -7.901 h 1.362 l 1.635,3.269 1.635,-3.269 h 1.362 v 7.901 h -1.09 v -6.539 l -1.907,3.815 -1.907,-3.815 z"
             transform="matrix(1.00025,0,0,1,-154.183,-437.815)"
             id="path55"
             inkscape:connector-curvature="0" />
          <path
             d="m 768.884,923.641 c -18.528,-4.359 -43.594,0.545 -67.571,14.168 -37.327,21.525 -56.944,56.944 -44.138,79.291 8.174,14.16 27.791,19.61 50.677,16.07 -10.353,-2.45 -18.799,-7.63 -23.431,-15.8 -12.806,-22.344 6.811,-57.764 44.138,-79.288 12.47,-7.186 26.128,-12.077 40.325,-14.441"
             transform="matrix(1.00025,0,0,1,-154.183,-437.815)"
             id="path57"
             inkscape:connector-curvature="0"
             style="fill:#ee334e" />
          <path
             d="m 769.429,1011.65 c 5.449,17.98 22.069,37.6 46.045,51.22 37.327,21.52 77.924,20.71 90.73,-1.64 8.174,-14.16 3.269,-34.05 -11.171,-51.76 2.997,10.35 2.724,19.89 -1.907,28.06 -12.806,22.34 -53.403,23.16 -90.73,1.63 -12.668,-6.95 -23.864,-16.29 -32.967,-27.51"
             transform="matrix(1.00025,0,0,1,-154.183,-437.815)"
             id="path59"
             inkscape:connector-curvature="0"
             style="fill:#00a651" />
          <path
             d="m 744.09,967.78 c -12.806,13.895 -21.525,38.14 -21.525,65.39 0,43.05 20.98,77.92 46.591,77.92 16.348,0 31.061,-14.16 39.234,-35.69 -7.356,7.9 -16.075,12.26 -25.338,12.26 -25.884,0 -46.591,-34.87 -46.591,-77.92 0.147,-14.319 2.727,-28.507 7.629,-41.96"
             transform="matrix(1.00025,0,0,1,-154.183,-437.815)"
             id="path61"
             inkscape:connector-curvature="0"
             style="fill:#0081c8" />
          <path
             d="M 707.035,261.044 812.205,46.8905 917.375,261.044 Z"
             transform="matrix(1.00025,0,0,1,-60.7057,-0.815869)"
             id="path63"
             inkscape:connector-curvature="0" />
          <g
             clip-path="url(#clip5)"
             id="g77">
            <path
               d="m 349.34,154.6 h 5.8 v 138.01 h -5.8 z"
               transform="matrix(2.44612,-1.20122,1.20152,2.44551,-324.541,47.71)"
               id="path65"
               inkscape:connector-curvature="0"
               style="fill:#00ec31" />
            <path
               d="m 344.95,159.01 h 5.8 v 138.01 h -5.8 z"
               transform="matrix(2.44612,-1.20122,1.20152,2.44551,-331.053,43.6494)"
               id="path67"
               inkscape:connector-curvature="0"
               style="fill:#0017f4" />
            <path
               d="m 340.65,163.37 h 5.8 v 138.01 h -5.8 z"
               transform="matrix(2.44612,-1.20122,1.20152,2.44551,-337.486,39.6984)"
               id="path69"
               inkscape:connector-curvature="0"
               style="fill:#f5001c" />
            <path
               d="m 336.21,167.69 h 5.8 V 305.7 h -5.8 z"
               transform="matrix(2.44612,-1.20122,1.20152,2.44551,-343.916,35.5847)"
               id="path71"
               inkscape:connector-curvature="0"
               style="fill:#ffa4d5" />
            <path
               d="m 331.82,172.09 h 5.8 V 310.1 h -5.8 z"
               transform="matrix(2.44612,-1.20122,1.20152,2.44551,-350.431,31.5525)"
               id="path73"
               inkscape:connector-curvature="0"
               style="fill:#faf03d" />
            <path
               d="m 327.43,176.5 h 5.8 v 138.01 h -5.8 z"
               transform="matrix(2.44612,-1.20122,1.20152,2.44551,-356.944,27.4933)"
               id="path75"
               inkscape:connector-curvature="0"
               style="fill:#00ef33" />
          </g>
          <g
             clip-path="url(#clip6)"
             id="g89">
            <path
               d="m 705.945,43.8934 h 21.252 V 322.621 h -21.252 z"
               transform="matrix(1.00025,0,0,1,-60.7057,-0.815869)"
               id="path79"
               inkscape:connector-curvature="0"
               style="fill:#eaeaea" />
            <path
               d="m 727.197,43.8934 h 21.252 V 322.621 h -21.252 z"
               transform="matrix(1.00025,0,0,1,-60.7057,-0.815869)"
               id="path81"
               inkscape:connector-curvature="0" />
            <path
               d="m 748.721,43.8934 h 21.253 V 322.621 h -21.253 z"
               transform="matrix(1.00025,0,0,1,-60.7057,-0.815869)"
               id="path83"
               inkscape:connector-curvature="0"
               style="fill:#eaeaea" />
            <path
               d="m 769.974,43.8934 h 21.251 V 322.621 h -21.251 z"
               transform="matrix(1.00025,0,0,1,-60.7057,-0.815869)"
               id="path85"
               inkscape:connector-curvature="0" />
            <path
               d="M 791.498,43.8934 H 812.75 V 322.621 h -21.252 z"
               transform="matrix(1.00025,0,0,1,-60.7057,-0.815869)"
               id="path87"
               inkscape:connector-curvature="0"
               style="fill:#eaeaea" />
          </g>
        </g>
      </g>
    </g>
  </g>
</svg>
