<?xml version="1.0" encoding="UTF-8" standalone="no"?>
<!-- Created with Inkscape (http://www.inkscape.org/) -->

<svg
   width="23.723358mm"
   height="13.761712mm"
   viewBox="0 0 23.72336 13.761713"
   version="1.1"
   id="svg1"
   inkscape:version="1.4 (e7c3feb1, 2024-10-09)"
   sodipodi:docname="BTH.svg"
   xmlns:inkscape="http://www.inkscape.org/namespaces/inkscape"
   xmlns:sodipodi="http://sodipodi.sourceforge.net/DTD/sodipodi-0.dtd"
   xmlns="http://www.w3.org/2000/svg"
   xmlns:svg="http://www.w3.org/2000/svg">
  <sodipodi:namedview
     id="namedview1"
     pagecolor="#ffffff"
     bordercolor="#000000"
     borderopacity="0.25"
     inkscape:showpageshadow="2"
     inkscape:pageopacity="0.0"
     inkscape:pagecheckerboard="0"
     inkscape:deskcolor="#d1d1d1"
     inkscape:document-units="mm"
     inkscape:zoom="2.096401"
     inkscape:cx="-28.381975"
     inkscape:cy="49.370326"
     inkscape:window-width="1440"
     inkscape:window-height="872"
     inkscape:window-x="0"
     inkscape:window-y="28"
     inkscape:window-maximized="0"
     inkscape:current-layer="layer1" />
  <defs
     id="defs1">
    <clipPath
       clipPathUnits="userSpaceOnUse"
       id="clipPath46">
      <path
         d="M 0,0 H 960.009 V 540 H 0 Z"
         transform="translate(-335.30581,-447.22351)"
         id="path46" />
    </clipPath>
    <clipPath
       clipPathUnits="userSpaceOnUse"
       id="clipPath48">
      <path
         d="M 0,0 H 960.009 V 540 H 0 Z"
         transform="translate(-366.36111,-395.97531)"
         id="path48" />
    </clipPath>
    <clipPath
       clipPathUnits="userSpaceOnUse"
       id="clipPath46-4">
      <path
         d="M 0,0 H 960.009 V 540 H 0 Z"
         transform="translate(-335.30581,-447.22351)"
         id="path46-1" />
    </clipPath>
    <clipPath
       clipPathUnits="userSpaceOnUse"
       id="clipPath48-8">
      <path
         d="M 0,0 H 960.009 V 540 H 0 Z"
         transform="translate(-366.36111,-395.97531)"
         id="path48-8" />
    </clipPath>
    <clipPath
       clipPathUnits="userSpaceOnUse"
       id="clipPath10">
      <path
         d="M 0,0 H 960.009 V 540 H 0 Z"
         transform="translate(-452.25271,-448.21871)"
         id="path10" />
    </clipPath>
    <clipPath
       clipPathUnits="userSpaceOnUse"
       id="clipPath12">
      <path
         d="M 0,0 H 960.009 V 540 H 0 Z"
         transform="translate(-445.51041,-428.84291)"
         id="path12" />
    </clipPath>
    <clipPath
       clipPathUnits="userSpaceOnUse"
       id="clipPath14">
      <path
         d="M 0,0 H 960.009 V 540 H 0 Z"
         transform="translate(-490.38481,-447.77471)"
         id="path14" />
    </clipPath>
    <clipPath
       clipPathUnits="userSpaceOnUse"
       id="clipPath16">
      <path
         d="M 0,0 H 960.009 V 540 H 0 Z"
         transform="translate(-520.07251,-407.43611)"
         id="path16" />
    </clipPath>
    <clipPath
       clipPathUnits="userSpaceOnUse"
       id="clipPath18">
      <path
         d="M 0,0 H 960.009 V 540 H 0 Z"
         transform="translate(-475.72791,-420.29251)"
         id="path18" />
    </clipPath>
    <clipPath
       clipPathUnits="userSpaceOnUse"
       id="clipPath20">
      <path
         d="M 0,0 H 960.009 V 540 H 0 Z"
         transform="translate(-532.40951,-415.32891)"
         id="path20" />
    </clipPath>
    <clipPath
       clipPathUnits="userSpaceOnUse"
       id="clipPath22">
      <path
         d="M 0,0 H 960.009 V 540 H 0 Z"
         transform="translate(-585.24491,-404.67841)"
         id="path22" />
    </clipPath>
    <clipPath
       clipPathUnits="userSpaceOnUse"
       id="clipPath24">
      <path
         d="M 0,0 H 960.009 V 540 H 0 Z"
         transform="translate(-546.73501,-439.46011)"
         id="path24" />
    </clipPath>
    <clipPath
       clipPathUnits="userSpaceOnUse"
       id="clipPath26">
      <path
         d="M 0,0 H 960.009 V 540 H 0 Z"
         transform="translate(-597.25132,-396.91631)"
         id="path26" />
    </clipPath>
    <clipPath
       clipPathUnits="userSpaceOnUse"
       id="clipPath28">
      <path
         d="M 0,0 H 960.009 V 540 H 0 Z"
         transform="translate(-644.79592,-427.55181)"
         id="path28" />
    </clipPath>
    <clipPath
       clipPathUnits="userSpaceOnUse"
       id="clipPath30">
      <path
         d="M 0,0 H 960.009 V 540 H 0 Z"
         transform="translate(-722.31742,-442.86561)"
         id="path30" />
    </clipPath>
    <clipPath
       clipPathUnits="userSpaceOnUse"
       id="clipPath32">
      <path
         d="M 0,0 H 960.009 V 540 H 0 Z"
         transform="translate(-713.80762,-411.31901)"
         id="path32" />
    </clipPath>
    <clipPath
       clipPathUnits="userSpaceOnUse"
       id="clipPath34">
      <path
         d="M 0,0 H 960.009 V 540 H 0 Z"
         transform="translate(-711.27122,-406.75661)"
         id="path34" />
    </clipPath>
    <clipPath
       clipPathUnits="userSpaceOnUse"
       id="clipPath36">
      <path
         d="M 0,0 H 960.009 V 540 H 0 Z"
         transform="translate(-788.58924,-392.63841)"
         id="path36" />
    </clipPath>
    <clipPath
       clipPathUnits="userSpaceOnUse"
       id="clipPath38">
      <path
         d="M 0,0 H 960.009 V 540 H 0 Z"
         transform="translate(-775.73004,-429.83291)"
         id="path38" />
    </clipPath>
    <clipPath
       clipPathUnits="userSpaceOnUse"
       id="clipPath40">
      <path
         d="M 0,0 H 960.009 V 540 H 0 Z"
         transform="translate(-854.0284,-447.94411)"
         id="path40" />
    </clipPath>
    <clipPath
       clipPathUnits="userSpaceOnUse"
       id="clipPath42">
      <path
         d="M 0,0 H 960.009 V 540 H 0 Z"
         transform="translate(-841.42262,-414.05971)"
         id="path42" />
    </clipPath>
    <clipPath
       clipPathUnits="userSpaceOnUse"
       id="clipPath44">
      <path
         d="M 0,0 H 960.009 V 540 H 0 Z"
         transform="translate(-828.18625,-402.03771)"
         id="path44" />
    </clipPath>
    <clipPath
       clipPathUnits="userSpaceOnUse"
       id="clipPath186">
      <path
         d="M 0,0 H 960.009 V 540 H 0 Z"
         transform="translate(-796.23144,-323.72221)"
         id="path186" />
    </clipPath>
    <clipPath
       clipPathUnits="userSpaceOnUse"
       id="clipPath188">
      <path
         d="M 0,0 H 960.009 V 540 H 0 Z"
         transform="translate(-837.6514,-370.80791)"
         id="path188" />
    </clipPath>
    <clipPath
       clipPathUnits="userSpaceOnUse"
       id="clipPath182">
      <path
         d="M 0,0 H 960.009 V 540 H 0 Z"
         transform="translate(-736.95462,-375.25501)"
         id="path182" />
    </clipPath>
    <clipPath
       clipPathUnits="userSpaceOnUse"
       id="clipPath184">
      <path
         d="M 0,0 H 960.009 V 540 H 0 Z"
         transform="translate(-768.50649,-358.25011)"
         id="path184" />
    </clipPath>
    <clipPath
       clipPathUnits="userSpaceOnUse"
       id="clipPath178">
      <path
         d="M 0,0 H 960.009 V 540 H 0 Z"
         transform="translate(-720.27222,-375.61331)"
         id="path178" />
    </clipPath>
    <clipPath
       clipPathUnits="userSpaceOnUse"
       id="clipPath180">
      <path
         d="M 0,0 H 960.009 V 540 H 0 Z"
         transform="translate(-708.29912,-339.89981)"
         id="path180" />
    </clipPath>
    <clipPath
       clipPathUnits="userSpaceOnUse"
       id="clipPath174">
      <path
         d="M 0,0 H 960.009 V 540 H 0 Z"
         transform="translate(-632.38852,-318.07351)"
         id="path174" />
    </clipPath>
    <clipPath
       clipPathUnits="userSpaceOnUse"
       id="clipPath176">
      <path
         d="M 0,0 H 960.009 V 540 H 0 Z"
         transform="translate(-651.53441,-331.09111)"
         id="path176" />
    </clipPath>
    <clipPath
       clipPathUnits="userSpaceOnUse"
       id="clipPath170">
      <path
         d="M 0,0 H 960.009 V 540 H 0 Z"
         transform="translate(-591.96502,-324.88781)"
         id="path170" />
    </clipPath>
    <clipPath
       clipPathUnits="userSpaceOnUse"
       id="clipPath172">
      <path
         d="M 0,0 H 960.009 V 540 H 0 Z"
         transform="translate(-586.33631,-340.16661)"
         id="path172" />
    </clipPath>
    <clipPath
       clipPathUnits="userSpaceOnUse"
       id="clipPath166">
      <path
         d="M 0,0 H 960.009 V 540 H 0 Z"
         transform="translate(-524.71871,-320.54331)"
         id="path166" />
    </clipPath>
    <clipPath
       clipPathUnits="userSpaceOnUse"
       id="clipPath168">
      <path
         d="M 0,0 H 960.009 V 540 H 0 Z"
         transform="translate(-503.36561,-325.03411)"
         id="path168" />
    </clipPath>
    <clipPath
       clipPathUnits="userSpaceOnUse"
       id="clipPath160">
      <path
         d="M 0,0 H 960.009 V 540 H 0 Z"
         transform="translate(-403.48081,-318.39281)"
         id="path160" />
    </clipPath>
    <clipPath
       clipPathUnits="userSpaceOnUse"
       id="clipPath162">
      <path
         d="M 0,0 H 960.009 V 540 H 0 Z"
         transform="translate(-451.85691,-327.41961)"
         id="path162" />
    </clipPath>
    <clipPath
       clipPathUnits="userSpaceOnUse"
       id="clipPath164">
      <path
         d="M 0,0 H 960.009 V 540 H 0 Z"
         transform="translate(-409.77981,-357.93981)"
         id="path164" />
    </clipPath>
    <clipPath
       clipPathUnits="userSpaceOnUse"
       id="clipPath156">
      <path
         d="M 0,0 H 960.009 V 540 H 0 Z"
         transform="translate(-368.23991,-318.73791)"
         id="path156" />
    </clipPath>
    <clipPath
       clipPathUnits="userSpaceOnUse"
       id="clipPath158">
      <path
         d="M 0,0 H 960.009 V 540 H 0 Z"
         transform="translate(-383.86171,-342.63551)"
         id="path158" />
    </clipPath>
    <clipPath
       clipPathUnits="userSpaceOnUse"
       id="clipPath114">
      <path
         d="M 0,0 H 960.009 V 540 H 0 Z"
         transform="translate(-392.75611,-298.45791)"
         id="path114" />
    </clipPath>
    <clipPath
       clipPathUnits="userSpaceOnUse"
       id="clipPath116">
      <path
         d="M 0,0 H 960.009 V 540 H 0 Z"
         transform="translate(-387.31901,-254.33761)"
         id="path116" />
    </clipPath>
    <clipPath
       clipPathUnits="userSpaceOnUse"
       id="clipPath118">
      <path
         d="M 0,0 H 960.009 V 540 H 0 Z"
         transform="translate(-360.51291,-262.97961)"
         id="path118" />
    </clipPath>
    <clipPath
       clipPathUnits="userSpaceOnUse"
       id="clipPath120">
      <path
         d="M 0,0 H 960.009 V 540 H 0 Z"
         transform="translate(-455.62551,-246.02871)"
         id="path120" />
    </clipPath>
    <clipPath
       clipPathUnits="userSpaceOnUse"
       id="clipPath122">
      <path
         d="M 0,0 H 960.009 V 540 H 0 Z"
         transform="translate(-452.63151,-264.6049)"
         id="path122" />
    </clipPath>
    <clipPath
       clipPathUnits="userSpaceOnUse"
       id="clipPath124">
      <path
         d="M 0,0 H 960.009 V 540 H 0 Z"
         transform="translate(-409.98541,-258.8899)"
         id="path124" />
    </clipPath>
    <clipPath
       clipPathUnits="userSpaceOnUse"
       id="clipPath126">
      <path
         d="M 0,0 H 960.009 V 540 H 0 Z"
         transform="translate(-473.91801,-244.75861)"
         id="path126" />
    </clipPath>
    <clipPath
       clipPathUnits="userSpaceOnUse"
       id="clipPath128">
      <path
         d="M 0,0 H 960.009 V 540 H 0 Z"
         transform="translate(-522.03322,-284.9617)"
         id="path128" />
    </clipPath>
    <clipPath
       clipPathUnits="userSpaceOnUse"
       id="clipPath130">
      <path
         d="M 0,0 H 960.009 V 540 H 0 Z"
         transform="translate(-566.28982,-245.4835)"
         id="path130" />
    </clipPath>
    <clipPath
       clipPathUnits="userSpaceOnUse"
       id="clipPath132">
      <path
         d="M 0,0 H 960.009 V 540 H 0 Z"
         transform="translate(-579.34751,-261.87991)"
         id="path132" />
    </clipPath>
    <clipPath
       clipPathUnits="userSpaceOnUse"
       id="clipPath134">
      <path
         d="M 0,0 H 960.009 V 540 H 0 Z"
         transform="translate(-599.74111,-300.49821)"
         id="path134" />
    </clipPath>
    <clipPath
       clipPathUnits="userSpaceOnUse"
       id="clipPath136">
      <path
         d="M 0,0 H 960.009 V 540 H 0 Z"
         transform="translate(-607.69802,-279.2284)"
         id="path136" />
    </clipPath>
    <clipPath
       clipPathUnits="userSpaceOnUse"
       id="clipPath138">
      <path
         d="M 0,0 H 960.009 V 540 H 0 Z"
         transform="translate(-650.53442,-256.29601)"
         id="path138" />
    </clipPath>
    <clipPath
       clipPathUnits="userSpaceOnUse"
       id="clipPath140">
      <path
         d="M 0,0 H 960.009 V 540 H 0 Z"
         transform="translate(-622.88372,-267.98611)"
         id="path140" />
    </clipPath>
    <clipPath
       clipPathUnits="userSpaceOnUse"
       id="clipPath142">
      <path
         d="M 0,0 H 960.009 V 540 H 0 Z"
         transform="translate(-650.88982,-289.31181)"
         id="path142" />
    </clipPath>
    <clipPath
       clipPathUnits="userSpaceOnUse"
       id="clipPath144">
      <path
         d="M 0,0 H 960.009 V 540 H 0 Z"
         transform="translate(-670.90652,-304.59101)"
         id="path144" />
    </clipPath>
    <clipPath
       clipPathUnits="userSpaceOnUse"
       id="clipPath146">
      <path
         d="M 0,0 H 960.009 V 540 H 0 Z"
         transform="translate(-675.34091,-252.8968)"
         id="path146" />
    </clipPath>
    <clipPath
       clipPathUnits="userSpaceOnUse"
       id="clipPath148">
      <path
         d="M 0,0 H 960.009 V 540 H 0 Z"
         transform="translate(-731.60292,-301.35641)"
         id="path148" />
    </clipPath>
    <clipPath
       clipPathUnits="userSpaceOnUse"
       id="clipPath150">
      <path
         d="M 0,0 H 960.009 V 540 H 0 Z"
         transform="translate(-769.25522,-269.3509)"
         id="path150" />
    </clipPath>
    <clipPath
       clipPathUnits="userSpaceOnUse"
       id="clipPath152">
      <path
         d="M 0,0 H 960.009 V 540 H 0 Z"
         transform="translate(-797.62959,-270.71421)"
         id="path152" />
    </clipPath>
    <clipPath
       clipPathUnits="userSpaceOnUse"
       id="clipPath154">
      <path
         d="M 0,0 H 960.009 V 540 H 0 Z"
         transform="translate(-819.53545,-251.29921)"
         id="path154" />
    </clipPath>
    <clipPath
       clipPathUnits="userSpaceOnUse"
       id="clipPath106">
      <path
         d="M 0,0 H 960.009 V 540 H 0 Z"
         transform="translate(-854.43355,-222.87901)"
         id="path106" />
    </clipPath>
    <clipPath
       clipPathUnits="userSpaceOnUse"
       id="clipPath108">
      <path
         d="M 0,0 H 960.009 V 540 H 0 Z"
         transform="translate(-845.89442,-183.77151)"
         id="path108" />
    </clipPath>
    <clipPath
       clipPathUnits="userSpaceOnUse"
       id="clipPath110">
      <path
         d="M 0,0 H 960.009 V 540 H 0 Z"
         transform="translate(-827.15155,-207.2536)"
         id="path110" />
    </clipPath>
    <clipPath
       clipPathUnits="userSpaceOnUse"
       id="clipPath112">
      <path
         d="M 0,0 H 960.009 V 540 H 0 Z"
         transform="translate(-821.5558,-184.11621)"
         id="path112" />
    </clipPath>
    <clipPath
       clipPathUnits="userSpaceOnUse"
       id="clipPath100">
      <path
         d="M 0,0 H 960.009 V 540 H 0 Z"
         transform="translate(-788.83644,-175.0057)"
         id="path100" />
    </clipPath>
    <clipPath
       clipPathUnits="userSpaceOnUse"
       id="clipPath102">
      <path
         d="M 0,0 H 960.009 V 540 H 0 Z"
         transform="translate(-762.95784,-218.90061)"
         id="path102" />
    </clipPath>
    <clipPath
       clipPathUnits="userSpaceOnUse"
       id="clipPath104">
      <path
         d="M 0,0 H 960.009 V 540 H 0 Z"
         transform="translate(-767.37212,-210.89581)"
         id="path104" />
    </clipPath>
    <clipPath
       clipPathUnits="userSpaceOnUse"
       id="clipPath96">
      <path
         d="M 0,0 H 960.009 V 540 H 0 Z"
         transform="translate(-667.61321,-172.85541)"
         id="path96" />
    </clipPath>
    <clipPath
       clipPathUnits="userSpaceOnUse"
       id="clipPath98">
      <path
         d="M 0,0 H 960.009 V 540 H 0 Z"
         transform="translate(-707.81362,-221.51581)"
         id="path98" />
    </clipPath>
    <clipPath
       clipPathUnits="userSpaceOnUse"
       id="clipPath88">
      <path
         d="M 0,0 H 960.009 V 540 H 0 Z"
         transform="translate(-599.45281,-229.32291)"
         id="path88" />
    </clipPath>
    <clipPath
       clipPathUnits="userSpaceOnUse"
       id="clipPath90">
      <path
         d="M 0,0 H 960.009 V 540 H 0 Z"
         transform="translate(-649.90772,-199.2534)"
         id="path90" />
    </clipPath>
    <clipPath
       clipPathUnits="userSpaceOnUse"
       id="clipPath92">
      <path
         d="M 0,0 H 960.009 V 540 H 0 Z"
         transform="translate(-638.90842,-203.66491)"
         id="path92" />
    </clipPath>
    <clipPath
       clipPathUnits="userSpaceOnUse"
       id="clipPath94">
      <path
         d="M 0,0 H 960.009 V 540 H 0 Z"
         transform="translate(-628.77641,-189.4174)"
         id="path94" />
    </clipPath>
    <clipPath
       clipPathUnits="userSpaceOnUse"
       id="clipPath84">
      <path
         d="M 0,0 H 960.009 V 540 H 0 Z"
         transform="translate(-584.37121,-231.34611)"
         id="path84" />
    </clipPath>
    <clipPath
       clipPathUnits="userSpaceOnUse"
       id="clipPath86">
      <path
         d="M 0,0 H 960.009 V 540 H 0 Z"
         transform="translate(-586.71481,-200.10211)"
         id="path86" />
    </clipPath>
    <clipPath
       clipPathUnits="userSpaceOnUse"
       id="clipPath74">
      <path
         d="M 0,0 H 960.009 V 540 H 0 Z"
         transform="translate(-469.54581,-229.89861)"
         id="path74" />
    </clipPath>
    <clipPath
       clipPathUnits="userSpaceOnUse"
       id="clipPath76">
      <path
         d="M 0,0 H 960.009 V 540 H 0 Z"
         transform="translate(-504.62411,-187.19301)"
         id="path76" />
    </clipPath>
    <clipPath
       clipPathUnits="userSpaceOnUse"
       id="clipPath78">
      <path
         d="M 0,0 H 960.009 V 540 H 0 Z"
         transform="translate(-479.18201,-202.14411)"
         id="path78" />
    </clipPath>
    <clipPath
       clipPathUnits="userSpaceOnUse"
       id="clipPath80">
      <path
         d="M 0,0 H 960.009 V 540 H 0 Z"
         transform="translate(-512.10071,-205.33581)"
         id="path80" />
    </clipPath>
    <clipPath
       clipPathUnits="userSpaceOnUse"
       id="clipPath82">
      <path
         d="M 0,0 H 960.009 V 540 H 0 Z"
         transform="translate(-504.38371,-189.2929)"
         id="path82" />
    </clipPath>
    <clipPath
       clipPathUnits="userSpaceOnUse"
       id="clipPath62">
      <path
         d="M 0,0 H 960.009 V 540 H 0 Z"
         transform="translate(-400.17211,-197.133)"
         id="path62" />
    </clipPath>
    <clipPath
       clipPathUnits="userSpaceOnUse"
       id="clipPath64">
      <path
         d="M 0,0 H 960.009 V 540 H 0 Z"
         transform="translate(-438.38491,-182.84691)"
         id="path64" />
    </clipPath>
    <clipPath
       clipPathUnits="userSpaceOnUse"
       id="clipPath66">
      <path
         d="M 0,0 H 960.009 V 540 H 0 Z"
         transform="translate(-416.77671,-183.0805)"
         id="path66" />
    </clipPath>
    <clipPath
       clipPathUnits="userSpaceOnUse"
       id="clipPath68">
      <path
         d="M 0,0 H 960.009 V 540 H 0 Z"
         transform="translate(-433.64651,-183.8322)"
         id="path68" />
    </clipPath>
    <clipPath
       clipPathUnits="userSpaceOnUse"
       id="clipPath70">
      <path
         d="M 0,0 H 960.009 V 540 H 0 Z"
         transform="translate(-417.30471,-184.38231)"
         id="path70" />
    </clipPath>
    <clipPath
       clipPathUnits="userSpaceOnUse"
       id="clipPath72">
      <path
         d="M 0,0 H 960.009 V 540 H 0 Z"
         transform="translate(-438.46141,-184.6746)"
         id="path72" />
    </clipPath>
    <clipPath
       clipPathUnits="userSpaceOnUse"
       id="clipPath58">
      <path
         d="M 0,0 H 960.009 V 540 H 0 Z"
         transform="translate(-335.41721,-174.7122)"
         id="path58" />
    </clipPath>
    <clipPath
       clipPathUnits="userSpaceOnUse"
       id="clipPath60">
      <path
         d="M 0,0 H 960.009 V 540 H 0 Z"
         transform="translate(-382.04741,-212.30661)"
         id="path60" />
    </clipPath>
    <clipPath
       clipPathUnits="userSpaceOnUse"
       id="clipPath54">
      <path
         d="M 0,0 H 960.009 V 540 H 0 Z"
         transform="translate(-458.80751,-133.5075)"
         id="path54" />
    </clipPath>
    <clipPath
       clipPathUnits="userSpaceOnUse"
       id="clipPath56">
      <path
         d="M 0,0 H 960.009 V 540 H 0 Z"
         transform="translate(-453.72421,-125.85711)"
         id="path56" />
    </clipPath>
    <clipPath
       clipPathUnits="userSpaceOnUse"
       id="clipPath50">
      <path
         d="M 0,0 H 960.009 V 540 H 0 Z"
         transform="translate(-392.80211,-99.8527)"
         id="path50" />
    </clipPath>
    <clipPath
       clipPathUnits="userSpaceOnUse"
       id="clipPath52">
      <path
         d="M 0,0 H 960.009 V 540 H 0 Z"
         transform="translate(-380.64201,-148.4077)"
         id="path52" />
    </clipPath>
    <clipPath
       clipPathUnits="userSpaceOnUse"
       id="clipPath134-0">
      <path
         d="M 0,0 H 960.009 V 540 H 0 Z"
         transform="translate(-599.74111,-300.49821)"
         id="path134-8" />
    </clipPath>
    <clipPath
       clipPathUnits="userSpaceOnUse"
       id="clipPath136-4">
      <path
         d="M 0,0 H 960.009 V 540 H 0 Z"
         transform="translate(-607.69802,-279.2284)"
         id="path136-9" />
    </clipPath>
    <clipPath
       clipPathUnits="userSpaceOnUse"
       id="clipPath138-3">
      <path
         d="M 0,0 H 960.009 V 540 H 0 Z"
         transform="translate(-650.53442,-256.29601)"
         id="path138-0" />
    </clipPath>
    <clipPath
       clipPathUnits="userSpaceOnUse"
       id="clipPath140-5">
      <path
         d="M 0,0 H 960.009 V 540 H 0 Z"
         transform="translate(-622.88372,-267.98611)"
         id="path140-2" />
    </clipPath>
    <clipPath
       clipPathUnits="userSpaceOnUse"
       id="clipPath142-3">
      <path
         d="M 0,0 H 960.009 V 540 H 0 Z"
         transform="translate(-650.88982,-289.31181)"
         id="path142-8" />
    </clipPath>
    <clipPath
       clipPathUnits="userSpaceOnUse"
       id="clipPath7">
      <path
         d="M 71.54,135.024 H 786.197 V 406.688 H 71.54 Z"
         transform="translate(-120.33831,-361.26761)"
         id="path7" />
    </clipPath>
    <clipPath
       clipPathUnits="userSpaceOnUse"
       id="clipPath9">
      <path
         d="M 71.54,135.024 H 786.197 V 406.688 H 71.54 Z"
         transform="translate(-98.008105,-367.56301)"
         id="path9" />
    </clipPath>
    <clipPath
       clipPathUnits="userSpaceOnUse"
       id="clipPath11">
      <path
         d="M 71.54,135.024 H 786.197 V 406.688 H 71.54 Z"
         transform="translate(-125.4883,-382.82231)"
         id="path11" />
    </clipPath>
    <clipPath
       clipPathUnits="userSpaceOnUse"
       id="clipPath13">
      <path
         d="M 71.54,135.024 H 786.197 V 406.688 H 71.54 Z"
         transform="translate(-132.03981,-379.22011)"
         id="path13" />
    </clipPath>
    <clipPath
       clipPathUnits="userSpaceOnUse"
       id="clipPath15">
      <path
         d="M 71.54,135.024 H 786.197 V 406.688 H 71.54 Z"
         transform="translate(-244.75051,-368.09121)"
         id="path15" />
    </clipPath>
    <clipPath
       clipPathUnits="userSpaceOnUse"
       id="clipPath17">
      <path
         d="M 71.54,135.024 H 786.197 V 406.688 H 71.54 Z"
         transform="translate(-225.03901,-384.99001)"
         id="path17" />
    </clipPath>
    <clipPath
       clipPathUnits="userSpaceOnUse"
       id="clipPath63">
      <path
         d="M 71.54,135.024 H 786.197 V 406.688 H 71.54 Z"
         transform="translate(-360.43331,-361.13701)"
         id="path63" />
    </clipPath>
    <clipPath
       clipPathUnits="userSpaceOnUse"
       id="clipPath65">
      <path
         d="M 71.54,135.024 H 786.197 V 406.688 H 71.54 Z"
         transform="translate(-365.65321,-382.39291)"
         id="path65" />
    </clipPath>
    <clipPath
       clipPathUnits="userSpaceOnUse"
       id="clipPath67">
      <path
         d="M 71.54,135.024 H 786.197 V 406.688 H 71.54 Z"
         transform="translate(-338.56601,-372.95891)"
         id="path67" />
    </clipPath>
    <clipPath
       clipPathUnits="userSpaceOnUse"
       id="clipPath69">
      <path
         d="M 81.746,165.029 H 753.988 V 403.638 H 81.746 Z"
         transform="translate(-358.47721,-378.83541)"
         id="path69" />
    </clipPath>
    <clipPath
       clipPathUnits="userSpaceOnUse"
       id="clipPath71">
      <path
         d="M 81.746,165.029 H 753.988 V 403.638 H 81.746 Z"
         transform="translate(-474.39791,-380.32221)"
         id="path71" />
    </clipPath>
    <clipPath
       clipPathUnits="userSpaceOnUse"
       id="clipPath73">
      <path
         d="M 71.54,135.024 H 786.197 V 406.688 H 71.54 Z"
         transform="translate(-474.23261,-361.66421)"
         id="path73" />
    </clipPath>
    <clipPath
       clipPathUnits="userSpaceOnUse"
       id="clipPath27">
      <path
         d="M 71.54,135.024 H 786.197 V 406.688 H 71.54 Z"
         transform="translate(-602.17702,-365.57641)"
         id="path27" />
    </clipPath>
    <clipPath
       clipPathUnits="userSpaceOnUse"
       id="clipPath29">
      <path
         d="M 71.54,135.024 H 786.197 V 406.688 H 71.54 Z"
         transform="translate(-610.17112,-364.70631)"
         id="path29" />
    </clipPath>
    <clipPath
       clipPathUnits="userSpaceOnUse"
       id="clipPath31">
      <path
         d="M 71.54,135.024 H 786.197 V 406.688 H 71.54 Z"
         transform="translate(-600.95632,-358.83301)"
         id="path31" />
    </clipPath>
    <clipPath
       clipPathUnits="userSpaceOnUse"
       id="clipPath33">
      <path
         d="M 71.54,135.024 H 786.197 V 406.688 H 71.54 Z"
         transform="translate(-744.02302,-361.36921)"
         id="path33" />
    </clipPath>
    <clipPath
       clipPathUnits="userSpaceOnUse"
       id="clipPath35">
      <path
         d="M 81.746,165.029 H 753.988 V 403.638 H 81.746 Z"
         transform="translate(-728.91382,-361.36921)"
         id="path35" />
    </clipPath>
    <clipPath
       clipPathUnits="userSpaceOnUse"
       id="clipPath37">
      <path
         d="M 81.746,165.029 H 753.988 V 403.638 H 81.746 Z"
         transform="translate(-749.28642,-381.48891)"
         id="path37" />
    </clipPath>
    <clipPath
       clipPathUnits="userSpaceOnUse"
       id="clipPath39">
      <path
         d="M 71.54,135.024 H 786.197 V 406.688 H 71.54 Z"
         transform="translate(-695.16202,-367.45371)"
         id="path39" />
    </clipPath>
    <clipPath
       clipPathUnits="userSpaceOnUse"
       id="clipPath41">
      <path
         d="M 71.54,135.024 H 786.197 V 406.688 H 71.54 Z"
         transform="translate(-717.49062,-361.15811)"
         id="path41" />
    </clipPath>
    <clipPath
       clipPathUnits="userSpaceOnUse"
       id="clipPath43">
      <path
         d="M 71.54,135.024 H 786.197 V 406.688 H 71.54 Z"
         transform="translate(-722.64092,-382.71301)"
         id="path43" />
    </clipPath>
    <clipPath
       clipPathUnits="userSpaceOnUse"
       id="clipPath45">
      <path
         d="M 81.746,165.029 H 753.988 V 403.638 H 81.746 Z"
         transform="translate(-721.88592,-374.35101)"
         id="path45" />
    </clipPath>
    <clipPath
       clipPathUnits="userSpaceOnUse"
       id="clipPath47">
      <path
         d="M 81.746,165.029 H 753.988 V 403.638 H 81.746 Z"
         transform="translate(-753.82314,-379.23861)"
         id="path47" />
    </clipPath>
    <clipPath
       clipPathUnits="userSpaceOnUse"
       id="clipPath19">
      <path
         d="M 71.54,135.024 H 786.197 V 406.688 H 71.54 Z"
         transform="translate(-123.6084,-280.00601)"
         id="path19" />
    </clipPath>
    <clipPath
       clipPathUnits="userSpaceOnUse"
       id="clipPath21">
      <path
         d="M 71.54,135.024 H 786.197 V 406.688 H 71.54 Z"
         transform="translate(-119.6253,-305.27221)"
         id="path21" />
    </clipPath>
    <clipPath
       clipPathUnits="userSpaceOnUse"
       id="clipPath23">
      <path
         d="M 71.54,135.024 H 786.197 V 406.688 H 71.54 Z"
         transform="translate(-262.57111,-289.6955)"
         id="path23" />
    </clipPath>
    <clipPath
       clipPathUnits="userSpaceOnUse"
       id="clipPath25">
      <path
         d="M 71.54,135.024 H 786.197 V 406.688 H 71.54 Z"
         transform="translate(-255.92941,-293.54791)"
         id="path25" />
    </clipPath>
    <clipPath
       clipPathUnits="userSpaceOnUse"
       id="clipPath75">
      <path
         d="M 71.54,135.024 H 786.197 V 406.688 H 71.54 Z"
         transform="translate(-360.21141,-265.36211)"
         id="path75" />
    </clipPath>
    <clipPath
       clipPathUnits="userSpaceOnUse"
       id="clipPath77">
      <path
         d="M 71.54,135.024 H 786.197 V 406.688 H 71.54 Z"
         transform="translate(-376.31701,-281.6081)"
         id="path77" />
    </clipPath>
    <clipPath
       clipPathUnits="userSpaceOnUse"
       id="clipPath79">
      <path
         d="M 71.54,135.024 H 786.197 V 406.688 H 71.54 Z"
         transform="translate(-341.76021,-292.09661)"
         id="path79" />
    </clipPath>
    <clipPath
       clipPathUnits="userSpaceOnUse"
       id="clipPath81">
      <path
         d="M 71.54,135.024 H 786.197 V 406.688 H 71.54 Z"
         transform="translate(-369.22601,-290.8352)"
         id="path81" />
    </clipPath>
    <clipPath
       clipPathUnits="userSpaceOnUse"
       id="clipPath83">
      <path
         d="M 71.54,135.024 H 786.197 V 406.688 H 71.54 Z"
         transform="translate(-489.28731,-270.59501)"
         id="path83" />
    </clipPath>
    <clipPath
       clipPathUnits="userSpaceOnUse"
       id="clipPath85">
      <path
         d="M 71.54,135.024 H 786.197 V 406.688 H 71.54 Z"
         transform="translate(-502.00301,-265.75381)"
         id="path85" />
    </clipPath>
    <clipPath
       clipPathUnits="userSpaceOnUse"
       id="clipPath87">
      <path
         d="M 81.746,165.029 H 753.988 V 403.638 H 81.746 Z"
         transform="translate(-483.80411,-281.56501)"
         id="path87" />
    </clipPath>
    <clipPath
       clipPathUnits="userSpaceOnUse"
       id="clipPath49">
      <path
         d="M 71.54,135.024 H 786.197 V 406.688 H 71.54 Z"
         transform="translate(-635.34791,-301.70231)"
         id="path49" />
    </clipPath>
    <clipPath
       clipPathUnits="userSpaceOnUse"
       id="clipPath51">
      <path
         d="M 71.54,135.024 H 786.197 V 406.688 H 71.54 Z"
         transform="translate(-571.51711,-266.53531)"
         id="path51" />
    </clipPath>
    <clipPath
       clipPathUnits="userSpaceOnUse"
       id="clipPath53">
      <path
         d="M 71.54,135.024 H 786.197 V 406.688 H 71.54 Z"
         transform="translate(-628.75511,-305.37471)"
         id="path53" />
    </clipPath>
    <clipPath
       clipPathUnits="userSpaceOnUse"
       id="clipPath55">
      <path
         d="M 71.54,135.024 H 786.197 V 406.688 H 71.54 Z"
         transform="translate(-587.31811,-290.40881)"
         id="path55" />
    </clipPath>
    <clipPath
       clipPathUnits="userSpaceOnUse"
       id="clipPath57">
      <path
         d="M 71.54,135.024 H 786.197 V 406.688 H 71.54 Z"
         transform="translate(-741.32712,-265.8125)"
         id="path57" />
    </clipPath>
    <clipPath
       clipPathUnits="userSpaceOnUse"
       id="clipPath59">
      <path
         d="M 71.54,135.024 H 786.197 V 406.688 H 71.54 Z"
         transform="translate(-707.94302,-285.63061)"
         id="path59" />
    </clipPath>
    <clipPath
       clipPathUnits="userSpaceOnUse"
       id="clipPath61">
      <path
         d="M 71.54,135.024 H 786.197 V 406.688 H 71.54 Z"
         transform="translate(-732.83692,-264.51221)"
         id="path61" />
    </clipPath>
    <clipPath
       clipPathUnits="userSpaceOnUse"
       id="clipPath89">
      <path
         d="M 81.746,165.029 H 753.988 V 403.638 H 81.746 Z"
         transform="translate(-109.14381,-174.43801)"
         id="path89" />
    </clipPath>
    <clipPath
       clipPathUnits="userSpaceOnUse"
       id="clipPath91">
      <path
         d="M 71.54,135.024 H 786.197 V 406.688 H 71.54 Z"
         transform="translate(-125.30601,-198.14161)"
         id="path91" />
    </clipPath>
    <clipPath
       clipPathUnits="userSpaceOnUse"
       id="clipPath93">
      <path
         d="M 71.54,135.024 H 786.197 V 406.688 H 71.54 Z"
         transform="translate(-273.82941,-167.7908)"
         id="path93" />
    </clipPath>
    <clipPath
       clipPathUnits="userSpaceOnUse"
       id="clipPath95">
      <path
         d="M 71.54,135.024 H 786.197 V 406.688 H 71.54 Z"
         transform="translate(-235.168,-180.8894)"
         id="path95" />
    </clipPath>
    <clipPath
       clipPathUnits="userSpaceOnUse"
       id="clipPath97">
      <path
         d="M 71.54,135.024 H 786.197 V 406.688 H 71.54 Z"
         transform="translate(-264.54381,-167.66461)"
         id="path97" />
    </clipPath>
    <clipPath
       clipPathUnits="userSpaceOnUse"
       id="clipPath99">
      <path
         d="M 71.54,135.024 H 786.197 V 406.688 H 71.54 Z"
         transform="translate(-350.31121,-177.9194)"
         id="path99" />
    </clipPath>
    <clipPath
       clipPathUnits="userSpaceOnUse"
       id="clipPath101">
      <path
         d="M 71.54,135.024 H 786.197 V 406.688 H 71.54 Z"
         transform="translate(-362.66791,-207.61631)"
         id="path101" />
    </clipPath>
    <clipPath
       clipPathUnits="userSpaceOnUse"
       id="clipPath103">
      <path
         d="M 71.54,135.024 H 786.197 V 406.688 H 71.54 Z"
         transform="translate(-367.37211,-202.64531)"
         id="path103" />
    </clipPath>
  </defs>
  <g
     inkscape:label="Layer 1"
     inkscape:groupmode="layer"
     id="layer1"
     transform="translate(531.28345,446.61669)">
    <path
       id="path98-0"
       d="M 0,0 C -0.307,0.104 -0.618,0.211 -0.931,0.318 0.96,1.129 2.672,2.313 3.993,3.914 5.296,5.496 6.123,7.293 6.776,9.19 7.052,9.093 7.333,9.005 7.613,8.923 8.355,8.706 9.276,8.562 9.9,8.068 10.551,7.555 10.129,6.749 9.924,6.077 9.545,4.839 9.147,3.605 8.758,2.37 8.412,1.271 8.912,0.429 9.683,0 Z m 10.296,12.68 c -0.74,0.266 -1.49,0.426 -2.202,0.694 0.433,1.215 0.966,2.379 1.776,3.441 0.846,1.11 1.849,2.141 2.965,3.015 0.671,-1.674 1.469,-3.279 2.731,-4.631 0.657,-0.706 1.403,-1.399 2.217,-1.964 -1.93,-0.367 -3.979,-0.775 -6.049,-1.197 -0.459,0.254 -0.944,0.464 -1.438,0.642 M 39.409,1.495 C 39.263,1.778 38.915,1.886 38.632,1.741 35.834,0.285 32.224,0.196 24.324,0 H 12.061 c 0.402,0.244 0.733,0.64 0.911,1.208 0.875,2.774 2.696,6.336 0.803,9.049 -0.339,0.487 -0.753,0.896 -1.212,1.244 2.1,0.426 4.165,0.834 6.095,1.197 1.395,-0.749 2.95,-1.049 4.582,-0.393 1.097,0.439 1.865,1.458 1.528,2.689 -0.285,1.04 -1.586,1.969 -2.69,1.527 -0.794,-0.319 -1.183,-0.198 -1.875,0.316 -0.677,0.502 -1.358,1.166 -1.884,1.823 -1.154,1.441 -1.663,3.367 -2.292,5.067 -0.502,1.352 -1.882,2.009 -3.211,1.306 C 8.697,22.858 5.392,18.995 3.882,14.61 3.373,13.13 3.022,11.573 2.493,10.092 -3.603,8.776 -8.344,7.696 -8.438,7.674 -8.625,7.633 -8.74,7.448 -8.699,7.261 c 0.037,-0.159 0.181,-0.268 0.337,-0.268 0.026,0 0.052,0.002 0.079,0.009 C -8.192,7.021 -3.679,8.051 2.193,9.32 2.008,8.874 1.799,8.437 1.558,8.016 0.527,6.214 -1.131,4.83 -3.092,4.143 -4.323,3.712 -4.732,2.565 -4.55,1.556 c -10.191,3.49 -21.845,7.48 -22.461,7.69 -0.3,0.103 -0.627,-0.057 -0.731,-0.358 -0.102,-0.301 0.059,-0.629 0.359,-0.732 C -26.741,7.937 -14.045,3.59 -3.557,0 h -11.974 c -0.32,0 -0.577,-0.259 -0.577,-0.577 0,-0.317 0.257,-0.576 0.577,-0.576 h 15.34 c 5.957,-2.039 10.524,-3.603 10.531,-3.606 6.488,-2.043 10.015,-3.152 12.983,-3.152 0.564,0 1.107,0.039 1.647,0.121 0.316,0.048 0.531,0.342 0.485,0.655 -0.048,0.316 -0.341,0.531 -0.657,0.483 -3.118,-0.47 -6.564,0.616 -14.099,2.988 0,0 -3.012,1.031 -7.333,2.511 h 20.973 c 8.096,0.2 11.791,0.294 14.826,1.871 0.281,0.146 0.392,0.494 0.244,0.777"
       style="fill:#242827;fill-opacity:1;fill-rule:nonzero;stroke:none"
       transform="matrix(0.35277776,0,0,-0.35277776,-521.48588,-435.6458)"
       clip-path="url(#clipPath99)" />
    <path
       id="path100-9"
       d="m 0,0 -0.527,0.34 -7.576,-10.509 -4.795,-3.508 2.084,-1.826 z"
       style="fill:#242827;fill-opacity:1;fill-rule:nonzero;stroke:none"
       transform="matrix(0.35277776,0,0,-0.35277776,-517.12672,-446.1222)"
       clip-path="url(#clipPath101)" />
    <path
       id="path102-5"
       d="M 0,0 C 1.697,-0.658 3.608,0.185 4.265,1.883 4.924,3.581 4.08,5.491 2.383,6.149 0.685,6.807 -1.225,5.964 -1.882,4.266 -2.541,2.568 -1.697,0.658 0,0"
       style="fill:#242827;fill-opacity:1;fill-rule:nonzero;stroke:none"
       transform="matrix(0.35277776,0,0,-0.35277776,-515.46718,-444.36855)"
       clip-path="url(#clipPath103)" />
  </g>
</svg>
