<?xml version="1.0" encoding="UTF-8" standalone="no"?>
<!-- Created with Inkscape (http://www.inkscape.org/) -->

<svg
   width="14.630946mm"
   height="10.285429mm"
   viewBox="0 0 14.630946 10.28543"
   version="1.1"
   id="svg1"
   inkscape:version="1.4 (e7c3feb1, 2024-10-09)"
   sodipodi:docname="IHO.svg"
   xmlns:inkscape="http://www.inkscape.org/namespaces/inkscape"
   xmlns:sodipodi="http://sodipodi.sourceforge.net/DTD/sodipodi-0.dtd"
   xmlns="http://www.w3.org/2000/svg"
   xmlns:svg="http://www.w3.org/2000/svg">
  <sodipodi:namedview
     id="namedview1"
     pagecolor="#ffffff"
     bordercolor="#000000"
     borderopacity="0.25"
     inkscape:showpageshadow="2"
     inkscape:pageopacity="0.0"
     inkscape:pagecheckerboard="0"
     inkscape:deskcolor="#d1d1d1"
     inkscape:document-units="mm"
     inkscape:zoom="2.096401"
     inkscape:cx="27.427959"
     inkscape:cy="19.318823"
     inkscape:window-width="1440"
     inkscape:window-height="872"
     inkscape:window-x="0"
     inkscape:window-y="28"
     inkscape:window-maximized="0"
     inkscape:current-layer="layer1" />
  <defs
     id="defs1">
    <clipPath
       clipPathUnits="userSpaceOnUse"
       id="clipPath46">
      <path
         d="M 0,0 H 960.009 V 540 H 0 Z"
         transform="translate(-335.30581,-447.22351)"
         id="path46" />
    </clipPath>
    <clipPath
       clipPathUnits="userSpaceOnUse"
       id="clipPath48">
      <path
         d="M 0,0 H 960.009 V 540 H 0 Z"
         transform="translate(-366.36111,-395.97531)"
         id="path48" />
    </clipPath>
    <clipPath
       clipPathUnits="userSpaceOnUse"
       id="clipPath46-4">
      <path
         d="M 0,0 H 960.009 V 540 H 0 Z"
         transform="translate(-335.30581,-447.22351)"
         id="path46-1" />
    </clipPath>
    <clipPath
       clipPathUnits="userSpaceOnUse"
       id="clipPath48-8">
      <path
         d="M 0,0 H 960.009 V 540 H 0 Z"
         transform="translate(-366.36111,-395.97531)"
         id="path48-8" />
    </clipPath>
    <clipPath
       clipPathUnits="userSpaceOnUse"
       id="clipPath10">
      <path
         d="M 0,0 H 960.009 V 540 H 0 Z"
         transform="translate(-452.25271,-448.21871)"
         id="path10" />
    </clipPath>
    <clipPath
       clipPathUnits="userSpaceOnUse"
       id="clipPath12">
      <path
         d="M 0,0 H 960.009 V 540 H 0 Z"
         transform="translate(-445.51041,-428.84291)"
         id="path12" />
    </clipPath>
    <clipPath
       clipPathUnits="userSpaceOnUse"
       id="clipPath14">
      <path
         d="M 0,0 H 960.009 V 540 H 0 Z"
         transform="translate(-490.38481,-447.77471)"
         id="path14" />
    </clipPath>
    <clipPath
       clipPathUnits="userSpaceOnUse"
       id="clipPath16">
      <path
         d="M 0,0 H 960.009 V 540 H 0 Z"
         transform="translate(-520.07251,-407.43611)"
         id="path16" />
    </clipPath>
    <clipPath
       clipPathUnits="userSpaceOnUse"
       id="clipPath18">
      <path
         d="M 0,0 H 960.009 V 540 H 0 Z"
         transform="translate(-475.72791,-420.29251)"
         id="path18" />
    </clipPath>
    <clipPath
       clipPathUnits="userSpaceOnUse"
       id="clipPath20">
      <path
         d="M 0,0 H 960.009 V 540 H 0 Z"
         transform="translate(-532.40951,-415.32891)"
         id="path20" />
    </clipPath>
    <clipPath
       clipPathUnits="userSpaceOnUse"
       id="clipPath22">
      <path
         d="M 0,0 H 960.009 V 540 H 0 Z"
         transform="translate(-585.24491,-404.67841)"
         id="path22" />
    </clipPath>
    <clipPath
       clipPathUnits="userSpaceOnUse"
       id="clipPath24">
      <path
         d="M 0,0 H 960.009 V 540 H 0 Z"
         transform="translate(-546.73501,-439.46011)"
         id="path24" />
    </clipPath>
    <clipPath
       clipPathUnits="userSpaceOnUse"
       id="clipPath26">
      <path
         d="M 0,0 H 960.009 V 540 H 0 Z"
         transform="translate(-597.25132,-396.91631)"
         id="path26" />
    </clipPath>
    <clipPath
       clipPathUnits="userSpaceOnUse"
       id="clipPath28">
      <path
         d="M 0,0 H 960.009 V 540 H 0 Z"
         transform="translate(-644.79592,-427.55181)"
         id="path28" />
    </clipPath>
    <clipPath
       clipPathUnits="userSpaceOnUse"
       id="clipPath30">
      <path
         d="M 0,0 H 960.009 V 540 H 0 Z"
         transform="translate(-722.31742,-442.86561)"
         id="path30" />
    </clipPath>
    <clipPath
       clipPathUnits="userSpaceOnUse"
       id="clipPath32">
      <path
         d="M 0,0 H 960.009 V 540 H 0 Z"
         transform="translate(-713.80762,-411.31901)"
         id="path32" />
    </clipPath>
    <clipPath
       clipPathUnits="userSpaceOnUse"
       id="clipPath34">
      <path
         d="M 0,0 H 960.009 V 540 H 0 Z"
         transform="translate(-711.27122,-406.75661)"
         id="path34" />
    </clipPath>
    <clipPath
       clipPathUnits="userSpaceOnUse"
       id="clipPath36">
      <path
         d="M 0,0 H 960.009 V 540 H 0 Z"
         transform="translate(-788.58924,-392.63841)"
         id="path36" />
    </clipPath>
    <clipPath
       clipPathUnits="userSpaceOnUse"
       id="clipPath38">
      <path
         d="M 0,0 H 960.009 V 540 H 0 Z"
         transform="translate(-775.73004,-429.83291)"
         id="path38" />
    </clipPath>
    <clipPath
       clipPathUnits="userSpaceOnUse"
       id="clipPath40">
      <path
         d="M 0,0 H 960.009 V 540 H 0 Z"
         transform="translate(-854.0284,-447.94411)"
         id="path40" />
    </clipPath>
    <clipPath
       clipPathUnits="userSpaceOnUse"
       id="clipPath42">
      <path
         d="M 0,0 H 960.009 V 540 H 0 Z"
         transform="translate(-841.42262,-414.05971)"
         id="path42" />
    </clipPath>
    <clipPath
       clipPathUnits="userSpaceOnUse"
       id="clipPath44">
      <path
         d="M 0,0 H 960.009 V 540 H 0 Z"
         transform="translate(-828.18625,-402.03771)"
         id="path44" />
    </clipPath>
    <clipPath
       clipPathUnits="userSpaceOnUse"
       id="clipPath186">
      <path
         d="M 0,0 H 960.009 V 540 H 0 Z"
         transform="translate(-796.23144,-323.72221)"
         id="path186" />
    </clipPath>
    <clipPath
       clipPathUnits="userSpaceOnUse"
       id="clipPath188">
      <path
         d="M 0,0 H 960.009 V 540 H 0 Z"
         transform="translate(-837.6514,-370.80791)"
         id="path188" />
    </clipPath>
    <clipPath
       clipPathUnits="userSpaceOnUse"
       id="clipPath182">
      <path
         d="M 0,0 H 960.009 V 540 H 0 Z"
         transform="translate(-736.95462,-375.25501)"
         id="path182" />
    </clipPath>
    <clipPath
       clipPathUnits="userSpaceOnUse"
       id="clipPath184">
      <path
         d="M 0,0 H 960.009 V 540 H 0 Z"
         transform="translate(-768.50649,-358.25011)"
         id="path184" />
    </clipPath>
    <clipPath
       clipPathUnits="userSpaceOnUse"
       id="clipPath178">
      <path
         d="M 0,0 H 960.009 V 540 H 0 Z"
         transform="translate(-720.27222,-375.61331)"
         id="path178" />
    </clipPath>
    <clipPath
       clipPathUnits="userSpaceOnUse"
       id="clipPath180">
      <path
         d="M 0,0 H 960.009 V 540 H 0 Z"
         transform="translate(-708.29912,-339.89981)"
         id="path180" />
    </clipPath>
    <clipPath
       clipPathUnits="userSpaceOnUse"
       id="clipPath174">
      <path
         d="M 0,0 H 960.009 V 540 H 0 Z"
         transform="translate(-632.38852,-318.07351)"
         id="path174" />
    </clipPath>
    <clipPath
       clipPathUnits="userSpaceOnUse"
       id="clipPath176">
      <path
         d="M 0,0 H 960.009 V 540 H 0 Z"
         transform="translate(-651.53441,-331.09111)"
         id="path176" />
    </clipPath>
    <clipPath
       clipPathUnits="userSpaceOnUse"
       id="clipPath170">
      <path
         d="M 0,0 H 960.009 V 540 H 0 Z"
         transform="translate(-591.96502,-324.88781)"
         id="path170" />
    </clipPath>
    <clipPath
       clipPathUnits="userSpaceOnUse"
       id="clipPath172">
      <path
         d="M 0,0 H 960.009 V 540 H 0 Z"
         transform="translate(-586.33631,-340.16661)"
         id="path172" />
    </clipPath>
    <clipPath
       clipPathUnits="userSpaceOnUse"
       id="clipPath166">
      <path
         d="M 0,0 H 960.009 V 540 H 0 Z"
         transform="translate(-524.71871,-320.54331)"
         id="path166" />
    </clipPath>
    <clipPath
       clipPathUnits="userSpaceOnUse"
       id="clipPath168">
      <path
         d="M 0,0 H 960.009 V 540 H 0 Z"
         transform="translate(-503.36561,-325.03411)"
         id="path168" />
    </clipPath>
    <clipPath
       clipPathUnits="userSpaceOnUse"
       id="clipPath160">
      <path
         d="M 0,0 H 960.009 V 540 H 0 Z"
         transform="translate(-403.48081,-318.39281)"
         id="path160" />
    </clipPath>
    <clipPath
       clipPathUnits="userSpaceOnUse"
       id="clipPath162">
      <path
         d="M 0,0 H 960.009 V 540 H 0 Z"
         transform="translate(-451.85691,-327.41961)"
         id="path162" />
    </clipPath>
    <clipPath
       clipPathUnits="userSpaceOnUse"
       id="clipPath164">
      <path
         d="M 0,0 H 960.009 V 540 H 0 Z"
         transform="translate(-409.77981,-357.93981)"
         id="path164" />
    </clipPath>
    <clipPath
       clipPathUnits="userSpaceOnUse"
       id="clipPath156">
      <path
         d="M 0,0 H 960.009 V 540 H 0 Z"
         transform="translate(-368.23991,-318.73791)"
         id="path156" />
    </clipPath>
    <clipPath
       clipPathUnits="userSpaceOnUse"
       id="clipPath158">
      <path
         d="M 0,0 H 960.009 V 540 H 0 Z"
         transform="translate(-383.86171,-342.63551)"
         id="path158" />
    </clipPath>
    <clipPath
       clipPathUnits="userSpaceOnUse"
       id="clipPath114">
      <path
         d="M 0,0 H 960.009 V 540 H 0 Z"
         transform="translate(-392.75611,-298.45791)"
         id="path114" />
    </clipPath>
    <clipPath
       clipPathUnits="userSpaceOnUse"
       id="clipPath116">
      <path
         d="M 0,0 H 960.009 V 540 H 0 Z"
         transform="translate(-387.31901,-254.33761)"
         id="path116" />
    </clipPath>
    <clipPath
       clipPathUnits="userSpaceOnUse"
       id="clipPath118">
      <path
         d="M 0,0 H 960.009 V 540 H 0 Z"
         transform="translate(-360.51291,-262.97961)"
         id="path118" />
    </clipPath>
    <clipPath
       clipPathUnits="userSpaceOnUse"
       id="clipPath120">
      <path
         d="M 0,0 H 960.009 V 540 H 0 Z"
         transform="translate(-455.62551,-246.02871)"
         id="path120" />
    </clipPath>
    <clipPath
       clipPathUnits="userSpaceOnUse"
       id="clipPath122">
      <path
         d="M 0,0 H 960.009 V 540 H 0 Z"
         transform="translate(-452.63151,-264.6049)"
         id="path122" />
    </clipPath>
    <clipPath
       clipPathUnits="userSpaceOnUse"
       id="clipPath124">
      <path
         d="M 0,0 H 960.009 V 540 H 0 Z"
         transform="translate(-409.98541,-258.8899)"
         id="path124" />
    </clipPath>
    <clipPath
       clipPathUnits="userSpaceOnUse"
       id="clipPath126">
      <path
         d="M 0,0 H 960.009 V 540 H 0 Z"
         transform="translate(-473.91801,-244.75861)"
         id="path126" />
    </clipPath>
    <clipPath
       clipPathUnits="userSpaceOnUse"
       id="clipPath128">
      <path
         d="M 0,0 H 960.009 V 540 H 0 Z"
         transform="translate(-522.03322,-284.9617)"
         id="path128" />
    </clipPath>
    <clipPath
       clipPathUnits="userSpaceOnUse"
       id="clipPath130">
      <path
         d="M 0,0 H 960.009 V 540 H 0 Z"
         transform="translate(-566.28982,-245.4835)"
         id="path130" />
    </clipPath>
    <clipPath
       clipPathUnits="userSpaceOnUse"
       id="clipPath132">
      <path
         d="M 0,0 H 960.009 V 540 H 0 Z"
         transform="translate(-579.34751,-261.87991)"
         id="path132" />
    </clipPath>
    <clipPath
       clipPathUnits="userSpaceOnUse"
       id="clipPath134">
      <path
         d="M 0,0 H 960.009 V 540 H 0 Z"
         transform="translate(-599.74111,-300.49821)"
         id="path134" />
    </clipPath>
    <clipPath
       clipPathUnits="userSpaceOnUse"
       id="clipPath136">
      <path
         d="M 0,0 H 960.009 V 540 H 0 Z"
         transform="translate(-607.69802,-279.2284)"
         id="path136" />
    </clipPath>
    <clipPath
       clipPathUnits="userSpaceOnUse"
       id="clipPath138">
      <path
         d="M 0,0 H 960.009 V 540 H 0 Z"
         transform="translate(-650.53442,-256.29601)"
         id="path138" />
    </clipPath>
    <clipPath
       clipPathUnits="userSpaceOnUse"
       id="clipPath140">
      <path
         d="M 0,0 H 960.009 V 540 H 0 Z"
         transform="translate(-622.88372,-267.98611)"
         id="path140" />
    </clipPath>
    <clipPath
       clipPathUnits="userSpaceOnUse"
       id="clipPath142">
      <path
         d="M 0,0 H 960.009 V 540 H 0 Z"
         transform="translate(-650.88982,-289.31181)"
         id="path142" />
    </clipPath>
    <clipPath
       clipPathUnits="userSpaceOnUse"
       id="clipPath144">
      <path
         d="M 0,0 H 960.009 V 540 H 0 Z"
         transform="translate(-670.90652,-304.59101)"
         id="path144" />
    </clipPath>
    <clipPath
       clipPathUnits="userSpaceOnUse"
       id="clipPath146">
      <path
         d="M 0,0 H 960.009 V 540 H 0 Z"
         transform="translate(-675.34091,-252.8968)"
         id="path146" />
    </clipPath>
    <clipPath
       clipPathUnits="userSpaceOnUse"
       id="clipPath148">
      <path
         d="M 0,0 H 960.009 V 540 H 0 Z"
         transform="translate(-731.60292,-301.35641)"
         id="path148" />
    </clipPath>
    <clipPath
       clipPathUnits="userSpaceOnUse"
       id="clipPath150">
      <path
         d="M 0,0 H 960.009 V 540 H 0 Z"
         transform="translate(-769.25522,-269.3509)"
         id="path150" />
    </clipPath>
    <clipPath
       clipPathUnits="userSpaceOnUse"
       id="clipPath152">
      <path
         d="M 0,0 H 960.009 V 540 H 0 Z"
         transform="translate(-797.62959,-270.71421)"
         id="path152" />
    </clipPath>
    <clipPath
       clipPathUnits="userSpaceOnUse"
       id="clipPath154">
      <path
         d="M 0,0 H 960.009 V 540 H 0 Z"
         transform="translate(-819.53545,-251.29921)"
         id="path154" />
    </clipPath>
    <clipPath
       clipPathUnits="userSpaceOnUse"
       id="clipPath106">
      <path
         d="M 0,0 H 960.009 V 540 H 0 Z"
         transform="translate(-854.43355,-222.87901)"
         id="path106" />
    </clipPath>
    <clipPath
       clipPathUnits="userSpaceOnUse"
       id="clipPath108">
      <path
         d="M 0,0 H 960.009 V 540 H 0 Z"
         transform="translate(-845.89442,-183.77151)"
         id="path108" />
    </clipPath>
    <clipPath
       clipPathUnits="userSpaceOnUse"
       id="clipPath110">
      <path
         d="M 0,0 H 960.009 V 540 H 0 Z"
         transform="translate(-827.15155,-207.2536)"
         id="path110" />
    </clipPath>
    <clipPath
       clipPathUnits="userSpaceOnUse"
       id="clipPath112">
      <path
         d="M 0,0 H 960.009 V 540 H 0 Z"
         transform="translate(-821.5558,-184.11621)"
         id="path112" />
    </clipPath>
    <clipPath
       clipPathUnits="userSpaceOnUse"
       id="clipPath100">
      <path
         d="M 0,0 H 960.009 V 540 H 0 Z"
         transform="translate(-788.83644,-175.0057)"
         id="path100" />
    </clipPath>
    <clipPath
       clipPathUnits="userSpaceOnUse"
       id="clipPath102">
      <path
         d="M 0,0 H 960.009 V 540 H 0 Z"
         transform="translate(-762.95784,-218.90061)"
         id="path102" />
    </clipPath>
    <clipPath
       clipPathUnits="userSpaceOnUse"
       id="clipPath104">
      <path
         d="M 0,0 H 960.009 V 540 H 0 Z"
         transform="translate(-767.37212,-210.89581)"
         id="path104" />
    </clipPath>
    <clipPath
       clipPathUnits="userSpaceOnUse"
       id="clipPath96">
      <path
         d="M 0,0 H 960.009 V 540 H 0 Z"
         transform="translate(-667.61321,-172.85541)"
         id="path96" />
    </clipPath>
    <clipPath
       clipPathUnits="userSpaceOnUse"
       id="clipPath98">
      <path
         d="M 0,0 H 960.009 V 540 H 0 Z"
         transform="translate(-707.81362,-221.51581)"
         id="path98" />
    </clipPath>
    <clipPath
       clipPathUnits="userSpaceOnUse"
       id="clipPath88">
      <path
         d="M 0,0 H 960.009 V 540 H 0 Z"
         transform="translate(-599.45281,-229.32291)"
         id="path88" />
    </clipPath>
    <clipPath
       clipPathUnits="userSpaceOnUse"
       id="clipPath90">
      <path
         d="M 0,0 H 960.009 V 540 H 0 Z"
         transform="translate(-649.90772,-199.2534)"
         id="path90" />
    </clipPath>
    <clipPath
       clipPathUnits="userSpaceOnUse"
       id="clipPath92">
      <path
         d="M 0,0 H 960.009 V 540 H 0 Z"
         transform="translate(-638.90842,-203.66491)"
         id="path92" />
    </clipPath>
    <clipPath
       clipPathUnits="userSpaceOnUse"
       id="clipPath94">
      <path
         d="M 0,0 H 960.009 V 540 H 0 Z"
         transform="translate(-628.77641,-189.4174)"
         id="path94" />
    </clipPath>
    <clipPath
       clipPathUnits="userSpaceOnUse"
       id="clipPath84">
      <path
         d="M 0,0 H 960.009 V 540 H 0 Z"
         transform="translate(-584.37121,-231.34611)"
         id="path84" />
    </clipPath>
    <clipPath
       clipPathUnits="userSpaceOnUse"
       id="clipPath86">
      <path
         d="M 0,0 H 960.009 V 540 H 0 Z"
         transform="translate(-586.71481,-200.10211)"
         id="path86" />
    </clipPath>
    <clipPath
       clipPathUnits="userSpaceOnUse"
       id="clipPath74">
      <path
         d="M 0,0 H 960.009 V 540 H 0 Z"
         transform="translate(-469.54581,-229.89861)"
         id="path74" />
    </clipPath>
    <clipPath
       clipPathUnits="userSpaceOnUse"
       id="clipPath76">
      <path
         d="M 0,0 H 960.009 V 540 H 0 Z"
         transform="translate(-504.62411,-187.19301)"
         id="path76" />
    </clipPath>
    <clipPath
       clipPathUnits="userSpaceOnUse"
       id="clipPath78">
      <path
         d="M 0,0 H 960.009 V 540 H 0 Z"
         transform="translate(-479.18201,-202.14411)"
         id="path78" />
    </clipPath>
    <clipPath
       clipPathUnits="userSpaceOnUse"
       id="clipPath80">
      <path
         d="M 0,0 H 960.009 V 540 H 0 Z"
         transform="translate(-512.10071,-205.33581)"
         id="path80" />
    </clipPath>
    <clipPath
       clipPathUnits="userSpaceOnUse"
       id="clipPath82">
      <path
         d="M 0,0 H 960.009 V 540 H 0 Z"
         transform="translate(-504.38371,-189.2929)"
         id="path82" />
    </clipPath>
    <clipPath
       clipPathUnits="userSpaceOnUse"
       id="clipPath62">
      <path
         d="M 0,0 H 960.009 V 540 H 0 Z"
         transform="translate(-400.17211,-197.133)"
         id="path62" />
    </clipPath>
    <clipPath
       clipPathUnits="userSpaceOnUse"
       id="clipPath64">
      <path
         d="M 0,0 H 960.009 V 540 H 0 Z"
         transform="translate(-438.38491,-182.84691)"
         id="path64" />
    </clipPath>
    <clipPath
       clipPathUnits="userSpaceOnUse"
       id="clipPath66">
      <path
         d="M 0,0 H 960.009 V 540 H 0 Z"
         transform="translate(-416.77671,-183.0805)"
         id="path66" />
    </clipPath>
    <clipPath
       clipPathUnits="userSpaceOnUse"
       id="clipPath68">
      <path
         d="M 0,0 H 960.009 V 540 H 0 Z"
         transform="translate(-433.64651,-183.8322)"
         id="path68" />
    </clipPath>
    <clipPath
       clipPathUnits="userSpaceOnUse"
       id="clipPath70">
      <path
         d="M 0,0 H 960.009 V 540 H 0 Z"
         transform="translate(-417.30471,-184.38231)"
         id="path70" />
    </clipPath>
    <clipPath
       clipPathUnits="userSpaceOnUse"
       id="clipPath72">
      <path
         d="M 0,0 H 960.009 V 540 H 0 Z"
         transform="translate(-438.46141,-184.6746)"
         id="path72" />
    </clipPath>
    <clipPath
       clipPathUnits="userSpaceOnUse"
       id="clipPath58">
      <path
         d="M 0,0 H 960.009 V 540 H 0 Z"
         transform="translate(-335.41721,-174.7122)"
         id="path58" />
    </clipPath>
    <clipPath
       clipPathUnits="userSpaceOnUse"
       id="clipPath60">
      <path
         d="M 0,0 H 960.009 V 540 H 0 Z"
         transform="translate(-382.04741,-212.30661)"
         id="path60" />
    </clipPath>
    <clipPath
       clipPathUnits="userSpaceOnUse"
       id="clipPath54">
      <path
         d="M 0,0 H 960.009 V 540 H 0 Z"
         transform="translate(-458.80751,-133.5075)"
         id="path54" />
    </clipPath>
    <clipPath
       clipPathUnits="userSpaceOnUse"
       id="clipPath56">
      <path
         d="M 0,0 H 960.009 V 540 H 0 Z"
         transform="translate(-453.72421,-125.85711)"
         id="path56" />
    </clipPath>
    <clipPath
       clipPathUnits="userSpaceOnUse"
       id="clipPath50">
      <path
         d="M 0,0 H 960.009 V 540 H 0 Z"
         transform="translate(-392.80211,-99.8527)"
         id="path50" />
    </clipPath>
    <clipPath
       clipPathUnits="userSpaceOnUse"
       id="clipPath52">
      <path
         d="M 0,0 H 960.009 V 540 H 0 Z"
         transform="translate(-380.64201,-148.4077)"
         id="path52" />
    </clipPath>
    <clipPath
       clipPathUnits="userSpaceOnUse"
       id="clipPath134-0">
      <path
         d="M 0,0 H 960.009 V 540 H 0 Z"
         transform="translate(-599.74111,-300.49821)"
         id="path134-8" />
    </clipPath>
    <clipPath
       clipPathUnits="userSpaceOnUse"
       id="clipPath136-4">
      <path
         d="M 0,0 H 960.009 V 540 H 0 Z"
         transform="translate(-607.69802,-279.2284)"
         id="path136-9" />
    </clipPath>
    <clipPath
       clipPathUnits="userSpaceOnUse"
       id="clipPath138-3">
      <path
         d="M 0,0 H 960.009 V 540 H 0 Z"
         transform="translate(-650.53442,-256.29601)"
         id="path138-0" />
    </clipPath>
    <clipPath
       clipPathUnits="userSpaceOnUse"
       id="clipPath140-5">
      <path
         d="M 0,0 H 960.009 V 540 H 0 Z"
         transform="translate(-622.88372,-267.98611)"
         id="path140-2" />
    </clipPath>
    <clipPath
       clipPathUnits="userSpaceOnUse"
       id="clipPath142-3">
      <path
         d="M 0,0 H 960.009 V 540 H 0 Z"
         transform="translate(-650.88982,-289.31181)"
         id="path142-8" />
    </clipPath>
    <clipPath
       clipPathUnits="userSpaceOnUse"
       id="clipPath7">
      <path
         d="M 71.54,135.024 H 786.197 V 406.688 H 71.54 Z"
         transform="translate(-120.33831,-361.26761)"
         id="path7" />
    </clipPath>
    <clipPath
       clipPathUnits="userSpaceOnUse"
       id="clipPath9">
      <path
         d="M 71.54,135.024 H 786.197 V 406.688 H 71.54 Z"
         transform="translate(-98.008105,-367.56301)"
         id="path9" />
    </clipPath>
    <clipPath
       clipPathUnits="userSpaceOnUse"
       id="clipPath11">
      <path
         d="M 71.54,135.024 H 786.197 V 406.688 H 71.54 Z"
         transform="translate(-125.4883,-382.82231)"
         id="path11" />
    </clipPath>
    <clipPath
       clipPathUnits="userSpaceOnUse"
       id="clipPath13">
      <path
         d="M 71.54,135.024 H 786.197 V 406.688 H 71.54 Z"
         transform="translate(-132.03981,-379.22011)"
         id="path13" />
    </clipPath>
    <clipPath
       clipPathUnits="userSpaceOnUse"
       id="clipPath15">
      <path
         d="M 71.54,135.024 H 786.197 V 406.688 H 71.54 Z"
         transform="translate(-244.75051,-368.09121)"
         id="path15" />
    </clipPath>
    <clipPath
       clipPathUnits="userSpaceOnUse"
       id="clipPath17">
      <path
         d="M 71.54,135.024 H 786.197 V 406.688 H 71.54 Z"
         transform="translate(-225.03901,-384.99001)"
         id="path17" />
    </clipPath>
    <clipPath
       clipPathUnits="userSpaceOnUse"
       id="clipPath63">
      <path
         d="M 71.54,135.024 H 786.197 V 406.688 H 71.54 Z"
         transform="translate(-360.43331,-361.13701)"
         id="path63" />
    </clipPath>
    <clipPath
       clipPathUnits="userSpaceOnUse"
       id="clipPath65">
      <path
         d="M 71.54,135.024 H 786.197 V 406.688 H 71.54 Z"
         transform="translate(-365.65321,-382.39291)"
         id="path65" />
    </clipPath>
    <clipPath
       clipPathUnits="userSpaceOnUse"
       id="clipPath67">
      <path
         d="M 71.54,135.024 H 786.197 V 406.688 H 71.54 Z"
         transform="translate(-338.56601,-372.95891)"
         id="path67" />
    </clipPath>
    <clipPath
       clipPathUnits="userSpaceOnUse"
       id="clipPath69">
      <path
         d="M 81.746,165.029 H 753.988 V 403.638 H 81.746 Z"
         transform="translate(-358.47721,-378.83541)"
         id="path69" />
    </clipPath>
  </defs>
  <g
     inkscape:label="Layer 1"
     inkscape:groupmode="layer"
     id="layer1"
     transform="translate(546.10012,438.41459)">
    <path
       id="path62-4"
       d="m 0,0 c -0.007,-0.005 -0.633,-0.466 -2.165,-0.477 l -4.145,0.006 c -0.289,0 -0.524,-0.235 -0.524,-0.524 0,-0.29 0.232,-0.525 0.524,-0.525 l 4.147,-0.007 c 1.917,0.014 2.733,0.638 2.82,0.709 0.224,0.184 0.261,0.518 0.076,0.742 C 0.55,0.148 0.224,0.184 0,0"
       style="fill:#242827;fill-opacity:1;fill-rule:nonzero;stroke:none"
       transform="matrix(0.35277776,0,0,-0.35277776,-538.03292,-428.66785)"
       clip-path="url(#clipPath63)" />
    <path
       id="path64-0"
       d="M 0,0 C 1.697,-0.658 3.608,0.185 4.265,1.883 4.922,3.581 4.08,5.491 2.383,6.149 0.683,6.807 -1.227,5.964 -1.884,4.266 -2.541,2.568 -1.699,0.658 0,0"
       style="fill:#242827;fill-opacity:1;fill-rule:nonzero;stroke:none"
       transform="matrix(0.35277776,0,0,-0.35277776,-536.19146,-436.16645)"
       clip-path="url(#clipPath65)" />
    <path
       id="path66-8"
       d="M 0,0 C -0.287,0.031 -0.546,-0.177 -0.577,-0.465 L -0.96,-3.989 c -0.189,-1.906 0.344,-2.784 0.405,-2.878 0.102,-0.155 0.272,-0.24 0.446,-0.24 0.098,0 0.196,0.027 0.283,0.084 0.244,0.159 0.313,0.48 0.155,0.722 -0.005,0.007 -0.396,0.68 -0.244,2.203 l 0.381,3.52 C 0.496,-0.29 0.289,-0.031 0,0"
       style="fill:#242827;fill-opacity:1;fill-rule:nonzero;stroke:none"
       transform="matrix(0.35277776,0,0,-0.35277776,-545.74722,-432.83835)"
       clip-path="url(#clipPath67)" />
    <path
       id="path68-2"
       d="M 0,0 C 1.201,0.391 1.806,0.448 2.076,0.443 2.2,0.018 2.269,-0.885 2.319,-1.571 2.348,-1.942 2.378,-2.341 2.42,-2.759 Z m 15.105,-17.221 -5.464,6.228 c 0.512,0.854 0.385,1.976 -0.365,2.691 C 7.035,-6.167 6.837,-3.551 6.66,-1.242 6.504,0.824 6.343,2.961 4.5,4.138 2.581,5.366 -0.061,4.644 -2.389,3.774 -5.377,2.66 -7.272,1.878 -8.423,0.421 c -1.408,-1.782 -1.203,-3.994 -0.846,-6.294 0.028,-0.187 0.004,-0.213 -0.041,-0.264 -0.816,-0.871 -4.333,-1.218 -6.981,-0.985 -1.196,0.106 -2.252,-0.777 -2.358,-1.973 -0.109,-1.198 0.774,-2.255 1.971,-2.363 1.286,-0.116 7.833,-0.545 10.542,2.344 0.883,0.944 1.301,2.115 1.221,3.411 l 2.857,-2.77 -1.251,-5.987 c -0.246,-1.177 0.509,-2.33 1.684,-2.576 0.15,-0.031 0.3,-0.047 0.448,-0.047 1.009,0 1.915,0.706 2.128,1.732 l 1.497,7.16 C 2.6,-7.46 2.37,-6.702 1.832,-6.183 l -5.091,4.938 c 0.611,0.267 1.299,0.531 1.932,0.769 l 4.116,-4.693 c 0.455,-2.045 1.389,-4.29 3.484,-6.285 0.422,-0.401 0.962,-0.601 1.501,-0.601 0.303,0 0.605,0.065 0.888,0.191 l 5.849,-6.669 h 6.051 v 1.312 z"
       style="fill:#242827;fill-opacity:1;fill-rule:nonzero;stroke:none"
       transform="matrix(0.35277776,0,0,-0.35277776,-538.72299,-434.91145)"
       clip-path="url(#clipPath69)" />
  </g>
</svg>
