<?xml version="1.0" encoding="UTF-8" standalone="no"?>
<!-- Created with Inkscape (http://www.inkscape.org/) -->

<svg
   width="14.779124mm"
   height="14.149021mm"
   viewBox="0 0 14.779124 14.149022"
   version="1.1"
   id="svg1"
   inkscape:version="1.4 (e7c3feb1, 2024-10-09)"
   sodipodi:docname="SBD.svg"
   xmlns:inkscape="http://www.inkscape.org/namespaces/inkscape"
   xmlns:sodipodi="http://sodipodi.sourceforge.net/DTD/sodipodi-0.dtd"
   xmlns="http://www.w3.org/2000/svg"
   xmlns:svg="http://www.w3.org/2000/svg">
  <sodipodi:namedview
     id="namedview1"
     pagecolor="#ffffff"
     bordercolor="#000000"
     borderopacity="0.25"
     inkscape:showpageshadow="2"
     inkscape:pageopacity="0.0"
     inkscape:pagecheckerboard="0"
     inkscape:deskcolor="#d1d1d1"
     inkscape:document-units="mm"
     inkscape:zoom="2.096401"
     inkscape:cx="27.427959"
     inkscape:cy="27.427959"
     inkscape:window-width="1440"
     inkscape:window-height="872"
     inkscape:window-x="0"
     inkscape:window-y="28"
     inkscape:window-maximized="0"
     inkscape:current-layer="layer1" />
  <defs
     id="defs1">
    <clipPath
       clipPathUnits="userSpaceOnUse"
       id="clipPath46">
      <path
         d="M 0,0 H 960.009 V 540 H 0 Z"
         transform="translate(-335.30581,-447.22351)"
         id="path46" />
    </clipPath>
    <clipPath
       clipPathUnits="userSpaceOnUse"
       id="clipPath48">
      <path
         d="M 0,0 H 960.009 V 540 H 0 Z"
         transform="translate(-366.36111,-395.97531)"
         id="path48" />
    </clipPath>
    <clipPath
       clipPathUnits="userSpaceOnUse"
       id="clipPath46-4">
      <path
         d="M 0,0 H 960.009 V 540 H 0 Z"
         transform="translate(-335.30581,-447.22351)"
         id="path46-1" />
    </clipPath>
    <clipPath
       clipPathUnits="userSpaceOnUse"
       id="clipPath48-8">
      <path
         d="M 0,0 H 960.009 V 540 H 0 Z"
         transform="translate(-366.36111,-395.97531)"
         id="path48-8" />
    </clipPath>
    <clipPath
       clipPathUnits="userSpaceOnUse"
       id="clipPath10">
      <path
         d="M 0,0 H 960.009 V 540 H 0 Z"
         transform="translate(-452.25271,-448.21871)"
         id="path10" />
    </clipPath>
    <clipPath
       clipPathUnits="userSpaceOnUse"
       id="clipPath12">
      <path
         d="M 0,0 H 960.009 V 540 H 0 Z"
         transform="translate(-445.51041,-428.84291)"
         id="path12" />
    </clipPath>
    <clipPath
       clipPathUnits="userSpaceOnUse"
       id="clipPath14">
      <path
         d="M 0,0 H 960.009 V 540 H 0 Z"
         transform="translate(-490.38481,-447.77471)"
         id="path14" />
    </clipPath>
    <clipPath
       clipPathUnits="userSpaceOnUse"
       id="clipPath16">
      <path
         d="M 0,0 H 960.009 V 540 H 0 Z"
         transform="translate(-520.07251,-407.43611)"
         id="path16" />
    </clipPath>
    <clipPath
       clipPathUnits="userSpaceOnUse"
       id="clipPath18">
      <path
         d="M 0,0 H 960.009 V 540 H 0 Z"
         transform="translate(-475.72791,-420.29251)"
         id="path18" />
    </clipPath>
    <clipPath
       clipPathUnits="userSpaceOnUse"
       id="clipPath20">
      <path
         d="M 0,0 H 960.009 V 540 H 0 Z"
         transform="translate(-532.40951,-415.32891)"
         id="path20" />
    </clipPath>
    <clipPath
       clipPathUnits="userSpaceOnUse"
       id="clipPath22">
      <path
         d="M 0,0 H 960.009 V 540 H 0 Z"
         transform="translate(-585.24491,-404.67841)"
         id="path22" />
    </clipPath>
    <clipPath
       clipPathUnits="userSpaceOnUse"
       id="clipPath24">
      <path
         d="M 0,0 H 960.009 V 540 H 0 Z"
         transform="translate(-546.73501,-439.46011)"
         id="path24" />
    </clipPath>
    <clipPath
       clipPathUnits="userSpaceOnUse"
       id="clipPath26">
      <path
         d="M 0,0 H 960.009 V 540 H 0 Z"
         transform="translate(-597.25132,-396.91631)"
         id="path26" />
    </clipPath>
    <clipPath
       clipPathUnits="userSpaceOnUse"
       id="clipPath28">
      <path
         d="M 0,0 H 960.009 V 540 H 0 Z"
         transform="translate(-644.79592,-427.55181)"
         id="path28" />
    </clipPath>
    <clipPath
       clipPathUnits="userSpaceOnUse"
       id="clipPath30">
      <path
         d="M 0,0 H 960.009 V 540 H 0 Z"
         transform="translate(-722.31742,-442.86561)"
         id="path30" />
    </clipPath>
    <clipPath
       clipPathUnits="userSpaceOnUse"
       id="clipPath32">
      <path
         d="M 0,0 H 960.009 V 540 H 0 Z"
         transform="translate(-713.80762,-411.31901)"
         id="path32" />
    </clipPath>
    <clipPath
       clipPathUnits="userSpaceOnUse"
       id="clipPath34">
      <path
         d="M 0,0 H 960.009 V 540 H 0 Z"
         transform="translate(-711.27122,-406.75661)"
         id="path34" />
    </clipPath>
    <clipPath
       clipPathUnits="userSpaceOnUse"
       id="clipPath36">
      <path
         d="M 0,0 H 960.009 V 540 H 0 Z"
         transform="translate(-788.58924,-392.63841)"
         id="path36" />
    </clipPath>
    <clipPath
       clipPathUnits="userSpaceOnUse"
       id="clipPath38">
      <path
         d="M 0,0 H 960.009 V 540 H 0 Z"
         transform="translate(-775.73004,-429.83291)"
         id="path38" />
    </clipPath>
    <clipPath
       clipPathUnits="userSpaceOnUse"
       id="clipPath40">
      <path
         d="M 0,0 H 960.009 V 540 H 0 Z"
         transform="translate(-854.0284,-447.94411)"
         id="path40" />
    </clipPath>
    <clipPath
       clipPathUnits="userSpaceOnUse"
       id="clipPath42">
      <path
         d="M 0,0 H 960.009 V 540 H 0 Z"
         transform="translate(-841.42262,-414.05971)"
         id="path42" />
    </clipPath>
    <clipPath
       clipPathUnits="userSpaceOnUse"
       id="clipPath44">
      <path
         d="M 0,0 H 960.009 V 540 H 0 Z"
         transform="translate(-828.18625,-402.03771)"
         id="path44" />
    </clipPath>
    <clipPath
       clipPathUnits="userSpaceOnUse"
       id="clipPath186">
      <path
         d="M 0,0 H 960.009 V 540 H 0 Z"
         transform="translate(-796.23144,-323.72221)"
         id="path186" />
    </clipPath>
    <clipPath
       clipPathUnits="userSpaceOnUse"
       id="clipPath188">
      <path
         d="M 0,0 H 960.009 V 540 H 0 Z"
         transform="translate(-837.6514,-370.80791)"
         id="path188" />
    </clipPath>
    <clipPath
       clipPathUnits="userSpaceOnUse"
       id="clipPath182">
      <path
         d="M 0,0 H 960.009 V 540 H 0 Z"
         transform="translate(-736.95462,-375.25501)"
         id="path182" />
    </clipPath>
    <clipPath
       clipPathUnits="userSpaceOnUse"
       id="clipPath184">
      <path
         d="M 0,0 H 960.009 V 540 H 0 Z"
         transform="translate(-768.50649,-358.25011)"
         id="path184" />
    </clipPath>
    <clipPath
       clipPathUnits="userSpaceOnUse"
       id="clipPath178">
      <path
         d="M 0,0 H 960.009 V 540 H 0 Z"
         transform="translate(-720.27222,-375.61331)"
         id="path178" />
    </clipPath>
    <clipPath
       clipPathUnits="userSpaceOnUse"
       id="clipPath180">
      <path
         d="M 0,0 H 960.009 V 540 H 0 Z"
         transform="translate(-708.29912,-339.89981)"
         id="path180" />
    </clipPath>
    <clipPath
       clipPathUnits="userSpaceOnUse"
       id="clipPath174">
      <path
         d="M 0,0 H 960.009 V 540 H 0 Z"
         transform="translate(-632.38852,-318.07351)"
         id="path174" />
    </clipPath>
    <clipPath
       clipPathUnits="userSpaceOnUse"
       id="clipPath176">
      <path
         d="M 0,0 H 960.009 V 540 H 0 Z"
         transform="translate(-651.53441,-331.09111)"
         id="path176" />
    </clipPath>
    <clipPath
       clipPathUnits="userSpaceOnUse"
       id="clipPath170">
      <path
         d="M 0,0 H 960.009 V 540 H 0 Z"
         transform="translate(-591.96502,-324.88781)"
         id="path170" />
    </clipPath>
    <clipPath
       clipPathUnits="userSpaceOnUse"
       id="clipPath172">
      <path
         d="M 0,0 H 960.009 V 540 H 0 Z"
         transform="translate(-586.33631,-340.16661)"
         id="path172" />
    </clipPath>
    <clipPath
       clipPathUnits="userSpaceOnUse"
       id="clipPath166">
      <path
         d="M 0,0 H 960.009 V 540 H 0 Z"
         transform="translate(-524.71871,-320.54331)"
         id="path166" />
    </clipPath>
    <clipPath
       clipPathUnits="userSpaceOnUse"
       id="clipPath168">
      <path
         d="M 0,0 H 960.009 V 540 H 0 Z"
         transform="translate(-503.36561,-325.03411)"
         id="path168" />
    </clipPath>
    <clipPath
       clipPathUnits="userSpaceOnUse"
       id="clipPath160">
      <path
         d="M 0,0 H 960.009 V 540 H 0 Z"
         transform="translate(-403.48081,-318.39281)"
         id="path160" />
    </clipPath>
    <clipPath
       clipPathUnits="userSpaceOnUse"
       id="clipPath162">
      <path
         d="M 0,0 H 960.009 V 540 H 0 Z"
         transform="translate(-451.85691,-327.41961)"
         id="path162" />
    </clipPath>
    <clipPath
       clipPathUnits="userSpaceOnUse"
       id="clipPath164">
      <path
         d="M 0,0 H 960.009 V 540 H 0 Z"
         transform="translate(-409.77981,-357.93981)"
         id="path164" />
    </clipPath>
    <clipPath
       clipPathUnits="userSpaceOnUse"
       id="clipPath156">
      <path
         d="M 0,0 H 960.009 V 540 H 0 Z"
         transform="translate(-368.23991,-318.73791)"
         id="path156" />
    </clipPath>
    <clipPath
       clipPathUnits="userSpaceOnUse"
       id="clipPath158">
      <path
         d="M 0,0 H 960.009 V 540 H 0 Z"
         transform="translate(-383.86171,-342.63551)"
         id="path158" />
    </clipPath>
    <clipPath
       clipPathUnits="userSpaceOnUse"
       id="clipPath114">
      <path
         d="M 0,0 H 960.009 V 540 H 0 Z"
         transform="translate(-392.75611,-298.45791)"
         id="path114" />
    </clipPath>
    <clipPath
       clipPathUnits="userSpaceOnUse"
       id="clipPath116">
      <path
         d="M 0,0 H 960.009 V 540 H 0 Z"
         transform="translate(-387.31901,-254.33761)"
         id="path116" />
    </clipPath>
    <clipPath
       clipPathUnits="userSpaceOnUse"
       id="clipPath118">
      <path
         d="M 0,0 H 960.009 V 540 H 0 Z"
         transform="translate(-360.51291,-262.97961)"
         id="path118" />
    </clipPath>
    <clipPath
       clipPathUnits="userSpaceOnUse"
       id="clipPath120">
      <path
         d="M 0,0 H 960.009 V 540 H 0 Z"
         transform="translate(-455.62551,-246.02871)"
         id="path120" />
    </clipPath>
    <clipPath
       clipPathUnits="userSpaceOnUse"
       id="clipPath122">
      <path
         d="M 0,0 H 960.009 V 540 H 0 Z"
         transform="translate(-452.63151,-264.6049)"
         id="path122" />
    </clipPath>
    <clipPath
       clipPathUnits="userSpaceOnUse"
       id="clipPath124">
      <path
         d="M 0,0 H 960.009 V 540 H 0 Z"
         transform="translate(-409.98541,-258.8899)"
         id="path124" />
    </clipPath>
    <clipPath
       clipPathUnits="userSpaceOnUse"
       id="clipPath126">
      <path
         d="M 0,0 H 960.009 V 540 H 0 Z"
         transform="translate(-473.91801,-244.75861)"
         id="path126" />
    </clipPath>
    <clipPath
       clipPathUnits="userSpaceOnUse"
       id="clipPath128">
      <path
         d="M 0,0 H 960.009 V 540 H 0 Z"
         transform="translate(-522.03322,-284.9617)"
         id="path128" />
    </clipPath>
    <clipPath
       clipPathUnits="userSpaceOnUse"
       id="clipPath130">
      <path
         d="M 0,0 H 960.009 V 540 H 0 Z"
         transform="translate(-566.28982,-245.4835)"
         id="path130" />
    </clipPath>
    <clipPath
       clipPathUnits="userSpaceOnUse"
       id="clipPath132">
      <path
         d="M 0,0 H 960.009 V 540 H 0 Z"
         transform="translate(-579.34751,-261.87991)"
         id="path132" />
    </clipPath>
    <clipPath
       clipPathUnits="userSpaceOnUse"
       id="clipPath134">
      <path
         d="M 0,0 H 960.009 V 540 H 0 Z"
         transform="translate(-599.74111,-300.49821)"
         id="path134" />
    </clipPath>
    <clipPath
       clipPathUnits="userSpaceOnUse"
       id="clipPath136">
      <path
         d="M 0,0 H 960.009 V 540 H 0 Z"
         transform="translate(-607.69802,-279.2284)"
         id="path136" />
    </clipPath>
    <clipPath
       clipPathUnits="userSpaceOnUse"
       id="clipPath138">
      <path
         d="M 0,0 H 960.009 V 540 H 0 Z"
         transform="translate(-650.53442,-256.29601)"
         id="path138" />
    </clipPath>
    <clipPath
       clipPathUnits="userSpaceOnUse"
       id="clipPath140">
      <path
         d="M 0,0 H 960.009 V 540 H 0 Z"
         transform="translate(-622.88372,-267.98611)"
         id="path140" />
    </clipPath>
    <clipPath
       clipPathUnits="userSpaceOnUse"
       id="clipPath142">
      <path
         d="M 0,0 H 960.009 V 540 H 0 Z"
         transform="translate(-650.88982,-289.31181)"
         id="path142" />
    </clipPath>
    <clipPath
       clipPathUnits="userSpaceOnUse"
       id="clipPath144">
      <path
         d="M 0,0 H 960.009 V 540 H 0 Z"
         transform="translate(-670.90652,-304.59101)"
         id="path144" />
    </clipPath>
    <clipPath
       clipPathUnits="userSpaceOnUse"
       id="clipPath146">
      <path
         d="M 0,0 H 960.009 V 540 H 0 Z"
         transform="translate(-675.34091,-252.8968)"
         id="path146" />
    </clipPath>
    <clipPath
       clipPathUnits="userSpaceOnUse"
       id="clipPath148">
      <path
         d="M 0,0 H 960.009 V 540 H 0 Z"
         transform="translate(-731.60292,-301.35641)"
         id="path148" />
    </clipPath>
    <clipPath
       clipPathUnits="userSpaceOnUse"
       id="clipPath150">
      <path
         d="M 0,0 H 960.009 V 540 H 0 Z"
         transform="translate(-769.25522,-269.3509)"
         id="path150" />
    </clipPath>
    <clipPath
       clipPathUnits="userSpaceOnUse"
       id="clipPath152">
      <path
         d="M 0,0 H 960.009 V 540 H 0 Z"
         transform="translate(-797.62959,-270.71421)"
         id="path152" />
    </clipPath>
    <clipPath
       clipPathUnits="userSpaceOnUse"
       id="clipPath154">
      <path
         d="M 0,0 H 960.009 V 540 H 0 Z"
         transform="translate(-819.53545,-251.29921)"
         id="path154" />
    </clipPath>
    <clipPath
       clipPathUnits="userSpaceOnUse"
       id="clipPath106">
      <path
         d="M 0,0 H 960.009 V 540 H 0 Z"
         transform="translate(-854.43355,-222.87901)"
         id="path106" />
    </clipPath>
    <clipPath
       clipPathUnits="userSpaceOnUse"
       id="clipPath108">
      <path
         d="M 0,0 H 960.009 V 540 H 0 Z"
         transform="translate(-845.89442,-183.77151)"
         id="path108" />
    </clipPath>
    <clipPath
       clipPathUnits="userSpaceOnUse"
       id="clipPath110">
      <path
         d="M 0,0 H 960.009 V 540 H 0 Z"
         transform="translate(-827.15155,-207.2536)"
         id="path110" />
    </clipPath>
    <clipPath
       clipPathUnits="userSpaceOnUse"
       id="clipPath112">
      <path
         d="M 0,0 H 960.009 V 540 H 0 Z"
         transform="translate(-821.5558,-184.11621)"
         id="path112" />
    </clipPath>
    <clipPath
       clipPathUnits="userSpaceOnUse"
       id="clipPath100">
      <path
         d="M 0,0 H 960.009 V 540 H 0 Z"
         transform="translate(-788.83644,-175.0057)"
         id="path100" />
    </clipPath>
    <clipPath
       clipPathUnits="userSpaceOnUse"
       id="clipPath102">
      <path
         d="M 0,0 H 960.009 V 540 H 0 Z"
         transform="translate(-762.95784,-218.90061)"
         id="path102" />
    </clipPath>
    <clipPath
       clipPathUnits="userSpaceOnUse"
       id="clipPath104">
      <path
         d="M 0,0 H 960.009 V 540 H 0 Z"
         transform="translate(-767.37212,-210.89581)"
         id="path104" />
    </clipPath>
    <clipPath
       clipPathUnits="userSpaceOnUse"
       id="clipPath96">
      <path
         d="M 0,0 H 960.009 V 540 H 0 Z"
         transform="translate(-667.61321,-172.85541)"
         id="path96" />
    </clipPath>
    <clipPath
       clipPathUnits="userSpaceOnUse"
       id="clipPath98">
      <path
         d="M 0,0 H 960.009 V 540 H 0 Z"
         transform="translate(-707.81362,-221.51581)"
         id="path98" />
    </clipPath>
    <clipPath
       clipPathUnits="userSpaceOnUse"
       id="clipPath88">
      <path
         d="M 0,0 H 960.009 V 540 H 0 Z"
         transform="translate(-599.45281,-229.32291)"
         id="path88" />
    </clipPath>
    <clipPath
       clipPathUnits="userSpaceOnUse"
       id="clipPath90">
      <path
         d="M 0,0 H 960.009 V 540 H 0 Z"
         transform="translate(-649.90772,-199.2534)"
         id="path90" />
    </clipPath>
    <clipPath
       clipPathUnits="userSpaceOnUse"
       id="clipPath92">
      <path
         d="M 0,0 H 960.009 V 540 H 0 Z"
         transform="translate(-638.90842,-203.66491)"
         id="path92" />
    </clipPath>
    <clipPath
       clipPathUnits="userSpaceOnUse"
       id="clipPath94">
      <path
         d="M 0,0 H 960.009 V 540 H 0 Z"
         transform="translate(-628.77641,-189.4174)"
         id="path94" />
    </clipPath>
    <clipPath
       clipPathUnits="userSpaceOnUse"
       id="clipPath84">
      <path
         d="M 0,0 H 960.009 V 540 H 0 Z"
         transform="translate(-584.37121,-231.34611)"
         id="path84" />
    </clipPath>
    <clipPath
       clipPathUnits="userSpaceOnUse"
       id="clipPath86">
      <path
         d="M 0,0 H 960.009 V 540 H 0 Z"
         transform="translate(-586.71481,-200.10211)"
         id="path86" />
    </clipPath>
    <clipPath
       clipPathUnits="userSpaceOnUse"
       id="clipPath74">
      <path
         d="M 0,0 H 960.009 V 540 H 0 Z"
         transform="translate(-469.54581,-229.89861)"
         id="path74" />
    </clipPath>
    <clipPath
       clipPathUnits="userSpaceOnUse"
       id="clipPath76">
      <path
         d="M 0,0 H 960.009 V 540 H 0 Z"
         transform="translate(-504.62411,-187.19301)"
         id="path76" />
    </clipPath>
    <clipPath
       clipPathUnits="userSpaceOnUse"
       id="clipPath78">
      <path
         d="M 0,0 H 960.009 V 540 H 0 Z"
         transform="translate(-479.18201,-202.14411)"
         id="path78" />
    </clipPath>
    <clipPath
       clipPathUnits="userSpaceOnUse"
       id="clipPath80">
      <path
         d="M 0,0 H 960.009 V 540 H 0 Z"
         transform="translate(-512.10071,-205.33581)"
         id="path80" />
    </clipPath>
    <clipPath
       clipPathUnits="userSpaceOnUse"
       id="clipPath82">
      <path
         d="M 0,0 H 960.009 V 540 H 0 Z"
         transform="translate(-504.38371,-189.2929)"
         id="path82" />
    </clipPath>
    <clipPath
       clipPathUnits="userSpaceOnUse"
       id="clipPath62">
      <path
         d="M 0,0 H 960.009 V 540 H 0 Z"
         transform="translate(-400.17211,-197.133)"
         id="path62" />
    </clipPath>
    <clipPath
       clipPathUnits="userSpaceOnUse"
       id="clipPath64">
      <path
         d="M 0,0 H 960.009 V 540 H 0 Z"
         transform="translate(-438.38491,-182.84691)"
         id="path64" />
    </clipPath>
    <clipPath
       clipPathUnits="userSpaceOnUse"
       id="clipPath66">
      <path
         d="M 0,0 H 960.009 V 540 H 0 Z"
         transform="translate(-416.77671,-183.0805)"
         id="path66" />
    </clipPath>
    <clipPath
       clipPathUnits="userSpaceOnUse"
       id="clipPath68">
      <path
         d="M 0,0 H 960.009 V 540 H 0 Z"
         transform="translate(-433.64651,-183.8322)"
         id="path68" />
    </clipPath>
    <clipPath
       clipPathUnits="userSpaceOnUse"
       id="clipPath70">
      <path
         d="M 0,0 H 960.009 V 540 H 0 Z"
         transform="translate(-417.30471,-184.38231)"
         id="path70" />
    </clipPath>
    <clipPath
       clipPathUnits="userSpaceOnUse"
       id="clipPath72">
      <path
         d="M 0,0 H 960.009 V 540 H 0 Z"
         transform="translate(-438.46141,-184.6746)"
         id="path72" />
    </clipPath>
    <clipPath
       clipPathUnits="userSpaceOnUse"
       id="clipPath58">
      <path
         d="M 0,0 H 960.009 V 540 H 0 Z"
         transform="translate(-335.41721,-174.7122)"
         id="path58" />
    </clipPath>
    <clipPath
       clipPathUnits="userSpaceOnUse"
       id="clipPath60">
      <path
         d="M 0,0 H 960.009 V 540 H 0 Z"
         transform="translate(-382.04741,-212.30661)"
         id="path60" />
    </clipPath>
    <clipPath
       clipPathUnits="userSpaceOnUse"
       id="clipPath54">
      <path
         d="M 0,0 H 960.009 V 540 H 0 Z"
         transform="translate(-458.80751,-133.5075)"
         id="path54" />
    </clipPath>
    <clipPath
       clipPathUnits="userSpaceOnUse"
       id="clipPath56">
      <path
         d="M 0,0 H 960.009 V 540 H 0 Z"
         transform="translate(-453.72421,-125.85711)"
         id="path56" />
    </clipPath>
    <clipPath
       clipPathUnits="userSpaceOnUse"
       id="clipPath50">
      <path
         d="M 0,0 H 960.009 V 540 H 0 Z"
         transform="translate(-392.80211,-99.8527)"
         id="path50" />
    </clipPath>
    <clipPath
       clipPathUnits="userSpaceOnUse"
       id="clipPath52">
      <path
         d="M 0,0 H 960.009 V 540 H 0 Z"
         transform="translate(-380.64201,-148.4077)"
         id="path52" />
    </clipPath>
    <clipPath
       clipPathUnits="userSpaceOnUse"
       id="clipPath134-0">
      <path
         d="M 0,0 H 960.009 V 540 H 0 Z"
         transform="translate(-599.74111,-300.49821)"
         id="path134-8" />
    </clipPath>
    <clipPath
       clipPathUnits="userSpaceOnUse"
       id="clipPath136-4">
      <path
         d="M 0,0 H 960.009 V 540 H 0 Z"
         transform="translate(-607.69802,-279.2284)"
         id="path136-9" />
    </clipPath>
    <clipPath
       clipPathUnits="userSpaceOnUse"
       id="clipPath138-3">
      <path
         d="M 0,0 H 960.009 V 540 H 0 Z"
         transform="translate(-650.53442,-256.29601)"
         id="path138-0" />
    </clipPath>
    <clipPath
       clipPathUnits="userSpaceOnUse"
       id="clipPath140-5">
      <path
         d="M 0,0 H 960.009 V 540 H 0 Z"
         transform="translate(-622.88372,-267.98611)"
         id="path140-2" />
    </clipPath>
    <clipPath
       clipPathUnits="userSpaceOnUse"
       id="clipPath142-3">
      <path
         d="M 0,0 H 960.009 V 540 H 0 Z"
         transform="translate(-650.88982,-289.31181)"
         id="path142-8" />
    </clipPath>
    <clipPath
       clipPathUnits="userSpaceOnUse"
       id="clipPath7">
      <path
         d="M 71.54,135.024 H 786.197 V 406.688 H 71.54 Z"
         transform="translate(-120.33831,-361.26761)"
         id="path7" />
    </clipPath>
    <clipPath
       clipPathUnits="userSpaceOnUse"
       id="clipPath9">
      <path
         d="M 71.54,135.024 H 786.197 V 406.688 H 71.54 Z"
         transform="translate(-98.008105,-367.56301)"
         id="path9" />
    </clipPath>
    <clipPath
       clipPathUnits="userSpaceOnUse"
       id="clipPath11">
      <path
         d="M 71.54,135.024 H 786.197 V 406.688 H 71.54 Z"
         transform="translate(-125.4883,-382.82231)"
         id="path11" />
    </clipPath>
    <clipPath
       clipPathUnits="userSpaceOnUse"
       id="clipPath13">
      <path
         d="M 71.54,135.024 H 786.197 V 406.688 H 71.54 Z"
         transform="translate(-132.03981,-379.22011)"
         id="path13" />
    </clipPath>
    <clipPath
       clipPathUnits="userSpaceOnUse"
       id="clipPath15">
      <path
         d="M 71.54,135.024 H 786.197 V 406.688 H 71.54 Z"
         transform="translate(-244.75051,-368.09121)"
         id="path15" />
    </clipPath>
    <clipPath
       clipPathUnits="userSpaceOnUse"
       id="clipPath17">
      <path
         d="M 71.54,135.024 H 786.197 V 406.688 H 71.54 Z"
         transform="translate(-225.03901,-384.99001)"
         id="path17" />
    </clipPath>
  </defs>
  <g
     inkscape:label="Layer 1"
     inkscape:groupmode="layer"
     id="layer1"
     transform="translate(546.10012,440.53126)">
    <path
       id="path14-5"
       d="m 0,0 c -0.122,2.375 -0.404,4.825 -1.939,6.743 -0.609,0.76 -1.342,1.353 -2.154,1.755 0.556,0.32 1.137,0.589 1.66,0.634 0.745,0.064 1.144,-0.615 1.591,-1.167 C -0.04,6.975 0.742,5.968 1.534,4.97 2.042,4.328 2.96,4.208 3.732,4.449 2.613,3.073 1.342,1.522 0,-0.095 0,-0.063 0.002,-0.033 0,0 m 15.39,20.861 c -0.279,0.054 -0.551,-0.13 -0.606,-0.41 C 14.259,17.72 12.311,15.24 8.045,9.808 8.016,9.772 6.929,8.401 5.242,6.312 5.275,6.919 5.038,7.54 4.625,8.061 2.739,10.44 0.826,13.851 -2.684,13.5 -5.72,13.196 -8.74,10.878 -11.086,9.015 c -0.647,0.314 -0.79,0.535 -1.409,1.17 -1.023,1.05 -2.011,2.193 -2.787,3.444 0.885,0.968 1.624,1.969 2.195,3.277 0.736,1.684 1.245,3.439 1.879,5.16 0.408,1.108 -0.457,2.395 -1.527,2.689 -1.22,0.335 -2.28,-0.415 -2.689,-1.527 -0.63,-1.709 -1.068,-3.506 -1.915,-5.127 -0.994,-1.903 -2.89,-3.014 -3.967,-4.9 -2.204,-3.859 -3.025,-9.667 0.806,-12.827 0.91,-0.75 2.2,-0.891 3.091,0 0.774,0.774 0.916,2.337 0,3.092 -1.867,1.54 -1.683,4.258 -0.688,6.484 1.581,-2.236 3.686,-4.4 6.15,-5.29 1.054,-0.38 2.195,-0.503 3.305,-0.356 0.777,0.103 1.723,0.658 2.484,0.376 1.686,-0.623 1.712,-3.234 1.786,-4.68 0.081,-1.586 1.52,-2.278 2.726,-2.069 -1.584,-1.888 -3.216,-3.803 -4.775,-5.58 -0.545,-0.621 -1.03,-1.194 -1.459,-1.7 -2.201,-2.597 -3.306,-3.901 -6.601,-4.911 -0.273,-0.084 -0.426,-0.373 -0.343,-0.646 0.069,-0.223 0.273,-0.366 0.494,-0.366 0.051,0 0.102,0.008 0.152,0.023 3.585,1.1 4.829,2.567 7.087,5.232 0.426,0.502 0.908,1.071 1.447,1.685 6.563,7.483 14.421,17.399 14.501,17.5 4.373,5.569 6.37,8.111 6.943,11.087 0.054,0.281 -0.13,0.552 -0.41,0.606"
       style="fill:#242827;fill-opacity:1;fill-rule:nonzero;stroke:none"
       transform="matrix(0.35277776,0,0,-0.35277776,-536.8982,-431.76986)"
       clip-path="url(#clipPath15)" />
    <path
       id="path16-3"
       d="M 0,0 C 0.658,1.698 -0.185,3.608 -1.883,4.266 -3.581,4.924 -5.491,4.081 -6.149,2.383 -6.807,0.685 -5.964,-1.225 -4.266,-1.883 -2.568,-2.541 -0.658,-1.698 0,0"
       style="fill:#242827;fill-opacity:1;fill-rule:nonzero;stroke:none"
       transform="matrix(0.35277776,0,0,-0.35277776,-543.85198,-437.73138)"
       clip-path="url(#clipPath17)" />
  </g>
</svg>
