<?xml version="1.0" encoding="UTF-8" standalone="no"?>
<!-- Created with Inkscape (http://www.inkscape.org/) -->

<svg
   width="20.58342mm"
   height="20.534952mm"
   viewBox="0 0 20.58342 20.534952"
   version="1.1"
   id="svg1"
   inkscape:version="1.4 (e7c3feb1, 2024-10-09)"
   sodipodi:docname="ATH.svg"
   xmlns:inkscape="http://www.inkscape.org/namespaces/inkscape"
   xmlns:sodipodi="http://sodipodi.sourceforge.net/DTD/sodipodi-0.dtd"
   xmlns="http://www.w3.org/2000/svg"
   xmlns:svg="http://www.w3.org/2000/svg">
  <sodipodi:namedview
     id="namedview1"
     pagecolor="#ffffff"
     bordercolor="#000000"
     borderopacity="0.25"
     inkscape:showpageshadow="2"
     inkscape:pageopacity="0.0"
     inkscape:pagecheckerboard="0"
     inkscape:deskcolor="#d1d1d1"
     inkscape:document-units="mm"
     inkscape:zoom="2.096401"
     inkscape:cx="38.876151"
     inkscape:cy="38.399143"
     inkscape:window-width="1440"
     inkscape:window-height="872"
     inkscape:window-x="0"
     inkscape:window-y="28"
     inkscape:window-maximized="0"
     inkscape:current-layer="layer1" />
  <defs
     id="defs1">
    <clipPath
       clipPathUnits="userSpaceOnUse"
       id="clipPath46">
      <path
         d="M 0,0 H 960.009 V 540 H 0 Z"
         transform="translate(-335.30581,-447.22351)"
         id="path46" />
    </clipPath>
    <clipPath
       clipPathUnits="userSpaceOnUse"
       id="clipPath48">
      <path
         d="M 0,0 H 960.009 V 540 H 0 Z"
         transform="translate(-366.36111,-395.97531)"
         id="path48" />
    </clipPath>
    <clipPath
       clipPathUnits="userSpaceOnUse"
       id="clipPath46-4">
      <path
         d="M 0,0 H 960.009 V 540 H 0 Z"
         transform="translate(-335.30581,-447.22351)"
         id="path46-1" />
    </clipPath>
    <clipPath
       clipPathUnits="userSpaceOnUse"
       id="clipPath48-8">
      <path
         d="M 0,0 H 960.009 V 540 H 0 Z"
         transform="translate(-366.36111,-395.97531)"
         id="path48-8" />
    </clipPath>
    <clipPath
       clipPathUnits="userSpaceOnUse"
       id="clipPath10">
      <path
         d="M 0,0 H 960.009 V 540 H 0 Z"
         transform="translate(-452.25271,-448.21871)"
         id="path10" />
    </clipPath>
    <clipPath
       clipPathUnits="userSpaceOnUse"
       id="clipPath12">
      <path
         d="M 0,0 H 960.009 V 540 H 0 Z"
         transform="translate(-445.51041,-428.84291)"
         id="path12" />
    </clipPath>
  </defs>
  <g
     inkscape:label="Layer 1"
     inkscape:groupmode="layer"
     id="layer1"
     transform="translate(549.01045,443.1771)">
    <path
       id="path9"
       d="M 0,0 C 1.992,0.118 4.372,0.063 5.468,-1.68 6.085,-2.662 6.092,-3.917 6.083,-5.092 6.029,-12.118 6.156,-19.146 6.462,-26.166 6.88,-35.723 7.618,-45.449 5.433,-54.74 5.326,-55.193 5.194,-55.676 4.849,-55.972 4.571,-56.209 4.203,-56.285 3.85,-56.35 c -9.624,-1.784 -19.484,-1.476 -29.244,-0.921 -7.394,0.421 -14.781,0.981 -22.156,1.68 -0.312,0.03 -0.649,0.07 -0.881,0.292 -0.221,0.213 -0.294,0.544 -0.344,0.854 -0.42,2.576 -0.141,5.234 -0.555,7.811 -0.316,1.968 -1.029,3.842 -1.454,5.788 -0.588,2.685 -0.62,5.465 -0.633,8.22 -0.046,9.605 0.455,22 0.839,31.838 0.028,0.729 0.632,1.301 1.361,1.294 z"
       style="fill:#fbb167;fill-opacity:1;fill-rule:nonzero;stroke:none"
       transform="matrix(0.35277776,0,0,-0.35277776,-530.87063,-442.99857)"
       clip-path="url(#clipPath10)" />
    <path
       id="path11"
       d="m 0,0 c -0.078,-0.943 -0.7,-1.809 -1.208,-2.369 -0.257,-0.283 -0.51,-0.519 -0.765,-0.714 0.007,0.093 0.013,0.192 0.02,0.298 0.077,1.173 0.236,3.613 0.958,4.239 0.089,0.076 0.174,0.111 0.278,0.111 0.013,0 0.026,-10e-4 0.04,-0.002 0.075,-0.006 0.189,-0.031 0.316,-0.18 C -0.09,1.065 0.035,0.43 0,0 m -4.738,-6.641 c -1.736,-0.271 -2.681,0.889 -3.161,1.878 0.608,-0.082 1.216,-0.153 1.825,-0.213 1,-0.099 1.88,-0.115 2.69,0.042 -0.21,-0.933 -0.562,-1.584 -1.354,-1.707 m -8.249,3.918 c -1.251,0.254 -2.493,0.524 -3.721,0.79 l -0.438,0.095 c -0.864,0.187 -1.667,0.366 -2.425,0.539 0.7,0.415 1.411,0.78 2.173,1.046 1.161,0.404 2.739,0.549 3.648,-0.039 0.47,-0.304 0.727,-0.777 0.786,-1.447 0.027,-0.303 0.019,-0.63 -0.023,-0.984 m 9.378,-16.889 c 0.066,0.184 0.132,0.369 0.197,0.554 0.159,-0.237 0.293,-0.482 0.399,-0.732 0.508,-1.198 0.381,-2.506 -0.378,-3.889 -0.076,-0.139 -0.29,-0.448 -0.623,-0.316 -0.51,0.204 -0.49,1.263 -0.351,1.925 0.17,0.815 0.455,1.613 0.756,2.458 m -15.763,1.253 c -1.239,-1.054 -2.773,-1.087 -4.527,-0.839 1.617,1.25 3.192,2.878 4.416,5.01 1.051,1.83 2.664,2.599 4.207,2.888 -0.8,-2.634 -1.938,-5.222 -4.096,-7.059 m -11.884,-3.421 c -1.043,-0.387 -1.628,0.001 -1.812,0.45 -0.162,0.394 -0.057,0.945 0.558,1.223 0.912,0.412 1.871,0.559 2.85,0.559 0.91,0 1.837,-0.127 2.759,-0.286 -1.694,-0.958 -3.275,-1.545 -4.355,-1.946 m 8.23,19.621 c -0.135,-0.084 -0.276,-0.175 -0.42,-0.268 -0.876,-0.565 -1.969,-1.266 -2.89,-1.22 -0.448,0.023 -0.984,0.296 -0.98,0.6 0.006,0.392 0.657,0.886 1.62,1.23 0.451,0.162 0.933,0.225 1.427,0.225 0.591,0 1.2,-0.09 1.798,-0.211 -0.185,-0.12 -0.371,-0.24 -0.555,-0.356 M 0.509,2.124 c -0.294,0.345 -0.673,0.546 -1.097,0.579 -0.425,0.033 -0.826,-0.1 -1.155,-0.385 -1,-0.866 -1.215,-2.959 -1.35,-5.028 -0.022,-0.331 -0.041,-0.616 -0.063,-0.789 l -0.02,-0.157 c -0.002,-0.02 -0.005,-0.04 -0.008,-0.06 -0.78,-0.239 -1.658,-0.233 -2.778,-0.123 -0.805,0.08 -1.612,0.181 -2.418,0.298 -0.032,0.084 -0.064,0.169 -0.095,0.253 -0.619,1.65 -1.203,3.209 -1.503,4.903 -0.299,1.693 -0.497,3.762 0.642,4.742 0.529,0.456 1.468,0.708 2.336,0.629 0.727,-0.066 1.325,-0.348 1.685,-0.794 0.959,-1.19 0.905,-3.076 0.534,-4.445 -0.127,-0.466 -0.463,-1.706 -1.123,-1.945 -0.498,-0.18 -0.938,0.297 -1.504,0.989 -0.065,0.08 -0.128,0.157 -0.19,0.23 -0.203,0.241 -0.564,0.271 -0.805,0.067 -0.241,-0.203 -0.272,-0.564 -0.068,-0.805 0.058,-0.068 0.117,-0.141 0.178,-0.216 0.589,-0.72 1.479,-1.808 2.778,-1.34 1.218,0.44 1.652,2.039 1.837,2.721 0.576,2.125 0.297,4.167 -0.747,5.462 -0.556,0.689 -1.433,1.12 -2.471,1.215 -1.195,0.108 -2.414,-0.237 -3.185,-0.901 -1.779,-1.532 -1.249,-4.528 -1.023,-5.808 0.295,-1.668 0.86,-3.237 1.427,-4.755 -0.73,0.122 -1.459,0.254 -2.186,0.394 0.061,0.466 0.074,0.9 0.038,1.306 -0.089,1.015 -0.54,1.813 -1.304,2.308 -1.316,0.85 -3.262,0.639 -4.645,0.157 -1.22,-0.426 -2.317,-1.078 -3.367,-1.757 -1.554,0.37 -3.307,0.775 -4.94,0.191 -0.881,-0.315 -2.36,-1.031 -2.378,-2.291 -0.015,-1.031 1.037,-1.703 2.063,-1.757 1.294,-0.072 2.555,0.746 3.57,1.4 0.14,0.091 0.276,0.178 0.406,0.26 0.399,0.25 0.798,0.513 1.183,0.767 0.103,0.069 0.207,0.137 0.309,0.204 1.079,-0.254 2.241,-0.517 3.54,-0.798 l 0.437,-0.095 c 1.234,-0.268 2.482,-0.539 3.739,-0.794 -0.067,-0.251 -0.149,-0.514 -0.243,-0.788 -0.36,-1.04 -0.653,-2.216 -0.964,-3.462 -0.163,-0.655 -0.33,-1.327 -0.513,-2.003 -1.946,-0.247 -4.151,-1.099 -5.543,-3.522 -1.365,-2.378 -3.175,-4.079 -4.982,-5.316 -0.078,0.014 -0.157,0.029 -0.235,0.044 -2.294,0.425 -4.894,0.907 -7.289,-0.174 -1.235,-0.558 -1.511,-1.807 -1.145,-2.7 0.395,-0.961 1.586,-1.711 3.267,-1.087 1.265,0.47 3.41,1.266 5.633,2.713 2.347,-0.42 4.716,-0.689 6.595,0.91 2.518,2.143 3.738,5.115 4.589,8.069 1.019,0.049 1.919,-0.061 2.487,-0.13 0.202,-0.024 0.362,-0.044 0.483,-0.05 2.798,-0.15 7.044,-1.349 7.273,-3.446 0.075,-0.695 0.007,-1.374 -0.142,-2.053 -1.108,0.896 -2.551,1.616 -4.204,2.067 -0.611,0.167 -1.223,0.273 -1.816,0.376 -1.311,0.228 -2.443,0.426 -3.07,1.166 -0.204,0.241 -0.565,0.271 -0.806,0.068 -0.241,-0.204 -0.271,-0.565 -0.067,-0.806 0.895,-1.057 2.28,-1.299 3.747,-1.554 0.566,-0.098 1.152,-0.2 1.711,-0.353 1.709,-0.466 3.156,-1.234 4.168,-2.177 -0.126,-0.388 -0.265,-0.779 -0.407,-1.176 -0.301,-0.844 -0.613,-1.716 -0.8,-2.608 -0.26,-1.251 -0.123,-2.753 1.047,-3.22 0.196,-0.079 0.394,-0.117 0.589,-0.117 0.582,0 1.128,0.339 1.461,0.944 0.922,1.681 1.07,3.37 0.427,4.885 -0.239,0.563 -0.587,1.101 -1.029,1.601 0.276,0.987 0.444,2.007 0.328,3.08 -0.323,2.965 -5.17,4.294 -8.349,4.464 -0.082,0.005 -0.233,0.023 -0.407,0.044 -0.507,0.062 -1.334,0.161 -2.308,0.144 0.146,0.553 0.283,1.102 0.417,1.64 0.304,1.221 0.591,2.373 0.934,3.365 0.112,0.326 0.208,0.639 0.287,0.941 0.953,-0.184 1.91,-0.355 2.871,-0.506 0.008,-0.022 0.016,-0.044 0.024,-0.066 0.851,-2.317 2.539,-3.459 4.631,-3.134 1.736,0.271 2.205,1.878 2.42,3.247 0.614,0.299 1.198,0.745 1.781,1.387 0.627,0.691 1.396,1.781 1.5,3.043 0.055,0.671 -0.118,1.617 -0.63,2.218"
       style="fill:#ffffff;fill-opacity:1;fill-rule:nonzero;stroke:none"
       transform="matrix(0.35277776,0,0,-0.35277776,-533.24916,-436.16321)"
       clip-path="url(#clipPath12)" />
  </g>
</svg>
