<?xml version="1.0" encoding="UTF-8" standalone="no"?>
<!-- Created with Inkscape (http://www.inkscape.org/) -->

<svg
   width="21.810595mm"
   height="20.606619mm"
   viewBox="0 0 21.810594 20.606619"
   version="1.1"
   id="svg1"
   inkscape:version="1.4 (e7c3feb1, 2024-10-09)"
   sodipodi:docname="BK3.svg"
   xmlns:inkscape="http://www.inkscape.org/namespaces/inkscape"
   xmlns:sodipodi="http://sodipodi.sourceforge.net/DTD/sodipodi-0.dtd"
   xmlns="http://www.w3.org/2000/svg"
   xmlns:svg="http://www.w3.org/2000/svg">
  <sodipodi:namedview
     id="namedview1"
     pagecolor="#ffffff"
     bordercolor="#000000"
     borderopacity="0.25"
     inkscape:showpageshadow="2"
     inkscape:pageopacity="0.0"
     inkscape:pagecheckerboard="0"
     inkscape:deskcolor="#d1d1d1"
     inkscape:document-units="mm"
     inkscape:zoom="2.096401"
     inkscape:cx="6.9166158"
     inkscape:cy="43.169222"
     inkscape:window-width="1440"
     inkscape:window-height="872"
     inkscape:window-x="0"
     inkscape:window-y="28"
     inkscape:window-maximized="0"
     inkscape:current-layer="layer1" />
  <defs
     id="defs1">
    <clipPath
       clipPathUnits="userSpaceOnUse"
       id="clipPath46">
      <path
         d="M 0,0 H 960.009 V 540 H 0 Z"
         transform="translate(-335.30581,-447.22351)"
         id="path46" />
    </clipPath>
    <clipPath
       clipPathUnits="userSpaceOnUse"
       id="clipPath48">
      <path
         d="M 0,0 H 960.009 V 540 H 0 Z"
         transform="translate(-366.36111,-395.97531)"
         id="path48" />
    </clipPath>
    <clipPath
       clipPathUnits="userSpaceOnUse"
       id="clipPath46-4">
      <path
         d="M 0,0 H 960.009 V 540 H 0 Z"
         transform="translate(-335.30581,-447.22351)"
         id="path46-1" />
    </clipPath>
    <clipPath
       clipPathUnits="userSpaceOnUse"
       id="clipPath48-8">
      <path
         d="M 0,0 H 960.009 V 540 H 0 Z"
         transform="translate(-366.36111,-395.97531)"
         id="path48-8" />
    </clipPath>
    <clipPath
       clipPathUnits="userSpaceOnUse"
       id="clipPath10">
      <path
         d="M 0,0 H 960.009 V 540 H 0 Z"
         transform="translate(-452.25271,-448.21871)"
         id="path10" />
    </clipPath>
    <clipPath
       clipPathUnits="userSpaceOnUse"
       id="clipPath12">
      <path
         d="M 0,0 H 960.009 V 540 H 0 Z"
         transform="translate(-445.51041,-428.84291)"
         id="path12" />
    </clipPath>
    <clipPath
       clipPathUnits="userSpaceOnUse"
       id="clipPath14">
      <path
         d="M 0,0 H 960.009 V 540 H 0 Z"
         transform="translate(-490.38481,-447.77471)"
         id="path14" />
    </clipPath>
    <clipPath
       clipPathUnits="userSpaceOnUse"
       id="clipPath16">
      <path
         d="M 0,0 H 960.009 V 540 H 0 Z"
         transform="translate(-520.07251,-407.43611)"
         id="path16" />
    </clipPath>
    <clipPath
       clipPathUnits="userSpaceOnUse"
       id="clipPath18">
      <path
         d="M 0,0 H 960.009 V 540 H 0 Z"
         transform="translate(-475.72791,-420.29251)"
         id="path18" />
    </clipPath>
    <clipPath
       clipPathUnits="userSpaceOnUse"
       id="clipPath20">
      <path
         d="M 0,0 H 960.009 V 540 H 0 Z"
         transform="translate(-532.40951,-415.32891)"
         id="path20" />
    </clipPath>
    <clipPath
       clipPathUnits="userSpaceOnUse"
       id="clipPath22">
      <path
         d="M 0,0 H 960.009 V 540 H 0 Z"
         transform="translate(-585.24491,-404.67841)"
         id="path22" />
    </clipPath>
    <clipPath
       clipPathUnits="userSpaceOnUse"
       id="clipPath24">
      <path
         d="M 0,0 H 960.009 V 540 H 0 Z"
         transform="translate(-546.73501,-439.46011)"
         id="path24" />
    </clipPath>
  </defs>
  <g
     inkscape:label="Layer 1"
     inkscape:groupmode="layer"
     id="layer1"
     transform="translate(540.54379,444.50001)">
    <path
       id="path19"
       d="m 0,0 c -0.246,3.592 -0.699,7.177 -0.633,10.777 0.094,5.171 0.052,10.235 1.321,15.245 0.569,2.248 1.256,4.678 3.097,6.045 1.698,1.261 3.958,1.297 6.056,1.282 14.777,-0.102 30.872,-0.203 45.649,-0.305 0.665,-0.005 1.355,-0.015 1.956,-0.305 0.652,-0.315 1.121,-0.925 1.489,-1.558 2.042,-3.515 1.589,-7.922 1.07,-11.979 -0.734,-5.746 -1.469,-11.493 -2.203,-17.24 -0.387,-3.028 -0.775,-6.07 -0.7,-9.122 0.097,-3.895 0.948,-7.744 0.948,-11.64 0,-1.717 -0.239,-3.596 -1.457,-4.784 -1.114,-1.085 -2.766,-1.318 -4.303,-1.406 -4.592,-0.264 -9.187,0.275 -13.782,0.461 -12.398,0.501 -24.936,-1.563 -37.163,0.569 -0.471,0.082 -0.951,0.174 -1.37,0.411 -1.613,0.914 -1.484,3.286 -1.135,5.136 0,0 1.784,9.318 1.16,18.413"
       style="fill:#f37361;fill-opacity:1;fill-rule:nonzero;stroke:none"
       transform="matrix(0.35277776,0,0,-0.35277776,-540.05681,-432.73451)"
       clip-path="url(#clipPath20)" />
    <path
       id="path21"
       d="m 0,0 c -0.376,0.33 -0.835,0.468 -1.236,0.571 -1.262,0.326 -2.559,0.492 -3.814,0.654 -0.731,0.093 -1.487,0.19 -2.218,0.317 -0.111,0.02 -0.22,0.039 -0.328,0.06 -0.118,0.193 -0.226,0.388 -0.325,0.586 -0.525,1.051 -0.886,2.157 -1.268,3.328 -0.264,0.808 -0.537,1.644 -0.867,2.453 -1.104,2.701 -2.684,3.902 -4.701,3.565 -0.24,-0.04 -0.475,-0.098 -0.705,-0.172 -0.005,0.316 0.002,0.622 0.019,0.912 0.044,0.763 0.171,1.547 0.387,2.399 0.538,2.124 1.014,4.921 0.228,6.184 -0.07,0.111 -0.144,0.22 -0.222,0.325 0.37,0.181 0.733,0.378 1.088,0.59 2.973,1.776 4.535,3.554 4.642,5.285 0.066,1.074 -0.325,2.146 -1.072,2.94 -0.698,0.743 -1.623,1.152 -2.605,1.152 h -10e-4 c -1.609,0 -3.316,-1.028 -4.566,-2.75 -0.402,-0.555 -1.344,-1.853 -0.934,-3.044 0.438,-1.272 1.857,-1.282 2.705,-1.287 0.093,-0.001 0.184,-0.002 0.269,-0.004 0.005,0 0.009,0 0.014,0 0.309,0 0.563,0.248 0.57,0.558 0.008,0.316 -0.242,0.577 -0.558,0.584 -0.091,0.002 -0.188,0.003 -0.287,0.004 -0.854,0.005 -1.471,0.046 -1.633,0.517 -0.217,0.63 0.506,1.626 0.778,2.001 0.8,1.102 2.177,2.279 3.642,2.279 h 10e-4 c 0.663,0 1.293,-0.281 1.773,-0.792 0.532,-0.566 0.81,-1.327 0.764,-2.088 -0.057,-0.916 -0.812,-2.418 -4.088,-4.374 -0.429,-0.257 -0.871,-0.489 -1.323,-0.696 -1.011,0.857 -2.4,1.411 -4.048,1.596 -0.932,0.106 -1.93,0.093 -2.965,-0.035 -0.179,-0.023 -0.358,-0.05 -0.535,-0.078 -0.427,-0.066 -0.864,-0.134 -1.171,-0.085 0.176,0.577 0.626,1.21 1.296,1.803 0.313,0.277 0.715,0.538 1.14,0.814 0.973,0.632 2.075,1.348 2.474,2.544 0.231,0.694 0.073,1.583 -0.549,2.047 0.875,0.643 1.452,1.585 1.623,2.658 0.172,1.081 -0.087,2.164 -0.73,3.051 -0.643,0.886 -1.592,1.469 -2.673,1.641 -1.081,0.172 -2.164,-0.087 -3.051,-0.73 -0.886,-0.643 -1.469,-1.592 -1.641,-2.673 -0.172,-1.081 0.087,-2.164 0.73,-3.051 0.634,-0.874 1.566,-1.451 2.629,-1.632 -0.835,-0.626 -1.491,-1.296 -1.984,-2.033 -0.777,-1.161 -1.123,-2.476 -0.975,-3.702 0.067,-0.556 0.228,-0.983 0.487,-1.294 0.013,-0.814 0.391,-1.538 1.124,-2.151 0.967,-0.811 2.322,-1.149 4.142,-1.037 1.501,0.094 2.998,0.433 4.422,0.996 0.117,-0.14 0.227,-0.291 0.328,-0.453 0.422,-0.677 0.279,-2.757 -0.365,-5.299 -0.234,-0.923 -0.372,-1.778 -0.42,-2.613 -0.028,-0.475 -0.032,-0.976 -0.008,-1.493 -0.877,-0.518 -1.624,-1.252 -2.178,-2.023 -1.459,2.937 -1.934,6.224 -1.339,9.436 l 0.015,0.081 c 0.059,0.31 -0.145,0.608 -0.455,0.667 -0.311,0.058 -0.609,-0.146 -0.667,-0.456 l -0.016,-0.084 c -0.686,-3.701 -0.052,-7.489 1.784,-10.81 -1.045,-2.328 -0.564,-5.41 1.195,-7.552 1.56,-1.901 3.959,-3.271 6.465,-4.413 0.409,-1.024 0.916,-2.057 1.732,-2.884 0.807,-0.817 1.858,-1.306 2.886,-1.341 0.061,-0.002 0.122,-0.003 0.184,-0.003 1.174,0 2.386,0.384 2.453,1.477 0.033,0.533 -0.287,1.044 -0.795,1.272 -0.8,0.358 -1.676,0.714 -2.603,1.09 -0.968,0.393 -1.972,0.8 -2.962,1.239 -0.941,2.409 -2.995,5.197 -4.809,7.661 -0.766,1.039 -1.489,2.021 -2.068,2.891 -0.131,0.196 -0.257,0.394 -0.378,0.595 0.395,0.677 0.972,1.357 1.672,1.873 0.323,-2.416 1.273,-4.978 3.206,-6.699 1.221,-1.086 2.816,-1.822 4.979,-2.288 1.599,-2.306 4.393,-4.07 7.546,-3.133 0.228,0.068 0.924,0.275 1.193,0.911 C 0.677,-1.107 0.492,-0.431 0,0 m -25.047,32.23 c -0.463,0.639 -0.65,1.421 -0.526,2.2 0.124,0.78 0.545,1.465 1.184,1.929 0.51,0.37 1.111,0.563 1.729,0.563 0.156,0 0.314,-0.012 0.471,-0.037 0.78,-0.124 1.465,-0.545 1.929,-1.184 0.463,-0.639 0.65,-1.421 0.526,-2.201 -0.125,-0.779 -0.545,-1.464 -1.184,-1.928 -0.639,-0.463 -1.421,-0.65 -2.201,-0.526 -0.779,0.124 -1.464,0.545 -1.928,1.184 m -0.145,-7.415 c 0.013,0.815 0.295,1.666 0.815,2.444 0.54,0.806 1.318,1.53 2.378,2.213 0.358,0.231 0.644,0.347 0.852,0.347 0.064,0 0.121,-0.011 0.17,-0.033 0.216,-0.096 0.32,-0.489 0.213,-0.808 -0.272,-0.818 -1.157,-1.392 -2.012,-1.948 -0.442,-0.287 -0.899,-0.583 -1.276,-0.917 -0.333,-0.296 -0.78,-0.745 -1.14,-1.298 m 4.573,-3.965 c -1.514,-0.094 -2.606,0.159 -3.338,0.772 -0.259,0.217 -0.446,0.441 -0.564,0.678 0.412,-0.023 0.849,0.045 1.277,0.112 0.166,0.025 0.333,0.051 0.501,0.072 0.946,0.118 1.853,0.129 2.697,0.034 0.903,-0.101 2.007,-0.356 2.941,-0.957 -1.142,-0.396 -2.327,-0.637 -3.514,-0.711 M -8.36,-5.753 c 0.918,-0.373 1.784,-0.724 2.566,-1.074 0.072,-0.033 0.126,-0.103 0.122,-0.16 -0.015,-0.24 -0.695,-0.428 -1.459,-0.402 -0.738,0.025 -1.507,0.39 -2.111,1.001 -0.4,0.406 -0.718,0.888 -0.986,1.402 0.629,-0.264 1.256,-0.519 1.868,-0.767 m -8.261,9.281 c 1.479,-2.008 3.121,-4.237 4.139,-6.238 -1.937,0.967 -3.704,2.1 -4.888,3.541 -1.299,1.583 -1.783,3.754 -1.311,5.574 0.587,-0.878 1.303,-1.85 2.06,-2.877 m 4.112,0.19 c -1.816,1.617 -2.647,4.178 -2.882,6.457 0.265,0.106 0.539,0.185 0.822,0.232 1.439,0.24 2.569,-0.699 3.455,-2.87 0.315,-0.771 0.581,-1.586 0.839,-2.375 0.348,-1.067 0.707,-2.166 1.201,-3.213 -1.449,0.416 -2.563,0.992 -3.435,1.769 M -0.603,-1.2 C -0.62,-1.242 -0.702,-1.352 -1.07,-1.461 -3.225,-2.102 -5.197,-1.176 -6.58,0.277 -6.115,0.21 -5.65,0.15 -5.195,0.092 c 1.22,-0.157 2.481,-0.319 3.673,-0.627 0.287,-0.074 0.582,-0.16 0.77,-0.324 0.122,-0.108 0.18,-0.269 0.149,-0.341"
       style="fill:#ffffff;fill-opacity:1;fill-rule:nonzero;stroke:none"
       transform="matrix(0.35277776,0,0,-0.35277776,-521.41766,-428.97725)"
       clip-path="url(#clipPath22)" />
    <path
       id="path23"
       d="m 0,0 c -1.837,0 -3.785,-0.411 -4.482,-1.297 v 4.531 c 0,0.315 -0.255,0.571 -0.571,0.571 -0.315,0 -0.571,-0.256 -0.571,-0.571 v -7.61 c 0,-0.316 0.256,-0.571 0.571,-0.571 0.316,0 0.571,0.255 0.571,0.571 v 1.148 c 0.321,-1.187 0.994,-4.183 0.694,-7.56 -0.027,-0.314 0.205,-0.591 0.519,-0.619 0.017,-0.002 0.034,-0.002 0.051,-0.002 0.292,0 0.542,0.223 0.568,0.52 0.272,3.064 -0.201,5.786 -0.561,7.303 0.454,-0.165 0.979,-0.288 1.534,-0.368 0.005,-0.907 -0.002,-3.003 -0.129,-5.71 -0.015,-0.315 0.229,-0.583 0.544,-0.598 0.009,0 0.018,0 0.027,0 0.303,0 0.556,0.238 0.57,0.544 0.123,2.623 0.134,4.683 0.13,5.659 0.179,-0.008 0.357,-0.012 0.535,-0.012 0.217,0 0.436,0.006 0.655,0.017 -0.006,-1.033 0.001,-3.378 0.13,-6.117 0.014,-0.306 0.267,-0.544 0.569,-0.544 0.01,0 0.019,0 0.028,0 0.315,0.015 0.558,0.282 0.543,0.598 -0.133,2.832 -0.134,5.239 -0.127,6.182 0.561,0.088 1.087,0.219 1.536,0.397 -0.361,-1.637 -0.889,-4.732 -0.605,-7.929 0.027,-0.297 0.276,-0.52 0.568,-0.52 0.017,0 0.035,0 0.052,0.002 0.314,0.028 0.546,0.305 0.518,0.619 -0.386,4.351 0.847,8.66 0.86,8.703 0.035,0.12 0.027,0.242 -0.012,0.351 0.022,0.089 0.034,0.181 0.034,0.276 C 4.749,-0.637 2.287,0 0,0 m -3.608,-2.045 c 0.071,0.249 1.288,0.903 3.608,0.903 2.292,0 3.508,-0.638 3.605,-0.894 C 3.508,-2.291 2.292,-2.929 0,-2.929 c -2.32,0 -3.537,0.654 -3.608,0.884"
       style="fill:#ffffff;fill-opacity:1;fill-rule:nonzero;stroke:none"
       transform="matrix(0.35277776,0,0,-0.35277776,-535.00309,-441.24746)"
       clip-path="url(#clipPath24)" />
  </g>
</svg>
