<?xml version="1.0" encoding="UTF-8" standalone="no"?>
<!-- Created with Inkscape (http://www.inkscape.org/) -->

<svg
   width="20.46356mm"
   height="20.278624mm"
   viewBox="0 0 20.463559 20.278623"
   version="1.1"
   id="svg1"
   inkscape:version="1.4 (e7c3feb1, 2024-10-09)"
   sodipodi:docname="BKG.svg"
   xmlns:inkscape="http://www.inkscape.org/namespaces/inkscape"
   xmlns:sodipodi="http://sodipodi.sourceforge.net/DTD/sodipodi-0.dtd"
   xmlns="http://www.w3.org/2000/svg"
   xmlns:svg="http://www.w3.org/2000/svg">
  <sodipodi:namedview
     id="namedview1"
     pagecolor="#ffffff"
     bordercolor="#000000"
     borderopacity="0.25"
     inkscape:showpageshadow="2"
     inkscape:pageopacity="0.0"
     inkscape:pagecheckerboard="0"
     inkscape:deskcolor="#d1d1d1"
     inkscape:document-units="mm"
     inkscape:zoom="2.096401"
     inkscape:cx="46.508278"
     inkscape:cy="14.548743"
     inkscape:window-width="1440"
     inkscape:window-height="872"
     inkscape:window-x="0"
     inkscape:window-y="28"
     inkscape:window-maximized="0"
     inkscape:current-layer="layer1" />
  <defs
     id="defs1">
    <clipPath
       clipPathUnits="userSpaceOnUse"
       id="clipPath46">
      <path
         d="M 0,0 H 960.009 V 540 H 0 Z"
         transform="translate(-335.30581,-447.22351)"
         id="path46" />
    </clipPath>
    <clipPath
       clipPathUnits="userSpaceOnUse"
       id="clipPath48">
      <path
         d="M 0,0 H 960.009 V 540 H 0 Z"
         transform="translate(-366.36111,-395.97531)"
         id="path48" />
    </clipPath>
    <clipPath
       clipPathUnits="userSpaceOnUse"
       id="clipPath46-4">
      <path
         d="M 0,0 H 960.009 V 540 H 0 Z"
         transform="translate(-335.30581,-447.22351)"
         id="path46-1" />
    </clipPath>
    <clipPath
       clipPathUnits="userSpaceOnUse"
       id="clipPath48-8">
      <path
         d="M 0,0 H 960.009 V 540 H 0 Z"
         transform="translate(-366.36111,-395.97531)"
         id="path48-8" />
    </clipPath>
    <clipPath
       clipPathUnits="userSpaceOnUse"
       id="clipPath10">
      <path
         d="M 0,0 H 960.009 V 540 H 0 Z"
         transform="translate(-452.25271,-448.21871)"
         id="path10" />
    </clipPath>
    <clipPath
       clipPathUnits="userSpaceOnUse"
       id="clipPath12">
      <path
         d="M 0,0 H 960.009 V 540 H 0 Z"
         transform="translate(-445.51041,-428.84291)"
         id="path12" />
    </clipPath>
    <clipPath
       clipPathUnits="userSpaceOnUse"
       id="clipPath14">
      <path
         d="M 0,0 H 960.009 V 540 H 0 Z"
         transform="translate(-490.38481,-447.77471)"
         id="path14" />
    </clipPath>
    <clipPath
       clipPathUnits="userSpaceOnUse"
       id="clipPath16">
      <path
         d="M 0,0 H 960.009 V 540 H 0 Z"
         transform="translate(-520.07251,-407.43611)"
         id="path16" />
    </clipPath>
    <clipPath
       clipPathUnits="userSpaceOnUse"
       id="clipPath18">
      <path
         d="M 0,0 H 960.009 V 540 H 0 Z"
         transform="translate(-475.72791,-420.29251)"
         id="path18" />
    </clipPath>
    <clipPath
       clipPathUnits="userSpaceOnUse"
       id="clipPath20">
      <path
         d="M 0,0 H 960.009 V 540 H 0 Z"
         transform="translate(-532.40951,-415.32891)"
         id="path20" />
    </clipPath>
    <clipPath
       clipPathUnits="userSpaceOnUse"
       id="clipPath22">
      <path
         d="M 0,0 H 960.009 V 540 H 0 Z"
         transform="translate(-585.24491,-404.67841)"
         id="path22" />
    </clipPath>
    <clipPath
       clipPathUnits="userSpaceOnUse"
       id="clipPath24">
      <path
         d="M 0,0 H 960.009 V 540 H 0 Z"
         transform="translate(-546.73501,-439.46011)"
         id="path24" />
    </clipPath>
    <clipPath
       clipPathUnits="userSpaceOnUse"
       id="clipPath26">
      <path
         d="M 0,0 H 960.009 V 540 H 0 Z"
         transform="translate(-597.25132,-396.91631)"
         id="path26" />
    </clipPath>
    <clipPath
       clipPathUnits="userSpaceOnUse"
       id="clipPath28">
      <path
         d="M 0,0 H 960.009 V 540 H 0 Z"
         transform="translate(-644.79592,-427.55181)"
         id="path28" />
    </clipPath>
    <clipPath
       clipPathUnits="userSpaceOnUse"
       id="clipPath30">
      <path
         d="M 0,0 H 960.009 V 540 H 0 Z"
         transform="translate(-722.31742,-442.86561)"
         id="path30" />
    </clipPath>
    <clipPath
       clipPathUnits="userSpaceOnUse"
       id="clipPath32">
      <path
         d="M 0,0 H 960.009 V 540 H 0 Z"
         transform="translate(-713.80762,-411.31901)"
         id="path32" />
    </clipPath>
    <clipPath
       clipPathUnits="userSpaceOnUse"
       id="clipPath34">
      <path
         d="M 0,0 H 960.009 V 540 H 0 Z"
         transform="translate(-711.27122,-406.75661)"
         id="path34" />
    </clipPath>
    <clipPath
       clipPathUnits="userSpaceOnUse"
       id="clipPath36">
      <path
         d="M 0,0 H 960.009 V 540 H 0 Z"
         transform="translate(-788.58924,-392.63841)"
         id="path36" />
    </clipPath>
    <clipPath
       clipPathUnits="userSpaceOnUse"
       id="clipPath38">
      <path
         d="M 0,0 H 960.009 V 540 H 0 Z"
         transform="translate(-775.73004,-429.83291)"
         id="path38" />
    </clipPath>
    <clipPath
       clipPathUnits="userSpaceOnUse"
       id="clipPath40">
      <path
         d="M 0,0 H 960.009 V 540 H 0 Z"
         transform="translate(-854.0284,-447.94411)"
         id="path40" />
    </clipPath>
    <clipPath
       clipPathUnits="userSpaceOnUse"
       id="clipPath42">
      <path
         d="M 0,0 H 960.009 V 540 H 0 Z"
         transform="translate(-841.42262,-414.05971)"
         id="path42" />
    </clipPath>
    <clipPath
       clipPathUnits="userSpaceOnUse"
       id="clipPath44">
      <path
         d="M 0,0 H 960.009 V 540 H 0 Z"
         transform="translate(-828.18625,-402.03771)"
         id="path44" />
    </clipPath>
    <clipPath
       clipPathUnits="userSpaceOnUse"
       id="clipPath186">
      <path
         d="M 0,0 H 960.009 V 540 H 0 Z"
         transform="translate(-796.23144,-323.72221)"
         id="path186" />
    </clipPath>
    <clipPath
       clipPathUnits="userSpaceOnUse"
       id="clipPath188">
      <path
         d="M 0,0 H 960.009 V 540 H 0 Z"
         transform="translate(-837.6514,-370.80791)"
         id="path188" />
    </clipPath>
    <clipPath
       clipPathUnits="userSpaceOnUse"
       id="clipPath182">
      <path
         d="M 0,0 H 960.009 V 540 H 0 Z"
         transform="translate(-736.95462,-375.25501)"
         id="path182" />
    </clipPath>
    <clipPath
       clipPathUnits="userSpaceOnUse"
       id="clipPath184">
      <path
         d="M 0,0 H 960.009 V 540 H 0 Z"
         transform="translate(-768.50649,-358.25011)"
         id="path184" />
    </clipPath>
    <clipPath
       clipPathUnits="userSpaceOnUse"
       id="clipPath178">
      <path
         d="M 0,0 H 960.009 V 540 H 0 Z"
         transform="translate(-720.27222,-375.61331)"
         id="path178" />
    </clipPath>
    <clipPath
       clipPathUnits="userSpaceOnUse"
       id="clipPath180">
      <path
         d="M 0,0 H 960.009 V 540 H 0 Z"
         transform="translate(-708.29912,-339.89981)"
         id="path180" />
    </clipPath>
    <clipPath
       clipPathUnits="userSpaceOnUse"
       id="clipPath174">
      <path
         d="M 0,0 H 960.009 V 540 H 0 Z"
         transform="translate(-632.38852,-318.07351)"
         id="path174" />
    </clipPath>
    <clipPath
       clipPathUnits="userSpaceOnUse"
       id="clipPath176">
      <path
         d="M 0,0 H 960.009 V 540 H 0 Z"
         transform="translate(-651.53441,-331.09111)"
         id="path176" />
    </clipPath>
    <clipPath
       clipPathUnits="userSpaceOnUse"
       id="clipPath170">
      <path
         d="M 0,0 H 960.009 V 540 H 0 Z"
         transform="translate(-591.96502,-324.88781)"
         id="path170" />
    </clipPath>
    <clipPath
       clipPathUnits="userSpaceOnUse"
       id="clipPath172">
      <path
         d="M 0,0 H 960.009 V 540 H 0 Z"
         transform="translate(-586.33631,-340.16661)"
         id="path172" />
    </clipPath>
    <clipPath
       clipPathUnits="userSpaceOnUse"
       id="clipPath166">
      <path
         d="M 0,0 H 960.009 V 540 H 0 Z"
         transform="translate(-524.71871,-320.54331)"
         id="path166" />
    </clipPath>
    <clipPath
       clipPathUnits="userSpaceOnUse"
       id="clipPath168">
      <path
         d="M 0,0 H 960.009 V 540 H 0 Z"
         transform="translate(-503.36561,-325.03411)"
         id="path168" />
    </clipPath>
    <clipPath
       clipPathUnits="userSpaceOnUse"
       id="clipPath160">
      <path
         d="M 0,0 H 960.009 V 540 H 0 Z"
         transform="translate(-403.48081,-318.39281)"
         id="path160" />
    </clipPath>
    <clipPath
       clipPathUnits="userSpaceOnUse"
       id="clipPath162">
      <path
         d="M 0,0 H 960.009 V 540 H 0 Z"
         transform="translate(-451.85691,-327.41961)"
         id="path162" />
    </clipPath>
    <clipPath
       clipPathUnits="userSpaceOnUse"
       id="clipPath164">
      <path
         d="M 0,0 H 960.009 V 540 H 0 Z"
         transform="translate(-409.77981,-357.93981)"
         id="path164" />
    </clipPath>
  </defs>
  <g
     inkscape:label="Layer 1"
     inkscape:groupmode="layer"
     id="layer1"
     transform="translate(551.12718,437.09165)">
    <path
       id="path159"
       d="m 0,0 c -1.092,-0.027 -2.012,0.798 -2.117,1.886 -0.829,8.64 0.433,21.859 0.727,29.809 0.314,8.473 -2.061,16.07 0.129,24.256 0.093,0.346 0.194,0.707 0.442,0.964 0.317,0.329 0.797,0.455 1.251,0.479 9.712,0.496 17.899,-1.297 35.348,-0.584 2.491,0.102 7.335,0.535 9.827,0.582 2.493,0.046 5.147,-0.713 6.73,-2.656 1.389,-1.704 1.744,-4.013 2.007,-6.204 C 56.188,33.156 56.02,17.536 53.846,2.204 53.787,1.785 53.711,1.335 53.412,1.038 53.03,0.658 52.427,0.66 51.892,0.686 49.136,0.822 46.38,0.957 43.623,1.062 43.578,1.064 43.533,1.064 43.488,1.063 Z"
       style="fill:#55bf9b;fill-opacity:1;fill-rule:nonzero;stroke:none"
       transform="matrix(0.35277776,0,0,-0.35277776,-550.28233,-416.81325)"
       clip-path="url(#clipPath160)" />
    <path
       id="path161"
       d="m 0,0 -43.534,0.031 v 0 c -0.316,0 -0.571,-0.255 -0.571,-0.57 -0.001,-0.315 0.255,-0.571 0.57,-0.572 L -0.001,-1.142 H 0 c 0.315,0 0.57,0.255 0.571,0.571 C 0.571,-0.256 0.315,0 0,0"
       style="fill:#ffffff;fill-opacity:1;fill-rule:nonzero;stroke:none"
       transform="matrix(0.35277776,0,0,-0.35277776,-533.21632,-419.99771)"
       clip-path="url(#clipPath162)" />
    <path
       id="path163"
       d="m 0,0 c 0.533,-0.355 1.144,-0.525 1.724,-0.668 3.425,-0.846 7.261,-1.316 12.071,-1.479 1.155,-0.039 2.193,-0.037 3.221,0.249 0.569,-0.33 1.135,-0.678 1.697,-1.042 2.578,-1.674 4.686,-4.291 6.172,-6.541 -1.047,-0.667 -2.298,-1.108 -3.339,-1.324 -0.41,-0.085 -0.834,-0.162 -1.244,-0.237 -1.271,-0.231 -2.586,-0.47 -3.819,-0.994 -2.378,-1.011 -4.297,-3.153 -5.134,-5.73 -0.306,-0.94 -0.41,-1.894 -0.438,-2.839 -0.251,-0.224 -0.484,-0.456 -0.702,-0.697 -1.219,-1.349 -1.892,-3.025 -1.848,-4.601 0.015,-0.544 0.225,-1.348 0.77,-1.82 0.315,-0.273 0.691,-0.393 1.089,-0.348 0.718,0.081 1.277,0.699 1.533,1.696 0.351,1.368 0.327,2.754 0.303,4.094 -0.007,0.385 -0.014,0.764 -0.013,1.137 0.707,0.565 1.564,1.082 2.62,1.583 2.077,0.988 4.056,1.504 5.882,1.534 1.474,0.028 3.056,-0.212 4.575,-0.65 -0.905,-1.077 -1.446,-2.321 -1.695,-3.855 -0.031,-0.189 -0.059,-0.385 -0.089,-0.584 -0.203,-1.393 -0.414,-2.832 -1.496,-3.493 -0.61,-0.372 -1.362,-0.475 -2.063,-0.282 -0.632,0.173 -1.141,0.571 -1.43,1.118 -0.645,1.218 -0.27,2.882 0.295,4.033 0.192,0.39 0.701,1.427 1.308,1.522 0.446,0.068 0.748,-0.421 1.126,-1.123 0.044,-0.083 0.088,-0.163 0.13,-0.239 0.154,-0.276 0.502,-0.374 0.777,-0.22 0.276,0.153 0.374,0.501 0.22,0.777 -0.039,0.071 -0.08,0.146 -0.121,0.223 -0.385,0.715 -1.028,1.911 -2.308,1.71 -1.195,-0.186 -1.869,-1.56 -2.157,-2.146 -0.893,-1.819 -0.998,-3.715 -0.28,-5.071 0.439,-0.829 1.198,-1.428 2.137,-1.686 0.331,-0.091 0.67,-0.135 1.008,-0.135 0.686,0 1.365,0.185 1.953,0.544 1.54,0.94 1.813,2.804 2.032,4.302 0.028,0.194 0.055,0.384 0.085,0.567 0.245,1.501 0.788,2.65 1.756,3.65 1.678,-0.614 3.217,-1.469 4.366,-2.476 0.062,-0.055 0.124,-0.112 0.184,-0.168 -0.028,-0.081 -0.057,-0.163 -0.086,-0.245 -0.101,-0.288 -0.206,-0.586 -0.296,-0.885 -0.301,-1.01 -0.422,-2.056 -0.359,-3.109 0.059,-0.994 0.399,-1.655 1.01,-1.964 0.66,-0.334 1.525,-0.13 2.057,0.485 0.373,0.433 0.58,1.026 0.612,1.763 0.065,1.455 -0.537,2.987 -1.64,4.251 0.204,0.688 0.328,1.399 0.186,2.147 -0.16,0.846 -0.68,1.656 -1.428,2.222 -0.673,0.51 -1.443,0.76 -2.171,0.707 -0.833,-0.062 -1.528,-0.503 -2.04,-0.88 -0.241,-0.178 -0.469,-0.361 -0.683,-0.548 -1.808,0.586 -3.726,0.907 -5.493,0.88 -1.991,-0.033 -4.129,-0.586 -6.354,-1.644 -0.777,-0.369 -1.458,-0.749 -2.059,-1.151 0.056,0.53 0.155,1.049 0.321,1.561 0.736,2.267 2.417,4.148 4.495,5.032 1.116,0.474 2.311,0.691 3.576,0.921 0.417,0.076 0.848,0.155 1.272,0.242 1.195,0.248 2.559,0.736 3.722,1.479 0.063,-0.103 0.125,-0.205 0.185,-0.305 0.835,-1.387 0.451,-2.993 0.17,-4.165 -0.049,-0.204 -0.094,-0.394 -0.13,-0.567 -0.063,-0.309 0.135,-0.611 0.444,-0.674 0.309,-0.063 0.611,0.135 0.675,0.444 0.033,0.161 0.076,0.34 0.122,0.531 0.308,1.287 0.774,3.232 -0.302,5.02 -0.079,0.131 -0.16,0.264 -0.244,0.399 0.524,0.455 0.969,0.978 1.284,1.572 0.641,1.207 0.675,2.529 0.099,3.929 -0.477,1.16 -1.34,2.033 -2.175,2.878 -0.58,0.586 -1.128,1.14 -1.548,1.778 -0.086,0.131 -0.261,0.418 -0.375,0.758 1.141,-0.064 2.167,-0.497 2.788,-0.82 1.189,-0.62 2.271,-1.506 3.318,-2.363 0.232,-0.19 0.465,-0.38 0.698,-0.568 0.444,-0.357 0.889,-0.692 1.438,-0.878 0.713,-0.241 1.445,-0.145 1.958,0.256 0.652,0.512 0.876,1.488 0.545,2.374 -0.261,0.697 -0.783,1.226 -1.307,1.694 -1.707,1.522 -4.391,3.325 -7.524,3.325 -0.029,0 -0.059,0 -0.088,0 C 24.194,4.158 23.2,3.692 22.733,2.862 22.622,2.664 22.544,2.452 22.499,2.229 22.212,2.183 21.933,2.114 21.662,2.024 20.665,1.691 19.835,1.081 19.033,0.49 18.784,0.307 18.526,0.118 18.272,-0.056 17.891,-0.318 17.517,-0.511 17.141,-0.654 14.536,0.811 11.858,1.926 9.151,2.67 9.063,2.694 6.977,3.264 4.669,3.575 2.034,3.93 0.348,3.782 -0.488,3.126 -0.905,2.798 -1.117,2.344 -1.101,1.814 -1.08,1.123 -0.668,0.445 0,0 m 10.647,-26.091 c -0.126,-0.49 -0.344,-0.821 -0.556,-0.846 -0.054,-0.006 -0.122,-0.002 -0.212,0.077 -0.207,0.18 -0.366,0.596 -0.377,0.989 -0.034,1.223 0.478,2.538 1.41,3.639 10e-4,-0.023 10e-4,-0.047 0.002,-0.069 0.023,-1.323 0.046,-2.572 -0.267,-3.79 m 20.924,2.926 c 0.046,0.152 0.096,0.305 0.149,0.46 0.64,-0.917 0.978,-1.94 0.935,-2.909 -0.021,-0.474 -0.134,-0.832 -0.335,-1.065 -0.182,-0.21 -0.492,-0.308 -0.676,-0.214 -0.293,0.148 -0.368,0.698 -0.387,1.014 -0.055,0.918 0.051,1.831 0.314,2.714 m -4.19,5.029 c 0.577,0.425 1.023,0.629 1.446,0.66 0.45,0.031 0.946,-0.137 1.398,-0.479 0.524,-0.397 0.887,-0.952 0.995,-1.523 0.063,-0.332 0.047,-0.67 -0.015,-1.016 -1.081,0.898 -2.446,1.675 -3.934,2.275 0.036,0.028 0.073,0.055 0.11,0.083 M 23.729,2.302 c 0.361,0.644 1.389,0.724 1.814,0.729 0.026,0 0.051,0 0.076,0 2.774,0 5.206,-1.647 6.764,-3.036 0.48,-0.427 0.833,-0.802 0.997,-1.241 0.131,-0.35 0.112,-0.846 -0.18,-1.074 -0.202,-0.159 -0.551,-0.187 -0.888,-0.074 -0.372,0.126 -0.713,0.385 -1.087,0.686 -0.231,0.186 -0.461,0.374 -0.691,0.562 -1.091,0.893 -2.22,1.817 -3.513,2.491 -1.109,0.579 -2.232,0.898 -3.297,0.949 0.001,0.003 0.003,0.005 0.005,0.008 m -4.811,-3.3 c 0.27,0.184 0.535,0.38 0.792,0.568 0.765,0.563 1.488,1.095 2.314,1.371 0.171,0.057 0.341,0.101 0.512,0.135 0.103,-0.427 0.301,-0.87 0.591,-1.31 0.482,-0.731 1.095,-1.352 1.689,-1.953 0.792,-0.8 1.54,-1.557 1.931,-2.508 0.44,-1.071 0.422,-2.067 -0.052,-2.96 -0.221,-0.417 -0.531,-0.795 -0.899,-1.133 -1.551,2.335 -3.75,5.045 -6.461,6.806 -0.331,0.214 -0.662,0.423 -0.996,0.626 0.192,0.106 0.385,0.224 0.579,0.358 m -18.7,3.226 c 0.287,0.225 1.022,0.381 2.148,0.381 1.506,0 3.713,-0.279 6.482,-1.04 2.205,-0.606 4.392,-1.468 6.535,-2.573 -0.486,-0.03 -0.998,-0.021 -1.549,-10e-4 -4.729,0.16 -8.49,0.62 -11.836,1.446 C 1.496,0.565 1.014,0.697 0.633,0.95 0.278,1.187 0.051,1.532 0.041,1.849 0.036,2.015 0.087,2.125 0.218,2.228"
       style="fill:#ffffff;fill-opacity:1;fill-rule:nonzero;stroke:none"
       transform="matrix(0.35277776,0,0,-0.35277776,-548.06018,-430.76456)"
       clip-path="url(#clipPath164)" />
  </g>
</svg>
