<?xml version="1.0" encoding="UTF-8" standalone="no"?>
<!-- Created with Inkscape (http://www.inkscape.org/) -->

<svg
   width="20.564703mm"
   height="20.513369mm"
   viewBox="0 0 20.564702 20.513368"
   version="1.1"
   id="svg1"
   inkscape:version="1.4 (e7c3feb1, 2024-10-09)"
   sodipodi:docname="DIV.svg"
   xmlns:inkscape="http://www.inkscape.org/namespaces/inkscape"
   xmlns:sodipodi="http://sodipodi.sourceforge.net/DTD/sodipodi-0.dtd"
   xmlns="http://www.w3.org/2000/svg"
   xmlns:svg="http://www.w3.org/2000/svg">
  <sodipodi:namedview
     id="namedview1"
     pagecolor="#ffffff"
     bordercolor="#000000"
     borderopacity="0.25"
     inkscape:showpageshadow="2"
     inkscape:pageopacity="0.0"
     inkscape:pagecheckerboard="0"
     inkscape:deskcolor="#d1d1d1"
     inkscape:document-units="mm"
     inkscape:zoom="2.096401"
     inkscape:cx="-89.438997"
     inkscape:cy="60.34151"
     inkscape:window-width="1440"
     inkscape:window-height="872"
     inkscape:window-x="0"
     inkscape:window-y="28"
     inkscape:window-maximized="0"
     inkscape:current-layer="layer1" />
  <defs
     id="defs1">
    <clipPath
       clipPathUnits="userSpaceOnUse"
       id="clipPath46">
      <path
         d="M 0,0 H 960.009 V 540 H 0 Z"
         transform="translate(-335.30581,-447.22351)"
         id="path46" />
    </clipPath>
    <clipPath
       clipPathUnits="userSpaceOnUse"
       id="clipPath48">
      <path
         d="M 0,0 H 960.009 V 540 H 0 Z"
         transform="translate(-366.36111,-395.97531)"
         id="path48" />
    </clipPath>
    <clipPath
       clipPathUnits="userSpaceOnUse"
       id="clipPath46-4">
      <path
         d="M 0,0 H 960.009 V 540 H 0 Z"
         transform="translate(-335.30581,-447.22351)"
         id="path46-1" />
    </clipPath>
    <clipPath
       clipPathUnits="userSpaceOnUse"
       id="clipPath48-8">
      <path
         d="M 0,0 H 960.009 V 540 H 0 Z"
         transform="translate(-366.36111,-395.97531)"
         id="path48-8" />
    </clipPath>
    <clipPath
       clipPathUnits="userSpaceOnUse"
       id="clipPath10">
      <path
         d="M 0,0 H 960.009 V 540 H 0 Z"
         transform="translate(-452.25271,-448.21871)"
         id="path10" />
    </clipPath>
    <clipPath
       clipPathUnits="userSpaceOnUse"
       id="clipPath12">
      <path
         d="M 0,0 H 960.009 V 540 H 0 Z"
         transform="translate(-445.51041,-428.84291)"
         id="path12" />
    </clipPath>
    <clipPath
       clipPathUnits="userSpaceOnUse"
       id="clipPath14">
      <path
         d="M 0,0 H 960.009 V 540 H 0 Z"
         transform="translate(-490.38481,-447.77471)"
         id="path14" />
    </clipPath>
    <clipPath
       clipPathUnits="userSpaceOnUse"
       id="clipPath16">
      <path
         d="M 0,0 H 960.009 V 540 H 0 Z"
         transform="translate(-520.07251,-407.43611)"
         id="path16" />
    </clipPath>
    <clipPath
       clipPathUnits="userSpaceOnUse"
       id="clipPath18">
      <path
         d="M 0,0 H 960.009 V 540 H 0 Z"
         transform="translate(-475.72791,-420.29251)"
         id="path18" />
    </clipPath>
    <clipPath
       clipPathUnits="userSpaceOnUse"
       id="clipPath20">
      <path
         d="M 0,0 H 960.009 V 540 H 0 Z"
         transform="translate(-532.40951,-415.32891)"
         id="path20" />
    </clipPath>
    <clipPath
       clipPathUnits="userSpaceOnUse"
       id="clipPath22">
      <path
         d="M 0,0 H 960.009 V 540 H 0 Z"
         transform="translate(-585.24491,-404.67841)"
         id="path22" />
    </clipPath>
    <clipPath
       clipPathUnits="userSpaceOnUse"
       id="clipPath24">
      <path
         d="M 0,0 H 960.009 V 540 H 0 Z"
         transform="translate(-546.73501,-439.46011)"
         id="path24" />
    </clipPath>
    <clipPath
       clipPathUnits="userSpaceOnUse"
       id="clipPath26">
      <path
         d="M 0,0 H 960.009 V 540 H 0 Z"
         transform="translate(-597.25132,-396.91631)"
         id="path26" />
    </clipPath>
    <clipPath
       clipPathUnits="userSpaceOnUse"
       id="clipPath28">
      <path
         d="M 0,0 H 960.009 V 540 H 0 Z"
         transform="translate(-644.79592,-427.55181)"
         id="path28" />
    </clipPath>
    <clipPath
       clipPathUnits="userSpaceOnUse"
       id="clipPath30">
      <path
         d="M 0,0 H 960.009 V 540 H 0 Z"
         transform="translate(-722.31742,-442.86561)"
         id="path30" />
    </clipPath>
    <clipPath
       clipPathUnits="userSpaceOnUse"
       id="clipPath32">
      <path
         d="M 0,0 H 960.009 V 540 H 0 Z"
         transform="translate(-713.80762,-411.31901)"
         id="path32" />
    </clipPath>
    <clipPath
       clipPathUnits="userSpaceOnUse"
       id="clipPath34">
      <path
         d="M 0,0 H 960.009 V 540 H 0 Z"
         transform="translate(-711.27122,-406.75661)"
         id="path34" />
    </clipPath>
    <clipPath
       clipPathUnits="userSpaceOnUse"
       id="clipPath36">
      <path
         d="M 0,0 H 960.009 V 540 H 0 Z"
         transform="translate(-788.58924,-392.63841)"
         id="path36" />
    </clipPath>
    <clipPath
       clipPathUnits="userSpaceOnUse"
       id="clipPath38">
      <path
         d="M 0,0 H 960.009 V 540 H 0 Z"
         transform="translate(-775.73004,-429.83291)"
         id="path38" />
    </clipPath>
    <clipPath
       clipPathUnits="userSpaceOnUse"
       id="clipPath40">
      <path
         d="M 0,0 H 960.009 V 540 H 0 Z"
         transform="translate(-854.0284,-447.94411)"
         id="path40" />
    </clipPath>
    <clipPath
       clipPathUnits="userSpaceOnUse"
       id="clipPath42">
      <path
         d="M 0,0 H 960.009 V 540 H 0 Z"
         transform="translate(-841.42262,-414.05971)"
         id="path42" />
    </clipPath>
    <clipPath
       clipPathUnits="userSpaceOnUse"
       id="clipPath44">
      <path
         d="M 0,0 H 960.009 V 540 H 0 Z"
         transform="translate(-828.18625,-402.03771)"
         id="path44" />
    </clipPath>
    <clipPath
       clipPathUnits="userSpaceOnUse"
       id="clipPath186">
      <path
         d="M 0,0 H 960.009 V 540 H 0 Z"
         transform="translate(-796.23144,-323.72221)"
         id="path186" />
    </clipPath>
    <clipPath
       clipPathUnits="userSpaceOnUse"
       id="clipPath188">
      <path
         d="M 0,0 H 960.009 V 540 H 0 Z"
         transform="translate(-837.6514,-370.80791)"
         id="path188" />
    </clipPath>
    <clipPath
       clipPathUnits="userSpaceOnUse"
       id="clipPath182">
      <path
         d="M 0,0 H 960.009 V 540 H 0 Z"
         transform="translate(-736.95462,-375.25501)"
         id="path182" />
    </clipPath>
    <clipPath
       clipPathUnits="userSpaceOnUse"
       id="clipPath184">
      <path
         d="M 0,0 H 960.009 V 540 H 0 Z"
         transform="translate(-768.50649,-358.25011)"
         id="path184" />
    </clipPath>
    <clipPath
       clipPathUnits="userSpaceOnUse"
       id="clipPath178">
      <path
         d="M 0,0 H 960.009 V 540 H 0 Z"
         transform="translate(-720.27222,-375.61331)"
         id="path178" />
    </clipPath>
    <clipPath
       clipPathUnits="userSpaceOnUse"
       id="clipPath180">
      <path
         d="M 0,0 H 960.009 V 540 H 0 Z"
         transform="translate(-708.29912,-339.89981)"
         id="path180" />
    </clipPath>
    <clipPath
       clipPathUnits="userSpaceOnUse"
       id="clipPath174">
      <path
         d="M 0,0 H 960.009 V 540 H 0 Z"
         transform="translate(-632.38852,-318.07351)"
         id="path174" />
    </clipPath>
    <clipPath
       clipPathUnits="userSpaceOnUse"
       id="clipPath176">
      <path
         d="M 0,0 H 960.009 V 540 H 0 Z"
         transform="translate(-651.53441,-331.09111)"
         id="path176" />
    </clipPath>
    <clipPath
       clipPathUnits="userSpaceOnUse"
       id="clipPath170">
      <path
         d="M 0,0 H 960.009 V 540 H 0 Z"
         transform="translate(-591.96502,-324.88781)"
         id="path170" />
    </clipPath>
    <clipPath
       clipPathUnits="userSpaceOnUse"
       id="clipPath172">
      <path
         d="M 0,0 H 960.009 V 540 H 0 Z"
         transform="translate(-586.33631,-340.16661)"
         id="path172" />
    </clipPath>
    <clipPath
       clipPathUnits="userSpaceOnUse"
       id="clipPath166">
      <path
         d="M 0,0 H 960.009 V 540 H 0 Z"
         transform="translate(-524.71871,-320.54331)"
         id="path166" />
    </clipPath>
    <clipPath
       clipPathUnits="userSpaceOnUse"
       id="clipPath168">
      <path
         d="M 0,0 H 960.009 V 540 H 0 Z"
         transform="translate(-503.36561,-325.03411)"
         id="path168" />
    </clipPath>
  </defs>
  <g
     inkscape:label="Layer 1"
     inkscape:groupmode="layer"
     id="layer1"
     transform="translate(515.14385,449.26248)">
    <path
       id="path165"
       d="m 0,0 c -0.024,-1.296 -1.088,-2.329 -2.384,-2.316 l -48.42,0.495 c -1.99,-0.118 -4.368,-0.062 -5.463,1.679 -0.617,0.981 -0.623,2.234 -0.614,3.408 0.053,7.021 -0.073,14.043 -0.38,21.056 -0.417,9.55 -1.154,19.266 1.029,28.549 0.107,0.453 0.239,0.936 0.584,1.231 0.277,0.237 0.645,0.313 0.997,0.378 9.617,1.782 19.467,1.475 29.219,0.92 7.388,-0.421 14.768,-0.98 22.137,-1.678 0.312,-0.03 0.649,-0.07 0.88,-0.292 0.221,-0.213 0.293,-0.543 0.344,-0.854 0.42,-2.573 0.141,-5.229 0.554,-7.804 0.316,-1.966 1.028,-3.839 1.453,-5.782 0.587,-2.684 0.619,-5.461 0.633,-8.213 z"
       style="fill:#03a0bf;fill-opacity:1;fill-rule:nonzero;stroke:none"
       transform="matrix(0.35277776,0,0,-0.35277776,-494.77988,-429.56619)"
       clip-path="url(#clipPath166)" />
    <path
       id="path167"
       d="M 0,0 C -0.285,0.267 -0.67,0.445 -1.077,0.634 -1.398,0.782 -1.73,0.936 -2.058,1.147 -3.635,2.164 -5.037,1.366 -6.163,0.724 -6.446,0.563 -6.712,0.411 -6.982,0.281 c -1.206,-0.582 -2.579,-0.303 -4.198,0.853 -0.034,0.024 -0.069,0.05 -0.105,0.076 0.381,0.313 0.74,0.641 1.082,0.953 l 0.162,0.147 c 0.004,0.004 0.008,0.007 0.012,0.011 0.079,-0.424 0.291,-0.816 0.625,-1.094 0.621,-0.515 1.425,-0.543 2.047,-0.071 0.655,0.496 0.877,1.374 0.539,2.134 -0.299,0.671 -0.748,0.934 -1.104,1.033 0.552,1.186 -0.161,2.471 -0.742,3.519 -0.102,0.184 -0.202,0.365 -0.294,0.542 -0.727,1.4 -0.872,3.086 -0.917,4.399 -0.119,3.462 0.333,7.138 1.424,11.567 0.24,0.977 0.545,1.949 0.859,2.901 1.221,-3.124 2.347,-6.084 1.505,-9.369 -0.202,-0.786 -0.485,-1.404 -0.485,-1.404 -0.336,-0.69 -0.663,-1.035 -1.01,-1.399 -0.298,-0.315 -0.607,-0.64 -0.887,-1.155 -0.205,-0.379 -1.179,-2.353 -0.2,-4.093 0.83,-1.478 2.9,-2.543 4.541,-1.708 1.27,0.645 2.204,2.137 2.498,3.99 0.095,0.6 0.318,2.005 -0.498,2.794 -0.879,0.85 -2.013,0.284 -2.691,-0.055 -0.072,-0.036 -0.142,-0.071 -0.209,-0.103 -0.284,-0.136 -0.404,-0.477 -0.268,-0.762 0.137,-0.284 0.478,-0.404 0.762,-0.268 0.073,0.035 0.148,0.073 0.226,0.112 0.737,0.368 1.133,0.5 1.386,0.255 0.389,-0.376 0.225,-1.406 0.164,-1.794 -0.183,-1.152 -0.775,-2.585 -1.887,-3.151 -1.02,-0.517 -2.465,0.247 -3.029,1.25 -0.698,1.242 0.114,2.813 0.209,2.988 0.208,0.382 0.441,0.628 0.711,0.913 0.373,0.392 0.796,0.837 1.214,1.696 0.014,0.029 0.33,0.715 0.559,1.61 0.946,3.691 -0.349,7.004 -1.602,10.208 -0.147,0.377 -0.297,0.759 -0.443,1.144 0.497,1.501 0.977,3.049 1.252,4.666 0.549,3.217 0.604,6.467 0.166,9.661 -0.081,0.587 -0.207,1.253 -0.691,1.744 -0.522,0.528 -1.033,0.542 -1.369,0.461 -1.09,-0.263 -1.608,-1.812 -1.663,-1.987 -1.259,-3.993 -0.992,-8.618 0.796,-13.746 0.096,-0.274 0.196,-0.549 0.298,-0.823 -0.045,-0.132 -0.089,-0.264 -0.133,-0.395 -0.423,-1.264 -0.861,-2.57 -1.19,-3.908 -1.117,-4.534 -1.58,-8.309 -1.456,-11.88 0.049,-1.432 0.212,-3.282 1.044,-4.885 C -9.875,7.672 -9.77,7.482 -9.663,7.289 -9.034,6.155 -8.621,5.303 -9.033,4.668 -9.104,4.558 -9.209,4.447 -9.32,4.33 -9.405,4.241 -9.497,4.144 -9.585,4.035 -10.078,3.777 -10.513,3.425 -10.81,3.155 l -0.162,-0.148 c -0.413,-0.376 -0.832,-0.758 -1.268,-1.101 -1.025,0.706 -2.328,1.38 -3.562,0.759 -0.492,-0.247 -0.804,-0.682 -0.859,-1.194 -0.055,-0.529 0.178,-1.06 0.626,-1.419 0.616,-0.495 1.5,-0.572 2.488,-0.215 0.462,0.166 0.895,0.396 1.303,0.662 0,0 0.002,-0.001 0.002,-0.002 0.141,-0.104 0.274,-0.204 0.399,-0.292 1.28,-0.915 2.463,-1.37 3.574,-1.37 0.615,0 1.208,0.139 1.783,0.417 0.305,0.147 0.601,0.316 0.888,0.479 1.194,0.68 1.974,1.066 2.921,0.456 0.395,-0.255 0.78,-0.433 1.12,-0.59 0.336,-0.155 0.625,-0.289 0.776,-0.43 0.23,-0.216 0.592,-0.205 0.807,0.026 C 0.242,-0.577 0.23,-0.216 0,0 m -8.242,43.151 c 0.182,0.576 0.583,1.158 0.842,1.221 0.009,0.002 0.019,0.003 0.029,0.003 0.069,0 0.156,-0.053 0.259,-0.157 0.238,-0.241 0.314,-0.674 0.372,-1.096 0.423,-3.079 0.369,-6.212 -0.16,-9.314 -0.178,-1.046 -0.45,-2.075 -0.758,-3.086 -1.522,4.651 -1.719,8.829 -0.584,12.429 M -8.819,3.135 c 0.223,0.091 0.418,0.125 0.566,0.094 0.064,-0.013 0.234,-0.049 0.391,-0.403 0.143,-0.32 0.01,-0.612 -0.185,-0.76 -0.138,-0.104 -0.359,-0.182 -0.628,0.041 -0.262,0.217 -0.32,0.683 -0.144,1.028 m -5.115,-2.224 c -0.28,-0.1 -0.974,-0.299 -1.386,0.031 -0.143,0.115 -0.22,0.268 -0.205,0.409 0.016,0.153 0.137,0.244 0.235,0.294 0.166,0.083 0.343,0.12 0.528,0.12 0.473,0 0.996,-0.241 1.495,-0.55 -0.216,-0.119 -0.438,-0.221 -0.667,-0.304"
       style="fill:#ffffff;fill-opacity:1;fill-rule:nonzero;stroke:none"
       transform="matrix(0.35277776,0,0,-0.35277776,-502.31278,-431.15045)"
       clip-path="url(#clipPath168)" />
  </g>
</svg>
