<?xml version="1.0" encoding="UTF-8" standalone="no"?>
<!-- Created with Inkscape (http://www.inkscape.org/) -->

<svg
   width="21.230047mm"
   height="20.561554mm"
   viewBox="0 0 21.230047 20.561553"
   version="1.1"
   id="svg1"
   inkscape:version="1.4 (e7c3feb1, 2024-10-09)"
   sodipodi:docname="GRY.svg"
   xmlns:inkscape="http://www.inkscape.org/namespaces/inkscape"
   xmlns:sodipodi="http://sodipodi.sourceforge.net/DTD/sodipodi-0.dtd"
   xmlns="http://www.w3.org/2000/svg"
   xmlns:svg="http://www.w3.org/2000/svg">
  <sodipodi:namedview
     id="namedview1"
     pagecolor="#ffffff"
     bordercolor="#000000"
     borderopacity="0.25"
     inkscape:showpageshadow="2"
     inkscape:pageopacity="0.0"
     inkscape:pagecheckerboard="0"
     inkscape:deskcolor="#d1d1d1"
     inkscape:document-units="mm"
     inkscape:zoom="2.096401"
     inkscape:cx="39.830167"
     inkscape:cy="38.876151"
     inkscape:window-width="1440"
     inkscape:window-height="872"
     inkscape:window-x="0"
     inkscape:window-y="28"
     inkscape:window-maximized="0"
     inkscape:current-layer="layer1" />
  <defs
     id="defs1">
    <clipPath
       clipPathUnits="userSpaceOnUse"
       id="clipPath46">
      <path
         d="M 0,0 H 960.009 V 540 H 0 Z"
         transform="translate(-335.30581,-447.22351)"
         id="path46" />
    </clipPath>
    <clipPath
       clipPathUnits="userSpaceOnUse"
       id="clipPath48">
      <path
         d="M 0,0 H 960.009 V 540 H 0 Z"
         transform="translate(-366.36111,-395.97531)"
         id="path48" />
    </clipPath>
    <clipPath
       clipPathUnits="userSpaceOnUse"
       id="clipPath46-4">
      <path
         d="M 0,0 H 960.009 V 540 H 0 Z"
         transform="translate(-335.30581,-447.22351)"
         id="path46-1" />
    </clipPath>
    <clipPath
       clipPathUnits="userSpaceOnUse"
       id="clipPath48-8">
      <path
         d="M 0,0 H 960.009 V 540 H 0 Z"
         transform="translate(-366.36111,-395.97531)"
         id="path48-8" />
    </clipPath>
    <clipPath
       clipPathUnits="userSpaceOnUse"
       id="clipPath10">
      <path
         d="M 0,0 H 960.009 V 540 H 0 Z"
         transform="translate(-452.25271,-448.21871)"
         id="path10" />
    </clipPath>
    <clipPath
       clipPathUnits="userSpaceOnUse"
       id="clipPath12">
      <path
         d="M 0,0 H 960.009 V 540 H 0 Z"
         transform="translate(-445.51041,-428.84291)"
         id="path12" />
    </clipPath>
    <clipPath
       clipPathUnits="userSpaceOnUse"
       id="clipPath14">
      <path
         d="M 0,0 H 960.009 V 540 H 0 Z"
         transform="translate(-490.38481,-447.77471)"
         id="path14" />
    </clipPath>
    <clipPath
       clipPathUnits="userSpaceOnUse"
       id="clipPath16">
      <path
         d="M 0,0 H 960.009 V 540 H 0 Z"
         transform="translate(-520.07251,-407.43611)"
         id="path16" />
    </clipPath>
    <clipPath
       clipPathUnits="userSpaceOnUse"
       id="clipPath18">
      <path
         d="M 0,0 H 960.009 V 540 H 0 Z"
         transform="translate(-475.72791,-420.29251)"
         id="path18" />
    </clipPath>
    <clipPath
       clipPathUnits="userSpaceOnUse"
       id="clipPath20">
      <path
         d="M 0,0 H 960.009 V 540 H 0 Z"
         transform="translate(-532.40951,-415.32891)"
         id="path20" />
    </clipPath>
    <clipPath
       clipPathUnits="userSpaceOnUse"
       id="clipPath22">
      <path
         d="M 0,0 H 960.009 V 540 H 0 Z"
         transform="translate(-585.24491,-404.67841)"
         id="path22" />
    </clipPath>
    <clipPath
       clipPathUnits="userSpaceOnUse"
       id="clipPath24">
      <path
         d="M 0,0 H 960.009 V 540 H 0 Z"
         transform="translate(-546.73501,-439.46011)"
         id="path24" />
    </clipPath>
    <clipPath
       clipPathUnits="userSpaceOnUse"
       id="clipPath26">
      <path
         d="M 0,0 H 960.009 V 540 H 0 Z"
         transform="translate(-597.25132,-396.91631)"
         id="path26" />
    </clipPath>
    <clipPath
       clipPathUnits="userSpaceOnUse"
       id="clipPath28">
      <path
         d="M 0,0 H 960.009 V 540 H 0 Z"
         transform="translate(-644.79592,-427.55181)"
         id="path28" />
    </clipPath>
    <clipPath
       clipPathUnits="userSpaceOnUse"
       id="clipPath30">
      <path
         d="M 0,0 H 960.009 V 540 H 0 Z"
         transform="translate(-722.31742,-442.86561)"
         id="path30" />
    </clipPath>
    <clipPath
       clipPathUnits="userSpaceOnUse"
       id="clipPath32">
      <path
         d="M 0,0 H 960.009 V 540 H 0 Z"
         transform="translate(-713.80762,-411.31901)"
         id="path32" />
    </clipPath>
    <clipPath
       clipPathUnits="userSpaceOnUse"
       id="clipPath34">
      <path
         d="M 0,0 H 960.009 V 540 H 0 Z"
         transform="translate(-711.27122,-406.75661)"
         id="path34" />
    </clipPath>
    <clipPath
       clipPathUnits="userSpaceOnUse"
       id="clipPath36">
      <path
         d="M 0,0 H 960.009 V 540 H 0 Z"
         transform="translate(-788.58924,-392.63841)"
         id="path36" />
    </clipPath>
    <clipPath
       clipPathUnits="userSpaceOnUse"
       id="clipPath38">
      <path
         d="M 0,0 H 960.009 V 540 H 0 Z"
         transform="translate(-775.73004,-429.83291)"
         id="path38" />
    </clipPath>
    <clipPath
       clipPathUnits="userSpaceOnUse"
       id="clipPath40">
      <path
         d="M 0,0 H 960.009 V 540 H 0 Z"
         transform="translate(-854.0284,-447.94411)"
         id="path40" />
    </clipPath>
    <clipPath
       clipPathUnits="userSpaceOnUse"
       id="clipPath42">
      <path
         d="M 0,0 H 960.009 V 540 H 0 Z"
         transform="translate(-841.42262,-414.05971)"
         id="path42" />
    </clipPath>
    <clipPath
       clipPathUnits="userSpaceOnUse"
       id="clipPath44">
      <path
         d="M 0,0 H 960.009 V 540 H 0 Z"
         transform="translate(-828.18625,-402.03771)"
         id="path44" />
    </clipPath>
    <clipPath
       clipPathUnits="userSpaceOnUse"
       id="clipPath186">
      <path
         d="M 0,0 H 960.009 V 540 H 0 Z"
         transform="translate(-796.23144,-323.72221)"
         id="path186" />
    </clipPath>
    <clipPath
       clipPathUnits="userSpaceOnUse"
       id="clipPath188">
      <path
         d="M 0,0 H 960.009 V 540 H 0 Z"
         transform="translate(-837.6514,-370.80791)"
         id="path188" />
    </clipPath>
  </defs>
  <g
     inkscape:label="Layer 1"
     inkscape:groupmode="layer"
     id="layer1"
     transform="translate(549.27509,443.44166)">
    <path
       id="path185"
       d="m 0,0 c -0.242,-2.642 1.781,-4.946 4.432,-5.044 9.565,-0.357 20.741,-0.748 29.625,-0.707 2.867,0.013 5.761,0.046 8.556,0.632 2.025,0.425 3.976,1.137 6.025,1.453 2.682,0.413 5.449,0.135 8.131,0.554 0.323,0.051 0.667,0.123 0.888,0.344 0.231,0.231 0.274,0.568 0.305,0.88 0.727,7.367 1.31,14.746 1.748,22.132 0.578,9.751 0.898,19.599 -0.958,29.214 -0.068,0.352 -0.147,0.72 -0.394,0.997 -0.308,0.345 -0.811,0.477 -1.283,0.584 -9.671,2.182 -19.794,1.445 -29.743,1.028 C 20.025,51.761 12.709,51.634 5.395,51.688 4.172,51.697 2.866,51.69 1.844,51.073 0.03,49.979 -0.028,47.602 0.095,45.612 1.135,28.801 2.349,27.135 0.949,10.347 Z"
       style="fill:#f37361;fill-opacity:1;fill-rule:nonzero;stroke:none"
       transform="matrix(0.35277776,0,0,-0.35277776,-549.26816,-424.90998)"
       clip-path="url(#clipPath186)" />
    <path
       id="path187"
       d="m 0,0 c -6.531,0 -11.845,-5.314 -11.845,-11.845 0,-0.972 0.119,-1.935 0.351,-2.87 -2.214,-1.104 -4.358,-2.861 -6.539,-5.359 -0.156,-0.178 -0.309,-0.359 -0.46,-0.543 -0.34,0.04 -0.677,0.059 -1.012,0.056 -1.458,-0.01 -2.888,-0.431 -4.138,-1.217 -0.158,-0.099 -0.314,-0.202 -0.469,-0.304 -0.844,-0.557 -1.573,-1.038 -2.515,-0.885 -0.916,0.149 -1.737,1.022 -1.91,2.032 -0.183,1.068 0.292,2.297 1.209,3.131 1.05,0.954 2.418,1.28 3.381,1.385 0.555,0.061 0.918,0.002 1.108,-0.178 0.394,-0.372 0.112,-1.23 -0.094,-1.856 l -0.045,-0.136 c -0.097,-0.299 0.067,-0.622 0.367,-0.719 0.3,-0.098 0.622,0.066 0.719,0.367 l 0.043,0.131 c 0.268,0.812 0.715,2.172 -0.205,3.043 -0.597,0.566 -1.437,0.547 -2.017,0.483 -1.131,-0.123 -2.748,-0.514 -4.025,-1.675 -1.217,-1.106 -1.818,-2.704 -1.567,-4.169 0.256,-1.492 1.456,-2.74 2.853,-2.967 1.381,-0.223 2.415,0.458 3.327,1.059 0.148,0.098 0.297,0.196 0.448,0.291 1.054,0.663 2.311,1.033 3.538,1.042 0.052,0 0.104,0 0.156,0 -0.488,-0.653 -0.957,-1.32 -1.417,-1.975 -0.816,-1.162 -1.653,-2.354 -2.577,-3.426 -1.336,-0.339 -2.503,-0.852 -3.416,-1.338 -1.409,-0.751 -4.803,-2.801 -5.872,-5.591 -0.189,-0.491 -0.165,-1.001 0.063,-1.399 0.232,-0.403 0.662,-0.678 1.18,-0.754 0.586,-0.086 1.214,0.077 1.922,0.498 2.036,1.212 3.475,3.237 4.867,5.195 0.413,0.58 0.804,1.129 1.204,1.65 0.227,0.228 0.447,0.463 0.663,0.703 1.25,0.28 2.486,0.354 3.642,0.208 1.22,-0.154 2.596,-0.438 4.015,-0.854 -0.123,-0.368 -0.215,-0.757 -0.274,-1.164 -0.196,-1.362 -0.022,-2.72 0.146,-4.033 l 0.018,-0.139 c 0.035,-0.273 0.069,-0.545 0.101,-0.817 -0.183,-0.152 -0.362,-0.308 -0.536,-0.471 -1.962,-1.846 -3.095,-4.556 -3.031,-7.248 0.014,-0.55 0.1,-1.338 0.695,-1.836 0.3,-0.251 0.688,-0.378 1.09,-0.378 0.366,0 0.744,0.104 1.079,0.315 1.426,0.895 1.813,3.025 1.991,4.78 0.147,1.45 0.066,2.917 -0.083,4.339 0.194,0.15 0.393,0.3 0.596,0.453 1.046,0.785 2.129,1.598 2.835,2.78 0.239,0.4 0.425,0.835 0.558,1.292 1.805,-0.994 3.447,-2.233 4.66,-3.725 -0.046,-0.216 -0.098,-0.437 -0.156,-0.662 -0.122,-0.479 -0.294,-1.011 -0.477,-1.574 -0.656,-2.029 -1.4,-4.329 -0.611,-6.247 0.258,-0.627 0.882,-1.251 1.703,-1.234 0.613,0.013 1.192,0.386 1.672,1.078 0.964,1.388 1.29,3.222 0.896,5.031 -0.298,1.37 -0.908,2.676 -1.808,3.891 0.383,2.157 0.194,3.899 -0.569,5.301 -0.624,1.147 -1.677,2.118 -3.044,2.808 -1.049,0.528 -2.119,0.787 -3.114,0.772 -0.872,1.416 -2.234,2.659 -3.96,3.592 -0.848,0.458 -1.689,0.798 -2.517,1.018 0.011,0.013 0.022,0.026 0.034,0.039 2.216,2.537 4.372,4.265 6.592,5.281 0.006,0.003 0.011,0.007 0.017,0.01 0.014,0.007 0.028,0.016 0.042,0.025 0.019,0.011 0.037,0.022 0.054,0.036 0.012,0.009 0.022,0.019 0.033,0.029 0.017,0.015 0.033,0.031 0.048,0.048 0.009,0.01 0.017,0.022 0.025,0.033 0.013,0.018 0.027,0.036 0.038,0.056 0.007,0.012 0.012,0.026 0.019,0.039 0.009,0.019 0.018,0.039 0.025,0.06 0.005,0.014 0.008,0.029 0.012,0.044 0.005,0.021 0.011,0.041 0.013,0.062 0.003,0.016 0.003,0.031 0.004,0.047 10e-4,0.021 0.002,0.043 10e-4,0.064 -10e-4,0.016 -0.004,0.031 -0.006,0.047 -0.003,0.022 -0.007,0.044 -0.012,0.065 -0.002,0.005 -0.002,0.01 -0.003,0.015 -0.287,0.976 -0.432,1.992 -0.432,3.019 0,5.902 4.801,10.703 10.703,10.703 5.901,0 10.703,-4.801 10.703,-10.703 0,-5.902 -4.802,-10.703 -10.703,-10.703 -3.871,0 -7.452,2.1 -9.345,5.481 -0.154,0.275 -0.502,0.374 -0.777,0.22 -0.276,-0.154 -0.374,-0.502 -0.22,-0.778 2.096,-3.741 6.058,-6.065 10.342,-6.065 6.531,0 11.845,5.314 11.845,11.845 C 11.845,-5.314 6.531,0 0,0 m -25.522,-29.832 c -1.323,-1.861 -2.691,-3.786 -4.521,-4.875 -0.473,-0.281 -0.856,-0.396 -1.171,-0.349 -0.162,0.024 -0.302,0.099 -0.355,0.192 -0.055,0.095 -0.05,0.261 0.012,0.422 0.958,2.499 4.332,4.453 5.344,4.992 0.478,0.255 0.963,0.481 1.451,0.676 -0.256,-0.35 -0.511,-0.708 -0.76,-1.058 m 21.171,-6.048 c 0.479,-0.806 0.837,-1.676 1.04,-2.609 0.322,-1.478 0.054,-3.025 -0.718,-4.137 -0.151,-0.216 -0.449,-0.581 -0.758,-0.587 -0.226,-0.015 -0.497,0.221 -0.623,0.526 -0.63,1.531 0.046,3.62 0.642,5.462 0.152,0.47 0.298,0.919 0.417,1.345 m -3.78,8.614 c 0.808,-0.408 1.908,-1.144 2.556,-2.334 0.522,-0.958 0.715,-2.139 0.582,-3.577 -1.042,1.1 -2.342,2.111 -3.883,3.009 -0.257,0.15 -0.52,0.296 -0.788,0.439 0.076,0.895 -0.034,1.829 -0.338,2.723 -0.041,0.118 -0.084,0.236 -0.131,0.353 0.719,-0.083 1.421,-0.32 2.002,-0.613 m -6.793,-12.396 c -0.089,-0.879 -0.326,-3.215 -1.462,-3.928 -0.277,-0.173 -0.641,-0.186 -0.829,-0.028 -0.18,0.15 -0.273,0.473 -0.286,0.987 -0.055,2.326 0.902,4.666 2.569,6.29 0.092,-1.113 0.119,-2.217 0.008,-3.321 m 3.503,8.043 c -0.591,-0.989 -1.538,-1.7 -2.54,-2.453 -0.022,-0.016 -0.043,-0.033 -0.065,-0.049 -0.006,0.048 -0.012,0.096 -0.018,0.144 l -0.018,0.139 c -0.158,1.237 -0.322,2.517 -0.148,3.726 0.049,0.345 0.128,0.674 0.232,0.982 1.025,-0.346 2.058,-0.761 3.058,-1.247 -0.107,-0.443 -0.274,-0.863 -0.501,-1.242 m 0.053,4.938 c 0.109,-0.227 0.205,-0.459 0.285,-0.694 0.201,-0.591 0.301,-1.201 0.302,-1.797 -0.864,0.403 -1.767,0.768 -2.693,1.086 0.265,0.399 0.588,0.727 0.958,0.965 0.355,0.228 0.744,0.368 1.148,0.44 m -3.865,3.794 c 1.371,-0.741 2.481,-1.69 3.249,-2.762 -0.41,-0.115 -0.797,-0.285 -1.149,-0.511 -0.587,-0.376 -1.082,-0.914 -1.459,-1.567 -1.438,0.43 -2.909,0.746 -4.347,0.928 -0.466,0.059 -0.924,0.086 -1.373,0.086 -0.44,0 -0.871,-0.026 -1.292,-0.073 0.622,0.802 1.206,1.634 1.781,2.452 0.583,0.83 1.181,1.681 1.808,2.486 0.905,-0.18 1.835,-0.527 2.782,-1.039"
       style="fill:#ffffff;fill-opacity:1;fill-rule:nonzero;stroke:none"
       transform="matrix(0.35277776,0,0,-0.35277776,-534.65612,-441.52077)"
       clip-path="url(#clipPath188)" />
  </g>
</svg>
