<?xml version="1.0" encoding="UTF-8" standalone="no"?>
<!-- Created with Inkscape (http://www.inkscape.org/) -->

<svg
   width="20.226265mm"
   height="20.474804mm"
   viewBox="0 0 20.226264 20.474803"
   version="1.1"
   id="svg1"
   inkscape:version="1.4 (e7c3feb1, 2024-10-09)"
   sodipodi:docname="HO5.svg"
   xmlns:inkscape="http://www.inkscape.org/namespaces/inkscape"
   xmlns:sodipodi="http://sodipodi.sourceforge.net/DTD/sodipodi-0.dtd"
   xmlns="http://www.w3.org/2000/svg"
   xmlns:svg="http://www.w3.org/2000/svg">
  <sodipodi:namedview
     id="namedview1"
     pagecolor="#ffffff"
     bordercolor="#000000"
     borderopacity="0.25"
     inkscape:showpageshadow="2"
     inkscape:pageopacity="0.0"
     inkscape:pagecheckerboard="0"
     inkscape:deskcolor="#d1d1d1"
     inkscape:document-units="mm"
     inkscape:zoom="2.096401"
     inkscape:cx="38.399143"
     inkscape:cy="38.399143"
     inkscape:window-width="1440"
     inkscape:window-height="872"
     inkscape:window-x="0"
     inkscape:window-y="28"
     inkscape:window-maximized="0"
     inkscape:current-layer="layer1" />
  <defs
     id="defs1">
    <clipPath
       clipPathUnits="userSpaceOnUse"
       id="clipPath46">
      <path
         d="M 0,0 H 960.009 V 540 H 0 Z"
         transform="translate(-335.30581,-447.22351)"
         id="path46" />
    </clipPath>
    <clipPath
       clipPathUnits="userSpaceOnUse"
       id="clipPath48">
      <path
         d="M 0,0 H 960.009 V 540 H 0 Z"
         transform="translate(-366.36111,-395.97531)"
         id="path48" />
    </clipPath>
    <clipPath
       clipPathUnits="userSpaceOnUse"
       id="clipPath46-4">
      <path
         d="M 0,0 H 960.009 V 540 H 0 Z"
         transform="translate(-335.30581,-447.22351)"
         id="path46-1" />
    </clipPath>
    <clipPath
       clipPathUnits="userSpaceOnUse"
       id="clipPath48-8">
      <path
         d="M 0,0 H 960.009 V 540 H 0 Z"
         transform="translate(-366.36111,-395.97531)"
         id="path48-8" />
    </clipPath>
    <clipPath
       clipPathUnits="userSpaceOnUse"
       id="clipPath10">
      <path
         d="M 0,0 H 960.009 V 540 H 0 Z"
         transform="translate(-452.25271,-448.21871)"
         id="path10" />
    </clipPath>
    <clipPath
       clipPathUnits="userSpaceOnUse"
       id="clipPath12">
      <path
         d="M 0,0 H 960.009 V 540 H 0 Z"
         transform="translate(-445.51041,-428.84291)"
         id="path12" />
    </clipPath>
    <clipPath
       clipPathUnits="userSpaceOnUse"
       id="clipPath14">
      <path
         d="M 0,0 H 960.009 V 540 H 0 Z"
         transform="translate(-490.38481,-447.77471)"
         id="path14" />
    </clipPath>
    <clipPath
       clipPathUnits="userSpaceOnUse"
       id="clipPath16">
      <path
         d="M 0,0 H 960.009 V 540 H 0 Z"
         transform="translate(-520.07251,-407.43611)"
         id="path16" />
    </clipPath>
    <clipPath
       clipPathUnits="userSpaceOnUse"
       id="clipPath18">
      <path
         d="M 0,0 H 960.009 V 540 H 0 Z"
         transform="translate(-475.72791,-420.29251)"
         id="path18" />
    </clipPath>
    <clipPath
       clipPathUnits="userSpaceOnUse"
       id="clipPath20">
      <path
         d="M 0,0 H 960.009 V 540 H 0 Z"
         transform="translate(-532.40951,-415.32891)"
         id="path20" />
    </clipPath>
    <clipPath
       clipPathUnits="userSpaceOnUse"
       id="clipPath22">
      <path
         d="M 0,0 H 960.009 V 540 H 0 Z"
         transform="translate(-585.24491,-404.67841)"
         id="path22" />
    </clipPath>
    <clipPath
       clipPathUnits="userSpaceOnUse"
       id="clipPath24">
      <path
         d="M 0,0 H 960.009 V 540 H 0 Z"
         transform="translate(-546.73501,-439.46011)"
         id="path24" />
    </clipPath>
    <clipPath
       clipPathUnits="userSpaceOnUse"
       id="clipPath26">
      <path
         d="M 0,0 H 960.009 V 540 H 0 Z"
         transform="translate(-597.25132,-396.91631)"
         id="path26" />
    </clipPath>
    <clipPath
       clipPathUnits="userSpaceOnUse"
       id="clipPath28">
      <path
         d="M 0,0 H 960.009 V 540 H 0 Z"
         transform="translate(-644.79592,-427.55181)"
         id="path28" />
    </clipPath>
    <clipPath
       clipPathUnits="userSpaceOnUse"
       id="clipPath30">
      <path
         d="M 0,0 H 960.009 V 540 H 0 Z"
         transform="translate(-722.31742,-442.86561)"
         id="path30" />
    </clipPath>
    <clipPath
       clipPathUnits="userSpaceOnUse"
       id="clipPath32">
      <path
         d="M 0,0 H 960.009 V 540 H 0 Z"
         transform="translate(-713.80762,-411.31901)"
         id="path32" />
    </clipPath>
    <clipPath
       clipPathUnits="userSpaceOnUse"
       id="clipPath34">
      <path
         d="M 0,0 H 960.009 V 540 H 0 Z"
         transform="translate(-711.27122,-406.75661)"
         id="path34" />
    </clipPath>
    <clipPath
       clipPathUnits="userSpaceOnUse"
       id="clipPath36">
      <path
         d="M 0,0 H 960.009 V 540 H 0 Z"
         transform="translate(-788.58924,-392.63841)"
         id="path36" />
    </clipPath>
    <clipPath
       clipPathUnits="userSpaceOnUse"
       id="clipPath38">
      <path
         d="M 0,0 H 960.009 V 540 H 0 Z"
         transform="translate(-775.73004,-429.83291)"
         id="path38" />
    </clipPath>
    <clipPath
       clipPathUnits="userSpaceOnUse"
       id="clipPath40">
      <path
         d="M 0,0 H 960.009 V 540 H 0 Z"
         transform="translate(-854.0284,-447.94411)"
         id="path40" />
    </clipPath>
    <clipPath
       clipPathUnits="userSpaceOnUse"
       id="clipPath42">
      <path
         d="M 0,0 H 960.009 V 540 H 0 Z"
         transform="translate(-841.42262,-414.05971)"
         id="path42" />
    </clipPath>
    <clipPath
       clipPathUnits="userSpaceOnUse"
       id="clipPath44">
      <path
         d="M 0,0 H 960.009 V 540 H 0 Z"
         transform="translate(-828.18625,-402.03771)"
         id="path44" />
    </clipPath>
    <clipPath
       clipPathUnits="userSpaceOnUse"
       id="clipPath186">
      <path
         d="M 0,0 H 960.009 V 540 H 0 Z"
         transform="translate(-796.23144,-323.72221)"
         id="path186" />
    </clipPath>
    <clipPath
       clipPathUnits="userSpaceOnUse"
       id="clipPath188">
      <path
         d="M 0,0 H 960.009 V 540 H 0 Z"
         transform="translate(-837.6514,-370.80791)"
         id="path188" />
    </clipPath>
    <clipPath
       clipPathUnits="userSpaceOnUse"
       id="clipPath182">
      <path
         d="M 0,0 H 960.009 V 540 H 0 Z"
         transform="translate(-736.95462,-375.25501)"
         id="path182" />
    </clipPath>
    <clipPath
       clipPathUnits="userSpaceOnUse"
       id="clipPath184">
      <path
         d="M 0,0 H 960.009 V 540 H 0 Z"
         transform="translate(-768.50649,-358.25011)"
         id="path184" />
    </clipPath>
    <clipPath
       clipPathUnits="userSpaceOnUse"
       id="clipPath178">
      <path
         d="M 0,0 H 960.009 V 540 H 0 Z"
         transform="translate(-720.27222,-375.61331)"
         id="path178" />
    </clipPath>
    <clipPath
       clipPathUnits="userSpaceOnUse"
       id="clipPath180">
      <path
         d="M 0,0 H 960.009 V 540 H 0 Z"
         transform="translate(-708.29912,-339.89981)"
         id="path180" />
    </clipPath>
    <clipPath
       clipPathUnits="userSpaceOnUse"
       id="clipPath174">
      <path
         d="M 0,0 H 960.009 V 540 H 0 Z"
         transform="translate(-632.38852,-318.07351)"
         id="path174" />
    </clipPath>
    <clipPath
       clipPathUnits="userSpaceOnUse"
       id="clipPath176">
      <path
         d="M 0,0 H 960.009 V 540 H 0 Z"
         transform="translate(-651.53441,-331.09111)"
         id="path176" />
    </clipPath>
    <clipPath
       clipPathUnits="userSpaceOnUse"
       id="clipPath170">
      <path
         d="M 0,0 H 960.009 V 540 H 0 Z"
         transform="translate(-591.96502,-324.88781)"
         id="path170" />
    </clipPath>
    <clipPath
       clipPathUnits="userSpaceOnUse"
       id="clipPath172">
      <path
         d="M 0,0 H 960.009 V 540 H 0 Z"
         transform="translate(-586.33631,-340.16661)"
         id="path172" />
    </clipPath>
    <clipPath
       clipPathUnits="userSpaceOnUse"
       id="clipPath166">
      <path
         d="M 0,0 H 960.009 V 540 H 0 Z"
         transform="translate(-524.71871,-320.54331)"
         id="path166" />
    </clipPath>
    <clipPath
       clipPathUnits="userSpaceOnUse"
       id="clipPath168">
      <path
         d="M 0,0 H 960.009 V 540 H 0 Z"
         transform="translate(-503.36561,-325.03411)"
         id="path168" />
    </clipPath>
    <clipPath
       clipPathUnits="userSpaceOnUse"
       id="clipPath160">
      <path
         d="M 0,0 H 960.009 V 540 H 0 Z"
         transform="translate(-403.48081,-318.39281)"
         id="path160" />
    </clipPath>
    <clipPath
       clipPathUnits="userSpaceOnUse"
       id="clipPath162">
      <path
         d="M 0,0 H 960.009 V 540 H 0 Z"
         transform="translate(-451.85691,-327.41961)"
         id="path162" />
    </clipPath>
    <clipPath
       clipPathUnits="userSpaceOnUse"
       id="clipPath164">
      <path
         d="M 0,0 H 960.009 V 540 H 0 Z"
         transform="translate(-409.77981,-357.93981)"
         id="path164" />
    </clipPath>
    <clipPath
       clipPathUnits="userSpaceOnUse"
       id="clipPath156">
      <path
         d="M 0,0 H 960.009 V 540 H 0 Z"
         transform="translate(-368.23991,-318.73791)"
         id="path156" />
    </clipPath>
    <clipPath
       clipPathUnits="userSpaceOnUse"
       id="clipPath158">
      <path
         d="M 0,0 H 960.009 V 540 H 0 Z"
         transform="translate(-383.86171,-342.63551)"
         id="path158" />
    </clipPath>
    <clipPath
       clipPathUnits="userSpaceOnUse"
       id="clipPath114">
      <path
         d="M 0,0 H 960.009 V 540 H 0 Z"
         transform="translate(-392.75611,-298.45791)"
         id="path114" />
    </clipPath>
    <clipPath
       clipPathUnits="userSpaceOnUse"
       id="clipPath116">
      <path
         d="M 0,0 H 960.009 V 540 H 0 Z"
         transform="translate(-387.31901,-254.33761)"
         id="path116" />
    </clipPath>
    <clipPath
       clipPathUnits="userSpaceOnUse"
       id="clipPath118">
      <path
         d="M 0,0 H 960.009 V 540 H 0 Z"
         transform="translate(-360.51291,-262.97961)"
         id="path118" />
    </clipPath>
    <clipPath
       clipPathUnits="userSpaceOnUse"
       id="clipPath120">
      <path
         d="M 0,0 H 960.009 V 540 H 0 Z"
         transform="translate(-455.62551,-246.02871)"
         id="path120" />
    </clipPath>
    <clipPath
       clipPathUnits="userSpaceOnUse"
       id="clipPath122">
      <path
         d="M 0,0 H 960.009 V 540 H 0 Z"
         transform="translate(-452.63151,-264.6049)"
         id="path122" />
    </clipPath>
    <clipPath
       clipPathUnits="userSpaceOnUse"
       id="clipPath124">
      <path
         d="M 0,0 H 960.009 V 540 H 0 Z"
         transform="translate(-409.98541,-258.8899)"
         id="path124" />
    </clipPath>
  </defs>
  <g
     inkscape:label="Layer 1"
     inkscape:groupmode="layer"
     id="layer1"
     transform="translate(549.01053,443.44165)">
    <path
       id="path119"
       d="m 0,0 c 0,0 -44.486,-1.568 -52.672,0.622 -0.346,0.093 -0.707,0.195 -0.964,0.442 -0.329,0.317 -0.455,0.797 -0.479,1.251 -0.496,9.712 1.297,17.899 0.584,35.348 -0.102,2.491 -0.535,7.335 -0.582,9.828 -0.046,2.492 0.713,5.146 2.656,6.729 1.704,1.389 4.013,1.744 6.204,2.007 15.376,1.844 30.996,1.676 46.328,-0.497 0.419,-0.06 0.87,-0.136 1.167,-0.435 0.379,-0.381 0.377,-0.984 0.351,-1.52 C 2.456,50.997 2.319,48.219 2.215,45.439 1.673,31.096 1.977,16.722 3.124,2.414 3.228,1.112 2.196,0 0.89,0 Z"
       style="fill:#fcb560;fill-opacity:1;fill-rule:nonzero;stroke:none"
       transform="matrix(0.35277776,0,0,-0.35277776,-529.88889,-423.15862)"
       clip-path="url(#clipPath120)" />
    <path
       id="path121"
       d="M 0,0 C -0.242,0.7 -0.951,1.222 -1.85,1.362 -2.953,1.534 -4.049,1.413 -5.109,1.297 -5.775,1.223 -6.426,1.144 -7.056,1.155 -7.28,2.204 -7.321,3.457 -7.327,4.797 c 0,0.185 0.001,0.381 0.002,0.585 0.005,1.12 0.013,2.582 -0.314,3.883 0.301,0.487 0.54,1.049 0.651,1.683 0.32,1.819 -0.849,3.067 -2.159,4.145 -1.32,1.086 -2.39,2.047 -3.319,3.204 -0.215,0.267 -0.41,0.551 -0.617,0.851 -0.328,0.474 -0.666,0.965 -1.095,1.401 -0.661,0.674 -1.291,0.915 -1.87,0.718 -1.097,-0.375 -1.394,-2.139 -1.604,-3.913 -0.018,-0.151 -0.034,-0.286 -0.049,-0.399 -0.227,-1.668 -1.123,-3.202 -2.782,-4.726 0.312,1.382 2.727,12.667 -0.79,14.902 -0.948,0.602 -2.119,0.791 -3.212,0.518 -1.005,-0.25 -1.83,-0.866 -2.323,-1.734 -0.821,-1.445 -0.767,-3.504 0.143,-5.506 0.292,-0.643 0.977,-2.149 2.25,-2.387 1.358,-0.254 2.059,0.964 2.523,1.769 0.048,0.084 0.095,0.165 0.141,0.241 0.162,0.271 0.074,0.622 -0.197,0.784 -0.271,0.161 -0.621,0.073 -0.783,-0.197 -0.049,-0.082 -0.099,-0.168 -0.15,-0.257 -0.447,-0.774 -0.802,-1.315 -1.324,-1.218 -0.689,0.129 -1.22,1.298 -1.42,1.738 -0.587,1.289 -0.944,3.141 -0.19,4.469 0.337,0.593 0.907,1.016 1.606,1.19 0.792,0.197 1.639,0.061 2.323,-0.374 2.398,-1.523 1.031,-10.652 0.261,-13.806 -0.07,-0.291 -0.139,-0.583 -0.207,-0.876 -0.034,-0.149 -0.069,-0.298 -0.104,-0.448 -0.129,-0.096 -0.261,-0.191 -0.396,-0.287 -0.244,-0.173 -0.491,-0.344 -0.738,-0.515 -1.102,-0.766 -2.242,-1.557 -3.212,-2.552 -1.078,-1.106 -1.879,-2.4 -2.646,-3.663 -0.277,-0.119 -0.552,-0.244 -0.823,-0.38 -2.201,-1.097 -3.742,-2.553 -5.525,-4.238 -0.654,-0.618 -1.33,-1.257 -2.083,-1.919 -0.427,-0.376 -0.795,-0.52 -0.957,-0.494 -0.025,0.004 -0.077,0.012 -0.147,0.13 -0.051,0.086 -0.098,0.192 -0.147,0.305 -0.125,0.282 -0.28,0.634 -0.61,0.886 -0.587,0.45 -1.477,0.361 -2.071,-0.207 -0.538,-0.516 -0.768,-1.325 -0.599,-2.113 0.139,-0.643 0.536,-1.257 1.12,-1.729 0.625,-0.505 1.379,-0.787 2.123,-0.796 0.013,0 0.026,0 0.039,0 1.688,0 3.219,1.321 4.339,2.288 l 0.02,0.017 c 1.846,1.593 3.488,3.417 4.881,5.419 0.436,0.626 0.836,1.281 1.223,1.919 0.695,0.281 1.41,0.523 2.109,0.761 0.309,0.105 0.619,0.21 0.927,0.319 1.408,0.494 2.468,1.561 3.241,3.261 0.429,0.944 0.707,1.937 0.947,2.921 1.843,1.412 3.953,3.5 4.352,6.431 0.016,0.118 0.033,0.26 0.051,0.419 0.288,2.429 0.65,2.901 0.839,2.966 0.067,0.023 0.296,-0.04 0.686,-0.437 0.36,-0.366 0.656,-0.795 0.969,-1.25 0.21,-0.304 0.426,-0.618 0.667,-0.917 1.102,-1.372 2.376,-2.459 3.484,-3.371 1.24,-1.02 1.967,-1.888 1.76,-3.066 -0.025,-0.146 -0.06,-0.287 -0.103,-0.424 -0.531,0.893 -1.377,1.546 -2.721,1.685 -3.074,0.317 -5.792,-2.421 -6.402,-5.176 -0.321,-1.45 0.021,-2.718 0.6,-3.902 -0.125,-0.209 -0.239,-0.424 -0.344,-0.644 -1.086,-2.275 -1.567,-6.342 0.761,-8.264 0.656,-0.541 1.436,-0.698 2.141,-0.431 0.777,0.294 1.353,1.061 1.502,2.003 0.196,1.24 -0.074,2.571 -0.826,4.067 -0.318,0.632 -0.71,1.252 -1.089,1.852 -0.287,0.455 -0.57,0.903 -0.821,1.352 0.521,0.718 1.189,1.348 1.996,1.88 0.561,0.37 1.157,0.669 1.789,0.987 0.665,0.334 1.352,0.679 1.995,1.114 0.301,0.203 0.68,0.491 1.059,0.862 C -8.458,7.193 -8.463,6.22 -8.468,5.387 -8.469,5.18 -8.47,4.981 -8.469,4.786 c 0.005,-1.057 0.01,-2.318 0.224,-3.515 -0.5,0.106 -0.984,0.293 -1.452,0.604 -0.76,0.506 -1.237,1.33 -1.342,2.32 -0.033,0.313 -0.314,0.539 -0.628,0.507 -0.314,-0.033 -0.541,-0.314 -0.508,-0.628 0.142,-1.334 0.797,-2.452 1.846,-3.149 0.783,-0.521 1.583,-0.768 2.388,-0.863 0.497,-1.457 1.466,-2.649 3.363,-2.987 1.222,-0.217 3.023,-0.072 4.075,1.057 C 0.226,-1.086 0.125,-0.362 0,0 m -30.306,1.841 c -1.338,-1.924 -2.915,-3.675 -4.689,-5.206 l -0.021,-0.018 c -0.99,-0.855 -2.337,-2.022 -3.617,-2.01 -0.489,0.006 -0.993,0.198 -1.419,0.543 -0.381,0.308 -0.637,0.692 -0.721,1.08 -0.085,0.397 0.022,0.808 0.272,1.048 0.115,0.11 0.281,0.174 0.418,0.174 0.066,0 0.126,-0.016 0.168,-0.048 0.098,-0.075 0.176,-0.253 0.26,-0.441 0.058,-0.132 0.124,-0.282 0.21,-0.426 0.284,-0.48 0.673,-0.633 0.95,-0.676 0.754,-0.119 1.508,0.427 1.891,0.764 0.768,0.675 1.451,1.322 2.112,1.947 1.471,1.39 2.77,2.618 4.4,3.583 -0.07,-0.106 -0.142,-0.21 -0.214,-0.314 m 7.398,6.081 C -23.554,6.5 -24.374,5.656 -25.487,5.265 -25.792,5.158 -26.098,5.054 -26.404,4.95 c -0.252,-0.085 -0.507,-0.172 -0.763,-0.261 0.511,0.787 1.052,1.528 1.703,2.197 0.894,0.916 1.988,1.676 3.046,2.41 0.009,0.007 0.019,0.014 0.029,0.021 -0.147,-0.479 -0.315,-0.947 -0.519,-1.395 m 8.382,-8.376 c 0.641,-1.275 0.877,-2.38 0.719,-3.376 -0.084,-0.529 -0.389,-0.966 -0.778,-1.113 -0.32,-0.122 -0.669,-0.037 -1.01,0.244 -1.737,1.434 -1.399,4.866 -0.484,6.835 0.17,-0.281 0.345,-0.559 0.519,-0.835 0.381,-0.603 0.741,-1.173 1.034,-1.755 m 4.252,8.644 c -0.582,-0.394 -1.207,-0.708 -1.868,-1.04 -0.634,-0.318 -1.289,-0.647 -1.906,-1.054 -0.743,-0.49 -1.384,-1.054 -1.919,-1.687 -0.319,0.82 -0.458,1.664 -0.257,2.574 0.469,2.117 2.517,4.305 4.805,4.305 0.121,0 0.243,-0.006 0.365,-0.018 1.078,-0.111 1.773,-0.685 2.17,-1.799 -0.453,-0.587 -1.001,-1.018 -1.39,-1.281 m 8.935,-9.28 c -0.687,-0.737 -2.057,-0.885 -3.039,-0.71 -1.186,0.211 -1.896,0.867 -2.321,1.817 0.574,0.019 1.148,0.082 1.715,0.144 1.031,0.114 2.005,0.221 2.958,0.073 0.466,-0.073 0.846,-0.317 0.947,-0.607 0.091,-0.264 -0.091,-0.536 -0.26,-0.717"
       style="fill:#ffffff;fill-opacity:1;fill-rule:nonzero;stroke:none"
       transform="matrix(0.35277776,0,0,-0.35277776,-530.94511,-429.71189)"
       clip-path="url(#clipPath122)" />
    <path
       id="path123"
       d="m 0,0 c -1.007,0 -1.827,-0.82 -1.827,-1.827 0,-1.008 0.82,-1.827 1.827,-1.827 1.007,0 1.827,0.819 1.827,1.827 C 1.827,-0.82 1.007,0 0,0 m 0,-2.512 c -0.378,0 -0.685,0.307 -0.685,0.685 0,0.378 0.307,0.685 0.685,0.685 0.378,0 0.685,-0.307 0.685,-0.685 0,-0.378 -0.307,-0.685 -0.685,-0.685"
       style="fill:#ffffff;fill-opacity:1;fill-rule:nonzero;stroke:none"
       transform="matrix(0.35277776,0,0,-0.35277776,-545.9897,-427.69576)"
       clip-path="url(#clipPath124)" />
  </g>
</svg>
