<?xml version="1.0" encoding="UTF-8" standalone="no"?>
<!-- Created with Inkscape (http://www.inkscape.org/) -->

<svg
   width="20.561537mm"
   height="21.366421mm"
   viewBox="0 0 20.561536 21.36642"
   version="1.1"
   id="svg1"
   inkscape:version="1.4 (e7c3feb1, 2024-10-09)"
   sodipodi:docname="JUDO.svg"
   xmlns:inkscape="http://www.inkscape.org/namespaces/inkscape"
   xmlns:sodipodi="http://sodipodi.sourceforge.net/DTD/sodipodi-0.dtd"
   xmlns="http://www.w3.org/2000/svg"
   xmlns:svg="http://www.w3.org/2000/svg">
  <sodipodi:namedview
     id="namedview1"
     pagecolor="#ffffff"
     bordercolor="#000000"
     borderopacity="0.25"
     inkscape:showpageshadow="2"
     inkscape:pageopacity="0.0"
     inkscape:pagecheckerboard="0"
     inkscape:deskcolor="#d1d1d1"
     inkscape:document-units="mm"
     inkscape:zoom="2.096401"
     inkscape:cx="-41.738199"
     inkscape:cy="-3.5775599"
     inkscape:window-width="1440"
     inkscape:window-height="872"
     inkscape:window-x="0"
     inkscape:window-y="28"
     inkscape:window-maximized="0"
     inkscape:current-layer="layer1" />
  <defs
     id="defs1">
    <clipPath
       clipPathUnits="userSpaceOnUse"
       id="clipPath46">
      <path
         d="M 0,0 H 960.009 V 540 H 0 Z"
         transform="translate(-335.30581,-447.22351)"
         id="path46" />
    </clipPath>
    <clipPath
       clipPathUnits="userSpaceOnUse"
       id="clipPath48">
      <path
         d="M 0,0 H 960.009 V 540 H 0 Z"
         transform="translate(-366.36111,-395.97531)"
         id="path48" />
    </clipPath>
    <clipPath
       clipPathUnits="userSpaceOnUse"
       id="clipPath46-4">
      <path
         d="M 0,0 H 960.009 V 540 H 0 Z"
         transform="translate(-335.30581,-447.22351)"
         id="path46-1" />
    </clipPath>
    <clipPath
       clipPathUnits="userSpaceOnUse"
       id="clipPath48-8">
      <path
         d="M 0,0 H 960.009 V 540 H 0 Z"
         transform="translate(-366.36111,-395.97531)"
         id="path48-8" />
    </clipPath>
    <clipPath
       clipPathUnits="userSpaceOnUse"
       id="clipPath10">
      <path
         d="M 0,0 H 960.009 V 540 H 0 Z"
         transform="translate(-452.25271,-448.21871)"
         id="path10" />
    </clipPath>
    <clipPath
       clipPathUnits="userSpaceOnUse"
       id="clipPath12">
      <path
         d="M 0,0 H 960.009 V 540 H 0 Z"
         transform="translate(-445.51041,-428.84291)"
         id="path12" />
    </clipPath>
    <clipPath
       clipPathUnits="userSpaceOnUse"
       id="clipPath14">
      <path
         d="M 0,0 H 960.009 V 540 H 0 Z"
         transform="translate(-490.38481,-447.77471)"
         id="path14" />
    </clipPath>
    <clipPath
       clipPathUnits="userSpaceOnUse"
       id="clipPath16">
      <path
         d="M 0,0 H 960.009 V 540 H 0 Z"
         transform="translate(-520.07251,-407.43611)"
         id="path16" />
    </clipPath>
    <clipPath
       clipPathUnits="userSpaceOnUse"
       id="clipPath18">
      <path
         d="M 0,0 H 960.009 V 540 H 0 Z"
         transform="translate(-475.72791,-420.29251)"
         id="path18" />
    </clipPath>
    <clipPath
       clipPathUnits="userSpaceOnUse"
       id="clipPath20">
      <path
         d="M 0,0 H 960.009 V 540 H 0 Z"
         transform="translate(-532.40951,-415.32891)"
         id="path20" />
    </clipPath>
    <clipPath
       clipPathUnits="userSpaceOnUse"
       id="clipPath22">
      <path
         d="M 0,0 H 960.009 V 540 H 0 Z"
         transform="translate(-585.24491,-404.67841)"
         id="path22" />
    </clipPath>
    <clipPath
       clipPathUnits="userSpaceOnUse"
       id="clipPath24">
      <path
         d="M 0,0 H 960.009 V 540 H 0 Z"
         transform="translate(-546.73501,-439.46011)"
         id="path24" />
    </clipPath>
    <clipPath
       clipPathUnits="userSpaceOnUse"
       id="clipPath26">
      <path
         d="M 0,0 H 960.009 V 540 H 0 Z"
         transform="translate(-597.25132,-396.91631)"
         id="path26" />
    </clipPath>
    <clipPath
       clipPathUnits="userSpaceOnUse"
       id="clipPath28">
      <path
         d="M 0,0 H 960.009 V 540 H 0 Z"
         transform="translate(-644.79592,-427.55181)"
         id="path28" />
    </clipPath>
    <clipPath
       clipPathUnits="userSpaceOnUse"
       id="clipPath30">
      <path
         d="M 0,0 H 960.009 V 540 H 0 Z"
         transform="translate(-722.31742,-442.86561)"
         id="path30" />
    </clipPath>
    <clipPath
       clipPathUnits="userSpaceOnUse"
       id="clipPath32">
      <path
         d="M 0,0 H 960.009 V 540 H 0 Z"
         transform="translate(-713.80762,-411.31901)"
         id="path32" />
    </clipPath>
    <clipPath
       clipPathUnits="userSpaceOnUse"
       id="clipPath34">
      <path
         d="M 0,0 H 960.009 V 540 H 0 Z"
         transform="translate(-711.27122,-406.75661)"
         id="path34" />
    </clipPath>
    <clipPath
       clipPathUnits="userSpaceOnUse"
       id="clipPath36">
      <path
         d="M 0,0 H 960.009 V 540 H 0 Z"
         transform="translate(-788.58924,-392.63841)"
         id="path36" />
    </clipPath>
    <clipPath
       clipPathUnits="userSpaceOnUse"
       id="clipPath38">
      <path
         d="M 0,0 H 960.009 V 540 H 0 Z"
         transform="translate(-775.73004,-429.83291)"
         id="path38" />
    </clipPath>
    <clipPath
       clipPathUnits="userSpaceOnUse"
       id="clipPath40">
      <path
         d="M 0,0 H 960.009 V 540 H 0 Z"
         transform="translate(-854.0284,-447.94411)"
         id="path40" />
    </clipPath>
    <clipPath
       clipPathUnits="userSpaceOnUse"
       id="clipPath42">
      <path
         d="M 0,0 H 960.009 V 540 H 0 Z"
         transform="translate(-841.42262,-414.05971)"
         id="path42" />
    </clipPath>
    <clipPath
       clipPathUnits="userSpaceOnUse"
       id="clipPath44">
      <path
         d="M 0,0 H 960.009 V 540 H 0 Z"
         transform="translate(-828.18625,-402.03771)"
         id="path44" />
    </clipPath>
    <clipPath
       clipPathUnits="userSpaceOnUse"
       id="clipPath186">
      <path
         d="M 0,0 H 960.009 V 540 H 0 Z"
         transform="translate(-796.23144,-323.72221)"
         id="path186" />
    </clipPath>
    <clipPath
       clipPathUnits="userSpaceOnUse"
       id="clipPath188">
      <path
         d="M 0,0 H 960.009 V 540 H 0 Z"
         transform="translate(-837.6514,-370.80791)"
         id="path188" />
    </clipPath>
    <clipPath
       clipPathUnits="userSpaceOnUse"
       id="clipPath182">
      <path
         d="M 0,0 H 960.009 V 540 H 0 Z"
         transform="translate(-736.95462,-375.25501)"
         id="path182" />
    </clipPath>
    <clipPath
       clipPathUnits="userSpaceOnUse"
       id="clipPath184">
      <path
         d="M 0,0 H 960.009 V 540 H 0 Z"
         transform="translate(-768.50649,-358.25011)"
         id="path184" />
    </clipPath>
    <clipPath
       clipPathUnits="userSpaceOnUse"
       id="clipPath178">
      <path
         d="M 0,0 H 960.009 V 540 H 0 Z"
         transform="translate(-720.27222,-375.61331)"
         id="path178" />
    </clipPath>
    <clipPath
       clipPathUnits="userSpaceOnUse"
       id="clipPath180">
      <path
         d="M 0,0 H 960.009 V 540 H 0 Z"
         transform="translate(-708.29912,-339.89981)"
         id="path180" />
    </clipPath>
    <clipPath
       clipPathUnits="userSpaceOnUse"
       id="clipPath174">
      <path
         d="M 0,0 H 960.009 V 540 H 0 Z"
         transform="translate(-632.38852,-318.07351)"
         id="path174" />
    </clipPath>
    <clipPath
       clipPathUnits="userSpaceOnUse"
       id="clipPath176">
      <path
         d="M 0,0 H 960.009 V 540 H 0 Z"
         transform="translate(-651.53441,-331.09111)"
         id="path176" />
    </clipPath>
    <clipPath
       clipPathUnits="userSpaceOnUse"
       id="clipPath170">
      <path
         d="M 0,0 H 960.009 V 540 H 0 Z"
         transform="translate(-591.96502,-324.88781)"
         id="path170" />
    </clipPath>
    <clipPath
       clipPathUnits="userSpaceOnUse"
       id="clipPath172">
      <path
         d="M 0,0 H 960.009 V 540 H 0 Z"
         transform="translate(-586.33631,-340.16661)"
         id="path172" />
    </clipPath>
    <clipPath
       clipPathUnits="userSpaceOnUse"
       id="clipPath166">
      <path
         d="M 0,0 H 960.009 V 540 H 0 Z"
         transform="translate(-524.71871,-320.54331)"
         id="path166" />
    </clipPath>
    <clipPath
       clipPathUnits="userSpaceOnUse"
       id="clipPath168">
      <path
         d="M 0,0 H 960.009 V 540 H 0 Z"
         transform="translate(-503.36561,-325.03411)"
         id="path168" />
    </clipPath>
    <clipPath
       clipPathUnits="userSpaceOnUse"
       id="clipPath160">
      <path
         d="M 0,0 H 960.009 V 540 H 0 Z"
         transform="translate(-403.48081,-318.39281)"
         id="path160" />
    </clipPath>
    <clipPath
       clipPathUnits="userSpaceOnUse"
       id="clipPath162">
      <path
         d="M 0,0 H 960.009 V 540 H 0 Z"
         transform="translate(-451.85691,-327.41961)"
         id="path162" />
    </clipPath>
    <clipPath
       clipPathUnits="userSpaceOnUse"
       id="clipPath164">
      <path
         d="M 0,0 H 960.009 V 540 H 0 Z"
         transform="translate(-409.77981,-357.93981)"
         id="path164" />
    </clipPath>
    <clipPath
       clipPathUnits="userSpaceOnUse"
       id="clipPath156">
      <path
         d="M 0,0 H 960.009 V 540 H 0 Z"
         transform="translate(-368.23991,-318.73791)"
         id="path156" />
    </clipPath>
    <clipPath
       clipPathUnits="userSpaceOnUse"
       id="clipPath158">
      <path
         d="M 0,0 H 960.009 V 540 H 0 Z"
         transform="translate(-383.86171,-342.63551)"
         id="path158" />
    </clipPath>
    <clipPath
       clipPathUnits="userSpaceOnUse"
       id="clipPath114">
      <path
         d="M 0,0 H 960.009 V 540 H 0 Z"
         transform="translate(-392.75611,-298.45791)"
         id="path114" />
    </clipPath>
    <clipPath
       clipPathUnits="userSpaceOnUse"
       id="clipPath116">
      <path
         d="M 0,0 H 960.009 V 540 H 0 Z"
         transform="translate(-387.31901,-254.33761)"
         id="path116" />
    </clipPath>
    <clipPath
       clipPathUnits="userSpaceOnUse"
       id="clipPath118">
      <path
         d="M 0,0 H 960.009 V 540 H 0 Z"
         transform="translate(-360.51291,-262.97961)"
         id="path118" />
    </clipPath>
    <clipPath
       clipPathUnits="userSpaceOnUse"
       id="clipPath120">
      <path
         d="M 0,0 H 960.009 V 540 H 0 Z"
         transform="translate(-455.62551,-246.02871)"
         id="path120" />
    </clipPath>
    <clipPath
       clipPathUnits="userSpaceOnUse"
       id="clipPath122">
      <path
         d="M 0,0 H 960.009 V 540 H 0 Z"
         transform="translate(-452.63151,-264.6049)"
         id="path122" />
    </clipPath>
    <clipPath
       clipPathUnits="userSpaceOnUse"
       id="clipPath124">
      <path
         d="M 0,0 H 960.009 V 540 H 0 Z"
         transform="translate(-409.98541,-258.8899)"
         id="path124" />
    </clipPath>
    <clipPath
       clipPathUnits="userSpaceOnUse"
       id="clipPath126">
      <path
         d="M 0,0 H 960.009 V 540 H 0 Z"
         transform="translate(-473.91801,-244.75861)"
         id="path126" />
    </clipPath>
    <clipPath
       clipPathUnits="userSpaceOnUse"
       id="clipPath128">
      <path
         d="M 0,0 H 960.009 V 540 H 0 Z"
         transform="translate(-522.03322,-284.9617)"
         id="path128" />
    </clipPath>
  </defs>
  <g
     inkscape:label="Layer 1"
     inkscape:groupmode="layer"
     id="layer1"
     transform="translate(527.84386,432.32915)">
    <path
       id="path125"
       d="m 0,0 c -1.99,-0.123 -4.367,-0.065 -5.462,1.749 -0.617,1.023 -0.624,2.328 -0.615,3.551 0.054,7.314 -0.072,14.63 -0.379,21.937 -0.417,9.949 -1.154,20.072 1.029,29.743 0.107,0.472 0.238,0.975 0.584,1.283 0.276,0.247 0.645,0.326 0.997,0.394 9.614,1.856 19.463,1.536 29.213,0.958 7.386,-0.438 14.765,-1.021 22.132,-1.748 0.312,-0.031 0.649,-0.074 0.88,-0.305 0.222,-0.221 0.294,-0.565 0.344,-0.888 0.42,-2.682 0.141,-5.449 0.555,-8.131 0.315,-2.049 1.027,-4 1.452,-6.025 0.587,-2.795 0.619,-5.689 0.632,-8.556 0.043,-9.238 -0.381,-20.954 -0.749,-30.76 -0.078,-2.084 -1.801,-3.725 -3.885,-3.703 z"
       style="fill:#f37361;fill-opacity:1;fill-rule:nonzero;stroke:none"
       transform="matrix(0.35277776,0,0,-0.35277776,-525.40276,-411.13955)"
       clip-path="url(#clipPath126)" />
    <path
       id="path127"
       d="m 0,0 c -0.127,0.453 -0.437,0.793 -0.896,0.983 -2.477,1.023 -9.496,-2.736 -9.565,-2.775 -0.969,-0.546 -1.673,-1.139 -2.197,-1.797 -0.598,0.026 -1.191,0.08 -1.775,0.16 0.323,1.717 -0.373,3.05 -1.389,3.858 -0.853,0.679 -1.835,1.053 -2.786,1.416 -0.422,0.161 -0.82,0.312 -1.209,0.49 -0.206,0.094 -0.429,0.207 -0.649,0.342 0.168,0.644 0.404,1.289 0.646,1.95 0.41,1.123 0.834,2.284 0.94,3.523 0.095,1.1 -0.383,2.018 -1.188,2.285 -0.751,0.249 -1.532,-0.139 -2.088,-1.039 -0.638,-1.032 -0.798,-2.246 -0.898,-3.304 -0.069,-0.736 -0.115,-1.518 0.141,-2.269 0.207,-0.606 0.604,-1.156 1.172,-1.634 -0.101,-0.578 -0.144,-1.173 -0.09,-1.788 0.275,-3.17 3.612,-4.12 4.708,-4.432 0.389,-0.111 0.784,-0.209 1.185,-0.294 -0.27,-0.59 -0.602,-1.074 -0.801,-1.34 -0.347,-0.463 -0.723,-0.916 -1.122,-1.395 -1.159,-1.391 -2.356,-2.83 -2.885,-4.651 -0.339,-1.17 -0.374,-2.354 -0.296,-3.528 -1.271,1.222 -2.307,2.494 -3.241,3.646 -0.985,1.215 -1.916,2.362 -2.947,3.232 -1.069,0.901 -2.351,1.537 -3.694,1.861 0.128,0.482 0.214,0.972 0.246,1.563 0.035,0.648 -0.007,1.302 -0.128,1.999 -0.023,0.131 -0.048,0.266 -0.073,0.404 -0.239,1.311 -0.511,2.798 0.375,3.698 0.533,0.541 1.281,0.843 2.056,0.824 0.698,-0.016 1.326,-0.296 1.767,-0.787 0.976,-1.087 1.02,-2.892 0.735,-4.219 -0.097,-0.451 -0.354,-1.65 -0.964,-1.908 -0.333,-0.142 -1.044,0.207 -1.613,1.014 -0.182,0.258 -0.538,0.32 -0.796,0.138 -0.258,-0.181 -0.319,-0.538 -0.138,-0.795 0.868,-1.232 2.071,-1.798 2.992,-1.409 1.157,0.489 1.493,2.053 1.636,2.721 0.445,2.075 0.071,4.027 -1.002,5.221 -0.654,0.728 -1.575,1.142 -2.591,1.166 -1.079,0.019 -2.143,-0.4 -2.896,-1.165 -1.302,-1.323 -0.959,-3.198 -0.684,-4.704 0.024,-0.135 0.048,-0.266 0.071,-0.395 0.106,-0.611 0.143,-1.181 0.112,-1.742 -0.029,-0.539 -0.108,-0.974 -0.234,-1.428 -0.666,0.072 -1.337,0.067 -1.994,-0.02 -2.133,-0.283 -3.974,-1.4 -5.186,-3.147 -1.44,-2.076 -1.36,-4.74 -0.755,-6.804 -0.05,-0.09 -0.098,-0.182 -0.144,-0.276 -0.415,-0.851 -0.626,-1.754 -0.829,-2.628 -0.056,-0.24 -0.111,-0.479 -0.171,-0.717 -0.253,-1.004 -0.687,-2.041 -1.238,-2.997 -0.546,0.016 -1.194,0.022 -1.998,-0.016 -3.626,-0.173 -4.752,-0.97 -5.329,-1.644 -0.211,-0.248 -0.854,-1 -0.615,-1.84 0.331,-1.165 2.136,-1.499 3.15,-1.512 0.015,0 0.031,0 0.046,0 1.989,0 3.972,1.661 5.382,3.846 1.122,-0.042 1.888,-0.053 2.919,0.494 0.92,0.488 1.666,1.213 2.029,1.601 0.227,0.244 0.421,0.485 0.59,0.721 0.222,-0.139 0.448,-0.267 0.68,-0.385 0.757,-0.384 1.299,-0.516 1.735,-0.621 0.457,-0.111 0.787,-0.191 1.276,-0.514 0.099,-0.065 0.195,-0.134 0.288,-0.207 -0.146,-0.995 -0.398,-2.212 -0.742,-3.358 l -0.02,-0.066 c -0.216,-0.715 -0.619,-2.047 0.021,-3.31 0.135,-0.269 0.496,-0.981 1.21,-1.075 0.037,-0.005 0.076,-0.007 0.117,-0.007 0.783,0 1.997,0.944 2.438,2.873 0.414,1.814 -0.346,3.97 -1.812,5.399 0.046,0.407 0.071,0.762 0.076,1.046 0.026,1.782 -0.685,3.668 -1.949,5.176 -0.19,0.227 -0.385,0.437 -0.583,0.63 0.231,0.709 0.427,1.434 0.587,2.171 0.001,0.007 0.003,0.015 0.004,0.022 l 0.262,1.493 c 0.276,1.119 0.598,2.22 0.954,3.274 0.095,0.279 0.184,0.533 0.267,0.768 0.041,0.118 0.081,0.232 0.119,0.343 1.199,-0.276 2.347,-0.838 3.302,-1.643 0.948,-0.801 1.804,-1.856 2.796,-3.079 1.179,-1.454 2.515,-3.095 4.297,-4.622 0.015,-0.127 0.03,-0.253 0.046,-0.379 0.116,-0.948 0.226,-1.843 0.238,-2.734 0.021,-1.643 -0.047,-3.071 -1.098,-3.902 -0.512,-0.404 -1.183,-0.58 -1.841,-0.483 -0.592,0.088 -1.095,0.392 -1.418,0.856 -0.722,1.038 -0.563,2.601 -0.173,3.717 0.131,0.376 0.479,1.375 1.009,1.525 0.347,0.099 0.638,-0.21 1.12,-0.894 0.051,-0.072 0.1,-0.141 0.148,-0.207 0.186,-0.255 0.543,-0.311 0.798,-0.125 0.255,0.186 0.311,0.543 0.125,0.798 -0.045,0.061 -0.09,0.125 -0.137,0.192 -0.441,0.625 -1.178,1.671 -2.365,1.335 -1.101,-0.312 -1.575,-1.668 -1.777,-2.247 -0.624,-1.791 -0.507,-3.565 0.315,-4.746 0.504,-0.726 1.281,-1.199 2.188,-1.334 0.174,-0.025 0.349,-0.038 0.523,-0.038 0.794,0 1.571,0.264 2.193,0.755 1.578,1.247 1.55,3.393 1.532,4.813 -0.01,0.793 -0.095,1.596 -0.189,2.383 0.349,-0.09 0.709,-0.1 1.073,-0.024 1.975,0.414 3.414,3.138 3.682,3.68 0.83,1.677 1.391,3.465 1.667,5.316 0.245,1.643 0.47,2.892 1.124,3.933 3.711,-0.053 7.564,0.859 10.806,2.644 C -0.253,-1.533 0.215,-0.768 0,0 m -47.115,-26.763 c -0.011,0 -0.022,0 -0.032,0 -0.966,0.013 -1.971,0.344 -2.067,0.682 -0.021,0.075 -0.026,0.303 0.386,0.786 0.227,0.265 0.917,1.073 4.514,1.245 0.419,0.02 0.794,0.027 1.134,0.027 0.025,0 0.05,0 0.074,0 -1.165,-1.588 -2.634,-2.74 -4.009,-2.74 m 9.494,5.578 c -0.253,-0.27 -0.927,-0.945 -1.729,-1.371 -0.601,-0.318 -1.069,-0.384 -1.732,-0.378 0.461,0.892 0.824,1.833 1.057,2.759 0.062,0.244 0.119,0.491 0.177,0.737 0.134,0.58 0.264,1.138 0.447,1.667 l 0.346,-0.664 c 0.011,-0.021 0.024,-0.042 0.037,-0.061 0.561,-0.808 1.195,-1.503 1.896,-2.079 -0.145,-0.202 -0.308,-0.405 -0.499,-0.61 m 1.335,1.988 c -0.06,-0.103 -0.12,-0.209 -0.182,-0.318 -0.015,-0.026 -0.03,-0.053 -0.045,-0.08 -0.566,0.483 -1.083,1.058 -1.546,1.721 l -0.447,0.858 c -0.083,0.187 -0.161,0.383 -0.232,0.584 0.234,0.328 0.543,0.652 0.941,0.875 1.108,0.622 2.196,0.155 3.003,-0.462 -0.406,-1.104 -0.904,-2.167 -1.492,-3.178 m 4.421,-7.46 c 0.268,0.892 0.481,1.816 0.636,2.66 0.803,-1.1 1.189,-2.495 0.923,-3.662 -0.267,-1.166 -1.059,-2.003 -1.293,-1.988 -0.021,0.005 -0.133,0.049 -0.34,0.458 -0.433,0.855 -0.129,1.863 0.053,2.465 z m -0.206,5.206 c -0.002,-0.072 -0.004,-0.149 -0.008,-0.231 -0.558,0.33 -1.002,0.438 -1.433,0.543 -0.417,0.101 -0.849,0.206 -1.487,0.529 -0.2,0.102 -0.396,0.213 -0.588,0.333 0.039,0.068 0.077,0.135 0.114,0.2 0.059,0.105 0.116,0.207 0.174,0.306 0.541,0.93 1.011,1.902 1.406,2.907 0.051,-0.057 0.098,-0.112 0.14,-0.162 1.091,-1.301 1.704,-2.913 1.682,-4.425 m -0.394,13.896 c -0.084,-0.24 -0.175,-0.497 -0.27,-0.781 -0.37,-1.09 -0.701,-2.229 -0.986,-3.385 -0.004,-0.012 -0.006,-0.025 -0.008,-0.038 l -0.264,-1.501 c -0.119,-0.55 -0.26,-1.092 -0.421,-1.626 -1.323,0.878 -2.717,1.012 -3.942,0.325 -0.262,-0.147 -0.509,-0.33 -0.739,-0.547 -0.321,1.69 -0.18,3.572 0.801,4.986 1.026,1.479 2.587,2.426 4.397,2.666 0.307,0.041 0.618,0.06 0.929,0.06 0.184,0 0.368,-0.006 0.552,-0.02 -0.016,-0.046 -0.032,-0.092 -0.049,-0.139 M -21.424,3.48 c -0.175,0.212 -0.318,0.449 -0.408,0.712 -0.184,0.537 -0.145,1.155 -0.084,1.793 0.087,0.929 0.223,1.988 0.732,2.811 0.22,0.356 0.476,0.567 0.676,0.567 0.028,0 0.055,-0.004 0.081,-0.013 0.238,-0.078 0.462,-0.492 0.41,-1.102 C -20.111,7.16 -20.491,6.12 -20.893,5.019 -21.078,4.514 -21.265,4.002 -21.424,3.48 m 4.614,-6.412 c -2.508,0.714 -3.742,1.804 -3.883,3.431 -0.029,0.334 -0.024,0.663 0.007,0.99 0.127,-0.067 0.259,-0.132 0.395,-0.194 0.422,-0.192 0.857,-0.357 1.277,-0.518 0.909,-0.346 1.767,-0.673 2.481,-1.241 1.009,-0.803 1.153,-1.828 0.961,-2.77 -0.419,0.085 -0.832,0.186 -1.238,0.302 m 2.466,-5.578 c -0.258,-1.733 -0.784,-3.407 -1.561,-4.977 -0.677,-1.368 -1.834,-2.847 -2.893,-3.069 -0.346,-0.073 -0.673,-10e-4 -0.995,0.215 -0.17,1.497 -0.258,2.927 0.144,4.312 0.462,1.592 1.582,2.938 2.666,4.239 0.39,0.469 0.794,0.954 1.159,1.441 0.475,0.636 0.821,1.242 1.057,1.815 0.467,-0.068 0.939,-0.12 1.414,-0.156 -0.535,-1.09 -0.771,-2.345 -0.991,-3.82 m 12.509,7.409 c -2.786,-1.534 -6.045,-2.387 -9.248,-2.495 0.331,0.281 0.72,0.549 1.182,0.809 1.563,0.88 5.905,2.817 7.918,2.817 0.259,0 0.48,-0.032 0.651,-0.103 0.165,-0.068 0.209,-0.154 0.232,-0.236 0.056,-0.197 -0.247,-0.523 -0.735,-0.792"
       style="fill:#ffffff;fill-opacity:1;fill-rule:nonzero;stroke:none"
       transform="matrix(0.35277776,0,0,-0.35277776,-508.42879,-425.32231)"
       clip-path="url(#clipPath128)" />
  </g>
</svg>
