<?xml version="1.0" encoding="UTF-8" standalone="no"?>
<!-- Created with Inkscape (http://www.inkscape.org/) -->

<svg
   width="21.54928mm"
   height="20.606619mm"
   viewBox="0 0 21.549279 20.606619"
   version="1.1"
   id="svg1"
   inkscape:version="1.4 (e7c3feb1, 2024-10-09)"
   sodipodi:docname="ROL.svg"
   xmlns:inkscape="http://www.inkscape.org/namespaces/inkscape"
   xmlns:sodipodi="http://sodipodi.sourceforge.net/DTD/sodipodi-0.dtd"
   xmlns="http://www.w3.org/2000/svg"
   xmlns:svg="http://www.w3.org/2000/svg">
  <sodipodi:namedview
     id="namedview1"
     pagecolor="#ffffff"
     bordercolor="#000000"
     borderopacity="0.25"
     inkscape:showpageshadow="2"
     inkscape:pageopacity="0.0"
     inkscape:pagecheckerboard="0"
     inkscape:deskcolor="#d1d1d1"
     inkscape:document-units="mm"
     inkscape:zoom="2.096401"
     inkscape:cx="16.456775"
     inkscape:cy="4.5315758"
     inkscape:window-width="1440"
     inkscape:window-height="872"
     inkscape:window-x="0"
     inkscape:window-y="28"
     inkscape:window-maximized="0"
     inkscape:current-layer="layer1" />
  <defs
     id="defs1">
    <clipPath
       clipPathUnits="userSpaceOnUse"
       id="clipPath46">
      <path
         d="M 0,0 H 960.009 V 540 H 0 Z"
         transform="translate(-335.30581,-447.22351)"
         id="path46" />
    </clipPath>
    <clipPath
       clipPathUnits="userSpaceOnUse"
       id="clipPath48">
      <path
         d="M 0,0 H 960.009 V 540 H 0 Z"
         transform="translate(-366.36111,-395.97531)"
         id="path48" />
    </clipPath>
    <clipPath
       clipPathUnits="userSpaceOnUse"
       id="clipPath46-4">
      <path
         d="M 0,0 H 960.009 V 540 H 0 Z"
         transform="translate(-335.30581,-447.22351)"
         id="path46-1" />
    </clipPath>
    <clipPath
       clipPathUnits="userSpaceOnUse"
       id="clipPath48-8">
      <path
         d="M 0,0 H 960.009 V 540 H 0 Z"
         transform="translate(-366.36111,-395.97531)"
         id="path48-8" />
    </clipPath>
    <clipPath
       clipPathUnits="userSpaceOnUse"
       id="clipPath10">
      <path
         d="M 0,0 H 960.009 V 540 H 0 Z"
         transform="translate(-452.25271,-448.21871)"
         id="path10" />
    </clipPath>
    <clipPath
       clipPathUnits="userSpaceOnUse"
       id="clipPath12">
      <path
         d="M 0,0 H 960.009 V 540 H 0 Z"
         transform="translate(-445.51041,-428.84291)"
         id="path12" />
    </clipPath>
    <clipPath
       clipPathUnits="userSpaceOnUse"
       id="clipPath14">
      <path
         d="M 0,0 H 960.009 V 540 H 0 Z"
         transform="translate(-490.38481,-447.77471)"
         id="path14" />
    </clipPath>
    <clipPath
       clipPathUnits="userSpaceOnUse"
       id="clipPath16">
      <path
         d="M 0,0 H 960.009 V 540 H 0 Z"
         transform="translate(-520.07251,-407.43611)"
         id="path16" />
    </clipPath>
    <clipPath
       clipPathUnits="userSpaceOnUse"
       id="clipPath18">
      <path
         d="M 0,0 H 960.009 V 540 H 0 Z"
         transform="translate(-475.72791,-420.29251)"
         id="path18" />
    </clipPath>
    <clipPath
       clipPathUnits="userSpaceOnUse"
       id="clipPath20">
      <path
         d="M 0,0 H 960.009 V 540 H 0 Z"
         transform="translate(-532.40951,-415.32891)"
         id="path20" />
    </clipPath>
    <clipPath
       clipPathUnits="userSpaceOnUse"
       id="clipPath22">
      <path
         d="M 0,0 H 960.009 V 540 H 0 Z"
         transform="translate(-585.24491,-404.67841)"
         id="path22" />
    </clipPath>
    <clipPath
       clipPathUnits="userSpaceOnUse"
       id="clipPath24">
      <path
         d="M 0,0 H 960.009 V 540 H 0 Z"
         transform="translate(-546.73501,-439.46011)"
         id="path24" />
    </clipPath>
    <clipPath
       clipPathUnits="userSpaceOnUse"
       id="clipPath26">
      <path
         d="M 0,0 H 960.009 V 540 H 0 Z"
         transform="translate(-597.25132,-396.91631)"
         id="path26" />
    </clipPath>
    <clipPath
       clipPathUnits="userSpaceOnUse"
       id="clipPath28">
      <path
         d="M 0,0 H 960.009 V 540 H 0 Z"
         transform="translate(-644.79592,-427.55181)"
         id="path28" />
    </clipPath>
    <clipPath
       clipPathUnits="userSpaceOnUse"
       id="clipPath30">
      <path
         d="M 0,0 H 960.009 V 540 H 0 Z"
         transform="translate(-722.31742,-442.86561)"
         id="path30" />
    </clipPath>
    <clipPath
       clipPathUnits="userSpaceOnUse"
       id="clipPath32">
      <path
         d="M 0,0 H 960.009 V 540 H 0 Z"
         transform="translate(-713.80762,-411.31901)"
         id="path32" />
    </clipPath>
    <clipPath
       clipPathUnits="userSpaceOnUse"
       id="clipPath34">
      <path
         d="M 0,0 H 960.009 V 540 H 0 Z"
         transform="translate(-711.27122,-406.75661)"
         id="path34" />
    </clipPath>
    <clipPath
       clipPathUnits="userSpaceOnUse"
       id="clipPath36">
      <path
         d="M 0,0 H 960.009 V 540 H 0 Z"
         transform="translate(-788.58924,-392.63841)"
         id="path36" />
    </clipPath>
    <clipPath
       clipPathUnits="userSpaceOnUse"
       id="clipPath38">
      <path
         d="M 0,0 H 960.009 V 540 H 0 Z"
         transform="translate(-775.73004,-429.83291)"
         id="path38" />
    </clipPath>
    <clipPath
       clipPathUnits="userSpaceOnUse"
       id="clipPath40">
      <path
         d="M 0,0 H 960.009 V 540 H 0 Z"
         transform="translate(-854.0284,-447.94411)"
         id="path40" />
    </clipPath>
    <clipPath
       clipPathUnits="userSpaceOnUse"
       id="clipPath42">
      <path
         d="M 0,0 H 960.009 V 540 H 0 Z"
         transform="translate(-841.42262,-414.05971)"
         id="path42" />
    </clipPath>
    <clipPath
       clipPathUnits="userSpaceOnUse"
       id="clipPath44">
      <path
         d="M 0,0 H 960.009 V 540 H 0 Z"
         transform="translate(-828.18625,-402.03771)"
         id="path44" />
    </clipPath>
    <clipPath
       clipPathUnits="userSpaceOnUse"
       id="clipPath186">
      <path
         d="M 0,0 H 960.009 V 540 H 0 Z"
         transform="translate(-796.23144,-323.72221)"
         id="path186" />
    </clipPath>
    <clipPath
       clipPathUnits="userSpaceOnUse"
       id="clipPath188">
      <path
         d="M 0,0 H 960.009 V 540 H 0 Z"
         transform="translate(-837.6514,-370.80791)"
         id="path188" />
    </clipPath>
    <clipPath
       clipPathUnits="userSpaceOnUse"
       id="clipPath182">
      <path
         d="M 0,0 H 960.009 V 540 H 0 Z"
         transform="translate(-736.95462,-375.25501)"
         id="path182" />
    </clipPath>
    <clipPath
       clipPathUnits="userSpaceOnUse"
       id="clipPath184">
      <path
         d="M 0,0 H 960.009 V 540 H 0 Z"
         transform="translate(-768.50649,-358.25011)"
         id="path184" />
    </clipPath>
    <clipPath
       clipPathUnits="userSpaceOnUse"
       id="clipPath178">
      <path
         d="M 0,0 H 960.009 V 540 H 0 Z"
         transform="translate(-720.27222,-375.61331)"
         id="path178" />
    </clipPath>
    <clipPath
       clipPathUnits="userSpaceOnUse"
       id="clipPath180">
      <path
         d="M 0,0 H 960.009 V 540 H 0 Z"
         transform="translate(-708.29912,-339.89981)"
         id="path180" />
    </clipPath>
    <clipPath
       clipPathUnits="userSpaceOnUse"
       id="clipPath174">
      <path
         d="M 0,0 H 960.009 V 540 H 0 Z"
         transform="translate(-632.38852,-318.07351)"
         id="path174" />
    </clipPath>
    <clipPath
       clipPathUnits="userSpaceOnUse"
       id="clipPath176">
      <path
         d="M 0,0 H 960.009 V 540 H 0 Z"
         transform="translate(-651.53441,-331.09111)"
         id="path176" />
    </clipPath>
    <clipPath
       clipPathUnits="userSpaceOnUse"
       id="clipPath170">
      <path
         d="M 0,0 H 960.009 V 540 H 0 Z"
         transform="translate(-591.96502,-324.88781)"
         id="path170" />
    </clipPath>
    <clipPath
       clipPathUnits="userSpaceOnUse"
       id="clipPath172">
      <path
         d="M 0,0 H 960.009 V 540 H 0 Z"
         transform="translate(-586.33631,-340.16661)"
         id="path172" />
    </clipPath>
    <clipPath
       clipPathUnits="userSpaceOnUse"
       id="clipPath166">
      <path
         d="M 0,0 H 960.009 V 540 H 0 Z"
         transform="translate(-524.71871,-320.54331)"
         id="path166" />
    </clipPath>
    <clipPath
       clipPathUnits="userSpaceOnUse"
       id="clipPath168">
      <path
         d="M 0,0 H 960.009 V 540 H 0 Z"
         transform="translate(-503.36561,-325.03411)"
         id="path168" />
    </clipPath>
    <clipPath
       clipPathUnits="userSpaceOnUse"
       id="clipPath160">
      <path
         d="M 0,0 H 960.009 V 540 H 0 Z"
         transform="translate(-403.48081,-318.39281)"
         id="path160" />
    </clipPath>
    <clipPath
       clipPathUnits="userSpaceOnUse"
       id="clipPath162">
      <path
         d="M 0,0 H 960.009 V 540 H 0 Z"
         transform="translate(-451.85691,-327.41961)"
         id="path162" />
    </clipPath>
    <clipPath
       clipPathUnits="userSpaceOnUse"
       id="clipPath164">
      <path
         d="M 0,0 H 960.009 V 540 H 0 Z"
         transform="translate(-409.77981,-357.93981)"
         id="path164" />
    </clipPath>
    <clipPath
       clipPathUnits="userSpaceOnUse"
       id="clipPath156">
      <path
         d="M 0,0 H 960.009 V 540 H 0 Z"
         transform="translate(-368.23991,-318.73791)"
         id="path156" />
    </clipPath>
    <clipPath
       clipPathUnits="userSpaceOnUse"
       id="clipPath158">
      <path
         d="M 0,0 H 960.009 V 540 H 0 Z"
         transform="translate(-383.86171,-342.63551)"
         id="path158" />
    </clipPath>
    <clipPath
       clipPathUnits="userSpaceOnUse"
       id="clipPath114">
      <path
         d="M 0,0 H 960.009 V 540 H 0 Z"
         transform="translate(-392.75611,-298.45791)"
         id="path114" />
    </clipPath>
    <clipPath
       clipPathUnits="userSpaceOnUse"
       id="clipPath116">
      <path
         d="M 0,0 H 960.009 V 540 H 0 Z"
         transform="translate(-387.31901,-254.33761)"
         id="path116" />
    </clipPath>
    <clipPath
       clipPathUnits="userSpaceOnUse"
       id="clipPath118">
      <path
         d="M 0,0 H 960.009 V 540 H 0 Z"
         transform="translate(-360.51291,-262.97961)"
         id="path118" />
    </clipPath>
    <clipPath
       clipPathUnits="userSpaceOnUse"
       id="clipPath120">
      <path
         d="M 0,0 H 960.009 V 540 H 0 Z"
         transform="translate(-455.62551,-246.02871)"
         id="path120" />
    </clipPath>
    <clipPath
       clipPathUnits="userSpaceOnUse"
       id="clipPath122">
      <path
         d="M 0,0 H 960.009 V 540 H 0 Z"
         transform="translate(-452.63151,-264.6049)"
         id="path122" />
    </clipPath>
    <clipPath
       clipPathUnits="userSpaceOnUse"
       id="clipPath124">
      <path
         d="M 0,0 H 960.009 V 540 H 0 Z"
         transform="translate(-409.98541,-258.8899)"
         id="path124" />
    </clipPath>
    <clipPath
       clipPathUnits="userSpaceOnUse"
       id="clipPath126">
      <path
         d="M 0,0 H 960.009 V 540 H 0 Z"
         transform="translate(-473.91801,-244.75861)"
         id="path126" />
    </clipPath>
    <clipPath
       clipPathUnits="userSpaceOnUse"
       id="clipPath128">
      <path
         d="M 0,0 H 960.009 V 540 H 0 Z"
         transform="translate(-522.03322,-284.9617)"
         id="path128" />
    </clipPath>
    <clipPath
       clipPathUnits="userSpaceOnUse"
       id="clipPath130">
      <path
         d="M 0,0 H 960.009 V 540 H 0 Z"
         transform="translate(-566.28982,-245.4835)"
         id="path130" />
    </clipPath>
    <clipPath
       clipPathUnits="userSpaceOnUse"
       id="clipPath132">
      <path
         d="M 0,0 H 960.009 V 540 H 0 Z"
         transform="translate(-579.34751,-261.87991)"
         id="path132" />
    </clipPath>
    <clipPath
       clipPathUnits="userSpaceOnUse"
       id="clipPath134">
      <path
         d="M 0,0 H 960.009 V 540 H 0 Z"
         transform="translate(-599.74111,-300.49821)"
         id="path134" />
    </clipPath>
    <clipPath
       clipPathUnits="userSpaceOnUse"
       id="clipPath136">
      <path
         d="M 0,0 H 960.009 V 540 H 0 Z"
         transform="translate(-607.69802,-279.2284)"
         id="path136" />
    </clipPath>
    <clipPath
       clipPathUnits="userSpaceOnUse"
       id="clipPath138">
      <path
         d="M 0,0 H 960.009 V 540 H 0 Z"
         transform="translate(-650.53442,-256.29601)"
         id="path138" />
    </clipPath>
    <clipPath
       clipPathUnits="userSpaceOnUse"
       id="clipPath140">
      <path
         d="M 0,0 H 960.009 V 540 H 0 Z"
         transform="translate(-622.88372,-267.98611)"
         id="path140" />
    </clipPath>
    <clipPath
       clipPathUnits="userSpaceOnUse"
       id="clipPath142">
      <path
         d="M 0,0 H 960.009 V 540 H 0 Z"
         transform="translate(-650.88982,-289.31181)"
         id="path142" />
    </clipPath>
    <clipPath
       clipPathUnits="userSpaceOnUse"
       id="clipPath144">
      <path
         d="M 0,0 H 960.009 V 540 H 0 Z"
         transform="translate(-670.90652,-304.59101)"
         id="path144" />
    </clipPath>
    <clipPath
       clipPathUnits="userSpaceOnUse"
       id="clipPath146">
      <path
         d="M 0,0 H 960.009 V 540 H 0 Z"
         transform="translate(-675.34091,-252.8968)"
         id="path146" />
    </clipPath>
    <clipPath
       clipPathUnits="userSpaceOnUse"
       id="clipPath148">
      <path
         d="M 0,0 H 960.009 V 540 H 0 Z"
         transform="translate(-731.60292,-301.35641)"
         id="path148" />
    </clipPath>
    <clipPath
       clipPathUnits="userSpaceOnUse"
       id="clipPath150">
      <path
         d="M 0,0 H 960.009 V 540 H 0 Z"
         transform="translate(-769.25522,-269.3509)"
         id="path150" />
    </clipPath>
    <clipPath
       clipPathUnits="userSpaceOnUse"
       id="clipPath152">
      <path
         d="M 0,0 H 960.009 V 540 H 0 Z"
         transform="translate(-797.62959,-270.71421)"
         id="path152" />
    </clipPath>
    <clipPath
       clipPathUnits="userSpaceOnUse"
       id="clipPath154">
      <path
         d="M 0,0 H 960.009 V 540 H 0 Z"
         transform="translate(-819.53545,-251.29921)"
         id="path154" />
    </clipPath>
    <clipPath
       clipPathUnits="userSpaceOnUse"
       id="clipPath106">
      <path
         d="M 0,0 H 960.009 V 540 H 0 Z"
         transform="translate(-854.43355,-222.87901)"
         id="path106" />
    </clipPath>
    <clipPath
       clipPathUnits="userSpaceOnUse"
       id="clipPath108">
      <path
         d="M 0,0 H 960.009 V 540 H 0 Z"
         transform="translate(-845.89442,-183.77151)"
         id="path108" />
    </clipPath>
    <clipPath
       clipPathUnits="userSpaceOnUse"
       id="clipPath110">
      <path
         d="M 0,0 H 960.009 V 540 H 0 Z"
         transform="translate(-827.15155,-207.2536)"
         id="path110" />
    </clipPath>
    <clipPath
       clipPathUnits="userSpaceOnUse"
       id="clipPath112">
      <path
         d="M 0,0 H 960.009 V 540 H 0 Z"
         transform="translate(-821.5558,-184.11621)"
         id="path112" />
    </clipPath>
    <clipPath
       clipPathUnits="userSpaceOnUse"
       id="clipPath100">
      <path
         d="M 0,0 H 960.009 V 540 H 0 Z"
         transform="translate(-788.83644,-175.0057)"
         id="path100" />
    </clipPath>
    <clipPath
       clipPathUnits="userSpaceOnUse"
       id="clipPath102">
      <path
         d="M 0,0 H 960.009 V 540 H 0 Z"
         transform="translate(-762.95784,-218.90061)"
         id="path102" />
    </clipPath>
    <clipPath
       clipPathUnits="userSpaceOnUse"
       id="clipPath104">
      <path
         d="M 0,0 H 960.009 V 540 H 0 Z"
         transform="translate(-767.37212,-210.89581)"
         id="path104" />
    </clipPath>
    <clipPath
       clipPathUnits="userSpaceOnUse"
       id="clipPath96">
      <path
         d="M 0,0 H 960.009 V 540 H 0 Z"
         transform="translate(-667.61321,-172.85541)"
         id="path96" />
    </clipPath>
    <clipPath
       clipPathUnits="userSpaceOnUse"
       id="clipPath98">
      <path
         d="M 0,0 H 960.009 V 540 H 0 Z"
         transform="translate(-707.81362,-221.51581)"
         id="path98" />
    </clipPath>
    <clipPath
       clipPathUnits="userSpaceOnUse"
       id="clipPath88">
      <path
         d="M 0,0 H 960.009 V 540 H 0 Z"
         transform="translate(-599.45281,-229.32291)"
         id="path88" />
    </clipPath>
    <clipPath
       clipPathUnits="userSpaceOnUse"
       id="clipPath90">
      <path
         d="M 0,0 H 960.009 V 540 H 0 Z"
         transform="translate(-649.90772,-199.2534)"
         id="path90" />
    </clipPath>
    <clipPath
       clipPathUnits="userSpaceOnUse"
       id="clipPath92">
      <path
         d="M 0,0 H 960.009 V 540 H 0 Z"
         transform="translate(-638.90842,-203.66491)"
         id="path92" />
    </clipPath>
    <clipPath
       clipPathUnits="userSpaceOnUse"
       id="clipPath94">
      <path
         d="M 0,0 H 960.009 V 540 H 0 Z"
         transform="translate(-628.77641,-189.4174)"
         id="path94" />
    </clipPath>
    <clipPath
       clipPathUnits="userSpaceOnUse"
       id="clipPath84">
      <path
         d="M 0,0 H 960.009 V 540 H 0 Z"
         transform="translate(-584.37121,-231.34611)"
         id="path84" />
    </clipPath>
    <clipPath
       clipPathUnits="userSpaceOnUse"
       id="clipPath86">
      <path
         d="M 0,0 H 960.009 V 540 H 0 Z"
         transform="translate(-586.71481,-200.10211)"
         id="path86" />
    </clipPath>
    <clipPath
       clipPathUnits="userSpaceOnUse"
       id="clipPath74">
      <path
         d="M 0,0 H 960.009 V 540 H 0 Z"
         transform="translate(-469.54581,-229.89861)"
         id="path74" />
    </clipPath>
    <clipPath
       clipPathUnits="userSpaceOnUse"
       id="clipPath76">
      <path
         d="M 0,0 H 960.009 V 540 H 0 Z"
         transform="translate(-504.62411,-187.19301)"
         id="path76" />
    </clipPath>
    <clipPath
       clipPathUnits="userSpaceOnUse"
       id="clipPath78">
      <path
         d="M 0,0 H 960.009 V 540 H 0 Z"
         transform="translate(-479.18201,-202.14411)"
         id="path78" />
    </clipPath>
    <clipPath
       clipPathUnits="userSpaceOnUse"
       id="clipPath80">
      <path
         d="M 0,0 H 960.009 V 540 H 0 Z"
         transform="translate(-512.10071,-205.33581)"
         id="path80" />
    </clipPath>
    <clipPath
       clipPathUnits="userSpaceOnUse"
       id="clipPath82">
      <path
         d="M 0,0 H 960.009 V 540 H 0 Z"
         transform="translate(-504.38371,-189.2929)"
         id="path82" />
    </clipPath>
    <clipPath
       clipPathUnits="userSpaceOnUse"
       id="clipPath62">
      <path
         d="M 0,0 H 960.009 V 540 H 0 Z"
         transform="translate(-400.17211,-197.133)"
         id="path62" />
    </clipPath>
    <clipPath
       clipPathUnits="userSpaceOnUse"
       id="clipPath64">
      <path
         d="M 0,0 H 960.009 V 540 H 0 Z"
         transform="translate(-438.38491,-182.84691)"
         id="path64" />
    </clipPath>
    <clipPath
       clipPathUnits="userSpaceOnUse"
       id="clipPath66">
      <path
         d="M 0,0 H 960.009 V 540 H 0 Z"
         transform="translate(-416.77671,-183.0805)"
         id="path66" />
    </clipPath>
    <clipPath
       clipPathUnits="userSpaceOnUse"
       id="clipPath68">
      <path
         d="M 0,0 H 960.009 V 540 H 0 Z"
         transform="translate(-433.64651,-183.8322)"
         id="path68" />
    </clipPath>
    <clipPath
       clipPathUnits="userSpaceOnUse"
       id="clipPath70">
      <path
         d="M 0,0 H 960.009 V 540 H 0 Z"
         transform="translate(-417.30471,-184.38231)"
         id="path70" />
    </clipPath>
    <clipPath
       clipPathUnits="userSpaceOnUse"
       id="clipPath72">
      <path
         d="M 0,0 H 960.009 V 540 H 0 Z"
         transform="translate(-438.46141,-184.6746)"
         id="path72" />
    </clipPath>
  </defs>
  <g
     inkscape:label="Layer 1"
     inkscape:groupmode="layer"
     id="layer1"
     transform="translate(543.18971,434.44585)">
    <path
       id="path61"
       d="m 0,0 c -0.189,3.595 -0.699,7.177 -0.634,10.777 0.095,5.171 0.053,10.235 1.322,15.245 0.569,2.248 1.255,4.678 3.096,6.045 1.699,1.261 3.958,1.297 6.057,1.282 14.777,-0.102 30.872,-0.203 45.649,-0.305 0.665,-0.005 1.355,-0.015 1.956,-0.305 0.652,-0.315 1.121,-0.925 1.489,-1.558 2.042,-3.515 1.589,-7.922 1.07,-11.979 -0.734,-5.746 -1.469,-11.493 -2.203,-17.24 -0.388,-3.028 -0.775,-6.07 -0.7,-9.122 0.097,-3.895 0.948,-7.744 0.948,-11.64 0,-1.717 -0.239,-3.596 -1.457,-4.784 -1.114,-1.085 -2.766,-1.318 -4.303,-1.406 -4.593,-0.264 -9.187,0.275 -13.783,0.461 -12.397,0.501 -24.936,-1.563 -37.162,0.569 -0.472,0.082 -1.044,0.058 -1.37,0.411 -0.688,0.746 -0.238,7.747 0.155,12.521 z"
       style="fill:#9d5f80;fill-opacity:1;fill-rule:nonzero;stroke:none"
       transform="matrix(0.35277776,0,0,-0.35277776,-542.96404,-422.68035)"
       clip-path="url(#clipPath62)" />
    <path
       id="path63"
       d="m 0,0 c -0.102,0 -0.204,0.027 -0.297,0.084 -0.269,0.164 -0.354,0.516 -0.19,0.785 0.237,0.388 0.323,0.902 0.235,1.408 -0.045,0.263 -0.125,0.512 -0.236,0.742 -0.054,0.112 -0.149,0.223 -0.259,0.352 -0.098,0.113 -0.208,0.242 -0.306,0.393 -0.177,0.273 -0.288,0.598 -0.34,0.994 -0.03,0.23 -0.028,0.885 -0.021,1.859 0.002,0.261 0.004,0.496 0.004,0.661 -0.001,0.383 -0.016,0.829 -0.123,1.234 -0.745,2.822 -3.289,4.438 -6.058,5.826 -1.572,-2.4 -3.964,-4.11 -5.963,-5.22 -1.082,-0.601 -2.217,-1.08 -3.315,-1.543 -0.42,-0.177 -0.841,-0.354 -1.259,-0.538 -1.843,-0.813 -3.686,-1.751 -5.478,-2.788 -1.48,-0.857 -2.379,-1.394 -3.65,-2.461 -0.242,-0.203 -0.602,-0.171 -0.804,0.07 -0.203,0.242 -0.172,0.602 0.07,0.805 1.343,1.128 2.276,1.686 3.811,2.574 1.829,1.058 3.71,2.016 5.591,2.845 0.423,0.186 0.849,0.366 1.275,0.546 1.07,0.451 2.177,0.918 3.205,1.489 1.838,1.02 4.032,2.577 5.483,4.727 -0.196,0.094 -0.391,0.188 -0.587,0.281 -0.936,0.448 -1.821,0.87 -2.632,1.326 -0.715,0.4 -1.333,0.79 -1.89,1.189 -0.719,0.516 -1.582,1.254 -1.879,2.388 -0.24,0.918 -0.048,1.958 0.526,2.855 0.882,1.376 2.536,2.204 4.212,2.105 1.599,-0.093 3.14,-1.019 4.021,-2.418 0.893,-1.418 1.127,-3.301 0.642,-5.165 -0.193,-0.739 -0.466,-1.431 -0.801,-2.08 2.895,-1.461 5.729,-3.282 6.584,-6.521 0.14,-0.531 0.16,-1.068 0.161,-1.524 0,-0.168 -0.002,-0.406 -0.003,-0.671 C -0.276,6.074 -0.283,5.079 -0.26,4.907 -0.231,4.683 -0.177,4.512 -0.094,4.385 -0.038,4.298 0.039,4.209 0.12,4.114 0.261,3.949 0.421,3.762 0.54,3.517 0.698,3.191 0.81,2.84 0.874,2.473 1.008,1.697 0.868,0.895 0.488,0.273 0.38,0.097 0.192,0 0,0 m -11.136,23.853 c -1.188,0 -2.37,-0.621 -2.989,-1.586 -0.397,-0.62 -0.541,-1.349 -0.383,-1.949 0.159,-0.61 0.603,-1.15 1.44,-1.75 0.522,-0.375 1.105,-0.741 1.782,-1.121 0.78,-0.437 1.648,-0.852 2.567,-1.292 0.225,-0.107 0.453,-0.216 0.681,-0.326 0.303,0.583 0.548,1.204 0.72,1.864 0.407,1.56 0.223,3.116 -0.503,4.269 -0.688,1.091 -1.883,1.814 -3.121,1.886 -0.064,0.003 -0.129,0.005 -0.194,0.005"
       style="fill:#ffffff;fill-opacity:1;fill-rule:nonzero;stroke:none"
       transform="matrix(0.35277776,0,0,-0.35277776,-529.48341,-417.64054)"
       clip-path="url(#clipPath64)" />
    <path
       id="path65"
       d="m 0,0 c -0.219,0 -0.428,0.126 -0.522,0.339 -0.128,0.289 0.001,0.626 0.29,0.754 0.595,0.264 0.58,0.496 0.444,1.188 -0.094,0.475 -0.21,1.067 0.185,1.569 0.392,0.498 0.693,0.854 0.936,1.14 0.823,0.974 0.995,1.177 2.157,4.009 1.57,3.825 4.163,7.516 6.936,9.873 1.628,1.384 4.908,2.879 7.629,3.478 2.839,0.625 7.732,0.09 9.218,-3.042 0.296,-0.624 0.588,-1.382 0.533,-2.146 0.496,0.053 0.951,0.296 1.22,0.79 0.422,0.778 0.323,1.716 -0.296,2.787 -0.497,0.859 -1.338,1.782 -2.25,2.467 -0.252,0.19 -0.303,0.548 -0.114,0.8 0.19,0.252 0.548,0.303 0.8,0.113 1.717,-1.29 4.252,-4.155 2.863,-6.712 -0.464,-0.855 -1.437,-1.481 -2.627,-1.406 -0.524,-0.743 -1.527,-1.14 -2.749,-1.074 -0.835,0.045 -2.83,0.286 -3.323,1.539 -0.12,0.307 -0.119,0.632 0.005,0.914 0.13,0.297 0.388,0.533 0.726,0.665 1.129,0.44 2.655,0.215 4.535,-0.667 0.025,-0.011 0.05,-0.022 0.074,-0.033 0.004,0.477 -0.204,0.999 -0.429,1.473 -1.167,2.46 -5.361,2.984 -7.94,2.417 C 15.78,20.68 12.646,19.26 11.166,18.002 8.525,15.757 6.051,12.23 4.547,8.565 3.358,5.667 3.122,5.337 2.204,4.252 1.968,3.973 1.674,3.625 1.295,3.144 1.224,3.053 1.282,2.76 1.332,2.501 1.465,1.826 1.687,0.696 0.231,0.049 0.156,0.016 0.077,0 0,0 m 22.381,16.921 c 0,0 0.003,-0.015 0.013,-0.038 0.157,-0.402 1.156,-0.753 2.321,-0.816 0.246,-0.014 0.919,-0.018 1.405,0.273 -0.003,0.001 -0.006,0.003 -0.009,0.004 -1.541,0.723 -2.832,0.949 -3.636,0.637 -0.064,-0.025 -0.09,-0.053 -0.095,-0.06 z"
       style="fill:#ffffff;fill-opacity:1;fill-rule:nonzero;stroke:none"
       transform="matrix(0.35277776,0,0,-0.35277776,-537.1063,-417.72294)"
       clip-path="url(#clipPath66)" />
    <path
       id="path67"
       d="m 0,0 c -0.251,0 -0.482,0.167 -0.551,0.421 -0.209,0.766 0.322,3.084 1.378,7.093 l 0.271,1.027 c 0.173,0.659 0.317,1.257 0.438,1.829 0.263,1.239 0.423,2.536 0.475,3.856 0.117,2.919 -0.222,7.052 -2.496,10.169 -1.323,1.814 -3.345,2.979 -5.498,3.655 -0.16,-0.046 -0.32,-0.092 -0.479,-0.136 C -6.876,27.8 -7.29,27.683 -7.704,27.566 -8.728,27.277 -9.787,26.978 -10.84,26.717 l -0.092,-0.023 c -0.795,-0.2 -2.449,-0.615 -2.999,0.814 -0.319,0.828 0.192,1.679 0.834,2.06 0.571,0.338 1.228,0.389 1.853,0.394 1.624,0.02 3.472,-0.203 5.258,-0.723 0.03,0.008 0.059,0.017 0.088,0.025 0.972,0.284 1.977,0.578 3.013,0.714 3.163,0.415 5.487,-0.103 8.29,-1.852 l 0.044,-0.028 c 0.449,-0.285 0.764,-0.455 0.977,-0.556 -0.009,1.672 0.474,3.242 0.973,4.064 0.654,1.075 1.733,1.821 2.963,2.047 1.188,0.219 2.36,-0.063 3.3,-0.793 0.598,-0.464 1.022,-1.038 1.26,-1.707 0.549,-1.54 0.146,-3.525 -1.077,-5.309 -0.394,-0.573 -1.314,-1.916 -2.591,-1.93 -0.007,0 -0.014,0 -0.021,0 -1.346,0 -1.835,1.343 -2.128,2.148 -0.032,0.089 -0.063,0.175 -0.095,0.257 -0.112,0.294 0.035,0.625 0.33,0.737 0.295,0.112 0.625,-0.035 0.737,-0.33 0.034,-0.087 0.067,-0.179 0.102,-0.274 0.298,-0.821 0.556,-1.406 1.063,-1.396 0.683,0.008 1.393,1.044 1.661,1.434 0.785,1.145 1.445,2.871 0.943,4.28 -0.164,0.46 -0.461,0.86 -0.884,1.188 -0.68,0.528 -1.53,0.731 -2.393,0.572 C 9.659,32.362 8.86,31.809 8.375,31.013 7.897,30.226 7.473,28.617 7.587,27.066 7.609,26.767 7.48,26.504 7.242,26.361 6.866,26.136 6.333,26.186 4.838,27.133 L 4.801,27.156 C 2.215,28.77 0.172,29.227 -2.736,28.845 -3.199,28.784 -3.665,28.687 -4.128,28.571 -2.343,27.794 -0.721,26.656 0.438,25.068 2.906,21.686 3.276,17.28 3.153,14.18 3.098,12.797 2.93,11.435 2.653,10.133 2.528,9.543 2.38,8.927 2.202,8.25 L 1.931,7.223 C 1.511,5.627 0.395,1.386 0.551,0.721 0.634,0.417 0.455,0.104 0.151,0.021 0.1,0.007 0.05,0 0,0 m -11.113,28.82 c -0.041,0 -0.082,0 -0.122,0 -0.433,-0.003 -0.925,-0.024 -1.28,-0.234 -0.263,-0.156 -0.427,-0.469 -0.35,-0.668 0.157,-0.408 0.703,-0.355 1.655,-0.116 l 0.095,0.023 c 0.945,0.235 1.902,0.502 2.834,0.765 -0.974,0.158 -1.936,0.23 -2.832,0.23"
       style="fill:#ffffff;fill-opacity:1;fill-rule:nonzero;stroke:none"
       transform="matrix(0.35277776,0,0,-0.35277776,-531.15501,-417.98813)"
       clip-path="url(#clipPath68)" />
    <path
       id="path69"
       d="m 0,0 c -0.105,0.029 -0.221,0.043 -0.343,0.043 -0.231,0 -0.482,-0.05 -0.718,-0.139 -0.112,-0.042 -0.245,0.033 -0.241,0.153 0.006,0.207 -0.135,0.379 -0.417,0.457 -0.105,0.029 -0.221,0.043 -0.343,0.043 -0.26,0 -0.545,-0.063 -0.806,-0.173 -0.113,-0.048 -0.245,0.035 -0.241,0.158 0.006,0.207 -0.136,0.38 -0.419,0.458 -0.105,0.029 -0.221,0.042 -0.343,0.042 -0.245,0 -0.514,-0.055 -0.764,-0.155 -0.119,-0.048 -0.25,0.043 -0.24,0.171 0.018,0.216 -0.123,0.397 -0.415,0.478 -0.105,0.029 -0.222,0.043 -0.343,0.043 -0.464,0 -1.01,-0.199 -1.351,-0.516 -0.432,-0.401 -0.373,-0.839 0.132,-0.978 0.105,-0.029 0.221,-0.043 0.343,-0.043 0.245,0 0.514,0.056 0.763,0.156 0.119,0.047 0.251,-0.043 0.241,-0.171 -0.018,-0.216 0.123,-0.398 0.415,-0.479 0.105,-0.029 0.221,-0.042 0.343,-0.042 0.26,0 0.545,0.062 0.806,0.173 0.113,0.048 0.245,-0.036 0.241,-0.159 -0.006,-0.207 0.136,-0.379 0.419,-0.457 0.105,-0.029 0.221,-0.043 0.343,-0.043 0.231,0 0.481,0.049 0.718,0.138 0.112,0.043 0.245,-0.032 0.241,-0.153 -0.006,-0.206 0.134,-0.378 0.417,-0.456 0.105,-0.029 0.221,-0.043 0.343,-0.043 0.463,0 1.009,0.199 1.351,0.516 C 0.563,-0.577 0.504,-0.139 0,0"
       style="fill:#ffffff;fill-opacity:1;fill-rule:nonzero;stroke:none"
       transform="matrix(0.35277776,0,0,-0.35277776,-536.92004,-418.18219)"
       clip-path="url(#clipPath70)" />
    <path
       id="path71"
       d="m 0,0 c -0.168,0.04 -0.339,0.02 -0.497,-0.056 -0.027,-0.013 -0.054,-0.027 -0.08,-0.043 -0.137,-0.086 -0.313,-0.055 -0.4,0.082 -0.114,0.179 -0.285,0.311 -0.494,0.36 C -1.64,0.382 -1.81,0.362 -1.968,0.287 -1.996,0.273 -2.023,0.258 -2.049,0.242 -2.189,0.154 -2.368,0.187 -2.457,0.326 -2.571,0.507 -2.742,0.639 -2.951,0.688 -3.119,0.727 -3.29,0.707 -3.448,0.632 -3.473,0.62 -3.498,0.607 -3.522,0.592 -3.656,0.51 -3.828,0.559 -3.917,0.688 -4.031,0.856 -4.196,0.978 -4.396,1.024 -4.564,1.064 -4.735,1.044 -4.892,0.969 -5.063,0.887 -5.35,0.822 -5.372,0.621 -5.383,0.525 -5.395,0.381 -5.415,0.245 c -0.077,-0.541 0.027,-1.032 0.632,-1.148 0.03,-0.005 0.059,-0.012 0.089,-0.015 0.138,-0.015 0.278,0.009 0.408,0.071 0.025,0.012 0.05,0.025 0.073,0.04 0.134,0.082 0.307,0.033 0.396,-0.096 0.114,-0.168 0.279,-0.29 0.478,-0.336 0.03,-0.007 0.059,-0.012 0.089,-0.015 0.139,-0.016 0.278,0.008 0.408,0.07 0.028,0.014 0.056,0.029 0.082,0.045 0.14,0.088 0.319,0.056 0.407,-0.084 0.115,-0.18 0.286,-0.313 0.495,-0.361 0.03,-0.007 0.059,-0.012 0.089,-0.016 0.138,-0.015 0.278,0.009 0.408,0.071 0.027,0.013 0.054,0.028 0.079,0.044 0.138,0.085 0.314,0.054 0.401,-0.082 0.114,-0.18 0.285,-0.312 0.494,-0.36 0.029,-0.007 0.059,-0.012 0.088,-0.015 0.139,-0.016 0.278,0.008 0.408,0.071 0.265,0.126 0.422,0.406 0.523,0.723 0.037,0.117 0.075,0.218 0.106,0.368 C 0.829,-0.335 0.374,-0.087 0,0"
       style="fill:#ffffff;fill-opacity:1;fill-rule:nonzero;stroke:none"
       transform="matrix(0.35277776,0,0,-0.35277776,-529.45642,-418.28531)"
       clip-path="url(#clipPath72)" />
  </g>
</svg>
