<?xml version="1.0" encoding="UTF-8" standalone="no"?>
<!-- Created with Inkscape (http://www.inkscape.org/) -->

<svg
   width="20.345758mm"
   height="20.764133mm"
   viewBox="0 0 20.345757 20.764134"
   version="1.1"
   id="svg1"
   inkscape:version="1.4 (e7c3feb1, 2024-10-09)"
   sodipodi:docname="SHO.svg"
   xmlns:inkscape="http://www.inkscape.org/namespaces/inkscape"
   xmlns:sodipodi="http://sodipodi.sourceforge.net/DTD/sodipodi-0.dtd"
   xmlns="http://www.w3.org/2000/svg"
   xmlns:svg="http://www.w3.org/2000/svg">
  <sodipodi:namedview
     id="namedview1"
     pagecolor="#ffffff"
     bordercolor="#000000"
     borderopacity="0.25"
     inkscape:showpageshadow="2"
     inkscape:pageopacity="0.0"
     inkscape:pagecheckerboard="0"
     inkscape:deskcolor="#d1d1d1"
     inkscape:document-units="mm"
     inkscape:zoom="2.096401"
     inkscape:cx="-48.41631"
     inkscape:cy="-15.502759"
     inkscape:window-width="1440"
     inkscape:window-height="872"
     inkscape:window-x="0"
     inkscape:window-y="28"
     inkscape:window-maximized="0"
     inkscape:current-layer="layer1" />
  <defs
     id="defs1">
    <clipPath
       clipPathUnits="userSpaceOnUse"
       id="clipPath46">
      <path
         d="M 0,0 H 960.009 V 540 H 0 Z"
         transform="translate(-335.30581,-447.22351)"
         id="path46" />
    </clipPath>
    <clipPath
       clipPathUnits="userSpaceOnUse"
       id="clipPath48">
      <path
         d="M 0,0 H 960.009 V 540 H 0 Z"
         transform="translate(-366.36111,-395.97531)"
         id="path48" />
    </clipPath>
    <clipPath
       clipPathUnits="userSpaceOnUse"
       id="clipPath46-4">
      <path
         d="M 0,0 H 960.009 V 540 H 0 Z"
         transform="translate(-335.30581,-447.22351)"
         id="path46-1" />
    </clipPath>
    <clipPath
       clipPathUnits="userSpaceOnUse"
       id="clipPath48-8">
      <path
         d="M 0,0 H 960.009 V 540 H 0 Z"
         transform="translate(-366.36111,-395.97531)"
         id="path48-8" />
    </clipPath>
    <clipPath
       clipPathUnits="userSpaceOnUse"
       id="clipPath10">
      <path
         d="M 0,0 H 960.009 V 540 H 0 Z"
         transform="translate(-452.25271,-448.21871)"
         id="path10" />
    </clipPath>
    <clipPath
       clipPathUnits="userSpaceOnUse"
       id="clipPath12">
      <path
         d="M 0,0 H 960.009 V 540 H 0 Z"
         transform="translate(-445.51041,-428.84291)"
         id="path12" />
    </clipPath>
    <clipPath
       clipPathUnits="userSpaceOnUse"
       id="clipPath14">
      <path
         d="M 0,0 H 960.009 V 540 H 0 Z"
         transform="translate(-490.38481,-447.77471)"
         id="path14" />
    </clipPath>
    <clipPath
       clipPathUnits="userSpaceOnUse"
       id="clipPath16">
      <path
         d="M 0,0 H 960.009 V 540 H 0 Z"
         transform="translate(-520.07251,-407.43611)"
         id="path16" />
    </clipPath>
    <clipPath
       clipPathUnits="userSpaceOnUse"
       id="clipPath18">
      <path
         d="M 0,0 H 960.009 V 540 H 0 Z"
         transform="translate(-475.72791,-420.29251)"
         id="path18" />
    </clipPath>
    <clipPath
       clipPathUnits="userSpaceOnUse"
       id="clipPath20">
      <path
         d="M 0,0 H 960.009 V 540 H 0 Z"
         transform="translate(-532.40951,-415.32891)"
         id="path20" />
    </clipPath>
    <clipPath
       clipPathUnits="userSpaceOnUse"
       id="clipPath22">
      <path
         d="M 0,0 H 960.009 V 540 H 0 Z"
         transform="translate(-585.24491,-404.67841)"
         id="path22" />
    </clipPath>
    <clipPath
       clipPathUnits="userSpaceOnUse"
       id="clipPath24">
      <path
         d="M 0,0 H 960.009 V 540 H 0 Z"
         transform="translate(-546.73501,-439.46011)"
         id="path24" />
    </clipPath>
    <clipPath
       clipPathUnits="userSpaceOnUse"
       id="clipPath26">
      <path
         d="M 0,0 H 960.009 V 540 H 0 Z"
         transform="translate(-597.25132,-396.91631)"
         id="path26" />
    </clipPath>
    <clipPath
       clipPathUnits="userSpaceOnUse"
       id="clipPath28">
      <path
         d="M 0,0 H 960.009 V 540 H 0 Z"
         transform="translate(-644.79592,-427.55181)"
         id="path28" />
    </clipPath>
    <clipPath
       clipPathUnits="userSpaceOnUse"
       id="clipPath30">
      <path
         d="M 0,0 H 960.009 V 540 H 0 Z"
         transform="translate(-722.31742,-442.86561)"
         id="path30" />
    </clipPath>
    <clipPath
       clipPathUnits="userSpaceOnUse"
       id="clipPath32">
      <path
         d="M 0,0 H 960.009 V 540 H 0 Z"
         transform="translate(-713.80762,-411.31901)"
         id="path32" />
    </clipPath>
    <clipPath
       clipPathUnits="userSpaceOnUse"
       id="clipPath34">
      <path
         d="M 0,0 H 960.009 V 540 H 0 Z"
         transform="translate(-711.27122,-406.75661)"
         id="path34" />
    </clipPath>
    <clipPath
       clipPathUnits="userSpaceOnUse"
       id="clipPath36">
      <path
         d="M 0,0 H 960.009 V 540 H 0 Z"
         transform="translate(-788.58924,-392.63841)"
         id="path36" />
    </clipPath>
    <clipPath
       clipPathUnits="userSpaceOnUse"
       id="clipPath38">
      <path
         d="M 0,0 H 960.009 V 540 H 0 Z"
         transform="translate(-775.73004,-429.83291)"
         id="path38" />
    </clipPath>
    <clipPath
       clipPathUnits="userSpaceOnUse"
       id="clipPath40">
      <path
         d="M 0,0 H 960.009 V 540 H 0 Z"
         transform="translate(-854.0284,-447.94411)"
         id="path40" />
    </clipPath>
    <clipPath
       clipPathUnits="userSpaceOnUse"
       id="clipPath42">
      <path
         d="M 0,0 H 960.009 V 540 H 0 Z"
         transform="translate(-841.42262,-414.05971)"
         id="path42" />
    </clipPath>
    <clipPath
       clipPathUnits="userSpaceOnUse"
       id="clipPath44">
      <path
         d="M 0,0 H 960.009 V 540 H 0 Z"
         transform="translate(-828.18625,-402.03771)"
         id="path44" />
    </clipPath>
    <clipPath
       clipPathUnits="userSpaceOnUse"
       id="clipPath186">
      <path
         d="M 0,0 H 960.009 V 540 H 0 Z"
         transform="translate(-796.23144,-323.72221)"
         id="path186" />
    </clipPath>
    <clipPath
       clipPathUnits="userSpaceOnUse"
       id="clipPath188">
      <path
         d="M 0,0 H 960.009 V 540 H 0 Z"
         transform="translate(-837.6514,-370.80791)"
         id="path188" />
    </clipPath>
    <clipPath
       clipPathUnits="userSpaceOnUse"
       id="clipPath182">
      <path
         d="M 0,0 H 960.009 V 540 H 0 Z"
         transform="translate(-736.95462,-375.25501)"
         id="path182" />
    </clipPath>
    <clipPath
       clipPathUnits="userSpaceOnUse"
       id="clipPath184">
      <path
         d="M 0,0 H 960.009 V 540 H 0 Z"
         transform="translate(-768.50649,-358.25011)"
         id="path184" />
    </clipPath>
    <clipPath
       clipPathUnits="userSpaceOnUse"
       id="clipPath178">
      <path
         d="M 0,0 H 960.009 V 540 H 0 Z"
         transform="translate(-720.27222,-375.61331)"
         id="path178" />
    </clipPath>
    <clipPath
       clipPathUnits="userSpaceOnUse"
       id="clipPath180">
      <path
         d="M 0,0 H 960.009 V 540 H 0 Z"
         transform="translate(-708.29912,-339.89981)"
         id="path180" />
    </clipPath>
    <clipPath
       clipPathUnits="userSpaceOnUse"
       id="clipPath174">
      <path
         d="M 0,0 H 960.009 V 540 H 0 Z"
         transform="translate(-632.38852,-318.07351)"
         id="path174" />
    </clipPath>
    <clipPath
       clipPathUnits="userSpaceOnUse"
       id="clipPath176">
      <path
         d="M 0,0 H 960.009 V 540 H 0 Z"
         transform="translate(-651.53441,-331.09111)"
         id="path176" />
    </clipPath>
    <clipPath
       clipPathUnits="userSpaceOnUse"
       id="clipPath170">
      <path
         d="M 0,0 H 960.009 V 540 H 0 Z"
         transform="translate(-591.96502,-324.88781)"
         id="path170" />
    </clipPath>
    <clipPath
       clipPathUnits="userSpaceOnUse"
       id="clipPath172">
      <path
         d="M 0,0 H 960.009 V 540 H 0 Z"
         transform="translate(-586.33631,-340.16661)"
         id="path172" />
    </clipPath>
    <clipPath
       clipPathUnits="userSpaceOnUse"
       id="clipPath166">
      <path
         d="M 0,0 H 960.009 V 540 H 0 Z"
         transform="translate(-524.71871,-320.54331)"
         id="path166" />
    </clipPath>
    <clipPath
       clipPathUnits="userSpaceOnUse"
       id="clipPath168">
      <path
         d="M 0,0 H 960.009 V 540 H 0 Z"
         transform="translate(-503.36561,-325.03411)"
         id="path168" />
    </clipPath>
    <clipPath
       clipPathUnits="userSpaceOnUse"
       id="clipPath160">
      <path
         d="M 0,0 H 960.009 V 540 H 0 Z"
         transform="translate(-403.48081,-318.39281)"
         id="path160" />
    </clipPath>
    <clipPath
       clipPathUnits="userSpaceOnUse"
       id="clipPath162">
      <path
         d="M 0,0 H 960.009 V 540 H 0 Z"
         transform="translate(-451.85691,-327.41961)"
         id="path162" />
    </clipPath>
    <clipPath
       clipPathUnits="userSpaceOnUse"
       id="clipPath164">
      <path
         d="M 0,0 H 960.009 V 540 H 0 Z"
         transform="translate(-409.77981,-357.93981)"
         id="path164" />
    </clipPath>
    <clipPath
       clipPathUnits="userSpaceOnUse"
       id="clipPath156">
      <path
         d="M 0,0 H 960.009 V 540 H 0 Z"
         transform="translate(-368.23991,-318.73791)"
         id="path156" />
    </clipPath>
    <clipPath
       clipPathUnits="userSpaceOnUse"
       id="clipPath158">
      <path
         d="M 0,0 H 960.009 V 540 H 0 Z"
         transform="translate(-383.86171,-342.63551)"
         id="path158" />
    </clipPath>
    <clipPath
       clipPathUnits="userSpaceOnUse"
       id="clipPath114">
      <path
         d="M 0,0 H 960.009 V 540 H 0 Z"
         transform="translate(-392.75611,-298.45791)"
         id="path114" />
    </clipPath>
    <clipPath
       clipPathUnits="userSpaceOnUse"
       id="clipPath116">
      <path
         d="M 0,0 H 960.009 V 540 H 0 Z"
         transform="translate(-387.31901,-254.33761)"
         id="path116" />
    </clipPath>
    <clipPath
       clipPathUnits="userSpaceOnUse"
       id="clipPath118">
      <path
         d="M 0,0 H 960.009 V 540 H 0 Z"
         transform="translate(-360.51291,-262.97961)"
         id="path118" />
    </clipPath>
    <clipPath
       clipPathUnits="userSpaceOnUse"
       id="clipPath120">
      <path
         d="M 0,0 H 960.009 V 540 H 0 Z"
         transform="translate(-455.62551,-246.02871)"
         id="path120" />
    </clipPath>
    <clipPath
       clipPathUnits="userSpaceOnUse"
       id="clipPath122">
      <path
         d="M 0,0 H 960.009 V 540 H 0 Z"
         transform="translate(-452.63151,-264.6049)"
         id="path122" />
    </clipPath>
    <clipPath
       clipPathUnits="userSpaceOnUse"
       id="clipPath124">
      <path
         d="M 0,0 H 960.009 V 540 H 0 Z"
         transform="translate(-409.98541,-258.8899)"
         id="path124" />
    </clipPath>
    <clipPath
       clipPathUnits="userSpaceOnUse"
       id="clipPath126">
      <path
         d="M 0,0 H 960.009 V 540 H 0 Z"
         transform="translate(-473.91801,-244.75861)"
         id="path126" />
    </clipPath>
    <clipPath
       clipPathUnits="userSpaceOnUse"
       id="clipPath128">
      <path
         d="M 0,0 H 960.009 V 540 H 0 Z"
         transform="translate(-522.03322,-284.9617)"
         id="path128" />
    </clipPath>
    <clipPath
       clipPathUnits="userSpaceOnUse"
       id="clipPath130">
      <path
         d="M 0,0 H 960.009 V 540 H 0 Z"
         transform="translate(-566.28982,-245.4835)"
         id="path130" />
    </clipPath>
    <clipPath
       clipPathUnits="userSpaceOnUse"
       id="clipPath132">
      <path
         d="M 0,0 H 960.009 V 540 H 0 Z"
         transform="translate(-579.34751,-261.87991)"
         id="path132" />
    </clipPath>
    <clipPath
       clipPathUnits="userSpaceOnUse"
       id="clipPath134">
      <path
         d="M 0,0 H 960.009 V 540 H 0 Z"
         transform="translate(-599.74111,-300.49821)"
         id="path134" />
    </clipPath>
    <clipPath
       clipPathUnits="userSpaceOnUse"
       id="clipPath136">
      <path
         d="M 0,0 H 960.009 V 540 H 0 Z"
         transform="translate(-607.69802,-279.2284)"
         id="path136" />
    </clipPath>
    <clipPath
       clipPathUnits="userSpaceOnUse"
       id="clipPath138">
      <path
         d="M 0,0 H 960.009 V 540 H 0 Z"
         transform="translate(-650.53442,-256.29601)"
         id="path138" />
    </clipPath>
    <clipPath
       clipPathUnits="userSpaceOnUse"
       id="clipPath140">
      <path
         d="M 0,0 H 960.009 V 540 H 0 Z"
         transform="translate(-622.88372,-267.98611)"
         id="path140" />
    </clipPath>
    <clipPath
       clipPathUnits="userSpaceOnUse"
       id="clipPath142">
      <path
         d="M 0,0 H 960.009 V 540 H 0 Z"
         transform="translate(-650.88982,-289.31181)"
         id="path142" />
    </clipPath>
    <clipPath
       clipPathUnits="userSpaceOnUse"
       id="clipPath144">
      <path
         d="M 0,0 H 960.009 V 540 H 0 Z"
         transform="translate(-670.90652,-304.59101)"
         id="path144" />
    </clipPath>
    <clipPath
       clipPathUnits="userSpaceOnUse"
       id="clipPath146">
      <path
         d="M 0,0 H 960.009 V 540 H 0 Z"
         transform="translate(-675.34091,-252.8968)"
         id="path146" />
    </clipPath>
    <clipPath
       clipPathUnits="userSpaceOnUse"
       id="clipPath148">
      <path
         d="M 0,0 H 960.009 V 540 H 0 Z"
         transform="translate(-731.60292,-301.35641)"
         id="path148" />
    </clipPath>
    <clipPath
       clipPathUnits="userSpaceOnUse"
       id="clipPath150">
      <path
         d="M 0,0 H 960.009 V 540 H 0 Z"
         transform="translate(-769.25522,-269.3509)"
         id="path150" />
    </clipPath>
    <clipPath
       clipPathUnits="userSpaceOnUse"
       id="clipPath152">
      <path
         d="M 0,0 H 960.009 V 540 H 0 Z"
         transform="translate(-797.62959,-270.71421)"
         id="path152" />
    </clipPath>
    <clipPath
       clipPathUnits="userSpaceOnUse"
       id="clipPath154">
      <path
         d="M 0,0 H 960.009 V 540 H 0 Z"
         transform="translate(-819.53545,-251.29921)"
         id="path154" />
    </clipPath>
    <clipPath
       clipPathUnits="userSpaceOnUse"
       id="clipPath106">
      <path
         d="M 0,0 H 960.009 V 540 H 0 Z"
         transform="translate(-854.43355,-222.87901)"
         id="path106" />
    </clipPath>
    <clipPath
       clipPathUnits="userSpaceOnUse"
       id="clipPath108">
      <path
         d="M 0,0 H 960.009 V 540 H 0 Z"
         transform="translate(-845.89442,-183.77151)"
         id="path108" />
    </clipPath>
    <clipPath
       clipPathUnits="userSpaceOnUse"
       id="clipPath110">
      <path
         d="M 0,0 H 960.009 V 540 H 0 Z"
         transform="translate(-827.15155,-207.2536)"
         id="path110" />
    </clipPath>
    <clipPath
       clipPathUnits="userSpaceOnUse"
       id="clipPath112">
      <path
         d="M 0,0 H 960.009 V 540 H 0 Z"
         transform="translate(-821.5558,-184.11621)"
         id="path112" />
    </clipPath>
    <clipPath
       clipPathUnits="userSpaceOnUse"
       id="clipPath100">
      <path
         d="M 0,0 H 960.009 V 540 H 0 Z"
         transform="translate(-788.83644,-175.0057)"
         id="path100" />
    </clipPath>
    <clipPath
       clipPathUnits="userSpaceOnUse"
       id="clipPath102">
      <path
         d="M 0,0 H 960.009 V 540 H 0 Z"
         transform="translate(-762.95784,-218.90061)"
         id="path102" />
    </clipPath>
    <clipPath
       clipPathUnits="userSpaceOnUse"
       id="clipPath104">
      <path
         d="M 0,0 H 960.009 V 540 H 0 Z"
         transform="translate(-767.37212,-210.89581)"
         id="path104" />
    </clipPath>
    <clipPath
       clipPathUnits="userSpaceOnUse"
       id="clipPath96">
      <path
         d="M 0,0 H 960.009 V 540 H 0 Z"
         transform="translate(-667.61321,-172.85541)"
         id="path96" />
    </clipPath>
    <clipPath
       clipPathUnits="userSpaceOnUse"
       id="clipPath98">
      <path
         d="M 0,0 H 960.009 V 540 H 0 Z"
         transform="translate(-707.81362,-221.51581)"
         id="path98" />
    </clipPath>
    <clipPath
       clipPathUnits="userSpaceOnUse"
       id="clipPath88">
      <path
         d="M 0,0 H 960.009 V 540 H 0 Z"
         transform="translate(-599.45281,-229.32291)"
         id="path88" />
    </clipPath>
    <clipPath
       clipPathUnits="userSpaceOnUse"
       id="clipPath90">
      <path
         d="M 0,0 H 960.009 V 540 H 0 Z"
         transform="translate(-649.90772,-199.2534)"
         id="path90" />
    </clipPath>
    <clipPath
       clipPathUnits="userSpaceOnUse"
       id="clipPath92">
      <path
         d="M 0,0 H 960.009 V 540 H 0 Z"
         transform="translate(-638.90842,-203.66491)"
         id="path92" />
    </clipPath>
    <clipPath
       clipPathUnits="userSpaceOnUse"
       id="clipPath94">
      <path
         d="M 0,0 H 960.009 V 540 H 0 Z"
         transform="translate(-628.77641,-189.4174)"
         id="path94" />
    </clipPath>
    <clipPath
       clipPathUnits="userSpaceOnUse"
       id="clipPath84">
      <path
         d="M 0,0 H 960.009 V 540 H 0 Z"
         transform="translate(-584.37121,-231.34611)"
         id="path84" />
    </clipPath>
    <clipPath
       clipPathUnits="userSpaceOnUse"
       id="clipPath86">
      <path
         d="M 0,0 H 960.009 V 540 H 0 Z"
         transform="translate(-586.71481,-200.10211)"
         id="path86" />
    </clipPath>
    <clipPath
       clipPathUnits="userSpaceOnUse"
       id="clipPath74">
      <path
         d="M 0,0 H 960.009 V 540 H 0 Z"
         transform="translate(-469.54581,-229.89861)"
         id="path74" />
    </clipPath>
    <clipPath
       clipPathUnits="userSpaceOnUse"
       id="clipPath76">
      <path
         d="M 0,0 H 960.009 V 540 H 0 Z"
         transform="translate(-504.62411,-187.19301)"
         id="path76" />
    </clipPath>
    <clipPath
       clipPathUnits="userSpaceOnUse"
       id="clipPath78">
      <path
         d="M 0,0 H 960.009 V 540 H 0 Z"
         transform="translate(-479.18201,-202.14411)"
         id="path78" />
    </clipPath>
    <clipPath
       clipPathUnits="userSpaceOnUse"
       id="clipPath80">
      <path
         d="M 0,0 H 960.009 V 540 H 0 Z"
         transform="translate(-512.10071,-205.33581)"
         id="path80" />
    </clipPath>
    <clipPath
       clipPathUnits="userSpaceOnUse"
       id="clipPath82">
      <path
         d="M 0,0 H 960.009 V 540 H 0 Z"
         transform="translate(-504.38371,-189.2929)"
         id="path82" />
    </clipPath>
    <clipPath
       clipPathUnits="userSpaceOnUse"
       id="clipPath62">
      <path
         d="M 0,0 H 960.009 V 540 H 0 Z"
         transform="translate(-400.17211,-197.133)"
         id="path62" />
    </clipPath>
    <clipPath
       clipPathUnits="userSpaceOnUse"
       id="clipPath64">
      <path
         d="M 0,0 H 960.009 V 540 H 0 Z"
         transform="translate(-438.38491,-182.84691)"
         id="path64" />
    </clipPath>
    <clipPath
       clipPathUnits="userSpaceOnUse"
       id="clipPath66">
      <path
         d="M 0,0 H 960.009 V 540 H 0 Z"
         transform="translate(-416.77671,-183.0805)"
         id="path66" />
    </clipPath>
    <clipPath
       clipPathUnits="userSpaceOnUse"
       id="clipPath68">
      <path
         d="M 0,0 H 960.009 V 540 H 0 Z"
         transform="translate(-433.64651,-183.8322)"
         id="path68" />
    </clipPath>
    <clipPath
       clipPathUnits="userSpaceOnUse"
       id="clipPath70">
      <path
         d="M 0,0 H 960.009 V 540 H 0 Z"
         transform="translate(-417.30471,-184.38231)"
         id="path70" />
    </clipPath>
    <clipPath
       clipPathUnits="userSpaceOnUse"
       id="clipPath72">
      <path
         d="M 0,0 H 960.009 V 540 H 0 Z"
         transform="translate(-438.46141,-184.6746)"
         id="path72" />
    </clipPath>
    <clipPath
       clipPathUnits="userSpaceOnUse"
       id="clipPath58">
      <path
         d="M 0,0 H 960.009 V 540 H 0 Z"
         transform="translate(-335.41721,-174.7122)"
         id="path58" />
    </clipPath>
    <clipPath
       clipPathUnits="userSpaceOnUse"
       id="clipPath60">
      <path
         d="M 0,0 H 960.009 V 540 H 0 Z"
         transform="translate(-382.04741,-212.30661)"
         id="path60" />
    </clipPath>
  </defs>
  <g
     inkscape:label="Layer 1"
     inkscape:groupmode="layer"
     id="layer1"
     transform="translate(525.99179,429.15418)">
    <path
       id="path57"
       d="m 0,0 c 0.656,7.137 1.319,14.322 0.75,21.465 -0.284,3.558 -0.872,7.092 -0.914,10.664 -0.06,5.129 -0.246,10.148 0.813,15.155 0.476,2.246 1.058,4.678 2.767,6.091 1.576,1.305 3.721,1.412 5.715,1.464 14.038,0.369 29.327,0.78 43.365,1.149 0.632,0.016 1.287,0.028 1.866,-0.24 0.629,-0.292 1.092,-0.882 1.46,-1.498 2.042,-3.42 1.739,-7.803 1.364,-11.841 -0.532,-5.72 -1.063,-11.441 -1.594,-17.162 -0.28,-3.014 -0.56,-6.042 -0.4,-9.065 C 55.397,12.324 56.316,8.535 56.429,4.673 56.479,2.971 56.307,1.1 55.184,-0.116 54.158,-1.227 52.595,-1.511 51.138,-1.647 46.784,-2.055 42.404,-1.666 38.034,-1.628 26.245,-1.526 14.396,-3.971 2.722,-2.246 c -0.451,0.067 -0.909,0.143 -1.313,0.364 0,0 -1.56,0.236 -1.409,1.882"
       style="fill:#55bf9b;fill-opacity:1;fill-rule:nonzero;stroke:none"
       transform="matrix(0.35277776,0,0,-0.35277776,-525.91581,-409.40037)"
       clip-path="url(#clipPath58)" />
    <path
       id="path59"
       d="m 0,0 c -0.526,0.002 -1.052,-0.002 -1.578,-0.005 -0.463,-0.003 -0.925,-0.005 -1.388,-0.005 -0.241,-10e-4 -0.484,0.003 -0.727,0.008 -0.782,0.014 -1.589,0.027 -2.397,-0.111 -0.434,-0.075 -0.887,-0.286 -1.284,-0.579 -0.523,0.084 -1.135,0.066 -1.356,0.056 -1.805,-0.077 -6.026,-0.424 -9.058,-0.801 -0.111,0.123 -0.229,0.252 -0.351,0.385 -1.034,1.128 -2.45,2.674 -3.286,4.461 -0.74,1.58 -0.929,3.217 -0.482,4.168 0.282,0.601 0.852,1.057 1.565,1.251 0.764,0.207 1.587,0.081 2.201,-0.339 1.233,-0.843 1.713,-2.624 1.751,-4.009 0.013,-0.472 0.047,-1.726 -0.499,-2.133 -0.398,-0.295 -0.658,-0.335 -1.479,0.525 -0.218,0.228 -0.579,0.236 -0.807,0.018 -0.228,-0.218 -0.237,-0.579 -0.019,-0.807 0.521,-0.545 1.604,-1.68 2.986,-0.652 1.023,0.761 0.979,2.386 0.96,3.08 -0.06,2.159 -0.9,3.999 -2.248,4.921 -0.9,0.616 -2.047,0.797 -3.146,0.498 -1.036,-0.283 -1.874,-0.963 -2.299,-1.868 -0.71,-1.512 -0.217,-3.645 0.481,-5.137 0.86,-1.838 2.233,-3.386 3.295,-4.549 -0.635,-0.095 -1.159,-0.189 -1.517,-0.279 -0.614,0.457 -1.732,0.81 -2.896,0.712 -1.032,-0.088 -2.474,-0.563 -3.486,-2.326 -1.093,-1.904 -0.279,-3.578 0.798,-4.674 -0.039,-0.293 -0.054,-0.583 -0.044,-0.869 0.048,-1.259 0.573,-2.377 1.519,-3.234 0.076,-0.069 0.156,-0.136 0.238,-0.198 0.366,-0.279 0.738,-0.436 1.107,-0.469 0.472,-0.042 0.935,0.127 1.238,0.453 0.413,0.444 0.506,1.156 0.242,1.858 -0.435,1.155 -1.486,1.866 -2.526,2.496 -0.072,0.044 -0.278,0.174 -0.531,0.378 0.231,0.877 0.723,1.75 1.417,2.481 0.777,0.818 1.794,1.607 2.61,2.04 1.899,-2.659 1.552,-6.551 1.05,-9.641 -0.825,0.286 -1.72,0.178 -2.324,-0.307 -1.27,-1.018 -1.049,-3.055 -0.904,-4.402 0.013,-0.116 0.025,-0.227 0.035,-0.331 0.138,-1.381 0.394,-2.756 0.641,-4.086 0.048,-0.26 0.097,-0.52 0.144,-0.781 -0.274,-0.579 -0.635,-1.168 -1.014,-1.784 -0.802,-1.305 -1.631,-2.654 -1.75,-4.145 -0.075,-0.941 0.251,-1.805 0.872,-2.312 0.457,-0.372 0.872,-0.493 1.216,-0.493 0.218,0 0.408,0.048 0.564,0.111 1.161,0.469 1.67,2.273 1.777,3.161 0.192,1.598 -0.094,3.182 -0.37,4.715 l -0.08,0.446 c -0.009,0.052 -0.019,0.105 -0.028,0.158 0.009,0.02 0.017,0.041 0.025,0.061 0.826,2.019 1.423,4.287 1.828,6.934 0.048,0.32 0.112,0.684 0.181,1.072 0.143,-0.165 0.285,-0.346 0.432,-0.542 0.888,-1.187 1.697,-2.481 2.42,-3.865 -0.011,-0.154 -0.023,-0.307 -0.034,-0.461 -0.069,-0.923 -0.248,-1.852 -0.439,-2.836 -0.338,-1.749 -0.688,-3.557 -0.372,-5.352 0.312,-1.77 1.158,-2.849 2.263,-2.886 0.55,-0.015 1.038,0.184 1.406,0.585 1.096,1.193 0.819,3.827 0.784,4.124 -0.219,1.835 -0.869,3.547 -1.476,4.979 -0.303,0.714 -0.627,1.41 -0.97,2.085 0.081,1.144 0.155,2.294 0.227,3.413 0.041,0.635 0.082,1.271 0.124,1.906 0.243,3.667 0.172,7.859 -2.161,11.241 2.763,0.319 6.35,0.63 8.249,0.711 0.112,0.005 0.232,0.006 0.354,0.007 -0.272,-0.526 -0.308,-1.077 -0.101,-1.557 0.325,-0.751 1.006,-1.116 1.735,-0.928 0.803,0.207 1.37,1.005 1.291,1.816 -0.041,0.423 -0.281,0.817 -0.694,1.15 0.067,0.022 0.134,0.039 0.198,0.05 0.702,0.12 1.422,0.108 2.184,0.095 0.233,-0.004 0.467,-0.008 0.699,-0.008 0.476,0.002 0.962,0.002 1.442,0.005 0.42,0.002 0.84,0.005 1.26,0.005 -0.03,-0.198 -0.063,-0.386 -0.094,-0.532 l -3.787,-0.035 c -0.315,-0.003 -0.568,-0.26 -0.565,-0.576 l 0.013,-1.438 h -0.391 c -0.315,0 -0.571,-0.255 -0.571,-0.571 0,-0.315 0.256,-0.571 0.571,-0.571 h 0.657 c 0.238,0 0.461,0.094 0.628,0.264 0.166,0.171 0.255,0.396 0.25,0.626 l -0.01,1.129 3.618,0.034 c 0.17,10e-4 0.33,0.078 0.438,0.21 0.074,0.091 0.27,0.332 0.421,1.666 0.003,0.021 0.004,0.043 0.004,0.064 C 0.87,-0.392 0.48,-0.001 0,0 m -23.035,-11.053 c 0.105,-0.28 0.102,-0.558 -0.009,-0.677 -0.062,-0.066 -0.182,-0.105 -0.3,-0.094 -0.151,0.014 -0.326,0.095 -0.518,0.241 -0.056,0.043 -0.11,0.088 -0.163,0.135 -0.707,0.641 -1.09,1.437 -1.14,2.368 0.027,-0.017 0.055,-0.034 0.082,-0.051 0.904,-0.547 1.741,-1.107 2.048,-1.922 m -1.399,6.544 c -0.656,-0.69 -1.161,-1.494 -1.482,-2.33 -0.495,0.709 -0.785,1.66 -0.157,2.753 0.614,1.071 1.487,1.662 2.592,1.757 0.101,0.008 0.201,0.012 0.299,0.012 0.452,0 0.861,-0.086 1.186,-0.196 -0.901,-0.558 -1.813,-1.337 -2.438,-1.996 m 2.611,-23.62 c -0.108,-0.896 -0.589,-2.043 -1.071,-2.238 -0.062,-0.025 -0.251,-0.101 -0.63,0.208 -0.389,0.317 -0.49,0.898 -0.455,1.336 0.097,1.217 0.853,2.448 1.584,3.638 0.12,0.195 0.241,0.392 0.361,0.591 0.2,-1.182 0.349,-2.382 0.211,-3.535 m 1.612,13.709 c -0.088,-0.49 -0.171,-0.954 -0.232,-1.358 -0.28,-1.827 -0.652,-3.463 -1.131,-4.954 -0.173,0.963 -0.332,1.941 -0.428,2.909 -0.011,0.107 -0.023,0.221 -0.036,0.341 -0.119,1.099 -0.299,2.761 0.482,3.388 0.191,0.152 0.432,0.214 0.679,0.214 0.257,0 0.518,-0.067 0.733,-0.168 -0.023,-0.126 -0.045,-0.25 -0.067,-0.372 m 4.863,-6.817 c 0.05,-0.114 0.099,-0.228 0.148,-0.342 0.575,-1.358 1.191,-2.975 1.393,-4.668 0.113,-0.955 0.076,-2.599 -0.491,-3.216 -0.144,-0.157 -0.307,-0.224 -0.527,-0.216 -0.662,0.021 -1.051,1.231 -1.176,1.942 -0.28,1.588 0.05,3.29 0.368,4.937 0.1,0.514 0.201,1.037 0.285,1.563 m -0.56,7.584 c -0.042,-0.636 -0.083,-1.272 -0.124,-1.908 -0.035,-0.541 -0.07,-1.089 -0.106,-1.64 -0.516,0.862 -1.066,1.685 -1.649,2.464 -0.323,0.432 -0.677,0.867 -1.104,1.224 0.529,3.126 1.028,7.496 -0.973,10.621 0.419,0.076 0.976,0.158 1.622,0.243 0.1,-0.118 0.186,-0.226 0.255,-0.321 2.25,-3.12 2.314,-7.151 2.079,-10.683 m 8.931,10.504 c -0.076,-0.02 -0.255,-0.065 -0.402,0.275 -0.072,0.169 -0.046,0.371 0.079,0.601 0.052,0.097 0.12,0.194 0.199,0.287 0.329,-0.185 0.548,-0.399 0.563,-0.563 0.028,-0.28 -0.209,-0.54 -0.439,-0.6"
       style="fill:#ffffff;fill-opacity:1;fill-rule:nonzero;stroke:none"
       transform="matrix(0.35277776,0,0,-0.35277776,-509.46571,-422.66284)"
       clip-path="url(#clipPath60)" />
  </g>
</svg>
