<?xml version="1.0" encoding="UTF-8" standalone="no"?>
<!-- Created with Inkscape (http://www.inkscape.org/) -->

<svg
   width="20.345655mm"
   height="20.764133mm"
   viewBox="0 0 20.345655 20.764133"
   version="1.1"
   id="svg1"
   inkscape:version="1.4 (e7c3feb1, 2024-10-09)"
   sodipodi:docname="VBV.svg"
   xmlns:inkscape="http://www.inkscape.org/namespaces/inkscape"
   xmlns:sodipodi="http://sodipodi.sourceforge.net/DTD/sodipodi-0.dtd"
   xmlns="http://www.w3.org/2000/svg"
   xmlns:svg="http://www.w3.org/2000/svg">
  <sodipodi:namedview
     id="namedview1"
     pagecolor="#ffffff"
     bordercolor="#000000"
     borderopacity="0.25"
     inkscape:showpageshadow="2"
     inkscape:pageopacity="0.0"
     inkscape:pagecheckerboard="0"
     inkscape:deskcolor="#d1d1d1"
     inkscape:document-units="mm"
     inkscape:zoom="2.096401"
     inkscape:cx="-76.082773"
     inkscape:cy="-5.9625998"
     inkscape:window-width="1440"
     inkscape:window-height="872"
     inkscape:window-x="0"
     inkscape:window-y="28"
     inkscape:window-maximized="0"
     inkscape:current-layer="layer1" />
  <defs
     id="defs1">
    <clipPath
       clipPathUnits="userSpaceOnUse"
       id="clipPath46">
      <path
         d="M 0,0 H 960.009 V 540 H 0 Z"
         transform="translate(-335.30581,-447.22351)"
         id="path46" />
    </clipPath>
    <clipPath
       clipPathUnits="userSpaceOnUse"
       id="clipPath48">
      <path
         d="M 0,0 H 960.009 V 540 H 0 Z"
         transform="translate(-366.36111,-395.97531)"
         id="path48" />
    </clipPath>
    <clipPath
       clipPathUnits="userSpaceOnUse"
       id="clipPath46-4">
      <path
         d="M 0,0 H 960.009 V 540 H 0 Z"
         transform="translate(-335.30581,-447.22351)"
         id="path46-1" />
    </clipPath>
    <clipPath
       clipPathUnits="userSpaceOnUse"
       id="clipPath48-8">
      <path
         d="M 0,0 H 960.009 V 540 H 0 Z"
         transform="translate(-366.36111,-395.97531)"
         id="path48-8" />
    </clipPath>
    <clipPath
       clipPathUnits="userSpaceOnUse"
       id="clipPath10">
      <path
         d="M 0,0 H 960.009 V 540 H 0 Z"
         transform="translate(-452.25271,-448.21871)"
         id="path10" />
    </clipPath>
    <clipPath
       clipPathUnits="userSpaceOnUse"
       id="clipPath12">
      <path
         d="M 0,0 H 960.009 V 540 H 0 Z"
         transform="translate(-445.51041,-428.84291)"
         id="path12" />
    </clipPath>
    <clipPath
       clipPathUnits="userSpaceOnUse"
       id="clipPath14">
      <path
         d="M 0,0 H 960.009 V 540 H 0 Z"
         transform="translate(-490.38481,-447.77471)"
         id="path14" />
    </clipPath>
    <clipPath
       clipPathUnits="userSpaceOnUse"
       id="clipPath16">
      <path
         d="M 0,0 H 960.009 V 540 H 0 Z"
         transform="translate(-520.07251,-407.43611)"
         id="path16" />
    </clipPath>
    <clipPath
       clipPathUnits="userSpaceOnUse"
       id="clipPath18">
      <path
         d="M 0,0 H 960.009 V 540 H 0 Z"
         transform="translate(-475.72791,-420.29251)"
         id="path18" />
    </clipPath>
    <clipPath
       clipPathUnits="userSpaceOnUse"
       id="clipPath20">
      <path
         d="M 0,0 H 960.009 V 540 H 0 Z"
         transform="translate(-532.40951,-415.32891)"
         id="path20" />
    </clipPath>
    <clipPath
       clipPathUnits="userSpaceOnUse"
       id="clipPath22">
      <path
         d="M 0,0 H 960.009 V 540 H 0 Z"
         transform="translate(-585.24491,-404.67841)"
         id="path22" />
    </clipPath>
    <clipPath
       clipPathUnits="userSpaceOnUse"
       id="clipPath24">
      <path
         d="M 0,0 H 960.009 V 540 H 0 Z"
         transform="translate(-546.73501,-439.46011)"
         id="path24" />
    </clipPath>
    <clipPath
       clipPathUnits="userSpaceOnUse"
       id="clipPath26">
      <path
         d="M 0,0 H 960.009 V 540 H 0 Z"
         transform="translate(-597.25132,-396.91631)"
         id="path26" />
    </clipPath>
    <clipPath
       clipPathUnits="userSpaceOnUse"
       id="clipPath28">
      <path
         d="M 0,0 H 960.009 V 540 H 0 Z"
         transform="translate(-644.79592,-427.55181)"
         id="path28" />
    </clipPath>
    <clipPath
       clipPathUnits="userSpaceOnUse"
       id="clipPath30">
      <path
         d="M 0,0 H 960.009 V 540 H 0 Z"
         transform="translate(-722.31742,-442.86561)"
         id="path30" />
    </clipPath>
    <clipPath
       clipPathUnits="userSpaceOnUse"
       id="clipPath32">
      <path
         d="M 0,0 H 960.009 V 540 H 0 Z"
         transform="translate(-713.80762,-411.31901)"
         id="path32" />
    </clipPath>
    <clipPath
       clipPathUnits="userSpaceOnUse"
       id="clipPath34">
      <path
         d="M 0,0 H 960.009 V 540 H 0 Z"
         transform="translate(-711.27122,-406.75661)"
         id="path34" />
    </clipPath>
  </defs>
  <g
     inkscape:label="Layer 1"
     inkscape:groupmode="layer"
     id="layer1"
     transform="translate(518.5834,431.53542)">
    <path
       id="path29"
       d="M 0,0 C 0.277,1.846 0.331,4.201 -1.228,5.056 -1.631,5.278 -2.09,5.353 -2.54,5.42 -14.214,7.145 -26.064,4.7 -37.853,4.802 c -4.37,0.038 -8.749,0.427 -13.104,0.019 -1.456,-0.136 -3.02,-0.42 -4.046,-1.531 -1.123,-1.216 -1.295,-3.087 -1.245,-4.789 0.113,-3.862 1.032,-7.651 1.237,-11.509 0.16,-3.023 -0.12,-6.051 -0.4,-9.065 -0.531,-5.721 -1.062,-11.442 -1.593,-17.162 -0.375,-4.038 -0.678,-8.421 1.363,-11.841 0.368,-0.616 0.831,-1.206 1.46,-1.498 0.579,-0.268 1.234,-0.256 1.866,-0.24 14.038,0.369 29.328,0.781 43.366,1.149 1.993,0.052 4.138,0.16 5.715,1.464 1.709,1.413 2.291,3.845 2.766,6.091 1.06,5.007 0.874,10.026 0.813,15.155 -0.042,3.572 -0.63,7.106 -0.914,10.664 -0.569,7.143 0.091,14.328 0.75,21.465"
       style="fill:#55bf9b;fill-opacity:1;fill-rule:nonzero;stroke:none"
       transform="matrix(0.35277776,0,0,-0.35277776,-498.37781,-429.40538)"
       clip-path="url(#clipPath30)" />
    <path
       id="path31"
       d="M 0,0 C -0.561,0 -1.116,0.145 -1.618,0.429 -2.383,0.862 -2.934,1.568 -3.17,2.416 -3.655,4.166 -2.625,5.985 -0.875,6.47 0.876,6.956 2.695,5.926 3.18,4.176 3.665,2.425 2.635,0.606 0.885,0.121 0.593,0.04 0.295,0 0,0 M 0.005,5.448 C -0.185,5.448 -0.378,5.423 -0.57,5.37 -1.713,5.053 -2.386,3.865 -2.069,2.721 -1.915,2.167 -1.555,1.706 -1.055,1.423 -0.555,1.14 0.026,1.068 0.58,1.222 1.724,1.539 2.396,2.727 2.079,3.87 1.815,4.823 0.948,5.448 0.005,5.448"
       style="fill:#ffffff;fill-opacity:1;fill-rule:nonzero;stroke:none"
       transform="matrix(0.35277776,0,0,-0.35277776,-501.37987,-418.27644)"
       clip-path="url(#clipPath32)" />
    <path
       id="path33"
       d="m 0,0 h -0.032 c -2.296,0.01 -4.405,0.771 -6.251,2.235 -7.207,0.562 -13.613,3.27 -19.198,6.373 -0.662,-0.145 -1.316,-0.148 -1.846,-0.129 -4.889,0.175 -9.52,2.863 -12.086,7.016 -0.796,1.288 -1.227,2.465 -1.316,3.598 -0.049,0.633 0.03,1.148 0.244,1.576 0.308,0.615 0.903,1.008 1.521,1.008 0.008,0 0.016,0 0.024,0 1.108,-0.018 1.673,-1.106 2.086,-1.901 0.097,-0.187 0.188,-0.364 0.271,-0.495 0.588,-0.938 1.276,-1.85 2.043,-2.713 1.475,-1.659 3.237,-3.13 5.234,-4.371 1.397,-0.868 2.725,-1.651 3.991,-2.358 0.026,0.01 0.052,0.019 0.078,0.029 0.626,0.239 1.103,0.685 1.276,1.194 0.057,0.167 0.084,0.347 0.083,0.535 -2.035,0.672 -4.033,1.502 -5.836,2.768 -1.94,1.363 -3.457,3.078 -4.387,4.959 -0.701,1.416 -0.993,2.78 -0.87,4.052 0.074,0.773 0.344,1.328 0.803,1.651 0.768,0.541 1.798,0.235 2.378,-0.328 0.486,-0.471 0.741,-1.087 0.966,-1.63 l 0.053,-0.127 c 1.171,-2.807 2.935,-5.268 5.101,-7.115 0.145,-0.124 0.292,-0.246 0.44,-0.367 0.586,-0.484 1.192,-0.984 1.675,-1.626 0.325,-0.432 0.557,-0.897 0.689,-1.363 0.836,-0.263 1.678,-0.504 2.512,-0.743 l 0.609,-0.175 c 2.152,-0.62 4.438,-1.195 6.655,-0.833 1.96,0.32 3.294,1.216 4.607,3.09 0.892,1.274 1.831,1.94 2.869,2.036 0.888,0.083 1.924,-0.288 2.702,-0.967 0.701,-0.612 1.107,-1.395 1.143,-2.205 0.063,-1.453 -0.795,-3.031 -2.295,-4.222 -0.485,-0.385 -1.621,-1.288 -2.728,-0.959 -1.191,0.353 -1.256,1.643 -1.295,2.414 -0.004,0.082 -0.008,0.162 -0.013,0.238 -0.021,0.314 0.217,0.587 0.532,0.607 0.313,0.019 0.587,-0.217 0.608,-0.532 0.005,-0.081 0.01,-0.167 0.014,-0.256 0.043,-0.849 0.125,-1.271 0.479,-1.376 0.537,-0.16 1.377,0.508 1.693,0.759 0.937,0.744 1.919,1.996 1.864,3.277 -0.022,0.495 -0.289,0.99 -0.753,1.395 -0.542,0.473 -1.267,0.745 -1.846,0.69 -0.684,-0.064 -1.35,-0.572 -2.039,-1.555 -1.489,-2.125 -3.091,-3.19 -5.358,-3.561 -2.45,-0.401 -4.878,0.206 -7.155,0.863 l -0.607,0.174 c -0.693,0.199 -1.391,0.399 -2.089,0.611 -0.022,-0.187 -0.062,-0.371 -0.122,-0.547 -0.207,-0.607 -0.636,-1.136 -1.219,-1.52 7.235,-3.881 12.367,-5.205 16.442,-5.668 -0.746,0.797 -1.438,1.725 -2.071,2.782 -0.162,0.271 -0.073,0.622 0.197,0.784 0.271,0.161 0.621,0.074 0.784,-0.197 0.866,-1.449 1.83,-2.626 2.888,-3.528 0.271,-0.017 0.538,-0.031 0.801,-0.043 0.598,-0.027 1.205,-0.037 1.804,-0.038 0.18,0 0.36,0.002 0.541,0.004 1.093,0.009 2.223,0.019 3.334,-0.234 C 1.472,2.841 2.006,2.401 2.126,1.794 2.241,1.21 1.914,0.582 1.33,0.267 0.9,0.035 0.437,0 0,0 m -4.071,2.13 c 1.245,-0.651 2.594,-0.982 4.043,-0.988 0.296,-0.002 0.6,0.014 0.816,0.13 0.141,0.076 0.233,0.224 0.217,0.3 C 0.985,1.675 0.777,1.829 0.367,1.922 -0.613,2.146 -1.628,2.136 -2.702,2.127 -2.885,2.126 -3.068,2.124 -3.25,2.124 -3.524,2.122 -3.797,2.125 -4.071,2.13 m -34.893,18.405 c -0.18,0 -0.39,-0.158 -0.5,-0.378 -0.118,-0.236 -0.159,-0.554 -0.126,-0.974 0.074,-0.948 0.45,-1.958 1.148,-3.088 2.333,-3.774 6.711,-6.316 11.156,-6.474 0.012,-0.001 0.023,-0.001 0.035,-0.002 -0.909,0.533 -1.795,1.071 -2.657,1.608 -2.092,1.299 -3.937,2.841 -5.486,4.582 -0.809,0.91 -1.534,1.873 -2.156,2.864 -0.108,0.171 -0.21,0.368 -0.318,0.577 -0.296,0.569 -0.664,1.278 -1.091,1.285 z m 5.718,3.634 c -0.098,0 -0.19,-0.023 -0.264,-0.075 -0.217,-0.153 -0.296,-0.535 -0.324,-0.828 -0.103,-1.057 0.152,-2.213 0.757,-3.436 0.845,-1.711 2.235,-3.277 4.019,-4.53 1.449,-1.017 3.058,-1.744 4.72,-2.337 -0.04,0.061 -0.083,0.123 -0.129,0.184 -0.402,0.534 -0.931,0.97 -1.49,1.432 -0.152,0.126 -0.304,0.251 -0.454,0.379 -2.302,1.963 -4.174,4.572 -5.414,7.544 l -0.054,0.13 c -0.201,0.483 -0.39,0.941 -0.706,1.248 -0.174,0.168 -0.436,0.289 -0.661,0.289"
       style="fill:#ffffff;fill-opacity:1;fill-rule:nonzero;stroke:none"
       transform="matrix(0.35277776,0,0,-0.35277776,-502.27466,-416.66693)"
       clip-path="url(#clipPath34)" />
  </g>
</svg>
