<?xml version="1.0" encoding="UTF-8" standalone="no"?>
<!-- Created with Inkscape (http://www.inkscape.org/) -->

<svg
   width="820"
   height="100"
   viewBox="0 0 82 10"
   version="1.1"
   id="svg5"
   xml:space="preserve"
   inkscape:version="1.2.1 (9c6d41e, 2022-07-14)"
   sodipodi:docname="op.svg"
   xmlns:inkscape="http://www.inkscape.org/namespaces/inkscape"
   xmlns:sodipodi="http://sodipodi.sourceforge.net/DTD/sodipodi-0.dtd"
   xmlns="http://www.w3.org/2000/svg"
   xmlns:svg="http://www.w3.org/2000/svg"><sodipodi:namedview
     id="namedview7"
     pagecolor="#ffffff"
     bordercolor="#000000"
     borderopacity="0.25"
     inkscape:showpageshadow="2"
     inkscape:pageopacity="0.0"
     inkscape:pagecheckerboard="0"
     inkscape:deskcolor="#d1d1d1"
     inkscape:document-units="mm"
     showgrid="false"
     inkscape:zoom="1.4928528"
     inkscape:cx="395.88632"
     inkscape:cy="21.10054"
     inkscape:window-width="1878"
     inkscape:window-height="1205"
     inkscape:window-x="230"
     inkscape:window-y="73"
     inkscape:window-maximized="0"
     inkscape:current-layer="layer1" /><defs
     id="defs2"><clipPath
       id="clip0_4183_17897"><rect
         width="298.65201"
         height="32"
         fill="#ffffff"
         id="rect206"
         x="0"
         y="0" /></clipPath></defs><g
     inkscape:label="Layer 1"
     inkscape:groupmode="layer"
     id="layer1"
     transform="translate(-51.586355,-145.85722)"><g
       style="fill:none"
       id="g229"
       transform="matrix(0.26458333,0,0,0.26458333,53.100154,146.65002)"><g
         clip-path="url(#clip0_4183_17897)"
         id="g204"><path
           d="M 70.831,0 H 70.2906 V 32 H 70.831 Z"
           fill="#231f20"
           id="path182" /><path
           d="m 249.585,0 h -0.541 v 32 h 0.541 z"
           fill="#231f20"
           id="path184" /><path
           d="m 37.9936,12.6465 c 3.7345,0 6.8259,2.7509 7.3663,6.3395 0.4918,0.1621 1.0052,0.2702 1.5349,0.3296 -0.4,-4.5722 -4.2317,-8.1553 -8.9012,-8.1553 -0.2594,0 -0.5188,0.0108 -0.7729,0.0324 0.0163,0.2324 0.0271,0.4702 0.0271,0.7134 0,0.2648 -0.0108,0.5296 -0.0325,0.7836 0.254,-0.027 0.5135,-0.0432 0.7783,-0.0432 z m 7.4312,7.9068 c -0.2378,3.902 -3.4751,6.988 -7.4312,6.988 -3.9561,0 -7.4474,-3.3346 -7.4474,-7.4474 0,-3.3022 2.151,-6.1071 5.1289,-7.0799 0.054,-0.3621 0.081,-0.735 0.081,-1.1133 0,-0.1567 -0.0054,-0.3081 -0.0108,-0.4594 -3.848,0.9998 -6.6907,4.4911 -6.6907,8.6526 0,4.9343 3.9993,8.939 8.939,8.939 4.9397,0 8.5445,-3.621 8.9066,-8.2256 -0.5026,-0.0433 -0.9998,-0.1297 -1.4754,-0.254 z"
           fill="#00a651"
           id="path186" /><path
           d="m 17.8402,12.6843 c 0.0216,-0.2594 0.0325,-0.5188 0.0325,-0.7836 0,-0.2378 -0.0109,-0.4756 -0.0271,-0.7134 0.254,-0.0216 0.5135,-0.0324 0.7729,-0.0324 4.6695,0 8.5066,3.5831 8.9066,8.1553 -0.5351,-0.0594 -1.0485,-0.1675 -1.5403,-0.3296 -0.535,-3.5886 -3.6318,-6.3395 -7.3663,-6.3395 -0.2648,0 -0.5243,0.0162 -0.7783,0.0432 z m 9.6903,8.123 c -0.3621,4.6046 -4.2101,8.2256 -8.9066,8.2256 -4.9397,0 -8.93905,-4.0047 -8.93905,-8.939 0,-4.1615 2.84275,-7.6582 6.69075,-8.6526 0.0054,0.1513 0.0108,0.3027 0.0108,0.4594 0,0.3783 -0.027,0.7512 -0.081,1.1133 -2.9779,0.9728 -5.1289,3.7777 -5.1289,7.0799 0,4.1128 3.3292,7.4474 7.4474,7.4474 4.1182,0 7.1988,-3.0914 7.4312,-6.988 0.4756,0.1243 0.9728,0.2107 1.4754,0.254 z"
           fill="#ffb114"
           id="path188" /><path
           d="m 56.6121,11.9007 c 0,4.9343 -3.9994,8.939 -8.9391,8.939 -4.6749,0 -8.5066,-3.5832 -8.9066,-8.1554 0.5351,0.0541 1.0485,0.1676 1.5403,0.3297 0.5351,3.5832 3.6264,6.3395 7.3663,6.3395 4.1128,0 7.4474,-3.3346 7.4474,-7.4474 0,-4.11283 -3.3346,-7.4474 -7.4474,-7.4474 -4.1128,0 -7.1988,3.09137 -7.4311,6.988 -0.481,-0.1243 -0.9729,-0.2108 -1.4809,-0.254 0.3675,-4.60463 4.2155,-8.22564 8.912,-8.22564 4.9397,0 8.9391,4.00473 8.9391,8.93904"
           fill="#f0282d"
           id="path190" /><path
           d="m 28.3033,2.96165 c -4.6965,0 -8.5445,3.62101 -8.9066,8.22565 0.508,0.0432 0.9945,0.1297 1.4755,0.254 0.2323,-3.90204 3.475,-6.98801 7.4311,-6.98801 3.9561,0 7.4528,3.33457 7.4528,7.45281 0,3.3021 -2.151,6.1071 -5.1288,7.0853 -0.0541,0.3621 -0.0811,0.735 -0.0811,1.1079 0,0.1567 0,0.3081 0.0108,0.4594 3.848,-0.9999 6.6908,-4.4966 6.6908,-8.6526 0,-4.93972 -3.9994,-8.93904 -8.9391,-8.93904 M 28.3033,19.3535 c -3.7345,0 -6.8312,-2.7509 -7.3663,-6.3395 -0.4918,-0.1621 -1.0052,-0.2702 -1.5403,-0.3297 0.4,4.5668 4.2317,8.1554 8.9066,8.1554 0.2594,0 0.5189,-0.0108 0.7729,-0.0324 -0.0162,-0.2324 -0.0271,-0.4702 -0.0271,-0.7134 0,-0.2648 0.0163,-0.5242 0.0379,-0.7837 -0.2594,0.0271 -0.5189,0.0379 -0.7837,0.0379"
           fill="#000000"
           id="path192" /><path
           d="M 17.8781,11.9007 C 17.8781,6.96638 13.8787,2.96165 8.93903,2.96165 3.99933,2.96165 0,6.96638 0,11.9007 c 0,4.9343 3.99933,8.939 8.93903,8.939 0.25942,0 0.51883,-0.0108 0.77284,-0.0324 -0.01621,-0.2324 -0.02702,-0.4702 -0.02702,-0.7134 0,-0.2648 0.01081,-0.5242 0.03243,-0.7837 -0.25401,0.0271 -0.51883,0.0379 -0.77825,0.0379 -4.11282,0 -7.44739,-3.3346 -7.44739,-7.4474 0,-4.11284 3.33457,-7.44741 7.44739,-7.44741 4.11287,0 7.44737,3.33457 7.44737,7.44741 0,3.3021 -2.151,6.1071 -5.1288,7.0853 -0.0541,0.3621 -0.0811,0.735 -0.0811,1.1079 0,0.1567 0,0.308 0.0108,0.4594 3.848,-0.9999 6.6908,-4.4966 6.6908,-8.6526 z"
           fill="#0078d0"
           id="path194" /><path
           d="M 95.7423,17.0562 C 95.4096,16.6929 95.0114,16.3909 94.5474,16.1546 94.0835,15.9182 93.567,15.7607 92.9981,15.6775 v -0.0481 c 0.8928,-0.2758 1.6106,-0.7353 2.1577,-1.3787 0.5427,-0.6434 0.8184,-1.4487 0.8184,-2.4247 0,-0.976 -0.1882,-1.6982 -0.5602,-2.26717 C 95.042,8.98985 94.5518,8.5478 93.9522,8.23268 93.3526,7.91755 92.6742,7.70309 91.917,7.59805 91.1598,7.49301 90.4114,7.44049 89.663,7.44049 H 83.2292 V 24.6979 h 7.0684 c 0.7616,0 1.5319,-0.0831 2.3022,-0.2451 0.7703,-0.1619 1.4662,-0.4289 2.0833,-0.8053 0.6171,-0.372 1.1204,-0.8666 1.51,-1.4749 0.3895,-0.6084 0.5864,-1.3699 0.5864,-2.2803 0,-0.5515 -0.0875,-1.0723 -0.2669,-1.5581 -0.1795,-0.4858 -0.4333,-0.9148 -0.766,-1.278 z m -8.7097,-6.3988 h 2.5822 c 0.2933,0 0.5909,0.0262 0.9016,0.0831 0.3064,0.0569 0.5865,0.1489 0.8273,0.2802 0.245,0.1313 0.442,0.3151 0.5952,0.547 0.1532,0.2364 0.232,0.534 0.232,0.8885 0,0.3545 -0.0701,0.6347 -0.2058,0.8754 -0.14,0.2451 -0.3195,0.4376 -0.547,0.5865 -0.2276,0.1444 -0.4815,0.2538 -0.766,0.3151 -0.2845,0.0656 -0.5733,0.0963 -0.8666,0.0963 h -2.7529 v -3.6809 z m 5.716,9.7513 c -0.1532,0.2583 -0.3545,0.4727 -0.5953,0.6347 -0.2451,0.1619 -0.5164,0.2757 -0.8184,0.3414 -0.302,0.0656 -0.5952,0.0962 -0.8885,0.0962 h -3.4138 v -3.9259 h 2.8755 c 0.3064,0 0.6434,0.0263 0.9979,0.0744 0.3589,0.0482 0.6915,0.1401 0.9979,0.267 0.3063,0.1313 0.5646,0.3195 0.7659,0.5734 0.2013,0.2538 0.3064,0.5821 0.3064,0.9891 0,0.372 -0.0788,0.6915 -0.232,0.9497 z m 13.4674,-7.8255 c 0.21,0.0175 0.407,0.0481 0.586,0.0962 v 3.3395 c -0.258,-0.0832 -0.516,-0.1401 -0.766,-0.1838 -0.254,-0.0394 -0.516,-0.0613 -0.792,-0.0613 -0.7,0 -1.252,0.0963 -1.659,0.2932 -0.407,0.197 -0.717,0.4683 -0.936,0.8185 -0.219,0.3501 -0.364,0.7659 -0.425,1.2561 -0.065,0.4858 -0.096,1.0242 -0.096,1.6063 v 4.9457 H 98.4733 V 12.8545 h 3.6547 v 1.8995 h 0.048 c 0.39,-0.7309 0.854,-1.278 1.387,-1.6456 0.539,-0.3633 1.208,-0.5471 2.023,-0.5471 0.21,0 0.424,0.0087 0.634,0.0262 z m 1.877,0.2713 h 3.655 v 11.8434 h -3.655 z m 3.327,-5.23019 c 0.416,0.41579 0.621,0.91474 0.621,1.49685 0,0.5821 -0.205,1.08544 -0.621,1.49684 -0.416,0.4158 -0.915,0.6215 -1.497,0.6215 -0.582,0 -1.086,-0.2057 -1.501,-0.6215 -0.416,-0.4158 -0.622,-0.91474 -0.622,-1.49684 0,-0.58211 0.206,-1.08543 0.622,-1.49685 0.415,-0.41579 0.914,-0.62149 1.501,-0.62149 0.586,0 1.085,0.2057 1.497,0.62149 z m 11.572,11.67279 c 0.302,0.4464 0.451,1.046 0.451,1.79 0,0.7441 -0.167,1.3918 -0.499,1.8908 -0.333,0.4946 -0.762,0.8928 -1.278,1.1948 -0.521,0.302 -1.103,0.5121 -1.755,0.6347 -0.653,0.1225 -1.292,0.1838 -1.926,0.1838 -0.827,0 -1.668,-0.1182 -2.512,-0.3545 -0.845,-0.2364 -1.559,-0.6522 -2.145,-1.2562 l 2.219,-2.4597 c 0.341,0.4246 0.718,0.7441 1.134,0.9629 0.415,0.2188 0.897,0.3283 1.448,0.3283 0.42,0 0.806,-0.0613 1.147,-0.1839 0.341,-0.1225 0.512,-0.3457 0.512,-0.6696 0,-0.3239 -0.149,-0.5383 -0.451,-0.6959 -0.302,-0.1532 -0.683,-0.2845 -1.146,-0.3895 -0.464,-0.1051 -0.959,-0.2189 -1.489,-0.3414 -0.529,-0.1226 -1.024,-0.3064 -1.488,-0.5471 -0.464,-0.2407 -0.844,-0.5909 -1.146,-1.0373 -0.302,-0.4464 -0.451,-1.046 -0.451,-1.7901 0,-0.7003 0.14,-1.2999 0.424,-1.8032 0.285,-0.5033 0.657,-0.9191 1.121,-1.243 0.464,-0.3239 0.993,-0.5646 1.597,-0.7178 0.6,-0.1532 1.208,-0.2319 1.83,-0.2319 0.779,0 1.567,0.1138 2.363,0.3414 0.797,0.2275 1.471,0.6346 2.022,1.2167 l -2.241,2.219 c -0.538,-0.6653 -1.243,-0.9979 -2.118,-0.9979 -0.311,0 -0.608,0.0744 -0.902,0.2188 -0.293,0.1445 -0.437,0.3983 -0.437,0.7572 0,0.2932 0.149,0.5077 0.451,0.6478 0.302,0.14 0.682,0.2582 1.146,0.3632 0.464,0.1051 0.959,0.2189 1.488,0.3414 0.53,0.1226 1.025,0.3151 1.488,0.5734 0.464,0.2582 0.845,0.6127 1.147,1.0591 z m 13.625,-4.8101 c -0.464,-0.5865 -1.029,-1.0504 -1.694,-1.4005 -0.666,-0.3502 -1.423,-0.5252 -2.267,-0.5252 -0.766,0 -1.475,0.1181 -2.132,0.3545 -0.656,0.2363 -1.199,0.639 -1.619,1.208 h -0.048 V 6.2719 h -3.655 v 18.426 h 3.366 v -1.5581 h 0.048 c 0.144,0.2101 0.337,0.4246 0.573,0.6478 0.237,0.2188 0.512,0.4202 0.827,0.5952 0.316,0.1795 0.661,0.3239 1.038,0.4377 0.372,0.1138 0.77,0.1707 1.195,0.1707 0.875,0 1.671,-0.1488 2.389,-0.4508 0.714,-0.302 1.326,-0.7222 1.839,-1.2693 0.512,-0.5427 0.905,-1.1904 1.181,-1.9389 0.276,-0.7484 0.416,-1.5668 0.416,-2.4597 0,-0.8272 -0.127,-1.6194 -0.376,-2.3766 -0.254,-0.7571 -0.609,-1.4268 -1.073,-2.0089 z m -2.972,6.4557 c -0.512,0.5515 -1.23,0.8272 -2.158,0.8272 -0.928,0 -1.646,-0.2757 -2.158,-0.8272 -0.512,-0.5515 -0.766,-1.2736 -0.766,-2.1709 0,-0.8972 0.254,-1.615 0.766,-2.1708 0.512,-0.5515 1.23,-0.8272 2.158,-0.8272 0.928,0 1.646,0.2757 2.158,0.8272 0.512,0.5515 0.766,1.278 0.766,2.1708 0,0.8929 -0.254,1.6151 -0.766,2.1709 z m 15.703,-6.7971 c -0.415,-0.5208 -0.967,-0.9147 -1.658,-1.1817 -0.692,-0.267 -1.572,-0.4026 -2.644,-0.4026 -0.976,0 -1.917,0.1575 -2.827,0.477 -0.911,0.3152 -1.707,0.7922 -2.39,1.4268 l 1.948,2.0002 c 0.389,-0.4377 0.831,-0.7834 1.33,-1.0373 0.495,-0.2494 1.046,-0.3764 1.646,-0.3764 0.635,0 1.182,0.1926 1.646,0.5734 0.463,0.3808 0.695,0.8972 0.695,1.5493 -0.503,0 -1.05,0.0088 -1.645,0.0263 -0.595,0.0175 -1.186,0.0657 -1.782,0.1444 -0.595,0.0832 -1.164,0.2057 -1.72,0.3764 -0.551,0.1707 -1.046,0.4114 -1.475,0.7178 -0.428,0.3108 -0.77,0.7003 -1.024,1.1686 -0.254,0.4727 -0.376,1.046 -0.376,1.7288 0,0.5996 0.114,1.1292 0.341,1.5844 0.228,0.4552 0.539,0.8359 0.928,1.1467 0.39,0.3107 0.84,0.5383 1.353,0.6959 0.512,0.1532 1.046,0.232 1.597,0.232 0.748,0 1.458,-0.1401 2.132,-0.4158 0.674,-0.2758 1.212,-0.7309 1.619,-1.3656 h 0.048 v 1.4881 h 3.361 v -6.018 c 0,-0.9891 -0.083,-1.8645 -0.245,-2.6216 -0.162,-0.7572 -0.45,-1.3918 -0.866,-1.9127 z m -2.254,6.1406 c 0,0.372 -0.078,0.7003 -0.232,0.976 -0.153,0.2757 -0.363,0.5033 -0.621,0.6828 -0.258,0.1794 -0.556,0.3151 -0.888,0.4158 -0.333,0.0963 -0.679,0.1444 -1.038,0.1444 -0.407,0 -0.796,-0.105 -1.168,-0.3151 -0.372,-0.2101 -0.561,-0.534 -0.561,-0.976 0,-0.4071 0.136,-0.7222 0.403,-0.9498 0.267,-0.2276 0.591,-0.3983 0.976,-0.5121 0.381,-0.1138 0.779,-0.1838 1.195,-0.2057 0.416,-0.0262 0.761,-0.035 1.037,-0.035 h 0.902 v 0.7791 z m 16.737,-4.3373 c 0.114,0.6827 0.171,1.4224 0.171,2.219 v 6.53 h -3.655 v -5.7991 c 0,-0.3414 -0.013,-0.6959 -0.035,-1.0592 -0.026,-0.3676 -0.096,-0.7046 -0.219,-1.011 -0.122,-0.3064 -0.31,-0.5602 -0.56,-0.7572 -0.254,-0.1969 -0.613,-0.2932 -1.085,-0.2932 -0.473,0 -0.854,0.0875 -1.147,0.2538 -0.293,0.1707 -0.516,0.3983 -0.67,0.6828 -0.153,0.2845 -0.253,0.604 -0.306,0.9629 -0.048,0.3589 -0.074,0.7309 -0.074,1.1204 v 5.8998 h -3.655 V 12.8545 h 3.51 v 1.6106 h 0.048 c 0.114,-0.2275 0.276,-0.4551 0.486,-0.6827 0.21,-0.2276 0.464,-0.4289 0.757,-0.6084 0.294,-0.1794 0.626,-0.3239 0.998,-0.4377 0.372,-0.1138 0.779,-0.1707 1.217,-0.1707 0.928,0 1.672,0.1445 2.241,0.4246 0.569,0.2845 1.011,0.6784 1.33,1.1817 0.315,0.5033 0.534,1.0986 0.648,1.7813 z m 12.518,-1.6938 c -0.482,-0.5428 -1.064,-0.9629 -1.756,-1.2562 -0.691,-0.2932 -1.457,-0.4376 -2.302,-0.4376 -0.91,0 -1.768,0.1444 -2.573,0.4376 -0.806,0.2933 -1.501,0.7091 -2.097,1.2562 -0.595,0.5427 -1.059,1.1992 -1.4,1.9607 -0.342,0.766 -0.512,1.6151 -0.512,2.5604 0,0.9454 0.17,1.7945 0.512,2.5604 0.341,0.7659 0.809,1.4181 1.4,1.9608 0.591,0.5427 1.291,0.9629 2.097,1.2561 0.805,0.2933 1.663,0.4377 2.573,0.4377 0.959,0 1.887,-0.2013 2.78,-0.6084 0.892,-0.407 1.632,-0.9847 2.219,-1.7288 l -2.561,-1.8776 c -0.311,0.4245 -0.67,0.7659 -1.085,1.0373 -0.416,0.267 -0.924,0.4026 -1.523,0.4026 -0.714,0 -1.318,-0.2057 -1.804,-0.6215 -0.485,-0.4157 -0.805,-0.9716 -0.949,-1.6675 h 8.482 v -1.1467 c 0,-0.941 -0.132,-1.7945 -0.39,-2.5604 -0.258,-0.7615 -0.63,-1.418 -1.107,-1.9608 z m -6.981,3.1818 c 0.017,-0.2932 0.083,-0.5733 0.205,-0.8403 0.123,-0.267 0.294,-0.5033 0.512,-0.7046 0.219,-0.2014 0.482,-0.3677 0.793,-0.499 0.306,-0.1313 0.665,-0.1969 1.072,-0.1969 0.665,0 1.212,0.2188 1.632,0.6565 0.421,0.4376 0.626,0.9672 0.609,1.5843 h -4.828 z m 18.588,4.0441 h 7.655 v 3.2169 H 183.57 v -3.8734 l 6.701,-6.018 c 0.341,-0.3063 0.683,-0.6565 1.024,-1.046 0.341,-0.3895 0.512,-0.8447 0.512,-1.3655 0,-0.5865 -0.21,-1.0417 -0.634,-1.3787 -0.425,-0.3327 -0.92,-0.499 -1.489,-0.499 -0.682,0 -1.216,0.2101 -1.597,0.6347 -0.381,0.4245 -0.595,0.941 -0.648,1.5581 l -3.654,-0.267 c 0.048,-0.8929 0.236,-1.6675 0.56,-2.3284 0.324,-0.65654 0.757,-1.208 1.291,-1.64568 0.534,-0.43767 1.164,-0.76593 1.891,-0.98914 0.722,-0.21884 1.505,-0.32825 2.35,-0.32825 0.779,0 1.51,0.10941 2.193,0.32825 0.683,0.21884 1.273,0.54272 1.777,0.97601 0.503,0.42892 0.897,0.97164 1.181,1.61941 0.285,0.6521 0.425,1.4049 0.425,2.2671 0,0.5515 -0.057,1.0504 -0.171,1.4969 -0.114,0.4464 -0.271,0.8534 -0.477,1.2167 -0.201,0.3633 -0.442,0.7047 -0.718,1.011 -0.275,0.3108 -0.577,0.6084 -0.901,0.9016 l -5.239,4.5081 z M 208.561,10.0753 C 208.08,9.21307 207.428,8.51279 206.6,7.9657 c -0.827,-0.54272 -1.886,-0.81845 -3.168,-0.81845 -1.283,0 -2.342,0.27136 -3.169,0.81845 -0.827,0.54271 -1.484,1.24737 -1.961,2.1096 -0.481,0.8622 -0.814,1.8207 -0.998,2.8755 -0.188,1.0548 -0.28,2.0965 -0.28,3.1206 0,1.0242 0.092,2.0658 0.28,3.1206 0.189,1.0548 0.521,2.0133 0.998,2.8755 0.477,0.8622 1.134,1.5625 1.961,2.1096 0.827,0.5427 1.886,0.8185 3.169,0.8185 1.282,0 2.341,-0.2714 3.168,-0.8185 0.828,-0.5427 1.484,-1.2474 1.961,-2.1096 0.477,-0.8622 0.814,-1.8207 0.998,-2.8755 0.188,-1.0548 0.28,-2.0964 0.28,-3.1206 0,-1.0241 -0.092,-2.0614 -0.28,-3.1206 -0.188,-1.0548 -0.521,-2.0133 -0.998,-2.8755 z m -2.438,7.6286 c -0.039,0.6347 -0.148,1.243 -0.328,1.8295 -0.179,0.5865 -0.455,1.0811 -0.827,1.4881 -0.372,0.407 -0.884,0.6084 -1.536,0.6084 -0.652,0 -1.182,-0.2014 -1.55,-0.6084 -0.367,-0.407 -0.639,-0.9016 -0.818,-1.4881 -0.18,-0.5865 -0.289,-1.1948 -0.328,-1.8295 -0.04,-0.6346 -0.062,-1.1773 -0.062,-1.6325 0,-0.4552 0.022,-0.9979 0.062,-1.6325 0.039,-0.6346 0.148,-1.243 0.328,-1.8295 0.179,-0.5865 0.451,-1.081 0.818,-1.4881 0.368,-0.407 0.88,-0.6083 1.55,-0.6083 0.669,0 1.16,0.2013 1.536,0.6083 0.372,0.4071 0.648,0.9016 0.827,1.4881 0.18,0.5865 0.289,1.1949 0.328,1.8295 0.04,0.6346 0.062,1.1773 0.062,1.6325 0,0.4552 -0.022,0.9979 -0.062,1.6325 z m 16.733,0.6828 c 0.144,0.4552 0.219,0.9366 0.219,1.4399 0,0.8623 -0.167,1.6151 -0.499,2.2672 -0.333,0.6521 -0.779,1.1905 -1.34,1.6194 -0.56,0.4289 -1.216,0.7528 -1.974,0.9629 -0.757,0.21 -1.558,0.3151 -2.402,0.3151 -1.545,0 -2.872,-0.3589 -3.983,-1.0723 -1.112,-0.7134 -1.847,-1.8426 -2.206,-3.3876 l 3.851,-0.9016 c 0.132,0.6171 0.394,1.1073 0.793,1.4618 0.398,0.3589 0.989,0.5384 1.768,0.5384 0.779,0 1.383,-0.2058 1.768,-0.6215 0.381,-0.4158 0.573,-0.9454 0.573,-1.5975 0,-0.4859 -0.1,-0.8666 -0.306,-1.1336 -0.201,-0.267 -0.468,-0.4683 -0.792,-0.5953 -0.324,-0.1313 -0.692,-0.2057 -1.099,-0.2319 -0.407,-0.0263 -0.814,-0.035 -1.217,-0.035 h -0.853 v -3.1688 h 1.195 c 0.341,0 0.674,-0.0263 0.998,-0.0744 0.324,-0.0481 0.621,-0.1401 0.888,-0.2801 0.267,-0.1401 0.482,-0.3326 0.648,-0.5865 0.162,-0.2495 0.245,-0.5821 0.245,-0.9891 0,-0.5209 -0.206,-0.9498 -0.621,-1.2912 -0.416,-0.3414 -0.924,-0.512 -1.524,-0.512 -0.569,0 -1.041,0.1531 -1.413,0.4639 -0.372,0.3107 -0.617,0.6915 -0.731,1.1467 l -4.022,-0.8272 c 0.197,-0.7484 0.485,-1.38306 0.875,-1.91264 0.39,-0.52959 0.853,-0.95413 1.387,-1.27801 0.539,-0.32387 1.134,-0.56459 1.791,-0.71778 0.656,-0.15319 1.352,-0.23197 2.083,-0.23197 0.731,0 1.501,0.09191 2.206,0.28011 0.704,0.1882 1.326,0.48144 1.864,0.87535 0.539,0.39828 0.963,0.89723 1.278,1.50122 0.315,0.59962 0.477,1.31742 0.477,2.14462 0,0.9585 -0.254,1.7813 -0.757,2.4597 -0.503,0.6828 -1.234,1.1204 -2.193,1.3174 v 0.0744 c 0.521,0.0657 0.981,0.2188 1.379,0.4639 0.398,0.2451 0.735,0.5428 1.011,0.9016 0.276,0.3589 0.486,0.7616 0.635,1.2168 z m 13.861,3.0943 v 3.2169 h -12.041 v -3.8734 l 6.701,-6.018 c 0.342,-0.3063 0.683,-0.6565 1.024,-1.046 0.342,-0.3895 0.512,-0.8447 0.512,-1.3655 0,-0.5865 -0.21,-1.0417 -0.634,-1.3787 -0.425,-0.3327 -0.919,-0.499 -1.488,-0.499 -0.683,0 -1.217,0.2101 -1.598,0.6347 -0.381,0.4245 -0.595,0.941 -0.648,1.5581 l -3.654,-0.267 c 0.048,-0.8929 0.236,-1.6675 0.56,-2.3284 0.324,-0.65654 0.757,-1.208 1.291,-1.64568 0.534,-0.43767 1.164,-0.76593 1.891,-0.98914 0.722,-0.21884 1.506,-0.32825 2.35,-0.32825 0.779,0 1.51,0.10941 2.193,0.32825 0.683,0.21884 1.274,0.54272 1.781,0.97601 0.504,0.42892 0.898,0.97164 1.182,1.61941 0.285,0.6521 0.425,1.4049 0.425,2.2671 0,0.5515 -0.057,1.0504 -0.171,1.4969 -0.114,0.4464 -0.271,0.8534 -0.477,1.2167 -0.201,0.3633 -0.442,0.7047 -0.718,1.011 -0.276,0.3108 -0.578,0.6084 -0.902,0.9016 l -5.238,4.5081 h 7.654 z"
           fill="#000000"
           id="path196" /><path
           d="m 279.212,3.17241 c -2.545,-0.58369 -6.015,0.05945 -9.295,1.95102 -5.135,2.96166 -7.853,7.86357 -6.075,10.93867 1.135,1.9673 3.832,2.7185 6.972,2.2267 -1.438,-0.3297 -2.578,-1.0539 -3.216,-2.1618 -1.778,-3.0806 0.941,-7.97706 6.075,-10.94412 1.854,-1.07009 3.767,-1.74025 5.539,-2.01588"
           fill="#f0282d"
           id="path198" /><path
           d="m 279.256,15.3217 c 0.762,2.4969 3.059,5.1775 6.339,7.0745 5.134,2.9616 10.734,2.8698 12.512,-0.2108 1.135,-1.9672 0.437,-4.6803 -1.557,-7.1501 0.432,1.4105 0.378,2.7563 -0.265,3.8696 -1.778,3.0805 -7.382,3.1724 -12.511,0.2108 -1.854,-1.0701 -3.389,-2.3942 -4.518,-3.7886"
           fill="#00a651"
           id="path200" /><path
           d="m 275.775,9.27948 c -1.778,1.90782 -2.956,5.23692 -2.956,9.02552 0,5.9287 2.881,10.7333 6.437,10.7333 2.275,0 4.269,-1.9618 5.415,-4.9235 -1.005,1.0755 -2.2,1.7024 -3.48,1.7024 -3.557,0 -6.437,-4.8046 -6.437,-10.7333 0,-2.1402 0.378,-4.1344 1.021,-5.80442 z"
           fill="#0078d0"
           id="path202" /></g></g></g></svg>
