<?xml version="1.0" encoding="UTF-8"?>
<svg id="Pictogram" xmlns="http://www.w3.org/2000/svg" xmlns:xlink="http://www.w3.org/1999/xlink" version="1.1" viewBox="0 0 144 144">
  <defs>
    <style>
      .cls-1 {
        clip-path: url(#clippath);
      }

      .cls-2 {
        fill: none;
      }

      .cls-2, .cls-3 {
        stroke-width: 0px;
      }

      .cls-3 {
        fill: #000;
      }
    </style>
    <clipPath id="clippath">
      <rect class="cls-2" width="144" height="144"/>
    </clipPath>
  </defs>
  <g class="cls-1">
    <circle class="cls-3" cx="70.3" cy="30.8" r="9"/>
    <path class="cls-3" d="M76.7,79.7v-27c0-2.3-.9-4.6-2.6-6.4s-4.1-2.6-6.4-2.6H27.9l21.5-16.9,12.9-12.9h0c2-2,2-5.2,0-7.2-2-2-5.3-2-7.3,0h0l-12.9,12.9-18.9,24.2h-3.1c-1.3,0-2.6.5-3.6,1.5-2,2-2,5.3,0,7.3l20.6,20.6c.9.9,2.2,1.5,3.6,1.5s2.7-.6,3.6-1.5h0l11.8-11.8v18.4h20.6ZM44.3,21.3l12.5-12.6h0s0,0,0,0h0c1-.9,2.5-.9,3.4,0,.9.9.9,2.5,0,3.4h0l-12.6,12.7-17.9,14.5,14.4-17.9h0ZM40.7,62.2l-8.2-8.2h16.3l-8.2,8.2h0Z"/>
    <path class="cls-3" d="M94.4,137.3c-2,2-5.3,2-7.3,0h0l-19.2-19.2c-1-1-1.5-2.3-1.5-3.6v-25.4l-48.2,48.2c-.9.9-2.2,1.5-3.6,1.5-2.8,0-5.1-2.3-5.1-5.1s.6-2.7,1.5-3.6l45.2-45.2h20.6v27.5l17.7,17.7h0c2,2,2,5.3,0,7.3h0Z"/>
    <path class="cls-3" d="M101.9,24c-3.6,0-5.8-2.2-5.8-5h2.9c0,1.4,1.1,2.5,2.8,2.5s3.1-1.2,3.1-3.2-1-3.1-2.9-3.1-2.4.6-2.8,1.7h-2.9l1.3-9.2h9.4v2.7h-7.3l-.5,3.4c0,.4-.1.6-.2,1,.8-1,2-1.9,3.8-1.9,3,0,5,2.4,5,5.5s-2.6,5.6-5.9,5.6h0Z"/>
    <polygon class="cls-3" points="114.9 17.5 111.3 21.2 109.5 19.4 113.1 15.7 109.6 12.2 111.4 10.4 114.9 14 118.4 10.4 120.2 12.2 116.7 15.7 120.3 19.4 118.5 21.2 114.9 17.5"/>
    <path class="cls-3" d="M129.3,50.1c0,2-1.7,3.7-3.7,3.7s-3.7-1.7-3.7-3.7,1.7-3.7,3.7-3.7,3.7,1.7,3.7,3.7ZM132,50.1c0-3.6-2.9-6.4-6.4-6.4s-6.4,2.9-6.4,6.4,2.9,6.4,6.4,6.4,6.4-2.9,6.4-6.4Z"/>
    <path class="cls-3" d="M128.7,24c-3.6,0-5.8-2.2-5.8-5h2.9c0,1.4,1.1,2.5,2.8,2.5s3.1-1.2,3.1-3.2-1-3.1-2.9-3.1-2.4.6-2.8,1.7h-2.9l1.3-9.2h9.4v2.7h-7.3l-.5,3.4c0,.4-.1.6-.2,1,.8-1,2-1.9,3.8-1.9,3,0,5,2.4,5,5.5s-2.6,5.6-5.9,5.6h0Z"/>
  </g>
</svg>