<?xml version="1.0" encoding="utf-8"?>
<!-- Generator: Adobe Illustrator 27.0.0, SVG Export Plug-In . SVG Version: 6.00 Build 0)  -->
<svg version="1.1" id="Pictogram" xmlns="http://www.w3.org/2000/svg" xmlns:xlink="http://www.w3.org/1999/xlink" x="0px" y="0px"
	 viewBox="0 0 144 144" style="enable-background:new 0 0 144 144;" xml:space="preserve">
<style type="text/css">
	.st0{fill:none;}
</style>
<g>
	<circle cx="31.4" cy="32.2" r="9"/>
	<path d="M62.4,81.6l-7.3,7.3l12.7,12.7l-18.2,18.2c-2,2-2,5.3,0,7.3c2,2,5.3,2,7.3,0l21.8-21.8c2-2,2-5.2,0-7.2L62.4,81.6z"/>
	<path d="M89.7,48.8c-0.2-0.9-0.7-1.7-1.3-2.3c-0.9-0.9-2.2-1.5-3.6-1.5H34.3c-2.4,0-4.9,0.9-6.8,2.8c-0.3,0.3-0.6,0.6-0.8,1H0v2.7
		h25.3c-0.3,1-0.5,2-0.5,3.1c0,2.4,0.9,4.9,2.8,6.8c0,0,23.9,23.9,23.9,23.9l16.4-16.4L54.3,55.3h30.5c1.4,0,2.7-0.6,3.6-1.5
		c0.6-0.6,1.1-1.4,1.3-2.3H144v-2.7H89.7z"/>
	<path d="M71.5,72.5l-7.3,7.3l47.3,47.3c2,2,5.3,2,7.3,0c2-2,2-5.3,0-7.3L71.5,72.5z"/>
</g>
<rect class="st0" width="144" height="144"/>
</svg>
