<svg width="35" height="35" viewBox="0 0 35 35" fill="none" xmlns="http://www.w3.org/2000/svg">
<path d="M5.966 11.1825C8.51249 10.1888 11.0386 9.14294 13.6026 8.19872C15.199 7.6104 16.8666 7.42446 18.5561 7.85299C18.6374 7.87333 18.7173 7.89948 18.7972 7.92562C18.8292 7.93579 18.8582 7.95468 18.941 7.9939C18.8059 8.07234 18.7013 8.13771 18.5938 8.19436C17.0322 9.0122 15.5941 10.0015 14.3042 11.2071C13.9047 11.5805 13.636 11.9959 13.5343 12.5465C13.3222 13.6897 13.0636 14.8228 12.8297 15.9616C12.6787 16.701 13.1726 17.4201 13.925 17.5654C14.6238 17.7019 15.337 17.224 15.4924 16.5078C15.7074 15.5128 15.9021 14.5119 16.1374 13.5212C16.1912 13.296 16.3306 13.0549 16.502 12.9009C18.1813 11.3989 20.0901 10.2586 22.1601 9.37827C23.1072 8.97588 23.2772 7.95903 22.5392 7.24579C22.4782 7.18768 22.4157 7.13103 22.3504 7.07873C21.165 6.0982 19.7836 5.59413 18.2684 5.44887C15.921 5.22516 13.758 5.86577 11.6807 6.8986C11.4091 7.0337 11.3916 7.23271 11.4279 7.45787C11.489 7.83556 11.3204 7.9939 10.9776 8.12609C9.3681 8.74927 7.77019 9.40296 6.16792 10.045C6.04735 10.093 5.92243 10.1293 5.77571 10.1801L5.966 11.1825ZM5.76118 22.699C5.76118 22.6641 7.96775 23.5038 9.04125 23.9788C13.1653 25.8033 17.2908 27.622 21.4091 29.4596C21.7533 29.6136 22.0293 29.6383 22.3344 29.4131C22.5058 29.2868 22.7048 29.1981 22.9634 29.0529C19.9564 27.7208 17.0134 26.4178 14.0703 25.1133C14.0369 25.0741 14.0035 25.0349 13.9715 24.9956C14.0834 24.9332 14.2054 24.8823 14.3071 24.8053C15.7496 23.7086 17.1732 22.5857 18.6374 21.518C19.249 21.0721 19.5046 20.5782 19.4146 19.8112C19.1778 17.8225 19.0049 15.8251 18.8045 13.8321C18.7682 13.4762 18.7159 13.1232 18.6607 12.6874C18.1232 13.206 17.6598 13.6912 17.1543 14.1255C16.8303 14.4044 16.7257 14.7051 16.7417 15.1235C16.7897 16.4919 16.8042 17.8617 16.8143 19.2301C16.8143 19.371 16.749 19.5787 16.6429 19.647C14.7443 20.8818 12.9503 22.2443 11.3495 23.8873C11.2667 23.8568 11.1781 23.8292 11.0938 23.7929C9.41603 23.052 7.73968 22.3039 6.05752 21.5732C5.82074 21.4701 5.75537 21.3393 5.75537 21.0924L5.76409 22.6976L5.76118 22.699ZM26.8085 26.9262C26.2217 26.6473 25.7307 26.3974 25.2252 26.181C24.9666 26.0691 24.9099 25.95 24.984 25.6653C25.8454 22.3867 26.6865 19.1023 27.5421 15.8222C27.6017 15.5956 27.5842 15.4837 27.3489 15.3893C26.6546 15.1089 26.0953 14.6412 25.6275 14.063C24.7022 12.9184 24.0267 11.6531 23.8132 10.1453C23.1886 10.3544 22.5857 10.5476 21.9916 10.7699C21.9146 10.799 21.8303 11.0052 21.8608 11.0895C22.1267 11.8303 22.3286 12.6119 22.7179 13.2844C23.5575 14.7356 24.7037 15.8934 26.3422 16.4715C25.5534 19.5119 24.769 22.532 23.9773 25.5796C23.5909 25.3966 23.2597 25.231 22.9198 25.0843C22.8196 25.0407 22.6758 24.9985 22.5901 25.0378C22.2821 25.1801 21.9901 25.3588 21.6763 25.5302C21.7315 25.5883 21.7519 25.6232 21.7809 25.6377C23.0476 26.2406 24.3143 26.8449 25.584 27.4404C25.6595 27.4768 25.7815 27.4855 25.8527 27.4492C26.149 27.3024 26.4352 27.1325 26.8085 26.9262ZM25.658 9.46107C26.6575 9.4785 27.5276 8.70133 27.5537 7.76874C27.5799 6.86084 26.8405 6.11272 25.8948 6.09093C24.8213 6.06624 23.9192 6.85357 23.9149 7.81667C23.9105 8.73184 24.6644 9.44364 25.6566 9.46107H25.658Z" fill="white"/>
<path d="M26.81 26.9262C26.4382 27.1325 26.152 27.3024 25.8542 27.4492C25.783 27.484 25.661 27.4753 25.5855 27.4404C24.3159 26.8449 23.0492 26.242 21.7824 25.6377C21.7534 25.6232 21.7331 25.5883 21.6779 25.5302C21.9902 25.3574 22.2822 25.1801 22.5916 25.0378C22.6773 24.9985 22.8211 25.0407 22.9213 25.0843C23.2612 25.2324 23.5924 25.398 23.9788 25.5796C24.7705 22.532 25.555 19.5105 26.3437 16.4715C24.7052 15.8934 23.559 14.7356 22.7194 13.2844C22.3301 12.6119 22.1282 11.8289 21.8623 11.0895C21.8318 11.0052 21.9175 10.799 21.9931 10.7699C22.5858 10.5476 23.1901 10.3544 23.8147 10.1453C24.0282 11.6531 24.7037 12.9169 25.629 14.063C26.0968 14.6412 26.6561 15.1089 27.3504 15.3893C27.5858 15.4852 27.6032 15.5956 27.5436 15.8222C26.6866 19.1023 25.8455 22.3867 24.9855 25.6653C24.9114 25.95 24.9666 26.0706 25.2267 26.181C25.7322 26.3974 26.2232 26.6473 26.81 26.9262Z" fill="white"/>
<path d="M25.6595 9.46107C24.6673 9.44364 23.9134 8.73329 23.9177 7.81668C23.9221 6.85357 24.8242 6.06624 25.8977 6.09094C26.8419 6.11273 27.5813 6.86084 27.5566 7.76874C27.5305 8.70134 26.6603 9.4785 25.6609 9.46107H25.6595Z" fill="white"/>
</svg>
