<svg width="35" height="35" viewBox="0 0 35 35" fill="none" xmlns="http://www.w3.org/2000/svg">
<path d="M33.1929 19.2127C33.1086 19.1981 33.0389 19.1764 32.9677 19.1764C30.1249 19.172 27.2821 19.1705 24.4393 19.1662C24.2228 19.1662 24.1371 19.2504 24.14 19.4683C24.1473 20.1249 24.14 20.7801 24.1429 21.4367C24.1429 21.5137 24.1821 21.5892 24.2083 21.6836C24.6296 21.6444 25.0261 21.611 25.4227 21.5718C26.6298 21.4512 27.8355 21.3321 29.0412 21.1955C29.124 21.1854 29.2432 21.0386 29.2548 20.9442C29.2853 20.7103 29.2649 20.4707 29.2649 20.1947H33.1914V19.2141L33.1929 19.2127ZM25.3312 16.5442C25.3384 15.5288 24.5961 14.708 23.6606 14.6964C22.6801 14.6848 21.8579 15.5665 21.8463 16.64C21.8361 17.6482 22.5959 18.466 23.5357 18.4631C24.5163 18.4588 25.321 17.5973 25.3297 16.5442H25.3312Z" fill="white"/>
<path d="M3.62283 24.6906C5.16263 23.4035 8.68385 20.4416 10.2353 19.1676C10.2803 19.1313 10.334 19.1052 10.4314 19.0471C10.6885 19.7763 10.9456 20.4765 11.1722 21.1883C11.1969 21.2682 11.0662 21.441 10.9674 21.5108C10.2498 22.0119 9.51911 22.4942 8.79569 22.9881C8.05049 23.4965 7.80644 24.201 8.11295 24.9317C8.41655 25.6581 9.0993 25.9689 9.97815 25.8411C11.8869 25.5636 13.7187 25.0247 15.4967 24.2824C17.0336 23.6403 18.4383 22.7818 19.7573 21.7751C19.8823 21.6807 20.0028 21.5819 20.1655 21.4541C20.305 21.7475 20.4314 22.0177 20.5592 22.2865C20.9137 23.0331 21.2666 23.7798 21.6225 24.525C21.9305 25.1714 22.4055 25.414 23.1071 25.2731C24.7486 24.9433 26.3872 24.602 28.0302 24.2795C28.3192 24.2228 28.4107 24.127 28.3381 23.8205C28.2306 23.373 28.1711 22.914 28.113 22.4564C28.0854 22.2414 27.9924 22.2037 27.7977 22.2284C26.5455 22.3867 25.2905 22.5291 24.0397 22.6918C23.7114 22.7339 23.5182 22.6845 23.3831 22.3257C22.9314 21.1214 22.4346 19.9332 21.9537 18.7406C21.515 17.6496 20.443 17.4114 19.5845 18.2089C18.1435 19.5468 16.4816 20.5346 14.644 21.3205C14.4581 20.799 14.2765 20.3007 14.1022 19.801C13.7899 18.9076 13.4906 18.0084 13.1623 17.1209C13.065 16.8594 13.1173 16.7185 13.3265 16.5442C14.7617 15.3399 16.1838 14.1212 17.6103 12.9067C17.7106 12.8225 17.805 12.731 17.9285 12.6191C17.7091 12.3591 17.5087 12.1209 17.2704 11.8391C15.7422 13.1159 14.2358 14.3739 12.6728 15.6798C12.5392 15.2978 12.4055 14.9666 12.3184 14.6238C12.298 14.5439 12.42 14.3986 12.5087 14.3231C14.3012 12.7891 16.0996 11.2609 17.8965 9.73127C18.2277 9.44945 18.5589 9.16473 18.9235 8.85242C18.6926 8.58368 18.4848 8.33963 18.251 8.06654C13.9729 11.6444 7.7527 16.8913 3.46305 20.4794L3.48628 21.9117C3.65334 21.5413 6.09378 19.6151 6.44096 19.3289C8.01854 18.0302 9.59901 16.7345 11.178 15.4372C11.242 15.385 11.3088 15.3341 11.409 15.2542C11.5383 15.6116 11.6821 15.9311 11.7576 16.2682C11.7809 16.3684 11.6371 16.5413 11.5296 16.6313C10.1074 17.8312 8.67803 19.0224 7.25008 20.2164C6.65595 20.7133 4.09494 22.9009 3.45723 23.4355C3.4427 23.3266 3.43689 23.3033 3.43689 23.2786L3.62719 24.692L3.62283 24.6906Z" fill="white"/>
<path d="M33.1929 19.2127V20.1932H29.2664C29.2664 20.4692 29.2867 20.7089 29.2562 20.9428C29.2431 21.0372 29.1254 21.1839 29.0426 21.1941C27.8384 21.3306 26.6313 21.4497 25.4241 21.5703C25.0275 21.6095 24.6295 21.6444 24.2097 21.6822C24.1836 21.5892 24.1443 21.5122 24.1443 21.4352C24.14 20.7786 24.1487 20.1235 24.1414 19.4669C24.1385 19.249 24.2242 19.1647 24.4407 19.1647C27.2835 19.1705 30.1263 19.172 32.9691 19.1749C33.0389 19.1749 33.1086 19.1967 33.1943 19.2112L33.1929 19.2127Z" fill="white"/>
<path d="M25.3312 16.5442C25.3225 17.5973 24.5177 18.4587 23.5372 18.4631C22.5973 18.466 21.8376 17.6482 21.8478 16.64C21.8579 15.568 22.6816 14.6862 23.6621 14.6964C24.5976 14.7066 25.3399 15.5288 25.3326 16.5442H25.3312Z" fill="white"/>
</svg>
