<svg width="35" height="35" viewBox="0 0 35 35" fill="none" xmlns="http://www.w3.org/2000/svg">
<path d="M20.8542 9.07175C21.8637 9.08192 22.7005 8.22341 22.7077 7.1717C22.715 6.16356 22.0105 5.40383 21.0691 5.40238C20.0784 5.40092 19.2243 6.28849 19.2214 7.32277C19.2185 8.29314 19.9375 9.06304 20.8542 9.07175Z" fill="white"/>
<path d="M27.5959 11.0314C27.3853 10.8033 27.2531 10.4213 27.0047 10.3297C26.7664 10.2426 26.4236 10.443 26.1273 10.5142C24.541 10.8977 23.0099 10.6987 21.5209 10.0697C21.4004 10.0189 21.2798 9.96658 21.1258 9.90121C21.1302 9.96513 21.1215 10.0116 21.1389 10.0436C21.6154 10.9326 22.1891 11.7417 23.0665 12.2806C23.2205 12.3751 23.4254 12.4521 23.5982 12.439C24.4524 12.3722 25.3051 12.2719 26.1592 12.1833C25.8062 12.7571 25.4227 13.3832 25.0116 14.0514C24.5047 13.8146 24.0093 13.6055 23.5343 13.3571C21.7693 12.4375 20.2746 11.2028 19.1401 9.55258C18.697 8.9076 17.9518 8.82626 17.2937 9.35647C15.0203 11.1868 12.7499 13.0215 10.4794 14.8547C10.1802 15.0959 9.878 15.3341 9.58747 15.5854C9.20252 15.921 8.98172 16.335 9.09357 16.8608C9.21123 17.4099 9.54098 17.7774 10.093 17.9314C10.2978 17.9881 10.4997 18.0549 10.7525 18.1333C10.6116 18.3469 10.4954 18.5227 10.3777 18.6984C9.93029 19.3666 9.47271 20.029 9.03982 20.706C8.90327 20.9181 8.76673 20.9515 8.53576 20.8876C7.44773 20.5927 6.35534 20.3225 5.26731 20.0276C5.03053 19.9637 4.90851 19.9884 4.86493 20.2513C4.82716 20.4837 4.75597 20.7118 4.6906 20.9747C5.87886 21.2885 7.02936 21.5921 8.22198 21.9073C7.83267 22.4884 7.47387 23.0244 7.09764 23.5851C6.05319 23.3135 5.01164 23.0447 3.97155 22.7731L3.26556 23.6926C3.93959 23.8655 4.60635 24.0325 5.27311 24.2068C9.36521 25.2774 13.4588 26.3466 17.5479 27.4303C17.8588 27.5131 18.0665 27.468 18.2583 27.2138C18.3992 27.025 18.5779 26.8652 18.7842 26.6429C16.1185 25.9457 13.5154 25.2644 10.8454 24.5657C11.213 24.0166 11.5573 23.4907 11.9233 22.9794C11.9625 22.9242 12.1398 22.9358 12.2415 22.9619C14.7937 23.6229 17.3446 24.2882 19.8954 24.9535C20.5302 25.1191 21.1636 25.2862 21.8449 25.4648C21.6125 26.0038 21.4076 26.5122 21.1738 27.0061C21.0517 27.2632 21.0387 27.4651 21.2595 27.6758C21.4222 27.8312 21.55 28.0229 21.7505 28.267C23.6926 23.7376 25.6116 19.262 27.5538 14.7342C27.0395 14.6092 26.5514 14.4901 26.0212 14.3608C26.5761 13.4558 27.0875 12.5886 27.6366 11.7446C27.8211 11.4614 27.8181 11.2682 27.5959 11.027V11.0314ZM9.84748 24.1211C9.79955 24.1894 9.6601 24.2461 9.58166 24.2286C9.13134 24.1255 8.68537 23.9991 8.19728 23.8684C8.55173 23.3396 8.87858 22.8399 9.2214 22.3518C9.26789 22.285 9.40588 22.2298 9.48432 22.2472C9.93609 22.3489 10.3835 22.4738 10.8774 22.6017C10.5186 23.1362 10.1918 23.6345 9.84748 24.1211ZM11.595 21.5238C11.5514 21.5863 11.4091 21.6299 11.3292 21.611C10.8876 21.5093 10.4503 21.3844 9.94773 21.2507C10.5636 20.3341 11.1462 19.4582 11.7417 18.5909C11.7853 18.5285 11.9248 18.482 12.0032 18.5009C12.4535 18.6098 12.8995 18.7405 13.3847 18.8727C12.776 19.7777 12.1921 20.6537 11.5965 21.5224L11.595 21.5238ZM14.0398 22.3126C13.5764 22.2037 13.1174 22.0802 12.6061 21.9494C12.8937 21.5166 13.1552 21.1214 13.4195 20.7292C13.7188 20.2818 14.0151 19.8315 14.326 19.3928C14.3841 19.3114 14.5206 19.2141 14.5976 19.2315C15.0581 19.3361 15.5114 19.4698 16.0125 19.6078C15.4039 20.5142 14.8271 21.3786 14.2417 22.2371C14.2069 22.2879 14.0994 22.3286 14.0398 22.3155V22.3126ZM22.2763 24.4727C19.9405 23.8626 17.6264 23.2583 15.2673 22.6423C15.3792 22.4695 15.4736 22.3213 15.5709 22.1761C16.0111 21.518 16.4599 20.8643 16.8899 20.199C17.0352 19.9738 17.1732 19.8983 17.4477 19.9855C17.7978 20.0959 18.1726 20.2048 18.5328 20.1946C19.2069 20.1787 19.7487 19.6339 19.8199 19.002C19.8998 18.2931 19.496 17.6859 18.7784 17.4782C17.9039 17.224 17.0235 16.9901 16.1461 16.7475C15.2804 16.5078 14.4146 16.2682 13.5488 16.027C13.4835 16.0081 13.421 15.9776 13.3121 15.9355C14.8824 14.5787 16.4236 13.2481 17.9939 11.8913C19.6572 13.6781 21.6342 14.955 23.9454 15.767C23.8626 15.9137 23.803 16.027 23.7362 16.136C22.683 17.8544 21.6357 19.5773 20.5651 21.2856C20.3821 21.5776 20.3748 21.7896 20.5912 22.0439C20.7205 22.1949 20.8193 22.3707 20.9646 22.5857C21.0851 22.3969 21.1752 22.2603 21.2609 22.1223C22.3969 20.2716 23.5314 18.4195 24.6674 16.5674C24.8659 16.2439 25.1443 16.1263 25.5026 16.2144C25.584 16.2347 25.6624 16.2623 25.7961 16.303C24.6252 19.0209 23.4573 21.7315 22.2778 24.4698L22.2763 24.4727Z" fill="white"/>
</svg>
