<svg width="35" height="35" viewBox="0 0 35 35" fill="none" xmlns="http://www.w3.org/2000/svg">
<path d="M5.50262 20.4402C10.4823 22.1034 15.4416 23.7595 20.5012 25.4503C20.4285 25.0378 20.3893 24.6906 20.2964 24.3565C20.2731 24.2708 20.0886 24.2127 19.9695 24.1735C16.6401 23.0578 13.3106 21.9466 9.98114 20.8353C8.58369 20.369 7.18625 19.9012 5.78735 19.4422L5.50553 20.4416L5.50262 20.4402ZM14.6645 12.1296C14.7138 12.1833 14.7356 12.1979 14.7458 12.2197C14.7923 12.317 14.8373 12.4143 14.8794 12.5131C15.8411 14.7473 17.1456 16.7563 18.9541 18.3876C21.3161 20.5201 23.7333 22.5915 26.1302 24.6848C26.2362 24.7763 26.3699 24.8446 26.4991 24.8998C27.8806 25.4794 29.2635 26.0561 30.6479 26.6313C30.7612 26.6778 30.8803 26.7083 31.0546 26.7664C30.9152 26.1432 30.7815 25.5985 30.674 25.0494C30.6276 24.817 30.5099 24.7124 30.2876 24.6528C29.0965 24.3318 27.9082 24.0035 26.7229 23.6607C26.5238 23.6026 26.3219 23.4951 26.1665 23.36C24.4756 21.8812 22.7934 20.3922 21.1069 18.9105C21.027 18.8408 20.9181 18.8059 20.8193 18.7551C20.9878 18.5546 21.0735 18.4544 21.1563 18.3542C21.2377 18.2554 21.3176 18.1552 21.3887 18.0665C21.364 18.0128 21.3582 17.9881 21.3437 17.9707C21.2958 17.9169 21.2464 17.8632 21.1941 17.8152C18.9439 15.7002 17.3954 13.1668 16.6226 10.1671C16.4832 9.62523 16.0052 9.26497 15.4431 9.30274C15.1395 9.32308 14.8344 9.42186 14.5424 9.525C10.7162 10.8701 8.12902 13.4965 6.64006 17.2356C6.28416 18.1276 6.62261 18.8757 7.50146 19.1691C10.7409 20.247 13.9846 21.3088 17.2284 22.3707C17.7281 22.5349 18.2045 22.471 18.6186 22.1281C19.0267 21.7897 19.2214 21.3524 19.1357 20.8222C19.034 20.1889 18.6418 19.8083 18.0404 19.6136C15.966 18.9439 13.8931 18.267 11.8187 17.5959C11.1621 17.3823 10.5041 17.1746 9.80681 16.9509C10.9282 14.7981 12.5058 13.1871 14.6674 12.1339L14.6645 12.1296ZM17.6874 9.03255C17.6816 10.0959 18.4762 10.9762 19.448 10.9835C20.4837 10.9907 21.3931 10.0378 21.4033 8.93232C21.4134 7.87334 20.6217 7.00466 19.6325 6.99158C18.5793 6.97706 17.6932 7.90675 17.6874 9.03255ZM12.2429 24.6427C12.1921 24.3449 12.1267 24.1357 12.1267 23.9265C12.1267 23.5735 11.9466 23.4428 11.6313 23.3411C10.3792 22.9402 9.13569 22.5087 7.88787 22.0889C7.75859 22.0453 7.62494 22.0148 7.43465 21.9611C7.47823 22.2719 7.516 22.516 7.54505 22.7615C7.57265 22.9983 7.6816 23.1276 7.92564 23.206C9.06451 23.5706 10.1947 23.9599 11.3277 24.3405C11.6081 24.4349 11.8899 24.5264 12.2429 24.6427ZM20.3777 26.2435C19.8126 26.0517 19.2737 25.8658 18.7319 25.6857C18.5212 25.6159 18.4907 25.751 18.4806 25.9152C18.4515 26.364 18.7624 26.7926 19.204 26.9059C19.6993 27.0323 20.1438 26.7984 20.3777 26.2435Z" fill="white"/>
<path d="M14.6659 12.131C12.5044 13.1828 10.9268 14.7937 9.80535 16.948C10.5026 17.1717 11.1607 17.3809 11.8173 17.593C13.8916 18.2656 15.9646 18.941 18.0389 19.6107C18.6403 19.8054 19.0311 20.186 19.1342 20.8193C19.2199 21.3495 19.0253 21.7882 18.6171 22.1252C18.2031 22.4681 17.7266 22.532 17.2269 22.3678C13.9832 21.3045 10.7394 20.2426 7.5 19.1662C6.62115 18.8742 6.28415 18.1246 6.63859 17.2327C8.12755 13.4951 10.7147 10.8687 14.541 9.52209C14.8315 9.42041 15.1366 9.32162 15.4416 9.29984C16.0038 9.26061 16.4817 9.62087 16.6212 10.1642C17.394 13.1639 18.9425 15.6958 21.1926 17.8123C21.2449 17.8617 21.2943 17.914 21.3422 17.9678C21.3568 17.9852 21.3626 18.0099 21.3873 18.0636C21.3161 18.1508 21.2377 18.2525 21.1549 18.3513C21.0706 18.4529 20.9864 18.5532 20.8178 18.7522C20.9152 18.8045 21.0256 18.8379 21.1055 18.9076C22.7934 20.3908 24.4741 21.8797 26.165 23.3571C26.3205 23.4936 26.5224 23.6011 26.7214 23.6578C27.9068 24.0006 29.095 24.3289 30.2862 24.6499C30.5099 24.7095 30.6275 24.8141 30.6726 25.0465C30.7815 25.597 30.9137 26.1418 31.0532 26.7635C30.8789 26.7054 30.7597 26.6749 30.6464 26.6284C29.2621 26.0532 27.8791 25.4779 26.4977 24.8969C26.3669 24.8417 26.2333 24.7749 26.1287 24.6819C23.7318 22.5886 21.3147 20.5157 18.9527 18.3847C17.1441 16.7534 15.8396 14.7443 14.878 12.5102C14.8359 12.4114 14.7908 12.3141 14.7443 12.2167C14.7342 12.1964 14.7124 12.1819 14.663 12.1267L14.6659 12.131Z" fill="white"/>
<path d="M17.6888 9.03401C17.6961 7.90821 18.5822 6.97997 19.6339 6.99304C20.6232 7.00611 21.4163 7.8748 21.4047 8.93377C21.3945 10.0392 20.4852 10.9922 19.4494 10.9849C18.4762 10.9776 17.6816 10.0973 17.6888 9.03401Z" fill="white"/>
<path d="M20.3791 26.2449C20.1452 26.7998 19.7022 27.0337 19.2054 26.9073C18.7638 26.794 18.4529 26.3655 18.482 25.9166C18.4922 25.7525 18.5227 25.6174 18.7333 25.6871C19.2737 25.8672 19.814 26.0532 20.3791 26.2449Z" fill="white"/>
</svg>
