<svg width="144" height="144" viewBox="0 0 144 144" fill="none" xmlns="http://www.w3.org/2000/svg">
<g clip-path="url(#clip0_4668_558)">
<path d="M21.9975 73.5841L100.842 121.584C100.842 119.791 100.902 118.296 100.782 116.802C100.722 116.384 100.065 115.965 99.5866 115.666C92.8319 111.542 86.0772 107.417 79.3226 103.352C78.1868 102.695 78.0075 102.157 78.4857 100.902C81.5343 92.7124 84.4035 84.5231 87.4521 76.274C88.2889 73.9427 88.0498 71.9104 86.675 69.8182C83.2678 64.6775 79.8605 59.5368 76.4533 54.3363C76.2142 53.9178 75.9153 53.4994 75.5567 52.9614C80.9963 49.7933 86.7348 47.8207 92.6526 46.4459C92.9514 49.1955 93.1905 51.8855 93.5492 54.4558C93.6688 55.3525 93.9676 56.1893 94.2067 57.0262C94.9241 59.0586 96.7173 60.0747 98.7497 59.5965C100.603 59.1781 101.978 57.3848 101.619 55.3525C100.722 50.6899 101.26 46.147 102.456 41.604C103.293 38.4957 100.663 35.9253 97.1358 36.3437C94.0274 36.7024 90.8593 37.1806 87.8107 37.8381C80.5778 39.2728 73.6438 41.6638 67.2478 45.4894C66.4707 45.9676 65.6339 46.5056 64.9166 47.0436C62.2267 49.076 61.7485 51.5866 63.482 54.4558C67.1881 60.553 70.8344 66.6501 74.6003 72.6875C75.3176 73.883 75.3773 74.8394 74.8991 76.0947C72.6277 82.132 70.4757 88.2292 68.264 94.3263C68.0847 94.8643 67.8456 95.4023 67.5467 96.2391C62.6451 93.2503 57.7435 90.2615 52.7223 87.213C53.7385 86.3761 54.5754 85.6588 55.2927 84.9415C59.477 80.6974 63.6613 76.3936 67.8456 72.1495C68.9216 71.0735 68.8618 70.3562 67.6663 69.4596C66.3512 68.5031 65.1557 67.4272 63.9602 66.2317C63.1831 65.4546 62.5853 65.6937 61.8082 66.1719C55.7709 69.9975 49.7933 74.1221 44.2341 78.9639C41.7833 81.0561 42.68 80.9365 40.0498 79.3226C34.3711 75.9153 28.7522 72.4483 23.0735 69.0411C22.3562 68.6227 21.9377 68.1445 21.9377 67.1881L21.9975 73.5841ZM95.7011 31.0835C92.2341 28.1544 88.7074 26.0025 84.6426 24.7472C78.2466 22.7148 71.6712 22.416 65.0361 23.2528C62.2864 23.6115 62.2864 23.5517 62.6451 26.2416C62.7646 26.8992 62.8842 27.6165 62.8842 28.274C62.8842 29.4097 63.482 29.5891 64.4981 29.5891C72.4483 29.4097 79.9801 30.9041 86.675 35.4471C86.9739 35.6862 87.6314 35.746 87.99 35.5667C90.5604 34.1918 93.0112 32.6974 95.7011 31.0835ZM114.531 27.6762C109.988 27.6762 106.281 31.3226 106.222 35.746C106.162 39.5119 109.33 42.68 113.215 42.68C117.699 42.68 121.524 38.9739 121.584 34.6102C121.584 30.8444 118.356 27.6762 114.531 27.6762Z" fill="white"/>
<path d="M114.531 27.6763C118.356 27.6763 121.584 30.8444 121.584 34.5505C121.524 38.9141 117.699 42.6202 113.215 42.6202C109.33 42.6202 106.162 39.4521 106.222 35.6862C106.281 31.3226 109.988 27.6763 114.531 27.6763Z" fill="white"/>
<path d="M21.9975 73.5841L100.842 121.584C100.842 119.791 100.902 118.296 100.782 116.802C100.722 116.384 100.065 115.965 99.5866 115.666C92.8319 111.542 86.0772 107.417 79.3226 103.352C78.1868 102.695 78.0075 102.157 78.4857 100.902C81.5343 92.7124 84.4035 84.5231 87.4521 76.274C88.2889 73.9427 88.0498 71.9104 86.675 69.8182C83.2678 64.6775 79.8605 59.5368 76.4533 54.3363C76.2142 53.9178 75.9153 53.4994 75.5567 52.9614C80.9963 49.7933 86.7348 47.8207 92.6526 46.4459C92.9514 49.1955 93.1905 51.8855 93.5492 54.4558C93.6688 55.3525 93.9676 56.1893 94.2067 57.0262C94.9241 59.0586 96.7173 60.0747 98.7497 59.5965C100.603 59.1781 101.978 57.3848 101.619 55.3525C100.722 50.6899 101.26 46.147 102.456 41.604C103.293 38.4957 100.663 35.9253 97.1358 36.3437C94.0274 36.7024 90.8593 37.1806 87.8107 37.8381C80.5778 39.2728 73.6438 41.6638 67.2478 45.4894C66.4707 45.9676 65.6339 46.5056 64.9166 47.0436C62.2267 49.076 61.7485 51.5866 63.482 54.4558C67.1881 60.553 70.8344 66.6501 74.6003 72.6875C75.3176 73.883 75.3773 74.8394 74.8991 76.0947C72.6277 82.132 70.4757 88.2292 68.264 94.3263C68.0847 94.8643 67.8456 95.4023 67.5467 96.2391C62.6451 93.2503 57.7435 90.2615 52.7223 87.213C53.7385 86.3761 54.5754 85.6588 55.2927 84.9415C59.477 80.6974 63.6613 76.3936 67.8456 72.1495C68.9216 71.0735 68.8618 70.3562 67.6663 69.4596C66.3512 68.5031 65.1557 67.4272 63.9602 66.2317C63.1831 65.4546 62.5853 65.6937 61.8082 66.1719C55.7709 69.9975 49.7933 74.1221 44.2341 78.9639C41.7833 81.0561 42.68 80.9365 40.0498 79.3226C34.3711 75.9153 28.7522 72.4483 23.0735 69.0411C22.3562 68.6227 21.9377 68.1445 21.9377 67.1881L21.9975 73.5841ZM95.7011 31.0835C92.2341 28.1544 88.7074 26.0025 84.6426 24.7472C78.2466 22.7148 71.6712 22.416 65.0361 23.2528C62.2864 23.6115 62.2864 23.5517 62.6451 26.2416C62.7646 26.8992 62.8842 27.6165 62.8842 28.274C62.8842 29.4097 63.482 29.5891 64.4981 29.5891C72.4483 29.4097 79.9801 30.9041 86.675 35.4471C86.9739 35.6862 87.6314 35.746 87.99 35.5667C90.5604 34.1918 93.0112 32.6974 95.7011 31.0835ZM114.531 27.6762C109.988 27.6762 106.281 31.3226 106.222 35.746C106.162 39.5119 109.33 42.68 113.215 42.68C117.699 42.68 121.524 38.9739 121.584 34.6102C121.584 30.8444 118.356 27.6762 114.531 27.6762Z" fill="white"/>
<path d="M114.531 27.6763C118.356 27.6763 121.584 30.8444 121.584 34.5505C121.524 38.9141 117.699 42.6202 113.215 42.6202C109.33 42.6202 106.162 39.4521 106.222 35.6862C106.281 31.3226 109.988 27.6763 114.531 27.6763Z" fill="white"/>
<path d="M40.0498 87.3923C44.5066 87.3923 48.1196 83.7793 48.1196 79.3225C48.1196 74.8658 44.5066 71.2528 40.0498 71.2528C35.593 71.2528 31.9801 74.8658 31.9801 79.3225C31.9801 83.7793 35.593 87.3923 40.0498 87.3923Z" fill="white"/>
</g>
<defs>
<clipPath id="clip0_4668_558">
<rect width="144" height="144" rx="8" fill="white"/>
</clipPath>
</defs>
</svg>
