<svg width="35" height="35" viewBox="0 0 35 35" fill="none" xmlns="http://www.w3.org/2000/svg">
<path d="M23.3367 9.59762C24.2897 9.59616 25.0668 8.78123 25.0784 7.77164C25.0901 6.76206 24.3826 5.97618 23.4646 5.97908C22.5029 5.98199 21.7286 6.8129 21.7228 7.84573C21.717 8.82336 22.4317 9.59907 23.3382 9.59762H23.3367Z" fill="white"/>
<path d="M31.3974 24.3376C31.3567 24.0282 31.1156 23.7609 30.7931 23.7536C30.3254 23.7435 30.1627 23.4733 30.0334 23.1028C29.9506 22.8661 29.8184 22.6482 29.7298 22.4128C29.6063 22.086 29.3724 21.9582 29.034 21.9611C28.3265 21.9683 27.6191 21.9611 26.9102 21.9654C26.8216 21.9654 26.733 21.9887 26.6022 22.0075C26.7054 22.2501 26.8085 22.4506 26.8783 22.6627C26.9596 22.9111 27.1136 22.9837 27.3634 22.9707C27.7585 22.9518 28.1565 22.9852 28.5502 22.959C28.8262 22.9401 28.9759 23.0389 29.0499 23.2946C29.0834 23.4079 29.1385 23.5139 29.2112 23.6912C29.0252 23.6912 28.8945 23.6912 28.7638 23.6912C27.9474 23.6912 27.1324 23.6854 26.3161 23.697C25.6537 23.7057 25.3253 24.0485 25.321 24.7022C25.321 24.9303 25.3152 25.1583 25.3239 25.3864C25.3413 25.8643 25.658 26.2231 26.133 26.2275C27.6322 26.242 29.1313 26.2376 30.6319 26.2231C31.0241 26.2188 31.3553 25.9602 31.4003 25.5869C31.4497 25.1758 31.4497 24.7472 31.3945 24.3376H31.3974Z" fill="white"/>
<path d="M25.138 21.6415C24.31 21.412 23.5154 21.0619 22.6133 20.7307C23.0912 19.7632 23.5473 18.8175 24.0267 17.8835C24.3434 17.2647 24.3201 16.7286 23.909 16.2435C23.6432 15.9297 23.2829 15.8149 22.8965 15.7525C21.0851 15.4576 19.2751 15.1612 17.4637 14.8649C17.3925 14.8533 17.3257 14.8286 17.2109 14.7966C17.301 14.5962 17.3809 14.4044 17.4695 14.217C18.2118 12.654 19.2882 11.3422 20.536 10.1598C21.1025 9.62231 21.1781 9.04706 20.7743 8.49506C20.507 8.13044 20.1322 8.01423 19.7007 8.02731C17.699 8.08541 15.8541 8.66502 14.1545 9.71237C13.787 9.93899 13.4587 10.2266 13.0941 10.4561C12.9372 10.5535 12.7208 10.6406 12.5479 10.6159C10.1946 10.2847 8.10135 10.8788 6.21582 12.3751C6.21582 12.3751 3.62433 14.0529 3.62433 18.2815C3.62433 22.5102 6.20277 24.3565 6.20277 24.3565C8.4442 26.1243 10.9326 26.6909 13.6447 25.8454C16.3567 25 18.068 23.1174 18.9134 20.382C19.2039 20.4895 19.4886 20.5956 19.7748 20.7016C19.4334 21.8812 19.0993 23.0389 18.7536 24.233C19.6818 24.3986 20.5404 24.5526 21.4221 24.7109C21.7243 23.6926 22.0235 22.6874 22.3344 21.6386C23.6171 22.1063 24.8503 22.5566 26.1911 23.0447C25.8832 22.4608 25.873 21.8449 25.1409 21.6415H25.138ZM17.8936 20.5564C16.9276 23.4965 14.0703 25.4343 10.979 25.2818C9.19084 25.1946 7.68301 24.5119 6.41631 23.2728C6.41631 23.2728 4.67895 21.4759 4.67895 18.328C4.67895 15.1801 5.95292 14.0035 5.95292 14.0035C5.97471 13.9134 6.27102 13.5996 6.32623 13.5459C7.87329 11.9988 9.7414 11.3103 11.9988 11.4643C11.7112 11.8231 11.4613 12.1136 11.2347 12.4201C10.3123 13.6723 9.70799 15.0741 9.28237 16.5616C9.20974 16.8129 9.32887 16.8666 9.51917 16.9364C12.1978 17.914 14.8736 18.8989 17.5508 19.8809C17.8859 20.0039 17.9997 20.229 17.8922 20.5564H17.8936ZM20.122 19.8184C17.1441 18.7275 14.1749 17.6394 11.1621 16.5354C12.1891 13.9831 13.8044 12.0613 16.457 11.0038C16.3437 11.1708 16.2812 11.2652 16.2158 11.3597C15.3544 12.5988 14.6455 13.9105 14.2766 15.3864C14.0253 16.3931 14.4581 17.0351 15.4866 17.2167C17.2443 17.5247 19.0006 17.8428 20.8018 18.1653C20.5781 18.7071 20.3632 19.2301 20.1206 19.8199L20.122 19.8184Z" fill="white"/>
<path d="M29.2141 23.6912C29.14 23.5139 29.0849 23.4064 29.0529 23.2946C28.9788 23.0389 28.8292 22.9401 28.5532 22.959C28.1595 22.9852 27.7615 22.9518 27.3664 22.9707C27.1151 22.9823 26.9625 22.9096 26.8812 22.6627C26.8114 22.4506 26.7083 22.2501 26.6052 22.0075C26.7359 21.9887 26.8245 21.9654 26.9132 21.9654C27.6206 21.9625 28.3295 21.9683 29.0369 21.9611C29.3754 21.9582 29.6078 22.086 29.7327 22.4128C29.8213 22.6482 29.9535 22.8661 30.0363 23.1028C30.1656 23.4733 30.3283 23.7435 30.7961 23.7536C31.1186 23.7609 31.3597 24.0296 31.4004 24.3376C31.4556 24.7487 31.4556 25.1758 31.4062 25.5869C31.3611 25.9587 31.0299 26.2188 30.6377 26.2231C29.1386 26.2376 27.6395 26.242 26.1389 26.2275C25.6639 26.2231 25.3472 25.8629 25.3297 25.3864C25.321 25.1583 25.3254 24.9303 25.3268 24.7022C25.3312 24.0471 25.6595 23.7057 26.3219 23.697C27.1368 23.6854 27.9532 23.6926 28.7696 23.6912C28.9003 23.6912 29.0311 23.6912 29.217 23.6912H29.2141Z" fill="white"/>
<path d="M21.7228 7.84718C21.7286 6.81435 22.5029 5.98489 23.4645 5.98053C24.3826 5.97762 25.09 6.76205 25.0784 7.77309C25.0668 8.78268 24.2896 9.59761 23.3367 9.59907C22.4302 9.59907 21.717 8.82626 21.7213 7.84718H21.7228Z" fill="white"/>
</svg>
