<?xml version="1.0"?>
<svg
   xmlns="http://www.w3.org/2000/svg"
   width="163.23053"
   height="254"
   viewBox="0 0 163.23053 254"
   enable-background="new 0 0 323 500">
<g
     transform="matrix(0.53771438,0,0,0.53771438,-5.1510635,-5.7625274)"><path
       d="m 246.015,227.054 c 0,0 -4.003,-1.561 -2.092,-3.887 -0.202,-0.742 0.324,-2.843 5.151,-4.975 9.357,-4.139 19.285,-20.095 21.224,-23.968 0.135,-0.261 0.521,-0.365 0.824,-0.226 0.746,0.518 3.512,2.727 3.512,2.727 -8.295,25.547 -25.506,29.119 -26.108,29.348 z"
       id="path2"
       style="fill:#00b4dd" /><path
       d="m 105.822,69.058 -0.018,0.009 h -0.034 c -10.999,0.774 -18.945,2.524 -22.258,3.37 L 83.445,72.5 h -0.057 c 2.625,1.259 5.126,2.623 7.556,4.035 0.751,0.383 1.372,0.837 1.988,1.214 2.314,1.354 4.557,2.79 6.671,4.225 0.52,0.369 1.012,0.751 1.455,1.08 2.276,1.615 4.537,3.306 6.646,5.011 0.245,0.162 0.475,0.374 0.637,0.536 2.344,1.916 4.575,3.869 6.698,5.821 l 0.063,0.027 0.057,0.054 c 0,0 0,0.018 0.018,0.018 l 1.837,2.124 2.312,2.199 2.411,2.245 c 3.817,3.985 7.162,7.967 10.156,11.817 l 1.264,1.633 c 0,0 10.313,13.815 8.541,26.064 0,1.233 -0.294,2.385 -0.931,3.45 l -0.023,0.05 -0.052,0.036 c -14.339,15.646 -21.204,28.678 -30.853,46.443 -1.622,3.086 -4.069,12.299 -7.775,22.452 0.045,0.203 -1.346,4.121 -2.605,5.907 -1.28,1.736 -2.454,3.531 -2.427,4.579 0.022,0.5 0.153,0.81 0.695,1.21 0.531,0.365 1.543,0.729 3.106,0.945 l 0.036,0.014 0.065,0.009 0.533,0.139 c 0.346,0.032 1.244,0.176 1.392,0.189 l 0.027,-0.014 0.079,0.014 c 0.611,0.085 1.217,0.18 1.772,0.18 0.78,-0.027 1.475,-0.157 2.249,-0.71 3.542,-3.491 6.665,-6.838 8.826,-9.771 l 0.027,-0.032 c 0,0 3.299,-3.788 3.671,-4.521 0.351,-0.693 7.859,-7.202 9.006,-7.692 1.055,-0.441 9.144,-5.655 9.144,-5.655 3.331,-1.885 12.623,-8.335 12.623,-8.335 12.073,-5.533 32.772,-16.996 33.968,-18.493 l 0.032,-0.036 0.026,-0.032 c 0.863,-0.818 1.809,-1.151 2.676,-1.151 2.115,0.014 3.828,1.835 4.283,1.903 l 0.068,0.009 0.039,0.031 c 10.626,5.564 16.808,9.586 23.752,18.907 1.635,1.696 7.027,6.676 8.144,9.451 0,0 2.721,5.781 2.924,5.987 0.216,0.221 0.291,0.243 0.558,0.271 0.301,-0.027 2.119,-0.441 2.19,-0.441 0.999,-0.081 0.222,-6.874 0.222,-6.874 0.408,-4.881 0.242,-11.728 0.606,-15.47 -0.526,-9.762 -4.067,-20.9 -8.457,-30.725 -0.805,-2.16 -1.598,-4.035 -2.309,-5.709 -0.126,-0.238 -0.193,-0.459 -0.238,-0.576 -0.684,-1.602 -0.814,-1.718 -1.35,-2.802 l -0.014,-0.027 -0.495,-1.295 v -0.045 c -0.336,-1.642 -0.593,-3.019 -0.719,-4.008 v -0.076 -0.086 c 0.572,-3.751 2.951,-4.89 5.52,-8.628 1.592,-2.164 3.063,-4.111 4.701,-5.848 3.755,-6.608 5.497,-8.691 13.685,-16.285 1.569,-1.736 2.429,-2.641 4.277,-3.882 l 0.279,-0.175 2.425,-1.723 c 1.331,-1.003 1.624,-1.147 1.791,-1.759 l 0.018,-0.144 0.063,-0.099 c 0.311,-0.301 0.6,-0.481 0.746,-0.828 0.028,-0.067 0.072,-0.139 0.113,-0.198 -0.207,-0.153 -0.364,-0.279 -0.621,-0.4 l -0.045,-0.027 -0.04,-0.022 c 0,0 -0.015,0 -0.077,-0.027 -0.076,-0.032 -0.139,-0.068 -0.229,-0.104 -0.189,-0.036 -0.418,-0.113 -0.594,-0.216 -0.419,-0.171 -0.863,-0.288 -1.392,-0.49 l -0.373,-0.131 -2.986,-1.161 h -0.342 l -0.125,-0.036 c -3.218,-1.115 -6.542,-2.447 -9.775,-2.996 l -0.154,-0.031 -0.112,-0.086 c -0.598,-0.477 -2.83,-1.097 -5.659,-1.489 -2.865,-0.387 -6.404,-0.652 -9.972,-0.652 -5.247,0 -10.528,0.567 -13.587,1.912 l -2.146,0.846 c -1.583,0.864 -2.97,1.287 -4.256,1.287 -5.227,-0.18 -7.49,-6.019 -16.279,-9.366 L 181.011,85.427 180.975,85.4 C 169.126,78.751 156.418,73.996 145.32,70.91 c -7.152,-2.497 -15.192,-3.365 -22.515,-3.365 -6.627,-0.004 -12.662,0.712 -16.983,1.513"
       id="path4"
       style="fill:#6c3f97" /><path
       d="m 222.719,61.126 c 0.791,-12.56 -9.659,-23.604 -18.053,-30.163 -6.033,-5.659 -32.031,-18.898 -40.564,-16.158 1.04,-0.355 17.877,30.828 12.406,35.083 -0.642,-1.754 -9.37,-24.805 -12.546,-23.212 0.072,-0.081 11.125,32.34 11.54,33.851 2.127,8.462 5.807,13.721 12.501,17.441 11.592,6.397 32.556,-0.085 31.498,-16.213"
       id="path6"
       style="fill:#ee4023" /><path
       d="m 306.76,188.78 c -0.072,0.041 -0.676,-0.787 -0.676,-0.715 -6.342,1.476 -4.922,4.035 -5.672,10.504 -0.338,2.514 -2.479,0.728 -5.889,-0.653 0,0 -16.279,18.525 -24.201,23.954 -7.891,5.381 -12.961,9.128 -23.286,12.111 -15.875,4.588 -8.713,1.413 -11.322,-3.937 -18.21,1.341 -35.395,18.228 -53.128,22.92 -29.129,8.938 -50.702,17.858 -83.573,10.386 -29.492,-6.706 -23.088,-11.943 -33.61,-25.798 -15.803,18.677 -9.939,-6.528 -4.946,-14.931 -20.5,6.491 -27.897,20.359 -21.969,36.762 -1.142,-0.54 -12.405,-5.272 -14.875,-5.272 2.47,0.418 10.272,17.31 3.336,13.378 4.445,13.281 23.055,25.458 41.076,33.455 -4.478,-1.209 -8.923,-2.631 -13.304,-4.38 -6.554,-2.582 -23.644,-11.184 -25.331,-10.644 0.106,-0.04 -6.914,-4.467 -8.093,-9.34 -0.106,-0.454 -1.063,-0.796 -1.507,-0.67 -1.331,0.292 -3.34,-0.373 -3.533,1.174 -0.216,1.598 -0.268,3.217 0.014,4.818 0.069,0.382 0.922,2.992 -0.376,2.586 0,0 -1.563,-0.746 -2.596,-0.112 13.537,12.493 32.385,19.052 52.143,23.06 10.501,2.173 21.24,3.518 31.973,4.09 3.851,0.216 29.978,-0.374 32.392,-0.311 1.819,0.076 3.129,0.09 4.898,-0.238 2.173,-1.935 8.001,-2.632 11.042,-3.563 0.85,-0.252 1.597,-0.531 2.312,-0.819 6.872,-1.021 11.987,-2.117 12.63,-2.353 0.787,0.469 1.565,0.662 1.372,1.157 -0.301,0.724 -1.642,1.021 -1.642,1.021 -10.877,4.85 -19.651,7.526 -26.671,8.975 1.026,0.267 2.001,0.554 3.03,0.864 0.76,0.257 4.667,2.258 8.118,2.811 18.997,3.005 75.418,-19.275 98.413,-31.043 18.269,-9.371 31.88,-29.105 39.021,-43.636 l 4.877,2.492 c 20.826,-28.674 20.273,-50.312 20.273,-50.312 -1.791,-0.067 -1.49,-5.524 -0.72,-7.791"
       id="path8"
       style="fill:#a5cd39" /><path
       d="m 88.453,436.157 c 0,-12.587 10.194,-22.775 22.774,-22.775 12.592,0 22.794,10.188 22.794,22.775 0,9.776 -6.159,18.107 -14.792,21.346 -0.017,-0.27 -0.017,-0.539 -0.017,-0.827 0,-1.512 0.207,-2.996 0.593,-4.422 5.74,-3.051 9.669,-9.109 9.669,-16.097 0,-10.049 -8.191,-18.232 -18.248,-18.232 -10.049,0 -18.221,8.184 -18.221,18.232 0,10.068 8.172,18.237 18.221,18.237 0.417,0 0.853,-0.008 1.26,-0.059 -0.07,0.788 -0.108,1.553 -0.108,2.34 0,0.76 0.038,1.498 0.108,2.24 -0.43,0.026 -0.843,0.036 -1.26,0.036 -12.579,10e-4 -22.773,-10.202 -22.773,-22.794"
       id="path10"
       style="fill:#0081c3" /><path
       d="m 211.512,458.952 c -11.359,0 -20.752,-8.286 -22.479,-19.137 l 0.198,0.045 c 1.575,0.243 3.082,0.742 4.48,1.431 l 0.374,0.157 c 2.258,7.485 9.186,12.951 17.427,12.951 10.06,0 18.215,-8.178 18.215,-18.237 0,-10.059 -8.155,-18.232 -18.215,-18.232 -9.281,0 -16.941,6.946 -18.083,15.902 -0.688,-0.197 -1.571,-0.418 -2.268,-0.549 -0.648,-0.135 -1.513,-0.27 -2.205,-0.354 1.58,-11.048 11.07,-19.552 22.556,-19.552 12.577,0 22.763,10.193 22.763,22.785 0,12.587 -10.186,22.79 -22.763,22.79"
       id="path12"
       style="fill:#ed334e" /><path
       d="m 158.902,452.947 c -1.655,-0.244 -3.244,-0.738 -4.699,-1.449 l -0.364,-0.221 c -2.263,-7.463 -9.213,-12.906 -17.432,-12.906 -0.414,0 -0.823,0.026 -1.261,0.041 0.083,-0.779 0.135,-1.539 0.135,-2.313 0,-0.751 -0.052,-1.525 -0.104,-2.249 0.407,-0.027 0.816,-0.031 1.23,-0.031 11.342,0 20.737,8.286 22.495,19.128"
       id="path14"
       style="fill:#fbb031" /><path
       d="m 209.046,452.955 c -1.663,-0.238 -3.229,-0.746 -4.709,-1.457 l -0.343,-0.193 c -2.267,-7.48 -9.203,-12.92 -17.458,-12.92 -0.396,0 -0.814,0.013 -1.223,0.027 0.072,-0.752 0.107,-1.525 0.107,-2.313 0,-0.756 -0.035,-1.516 -0.104,-2.24 0.404,-0.022 0.836,-0.036 1.219,-0.036 11.351,0 20.757,8.282 22.511,19.132"
       id="path16"
       style="fill:#009c57" /><path
       d="m 138.926,432.839 c 1.57,-11.035 11.082,-19.538 22.549,-19.538 12.592,0 22.776,10.189 22.776,22.794 0,9.771 -6.15,18.112 -14.805,21.346 v -0.189 -0.647 c 0,-1.462 0.176,-2.896 0.527,-4.251 l 0.021,-0.148 c 5.772,-3.067 9.704,-9.127 9.704,-16.109 0,-10.085 -8.16,-18.25 -18.223,-18.25 -9.282,0 -16.914,6.946 -18.082,15.911 -0.69,-0.221 -1.565,-0.437 -2.26,-0.58 -0.658,-0.128 -1.507,-0.246 -2.207,-0.339"
       id="path18"
       style="fill:#231f20" /><path
       d="m 139,439.729 c 1.656,0.27 3.222,0.747 4.699,1.476 l 0.352,0.176 c 2.271,7.499 9.212,12.929 17.447,12.929 0.405,0 0.841,0.019 1.26,-0.018 -0.077,0.787 -0.1,1.476 -0.1,2.271 0,0.746 0.041,1.493 0.1,2.222 -0.409,0.036 -0.864,0.09 -1.26,0.09 -11.348,0 -20.741,-8.299 -22.498,-19.146"
       id="path20"
       style="fill:#231f20" /><path
       d="m 113.627,456.604 c 0,-9.766 6.15,-18.106 14.765,-21.345 0.013,0.27 0.027,0.544 0.027,0.836 0,1.512 -0.211,3.001 -0.576,4.396 -5.744,3.067 -9.665,9.118 -9.665,16.113 0,10.063 8.174,18.224 18.228,18.224 9.26,0 16.892,-6.905 18.068,-15.831 1.437,0.433 2.948,0.734 4.469,0.9 -1.592,11.009 -11.08,19.47 -22.537,19.47 -12.59,-0.001 -22.779,-10.19 -22.779,-22.763"
       id="path22"
       style="fill:#fbb031" /><path
       d="m 163.778,456.604 c 0,-9.766 6.132,-18.106 14.778,-21.345 0.014,0.27 0.027,0.544 0.027,0.836 0,1.512 -0.23,3.001 -0.576,4.396 -5.767,3.067 -9.676,9.118 -9.676,16.113 0,10.063 8.16,18.224 18.205,18.224 9.271,0 16.919,-6.905 18.079,-15.831 1.426,0.433 2.942,0.734 4.473,0.9 -1.579,11.009 -11.076,19.47 -22.552,19.47 -12.559,-0.001 -22.758,-10.19 -22.758,-22.763"
       id="path24"
       style="fill:#009c57" /><path
       d="m 49.411,337.29 c -0.733,-1.993 -2.825,-3.085 -4.369,-3.631 -1.178,-0.521 -5.011,-1.138 -5.956,-0.234 0.12,-0.112 4.584,3.496 4.142,4.468 -0.203,-0.23 -2.276,-2.52 -2.598,-2.088 0.022,-0.017 3.028,3.576 3.173,3.803 0.821,1.165 1.881,1.609 3.003,1.798 1.95,0.333 3.801,-1.696 2.605,-4.116"
       id="path26"
       style="fill:#ee4023" /><path
       d="m 255.467,349.192 c 0.184,9.699 9.008,5.862 8.971,-2.446 -0.083,-13.329 -12.749,-13.837 -8.971,2.446 m 4.955,9.633 c -16.268,0 -14.432,-27.401 2.396,-26.753 12.057,0.571 9.713,26.753 -2.396,26.753"
       id="path28"
       style="fill:#ee4023" /><path
       d="m 279.084,362.032 c -5.988,-2.003 -5.244,-35.292 0.877,-29.295 2.305,2.304 4.598,4.184 2.748,8.966 -0.094,4.468 -0.875,17.841 -3.625,20.329"
       id="path30"
       style="fill:#ee4023" /><path
       d="m 293.525,346.867 c -1.494,6.082 -0.123,11.376 6.514,7.152 4.008,-2.551 4.564,-12.208 3.643,-16.819 -1.75,-8.503 -10.723,5.375 -10.157,9.667 m 2.479,13.316 c -5.367,0.131 -9.51,-3.526 -9.068,-11.895 0.826,-3.869 0.76,-8.114 3.035,-11.511 2.631,-2.097 3.949,-2.979 6.631,-4.958 6.434,0.559 11.795,-0.976 12.699,9.168 1.053,11.328 -4.778,16.915 -13.297,19.196"
       id="path32"
       style="fill:#ee4023" /><path
       d="m 44.625,361.415 c -5.165,-1.053 -1.534,-10.769 -2.166,-13.991 0.083,-4.321 0.812,-4.245 4.154,-4.245 4.69,2.05 0.681,18.754 -1.988,18.236"
       id="path34"
       style="fill:#6c3f97" /><path
       d="m 74.049,362.954 c -5.191,-0.774 -9.526,-5.201 -13.667,-8.313 -0.061,1.146 -0.315,2.714 -0.605,3.864 -0.455,1.894 -2.445,2.789 -4.375,1.93 -0.976,-0.437 -1.981,-2.406 -1.917,-4.525 0.045,-2.608 0.212,-5.681 0.365,-7.136 1.248,-12.726 4.73,-4.021 9.534,0.631 3.178,3.086 5.205,4.517 5.266,4.534 2.576,0.378 -1.446,-13.077 4.951,-12.748 3.06,0.315 2.992,20.908 0.448,21.763"
       id="path36"
       style="fill:#6c3f97" /><path
       d="m 95.487,363.277 c -2.467,0 -1.984,-3.923 -3.601,-4.817 -1.188,-0.707 -5.906,2.434 -8.075,1.997 -6.233,-3.698 -6.615,-5.659 -2.11,-12.169 2.173,-3.161 5.122,-6.782 8.216,-8.942 1.429,-1.063 6.003,-1.281 6.003,1.462 0,1.655 -15.974,18.692 -9.978,15.15 3.234,-1.97 5.992,-1.97 6.772,-5.748 0.934,-2.874 2.492,-1.688 3.491,-1.185 2.377,1.126 5.578,2.07 1.943,3.677 -3.106,1.286 0.652,10.575 -2.661,10.575"
       id="path38"
       style="fill:#6c3f97" /><path
       d="m 155.69,359.796 c 2.253,0.437 5.128,-3.653 5.916,-6.101 3.748,-11.52 -8.286,-8.74 -8.237,-1.65 0.018,5.956 0.513,6.712 2.321,7.751 m 2.587,4.772 c -11.938,-0.18 -14.272,-17.165 -3.305,-21.809 3.493,-1.476 11.577,-0.814 12.796,3.887 2.106,8.017 -3.22,14.833 -9.491,17.922"
       id="path40"
       style="fill:#6c3f97" /><path
       d="m 177.648,352.392 c 1.294,-1.124 7.214,-5.097 6.161,-7.009 -0.875,-1.61 -2.599,-1.323 -3.962,-0.251 -0.019,-0.033 -2.083,1.183 -2.25,2.355 0.001,0 0.051,3.883 0.051,4.905 m -0.567,10.18 c -1.795,-0.063 -4.98,-12.159 -5.259,-13.727 -0.445,-2.456 -1.471,-3.67 0.095,-5.572 1.754,-2.083 4.575,-2.538 7.094,-2.84 3.391,-0.418 11.555,-1.655 13.387,2.858 1.115,2.766 -7.656,9.126 -9.464,10.763 2.284,1.319 4.845,1.67 7.351,2.412 1.146,0.369 2.649,0.378 3.229,1.597 0.446,0.883 -0.679,1.732 -1.462,1.939 -2.726,0.76 -6.167,-0.585 -8.839,-1.07 -0.876,-0.166 -3.962,-1.602 -4.161,-0.226 -0.369,3.042 -0.15,3.411 -1.971,3.866"
       id="path42"
       style="fill:#6c3f97" /><path
       d="m 208.002,361.479 c -1.19,0.192 -5.384,0.607 -7.291,0 0,0 -2.214,-3.055 -3.315,-5.794 -1.637,-2.446 -1.106,-15.143 -1.058,-15.057 0.868,-1.063 8.286,-2.357 9.632,-2.483 1.377,-0.131 7.013,-1.655 7.49,1.003 0.473,2.888 -6.919,2.798 -8.624,3.428 -1.256,0.464 -4.071,2.15 -2.829,3.855 1.452,1.66 9.662,-3.248 7.584,1.381 -1.309,2.938 -5.726,2.56 -7.045,5.313 -0.408,0.863 -0.336,2.303 0.334,2.938 3.634,3.438 7.291,-0.805 10.054,-2.362 1.079,-0.629 4.044,2.069 3.359,2.767 -3.072,3.224 -4.695,3.756 -8.291,5.011"
       id="path44"
       style="fill:#6c3f97" /><path
       d="m 30.506,356.755 c 0.655,-0.716 0.347,-1.579 0.239,-1.938 -0.401,-1.521 -3.284,-2.573 -5.426,-3.23 l -0.198,-0.063 c -3.985,-1.24 -8.835,-3.958 -10.504,-7.773 -0.832,-1.938 -0.818,-3.999 0.088,-6.162 2.631,-6.425 9.582,-11.342 15.081,-12.835 2.11,-0.565 3.963,-0.18 6.206,1.313 0.962,0.649 1.239,2.276 0.917,3.415 -0.162,0.521 -0.623,1.655 -1.937,1.594 -2.656,-0.118 -11.644,6.917 -12.303,10.989 -0.248,1.345 0.72,2.146 1.446,2.532 l 0.241,0.13 c 10.254,6.127 14.777,11.477 13.086,15.228 -2.758,6.127 -9.982,5.362 -15.266,4.782 l -0.641,-0.08 c -2.924,-0.582 -3.536,-1.472 -3.536,-3.097 0,-0.517 0.054,-1.119 0.132,-1.79 0,0 0.106,-1.457 0.115,-1.87 0.619,-0.221 1.766,0.565 2.694,1.253 0.787,0.567 2.299,0.788 2.927,0.914 4.253,0.727 6.639,-3.312 6.639,-3.312"
       id="path46"
       style="fill:#6c3f97" /><path
       d="m 116.751,357.286 c -0.024,-0.063 -4.013,0.44 -5.783,0.559 -2.814,0.192 -3.57,0.372 -3.109,-2.106 0.479,-2.649 2.313,-7.514 3.731,-8.867 1.338,-1.301 6.331,8.866 5.161,10.414 m 7.771,4.193 c -2.303,-6.313 -5.202,-12.893 -7.652,-19.172 -1.516,-3.919 -2.76,-2.808 -5.854,-4.824 -3.847,2.083 -4.755,7.252 -5.947,11.31 -0.918,3.213 -3.961,13.141 -4.488,14.531 -0.73,1.894 3.512,4.129 4.641,2.007 1.078,-2.007 1.183,-2.457 3.381,-2.754 -0.088,0 9.033,-1.565 10.243,-1.318 1.594,0.993 5.676,4.052 5.676,0.22"
       id="path48"
       style="fill:#6c3f97" /><path
       d="m 139.149,345.711 c -1.775,1.584 -6.852,4.354 -6.852,4.354 -0.184,-0.049 -0.796,-0.903 -1.064,-2.729 -1.524,-8.35 13.965,-6.852 7.916,-1.625 m 6.555,-6.653 c -6.768,-3.927 -21.541,0.211 -21.541,0.288 -0.009,0.525 0.803,9.23 1.775,12.758 0.631,2.213 4.03,13.072 4.03,13.072 7.076,-0.621 2.911,-6.153 3.187,-9.573 0.185,-1.996 6.667,-4.602 7.81,-5.228 2.062,-1.056 6.531,-3.944 6.531,-4.07 0,-0.77 0.063,-3.473 -0.398,-4.565"
       id="path50"
       style="fill:#6c3f97" /><path
       d="m 242.314,354.447 c -4.233,1.74 -10.09,4.093 -5.524,-2.438 2.397,-3.375 12.457,-16.087 8.438,-19.151 -3.014,-4.138 -14.688,-4.129 -18.911,-2.879 -3.977,1.144 -4.768,4.513 -4.768,4.513 0,0 -0.033,2.344 0.791,3.247 0.458,0.5 0.869,2.165 3.977,-0.513 2.627,-2.263 7.895,-1.443 11.039,0.486 2.628,1.619 -8.929,13.698 -11.934,20.288 -1.247,2.771 -2.011,4.65 2.763,6.742 5.51,-0.691 12.023,-2.815 16.922,-5.451 7.77,-4.16 4.701,-8.069 -2.793,-4.844"
       id="path52"
       style="fill:#ee4023" /><path
       d="m 35.688,383.858 c -0.36,0.103 -1.555,-1.826 -1.642,-1.943 -0.299,-0.405 -1.773,-2.38 -2.027,-2.641 -0.625,-0.661 -1.298,-0.805 -1.723,-0.837 -0.409,-0.018 -0.801,0.04 -0.967,0.158 -0.313,0.225 -0.369,1.069 -0.207,1.357 0.215,0.4 0.778,1.206 0.976,1.418 1.35,1.529 2.294,2.352 2.369,2.451 0.092,0.1 2.251,2.114 2.18,2.759 -0.025,0.272 0.11,7.69 0.11,8.178 -0.022,0.589 -0.014,0.624 0.079,1.191 0.072,0.485 0.286,0.937 0.608,0.937 0.294,0 0.632,-0.063 0.958,-0.218 0.281,-0.116 0.59,-0.264 0.729,-0.637 0.119,-0.257 0.059,-0.591 0.041,-0.973 -0.022,-0.301 -0.009,-1.439 -0.022,-1.705 0,-0.327 -0.052,-2.244 -0.029,-2.622 0.029,-0.409 0.051,-3.888 0.069,-4.211 0,-0.314 0.105,-0.62 0.231,-0.779 0.142,-0.151 0.916,-1.438 2.119,-2.433 0.243,-0.242 2.744,-2.446 2.955,-2.664 0.302,-0.346 0.567,-0.629 0.619,-0.737 0.102,-0.282 0.203,-0.589 0.203,-1.002 0,-0.393 -0.11,-0.734 -0.443,-0.788 -0.216,-0.05 -0.52,-0.08 -0.925,0.018 -0.825,0.267 -2.87,2.133 -4.078,3.505 -0.35,0.392 -1.931,2.111 -2.183,2.218"
       id="path54"
       style="fill:#231f20" /><path
       d="m 147.746,385.01 c -0.52,-0.261 -2.946,-3.743 -3.297,-4.175 -0.25,-0.278 -0.558,-0.481 -0.708,-0.558 -0.131,-0.04 -0.518,-0.13 -0.886,-0.166 -0.371,-0.019 -0.769,0 -0.92,0.067 -0.548,0.467 -0.544,0.869 -0.123,1.35 0.188,0.233 0.796,0.922 1.082,1.237 0.142,0.147 2.357,2.6 2.667,2.933 0.322,0.378 1.289,1.192 1.224,1.776 -0.032,0.253 0.101,7.967 0.193,8.48 0.097,0.427 0.25,0.868 0.544,0.868 0.254,0 1.372,-0.242 1.507,-0.791 0.036,-0.257 0.083,-0.514 0.068,-0.892 -0.032,-0.346 -0.068,-2.924 -0.068,-3.063 -0.018,-0.126 0.115,-3.603 0.115,-3.904 0,-0.171 -0.009,-0.959 0.157,-1.44 0.178,-0.549 0.677,-1.25 1.165,-1.669 0.128,-0.135 2.483,-2.046 2.796,-2.37 0.193,-0.198 0.447,-0.405 0.645,-0.594 0.282,-0.292 0.493,-0.576 0.556,-0.671 0.083,-0.134 0.163,-0.53 0.163,-0.899 0,-0.359 -0.07,-0.724 -0.36,-0.787 -0.299,-0.036 -0.708,0.054 -1.109,0.171 -0.812,0.222 -3.124,2.727 -3.501,3.05 -0.342,0.328 -1.823,1.817 -1.91,2.047"
       id="path56"
       style="fill:#231f20" /><path
       d="m 53.151,388.893 c -1.143,1.3 -2.686,2.005 -2.994,2.164 -0.254,0.139 -1.525,0.554 -1.903,0.675 -0.374,0.126 -1.345,0.292 -1.631,0.311 -0.36,0.04 -0.76,0.025 -1.125,-0.019 -0.396,-0.04 -0.646,-0.221 -0.832,-0.359 -0.209,-0.189 -0.342,-0.456 -0.364,-0.829 0,-0.256 0.083,-0.557 0.155,-0.918 0.051,-0.306 0.157,-0.634 0.299,-0.931 0.126,-0.318 0.231,-0.616 0.411,-0.914 0.16,-0.291 0.65,-1.182 1.083,-1.627 0.62,-0.693 1.169,-0.937 1.758,-1.093 0.774,-0.227 3.239,0.026 3.88,0.445 0.273,0.175 0.52,0.372 0.705,0.602 0.236,0.253 0.378,0.522 0.501,0.779 0.18,0.354 0.295,0.66 0.304,0.894 0.025,0.261 -0.04,0.563 -0.247,0.82 m 1.599,-3.54 c -0.738,-0.859 -1.559,-1.436 -2.548,-1.746 -1.275,-0.449 -3.284,-0.616 -4.496,-0.612 -0.498,0.023 -0.884,0.122 -1.028,0.148 -0.666,0.118 -1.483,0.813 -1.773,1.058 -0.258,0.207 -1.266,1.192 -2.303,3.428 -0.457,1.031 -0.769,2.65 -0.796,2.987 -0.056,0.408 -0.029,0.918 0.097,1.224 0.176,0.427 0.603,1.039 0.938,1.317 0.281,0.24 0.684,0.464 0.992,0.595 0.471,0.202 1.41,0.444 1.732,0.472 0.493,0.067 1.46,0.036 1.768,0 0.324,-0.045 1.559,-0.287 1.838,-0.396 0.323,-0.107 1.433,-0.513 1.867,-0.716 0.506,-0.243 1.354,-0.733 1.583,-0.867 0.328,-0.221 2.033,-1.377 2.249,-1.629 0.198,-0.203 0.405,-0.45 0.544,-0.761 0.106,-0.261 0.198,-0.558 0.256,-0.904 0.056,-0.282 0.115,-0.567 0.074,-0.917 -0.132,-1.468 -0.825,-2.506 -0.994,-2.681"
       id="path58"
       style="fill:#231f20" /><path
       d="m 124.892,387.269 c -0.272,0.323 -2.603,2.636 -6.818,3.279 -0.443,0.067 -2.418,0.257 -2.726,0.211 -0.49,-0.031 -0.834,-0.18 -1.055,-0.377 -0.272,-0.243 -0.443,-0.581 -0.443,-1.048 -0.009,-0.32 0.396,-1.913 0.549,-2.309 0.16,-0.373 0.295,-0.77 0.511,-1.129 0.216,-0.352 2.54,-3.285 4.795,-3.608 0.004,-0.008 0.047,-0.008 0.074,-0.008 0.378,-0.037 0.833,-0.063 1.318,-0.028 1.246,0.063 2.537,0.908 3.104,1.553 0.267,0.323 0.461,0.685 0.616,0.985 0.203,0.432 0.355,0.809 0.387,1.106 0.013,0.324 0.061,0.931 -0.312,1.373 m 2.188,-4.527 c -1.194,-1.367 -2.519,-2.352 -3.947,-2.855 -0.843,-0.314 -3.304,-0.373 -3.745,-0.334 -7.877,0.9 -9.255,9.214 -8.579,10.774 0.208,0.419 0.866,2.996 4.258,3.267 2.528,0.188 4.485,-0.42 4.863,-0.546 0.398,-0.116 1.871,-0.683 2.22,-0.809 2.396,-0.968 4.598,-2.866 4.878,-3.167 0.241,-0.257 0.498,-0.563 0.677,-0.957 0.121,-0.315 0.241,-0.694 0.315,-1.131 0.063,-0.332 0.11,-0.711 0.128,-1.146 0.036,-1.115 -0.341,-2.28 -1.068,-3.096"
       id="path60"
       style="fill:#231f20" /><path
       d="m 60.677,384.979 c -0.074,-0.608 -0.126,-0.797 -0.576,-1.257 -0.185,-0.184 -1.066,-0.462 -1.415,-0.282 -0.378,0.18 -0.668,0.607 -0.761,1.115 -0.083,0.504 0.382,7.837 0.488,8.584 0.013,0.237 0.423,1.011 1.087,1.187 0.369,0.09 0.87,0.09 1.484,-0.314 0.4,-0.251 5.274,-3.882 5.468,-4.12 0.405,0.854 0.639,3.882 2.81,4.898 0.575,0.279 1.248,0.354 2.083,-0.023 0.598,-0.264 0.902,-0.549 1.138,-0.787 0.681,-0.729 0.749,-0.881 0.101,-1.15 -0.913,-0.388 -1.507,-0.437 -1.946,-0.107 -1.113,0.791 -1.741,-2.106 -1.86,-2.767 -0.11,-0.528 -0.074,-1.162 -0.036,-1.886 0.018,-0.58 0.067,-1.179 0.225,-1.862 0.322,-0.662 0.544,-2.007 0,-2.461 -0.54,-0.437 -1.028,-0.359 -1.332,-0.14 -0.322,0.189 -0.497,0.274 -0.751,0.832 -0.291,0.67 -0.396,2.289 -0.727,2.65 -0.218,0.216 -3.761,3.216 -3.879,3.298 -0.3,0.229 -1.354,1.277 -1.802,1.15 -0.146,-0.04 -0.331,-0.728 -0.353,-1.453 -0.022,-0.562 0.041,-3.914 0.207,-4.255 0.147,-0.32 0.352,-0.607 0.347,-0.85"
       id="path62"
       style="fill:#231f20" /><path
       d="m 81.177,383.143 c -3.18,0.032 -6.565,0 -6.662,0 -0.299,0 -1.108,-0.152 -1.298,-0.152 -0.209,0 -0.474,-0.144 -0.774,0.036 -0.323,0.202 -0.802,0.666 -0.72,1.053 0.041,0.18 0.198,0.554 0.439,0.85 0.27,0.333 0.607,0.58 0.778,0.58 0.171,0 1.516,-0.14 1.732,-0.121 0.216,0.019 1.741,-0.383 2,0.019 0.326,0.559 -0.117,5.768 -0.135,6.428 0,0.514 0.079,1.704 0.222,1.98 0.146,0.319 0.363,0.58 0.758,0.539 0.328,-0.027 0.553,-0.131 0.72,-0.207 0.567,-0.185 0.511,-0.801 0.549,-1.317 0.027,-0.248 0.317,-7.41 0.511,-7.481 0.193,-0.086 0.819,-0.171 1.341,-0.207 0.493,-0.035 5.366,-0.383 5.458,-0.383 0.105,0 0.69,-1.057 0.774,-1.259 0.141,-0.464 0.225,-0.432 -0.031,-0.509 -0.329,-0.055 -2.914,0.102 -5.662,0.151"
       id="path64"
       style="fill:#231f20" /><path
       d="m 91.022,386.363 c -0.218,-0.378 -0.079,-3.786 -0.218,-4.021 -0.159,-0.229 -0.546,-0.514 -1.206,-0.514 -0.637,0 -0.98,0.284 -1.098,0.675 -0.036,0.136 0.025,0.522 -0.022,0.946 -0.022,0.301 -0.184,8.214 -0.184,8.276 0,0.054 0.092,0.598 0.207,1.124 0.117,0.415 0.245,0.847 0.513,0.977 0.299,0.131 0.646,0.188 0.931,0.201 0.354,0.015 0.635,-0.07 0.7,-0.471 0.045,-0.217 0.069,-1.724 0.069,-2.088 0,-0.359 0.023,-2.339 -0.024,-2.496 -0.102,-0.504 1.3,-0.388 1.498,-0.45 0.299,-0.077 5.252,-0.18 5.228,-0.103 0.398,0.336 0.198,5.294 0.218,5.743 0.045,0.378 -0.047,0.666 0.291,0.666 0.169,0 0.713,0.019 1.152,-0.206 0.285,-0.168 0.488,-0.478 0.488,-0.985 0,-0.266 0.088,-1.454 0.115,-1.741 0.018,-0.325 -0.124,-3.234 0.171,-3.527 0.427,-0.432 1.79,-0.517 2.348,-0.769 0.405,-0.181 0.378,-0.203 0.765,-0.423 0.875,-0.352 0.448,-1.368 0.221,-1.381 -0.484,0 -0.484,0.049 -0.962,0.036 -0.484,0 -2.137,0.265 -2.187,0.144 -0.025,-0.081 -0.016,-2.042 -0.016,-2.317 0,-0.589 0.065,-0.903 0.065,-1.156 0,-0.242 0.038,-0.391 -0.11,-0.485 -0.148,-0.086 -0.176,-0.208 -0.461,-0.189 -0.155,0.027 -1.415,-0.076 -1.618,0.027 -0.404,0.239 -0.611,0.352 -0.769,0.99 -0.146,0.463 0.29,1.668 0.259,1.831 -0.052,0.139 0.096,1.362 -0.083,1.479 -0.436,0.293 -1.939,0.188 -2.092,0.188 -0.334,0.002 -3.996,-0.02 -4.189,0.019"
       id="path66"
       style="fill:#231f20" /><path
       d="m 133.94,383.868 c 0.063,-0.474 -0.034,-1.408 -0.227,-1.81 -0.203,-0.387 -0.65,-0.71 -1.109,-0.579 -0.465,0.134 -1.075,0.801 -1.156,1.19 -0.034,0.203 -0.25,1.126 -0.32,2.079 -0.067,0.954 -0.423,4.192 -0.423,4.458 0,0.274 -0.176,1.656 0.286,2.457 0.221,0.386 0.672,1.412 2.071,1.492 0.398,0.018 5.59,-0.363 6.137,-0.508 0.526,-0.14 1.244,-0.14 2.492,-0.351 0.932,-0.167 1.525,-0.347 1.792,-0.666 0.254,-0.342 0.387,-1.476 -0.54,-1.476 -0.942,0 -1.064,0.162 -2.115,0.338 -0.938,0.148 -4.615,0.563 -5.481,0.665 -0.897,0.121 -2.132,0.027 -2.146,-1.003 -0.004,-0.599 0.014,-1.332 0.102,-1.979 0.088,-1.069 0.572,-3.826 0.637,-4.307"
       id="path68"
       style="fill:#231f20" /><path
       d="m 158.115,382.1 c -0.369,-0.284 -0.494,-0.302 -0.886,-0.171 -0.391,0.13 -1.273,1.269 -1.273,1.57 0,0.297 0.185,0.423 0.185,0.845 0.018,1.48 -1.021,4.796 -1.705,7.01 -0.216,0.724 -0.274,1.097 -0.15,1.476 0.124,0.386 0.936,1.146 1.723,0.512 0.776,-0.665 2.175,-7.396 2.377,-7.143 1.255,1.641 2.231,3.166 2.357,3.359 0.27,0.437 0.589,1.436 0.634,1.575 0.05,0.139 0.675,0.746 1.215,0.478 0.508,-0.257 5.042,-5.34 5.124,-5.391 0.09,1.251 0.643,5.444 0.683,5.701 0.091,0.557 0.972,1.578 1.715,1.578 0.75,0 1.304,-0.441 1.367,-0.797 0.041,-0.337 -0.639,-1.363 -0.719,-1.674 -0.091,-0.301 -0.311,-2.397 -0.405,-3.279 -0.071,-0.858 -0.463,-4.021 -0.463,-4.215 0,-0.166 -0.005,-0.337 0.009,-0.688 0.027,-0.68 0.093,-0.566 -0.792,-1.018 -0.859,-0.427 -0.859,-0.674 -1.453,-0.161 -0.549,0.458 -0.788,1.588 -0.967,1.967 -0.459,0.908 -0.608,1.078 -1.134,1.583 -0.477,0.48 -3.014,3.126 -3.014,3.126 -0.447,-0.454 -4.091,-6 -4.428,-6.243"
       id="path70"
       style="fill:#231f20" /><path
       d="m 247.816,381.3 c -0.824,0.269 -1.256,0.705 -1.256,1.573 0,0.302 0.163,0.477 0.197,0.878 0.082,0.742 -1.543,6.257 -1.723,6.981 -0.156,0.742 -0.273,1.102 -0.144,1.484 0.131,0.409 0.927,1.156 1.715,0.485 0.8,-0.643 0.544,-1.259 0.629,-1.592 0.095,-0.352 1.517,-5.781 1.741,-5.52 1.373,1.516 2.231,3.161 2.372,3.346 0.125,0.177 0.598,1.453 0.643,1.579 0.045,0.127 0.65,0.733 1.191,0.459 0.537,-0.238 0.553,-0.485 1.039,-1.039 0.604,-0.706 1.881,-1.866 1.98,-1.997 0.059,-0.139 2.027,-2.313 2.119,-2.34 0.754,1.08 0.656,5.444 0.688,5.71 0.066,0.485 0.967,1.56 1.709,1.56 0.752,0 1.314,-0.427 1.363,-0.772 0.051,-0.359 -0.639,-1.373 -0.721,-1.684 -0.084,-0.323 -0.291,-2.41 -0.391,-3.27 -0.096,-0.872 -0.49,-4.054 -0.49,-4.221 v -0.705 c 0.041,-0.388 -0.342,-0.788 -0.756,-0.994 -0.877,-0.441 -0.869,-0.688 -1.457,-0.175 -0.545,0.462 -0.801,0.917 -0.801,1.114 0,0.23 -0.033,0.437 -0.172,0.828 -0.404,0.896 -0.18,0.806 -1.123,1.704 -0.527,0.482 -2.309,2.372 -2.529,2.562 -0.314,0.238 -0.486,0.453 -0.486,0.453 -0.35,-0.53 -2.217,-3.05 -2.514,-3.491 -0.334,-0.476 -1.242,-1.825 -1.295,-1.961 -0.094,-0.314 -0.804,-1.203 -1.528,-0.955"
       id="path72"
       style="fill:#231f20" /><path
       d="m 181.462,386.04 c -0.284,0.243 -2.154,0.959 -2.689,1.049 -0.293,0.054 -1.732,0.49 -1.732,0.49 l 0.144,-0.554 c 0,0 0.225,-1.745 0.257,-1.962 0.059,-0.21 0.059,-1.079 0.059,-1.079 1.237,-0.198 4.324,0.854 4.521,1.447 0.097,0.277 -0.456,0.534 -0.56,0.609 m 1.755,-2.698 c -0.107,-0.027 -1.364,-0.675 -1.925,-0.874 -1.376,-0.476 -4.278,-0.993 -5.695,-1.029 -0.603,-0.01 -2.181,-0.036 -2.928,0.377 -0.324,0.189 -0.509,0.721 -0.509,0.721 -0.35,0.701 0.936,2.097 0.854,1.957 -0.063,-0.096 2.141,-0.612 2.12,-0.599 -0.189,0.854 -0.369,1.957 -0.586,3.77 -0.013,0.252 -0.068,0.342 -0.224,0.423 -0.163,0.063 -0.451,0.091 -0.694,0.091 -0.247,0 -0.709,0.021 -0.859,0.021 -0.136,0 -0.161,0.091 -0.161,0.091 0,0 0.161,0.403 0.341,0.646 0.262,0.388 0.616,1.021 0.679,1.039 0.077,0.032 0.154,0.06 0.397,-0.008 0.224,-0.051 0.243,0.157 0.243,0.157 0,0 0.229,0.742 0.229,0.944 0,0.216 0.199,0.954 0.311,1.396 0.122,0.432 0.427,1.232 1.632,0.957 1.193,-0.27 1.125,-1.237 1.116,-1.317 -0.044,-0.108 -0.359,-0.494 -0.409,-0.621 -0.036,-0.104 -0.162,-0.616 -0.162,-0.904 0,-0.301 0.126,-0.896 0.126,-0.896 0,0 0.842,-0.189 0.935,-0.216 0.091,-0.026 1.504,-0.337 1.701,-0.396 0.197,-0.059 2.074,-0.576 3.347,-1.408 0.459,-0.297 1.755,-1.209 1.705,-2.438 -0.042,-1.047 -1.247,-1.718 -1.584,-1.884"
       id="path74"
       style="fill:#231f20" /><path
       d="m 189.631,382.774 c -0.013,-0.197 -0.031,-0.428 -0.134,-0.607 -0.154,-0.405 -0.568,-0.549 -0.941,-0.639 -0.301,-0.082 -0.588,0 -0.878,0.117 -0.323,0.126 -0.534,0.18 -0.632,0.521 -0.119,0.41 -0.384,5.2 -0.424,6.172 -0.032,0.635 0.04,2.563 0.117,2.869 0.076,0.437 0.135,1.188 0.472,1.517 0.467,0.449 1.457,0.634 1.894,0.076 0.17,-0.233 0.279,-0.503 0.347,-0.777 0.081,-0.267 -0.153,-0.656 -0.229,-0.891 -0.117,-0.298 -0.131,-0.607 -0.186,-0.927 -0.004,-0.193 -0.049,-0.387 -0.029,-0.6 0.025,-0.175 -0.033,-0.983 0.025,-1.228 0.019,-0.193 0.141,-2.581 0.189,-2.933 0.028,-0.182 0.378,-2.049 0.409,-2.67"
       id="path76"
       style="fill:#231f20" /><path
       d="m 201.908,384.489 c -0.229,-0.99 -0.517,-1.526 -1.35,-2.146 -0.859,-0.675 -2.613,-1.444 -3.978,-1.027 -1.357,0.384 -2.148,1.152 -2.806,2.009 -0.325,0.418 -0.967,1.655 -0.967,1.655 0,0 -0.621,1.556 -0.733,2.15 -0.131,0.579 -0.611,2.774 0.485,4.422 0.571,0.862 1.277,1.137 2.186,1.438 1.014,0.355 2.876,0.266 3.631,0.072 1.971,-0.481 4.877,-2.316 5.381,-2.807 0.152,-0.18 1.191,-1.116 0.989,-1.98 -0.026,-0.152 -0.517,-0.611 -0.863,-0.611 -0.369,0 -1.619,1.029 -1.745,1.156 -0.171,0.171 -1.306,0.922 -1.504,1.034 -0.192,0.121 -2.001,1.242 -3.923,1.111 -1.655,-0.099 -2.495,-0.701 -2.622,-2.289 -0.044,-0.581 0.459,-1.967 0.801,-2.699 0.185,-0.433 1.192,-2.663 3.239,-2.304 0.203,0.054 0.95,0.122 1.076,0.428 0.121,0.324 0.084,1.322 0.318,2.194 0.027,0.159 0.473,0.352 0.746,0.397 0.289,0.04 2.017,-0.459 1.639,-2.203"
       id="path78"
       style="fill:#231f20" /><path
       d="m 223.735,382.019 c 0,0 -4.967,-0.423 -9.209,2.776 -1.317,1.003 -2.059,1.84 -1.543,3.117 0.369,0.881 1.818,1.106 2.808,1.106 0.697,0 2.245,-0.325 2.789,-0.446 0.747,-0.156 3.014,-0.714 3.581,-0.872 0.593,-0.108 0.882,-0.162 0.918,-0.298 0.049,-0.151 0.139,-0.151 0.139,-0.611 0,-0.467 -0.949,-1.192 0.487,-1.476 0.781,-0.175 1.739,0.283 1.974,0.41 0.229,0.144 1.017,0.473 0.913,0.922 -0.27,1.341 -0.652,3.464 -0.652,3.671 0.063,1.191 0.46,4.395 0.481,4.624 0.054,0.527 -0.352,0.945 -1.026,1.095 -0.684,0.165 -1.561,-0.068 -1.893,-1.072 -0.393,-1.111 -0.514,-2.02 -0.514,-2.428 0,-0.415 -0.13,-2.426 -0.13,-2.426 0,0 -0.711,0.17 -1.162,0.4 -0.503,0.288 -2.077,0.662 -2.644,0.773 -1.755,0.359 -3.235,0.441 -4.872,0.229 -0.725,-0.094 -1.323,-0.314 -1.979,-0.54 -0.262,-0.098 -2.169,-0.84 -2.271,-2.923 -0.036,-0.838 0.459,-2.376 1.063,-3.213 2.585,-3.519 7.776,-4.961 8.726,-5.313 1.301,-0.454 3.081,-0.634 3.784,-0.607 1.803,0.076 2.063,0.94 2.082,1.017 0.043,0.366 0.323,1.895 -1.85,2.085"
       id="path80"
       style="fill:#231f20" /><path
       d="m 237.896,386.868 c -0.521,0.09 -3.126,0 -3.126,0 l 2.33,-3.176 c 0.113,0.436 1.592,3.05 0.796,3.176 m 6.061,5.546 c -0.046,-0.337 -0.587,-0.643 -0.834,-0.827 -0.22,-0.14 -0.404,-0.302 -0.603,-0.481 -0.499,-0.463 -1.321,-2.245 -1.471,-2.52 -0.171,-0.242 -0.022,-0.342 0.198,-0.387 0.359,-0.05 1.602,-0.256 1.69,-0.248 0.401,0.063 1.019,-0.854 0.981,-1.2 -0.009,-0.352 -0.494,-0.388 -0.733,-0.441 -0.215,-0.026 -1.857,-0.026 -2.442,-0.039 -0.379,0 -0.355,0.025 -0.396,-0.306 -0.053,-0.374 -0.599,-1.886 -0.841,-2.466 -0.122,-0.288 -1.497,-3.32 -2.298,-3.361 -0.766,0 -2.043,2.259 -2.2,2.556 -0.306,0.535 -1.454,2.146 -1.602,2.379 -0.171,0.284 -0.908,1.345 -1.396,1.383 -0.22,0 -0.719,-0.092 -0.826,0.151 -0.087,0.226 -0.149,0.455 -0.284,0.662 -0.162,0.274 -0.018,0.531 0,0.827 0.041,0.464 -1.386,1.796 -1.836,2.223 -0.188,0.171 -1.21,0.297 -1.521,0.931 -0.135,0.261 -0.306,0.801 -0.135,1.08 0.193,0.319 0.567,0.611 0.95,0.611 0.616,0 1.367,-0.359 1.875,-0.675 0.46,-0.296 0.788,-0.886 1.12,-1.3 0.18,-0.238 1.696,-1.731 1.952,-1.926 0.324,-0.247 4.576,-0.283 4.868,-0.347 0.185,-0.025 0.359,0.1 0.418,0.253 0.104,0.301 1.206,2.533 2.154,3.675 0.441,0.519 1.044,0.621 1.719,0.752 0.507,0.081 1.609,-0.269 1.493,-0.959"
       id="path82"
       style="fill:#231f20" /><path
       d="m 274.443,380.754 c 0.713,0.056 1.15,0.217 1.195,0.702 0.049,0.976 -0.693,1.391 -1.574,1.345 -0.4,-0.026 -2.389,0.059 -3.01,0.126 -2.514,0.233 -3.707,0.68 -3.707,0.733 -0.086,0.419 -0.135,0.783 0,1.179 0.156,0.388 2.264,0.166 2.928,0.166 0.627,-0.025 2.025,-0.192 2.619,-0.192 0.6,0 1.211,-0.063 1.795,-0.081 0.234,-0.009 0.895,0.089 0.895,0.428 0,0.539 -0.053,0.692 -0.211,0.998 -0.152,0.298 -0.566,0.378 -0.84,0.44 -0.293,0.076 -4.814,0.324 -7.537,0.823 0.119,1.021 0.289,2.511 1.576,2.69 0.557,0.095 0.98,0.131 1.803,-0.257 0.297,-0.14 1.836,-1.002 2.613,-1.885 0.158,-0.17 0.355,-0.354 0.59,-0.441 0.211,-0.103 0.465,-0.161 0.697,-0.107 0.428,0.086 0.625,0.607 0.643,0.967 0.006,0.369 -0.422,0.946 -0.678,1.193 -1.98,1.971 -3.059,2.541 -3.848,2.815 -0.332,0.112 -1.15,0.328 -1.988,0.225 -0.678,-0.094 -1.482,-0.382 -2.023,-0.841 -1.328,-1.12 -1.756,-3.023 -1.936,-4.679 -0.076,-0.831 0.064,-2.379 0.117,-3.09 0,-0.027 0.051,-0.284 0.023,-0.311 -0.217,-0.122 -0.342,-0.445 -0.404,-0.675 -0.104,-0.319 -0.013,-1.358 0.221,-1.454 0.5,-0.16 2.721,-0.575 3.072,-0.602 1.254,-0.104 4.633,-0.325 5.275,-0.292 0.482,0.008 1.584,0.075 1.801,0.107"
       id="path84"
       style="fill:#231f20" /><path
       d="m 285.098,382.963 c 0.889,-0.063 2.076,0.18 2.525,0.459 0.352,0.216 0.746,0.611 1.156,0.577 0.691,-0.068 1.268,-0.227 1.395,-0.981 0.166,-0.932 -0.311,-1.282 -1.115,-1.597 -2.049,-0.829 -4.283,-0.604 -6.361,0.071 -1.053,0.328 -3.684,1.444 -3.824,2.582 -0.049,0.419 0.051,0.716 0.23,1.09 0.318,0.624 0.574,1.132 1.285,1.434 1.602,0.684 3.252,1.022 4.828,1.363 0.359,0.086 1.82,0.355 2.154,0.445 0.588,0.153 1.781,0.369 0.643,0.823 -4.076,1.605 -7.566,0.716 -8.389,0.536 -0.342,-0.068 -0.648,-0.121 -0.721,-0.523 -0.031,-0.224 0.104,-0.688 -0.09,-0.859 -0.625,-0.66 -1.232,-0.781 -2.01,-0.336 -1.283,0.729 -1.01,2.793 0.354,3.311 0.855,0.333 1.607,0.71 3.15,0.887 1.537,0.152 3.096,0.265 4.637,0.104 1.207,-0.145 3.32,-0.698 3.717,-0.851 1.084,-0.392 2.516,-1.11 2.617,-2.384 0.137,-1.58 -1.416,-2.435 -2.91,-2.714 -0.721,-0.126 -5.092,-0.801 -6.725,-1.817 -0.876,-0.567 2.061,-1.52 3.454,-1.62"
       id="path86"
       style="fill:#231f20" /><polygon
       points="267.154,308.293 262.188,308.293 262.188,306.894 273.93,306.894 273.93,308.293 269.004,308.293 269.004,320.848 267.154,320.848"
       id="polygon88"
       style="fill:#231f20" /><polygon
       points="287.209,309.345 287.158,309.345 283.291,319.916 281.465,319.916 277.699,309.345 277.668,309.345 277.668,320.848 276.043,320.848 276.043,306.894 278.656,306.894 282.553,317.861 282.602,317.861 286.598,306.894 288.928,306.894 288.928,320.848 287.209,320.848 "
       id="polygon90"
       style="fill:#231f20" /><path
       d="m 302.441,317.41 c -0.676,0.243 -1.531,0.438 -2.264,0.438 -2.32,0 -3.85,-1.637 -3.85,-3.933 0,-2.068 1.295,-3.976 3.885,-3.976 0.852,0 1.773,0.188 2.229,0.311 v 1.078 c -0.652,-0.27 -1.418,-0.476 -2.143,-0.476 -1.789,0 -2.662,1.394 -2.662,3.063 0,1.67 1.012,2.938 2.744,2.938 0.732,0 1.449,-0.175 2.061,-0.549 z m -8.39,-3.539 c 0,3.292 2.557,5.874 5.857,5.874 3.297,0 5.871,-2.582 5.871,-5.874 0,-3.29 -2.574,-5.862 -5.871,-5.862 -3.301,0 -5.857,2.572 -5.857,5.862 m 12.844,0 c 0,3.841 -3.123,6.977 -6.986,6.977 -3.838,0 -6.986,-3.136 -6.986,-6.977 0,-3.859 3.148,-6.973 6.986,-6.973 3.862,0 6.986,3.114 6.986,6.973"
       id="path92"
       style="fill:#231f20" /></g></svg>