<?xml version="1.0" encoding="utf-8"?>
<!-- Generator: Adobe Illustrator 27.0.0, SVG Export Plug-In . SVG Version: 6.00 Build 0)  -->
<svg version="1.1" id="Pictogram" xmlns="http://www.w3.org/2000/svg" xmlns:xlink="http://www.w3.org/1999/xlink" x="0px" y="0px"
	 viewBox="0 0 144 144" style="enable-background:new 0 0 144 144;" xml:space="preserve">
<style type="text/css">
	.st0{fill:none;}
</style>
<g>
	<g>
		<circle cx="29.6" cy="39.9" r="9"/>
		<path d="M25.5,55.5c-1.9,1.9-2.8,4.3-2.8,6.8c0,2.4,0.9,4.9,2.8,6.8c0,0,23.9,23.9,23.9,23.9l31.3-31.4c0.6-0.6,1-1.3,1.3-2.1
			c0,0,0,0,0,0c0-0.1,0-0.1,0.1-0.2c0,0,0,0,0,0c0-0.1,0-0.1,0-0.2c0,0,0,0,0-0.1c0-0.1,0-0.1,0-0.2c0,0,0,0,0-0.1
			c0-0.1,0-0.1,0-0.2c0,0,0,0,0-0.1c0-0.1,0-0.1,0-0.2c0,0,0,0,0,0c0-0.1,0-0.2,0-0.3l0,0l0,0c0,0,0-0.1,0-0.1c0-0.1,0-0.1,0-0.2
			c0-0.1,0-0.1,0-0.2c0,0,0,0,0,0c-0.1-0.7-0.3-1.4-0.6-2.1l3.1-3.1l1.6,1.6c0.6,0.6,1.4,0.9,2.1,0.9c0.8,0,1.5-0.3,2.1-0.9
			l25.9-25.9c1.2-1.2,1.2-3.1,0-4.2l-5.1-5.1c-0.6-0.6-1.4-0.9-2.1-0.9s-1.5,0.3-2.1,0.9L81.1,44.5c-1.2,1.2-1.2,3.1,0,4.2l1.6,1.6
			l-3,3.1c-0.7-0.4-1.6-0.7-2.5-0.7H32.2C29.8,52.7,27.3,53.7,25.5,55.5z M83,46.5L109,20.5c0.1-0.1,0.1-0.1,0.2-0.1
			c0.1,0,0.1,0,0.2,0.1l5.1,5.1c0.1,0.1,0.1,0.1,0.1,0.2c0,0.1,0,0.1-0.1,0.2L88.5,52C88.4,52,88.4,52,88.3,52c-0.1,0-0.1,0-0.2-0.1
			L83,46.9c-0.1-0.1-0.1-0.1-0.1-0.2C82.9,46.6,82.9,46.5,83,46.5z M64.7,63l-6.2,6.2L52.2,63H64.7z"/>
		<path d="M60.3,89.3L53,96.6l12.7,12.7l-18.2,18.2c-2,2-2,5.3,0,7.3s5.3,2,7.3,0l21.8-21.8c2-2,2-5.2,0-7.2L60.3,89.3z"/>
		<path d="M69.4,80.2l-7.3,7.3l47.3,47.3c2,2,5.3,2,7.3,0s2-5.3,0-7.3L69.4,80.2z"/>
	</g>
	<path d="M131.1,7.7c-2.8,0-5.1,2.3-5.1,5.1s2.3,5.1,5.1,5.1c2.8,0,5.1-2.3,5.1-5.1S134,7.7,131.1,7.7z M131.1,15.3
		c-1.3,0-2.4-1.1-2.4-2.4s1.1-2.4,2.4-2.4c1.3,0,2.4,1.1,2.4,2.4S132.5,15.3,131.1,15.3z"/>
	<polygon points="28.5,92.4 10.2,92.4 10.2,136.3 12.9,136.3 12.9,95.2 18,95.2 18,136.3 20.7,136.3 20.7,95.2 25.7,95.2 
		25.7,136.3 28.5,136.3 	"/>
</g>
<rect class="st0" width="144" height="144"/>
</svg>
