<?xml version="1.0" encoding="utf-8"?>
<!-- Generator: Adobe Illustrator 27.0.0, SVG Export Plug-In . SVG Version: 6.00 Build 0)  -->
<svg version="1.1" id="Pictogram" xmlns="http://www.w3.org/2000/svg" xmlns:xlink="http://www.w3.org/1999/xlink" x="0px" y="0px"
	 viewBox="0 0 144 144" style="enable-background:new 0 0 144 144;" xml:space="preserve">
<style type="text/css">
	.st0{fill:none;}
</style>
<g>
	<path d="M96.4,35.9c3.5-3.5,3.5-9.2,0-12.7s-9.2-3.5-12.7,0s-3.5,9.2,0,12.7S92.9,39.5,96.4,35.9z"/>
	<path d="M89.6,43.8c-1.8-1.8-4.1-2.6-6.4-2.6H48.4c0,0-8.7-8.7-8.8-8.8c-1.7-1.7-4.2-2-6.2-0.8l-3.2-3.2c1.1-1.8,1-4.1-0.2-5.8
		l-7.3-11l0,0c-0.3-0.5-0.7-1-1.1-1.4c-1.6-1.6-3.7-2.4-5.8-2.4s-4.2,0.8-5.8,2.4c-3.2,3.2-3.2,8.4,0,11.6c0.4,0.4,0.9,0.8,1.4,1.1
		l0,0l11,7.3c0.9,0.6,2,0.9,3,0.9c1,0,1.9-0.3,2.8-0.8l3.2,3.2c-1.1,2-0.8,4.5,0.8,6.2c0,0,10.3,10.3,10.3,10.3c1,1,2.3,1.5,3.6,1.5
		h3.2l7.2,7.2l-6,6L67.1,81l6-6l6.2,6.2c-1.1,2-0.8,4.5,0.8,6.2c2,2,5.3,2,7.3,0l19.3-19.3c2-2,2-5.3,0-7.3
		C106.7,60.9,89.6,43.8,89.6,43.8z M24.1,27.9L24.1,27.9L24.1,27.9l-8.2-5.4l0,0L13,20.5c-0.3-0.2-0.7-0.5-0.9-0.7
		c-1-1-1.6-2.4-1.6-3.9s0.6-2.8,1.6-3.9c1-1,2.4-1.6,3.9-1.6l0,0c1.5,0,2.8,0.6,3.9,1.6c0.3,0.3,0.5,0.6,0.7,0.9l1.9,2.9l0,0
		l5.4,8.2l0,0l0,0c0.7,1.1,0.6,2.5-0.3,3.5c-0.5,0.5-1.2,0.8-1.9,0.8C25,28.3,24.5,28.2,24.1,27.9z M53.4,51.4h10.5l-5.3,5.3
		L53.4,51.4z M89.7,58.4l6.1,6.1L81.1,79.2L75,73.1L89.7,58.4z"/>
	<path d="M79.1,100.3l-32-32c-2.3,2.3-3.4,5.2-3.4,8.2v26.5H18c-2.8,0-5.1,2.3-5.1,5.1s2.3,5.1,5.1,5.1h30.9c2.8,0,5.1-2.3,5.1-5.1
		V89.7L70.3,106v25.1c0,2.8,2.3,5.1,5.1,5.1s5.1-2.3,5.1-5.1c0,0,0-27.2,0-27.3C80.6,102.5,80.1,101.2,79.1,100.3z"/>
	<path d="M131.1,7.7c-2.8,0-5.1,2.3-5.1,5.1s2.3,5.1,5.1,5.1c2.8,0,5.1-2.3,5.1-5.1S134,7.7,131.1,7.7z M131.1,15.3
		c-1.3,0-2.4-1.1-2.4-2.4s1.1-2.4,2.4-2.4c1.3,0,2.4,1.1,2.4,2.4S132.5,15.3,131.1,15.3z"/>
</g>
<rect class="st0" width="144" height="144"/>
</svg>
