<?xml version="1.0" encoding="utf-8"?>
<!-- Generator: Adobe Illustrator 27.0.0, SVG Export Plug-In . SVG Version: 6.00 Build 0)  -->
<svg version="1.1" id="Pictogram" xmlns="http://www.w3.org/2000/svg" xmlns:xlink="http://www.w3.org/1999/xlink" x="0px" y="0px"
	 viewBox="0 0 144 144" style="enable-background:new 0 0 144 144;" xml:space="preserve">
<style type="text/css">
	.st0{fill:none;}
</style>
<g>
	<path d="M125.5,124L69.4,92.6h-41c-1.3,0-2.6,0.5-3.6,1.5c-1,1-1.5,2.3-1.5,3.6v30.9c0,2.8,2.3,5.1,5.1,5.1s5.1-2.3,5.1-5.1v-25.7
		h33.2l53.8,30.1c2.5,1.4,5.6,0.5,7-2C128.9,128.6,128,125.4,125.5,124z"/>
	<circle cx="60.6" cy="36.1" r="9"/>
	<path d="M30,79.6c1.3,0.3,2.7,0.2,3.9-0.5L46.3,72v15.5h23.1V59.1h41.1c1.4,0,2.7-0.6,3.6-1.5c0.9-0.9,1.5-2.2,1.5-3.6
		s-0.6-2.7-1.5-3.6c-0.9-0.9-2.2-1.5-3.6-1.5H78.7l50.5-29.2l-1.4-2.4L73.3,48.9h-18c-5,0-9,4-9,9c0,0,0,2.2,0,2.2L28.8,70.2
		c-1.2,0.7-2.1,1.9-2.4,3.1c-0.2,0.8-0.2,1.8,0,2.6L9.9,85.5l1.4,2.4l16.5-9.5C28.4,78.9,29.2,79.4,30,79.6z"/>
</g>
<rect class="st0" width="144" height="144"/>
</svg>
