<?xml version="1.0" encoding="UTF-8" standalone="no"?>
<!-- Created with Inkscape (http://www.inkscape.org/) -->

<svg
   width="22.316509mm"
   height="24.302397mm"
   viewBox="0 0 22.31651 24.302396"
   version="1.1"
   id="svg1"
   inkscape:version="1.4 (e7c3feb1, 2024-10-09)"
   sodipodi:docname="BK3.svg"
   xmlns:inkscape="http://www.inkscape.org/namespaces/inkscape"
   xmlns:sodipodi="http://sodipodi.sourceforge.net/DTD/sodipodi-0.dtd"
   xmlns="http://www.w3.org/2000/svg"
   xmlns:svg="http://www.w3.org/2000/svg">
  <sodipodi:namedview
     id="namedview1"
     pagecolor="#ffffff"
     bordercolor="#000000"
     borderopacity="0.25"
     inkscape:showpageshadow="2"
     inkscape:pageopacity="0.0"
     inkscape:pagecheckerboard="0"
     inkscape:deskcolor="#d1d1d1"
     inkscape:document-units="mm"
     inkscape:zoom="4.2436444"
     inkscape:cx="41.827256"
     inkscape:cy="46.068893"
     inkscape:window-width="1440"
     inkscape:window-height="872"
     inkscape:window-x="0"
     inkscape:window-y="28"
     inkscape:window-maximized="0"
     inkscape:current-layer="layer1" />
  <defs
     id="defs1" />
  <g
     inkscape:label="Layer 1"
     inkscape:groupmode="layer"
     id="layer1"
     transform="translate(-102.23357,-144.67605)">
    <path
       d="m 118.8789,167.21989 -2.09645,-1.80651 -6.39085,0.62411 c -3.51494,0.34326 -6.41276,0.60217 -6.43959,0.57535 -0.0268,-0.0268 -0.42444,-3.88351 -0.8836,-8.57042 l -0.83484,-8.52167 0.91276,-1.48411 c 0.5302,-0.86209 1.02452,-1.52336 1.17941,-1.57776 0.32369,-0.11368 18.21635,-1.85604 18.28376,-1.78044 0.0907,0.10175 2.01245,20.19817 1.9385,20.2721 -0.0409,0.0409 -0.88789,0.15447 -1.88233,0.2525 -0.99443,0.098 -1.83118,0.20136 -1.85946,0.22962 -0.0283,0.0283 0.0212,0.82655 0.10988,1.77396 0.0887,0.94741 0.13832,1.74444 0.11028,1.77117 -0.0281,0.0267 -0.99441,-0.76432 -2.14747,-1.7579 z m 1.88328,-0.24036 c -0.0832,-0.88304 -0.12438,-1.63246 -0.0914,-1.66539 0.0329,-0.0329 0.8735,-0.14007 1.86793,-0.2381 0.99444,-0.098 1.83658,-0.20675 1.87143,-0.2416 0.0615,-0.0615 -1.84232,-19.93168 -1.91815,-20.0194 -0.0524,-0.0606 -17.28661,1.60789 -17.83138,1.72626 -0.3927,0.0853 -0.53833,0.25462 -1.35962,1.58049 l -0.91982,1.48494 0.82465,8.41527 c 0.45355,4.62839 0.8419,8.43251 0.86299,8.4536 0.0212,0.0211 2.91193,-0.24338 6.42409,-0.58771 l 6.38574,-0.62604 1.97879,1.70025 c 1.08834,0.93514 1.9962,1.68286 2.01745,1.6616 0.0212,-0.0212 -0.0295,-0.76113 -0.11266,-1.64417 z m -0.32382,-3.37438 c -1.25794,-0.66751 -2.23396,-1.42846 -2.7935,-2.17796 -0.25863,-0.34641 -0.51409,-0.62984 -0.56769,-0.62984 -0.16529,0 -0.27387,0.66254 -0.14372,0.87691 0.0677,0.11143 0.38648,0.37404 0.70853,0.58359 0.32202,0.20955 0.61714,0.45491 0.65582,0.54525 0.0755,0.17647 -0.49385,1.16925 -0.67059,1.16925 -0.26993,0 -1.01917,-0.32782 -1.50661,-0.65919 -0.76076,-0.51717 -1.17774,-1.28114 -1.17774,-2.15774 0,-0.8509 0.4409,-1.79658 0.86677,-1.85915 0.37137,-0.0546 0.35708,0.22765 -0.0413,0.81467 -0.58145,0.85679 -0.38968,1.77144 0.54924,2.61969 0.62701,0.56649 1.00172,0.69768 1.25871,0.4407 0.1715,-0.1715 0.15115,-0.21331 -0.18955,-0.38949 -0.98841,-0.51112 -1.3012,-1.44168 -0.75679,-2.25145 0.44291,-0.65882 0.71448,-0.60986 1.23389,0.22244 0.49961,0.80059 1.51267,1.67944 2.66025,2.30779 l 0.77025,0.42176 0.10753,-0.29065 c 0.094,-0.25395 0.0338,-0.33739 -0.47606,-0.66075 -0.90448,-0.57362 -1.60095,-1.18309 -1.98467,-1.73678 -0.25056,-0.36159 -0.64431,-0.65964 -1.38068,-1.0451 -0.7552,-0.39533 -1.32484,-0.83121 -2.13442,-1.63324 -1.1345,-1.12394 -1.2452,-1.15673 -1.2452,-0.36887 0,0.21931 0.19394,0.61596 0.50093,1.02453 l 0.50091,0.66668 -0.2495,0.48907 c -0.30004,0.58814 -0.52882,0.61352 -1.23785,0.13735 -1.01235,-0.67991 -1.53647,-1.84079 -1.37219,-3.03936 0.1001,-0.7302 0.56073,-1.56191 0.86508,-1.56191 0.30854,0 0.29015,0.19806 -0.0874,0.94228 -0.48419,0.95438 -0.3664,1.8783 0.34237,2.68555 0.84587,0.96339 1.41319,0.82422 0.66037,-0.162 -0.36555,-0.47892 -0.43071,-0.667 -0.43071,-1.24331 0,-0.54523 0.0648,-0.75602 0.32879,-1.06977 0.18082,-0.21491 0.404,-0.39075 0.49594,-0.39075 0.0919,0 0.31459,0.25161 0.4948,0.55913 0.45299,0.77295 1.70219,1.86886 2.76971,2.42983 0.7162,0.37635 0.91577,0.43523 1.00388,0.29614 0.17351,-0.27385 0.15266,-0.30238 -0.57256,-0.7839 -1.02608,-0.68127 -1.59541,-1.22067 -2.06841,-1.95959 -0.45976,-0.7183 -0.71702,-0.88985 -1.86809,-1.24574 -0.47254,-0.14609 -0.90723,-0.38948 -1.17647,-0.65872 -0.4673,-0.46733 -0.4632,-0.47058 -0.68143,0.53735 -0.18722,0.86461 -0.65384,1.62041 -1.1616,1.88148 -0.23215,0.11935 -0.79142,0.34492 -1.24283,0.50126 -0.64553,0.22357 -0.88151,0.37917 -1.10527,0.72876 -0.71744,1.12092 -1.13765,1.57672 -2.01758,2.18844 -0.52022,0.36167 -0.94501,0.68874 -0.94393,0.72682 0,0.0381 0.0519,0.14812 0.11295,0.24452 0.0893,0.14101 0.28993,0.0789 1.02611,-0.3175 1.09845,-0.5915 2.29709,-1.64339 2.74646,-2.41015 0.36335,-0.62002 0.34948,-0.61143 0.69156,-0.42836 0.32301,0.17287 0.62797,0.77998 0.62797,1.25018 0,0.42359 -0.458,1.04014 -1.0187,1.37135 -0.28991,0.17126 -0.33848,0.25983 -0.24162,0.44078 0.13946,0.26059 0.33102,0.21419 1.04547,-0.25322 0.5714,-0.37382 1.10385,-1.22023 1.10385,-1.75474 0,-0.20904 -0.14264,-0.66122 -0.31698,-1.00484 -0.37279,-0.73481 -0.39915,-0.97652 -0.10025,-0.91896 0.55232,0.10637 1.04982,1.49524 0.87308,2.43734 -0.121,0.64489 -0.75089,1.42191 -1.50178,1.85255 -0.94043,0.53932 -1.29648,0.51404 -1.61732,-0.11486 -0.29956,-0.58718 -0.24415,-0.81856 0.24445,-1.02095 0.19632,-0.0813 0.51366,-0.31143 0.70522,-0.51136 0.27146,-0.28334 0.32973,-0.43734 0.26424,-0.69829 -0.10599,-0.42233 -0.20786,-0.38249 -0.73665,0.28813 -0.71649,0.9087 -3.19744,2.57012 -3.83784,2.57012 -0.19883,0 -0.70717,-0.95506 -0.70717,-1.32862 0,-0.0905 0.18425,-0.24088 0.40944,-0.33415 0.40735,-0.16874 1.66568,-1.12727 1.97546,-1.5048 0.0893,-0.10886 0.35832,-0.49522 0.59777,-0.85858 0.46022,-0.69837 0.73398,-0.88515 1.81552,-1.23866 0.8046,-0.26299 1.3971,-0.73386 1.63258,-1.29743 0.29496,-0.70597 0.2476,-0.80037 -0.30302,-0.60386 -0.26194,0.0935 -0.77547,0.17246 -1.14121,0.17553 -0.63738,0.005 -0.67886,-0.0155 -1.00113,-0.50243 -0.2141,-0.32353 -0.43381,-0.50901 -0.60504,-0.51079 -0.4938,-0.005 -1.34134,-0.48607 -1.97732,-1.12206 -0.50374,-0.50372 -0.65767,-0.59565 -0.77028,-0.45997 -0.41619,0.50148 1.59642,2.4567 2.55056,2.47786 0.468,0.0104 0.88067,0.67135 0.88067,1.41054 0,0.54335 -0.40455,0.44433 -0.52152,-0.12764 -0.10827,-0.52933 -0.27083,-0.67948 -1.04204,-0.96259 -0.82693,-0.30356 -1.5902,-0.90535 -2.0896,-1.64751 -0.63529,-0.94415 -0.65707,-1.18849 -0.14383,-1.61416 0.42191,-0.3499 0.87599,-0.47915 0.87599,-0.24933 0,0.21913 1.11593,1.26269 1.63158,1.52574 1.21261,0.61863 3.19442,0.0418 3.19442,-0.92973 0,-0.17391 -0.13383,-0.47178 -0.2974,-0.66194 -0.38568,-0.44837 -0.97451,-0.46435 -1.43076,-0.0388 -0.29834,0.27823 -0.32186,0.36923 -0.25185,0.97366 0.0623,0.53763 0.041,0.66675 -0.10991,0.66675 -0.4391,0 -0.60553,-1.10903 -0.26517,-1.76718 0.24728,-0.47819 0.9823,-0.82036 1.53818,-0.71608 0.49385,0.0926 1.19791,0.63583 1.19791,0.92418 0,0.13606 0.0767,0.0989 0.24968,-0.1211 0.13735,-0.17459 0.41961,-0.38781 0.62722,-0.47381 0.34018,-0.14091 0.36508,-0.18916 0.25157,-0.48774 -0.21357,-0.5617 -0.0159,-1.24236 0.49009,-1.68651 0.40759,-0.35786 0.51853,-0.39297 1.07315,-0.33968 0.71493,0.0687 1.16356,0.416 1.37845,1.0671 0.19002,0.57581 -0.0409,1.31482 -0.41079,1.31482 -0.22053,0 -0.24366,-0.0506 -0.15955,-0.34925 0.16791,-0.59612 0.093,-0.96568 -0.25672,-1.26651 -0.4299,-0.36978 -0.85241,-0.36711 -1.28868,0.008 -0.62288,0.53577 -0.42243,1.33748 0.42275,1.69077 0.90154,0.37685 2.1372,0.15452 3.06213,-0.55095 l 0.43648,-0.33292 -0.33279,-0.17438 c -0.18304,-0.0959 -0.42431,-0.35131 -0.53613,-0.56757 -0.42164,-0.81536 0.10287,-1.71938 1.0731,-1.84951 0.46797,-0.0628 0.56092,-0.0253 0.98124,0.39495 0.42156,0.42157 0.45786,0.51232 0.3943,0.9861 -0.0387,0.28876 -0.008,0.62159 0.0696,0.74524 0.21588,0.34567 -0.20452,1.28317 -0.93263,2.07985 -0.47326,0.51782 -0.57803,0.70026 -0.43391,0.75557 0.30242,0.11605 0.69847,0.86854 0.699,1.32804 0,0.51952 -0.19767,0.9124 -0.4604,0.9124 -0.16431,0 -0.18323,-0.10705 -0.11137,-0.62959 0.0778,-0.56544 0.0537,-0.66251 -0.23629,-0.9525 -0.42373,-0.42373 -1.00264,-0.42828 -1.41973,-0.0112 -0.4994,0.4994 -0.37754,1.22883 0.25977,1.55464 1.16339,0.59478 2.96412,-0.01 3.89636,-1.30772 0.45595,-0.63488 0.59827,-0.6704 1.12527,-0.28076 0.48188,0.35626 0.48273,0.73812 0.004,1.5735 -0.45667,0.79618 -1.12247,1.39313 -2.00387,1.79664 -0.71546,0.32756 -0.92586,0.57938 -0.92586,1.10818 0,0.24971 0.10599,0.37845 0.4445,0.53987 0.49483,0.23597 0.55187,0.47794 0.25014,1.06138 -0.13838,0.26761 -0.1583,0.4432 -0.0691,0.60978 0.22614,0.42256 1.66952,1.66906 2.30638,1.99178 0.34327,0.17395 0.62177,0.38674 0.61888,0.47287 -0.008,0.24604 -0.55216,1.28275 -0.69326,1.32132 -0.0698,0.0191 -0.54009,-0.18449 -1.045,-0.45241 z m -2.10696,-6.45069 c 0.13938,-0.2991 0.33623,-0.45474 0.75602,-0.59777 0.76242,-0.25979 1.45759,-0.83173 1.95715,-1.61023 0.36526,-0.56921 0.39098,-0.66484 0.22381,-0.83201 -0.16716,-0.16716 -0.22815,-0.13739 -0.53051,0.25903 -0.77984,1.02242 -2.3345,1.68561 -3.57251,1.52399 -1.21693,-0.15887 -1.7145,-0.6198 -1.7145,-1.58825 0,-0.75174 0.30916,-1.15736 1.20525,-1.58128 0.74565,-0.35274 1.43645,-1.0402 1.83984,-1.83086 0.37761,-0.74022 0.0679,-0.67515 -0.7859,0.16509 -1.05357,1.03688 -2.17487,1.31018 -3.90736,0.95234 -0.95264,-0.19677 -1.30757,-0.0159 -1.90834,0.97234 -0.52935,0.87074 -1.03237,1.26312 -1.77067,1.38118 -0.48085,0.0769 -0.50453,0.0998 -0.35621,0.34548 0.13214,0.21881 0.25511,0.25424 0.73039,0.21037 0.81769,-0.0755 1.49637,-0.44059 1.92894,-1.03775 0.45675,-0.63052 0.6368,-0.65193 0.75187,-0.0894 0.12843,0.62796 0.55993,0.97793 1.69648,1.37587 0.89019,0.31169 1.05807,0.42176 1.397,0.91592 0.21185,0.30891 0.69953,0.87482 1.08371,1.25758 0.57655,0.57442 0.70622,0.65374 0.74279,0.45434 0.0243,-0.13287 0.12909,-0.42355 0.23275,-0.64597 z m -0.0402,-7.28832 c 0.40068,-0.31519 0.42899,-0.73058 0.0757,-1.10984 -0.32904,-0.35319 -0.7234,-0.35384 -1.09813,-0.002 -0.37753,0.35469 -0.37221,0.67312 0.0177,1.06313 0.38031,0.38033 0.5711,0.38954 1.00465,0.0485 z m -8.21659,-0.53054 c -0.0414,-0.29686 -0.16181,-0.84731 -0.26765,-1.22322 -0.10586,-0.37591 -0.16179,-0.7331 -0.1243,-0.79375 0.0375,-0.0607 0.75057,-0.11028 1.58464,-0.11028 h 1.51652 v 0.30619 c 0,0.1684 -0.11356,0.66846 -0.25236,1.11125 -0.1388,0.44279 -0.2531,0.90508 -0.254,1.02731 0,0.12224 -0.0874,0.22225 -0.19214,0.22225 -0.26213,0 -0.24212,-0.44034 0.0635,-1.397 0.3003,-0.94002 0.29487,-0.88943 0.0953,-0.8873 -0.0873,0.001 -0.26125,0.30097 -0.38656,0.66675 -0.25569,0.74648 -0.25969,0.78178 -0.14348,1.2683 0.0971,0.40681 -0.13634,0.48014 -0.40442,0.127 -0.16068,-0.21166 -0.16891,-0.21166 -0.17275,0 -0.003,0.12224 -0.0898,0.22225 -0.19454,0.22225 -0.20659,0 -0.25133,-0.34243 -0.08,-0.61261 0.065,-0.10254 0.0148,-0.34832 -0.12896,-0.63011 -0.12954,-0.25409 -0.23553,-0.59277 -0.23553,-0.75263 0,-0.17368 -0.0767,-0.29065 -0.1905,-0.29065 -0.10478,0 -0.1905,0.0876 -0.1905,0.19458 0,0.10702 0.0857,0.39975 0.1905,0.65051 0.24487,0.58606 0.25466,1.44091 0.0164,1.44091 -0.10821,0 -0.20241,-0.20401 -0.24921,-0.53975 z m 1.37245,-1.10494 c 0.27572,-0.53322 0.24419,-0.64131 -0.18724,-0.64131 -0.24853,0 -0.381,0.0642 -0.381,0.18453 0,0.1853 0.26005,0.83147 0.33461,0.83147 0.022,0 0.12706,-0.16861 0.23363,-0.37469 z"
       style="fill:#000000;stroke-width:0.264583"
       id="path1" />
  </g>
</svg>
