<?xml version="1.0" encoding="UTF-8" standalone="no"?>
<!-- Created with Inkscape (http://www.inkscape.org/) -->

<svg
   width="21.389374mm"
   height="24.459572mm"
   viewBox="0 0 21.389374 24.459572"
   version="1.1"
   id="svg1"
   inkscape:version="1.4 (e7c3feb1, 2024-10-09)"
   sodipodi:docname="DIV.svg"
   xmlns:inkscape="http://www.inkscape.org/namespaces/inkscape"
   xmlns:sodipodi="http://sodipodi.sourceforge.net/DTD/sodipodi-0.dtd"
   xmlns="http://www.w3.org/2000/svg"
   xmlns:svg="http://www.w3.org/2000/svg">
  <sodipodi:namedview
     id="namedview1"
     pagecolor="#ffffff"
     bordercolor="#000000"
     borderopacity="0.25"
     inkscape:showpageshadow="2"
     inkscape:pageopacity="0.0"
     inkscape:pagecheckerboard="0"
     inkscape:deskcolor="#d1d1d1"
     inkscape:document-units="mm"
     inkscape:zoom="2.9647587"
     inkscape:cx="64.929399"
     inkscape:cy="24.45393"
     inkscape:window-width="1440"
     inkscape:window-height="872"
     inkscape:window-x="0"
     inkscape:window-y="28"
     inkscape:window-maximized="0"
     inkscape:current-layer="layer1" />
  <defs
     id="defs1" />
  <g
     inkscape:label="Layer 1"
     inkscape:groupmode="layer"
     id="layer1"
     transform="translate(-1941.9949,-479.95558)">
    <path
       d="m 1956.6867,502.52954 -1.8516,-2.06856 -6.3881,-0.21497 c -3.5134,-0.11823 -6.4143,-0.24117 -6.4463,-0.27319 -0.032,-0.032 0.072,-3.90526 0.2313,-8.60719 l 0.2895,-8.54897 1.1522,-1.43054 1.1522,-1.43054 0.9525,0.0652 c 0.5239,0.0358 4.6958,0.187 9.271,0.33591 4.5752,0.14891 8.3253,0.27756 8.3337,0.28588 0.032,0.0314 -0.5922,18.10113 -0.6638,19.23264 l -0.075,1.18351 -1.9562,-0.0405 -1.9561,-0.0405 -0.01,1.5875 c 0,0.87313 -0.048,1.68773 -0.097,1.81022 -0.07,0.17693 -0.4688,-0.20257 -1.9397,-1.84584 z m 1.9187,-0.0672 v -1.61179 l 1.9685,0.0454 c 1.0827,0.0249 1.9717,-0.004 1.9756,-0.0635 0.021,-0.32588 0.712,-20.05028 0.7026,-20.06295 -0.01,-0.008 -3.7545,-0.1366 -8.3297,-0.28506 -4.5752,-0.14846 -8.69,-0.29704 -9.144,-0.33018 l -0.8255,-0.0602 -1.152,1.42481 -1.152,1.42481 -0.287,8.42464 c -0.1579,4.63355 -0.2621,8.44963 -0.2315,8.48019 0.031,0.0305 2.9299,0.15228 6.4429,0.2705 l 6.3874,0.21494 1.7271,1.92833 c 0.9499,1.06058 1.77,1.90213 1.8223,1.87012 0.052,-0.032 0.095,-0.78352 0.095,-1.67001 z m -12.0663,-4.40682 c -0.8608,-0.71916 -1.0795,-0.76571 -1.812,-0.3857 -0.7459,0.387 -0.9807,0.4058 -0.9807,0.0785 0,-0.52345 1.2248,-1.10411 2.0013,-0.9488 0.2116,0.0423 0.6542,0.29961 0.9835,0.57176 0.7929,0.65518 1.2822,0.66701 2.0048,0.0485 0.9729,-0.83281 1.8254,-0.83238 2.8705,10e-4 0.7686,0.61323 1.2116,0.58302 2.0834,-0.14214 0.4757,-0.39562 1.2052,-0.5825 1.7094,-0.4379 0.2196,0.063 0.6676,0.31937 0.9955,0.56973 0.7983,0.60958 1.2001,0.59932 2.068,-0.0528 0.5637,-0.42354 0.7747,-0.508 1.2689,-0.508 0.6968,0 1.5407,0.48946 1.5407,0.89358 0,0.33112 -0.4305,0.32881 -0.8543,-0.005 -0.4795,-0.37714 -0.9277,-0.31737 -1.6108,0.21483 -0.4973,0.38743 -0.7269,0.47758 -1.3226,0.51924 -0.7545,0.0528 -0.6717,0.088 -1.8975,-0.80922 -0.449,-0.32865 -0.8586,-0.25325 -1.7023,0.31328 -1.071,0.71914 -1.9826,0.70322 -2.7725,-0.0484 -0.6881,-0.65482 -1.2493,-0.62738 -2.0012,0.0979 -0.3557,0.34314 -0.5252,0.4061 -1.2106,0.44975 -0.7653,0.0487 -0.8194,0.032 -1.3615,-0.42094 z m 8.0365,-2.37727 c -0.072,-0.0907 -0.1398,-1.05352 -0.154,-2.19362 -0.014,-1.1176 -0.035,-2.20345 -0.048,-2.413 -0.018,-0.30206 0.034,-0.38907 0.2507,-0.41996 0.3565,-0.0508 0.428,0.36655 0.4548,2.65468 l 0.02,1.72671 0.4078,-0.12516 c 0.4765,-0.14625 0.5019,-0.25452 0.6357,-2.71137 0.094,-1.72744 0.028,-2.2044 -0.3071,-2.2044 -0.3569,0 -1.6705,0.36701 -2.2825,0.63773 l -0.5597,0.24756 0.4102,0.34518 c 1.0075,0.84772 0.996,2.50502 -0.023,3.25122 -0.4248,0.31123 -1.3431,0.418 -1.9298,0.22438 -0.6462,-0.21326 -1.1917,-0.88536 -1.2989,-1.60033 -0.067,-0.44744 -0.042,-0.63446 0.1062,-0.78239 0.249,-0.24901 0.4728,-0.11094 0.4728,0.29173 0,0.53616 0.3424,1.16844 0.7457,1.37699 1.3676,0.70724 2.6187,-0.69513 1.7586,-1.97136 -0.4168,-0.61859 -0.8163,-0.72052 -1.7982,-0.45889 -0.4462,0.1189 -0.92,0.21618 -1.0528,0.21618 -0.3015,0 -0.7039,-0.70715 -0.9395,-1.651 -0.2111,-0.84602 -0.2132,-3.59268 0,-4.10499 0.2034,-0.49603 0.6043,-0.41822 0.5563,0.10798 -0.1311,1.43763 -0.068,3.35262 0.1326,3.99701 0.1194,0.38418 0.2611,0.76559 0.315,0.84758 0.1271,0.19355 1.432,-0.16481 2.0633,-0.56664 0.9141,-0.58177 3.0224,-1.16762 4.2174,-1.17188 1.0944,-0.004 1.1845,-0.54079 0.1146,-0.68272 -0.658,-0.0873 -2.4851,0.0855 -3.361,0.31778 -0.6236,0.16539 -0.844,0.0777 -0.844,-0.33598 0,-0.49326 -0.1954,-0.78984 -1.219,-1.85025 -0.9967,-1.03259 -1.194,-1.38352 -1.194,-2.12439 0,-2.08306 2.844,-2.46262 4.5478,-0.60694 0.6393,0.69634 1.3449,2.09709 1.5669,3.11088 0.1775,0.81043 0.2606,0.89891 0.847,0.90162 0.6109,0.003 0.884,0.19671 1.0331,0.73369 0.2618,0.94278 0.2234,1.00691 -0.6605,1.10254 l -0.7938,0.0859 -0.033,2.05617 c -0.018,1.13089 -0.076,2.34191 -0.1283,2.69116 l -0.096,0.635 -0.6971,0.22375 c -0.3834,0.12306 -0.7891,0.25294 -0.9015,0.28862 -0.1124,0.0357 -0.2622,-0.008 -0.333,-0.0968 z m -0.9232,-7.65205 c 0,-0.10336 -0.092,-0.41757 -0.2042,-0.69824 -0.2441,-0.61007 -0.1606,-0.92552 0.23,-0.86898 0.2166,0.0314 0.3368,0.20774 0.5251,0.7709 l 0.2442,0.73025 0.5232,-0.002 c 0.8392,-0.003 0.9036,-0.0978 0.653,-0.95983 -0.4651,-1.59978 -1.4053,-2.93171 -2.4041,-3.40568 -0.2371,-0.1125 -0.6983,-0.20455 -1.0249,-0.20455 -0.7788,0 -1.3363,0.50165 -1.3363,1.20232 0,0.40259 0.1327,0.59985 1.0652,1.58388 0.6265,0.66101 1.1275,1.31263 1.2164,1.58191 0.1481,0.44873 0.5124,0.64068 0.5124,0.26997 z"
       style="fill:#000000;stroke-width:0.264583"
       id="path1" />
  </g>
</svg>
