<?xml version="1.0" encoding="UTF-8" standalone="no"?>
<!-- Created with Inkscape (http://www.inkscape.org/) -->

<svg
   width="21.889677mm"
   height="24.85774mm"
   viewBox="0 0 21.889677 24.857741"
   version="1.1"
   id="svg1"
   inkscape:version="1.4 (e7c3feb1, 2024-10-09)"
   sodipodi:docname="FBS.svg"
   xmlns:inkscape="http://www.inkscape.org/namespaces/inkscape"
   xmlns:sodipodi="http://sodipodi.sourceforge.net/DTD/sodipodi-0.dtd"
   xmlns="http://www.w3.org/2000/svg"
   xmlns:svg="http://www.w3.org/2000/svg">
  <sodipodi:namedview
     id="namedview1"
     pagecolor="#ffffff"
     bordercolor="#000000"
     borderopacity="0.25"
     inkscape:showpageshadow="2"
     inkscape:pageopacity="0.0"
     inkscape:pagecheckerboard="0"
     inkscape:deskcolor="#d1d1d1"
     inkscape:document-units="mm"
     inkscape:zoom="2.9647587"
     inkscape:cx="34.235501"
     inkscape:cy="-17.033427"
     inkscape:window-width="1440"
     inkscape:window-height="872"
     inkscape:window-x="0"
     inkscape:window-y="28"
     inkscape:window-maximized="0"
     inkscape:current-layer="layer1" />
  <defs
     id="defs1" />
  <g
     inkscape:label="Layer 1"
     inkscape:groupmode="layer"
     id="layer1"
     transform="translate(-1950.1275,-490.96093)">
    <path
       d="m 1965.1545,514.24573 c -0.7571,-0.8948 -1.5766,-1.84341 -1.8211,-2.10802 l -0.4445,-0.48112 -6.35,-0.39431 c -3.4925,-0.21688 -6.3765,-0.41838 -6.4089,-0.44783 -0.055,-0.0503 0.8122,-14.67871 0.9719,-16.38888 0.072,-0.77462 0.096,-0.81569 1.2145,-2.12725 l 1.1407,-1.33739 0.5884,0.005 c 0.9421,0.007 17.9234,1.09488 17.9709,1.15108 0.036,0.0427 -1.1975,20.33555 -1.2394,20.38884 -0.01,0.01 -0.8609,-0.0387 -1.8959,-0.10787 -1.035,-0.0692 -1.908,-0.0996 -1.94,-0.0676 -0.032,0.032 -0.1124,0.81727 -0.1787,1.74506 -0.066,0.92778 -0.1455,1.71182 -0.176,1.74228 -0.03,0.0305 -0.6748,-0.6767 -1.4319,-1.57149 z m 1.4917,-0.43561 c 0.059,-0.85075 0.1348,-1.57412 0.1681,-1.60745 0.033,-0.0334 0.9069,-0.008 1.9411,0.0562 1.0343,0.0643 1.8869,0.11342 1.8948,0.10919 0.01,-0.004 0.2948,-4.53528 0.6375,-10.06901 l 0.6234,-10.06135 -0.5106,-0.0642 c -0.5226,-0.0657 -17.0555,-1.0902 -17.5455,-1.08726 -0.1862,0.001 -0.628,0.42027 -1.4129,1.34048 l -1.1419,1.33886 -0.076,0.85189 c -0.161,1.80395 -1.0118,16.03035 -0.9614,16.07565 0.029,0.0262 2.9005,0.22561 6.3806,0.44294 3.4801,0.21733 6.3803,0.42783 6.445,0.46781 0.065,0.04 0.8401,0.92818 1.7231,1.97379 0.883,1.04561 1.6329,1.87367 1.6664,1.84015 0.034,-0.0335 0.1093,-0.75702 0.1684,-1.60776 z m -7.7424,-4.26355 c -0.6533,-0.33221 -0.9285,-0.86178 -0.8686,-1.67161 0.066,-0.89617 0.5506,-1.41714 1.4072,-1.51366 1.0532,-0.11872 1.7714,0.41899 1.924,1.4405 0.1946,1.30344 -1.2783,2.34698 -2.4626,1.74477 z m 1.5184,-0.79587 c 0.2041,-0.20418 0.3712,-0.49276 0.3712,-0.6413 0,-0.36803 -0.3261,-0.97123 -0.5772,-1.06759 -1.1933,-0.45789 -2.1629,0.91871 -1.2458,1.76869 0.4621,0.42825 0.9853,0.40671 1.4518,-0.0598 z m 1.6571,0.63775 c -0.1473,-0.0933 -0.1423,-0.28633 0.032,-1.23632 0.3855,-2.1006 0.1985,-3.27731 -0.6452,-4.05963 -0.6221,-0.57687 -0.7042,-0.58238 -1.4268,-0.0957 -1.0541,0.70982 -1.6394,0.9286 -2.4844,0.9286 -1.2694,0 -2.3628,-0.63963 -3.325,-1.94513 -0.3017,-0.40934 -0.5485,-0.87278 -0.5485,-1.02987 0,-0.27186 0.9266,-1.46441 1.1379,-1.46441 0.055,0 0.4648,0.36097 0.9104,0.80216 0.4456,0.44119 1.0027,0.86929 1.2381,0.95136 0.4038,0.14079 0.4467,0.12692 0.7615,-0.24617 1.0684,-1.26616 1.3885,-1.41089 2.2249,-1.00599 0.3104,0.15028 0.7612,0.30517 1.0016,0.34419 0.6204,0.10065 1.5233,-0.33401 2.1803,-1.04963 l 0.5405,-0.58862 0.8656,0.2171 c 1.4009,0.35134 2.4563,0.0712 3.403,-0.90342 0.2575,-0.26515 0.4682,-0.52276 0.4682,-0.57248 0,-0.20571 -0.5354,-0.2491 -0.744,-0.0603 -0.5845,0.52893 -1.8253,0.74144 -2.6502,0.45389 -0.3307,-0.11528 -0.4507,-0.0888 -0.8622,0.1905 -0.798,0.54155 -2.4746,0.37928 -2.4746,-0.2395 0,-0.21116 0.4222,-0.3305 0.6527,-0.18448 0.095,0.0602 0.3928,0.11037 0.6617,0.11144 0.6843,0.003 1.3526,-0.65522 1.3526,-1.33156 0,-0.36506 -0.096,-0.56624 -0.4318,-0.9017 -0.7233,-0.72326 -1.7426,-0.50838 -2.2432,0.47286 -0.2959,0.58009 -0.2707,0.57839 -1.5795,0.1064 -1.3219,-0.47671 -2.9316,-0.37887 -4.6038,0.2798 -0.7107,0.27998 -0.8051,0.44954 -0.436,0.78354 0.2146,0.19419 0.2833,0.19004 0.9842,-0.0594 1.2944,-0.46067 2.8661,-0.33671 3.7698,0.29732 0.3534,0.24794 0.4613,0.65151 0.2148,0.80383 -0.074,0.0457 -0.3477,-0.0647 -0.6084,-0.24537 -0.9106,-0.63101 -2.2227,-0.65995 -3.5382,-0.078 -0.3175,0.14041 -0.6467,0.2553 -0.7317,0.2553 -0.2296,0 -1.2102,-1.21347 -1.2102,-1.49761 0,-0.28851 1.1474,-0.8947 2.3495,-1.2413 1.0604,-0.30575 2.9301,-0.28674 3.9518,0.0402 l 0.7768,0.24856 0.3393,-0.42513 c 0.4968,-0.62266 1.0088,-0.84602 1.7908,-0.78117 1.1708,0.0971 1.9107,0.94053 1.8204,2.07518 -0.038,0.47611 0,0.57158 0.2482,0.68618 0.6648,0.30289 1.5867,0.0893 2.1099,-0.48889 0.1329,-0.14685 0.3494,-0.267 0.481,-0.267 0.3465,0 1.2444,0.48486 1.3349,0.72082 0.181,0.47149 -1.0279,1.89451 -1.9294,2.27115 -0.6647,0.27773 -1.7149,0.3547 -2.5303,0.18539 l -0.7392,-0.15346 -0.5251,0.50623 c -0.2888,0.27845 -0.7251,0.60785 -0.9696,0.73205 -0.6076,0.30866 -1.791,0.30504 -2.6462,-0.008 l -0.6778,-0.24816 -0.6557,0.72414 c -0.3607,0.39828 -0.8048,0.7584 -0.987,0.80029 -0.4844,0.11133 -1.1662,-0.22379 -1.9353,-0.9511 l -0.6762,-0.6396 -0.2801,0.29818 -0.2802,0.29816 0.5079,0.64238 c 1.5393,1.94739 2.989,2.15789 4.9849,0.7239 0.7638,-0.54869 1.0827,-0.55284 1.7771,-0.0233 1.13,0.86183 1.4474,1.70384 1.3266,3.5189 -0.044,0.66358 -0.1146,1.39224 -0.1566,1.61925 -0.075,0.409 -0.072,0.41275 0.4266,0.41275 h 0.5028 l 0.2132,-0.97035 c 0.5412,-2.46304 0.4075,-3.7179 -0.5043,-4.73205 -0.6092,-0.67755 -0.6663,-0.83315 -0.3503,-0.95441 0.4092,-0.15703 1.2005,0.63212 1.5811,1.57681 0.3959,0.98293 0.086,4.5534 -0.4706,5.42925 -0.1593,0.25038 -0.2875,0.28552 -1.0361,0.2838 -0.4699,0 -0.9329,-0.0517 -1.0289,-0.11253 z"
       style="fill:#000000;stroke-width:0.264583"
       id="path1" />
  </g>
</svg>
