<?xml version="1.0" encoding="UTF-8" standalone="no"?>
<!-- Created with Inkscape (http://www.inkscape.org/) -->

<svg
   width="22.607901mm"
   height="24.3186mm"
   viewBox="0 0 22.6079 24.3186"
   version="1.1"
   id="svg1"
   inkscape:version="1.4 (e7c3feb1, 2024-10-09)"
   sodipodi:docname="GLF.svg"
   xmlns:inkscape="http://www.inkscape.org/namespaces/inkscape"
   xmlns:sodipodi="http://sodipodi.sourceforge.net/DTD/sodipodi-0.dtd"
   xmlns="http://www.w3.org/2000/svg"
   xmlns:svg="http://www.w3.org/2000/svg">
  <sodipodi:namedview
     id="namedview1"
     pagecolor="#ffffff"
     bordercolor="#000000"
     borderopacity="0.25"
     inkscape:showpageshadow="2"
     inkscape:pageopacity="0.0"
     inkscape:pagecheckerboard="0"
     inkscape:deskcolor="#d1d1d1"
     inkscape:document-units="mm"
     inkscape:zoom="2.9647587"
     inkscape:cx="42.667891"
     inkscape:cy="46.040847"
     inkscape:window-width="1440"
     inkscape:window-height="872"
     inkscape:window-x="0"
     inkscape:window-y="28"
     inkscape:window-maximized="0"
     inkscape:current-layer="layer1" />
  <defs
     id="defs1" />
  <g
     inkscape:label="Layer 1"
     inkscape:groupmode="layer"
     id="layer1"
     transform="translate(-1947.9074,-474.24423)">
    <path
       d="m 1951.413,498.42695 c 0,-0.0952 0.087,-0.87932 0.1943,-1.74246 0.1068,-0.86313 0.1765,-1.58709 0.1548,-1.60879 -0.022,-0.0217 -0.8978,-0.13781 -1.9471,-0.25803 l -1.9076,-0.21857 1.1342,-10.17035 c 0.6239,-5.59368 1.1411,-10.17632 1.1496,-10.18363 0.058,-0.0504 18.3318,2.06514 18.4394,2.13475 0.075,0.0484 0.5295,0.76006 1.0104,1.58144 l 0.8743,1.49343 -0.9364,8.45084 c -0.5151,4.64795 -0.9697,8.4908 -1.0104,8.53966 -0.041,0.0489 -2.9417,-0.23013 -6.4466,-0.61996 l -6.3726,-0.70879 -2.044,1.69946 c -1.1242,0.9347 -2.0999,1.71851 -2.1682,1.74179 -0.068,0.0233 -0.1241,-0.0356 -0.1241,-0.13079 z m 2.3984,-1.93916 1.8284,-1.51963 6.3639,0.70878 c 3.5001,0.38982 6.3969,0.67361 6.4373,0.63062 0.04,-0.043 0.4903,-3.83212 0.9997,-8.4203 l 0.9261,-8.34216 -0.8598,-1.46878 c -0.473,-0.80783 -0.9228,-1.51578 -0.9997,-1.57324 -0.1533,-0.11454 -18.0753,-2.13258 -18.1603,-2.04486 -0.052,0.0539 -2.2399,19.42852 -2.2374,19.81438 0,0.16571 0.339,0.2417 1.8726,0.42124 1.0291,0.12048 1.8931,0.24105 1.92,0.26793 0.051,0.0508 -0.1964,2.38114 -0.3229,3.04315 -0.086,0.4477 -0.3399,0.62054 2.2321,-1.51713 z m 1.109,-3.07933 c -0.1479,-0.48883 -0.3322,-2.43373 -0.328,-3.46222 0.01,-2.05513 0.6634,-4.51183 1.2028,-4.51183 0.3226,0 0.309,0.36962 -0.05,1.35059 -0.4048,1.10703 -0.5636,2.42512 -0.48,3.98341 0.041,0.76835 0.1128,1.58274 0.1591,1.80975 0.077,0.3788 0.124,0.41275 0.5685,0.41275 h 0.4843 l -0.073,-1.55575 c -0.079,-1.67758 0.046,-2.57987 0.4805,-3.48115 0.4634,-0.96004 0.9243,-0.83884 1.0641,0.27981 0.1224,0.98007 0.8233,2.31104 1.5992,3.03677 0.3835,0.35875 1.0824,0.80669 1.7375,1.1137 l 1.096,0.51357 0.2368,-0.29251 0.2369,-0.29251 -0.7307,-0.39121 c -0.9349,-0.5006 -1.9438,-1.48998 -2.3225,-2.27771 -0.2674,-0.55624 -0.2897,-0.73753 -0.2281,-1.85502 0.038,-0.68119 0.028,-1.30423 -0.022,-1.38452 -0.05,-0.0803 -0.4259,-0.23342 -0.8363,-0.34031 -1.6596,-0.43228 -2.5791,-1.08091 -2.9103,-2.0531 -0.1107,-0.32467 -0.2012,-0.74106 -0.2012,-0.92531 0,-0.28584 -0.1013,-0.37701 -0.6904,-0.62118 -0.9448,-0.3916 -1.6506,-1.17396 -1.8351,-2.03424 -0.1618,-0.75448 -0.1868,-2.66532 -0.038,-2.89967 0.111,-0.17478 1.4563,-0.66866 1.8214,-0.66866 0.1626,0 0.2341,0.0933 0.2341,0.30542 0,0.283 0.037,0.30041 0.508,0.23728 0.4551,-0.061 0.508,-0.0399 0.508,0.20258 0,0.2309 0.074,0.27072 0.505,0.27072 0.281,0 0.6892,-0.11239 0.9207,-0.25352 0.6362,-0.38787 1.702,-0.34959 2.3348,0.0839 0.471,0.32255 0.6154,0.34582 3.0975,0.49909 1.4319,0.0884 2.6156,0.16478 2.6303,0.16967 0.214,0.0711 0.5528,0.67445 0.6162,1.09747 0.166,1.1069 -0.4249,1.93238 -1.1475,1.60314 -0.5516,-0.25133 -0.5846,-1.42023 -0.054,-1.91452 0.2507,-0.23358 0.2263,-0.23928 -1.3711,-0.31998 -0.8945,-0.0452 -1.9485,-0.11426 -2.3422,-0.15349 l -0.7159,-0.0713 0.063,0.56371 c 0.075,0.6624 -0.1225,1.10889 -0.4897,1.10889 -0.2381,0 -0.2545,-0.0538 -0.1837,-0.60325 0.089,-0.6899 -0.068,-1.08305 -0.5866,-1.46778 -0.9626,-0.71463 -2.3677,0.28306 -2.0223,1.43598 0.1893,0.63196 0.4915,0.87325 1.3684,1.09267 2.0993,0.52527 2.4777,1.17919 1.7072,2.9501 -0.2026,0.46573 -0.3889,0.96108 -0.414,1.10078 -0.027,0.14784 -0.1645,0.27096 -0.3301,0.29459 -0.2444,0.0349 -0.2845,-0.0173 -0.2845,-0.37088 0,-0.2263 0.1785,-0.79859 0.3966,-1.27176 0.6644,-1.44156 0.4734,-1.65955 -1.9336,-2.20652 -2.0479,-0.46538 -2.5622,-0.65377 -2.9827,-1.09259 -0.3374,-0.35211 -0.3736,-0.47825 -0.4139,-1.44142 l -0.044,-1.05554 -0.4479,0.13744 -0.4478,0.13745 0.06,1.23987 c 0.051,1.05184 0.1081,1.31298 0.3787,1.72186 0.4069,0.61497 1.2941,1.09255 2.5363,1.36526 0.9825,0.21572 1.2592,0.42771 0.9228,0.70693 -0.1341,0.11126 -0.3185,0.11734 -0.691,0.0228 -0.5676,-0.14407 -0.5842,-0.11746 -0.3816,0.61166 0.243,0.87461 1.2742,1.56778 2.8427,1.91084 0.9792,0.21415 1.1115,0.49203 1.0065,2.1133 -0.066,1.01474 -0.042,1.21737 0.2027,1.72272 0.3754,0.77547 1.3698,1.67579 2.3655,2.14173 0.4781,0.22373 0.8221,0.46488 0.8221,0.57628 0,0.30393 -0.6756,1.42408 -0.8874,1.47137 -0.2781,0.0621 -1.4093,-0.34004 -2.3175,-0.82389 -1.4551,-0.77524 -2.3945,-1.91898 -2.8973,-3.52751 l -0.2176,-0.69602 -0.1588,0.75952 c -0.1418,0.67803 -0.131,1.72708 0.041,3.99802 0.024,0.31357 0.01,0.31796 -1.0771,0.35405 -0.966,0.0321 -1.1097,0.009 -1.1699,-0.1905 z m 10.6395,-13.06444 c 0.042,-0.11048 0.075,-0.38195 0.073,-0.60325 0,-0.38128 -0.014,-0.38944 -0.1905,-0.15584 -0.2032,0.2687 -0.2558,0.95998 -0.073,0.95998 0.062,0 0.1481,-0.0904 0.1905,-0.20089 z m -8.8267,-0.40236 c -0.074,-0.19209 -0.099,-0.62071 -0.056,-0.9525 0.076,-0.58163 0.067,-0.60325 -0.2433,-0.60325 -0.2786,0 -0.3219,0.0556 -0.3219,0.41359 0,0.54906 0.2101,1.25812 0.4104,1.38529 0.2876,0.18252 0.3479,0.11293 0.2108,-0.24313 z m -1.1791,-0.35964 c -0.042,-0.11048 -0.077,-0.48672 -0.077,-0.83608 0,-0.4513 -0.046,-0.6201 -0.1588,-0.58304 -0.3505,0.11514 -0.1933,1.62001 0.1692,1.62001 0.079,0 0.1091,-0.0904 0.067,-0.20089 z"
       style="fill:#000000;stroke-width:0.264583"
       id="path1" />
  </g>
</svg>
