<?xml version="1.0" encoding="UTF-8" standalone="no"?>
<!-- Created with Inkscape (http://www.inkscape.org/) -->

<svg
   xmlns:dc="http://purl.org/dc/elements/1.1/"
   xmlns:cc="http://creativecommons.org/ns#"
   xmlns:rdf="http://www.w3.org/1999/02/22-rdf-syntax-ns#"
   xmlns:svg="http://www.w3.org/2000/svg"
   xmlns="http://www.w3.org/2000/svg"
   xmlns:sodipodi="http://sodipodi.sourceforge.net/DTD/sodipodi-0.dtd"
   xmlns:inkscape="http://www.inkscape.org/namespaces/inkscape"
   width="418.11023"
   height="228.5433"
   id="svg3431"
   version="1.1"
   inkscape:version="0.48.4 r9939"
   sodipodi:docname="Новый документ 4">
  <defs
     id="defs3" />
  <sodipodi:namedview
     inkscape:document-units="mm"
     id="base"
     pagecolor="#ffffff"
     bordercolor="#666666"
     borderopacity="1.0"
     inkscape:pageopacity="0.0"
     inkscape:pageshadow="2"
     inkscape:zoom="0.49497475"
     inkscape:cx="688.2063"
     inkscape:cy="-30.894613"
     inkscape:current-layer="layer1"
     showgrid="false"
     units="mm"
     inkscape:window-width="1366"
     inkscape:window-height="715"
     inkscape:window-x="-8"
     inkscape:window-y="-8"
     inkscape:window-maximized="1" />
  <metadata
     id="metadata4">
    <rdf:RDF>
      <cc:Work
         rdf:about="">
        <dc:format>image/svg+xml</dc:format>
        <dc:type
           rdf:resource="http://purl.org/dc/dcmitype/StillImage" />
        <dc:title></dc:title>
      </cc:Work>
    </rdf:RDF>
  </metadata>
  <g
     inkscape:label="Layer 1"
     inkscape:groupmode="layer"
     id="layer1"
     transform="translate(0,-823.81888)">
    <g
       id="g3079"
       transform="matrix(3.0625,0,0,-3.0625,329.36137,978.41726)">
      <path
         d="M 0,0 C -0.58,-0.256 -9.699,-0.903 -8.745,6.855 -7.808,14.628 6.046,20.076 8.631,19.118 5.178,17.359 -1.972,15.957 -4.661,8.055 -7.296,0.257 -0.074,0.107 0,0"
         style="fill:#ee334f;fill-opacity:1;fill-rule:nonzero;stroke:none"
         id="path3081"
         inkscape:connector-curvature="0" />
    </g>
    <g
       id="g3083"
       transform="matrix(3.0625,0,0,-3.0625,372.5527,990.96954)">
      <path
         d="m 0,0 c -0.18,-0.612 -5.539,-7.998 -10.879,-2.287 -5.346,5.71 -0.619,19.823 1.778,21.185 C -9.972,15.121 -13.487,8.747 -9.156,1.611 -4.887,-5.428 -0.123,0.014 0,0"
         style="fill:#0072bc;fill-opacity:1;fill-rule:nonzero;stroke:none"
         id="path3085"
         inkscape:connector-curvature="0" />
    </g>
    <g
       id="g3087"
       transform="matrix(3.0625,0,0,-3.0625,408.13347,954.90921)">
      <path
         d="m 0,0 c 0.541,-0.337 6.294,-7.423 -0.61,-11.11 -6.902,-3.669 -19.322,4.539 -20.019,7.202 3.429,-1.808 8.677,-6.862 16.698,-4.527 C 3.977,-6.13 -0.057,-0.121 0,0"
         style="fill:#00a651;fill-opacity:1;fill-rule:nonzero;stroke:none"
         id="path3089"
         inkscape:connector-curvature="0" />
    </g>
    <g
       id="g3091"
       transform="matrix(3.0625,0,0,-3.0625,92.037827,845.67535)">
      <path
         d="m 0,0 -5.724,0 c -4.372,0 -6.797,-2.425 -6.797,-6.801 l 0,-7.653 c 0,-4.377 2.425,-6.796 6.797,-6.796 l 5.724,0 c 4.37,0 6.797,2.419 6.797,6.796 l 0,7.653 C 6.797,-2.425 4.37,0 0,0 m -1.122,-13.683 -3.474,0 0,6.11 3.474,0 0,-6.11 z"
         style="fill:#0072bc;fill-opacity:1;fill-rule:nonzero;stroke:none"
         id="path3093"
         inkscape:connector-curvature="0" />
    </g>
    <g
       id="g3095"
       transform="matrix(3.0625,0,0,-3.0625,163.07742,887.55964)">
      <path
         d="m 0,0 -5.708,0 0,6.104 5.708,0 0,7.573 -6.833,0 c -4.374,0 -6.798,-2.425 -6.798,-6.801 l 0,-7.654 c 0,-4.376 2.424,-6.795 6.798,-6.795 l 6.833,0"
         style="fill:#0072bc;fill-opacity:1;fill-rule:nonzero;stroke:none"
         id="path3097"
         inkscape:connector-curvature="0" />
    </g>
    <g
       id="g3099"
       transform="matrix(3.0625,0,0,-3.0625,209.82526,845.67535)">
      <path
         d="m 0,0 -4.231,0 0,6.517 -7.922,0 0,-27.767 7.922,0 0,13.677 3.113,0 0,-13.677 7.923,0 0,14.449 C 6.805,-2.425 4.373,0 0,0"
         style="fill:#0072bc;fill-opacity:1;fill-rule:nonzero;stroke:none"
         id="path3101"
         inkscape:connector-curvature="0" />
    </g>
    <g
       id="g3103"
       transform="matrix(3.0625,0,0,-3.0625,41.07599,882.8394)">
      <path
         d="m 0,0 -3.98,4.562 5.329,0 0,7.573 -8.949,0 c -4.079,0 -5.527,-2.022 -5.527,-4.63 0,-1.744 0.501,-3.141 1.676,-4.488 l 3.974,-4.558 -5.325,0 0,-7.573 8.949,0 c 4.081,0 5.529,2.015 5.529,4.63 C 1.676,-2.74 1.176,-1.35 0,0"
         style="fill:#0072bc;fill-opacity:1;fill-rule:nonzero;stroke:none"
         id="path3105"
         inkscape:connector-curvature="0" />
    </g>
    <path
       d="m 240.17524,910.75102 24.26419,0 0,-65.07812 -24.26419,0 0,65.07812 z"
       style="fill:#0072bc;fill-opacity:1;fill-rule:nonzero;stroke:none"
       id="path3107"
       inkscape:connector-curvature="0" />
    <g
       id="g3109"
       transform="matrix(3.0625,0,0,-3.0625,227.223,985.36423)">
      <path
         d="m 0,0 4.232,0 0,-6.52 7.92,0 0,27.77 -7.92,0 0,-13.678 -3.115,0 0,13.678 -7.916,0 0,-14.449 C -6.799,2.424 -4.372,0 0,0"
         style="fill:#0072bc;fill-opacity:1;fill-rule:nonzero;stroke:none"
         id="path3111"
         inkscape:connector-curvature="0" />
    </g>
    <g
       id="g3113"
       transform="matrix(3.0625,0,0,-3.0625,142.24875,920.2898)">
      <path
         d="m 0,0 -5.717,0 c -4.374,0 -6.802,-2.425 -6.802,-6.794 l 0,-7.662 c 0,-4.369 2.428,-6.793 6.802,-6.793 l 5.717,0 c 4.381,0 6.801,2.424 6.801,6.793 l 0,7.662 C 6.801,-2.425 4.381,0 0,0 m -1.117,-13.68 -3.48,0 0,6.109 3.48,0 0,-6.109 z"
         style="fill:#0072bc;fill-opacity:1;fill-rule:nonzero;stroke:none"
         id="path3115"
         inkscape:connector-curvature="0" />
    </g>
    <g
       id="g3117"
       transform="matrix(3.0625,0,0,-3.0625,56.2562,957.43577)">
      <path
         d="m 0,0 3.977,4.558 -5.328,0 0,7.572 8.945,0 c 4.077,0 5.525,-2.026 5.525,-4.626 0,-1.746 -0.503,-3.139 -1.677,-4.488 l -3.976,-4.563 5.328,0 0,-7.573 -8.944,0 c -4.076,0 -5.527,2.025 -5.527,4.634 0,1.741 0.501,3.136 1.677,4.486"
         style="fill:#0072bc;fill-opacity:1;fill-rule:nonzero;stroke:none"
         id="path3119"
         inkscape:connector-curvature="0" />
    </g>
    <path
       d="m 172.60731,985.36577 24.26418,0 0,-65.07506 -24.26418,0 0,65.07506 z"
       style="fill:#0072bc;fill-opacity:1;fill-rule:nonzero;stroke:none"
       id="path3121"
       inkscape:connector-curvature="0" />
    <g
       id="g3123"
       transform="matrix(3.0625,0,0,-3.0625,347.78752,845.67535)">
      <path
         d="m 0,0 -6.272,0 c -4.37,0 -6.795,-2.425 -6.795,-6.801 l 0,-14.449 7.923,0 0,13.677 5.144,0"
         style="fill:#0072bc;fill-opacity:1;fill-rule:nonzero;stroke:none"
         id="path3125"
         inkscape:connector-curvature="0" />
    </g>
    <path
       d="m 273.97912,910.75102 24.255,0 0,-23.19231 -24.255,0 0,23.19231 z"
       style="fill:#0072bc;fill-opacity:1;fill-rule:nonzero;stroke:none"
       id="path3127"
       inkscape:connector-curvature="0" />
    <g
       id="g3129"
       transform="matrix(3.0625,0,0,-3.0625,391.10964,845.67535)">
      <path
         d="m 0,0 0,-13.683 -3.111,0 0,13.683 -7.922,0 0,-14.454 c 0,-4.377 2.426,-6.796 6.8,-6.796 l 5.349,0 c 4.378,0 6.801,2.419 6.801,6.796 L 7.917,0"
         style="fill:#0072bc;fill-opacity:1;fill-rule:nonzero;stroke:none"
         id="path3131"
         inkscape:connector-curvature="0" />
    </g>
    <g
       id="g3133"
       transform="matrix(3.0625,0,0,-3.0625,395.95942,850.53402)">
      <path
         d="m 0,0 0,-13.677 -6.284,0 0,13.677 -4.744,0 0,-12.868 c 0.003,-1.906 0.507,-3.129 1.292,-3.916 0.789,-0.781 2.01,-1.287 3.919,-1.295 l 5.35,0 c 1.908,0.008 3.137,0.514 3.921,1.295 0.791,0.787 1.29,2.01 1.295,3.916 L 4.749,0 0,0 z m -25.917,-1.294 c -0.782,-0.787 -1.282,-2.01 -1.292,-3.92 l 0,-12.865 4.745,0 0,13.678 5.147,0 0,4.401 -4.684,0 c -1.905,-0.004 -3.129,-0.51 -3.916,-1.294 m -12.321,-16.785 4.741,0 0,4.402 -4.741,0 0,-4.402 z m -11.043,-19.958 -6.283,0 0,13.676 -4.747,0 0,-12.867 c 0.012,-1.912 0.511,-3.13 1.299,-3.918 0.778,-0.785 2.007,-1.287 3.914,-1.294 l 5.817,0 0.005,-6.515 4.748,0 0,24.594 -4.753,0 0,-13.676 z m -22.063,-4.403 4.75,0 0,18.078 -4.75,0 0,-18.078 z m -17.683,13.677 6.652,0 0,-9.28 -6.652,0 0,9.28 z m 6.183,4.402 -5.719,0 c -1.909,-0.009 -3.132,-0.514 -3.916,-1.294 -0.784,-0.788 -1.287,-2.01 -1.299,-3.917 l 0,-7.656 c 0.01,-1.912 0.515,-3.13 1.297,-3.918 0.786,-0.785 2.009,-1.287 3.918,-1.294 l 5.722,0 c 1.907,0.007 3.131,0.509 3.918,1.294 0.784,0.788 1.287,2.006 1.293,3.918 l 0,7.656 c -0.006,1.907 -0.509,3.129 -1.293,3.917 -0.787,0.78 -2.011,1.285 -3.921,1.294 m -16.545,-3.042 c -0.007,1.024 -0.265,1.681 -0.747,2.143 -0.478,0.457 -1.401,0.895 -3.194,0.899 l -7.352,0 0,-4.402 7.223,0 -6.27,-7.186 c -0.951,-1.13 -1.26,-2.003 -1.288,-3.446 0.011,-1.029 0.27,-1.686 0.745,-2.144 0.479,-0.463 1.402,-0.901 3.198,-0.902 l 7.356,0 0,4.404 -7.222,0 6.266,7.184 c 0.946,1.126 1.262,2.005 1.285,3.45 m 0.615,13.726 -6.651,0 0,9.277 6.651,0 0,-9.277 z m -0.466,13.674 -5.724,0 c -1.91,-0.001 -3.132,-0.507 -3.916,-1.291 -0.78,-0.787 -1.288,-2.01 -1.295,-3.92 l 0,-7.654 c 0.007,-1.906 0.512,-3.129 1.295,-3.918 0.784,-0.78 2.012,-1.285 3.916,-1.293 l 5.724,0 c 1.91,0.008 3.133,0.513 3.917,1.293 0.783,0.789 1.289,2.012 1.297,3.918 l 0,7.654 c -0.008,1.91 -0.514,3.133 -1.297,3.92 -0.784,0.784 -2.007,1.29 -3.917,1.291 m 38.929,-18.076 4.747,0 0,12.865 c -0.008,1.91 -0.512,3.133 -1.295,3.92 -0.784,0.784 -2.013,1.29 -3.919,1.294 l -5.816,0 0,6.517 -4.75,0 0,-24.596 4.75,0 0,13.678 6.283,0 0,-13.678 z M -86.79,-1.294 c -0.781,-0.787 -1.29,-2.01 -1.296,-3.92 l 0,-7.654 c 0.006,-1.911 0.515,-3.129 1.296,-3.918 0.785,-0.78 2.013,-1.285 3.921,-1.293 l 5.239,0 0,4.402 -5.71,0 0,9.276 5.71,0 0,4.401 -5.239,0 c -1.908,-0.004 -3.136,-0.51 -3.921,-1.294 m 37.514,-16.785 4.748,0 0,18.079 -4.748,0 0,-18.079 z m -74.071,13.678 7.225,0 0,4.401 -7.358,0 c -1.793,-0.004 -2.714,-0.436 -3.195,-0.897 -0.48,-0.46 -0.74,-1.117 -0.746,-2.146 0.027,-1.447 0.337,-2.318 1.285,-3.446 l 6.272,-7.188 -7.227,0 0,-4.402 7.357,0 c 1.795,0.006 2.723,0.438 3.201,0.899 0.475,0.462 0.736,1.119 0.743,2.147 -0.023,1.439 -0.334,2.317 -1.286,3.444"
         style="fill:#d5e3eb;fill-opacity:1;fill-rule:nonzero;stroke:none"
         id="path3135"
         inkscape:connector-curvature="0" />
    </g>
    <g
       id="g3137"
       transform="matrix(3.0625,0,0,-3.0625,26.73766,1024.0424)">
      <path
         d="m 0,0 c -0.395,0 -0.505,-0.224 -0.505,-0.617 l 0,-4.648 2.69,0 c 0.392,0 0.506,0.224 0.506,0.615 l 0,4.033 C 2.691,-0.224 2.577,0 2.185,0 L 0,0 z m -1.486,-8.929 0,8.312 c 0,1.038 0.446,1.482 1.486,1.482 l 2.185,0 c 1.035,0 1.485,-0.444 1.485,-1.482 l 0,-4.033 c 0,-1.036 -0.45,-1.483 -1.485,-1.483 l -2.69,0 0,-2.796"
         style="fill:#0072bc;fill-opacity:1;fill-rule:nonzero;stroke:none"
         id="path3139"
         inkscape:connector-curvature="0" />
    </g>
    <g
       id="g3141"
       transform="matrix(3.0625,0,0,-3.0625,60.07207,1032.7482)">
      <path
         d="m 0,0 -2.553,0 c -0.389,0 -0.501,-0.224 -0.501,-0.615 l 0,-1.192 c 0,-0.391 0.112,-0.615 0.501,-0.615 l 2.047,0 c 0.39,0 0.506,0.224 0.506,0.615 L 0,0 z m -4.037,-0.615 c 0,1.036 0.449,1.482 1.484,1.482 l 2.553,0 0,1.359 c 0,0.393 -0.116,0.617 -0.506,0.617 l -3.264,0 0,0.865 3.264,0 c 1.035,0 1.483,-0.444 1.483,-1.482 l 0,-4.033 c 0,-1.036 -0.448,-1.483 -1.483,-1.483 l -2.047,0 c -1.035,0 -1.484,0.447 -1.484,1.483"
         style="fill:#0072bc;fill-opacity:1;fill-rule:nonzero;stroke:none"
         id="path3143"
         inkscape:connector-curvature="0" />
    </g>
    <g
       id="g3145"
       transform="matrix(3.0625,0,0,-3.0625,73.4062,1042.8238)">
      <path
         d="m 0,0 0,5.516 c 0,1.038 0.445,1.482 1.482,1.482 l 1.456,0 0,-0.865 -1.456,0 C 1.09,6.133 0.977,5.909 0.977,5.516 L 0.977,0"
         style="fill:#0072bc;fill-opacity:1;fill-rule:nonzero;stroke:none"
         id="path3147"
         inkscape:connector-curvature="0" />
    </g>
    <g
       id="g3149"
       transform="matrix(3.0625,0,0,-3.0625,102.09079,1032.7482)">
      <path
         d="m 0,0 -2.55,0 c -0.39,0 -0.502,-0.224 -0.502,-0.615 l 0,-1.192 c 0,-0.391 0.112,-0.615 0.502,-0.615 l 2.045,0 C -0.111,-2.422 0,-2.198 0,-1.807 L 0,0 z m -4.035,-0.615 c 0,1.036 0.45,1.482 1.485,1.482 l 2.55,0 0,1.359 c 0,0.393 -0.111,0.617 -0.505,0.617 l -3.261,0 0,0.865 3.261,0 c 1.038,0 1.487,-0.444 1.487,-1.482 l 0,-4.033 c 0,-1.036 -0.449,-1.483 -1.487,-1.483 l -2.045,0 c -1.035,0 -1.485,0.447 -1.485,1.483"
         style="fill:#0072bc;fill-opacity:1;fill-rule:nonzero;stroke:none"
         id="path3151"
         inkscape:connector-curvature="0" />
    </g>
    <path
       d="m 115.59581,1042.8245 3.00125,0 0,-30.0095 -3.00125,0 0,30.0095 z"
       style="fill:#0072bc;fill-opacity:1;fill-rule:nonzero;stroke:none"
       id="path3153"
       inkscape:connector-curvature="0" />
    <g
       id="g3155"
       transform="matrix(3.0625,0,0,-3.0625,144.63505,1046.8568)">
      <path
         d="m 0,0 c 0,-1.032 -0.449,-1.481 -1.486,-1.481 l -3.304,0 0,0.867 3.304,0 c 0.392,0 0.505,0.222 0.505,0.614 l 0,1.317 -2.546,0 c -1.042,0 -1.486,0.447 -1.486,1.482 l 0,5.516 0.978,0 0,-5.516 c 0,-0.39 0.112,-0.614 0.508,-0.614 l 2.546,0 0,6.13 0.981,0"
         style="fill:#0072bc;fill-opacity:1;fill-rule:nonzero;stroke:none"
         id="path3157"
         inkscape:connector-curvature="0" />
    </g>
    <g
       id="g3159"
       transform="matrix(3.0625,0,0,-3.0625,171.17773,1024.0424)">
      <path
         d="m 0,0 c -0.394,0 -0.505,-0.224 -0.505,-0.617 l 0,-5.516 -0.982,0 0,5.516 C -1.487,-0.224 -1.598,0 -1.989,0 l -1.766,0 c -0.391,0 -0.502,-0.224 -0.502,-0.617 l 0,-5.516 -0.983,0 0,5.516 c 0,1.038 0.451,1.482 1.485,1.482 l 1.766,0 c 0.419,0 0.757,-0.082 0.993,-0.377 0.239,0.295 0.56,0.377 0.996,0.377 l 1.764,0 c 1.037,0 1.486,-0.444 1.486,-1.482 l 0,-5.516 -0.982,0 0,5.516 C 2.268,-0.224 2.156,0 1.764,0"
         style="fill:#0072bc;fill-opacity:1;fill-rule:nonzero;stroke:none"
         id="path3161"
         inkscape:connector-curvature="0" />
    </g>
    <g
       id="g3163"
       transform="matrix(3.0625,0,0,-3.0625,196.1757,1024.0424)">
      <path
         d="m 0,0 c -0.391,0 -0.504,-0.224 -0.504,-0.617 l 0,-4.648 2.687,0 c 0.396,0 0.506,0.224 0.506,0.615 l 0,4.033 C 2.689,-0.224 2.579,0 2.183,0 L 0,0 z m -1.487,-8.929 0,8.312 c 0,1.038 0.452,1.482 1.487,1.482 l 2.183,0 c 1.038,0 1.487,-0.444 1.487,-1.482 l 0,-4.033 c 0,-1.036 -0.449,-1.483 -1.487,-1.483 l -2.687,0 0,-2.796"
         style="fill:#0072bc;fill-opacity:1;fill-rule:nonzero;stroke:none"
         id="path3165"
         inkscape:connector-curvature="0" />
    </g>
    <path
       d="m 217.91699,1021.3931 3.00432,0 0,21.4314 -3.00432,0 0,-21.4314 z m 1.49757,-8.5812 c 1.11781,0 1.92937,0.8177 1.92937,1.9325 0,1.1116 -0.81156,1.9232 -1.92937,1.9232 -1.10863,0 -1.92631,-0.8116 -1.92631,-1.9232 0,-1.1148 0.81768,-1.9325 1.92631,-1.9325"
       style="fill:#0072bc;fill-opacity:1;fill-rule:nonzero;stroke:none"
       id="path3167"
       inkscape:connector-curvature="0" />
    <g
       id="g3169"
       transform="matrix(3.0625,0,0,-3.0625,231.42446,1025.9308)">
      <path
         d="m 0,0 c 0,1.037 0.448,1.482 1.484,1.482 l 2.494,0 0,-0.865 -2.494,0 C 1.093,0.617 0.981,0.393 0.981,0 l 0,-4.034 c 0,-0.39 0.112,-0.614 0.503,-0.614 l 2.494,0 0,-0.868 -2.494,0 C 0.448,-5.516 0,-5.069 0,-4.034"
         style="fill:#0072bc;fill-opacity:1;fill-rule:nonzero;stroke:none"
         id="path3171"
         inkscape:connector-curvature="0" />
    </g>
    <g
       id="g3173"
       transform="matrix(3.0625,0,0,-3.0625,273.40276,1024.0424)">
      <path
         d="m 0,0 c -0.391,0 -0.506,-0.224 -0.506,-0.617 l 0,-4.033 c 0,-0.391 0.115,-0.615 0.506,-0.615 l 2.689,0 0,4.648 C 2.689,-0.224 2.578,0 2.187,0 L 0,0 z m 3.672,-7.45 c 0,-1.032 -0.449,-1.479 -1.485,-1.479 l -3.447,0 0,0.865 3.447,0 c 0.391,0 0.502,0.222 0.502,0.614 l 0,1.317 -2.689,0 c -1.035,0 -1.481,0.447 -1.481,1.483 l 0,4.033 c 0,1.038 0.446,1.482 1.481,1.482 l 2.187,0 c 1.036,0 1.485,-0.444 1.485,-1.482"
         style="fill:#0072bc;fill-opacity:1;fill-rule:nonzero;stroke:none"
         id="path3175"
         inkscape:connector-curvature="0" />
    </g>
    <g
       id="g3177"
       transform="matrix(3.0625,0,0,-3.0625,306.90928,1032.7482)">
      <path
         d="m 0,0 -2.551,0 c -0.393,0 -0.504,-0.224 -0.504,-0.615 l 0,-1.192 c 0,-0.391 0.111,-0.615 0.504,-0.615 l 2.045,0 C -0.115,-2.422 0,-2.198 0,-1.807 L 0,0 z m -4.036,-0.615 c 0,1.036 0.446,1.482 1.485,1.482 l 2.551,0 0,1.359 c 0,0.393 -0.115,0.617 -0.506,0.617 l -3.265,0 0,0.865 3.265,0 c 1.035,0 1.483,-0.444 1.483,-1.482 l 0,-4.033 c 0,-1.036 -0.448,-1.483 -1.483,-1.483 l -2.045,0 c -1.039,0 -1.485,0.447 -1.485,1.483"
         style="fill:#0072bc;fill-opacity:1;fill-rule:nonzero;stroke:none"
         id="path3179"
         inkscape:connector-curvature="0" />
    </g>
    <g
       id="g3181"
       transform="matrix(3.0625,0,0,-3.0625,336.27621,1024.0424)">
      <path
         d="m 0,0 c -0.395,0 -0.506,-0.224 -0.506,-0.617 l 0,-5.516 -0.977,0 0,5.516 C -1.483,-0.224 -1.596,0 -1.985,0 l -1.767,0 c -0.392,0 -0.505,-0.224 -0.505,-0.617 l 0,-5.516 -0.982,0 0,5.516 c 0,1.038 0.45,1.482 1.487,1.482 l 1.767,0 c 0.416,0 0.751,-0.082 0.99,-0.377 0.237,0.295 0.558,0.377 0.995,0.377 l 1.764,0 c 1.04,0 1.487,-0.444 1.487,-1.482 l 0,-5.516 -0.982,0 0,5.516 C 2.269,-0.224 2.158,0 1.764,0"
         style="fill:#0072bc;fill-opacity:1;fill-rule:nonzero;stroke:none"
         id="path3183"
         inkscape:connector-curvature="0" />
    </g>
    <g
       id="g3185"
       transform="matrix(3.0625,0,0,-3.0625,359.56035,1031.0314)">
      <path
         d="m 0,0 2.547,0 c 0.394,0 0.506,0.222 0.506,0.615 l 0,1.05 c 0,0.393 -0.112,0.617 -0.506,0.617 l -2.045,0 C 0.114,2.282 0,2.058 0,1.665 L 0,0 z M 4.034,0.615 C 4.034,-0.421 3.585,-0.87 2.547,-0.87 L 0,-0.87 0,-2.368 c 0,-0.39 0.114,-0.615 0.502,-0.615 l 3.319,0 0,-0.868 -3.319,0 c -1.036,0 -1.481,0.447 -1.481,1.483 l 0,4.033 c 0,1.038 0.445,1.482 1.481,1.482 l 2.045,0 c 1.038,0 1.487,-0.444 1.487,-1.482"
         style="fill:#0072bc;fill-opacity:1;fill-rule:nonzero;stroke:none"
         id="path3187"
         inkscape:connector-curvature="0" />
    </g>
    <g
       id="g3189"
       transform="matrix(3.0625,0,0,-3.0625,395.28351,1038.2834)">
      <path
         d="m 0,0 c 0,-1.036 -0.448,-1.483 -1.484,-1.483 l -2.896,0 0,0.868 2.896,0 c 0.393,0 0.505,0.224 0.505,0.615 l 0,1.024 c 0,0.391 -0.112,0.615 -0.505,0.615 l -1.623,0 c -1.036,0 -1.486,0.45 -1.486,1.485 l 0,0.91 c 0,1.037 0.45,1.482 1.486,1.482 l 2.897,0 0,-0.866 -2.897,0 c -0.389,0 -0.507,-0.224 -0.507,-0.616 l 0,-0.91 c 0,-0.394 0.118,-0.614 0.507,-0.614 l 1.623,0 C -0.448,2.51 0,2.06 0,1.024"
         style="fill:#0072bc;fill-opacity:1;fill-rule:nonzero;stroke:none"
         id="path3191"
         inkscape:connector-curvature="0" />
    </g>
  </g>
</svg>
