<?xml version="1.0" encoding="UTF-8"?>
<svg id="Pictogram" xmlns="http://www.w3.org/2000/svg" version="1.1" viewBox="0 0 144 144">
  <defs>
    <style>
      .cls-1 {
        fill: #000;
        stroke-width: 0px;
      }
    </style>
  </defs>
  <path class="cls-1" d="M23.8,85l25.6,25.6h3.8l-27.5-27.5c-5.5-5.5-12.7-8.5-20.5-8.5s-3.5.2-5.3.5v2.8c1.7-.3,3.5-.5,5.3-.5,7,0,13.6,2.7,18.5,7.7Z"/>
  <path class="cls-1" d="M16.2,92.6l18,18h3.8l-19.9-19.9c-3.4-3.4-8-5.3-12.8-5.3s-3.6.3-5.3.8v2.9c1.7-.6,3.4-.9,5.3-.9,4.1,0,8,1.6,10.9,4.5Z"/>
  <path class="cls-1" d="M87.8,60.4l-27.8,27.8h-12.3l20.1-20.1h3.2c2.8,0,5.1-2.3,5.1-5.1s-2.3-5.1-5.1-5.1H16.7c-2.5,0-4.7,1-6.3,2.6l-3.5,3.5c-.6,0-1.1,0-1.7,0-1.8,0-3.5.1-5.3.3v2.7c.2,0,.4,0,.7,0,0,0,0,0,.1,0,.2,0,.5,0,.7,0,0,0,0,0,.1,0,.2,0,.5,0,.7,0,0,0,0,0,.1,0,.2,0,.5,0,.7,0,0,0,0,0,.1,0,.2,0,.5,0,.7,0,0,0,0,0,.1,0h0c.3,0,.7,0,1,0,5,0,9.8,1,14.4,2.9,3.4,1.4,6.6,3.4,9.4,5.8,0,0,0,0,0,0,.5.4.9.8,1.3,1.2,0,0,0,0,0,0,.3.3.7.6,1,1,0,0,26.8,26.8,26.9,26.9,4.2,4,9.8,6.2,15.6,6.2s70,0,70,0v-2.7h-38.7l16.9-16.9h21.7v-2.7h-19l19-19v-11.4h-49.9c-2.5,0-4.7,1-6.3,2.6ZM38.5,70.7c-1.5,0-2.7.6-3.8,1.7l-2.3,2.3c-.9-.8-1.9-1.7-2.8-2.4l4.1-4.1h30.2l-12.9,12.9-8.7-8.7c-1.1-1.1-2.3-1.7-3.8-1.7ZM101.5,107.9h-27.5c-5.3,0-10.3-2.1-14.1-5.8l-11.1-11.1h69.6l-16.9,16.9ZM110.7,88.2l5.1-5.1,5.1,5.1h-10.3ZM141.2,68.1l-12.9,12.9-8.7-8.7c-1.1-1.1-2.3-1.7-3.8-1.7s-2.7.6-3.8,1.7l-15.9,15.9h-5.2l20.1-20.1h30.2Z"/>
  <path class="cls-1" d="M26.3,38.6c-3.5,3.5-3.5,9.2,0,12.7,3.5,3.5,9.2,3.5,12.7,0,3.5-3.5,3.5-9.2,0-12.7-3.5-3.5-9.2-3.5-12.7,0Z"/>
  <path class="cls-1" d="M103.4,38.6c-3.5,3.5-3.5,9.2,0,12.7,3.5,3.5,9.2,3.5,12.7,0s3.5-9.2,0-12.7-9.2-3.5-12.7,0Z"/>
</svg>