<?xml version="1.0" encoding="UTF-8"?><svg id="Pictogram" xmlns="http://www.w3.org/2000/svg" viewBox="0 0 144 144"><defs><style>.cls-1{fill:none;}.cls-1,.cls-2{stroke-width:0px;}</style></defs><path class="cls-2" d="M77.27,28.61c-5.16-.16-9.37,4.05-9.2,9.2.14,4.67,3.96,8.47,8.63,8.63,5.16.16,9.37-4.05,9.22-9.2-.16-4.67-3.97-8.48-8.64-8.63ZM75.1,119.52c-16.65-16.63-33.84-33.74-50.47-50.46-1.81,1.81-3.37,3.36-3.37,5.93v32.52H0v10.31h26.41c3.97,0,5.18-2.78,5.18-5.07v-22.08c12.07,12.07,24.12,24.12,36.19,36.19,2.94,3,7.91,1.3,8.71-2.62.07-.36.71-2.62-1.4-4.72ZM77.27,28.61c-5.16-.16-9.37,4.05-9.2,9.2.14,4.67,3.96,8.47,8.63,8.63,5.16.16,9.37-4.05,9.22-9.2-.16-4.67-3.97-8.48-8.64-8.63ZM119.35,107.67c-3.04-.04-5.23,2.35-5.24,5.14.03,3.43,2.56,5.16,5.13,5.17,2.56.01,5.13-1.67,5.18-5.07.03-2.89-2.12-5.18-5.07-5.24ZM119.26,115.24c-1.41,0-2.53-1.22-2.36-2.66.13-1.09,1.01-1.97,2.1-2.09,1.44-.16,2.65.96,2.65,2.36-.01,1.32-1.08,2.39-2.39,2.39ZM130.1,65.59l13.9,13.8v-2.65l-12.64-12.69V0h-1.97v16.42H0v1.97h129.4v35.45h-54.59c-.04-.07-15.98-16.01-15.98-16.01-.68-.68-1.73-1.83-3.54-1.83h-23.54c-.86-.01-2.23.39-2.85,1.01-4.67,4.61-13.77,13.82-13.77,13.82-.84.85-1.35,1.84-1.54,3.01H0v1.97h13.61c.58,2.82,3.05,4.67,5.92,4.49,1.3-.17,2.53-.65,3.44-1.6.96-.96,1.93-1.93,2.89-2.89h12.05l-7.8,7.8H0v1.97h28.14l18.43,18.43,18.32-18.32c0,2.38-.01,4.77-.01,7.14-.07,1.34,0,2.49.5,3.51.32.63.69,1.12,1.07,1.53l16.78,16.79c2.69,2.69,7.5,1.97,8.86-1.57h12.92c4.19,3.21,16.49,9.09,22.92,5.86,3.1-1.73,4.51-4.44,4.55-7.13h0v-.03c-.04-2.69-1.47-5.4-4.55-7.13-6.45-3.23-18.73,2.65-22.92,5.86h-12.54c-.13-1.21-.16-2.45-1.32-3.64-1.38-1.43-11.51-11.42-15.09-15.08v-6.19h54.07v-.04ZM39.89,53.84h-12.05c2.25-2.25,4.49-4.49,6.74-6.75,4.02.01,8.04.01,12.04.01l-6.72,6.74ZM126.71,86.89c2.32,1.25,3.15,3.17,3.18,4.9-.04,1.74-.88,3.64-3.18,4.9-3.69,2.39-15.51-2.26-19.2-4.9,3.69-2.62,15.51-7.29,19.2-4.9ZM75.82,55.81h53.58v7.8h-53.37v-5.98c0-.62-.07-1.24-.22-1.83ZM77.27,28.61c-5.16-.16-9.37,4.05-9.2,9.2.14,4.67,3.96,8.47,8.63,8.63,5.16.16,9.37-4.05,9.22-9.2-.16-4.67-3.97-8.48-8.64-8.63ZM119.35,107.67c-3.04-.04-5.23,2.35-5.24,5.14.03,3.43,2.56,5.16,5.13,5.17,2.56.01,5.13-1.67,5.18-5.07.03-2.89-2.12-5.18-5.07-5.24ZM119.26,115.24c-1.41,0-2.53-1.22-2.36-2.66.13-1.09,1.01-1.97,2.1-2.09,1.44-.16,2.65.96,2.65,2.36-.01,1.32-1.08,2.39-2.39,2.39ZM119.35,107.67c-3.04-.04-5.23,2.35-5.24,5.14.03,3.43,2.56,5.16,5.13,5.17,2.56.01,5.13-1.67,5.18-5.07.03-2.89-2.12-5.18-5.07-5.24ZM119.26,115.24c-1.41,0-2.53-1.22-2.36-2.66.13-1.09,1.01-1.97,2.1-2.09,1.44-.16,2.65.96,2.65,2.36-.01,1.32-1.08,2.39-2.39,2.39ZM119.35,107.67c-3.04-.04-5.23,2.35-5.24,5.14.03,3.43,2.56,5.16,5.13,5.17,2.56.01,5.13-1.67,5.18-5.07.03-2.89-2.12-5.18-5.07-5.24ZM119.26,115.24c-1.41,0-2.53-1.22-2.36-2.66.13-1.09,1.01-1.97,2.1-2.09,1.44-.16,2.65.96,2.65,2.36-.01,1.32-1.08,2.39-2.39,2.39ZM119.35,107.67c-3.04-.04-5.23,2.35-5.24,5.14.03,3.43,2.56,5.16,5.13,5.17,2.56.01,5.13-1.67,5.18-5.07.03-2.89-2.12-5.18-5.07-5.24ZM119.26,115.24c-1.41,0-2.53-1.22-2.36-2.66.13-1.09,1.01-1.97,2.1-2.09,1.44-.16,2.65.96,2.65,2.36-.01,1.32-1.08,2.39-2.39,2.39ZM119.35,107.67c-3.04-.04-5.23,2.35-5.24,5.14.03,3.43,2.56,5.16,5.13,5.17,2.56.01,5.13-1.67,5.18-5.07.03-2.89-2.12-5.18-5.07-5.24ZM119.26,115.24c-1.41,0-2.53-1.22-2.36-2.66.13-1.09,1.01-1.97,2.1-2.09,1.44-.16,2.65.96,2.65,2.36-.01,1.32-1.08,2.39-2.39,2.39Z"/><rect class="cls-1" width="144" height="144"/></svg>