<svg width="35" height="35" viewBox="0 0 35 35" fill="none" xmlns="http://www.w3.org/2000/svg">
<path d="M5.75972 10.6275C8.34687 12.1209 10.8614 13.5721 13.312 14.9869C14.3405 14.2693 15.2716 13.5822 16.242 12.9547C17.6511 12.0424 19.2025 11.4468 20.8251 11.0372C21.0531 10.9791 21.2943 10.9602 21.5296 10.9399C21.9509 10.9036 22.2908 11.0372 22.4898 11.4367C22.6714 11.8027 22.5639 12.1209 22.3416 12.4332C21.4802 13.6432 20.6319 14.862 19.7676 16.0706C18.283 18.1493 16.7896 20.2237 15.3021 22.301C15.2019 22.4419 15.122 22.5973 14.9738 22.8443C16.6763 23.1261 18.3193 23.1261 19.9593 23.312C20.3079 22.0482 20.6362 20.8571 20.9805 19.6078C20.5665 19.233 20.1293 18.8379 19.6891 18.4413C19.8257 17.9779 19.9404 17.5886 20.0799 17.1165C21.0851 17.5479 21.8942 18.1828 22.7092 18.7943C23.0651 19.0601 23.0012 19.4683 22.8922 19.8635C22.6482 20.751 22.4186 21.643 22.1949 22.5363C22.1252 22.8138 22.0947 23.1014 22.0337 23.4646C24.0645 23.6578 26.0052 23.8408 27.9924 24.0296C27.7005 24.602 27.285 24.6979 26.7257 24.6441C24.1836 24.4015 21.6371 24.1967 19.0921 23.9759C17.731 23.8582 16.3669 23.7565 15.0087 23.6055C14.5686 23.5561 14.2795 23.6491 14.0398 24.0253C13.7725 24.4451 13.4602 24.8373 13.0869 25.3501C15.4634 25.8759 17.7324 26.3771 20.0407 26.887C19.6368 27.4957 19.1269 27.4477 18.5822 27.3228C16.8463 26.9262 15.1089 26.5311 13.3687 26.149C11.165 25.6653 8.95698 25.199 6.75332 24.7167C6.35675 24.6296 5.9689 24.5032 5.52148 24.3797C5.60138 24.1313 5.65222 23.9759 5.7234 23.7522C7.95321 24.2287 10.1467 24.6964 12.3649 25.17C12.3649 24.9855 12.3896 24.9085 12.362 24.8736C11.6458 23.9977 11.9247 23.2961 12.5697 22.4622C14.7864 19.5947 16.9175 16.6618 19.079 13.7536C19.1299 13.6854 19.1589 13.6011 19.201 13.5183C18.5953 13.4864 17.7266 13.8176 16.4904 14.5875C15.6609 15.1031 14.8533 15.6522 13.9933 16.2144C12.7019 15.475 11.4149 14.7414 10.1322 14.002C8.82044 13.2452 7.51887 12.4695 6.19987 11.7257C5.78005 11.4904 5.55344 11.2202 5.75972 10.629V10.6275Z" fill="#F4F3F4"/>
<path d="M20.552 9.9666C18.8292 10.7089 17.1499 11.4309 15.3981 12.1862C15.2092 11.6226 15.0436 11.1287 14.8446 10.5346C17.7339 9.41024 20.6218 8.47328 23.4297 7.42883C23.53 7.49275 23.6026 7.51309 23.6186 7.55521C23.6709 7.69031 23.7028 7.83266 23.7667 8.05928C22.6816 8.46456 21.611 8.86549 20.5056 9.27805C20.5186 9.47561 20.5317 9.67316 20.552 9.96805V9.9666Z" fill="#F4F3F4"/>
<path d="M25.6842 10.446C25.6682 11.2696 25.061 11.8739 24.2853 11.8391C23.559 11.8071 23.0956 11.2493 23.1319 10.4474C23.1667 9.67897 23.7696 9.06015 24.4741 9.07177C25.1641 9.08339 25.7001 9.6906 25.6842 10.4445V10.446Z" fill="#F4F3F4"/>
</svg>
