<svg width="35" height="35" viewBox="0 0 35 35" fill="none" xmlns="http://www.w3.org/2000/svg">
<path d="M14.3986 8.42243C14.5685 8.18855 14.6731 8.04475 14.83 7.82976C16.3597 8.80157 17.853 9.75015 19.4044 10.735C19.538 10.3036 19.647 9.94771 19.7879 9.49013C17.5581 8.30477 15.337 7.12377 13.0738 5.92098C13.2103 5.67113 13.2946 5.51569 13.3933 5.33411C13.5444 5.38204 13.6665 5.40384 13.7725 5.45759C15.7452 6.4817 17.7193 7.50436 19.6877 8.53719C22.3213 9.92156 24.9491 11.3161 27.5813 12.7019C28.0302 12.9387 28.5285 13.1275 28.2336 13.9033C26.12 12.8022 24.0238 11.7098 21.823 10.5622C21.6589 11.0779 21.5224 11.5078 21.3669 11.9988C22.0816 12.4637 22.7571 12.9082 23.4369 13.3454C25.1235 14.4291 26.8085 15.5157 28.5008 16.5892C28.9047 16.8449 29.1981 17.1252 28.9846 17.7687C26.7475 16.4585 24.647 14.9739 22.3939 13.6084C22.0656 13.9904 21.7155 14.342 21.4279 14.74C19.8503 16.9218 18.3178 19.1357 16.7112 21.2958C15.6101 22.776 14.4392 24.2083 13.2466 25.6159C12.6162 26.3611 11.7315 26.1243 11.4918 25.17C10.7917 22.3707 9.63245 19.7923 7.92124 17.4651C7.86894 17.394 7.8515 17.2995 7.80066 17.1746C8.03163 16.9712 8.2597 16.765 8.49648 16.5659C8.58945 16.4875 8.69986 16.4309 8.83641 16.3437C10.6348 18.2583 11.7983 20.5302 12.8268 23.0738C15.613 19.5279 17.7208 15.7815 19.2112 11.5587C17.6191 10.5215 16.0546 9.5032 14.3986 8.42388V8.42243Z" fill="#F4F3F4"/>
<path d="M21.8957 27.4898C21.6981 27.7993 21.5369 28.0549 21.3277 28.3818C19.0616 27.224 16.6865 26.534 13.9672 26.3684C14.5787 25.8222 15.0189 25.3966 15.4997 25.0204C15.6479 24.9041 15.9152 24.8591 16.1084 24.894C18.2365 25.2731 20.1467 26.1403 21.8957 27.4898Z" fill="#F4F3F4"/>
<path d="M10.151 26.1026C10.9253 26.1258 11.5586 26.7345 11.5586 27.4521C11.5586 28.2525 10.8468 28.8771 9.98978 28.8292C9.19374 28.7856 8.59958 28.1871 8.62428 27.4535C8.64897 26.7287 9.38401 26.0793 10.151 26.1011V26.1026Z" fill="#F4F3F4"/>
</svg>
