<svg width="35" height="35" viewBox="0 0 35 35" fill="none" xmlns="http://www.w3.org/2000/svg">
<path d="M10.3879 29.374C9.92448 29.1575 9.55115 28.9832 9.10809 28.7769C10.1613 26.3278 11.8086 24.4568 14.0936 22.9896C13.8524 22.8196 13.6665 22.6758 13.4689 22.5509C12.1703 21.7258 11.0154 20.7511 10.3443 19.3333C10.0726 18.758 9.86928 18.132 9.75307 17.5059C9.59618 16.6575 10.0654 16.1317 10.9442 16.1476C12.1688 16.168 13.3948 16.2392 14.618 16.3176C15.337 16.3641 15.8527 16.1941 16.3597 15.5811C17.2778 14.4698 18.3556 13.4893 19.4567 12.3635C18.7086 11.7679 17.9503 11.1622 17.1499 10.5259C16.5456 11.643 15.9951 12.6613 15.4431 13.6811C15.3966 13.7668 15.3385 13.8467 15.3036 13.9353C14.8518 15.0756 14.0602 15.6015 12.7165 15.2877C13.376 13.1508 14.2882 11.1142 15.2629 9.04857C13.7202 7.81963 12.2153 6.62121 10.6973 5.41261C11.1665 4.90128 11.5355 5.09157 11.9248 5.40098C13.2394 6.44107 14.5671 7.46518 15.8832 8.50382C18.8452 10.8397 21.8042 13.1799 24.7618 15.5216C25.308 15.9544 25.844 16.3989 26.4294 16.874C25.9602 17.2575 25.6145 17.2313 25.2383 16.919C24.724 16.4905 24.188 16.0895 23.6229 15.6465C22.9852 16.643 22.4317 17.5828 21.8042 18.469C21.1534 19.3885 20.4053 20.2397 19.7502 21.1549C19.3594 21.6997 18.9033 21.7781 18.3309 21.5704C18.007 21.4542 17.686 21.3321 17.2923 21.1869C19.2548 19.1604 20.9849 17.0991 22.6133 14.8548C22.1703 14.5047 21.7998 14.2113 21.4091 13.9019C19.9012 14.9623 18.6563 16.2711 17.5378 17.6875C16.9698 18.4065 16.3524 18.6578 15.4547 18.575C14.4974 18.4864 13.5256 18.5547 12.5044 18.5547C12.5363 19.0384 12.8951 19.3609 13.2176 19.6921C14.1313 20.6334 15.2237 21.3031 16.4439 21.7737C16.6241 21.8435 16.8144 21.8929 16.9901 21.9713C17.4085 22.1601 17.6511 22.4725 17.6496 22.9489C17.6482 23.4501 17.3213 23.681 16.9146 23.8626C16.0372 24.2548 15.122 24.5861 14.3013 25.0756C12.776 25.9835 11.643 27.3025 10.751 28.8292C10.6552 28.9919 10.5419 29.1459 10.3893 29.3754L10.3879 29.374Z" fill="#F4F3F4"/>
<path d="M20.0828 22.9155C20.8585 22.8952 21.579 23.62 21.6197 24.4626C21.6633 25.3298 20.9718 26.1476 20.1598 26.1912C19.2839 26.2392 18.6186 25.5637 18.6026 24.6093C18.5866 23.684 19.2388 22.9359 20.0828 22.9141V22.9155Z" fill="#F4F3F4"/>
</svg>
