<svg width="35" height="35" viewBox="0 0 35 35" fill="none" xmlns="http://www.w3.org/2000/svg">
<path d="M29.3202 24.8577C28.9251 25.446 28.5009 25.4649 28.023 25.3341C26.8608 25.0145 25.6973 24.7037 24.5352 24.3855C20.0116 23.1479 15.4896 21.9088 10.9675 20.6668C10.9094 20.6508 10.8585 20.6014 10.7496 20.5331C10.7801 20.3515 10.8164 20.1438 10.8716 19.8141C14.2752 20.7365 17.6191 21.6415 20.9631 22.5465C21.0067 22.484 21.0503 22.423 21.0939 22.3606C20.6348 21.7112 20.2063 21.0372 19.7095 20.4184C19.249 19.846 19.0471 19.2984 19.6339 18.6055C19.1008 18.4486 18.652 18.2815 18.1871 18.1842C15.1119 17.5407 12.1557 16.5427 9.30856 15.2237C7.73971 14.4974 6.2246 13.6767 4.75598 12.4898C5.36754 12.0047 5.93407 11.5558 6.54708 11.0692C7.23418 11.4861 7.88352 11.9175 8.56481 12.2879C11.7069 13.9904 15.0625 15.1307 18.5154 16.0081C20.1918 16.4338 21.8434 16.9306 23.3629 17.7818C24.5599 18.453 25.5273 19.3333 26.0111 20.6711C26.1941 21.1767 26.2261 21.6154 25.8033 22.0119C25.401 22.3896 24.9927 22.2952 24.5395 22.1005C23.9483 21.8478 23.3338 21.6502 22.6787 21.4105C23.0695 22.7804 23.5096 23.2423 24.6659 23.5561C25.9239 23.8975 27.1804 24.2374 28.437 24.5831C28.7159 24.6601 28.989 24.7531 29.3187 24.8562L29.3202 24.8577Z" fill="#F4F3F4"/>
<path d="M8.22345 9.95354C8.94541 9.40299 9.48434 8.99044 10.0494 8.55901C12.2197 10.4867 14.3667 12.394 16.566 14.3463C16.3626 14.3202 16.1665 14.3173 15.9835 14.2679C14.8257 13.9556 13.6694 13.636 12.5146 13.3077C12.2981 13.2467 12.0642 13.1711 11.8972 13.0331C10.6988 12.0453 9.5163 11.0401 8.22345 9.95209V9.95354Z" fill="#F4F3F4"/>
<path d="M30.1337 20.5912C30.1584 21.4367 29.4146 22.2415 28.5677 22.2865C27.7455 22.3301 27.102 21.7694 27.0512 20.9646C26.996 20.1003 27.7891 19.2243 28.6593 19.1865C29.3957 19.1546 30.1119 19.8359 30.1337 20.5912Z" fill="#F4F3F4"/>
</svg>
