<?xml version="1.0" encoding="UTF-8" standalone="no"?>
<!-- Generator: Adobe Illustrator 20.0.0, SVG Export Plug-In . SVG Version: 6.00 Build 0)  -->
<svg xmlns:dc="http://purl.org/dc/elements/1.1/" xmlns:cc="http://creativecommons.org/ns#" xmlns:rdf="http://www.w3.org/1999/02/22-rdf-syntax-ns#" xmlns:svg="http://www.w3.org/2000/svg" xmlns="http://www.w3.org/2000/svg" xmlns:sodipodi="http://sodipodi.sourceforge.net/DTD/sodipodi-0.dtd" xmlns:inkscape="http://www.inkscape.org/namespaces/inkscape" version="1.1" id="svg2" x="0px" y="0px" width="250.713432966" height="398.861755499" viewBox="0 0 1000 1590.9071" xml:space="preserve" inkscape:version="0.91 r13725" sodipodi:docname="Tokyo 2020 Paralympics.svg"><metadata id="metadata9757"><rdf:RDF><cc:Work rdf:about=""><dc:format>image/svg+xml</dc:format><dc:type rdf:resource="http://purl.org/dc/dcmitype/StillImage"/><dc:title/></cc:Work></rdf:RDF></metadata><defs id="defs9755"/><sodipodi:namedview pagecolor="#ffffff" bordercolor="#666666" borderopacity="1" objecttolerance="10" gridtolerance="10" guidetolerance="10" inkscape:pageopacity="0" inkscape:pageshadow="2" inkscape:window-width="1366" inkscape:window-height="705" id="namedview9753" showgrid="false" inkscape:zoom="0.21181117" inkscape:cx="540.96635" inkscape:cy="752.16006" inkscape:window-x="-8" inkscape:window-y="-8" inkscape:window-maximized="1" inkscape:current-layer="svg2"/>
<style type="text/css" id="style9590">
	.st0{fill:#C01432;}
	.st1{fill:#0161AB;}
	.st2{fill:#009055;}
	.st3{fill:#002361;}
</style>
<g id="g9592" transform="matrix(2.9146238,0,0,2.9146238,-10.145611,-16.281458)">
	<g id="g9594">
		<g id="g9596">
			<g id="g9598">
				<g id="g9600">
					<g id="g582">
					</g>
					<g id="g9603">
						<g id="g9605">
							<g id="g608">
							</g>
							<g id="g10" transform="matrix(1.3333333,0,0,-1.3333333,0,1122.52)">
								<g id="g2384" transform="translate(494.3869,624.8208)">
									<path id="path2386" class="st0" d="m -366.7,-115.2 c -0.6,0.2 -1.4,0.3 -2.3,0.3 -7.2,0 -19.6,-5.3 -27.7,-10.3 -7.2,-4.5 -19.6,-13.8 -21.1,-26.1 -0.7,-5.9 0.5,-10.7 3.6,-14.1 5.2,-5.9 14.3,-6.5 18,-6.5 2.3,0 3.9,0.2 4.2,0.4 l 0.1,0.1 -0.1,0.1 c 0,0.1 -0.1,0.1 -0.7,0.2 -6.2,0.9 -10.4,3.2 -12.7,7 -2.5,4 -2.5,9.5 -0.2,16.4 6.4,18.9 21.4,25 32.4,29.5 2.4,1 4.7,1.9 6.5,2.9 l 0.2,0.1 -0.2,0 z" inkscape:connector-curvature="0" style="fill:#c01432"/>
								</g>
								<g id="g2388" transform="translate(499.3,603.9233)">
									<path id="path2390" class="st1" d="m -355.6,-162.4 c -0.1,0 -0.1,0 -0.5,-0.4 -1.5,-1.3 -6,-5.4 -11.8,-5.4 -5.3,0 -10.2,3.5 -14.4,10.5 -10.3,17.1 -5.4,32.5 -1.8,43.8 0.8,2.5 1.5,4.8 2,6.8 l 0.1,0.3 -0.2,-0.1 c -1.9,-1.1 -4.2,-4.7 -6.4,-10 -2.3,-5.7 -4.2,-12.4 -5.2,-18.9 -1.3,-8.5 -2.2,-24.2 6.4,-33.4 3.9,-4.2 8.2,-6.4 12.7,-6.4 10.4,0 19,11.7 19.4,13.1 l 0,0.2 -0.3,0 0,-0.1 z" inkscape:connector-curvature="0" style="fill:#0161ab"/>
								</g>
								<g id="g2392" transform="translate(509.7658,614.5083)">
									<path id="path2394" class="st2" d="m -332,-138.5 -0.1,0.1 -0.1,-0.1 c 0,-0.1 0,-0.1 0.3,-0.7 2.8,-5.5 3.4,-10.4 1.6,-14.4 -1.9,-4.3 -6.4,-7.5 -13.3,-9.6 -4,-1.2 -8.1,-1.8 -12,-1.8 l 0,0 c -13.1,0 -23.3,6.6 -30.7,11.3 -2.2,1.4 -4.2,2.7 -6.1,3.7 l -0.2,0.1 0.1,-0.3 c 1.6,-6.3 26.4,-23.9 46.7,-23.9 4.6,0 8.7,0.9 12.1,2.8 6.4,3.4 9.8,8.2 9.9,14.2 0.2,9.1 -7.2,18 -8.2,18.6" inkscape:connector-curvature="0" style="fill:#009055"/>
								</g>
								<g id="g2396" transform="translate(490.8791,690.4126)">
									<path id="path2398" class="st3" d="m -374.7,33 30.6,0 0,-8.2 -30.6,0 0,8.2 z" inkscape:connector-curvature="0" style="fill:#002361"/>
								</g>
								<g id="g2400" transform="translate(509.6818,671.6099)">
									<path id="path2402" class="st3" d="M -332.2,-9.5 -321,9.9 -340.4,21.1 -351.6,1.7 -332.2,-9.5 Z" inkscape:connector-curvature="0" style="fill:#002361"/>
								</g>
								<g id="g2404" transform="translate(487.4357,675.0513)">
									<path id="path2406" class="st3" d="m -382.4,-1.7 -11.2,19.4 -19.4,-11.2 11.2,-19.4 19.4,11.2 z" inkscape:connector-curvature="0" style="fill:#002361"/>
								</g>
								<g id="g2408" transform="translate(501.5402,666.9082)">
									<path id="path2410" class="st3" d="m -350.6,-20.1 7.1,26.5 -15.3,4.1 -7.1,-26.5 15.3,-4.1 z" inkscape:connector-curvature="0" style="fill:#002361"/>
								</g>
								<g id="g2412" transform="translate(494.3205,668.168)">
									<path id="path2414" class="st3" d="m -366.9,-17.3 -7.1,26.5 -15.3,-4.1 7.1,-26.5 15.3,4.1 z" inkscape:connector-curvature="0" style="fill:#002361"/>
								</g>
								<g id="g2416" transform="translate(499.0187,657.5063)">
									<path id="path2418" class="st3" d="m -356.3,-41.4 15.3,26.5 -7.1,4.1 -15.3,-26.5 7.1,-4.1 z" inkscape:connector-curvature="0" style="fill:#002361"/>
								</g>
								<g id="g2420" transform="translate(494.3205,658.7661)">
									<path id="path2422" class="st3" d="m -366.9,-38.5 -15.3,26.5 -7.1,-4.1 15.3,-26.5 7.1,4.1 z" inkscape:connector-curvature="0" style="fill:#002361"/>
								</g>
								<g id="g2424" transform="translate(513.1232,705.7759)">
									<path id="path2426" class="st3" d="m -324.4,67.7 19.4,11.2 11.2,-19.4 -19.4,-11.2 -11.2,19.4 z" inkscape:connector-curvature="0" style="fill:#002361"/>
								</g>
								<g id="g2428" transform="translate(516.5666,683.5308)">
									<path id="path2430" class="st3" d="m -316.6,17.4 19.4,-11.2 -11.2,-19.4 -19.5,11.2 11.3,19.4 z" inkscape:connector-curvature="0" style="fill:#002361"/>
								</g>
								<path id="path2432" class="st3" d="m 250,742.8 -8.2,0 0,-30.6 8.2,0 0,30.6 z" inkscape:connector-curvature="0" style="fill:#002361"/>
								<g id="g2434" transform="translate(517.8264,695.1143)">
									<path id="path2436" class="st3" d="m -313.8,43.6 22.4,0 0,-22.5 -22.4,0 0,22.5 z" inkscape:connector-curvature="0" style="fill:#002361"/>
								</g>
								<g id="g2438" transform="translate(478.0344,705.7759)">
									<path id="path2440" class="st3" d="m -403.7,67.7 -19.4,11.2 -11.2,-19.4 19.4,-11.2 11.2,19.4 z" inkscape:connector-curvature="0" style="fill:#002361"/>
								</g>
								<g id="g2442" transform="translate(474.592,683.5308)">
									<path id="path2444" class="st3" d="m -411.4,17.4 -19.4,-11.2 11.2,-19.4 19.4,11.2 -11.2,19.4 z" inkscape:connector-curvature="0" style="fill:#002361"/>
								</g>
								<path id="path2446" class="st3" d="m 13.1,742.8 8.2,0 0,-30.6 -8.2,0 c 0,0 0,30.6 0,30.6 z" inkscape:connector-curvature="0" style="fill:#002361"/>
								<g id="g2448" transform="translate(473.3312,695.1143)">
									<path id="path2450" class="st3" d="m -414.3,43.6 -22.4,0 0,-22.5 22.4,0 0,22.5 z" inkscape:connector-curvature="0" style="fill:#002361"/>
								</g>
								<g id="g2452" transform="translate(517.8244,720.8003)">
									<path id="path2454" class="st3" d="m -313.8,101.6 -26.5,15.3 -4.1,-7.1 26.5,-15.3 4.1,7.1 z" inkscape:connector-curvature="0" style="fill:#002361"/>
								</g>
								<g id="g2456" transform="translate(473.3342,720.8003)">
									<path id="path2458" class="st3" d="m -414.3,101.6 26.5,15.3 4.1,-7.1 -26.5,-15.3 -4.1,7.1 z" inkscape:connector-curvature="0" style="fill:#002361"/>
								</g>
								<g id="g2460" transform="translate(507.1633,662.208)">
									<path id="path2462" class="st3" d="m -337.9,-30.7 19.4,19.4 -11.2,11.2 -19.4,-19.4 11.2,-11.2 z" inkscape:connector-curvature="0" style="fill:#002361"/>
								</g>
								<g id="g2464" transform="translate(500.2795,655.3237)">
									<path id="path2466" class="st3" d="m -353.4,-46.3 26.5,15.3 -4.1,7.1 -26.5,-15.3 4.1,-7.1 z" inkscape:connector-curvature="0" style="fill:#002361"/>
								</g>
								<g id="g2468" transform="translate(500.2805,687.894)">
									<path id="path2470" class="st3" d="m -353.4,27.3 26.5,-7.1 -4.1,-15.4 -26.5,7.1 4.1,15.4 z" inkscape:connector-curvature="0" style="fill:#002361"/>
								</g>
								<path id="path2472" class="st3" d="m 142.8,699.8 -22.4,0 0,-22.4 22.4,0 0,22.4 z" inkscape:connector-curvature="0" style="fill:#002361"/>
								<g id="g2474" transform="translate(482.7365,685.7119)">
									<path id="path2476" class="st3" d="m -393.1,22.3 26.5,7.1 4.1,-15.3 -26.4,-7.1 -4.2,15.3 z" inkscape:connector-curvature="0" style="fill:#002361"/>
								</g>
								<g id="g2478" transform="translate(496.8381,658.7661)">
									<path id="path2480" class="st3" d="m -361.2,-38.5 0,30.6 -8.2,0 0,-30.6 8.2,0 z" inkscape:connector-curvature="0" style="fill:#002361"/>
								</g>
								<g id="g2482" transform="translate(487.4387,665.6504)">
									<path id="path2484" class="st3" d="m -382.4,-23 -19.4,19.4 -11.2,-11.2 19.4,-19.4 11.2,11.2 z" inkscape:connector-curvature="0" style="fill:#002361"/>
								</g>
								<g id="g2486" transform="translate(492.1359,657.5063)">
									<path id="path2488" class="st3" d="m -371.8,-41.4 -26.5,15.4 -4.1,-7.1 26.5,-15.3 4.1,7 z" inkscape:connector-curvature="0" style="fill:#002361"/>
								</g>
								<g id="g2490" transform="translate(522.5246,712.6587)">
									<path id="path2492" class="st3" d="m -303.2,83.2 -19.4,19.4 -11.2,-11.2 19.4,-19.4 11.2,11.2 z" inkscape:connector-curvature="0" style="fill:#002361"/>
								</g>
								<g id="g2494" transform="translate(529.4064,705.7754)">
									<path id="path2496" class="st3" d="m -287.6,67.7 -15.4,26.5 -7.1,-4.1 15.3,-26.5 7.2,4.1 z" inkscape:connector-curvature="0" style="fill:#002361"/>
								</g>
								<g id="g2498" transform="translate(529.4074,696.3745)">
									<path id="path2500" class="st3" d="m -287.6,46.4 -7.1,26.5 -15.3,-4.1 7.1,-26.5 15.3,4.1 z" inkscape:connector-curvature="0" style="fill:#002361"/>
								</g>
								<g id="g2502" transform="translate(508.425,697.6333)">
									<path id="path2504" class="st3" d="m -335,49.3 26.5,7.1 4.1,-15.3 -26.5,-7.1 -4.1,15.3 z" inkscape:connector-curvature="0" style="fill:#002361"/>
								</g>
								<g id="g2506" transform="translate(527.2267,678.8306)">
									<path id="path2508" class="st3" d="m -292.6,6.8 7.1,26.5 -15.3,4.1 -7.1,-26.5 15.3,-4.1 z" inkscape:connector-curvature="0" style="fill:#002361"/>
								</g>
								<g id="g2510" transform="translate(524.7072,669.4292)">
									<path id="path2512" class="st3" d="m -298.3,-14.4 15.3,26.5 -7.1,4.1 -15.3,-26.5 7.1,-4.1 z" inkscape:connector-curvature="0" style="fill:#002361"/>
								</g>
								<g id="g2514" transform="translate(509.6828,690.4136)">
									<path id="path2516" class="st3" d="m -332.2,33 26.5,-7.1 -4.1,-15.3 -26.5,7.1 4.1,15.3 z" inkscape:connector-curvature="0" style="fill:#002361"/>
								</g>
								<g id="g2518" transform="translate(500.2814,692.9321)">
									<path id="path2520" class="st3" d="m -353.4,38.6 30.6,0 0,-8.2 -30.6,0 0,8.2 z" inkscape:connector-curvature="0" style="fill:#002361"/>
								</g>
								<g id="g2522" transform="translate(516.5656,664.7275)">
									<path id="path2524" class="st3" d="m -316.6,-25.1 19.4,19.4 -11.2,11.2 -19.4,-19.4 11.2,-11.2 z" inkscape:connector-curvature="0" style="fill:#002361"/>
								</g>
								<g id="g2526" transform="translate(509.6828,657.8452)">
									<path id="path2528" class="st3" d="m -332.2,-40.6 26.5,15.3 -4.1,7.1 -26.5,-15.3 4.1,-7.1 z" inkscape:connector-curvature="0" style="fill:#002361"/>
								</g>
								<g id="g2530" transform="translate(468.633,712.6587)">
									<path id="path2532" class="st3" d="m -424.9,83.2 19.4,19.4 11.2,-11.2 -19.4,-19.4 -11.2,11.2 z" inkscape:connector-curvature="0" style="fill:#002361"/>
								</g>
								<g id="g2534" transform="translate(461.7521,705.7754)">
									<path id="path2536" class="st3" d="m -440.4,67.7 15.3,26.5 7.1,-4.1 -15.3,-26.5 -7.1,4.1 z" inkscape:connector-curvature="0" style="fill:#002361"/>
								</g>
								<g id="g2538" transform="translate(461.7521,696.3745)">
									<path id="path2540" class="st3" d="m -440.4,46.4 7.1,26.5 15.3,-4.1 -7.1,-26.5 -15.3,4.1 z" inkscape:connector-curvature="0" style="fill:#002361"/>
								</g>
								<g id="g2542" transform="translate(482.7346,697.6333)">
									<path id="path2544" class="st3" d="m -393.1,49.3 -26.5,7.1 -4.1,-15.3 26.5,-7.1 4.1,15.3 z" inkscape:connector-curvature="0" style="fill:#002361"/>
								</g>
								<g id="g2546" transform="translate(463.9328,678.8306)">
									<path id="path2548" class="st3" d="m -435.5,6.8 -7.1,26.5 15.3,4.1 7.1,-26.5 -15.3,-4.1 z" inkscape:connector-curvature="0" style="fill:#002361"/>
								</g>
								<g id="g2550" transform="translate(466.4523,669.4292)">
									<path id="path2552" class="st3" d="m -429.8,-14.4 -15.3,26.5 7.1,4.1 15.3,-26.5 -7.1,-4.1 z" inkscape:connector-curvature="0" style="fill:#002361"/>
								</g>
								<g id="g2554" transform="translate(481.4767,690.4136)">
									<path id="path2556" class="st3" d="m -395.9,33 -26.5,-7.1 4.1,-15.3 26.5,7.1 -4.1,15.3 z" inkscape:connector-curvature="0" style="fill:#002361"/>
								</g>
								<g id="g2558" transform="translate(490.8791,692.9321)">
									<path id="path2560" class="st3" d="m -374.7,38.6 -30.6,0 0,-8.2 30.6,0 0,8.2 z" inkscape:connector-curvature="0" style="fill:#002361"/>
								</g>
								<g id="g2562" transform="translate(474.5959,664.7275)">
									<path id="path2564" class="st3" d="m -411.4,-25.1 -19.4,19.4 11.2,11.2 19.4,-19.4 -11.2,-11.2 z" inkscape:connector-curvature="0" style="fill:#002361"/>
								</g>
								<g id="g2566" transform="translate(481.4767,657.8452)">
									<path id="path2568" class="st3" d="m -395.9,-40.6 -26.5,15.3 4.1,7.1 26.5,-15.3 -4.1,-7.1 z" inkscape:connector-curvature="0" style="fill:#002361"/>
								</g>
								<g id="g2570" transform="translate(466.592,632.6255)">
									<path id="path2572" class="st3" d="m -429.5,-97.6 3.3,0 c 2,0 2.5,1.6 2.5,2.5 0,0.5 -0.2,2.5 -2.5,2.5 l -3.2,0 -0.1,-5 0,0 z m 0,-8.4 -2.4,0 0,15.7 5.5,0 c 4.8,0 5.1,-3.9 5.1,-4.9 0,-1.3 -0.7,-4.8 -4.8,-4.8 l -3.4,0 0,-6 0,0 z" inkscape:connector-curvature="0" style="fill:#002361"/>
								</g>
								<g id="g2574" transform="translate(494.7121,632.6255)">
									<path id="path2576" class="st3" d="m -366,-97.6 3.3,0 c 2,0 2.5,1.6 2.5,2.5 0,0.5 -0.2,2.5 -2.5,2.5 l -3.2,0 -0.1,-5 0,0 z m 0,-8.4 -2.4,0 0,15.7 5.5,0 c 4.8,0 5.1,-3.9 5.1,-4.9 0,-1.3 -0.7,-4.8 -4.8,-4.8 l -3.4,0 0,-6 0,0 z" inkscape:connector-curvature="0" style="fill:#002361"/>
								</g>
								<g id="g2578" transform="translate(474.3224,632.7617)">
									<path id="path2580" class="st3" d="m -412.1,-97.3 3.4,0 c 2.3,0 2.5,1.8 2.5,2.4 0,0.8 -0.2,2.2 -2.4,2.2 l -3.5,0 0,-4.6 z m 8.8,-8.9 -2.9,0 -3.2,6.7 -2.7,0 0,-6.7 -2.4,0 0,15.7 5.9,0 c 4.3,0 4.7,-3.1 4.7,-4.4 0,-2.2 -0.7,-3.7 -3,-4.4 l 3.6,-6.9 z" inkscape:connector-curvature="0" style="fill:#002361"/>
								</g>
								<g id="g2582" transform="translate(485.1174,630.0293)">
									<path id="path2584" class="st3" d="m -387.7,-103.4 -9.7,0 0,15.7 2.4,0 0,-13.5 7.3,0 0,-2.2 0,0 z" inkscape:connector-curvature="0" style="fill:#002361"/>
								</g>
								<g id="g2586" transform="translate(486.8693,630.0293)">
									<path id="path2588" class="st3" d="m -383.7,-103.4 -2.4,0 0,6.5 -4.6,9.3 2.6,0 3.2,-6.4 3.2,6.4 2.6,0 -4.6,-9.3 0,-6.5 0,0 z" inkscape:connector-curvature="0" style="fill:#002361"/>
								</g>
								<path id="path2590" class="st3" d="m 141.9,526.6 -2.4,0 0,15.7 2.4,0 0,-15.7 z" inkscape:connector-curvature="0" style="fill:#002361"/>
								<g id="g2592" transform="translate(501.2492,629.9902)">
									<path id="path2594" class="st3" d="m -351.2,-103.5 c -4.7,0 -5.2,4 -5.3,4.4 -0.1,0.6 -0.1,1.9 -0.1,3.6 0,1.8 0,3 0.1,3.6 0.1,0.6 0.9,4.4 5.3,4.4 4.2,0 5.1,-3.1 5.4,-4.7 l -2.6,0 c -0.2,0.6 -0.4,2.5 -2.8,2.4 -2.3,0 -2.8,-2.1 -2.8,-2.6 -0.1,-0.6 -0.1,-1.6 -0.1,-3.1 0,-1.5 0,-2.6 0.1,-3.1 0.1,-0.5 0.5,-2.5 2.9,-2.5 1.5,0 2.4,0.9 2.8,2.3 l 2.5,0 c -0.3,-1.6 -1.7,-4.7 -5.4,-4.7" inkscape:connector-curvature="0" style="fill:#002361"/>
								</g>
								<g id="g2596" transform="translate(506.8703,629.9902)">
									<path id="path2598" class="st3" d="m -338.5,-103.5 c -4.6,0 -5.2,3.9 -5.3,4.4 -0.1,0.7 -0.1,1.9 -0.1,3.6 0,1.8 0,3 0.1,3.6 0.1,0.7 0.9,4.4 5.3,4.4 4.5,0 5.2,-3.3 5.3,-4.7 l -2.6,0 c -0.1,0.6 -0.3,2.4 -2.8,2.4 -2.3,0 -2.8,-2.1 -2.9,-2.6 -0.1,-0.6 -0.1,-1.6 -0.1,-3.1 0,-1.5 0,-2.6 0.1,-3.1 0.1,-0.5 0.5,-2.5 2.9,-2.5 3.2,0 3,3.2 3,4.1 l -3.1,0 0,2.4 5.5,0 0,-3 c 0.1,-2.4 -1.1,-5.9 -5.3,-5.9" inkscape:connector-curvature="0" style="fill:#002361"/>
								</g>
								<g id="g2600" transform="translate(521.4172,630.0293)">
									<path id="path2602" class="st3" d="m -305.7,-103.4 -9.7,0 0,15.7 9.7,0 0,-2.2 -7.3,0 0,-4.4 6.2,0 0,-2.2 -6.2,0 0,-4.7 7.3,0 0,-2.2 z" inkscape:connector-curvature="0" style="fill:#002361"/>
								</g>
								<g id="g2604" transform="translate(522.3342,631.2061)">
									<path id="path2606" class="st3" d="m -303.6,-100.8 c 1.3,-1 2.7,-1.7 4.3,-1.7 1.6,0 2.9,0.9 2.9,2.3 0.1,1.1 -0.6,1.8 -2,2.1 -0.3,0.1 -2,0.4 -2.3,0.5 -1.4,0.3 -3.7,1.1 -3.7,4.2 0,1.4 0.7,4.6 5.1,4.6 1.9,0 3.5,-0.7 4.9,-1.7 l -1.2,-1.8 c -1.1,0.8 -2.2,1.4 -3.8,1.4 -2.1,-0.1 -2.5,-1.5 -2.5,-2.3 0,-1.5 1.3,-2.1 2.1,-2.2 0.3,-0.1 1.5,-0.4 1.7,-0.4 1.3,-0.3 4.3,-0.8 4.3,-4.3 0,-3 -2.3,-4.6 -5.6,-4.6 -2.1,0 -3.9,0.7 -5.5,2.1 l 1.3,1.8 z" inkscape:connector-curvature="0" style="fill:#002361"/>
								</g>
								<g id="g2608" transform="translate(470.3752,631.896)">
									<path id="path2610" class="st3" d="m -421,-99.2 2,5.8 0.1,0 2,-5.8 -4.1,0 z m 3,9.7 -1.9,0 -5.5,-15.8 2.5,0 1.3,3.9 5.3,0 1.4,-3.9 2.5,0 -5.6,15.8 z" inkscape:connector-curvature="0" style="fill:#002361"/>
								</g>
								<g id="g2612" transform="translate(478.8781,631.896)">
									<path id="path2614" class="st3" d="m -401.8,-99.2 2,5.8 0.1,0 2,-5.8 -4.1,0 z m 3,9.7 -1.9,0 -5.5,-15.8 2.5,0 1.3,3.9 5.3,0 1.4,-3.9 2.5,0 -5.6,15.8 z" inkscape:connector-curvature="0" style="fill:#002361"/>
								</g>
								<g id="g2616" transform="translate(492.2697,634.8618)">
									<path id="path2618" class="st3" d="m -371.5,-92.5 -4.2,-9.8 -0.1,0 -4.3,9.8 -2.3,0 0,-15.7 2.4,0 0,9.4 0.1,0 3.1,-7.1 2,0 3,7.1 0.1,0 0,-9.4 2.4,0 0,15.7 -2.2,0 z" inkscape:connector-curvature="0" style="fill:#002361"/>
								</g>
								<g id="g2620" transform="translate(516.8312,634.8618)">
									<path id="path2622" class="st3" d="m -316,-92.5 -4.2,-9.8 -0.1,0 -4.3,9.8 -2.3,0 0,-15.7 2.4,0 0,9.4 0.1,0 3.1,-7.1 2,0 3,7.1 0.1,0 0,-9.4 2.4,0 0,15.7 -2.2,0 z" inkscape:connector-curvature="0" style="fill:#002361"/>
								</g>
								<g id="g2624" transform="translate(510.299,631.896)">
									<path id="path2626" class="st3" d="m -330.8,-99.2 2,5.8 0.1,0 2,-5.8 -4.1,0 z m 3,9.7 -1.9,0 -5.5,-15.8 2.5,0 1.3,3.9 5.3,0 1.4,-3.9 2.5,0 -5.6,15.8 z" inkscape:connector-curvature="0" style="fill:#002361"/>
								</g>
								<g id="g2628" transform="translate(460.3107,638.1045)">
									<path id="path2630" class="st3" d="m -443.7,-85.2 -5.7,0 0,30.2 -8.3,0 0,5.3 22.3,0 0,-5.3 -8.3,0 0,-30.2 z" inkscape:connector-curvature="0" style="fill:#002361"/>
								</g>
								<g id="g2632" transform="translate(482.342,638.1045)">
									<path id="path2634" class="st3" d="m -393.9,-85.2 -6.8,0 -8.5,15.3 -3.2,-4.5 0,-10.8 -5.7,0 0,35.5 5.7,0 0,-15.9 0.2,0 10.8,16 6.5,0 -10.4,-15.4 11.4,-20.2 z" inkscape:connector-curvature="0" style="fill:#002361"/>
								</g>
								<g id="g2636" transform="translate(488.2209,638.1045)">
									<path id="path2638" class="st3" d="m -380.7,-85.2 -5.7,0 0,15.2 -9.4,20.2 5.9,0 6.3,-13.9 0.2,0 6.3,13.9 5.9,0 -9.4,-20.2 -0.1,-15.2 0,0 z" inkscape:connector-curvature="0" style="fill:#002361"/>
								</g>
								<g id="g2640" transform="translate(509.8312,638.1045)">
									<path id="path2642" class="st3" d="m -331.9,-85.2 -19.9,0 0,5.1 0.1,0.1 13.2,17 c 0.6,0.8 1.1,1.7 1.1,3.3 0,2.9 -2.3,4.6 -4.3,4.6 -1.3,0 -2.4,-0.4 -3.2,-1.2 -0.8,-0.8 -1.3,-2.1 -1.4,-4 l 0,-0.3 -5.5,0 0,0.3 c 0,3 1.1,5.9 2.9,7.9 1.8,1.9 4.1,2.9 6.8,2.9 3.1,0 5.5,-1 7.3,-2.9 1.9,-1.9 2.8,-4.4 2.8,-7.4 0,-2.5 -0.7,-4.5 -2.5,-6.8 l -10,-13 0.1,-0.1 12.5,0 0,-5.5 z" inkscape:connector-curvature="0" style="fill:#002361"/>
								</g>
								<g id="g2644" transform="translate(526.7658,638.1045)">
									<path id="path2646" class="st3" d="m -293.6,-85.2 -19.9,0 0,5.1 0.1,0.1 13.2,17 c 0.6,0.8 1.1,1.7 1.1,3.3 0,2.9 -2.3,4.6 -4.3,4.6 -1.3,0 -2.4,-0.4 -3.2,-1.2 -0.8,-0.8 -1.3,-2.1 -1.4,-4 l 0,-0.3 -5.5,0 0,0.3 c 0,3 1.1,5.9 2.9,7.9 1.8,1.9 4.1,2.9 6.8,2.9 3,0 5.5,-1 7.3,-2.9 1.9,-1.9 2.8,-4.4 2.8,-7.4 0,-2.5 -0.7,-4.5 -2.5,-6.8 l -10,-13 0.1,-0.1 12.5,0 0,-5.5 z" inkscape:connector-curvature="0" style="fill:#002361"/>
								</g>
								<g id="g2648" transform="translate(495.7912,647.3599)">
									<path id="path2650" class="st3" d="m -363.6,-64.3 c -3.3,0 -5.7,-2.5 -5.7,-5.9 l 0,-12.8 c 0,-3.7 2.3,-6.2 5.7,-6.2 3.4,0 5.7,2.5 5.7,6.2 l 0,12.8 c 0,3.4 -2.4,5.9 -5.7,5.9 m 0,-30.4 c -6.5,0 -11.1,4.5 -11.1,10.8 l 0,14.6 c 0,6.3 4.6,10.7 11.1,10.7 6.5,0 11.1,-4.4 11.1,-10.7 l 0,-14.7 c 0.1,-6.2 -4.6,-10.7 -11.1,-10.7" inkscape:connector-curvature="0" style="fill:#002361"/>
								</g>
								<g id="g2652" transform="translate(468.3234,647.3599)">
									<path id="path2654" class="st3" d="m -425.6,-64.3 c -3.3,0 -5.7,-2.5 -5.7,-5.9 l 0,-12.8 c 0,-3.7 2.3,-6.2 5.7,-6.2 3.4,0 5.7,2.5 5.7,6.2 l 0,12.8 c 0,3.4 -2.4,5.9 -5.7,5.9 m 0,-30.4 c -6.5,0 -11.1,4.5 -11.1,10.8 l 0,14.6 c 0,6.3 4.6,10.7 11.1,10.7 6.6,0 11.1,-4.4 11.1,-10.7 l 0,-14.7 c 0,-6.2 -4.7,-10.7 -11.1,-10.7" inkscape:connector-curvature="0" style="fill:#002361"/>
								</g>
								<g id="g2656" transform="translate(515.3713,647.3599)">
									<path id="path2658" class="st3" d="m -319.3,-64.3 c -3.7,0 -4.4,-2.8 -4.4,-5.2 l 0,-14.5 c 0,-3.5 1.5,-5.2 4.4,-5.2 3,0 4.4,1.7 4.4,5.2 l 0,14.5 c 0,2.4 -0.8,5.2 -4.4,5.2 m 0,-30.4 c -3.7,0 -9.9,2.2 -9.9,10.3 l 0,15.4 c 0,6.2 4,10.3 9.9,10.3 5.9,0 9.9,-4.1 9.9,-10.3 l 0,-15.4 c -0.1,-8.2 -6.3,-10.3 -9.9,-10.3" inkscape:connector-curvature="0" style="fill:#002361"/>
								</g>
								<g id="g2660" transform="translate(531.9338,647.3599)">
									<path id="path2662" class="st3" d="m -281.9,-64.3 c -3.7,0 -4.4,-2.8 -4.4,-5.2 l 0,-14.5 c 0,-3.5 1.5,-5.2 4.4,-5.2 3,0 4.4,1.7 4.4,5.2 l 0,14.5 c 0,2.4 -0.8,5.2 -4.4,5.2 m 0,-30.4 c -3.7,0 -9.9,2.2 -9.9,10.3 l 0,15.4 c 0,6.2 4,10.3 9.9,10.3 5.9,0 9.9,-4.1 9.9,-10.3 l 0,-15.4 c -0.1,-8.2 -6.3,-10.3 -9.9,-10.3" inkscape:connector-curvature="0" style="fill:#002361"/>
								</g>
								<g id="g2664" transform="translate(522.1584,664.9888)">
									<path id="path2666" class="st3" d="m -304,-24.5 2.6,0 0,-6.6 0.9,0 0,6.6 2.6,0 0,0.6 -6,0 0,-0.6 -0.1,0 z" inkscape:connector-curvature="0" style="fill:#002361"/>
								</g>
								<g id="g2668" transform="translate(525.9767,665.188)">
									<path id="path2670" class="st3" d="m -295.4,-24 -2.1,-5.2 0,0 -2.3,5.2 -1,0 0,-7.3 0.7,0 0,5.7 0,0 2,-4.6 0.9,0 1.9,4.7 0.1,0 0,-5.8 0.8,0 0,7.3 -1,0 z" inkscape:connector-curvature="0" style="fill:#002361"/>
								</g>
							</g>
						</g>
					</g>
				</g>
			</g>
		</g>
	</g>
</g>
</svg>