<svg height="339.607617" viewBox="0 0 150 172.50957" width="294.457471" xmlns="http://www.w3.org/2000/svg" xmlns:xlink="http://www.w3.org/1999/xlink"><clipPath id="a"><path d="m55.124 721.89h140.512v41.221h-140.512z"/></clipPath><clipPath id="b"><path d="m0 0h595.276v841.89h-595.276z"/></clipPath><path d="m0 0 .839 1.697h.814l-1.268-2.551v-1.717h-.769v1.717l-1.27 2.551h.813z" transform="matrix(2.28132604296 0 0 -2.28132604296 4.27331671011 73.82319161171)"/><g clip-path="url(#a)" transform="matrix(2.28132604296 0 0 -2.28132604296 -296.8763214467 1741.27405364649)"><path d="m0 0c0 .096-.077.167-.173.167h-1.025c-.096 0-.172-.071-.172-.167v-2.525c0-.096.076-.167.172-.167h1.025c.096 0 .173.071.173.167zm-2.14-2.692v2.859c0 .39.307.705.699.705h1.506c.391 0 .704-.315.704-.705v-2.859c0-.391-.313-.705-.704-.705h-1.506c-.392 0-.699.314-.699.705" transform="translate(136.2786 731.7385)"/><path d="m0 0h.769v-3.563c0-.391-.313-.705-.705-.705h-1.443c-.39 0-.697.314-.697.705v3.563h.768v-3.397c0-.096.077-.166.173-.166h.962c.095 0 .173.07.173.166z" transform="translate(140.1164 732.6102)"/><path d="m0 0h3.088v-.705h-1.159v-3.563h-.77v3.563h-1.159z" transform="translate(141.5572 732.6102)"/><path d="m0 0h-1.447v-1.826h-.769v4.268h.769v-1.736h1.447v1.736h.769v-4.268h-.769z" transform="translate(147.5656 730.1681)"/><path d="m0 0c0 .096-.076.167-.172.167h-1.026c-.096 0-.173-.071-.173-.167v-2.525c0-.096.077-.167.173-.167h1.026c.096 0 .172.071.172.167zm-2.141-2.692v2.859c0 .39.308.705.7.705h1.505c.392 0 .706-.315.706-.705v-2.859c0-.391-.314-.705-.706-.705h-1.505c-.392 0-.7.314-.7.705" transform="translate(152.9724 731.7385)"/><path d="m0 0h.768v-3.563h1.743v-.705h-2.511z" transform="translate(154.7662 732.6102)"/><path d="m0 0 .84 1.697h.814l-1.27-2.551v-1.717h-.769v1.717l-1.268 2.551h.814z" transform="translate(158.7367 730.913)"/><path d="m0 0v-2.551h-.743v4.268h.743l1.141-2.614 1.14 2.614h.744v-4.268h-.744v2.551l-.813-1.82h-.654z" transform="translate(161.7097 730.8928)"/><path d="m0 0c0 .096-.077.167-.172.167h-1.167v-1.212h1.167c.095 0 .172.071.172.168zm-2.109.872h2.174c.389 0 .703-.315.703-.705v-1.212c0-.39-.314-.705-.703-.705h-1.404v-1.647h-.77z" transform="translate(167.8982 731.7385)"/><path d="m170.202 728.342h-.768v4.268h.768z"/><path d="m0 0 .769-.128v-.647c0-.391-.315-.705-.705-.705h-1.442c-.391 0-.698.314-.698.705v2.858c0 .39.307.705.698.705h1.442c.39 0 .705-.315.705-.705v-.608l-.769-.129v.57c0 .097-.077.167-.173.167h-.962c-.096 0-.173-.07-.173-.167v-2.525c0-.096.077-.166.173-.166h.962c.096 0 .173.07.173.166z" transform="translate(173.3045 729.8223)"/><path d="m0 0h1.514v-1.563c0-.391-.314-.705-.706-.705h-1.443c-.389 0-.696.314-.696.705v2.858c0 .39.307.705.696.705h1.443c.392 0 .706-.315.706-.705v-.474l-.77-.129v.436c0 .097-.076.167-.173.167h-.961c-.096 0-.173-.07-.173-.167v-2.525c0-.096.077-.166.173-.166h.961c.097 0 .173.07.173.166v.718h-.744z" transform="translate(177.8387 730.6102)"/><path d="m0 0h.987l-.495 1.628zm2.293-1.615h-.774l-.308.929h-1.442l-.295-.929h-.775l1.442 4.268h.71z" transform="translate(181.2149 729.9568)"/><path d="m0 0v-2.551h-.743v4.268h.743l1.141-2.614 1.14 2.614h.743v-4.268h-.743v2.551l-.813-1.82h-.654z" transform="translate(184.9428 730.8928)"/><path d="m0 0h2.59v-.705h-1.821v-1.057h1.66v-.706h-1.66v-1.095h1.821v-.705h-2.59z" transform="translate(189.0221 732.6102)"/><path d="m0 0c-.378.116-.686.301-.686.693v.878c0 .39.308.704.699.704h1.358c.391 0 .706-.314.706-.704v-.501l-.769-.128v.462c0 .096-.077.167-.173.167h-.879c-.097 0-.173-.071-.173-.167v-.532c0-.096.076-.16.173-.185.38-.109.699-.193 1.166-.328.365-.103.668-.301.668-.693v-.954c0-.391-.309-.705-.699-.705h-1.385c-.39 0-.705.314-.705.705v.488l.769.127v-.448c0-.097.076-.167.173-.167h.905c.095 0 .172.07.172.167v.615c0 .096-.071.153-.172.179-.487.135-.672.186-1.148.327" transform="translate(193.2061 730.3347)"/><path d="m0 0v9.871h1.265v-9.746-.125z" transform="translate(130.6559 753.1823)"/><path d="m0 0-4.307 7.442v-7.442h-1.235v9.871h1.18l4.309-7.456v7.456h1.235v-9.746-.125z" transform="translate(139.1601 753.1823)"/><path d="m0 0-4.307 7.443v-7.443h-1.234v9.871h1.181l4.306-7.456v7.456h1.236v-9.746-.125z" transform="translate(147.511 753.1823)"/><path d="m0 0c-.989.001-1.726.739-1.729 1.729v1.16l1.263.217v-1.204c.014-.47.217-.699.711-.712h2.255c.496.013.697.242.711.712v1.429c-.013.422-.166.562-.716.732-1.127.318-1.489.418-2.571.723-.882.241-1.611.722-1.61 1.68v1.676c.003 1.003.742 1.727 1.731 1.729h2.672c.972-.002 1.713-.727 1.714-1.729v-1.147l-1.263-.215v1.188c-.015.472-.22.714-.712.726l-2.167.002c-.491-.014-.697-.256-.712-.728l.001-1.315c.005-.419.254-.595.716-.73 1.2-.332 1.432-.404 2.589-.738.848-.24 1.594-.708 1.591-1.695v-1.761c-.001-.987-.725-1.728-1.713-1.73z" transform="translate(151.9192 753.1823)"/><path d="m0 0c.495.013.697.241.713.712v1.907c-.012.454-.242.702-.67.711h-3.067v-3.33zm-4.286-1.177v9.872h4.473c.973-.001 1.698-.711 1.7-1.699v-1.822c0-.487-.214-.929-.588-1.206.404-.223.678-.677.674-1.262v-2.182c-.001-.974-.725-1.698-1.698-1.701zm4.271 5.673c.421.008.629.262.64.708v1.603c-.012.466-.247.701-.712.712h-2.937v-3.027l3.009.004z" transform="translate(162.0186 754.3579)"/><path d="m0 0c.482.014.699.245.711.712v2.023c-.012.467-.229.699-.711.711h-3.066v-3.445zm1.323-5.235-1.979 4.06h-2.41v-4.06h-1.262v9.747.125h4.59c.988-.002 1.711-.727 1.714-1.729v-2.355c.004-.845-.499-1.492-1.284-1.68l1.996-4.108z" transform="translate(169.804 758.4161)"/><path d="m0 0h.126l-.001-8.142c-.001-.989-.741-1.727-1.728-1.729h-2.847c-.974.002-1.713.741-1.714 1.729v8.142h1.262l.001-7.97c.011-.464.246-.699.711-.712h2.341c.465.013.699.248.712.712l0 7.97z" transform="translate(179.4858 763.0532)"/><path d="m0 0 .105-.018v-1.406c-.002-.99-.741-1.728-1.714-1.73h-2.949c-.975.002-1.713.74-1.714 1.73v6.413c.001 1.003.741 1.727 1.714 1.729h2.949c.971-.002 1.712-.726 1.714-1.729v-1.351l-1.264-.197v1.374c-.011.465-.247.701-.712.712h-2.426c-.465-.011-.701-.247-.712-.712v-6.067c.011-.465.247-.7.712-.712h2.426c.465.012.701.247.712.712v1.45z" transform="translate(187.3666 756.3356)"/><path d="m0 0-3.833 4.493v-4.493h-1.263v9.746.126h1.263v-4.345l3.658 4.345h1.572l-4.109-4.849 4.298-5.023z" transform="translate(194.0503 753.1812)"/><path d="m0 0v13.328c-.028 1.747-.829 2.578-2.568 2.604h-5.496c-1.74-.026-2.54-.857-2.567-2.604v-13.328h-2.071v13.442c-.001 1.333.444 2.452 1.226 3.232.779.782 1.888 1.217 3.185 1.217h5.95c1.296 0 2.406-.435 3.186-1.216.781-.781 1.225-1.899 1.224-3.233v-13.442z" transform="translate(161.3852 733.684)"/><path d="m0 0v.201.593c-.004 2.412 1.601 4.086 3.924 4.93 2.389.873 3.416 1.215 5.766 2.011 2.204.802 2.442.998 2.478 2.577v3.016c-.027 1.747-.825 2.578-2.565 2.604h-5.003c-1.74-.026-2.54-.857-2.567-2.604v-2.131l-2.033.33v1.915c0 1.333.443 2.452 1.226 3.232.778.782 1.889 1.217 3.184 1.217h5.421c1.295 0 2.404-.435 3.184-1.217.781-.78 1.226-1.899 1.225-3.232v-3.321c.023-2.315-1.114-3.21-3.621-4.093-2.313-.834-3.45-1.251-5.913-2.16-1.806-.677-2.625-1.75-2.635-3.376v-.492z" transform="translate(130.6582 733.684)"/><path d="m0 0v.201.593c-.003 2.412 1.602 4.086 3.925 4.93 2.389.873 3.416 1.215 5.766 2.011 2.204.802 2.441.998 2.478 2.577v3.016c-.027 1.747-.825 2.578-2.565 2.604h-5.004c-1.739-.026-2.539-.857-2.565-2.604v-2.131l-2.035.33v1.915c0 1.333.444 2.452 1.226 3.232.779.782 1.89 1.217 3.184 1.217h5.421c1.295 0 2.404-.435 3.185-1.217.781-.78 1.226-1.899 1.225-3.232v-3.321c.023-2.315-1.114-3.21-3.621-4.093-2.313-.834-3.45-1.251-5.913-2.16-1.806-.677-2.624-1.75-2.634-3.376v-.492z" transform="translate(181.0493 733.684)"/><path d="m0 0v15.741l-7.353-2.463v1.946.145l7.522 2.522h1.902v-17.891z" transform="translate(173.3686 733.684)"/></g><g clip-path="url(#b)" transform="matrix(1.3104220854 0 0 -1.3104220854 -556.75177402622 1014.11788250855)"><path d="m0 0v-48.917h50.219v42.84l-6.238 6.077z" fill="#fff" transform="matrix(1.0901804 0 0 1.0901804 425.71847432144 706.83436071312)"/><path d="m0 0h-43.978v-48.911h9.469v-9.133l9.38 9.133h31.373v42.834z" fill="#fff" transform="matrix(1.0901804 0 0 1.0901804 531.81112423608 706.78922724456)"/><g fill="#231f20"><path d="m0 0h49.524v42.36l-6.033 5.882h-43.491zm50.218-.674h-50.909v49.591h44.466l6.443-6.281v-43.31z" transform="matrix(1.0901804 0 0 1.0901804 426.0503252352 653.8736149172)"/><path d="m0 0h9.465v-8.656l8.888 8.656h31.176v42.353l-6.041 5.878h-43.488zm8.773-10.284v9.607h-9.467v49.588h44.469l6.447-6.278v-43.31h-31.579z" transform="matrix(1.0901804 0 0 1.0901804 484.19880348256 653.83513154908)"/><path d="m0 0h4.209l-2.104 6.116zm-2.55 21.735c0 2.186 1.809 3.942 4.056 3.942h1.196c2.25 0 4.054-1.756 4.057-3.942h-1.624c0 1.369-1.027 2.467-2.433 2.467h-1.196c-1.404 0-2.434-1.098-2.435-2.467v-5.935c.001-1.368 1.031-2.458 2.435-2.458h1.205c1.397 0 2.424 1.09 2.424 2.458v1.781h-2.325v1.581h3.949v-3.362c-.003-2.183-1.807-3.937-4.048-3.937h-1.205c-2.247 0-4.056 1.754-4.056 3.937zm-12.794-22.822c-.008-2.177-1.8-3.931-4.051-3.931h-5.259v13.501h5.259c2.251-.004 4.043-1.757 4.051-3.941v-5.629zm-3.647 19.226v-6.117h-1.624v6.117l-4.488 7.383h1.903l3.394-5.768h.008l3.392 5.768h1.9zm14.678-23.157h-1.914l-5.774 10.478v-10.478h-1.627v13.501h1.916l5.78-10.476v10.476h1.619zm0 20.818c-.01-2.183-1.805-3.937-4.048-3.937h-1.215c-2.242 0-4.044 1.754-4.052 3.937v5.938c.008 2.183 1.81 3.939 4.052 3.939h1.215c2.243 0 4.038-1.756 4.048-3.939zm10.056-20.818-1.089 3.542h-5.122l-1.079-3.542h-1.606l4.413 13.501h1.693l4.415-13.501zm-25.138 12.023h-3.639v-10.545h3.639c1.402 0 2.428 1.098 2.43 2.453v5.629c-.002 1.372-1.028 2.463-2.43 2.463m11.034 17.197h-1.215c-1.399 0-2.425-1.098-2.425-2.464v-5.938c0-1.368 1.026-2.458 2.425-2.458h1.215c1.4 0 2.429 1.09 2.429 2.458v5.938c0 1.366-1.029 2.464-2.429 2.464" transform="matrix(1.0901804 0 0 1.0901804 520.9379919806 668.96694451912)"/></g><path d="m0 0c-3.388 0-6.166-2.643-6.424-5.998.35-.032.707-.09 1.055-.185.166 2.851 2.504 5.107 5.369 5.107 2.973 0 5.384-2.431 5.384-5.427 0-3.003-2.411-5.433-5.384-5.433-.195 0-.388.007-.577.029-.377.038-.744.118-1.096.232-1.906.63-3.344 2.307-3.653 4.364-.352.109-.72.196-1.095.235.238-2.776 2.199-5.053 4.805-5.729.33-.095.689-.149 1.044-.185.187-.013.381-.024.572-.024 3.559 0 6.45 2.912 6.45 6.511 0 3.589-2.891 6.503-6.45 6.503" fill="#ee2049" transform="matrix(1.0901804 0 0 1.0901804 468.17500490924 690.15852524256)"/><path d="m0 0c-.169-2.845-2.51-5.102-5.375-5.102-2.972 0-5.385 2.43-5.385 5.435 0 2.998 2.413 5.432 5.385 5.432.194 0 .387-.017.576-.038.382-.034.745-.118 1.096-.23 1.908-.631 3.352-2.307 3.648-4.364.353-.114.724-.194 1.104-.233-.238 2.773-2.202 5.051-4.802 5.725-.338.09-.692.152-1.049.184-.186.016-.381.027-.573.027-3.564 0-6.447-2.917-6.447-6.503 0-3.601 2.883-6.512 6.447-6.512 3.393 0 6.172 2.643 6.424 5.999-.357.031-.708.088-1.049.18" fill="#00a650" transform="matrix(1.0901804 0 0 1.0901804 466.41948741112 676.19593075152)"/><path d="m0 0c-.258 3.357-3.036 5.995-6.432 5.995-3.56 0-6.444-2.914-6.444-6.505 0-3.597 2.884-6.502 6.444-6.502.186 0 .369.004.551.017-.009.171-.023.339-.023.513 0 .193.014.383.032.561-.191-.013-.372-.02-.56-.02-2.965 0-5.375 2.428-5.375 5.431 0 2.998 2.41 5.435 5.375 5.435 2.865 0 5.208-2.258 5.383-5.101.002-.112.008-.22.008-.334 0-.274-.025-.539-.06-.797-.302-2.067-1.757-3.76-3.678-4.373-.036-.261-.062-.53-.062-.802 0-.113.004-.22.016-.334 2.609.671 4.579 2.953 4.82 5.731.014.2.025.381.025.575 0 .169-.011.338-.02.51" fill="#231f20" transform="matrix(1.0901804 0 0 1.0901804 459.96758176784 683.62278472652)"/><path d="m0 0c.355-.039.711-.098 1.054-.195" fill="#100f0d" transform="matrix(1.0901804 0 0 1.0901804 445.9439371744 683.61929614924)"/><path d="m0 0c-.168-2.857-2.507-5.113-5.378-5.113-2.973 0-5.379 2.43-5.379 5.434 0 2.999 2.406 5.432 5.379 5.432.207 0 .409-.016.612-.043.38-.04.75-.121 1.098-.239 1.892-.64 3.304-2.303 3.616-4.333.35-.125.721-.208 1.093-.248-.238 2.763-2.178 5.026-4.758 5.714-.343.089-.698.16-1.054.194-.2.011-.4.027-.607.027-3.558 0-6.446-2.922-6.446-6.504 0-3.596 2.888-6.508 6.446-6.508 3.389 0 6.169 2.644 6.427 5.993-.36.038-.709.102-1.049.194" fill="#f9a91f" transform="matrix(1.0901804 0 0 1.0901804 451.14496982672 676.20857684416)"/><path d="m0 0c-.257 3.357-3.036 5.995-6.424 5.995-3.561 0-6.45-2.914-6.45-6.505 0-3.597 2.889-6.502 6.45-6.502.18 0 .367.004.547.017-.017.171-.024.339-.024.513 0 .193.007.383.024.561-.177-.013-.363-.02-.547-.02-2.975 0-5.388 2.428-5.388 5.431 0 2.998 2.413 5.435 5.388 5.435 2.862 0 5.204-2.258 5.369-5.101.012-.112.015-.22.015-.334 0-.274-.021-.539-.061-.797-.303-2.067-1.751-3.76-3.678-4.373-.04-.261-.055-.53-.055-.802 0-.113 0-.22.005-.334 2.617.671 4.586 2.953 4.826 5.731.014.2.026.381.026.575 0 .169-.008.338-.023.51" fill="#117fcd" transform="matrix(1.0901804 0 0 1.0901804 444.68826738968 683.62278472652)"/></g></svg>