<?xml version="1.0" encoding="UTF-8" standalone="no"?>
<!-- Created with Inkscape (http://www.inkscape.org/) -->

<svg
   width="20.274145mm"
   height="20.46348mm"
   viewBox="0 0 20.274145 20.46348"
   version="1.1"
   id="svg1"
   inkscape:version="1.4 (e7c3feb1, 2024-10-09)"
   sodipodi:docname="ARC.svg"
   xmlns:inkscape="http://www.inkscape.org/namespaces/inkscape"
   xmlns:sodipodi="http://sodipodi.sourceforge.net/DTD/sodipodi-0.dtd"
   xmlns="http://www.w3.org/2000/svg"
   xmlns:svg="http://www.w3.org/2000/svg">
  <sodipodi:namedview
     id="namedview1"
     pagecolor="#ffffff"
     bordercolor="#000000"
     borderopacity="0.25"
     inkscape:showpageshadow="2"
     inkscape:pageopacity="0.0"
     inkscape:pagecheckerboard="0"
     inkscape:deskcolor="#d1d1d1"
     inkscape:document-units="mm"
     inkscape:zoom="2.096401"
     inkscape:cx="30.767015"
     inkscape:cy="42.215207"
     inkscape:window-width="1440"
     inkscape:window-height="872"
     inkscape:window-x="0"
     inkscape:window-y="28"
     inkscape:window-maximized="0"
     inkscape:current-layer="layer1" />
  <defs
     id="defs1">
    <clipPath
       clipPathUnits="userSpaceOnUse"
       id="clipPath46">
      <path
         d="M 0,0 H 960.009 V 540 H 0 Z"
         transform="translate(-335.30581,-447.22351)"
         id="path46" />
    </clipPath>
    <clipPath
       clipPathUnits="userSpaceOnUse"
       id="clipPath48">
      <path
         d="M 0,0 H 960.009 V 540 H 0 Z"
         transform="translate(-366.36111,-395.97531)"
         id="path48" />
    </clipPath>
  </defs>
  <g
     inkscape:label="Layer 1"
     inkscape:groupmode="layer"
     id="layer1"
     transform="translate(546.89376,444.23542)">
    <path
       id="path45"
       d="M 0,0 C -0.034,0.419 0.266,0.792 0.683,0.844 9.256,1.926 23.356,0.557 31.681,0.249 40.153,-0.065 47.751,2.31 55.937,0.12 c 0.345,-0.093 0.707,-0.194 0.963,-0.442 0.329,-0.317 0.456,-0.797 0.479,-1.251 0.497,-9.711 -1.296,-17.898 -0.584,-35.348 0.102,-2.491 0.535,-7.335 0.582,-9.827 0.046,-2.493 -0.713,-5.147 -2.655,-6.73 -1.705,-1.389 -4.014,-1.744 -6.205,-2.007 -15.376,-1.844 -30.996,-1.676 -46.328,0.498 -0.419,0.059 -0.869,0.135 -1.166,0.434 -0.38,0.382 -0.378,0.985 -0.351,1.52 0.136,2.778 0.273,5.557 0.378,8.336 0.572,15.15 0.495,26.742 -0.817,41.847 z"
       style="fill:#55bf9b;fill-opacity:1;fill-rule:nonzero;stroke:none"
       transform="matrix(0.35277776,0,0,-0.35277776,-546.89283,-443.79317)"
       clip-path="url(#clipPath46)" />
    <path
       id="path47"
       d="m 0,0 c -0.309,0 -0.68,0.104 -1.111,0.397 -1.303,0.886 -1.324,2.946 -1.337,4.177 l -10e-4,0.084 c -0.019,1.774 0.114,3.591 0.251,5.299 0.136,1.695 0.346,3.394 0.627,5.081 -0.699,1.863 -1.475,2.628 -2.563,2.54 -0.97,-0.077 -1.524,-1.064 -1.906,-2.127 0.015,-0.154 0.028,-0.309 0.042,-0.464 0.102,-1.213 0.247,-2.447 0.387,-3.64 0.184,-1.565 0.373,-3.183 0.474,-4.79 0.017,-0.271 0.04,-0.55 0.063,-0.832 0.102,-1.243 0.218,-2.652 -0.144,-3.91 -0.264,-0.919 -0.964,-1.558 -1.785,-1.627 -0.772,-0.066 -1.471,0.383 -1.865,1.201 -0.644,1.337 -0.569,2.979 -0.509,4.299 0.134,2.945 0.949,5.838 1.702,8.319 0.047,0.154 0.094,0.321 0.144,0.496 0.097,0.336 0.203,0.708 0.331,1.087 -0.242,2.472 -0.644,4.934 -1.102,7.638 -0.113,0.666 -0.2,1.353 -0.285,2.017 -0.12,0.943 -0.242,1.908 -0.442,2.837 -0.434,0.038 -0.87,0.091 -1.304,0.162 -0.462,0.076 -1.625,0.353 -2.442,1.301 -0.374,0.434 -0.567,1.025 -0.517,1.58 0.042,0.479 0.265,0.903 0.626,1.195 0.553,0.448 1.18,0.588 1.813,0.404 1.27,-0.37 2.215,-1.947 2.54,-2.917 0.072,-0.212 0.136,-0.425 0.196,-0.641 1.403,-0.064 2.752,0.02 3.861,0.136 -1.464,0.645 -2.639,1.203 -3.691,2.452 -0.864,1.025 -1.417,2.161 -1.644,3.376 -0.418,2.24 0.073,5.19 2.141,6.375 1.049,0.602 2.671,0.867 3.927,0.103 0.652,-0.398 0.977,-0.904 1.164,-1.25 0.794,-1.467 0.92,-3.601 0.315,-5.311 -0.836,-2.363 -2.132,-2.512 -2.829,-2.391 -0.7,0.121 -1.282,0.757 -1.707,1.222 -0.1,0.109 -0.203,0.222 -0.255,0.266 -0.24,0.205 -0.268,0.565 -0.064,0.805 0.205,0.24 0.565,0.269 0.805,0.064 0.106,-0.09 0.217,-0.211 0.357,-0.365 0.26,-0.284 0.743,-0.812 1.059,-0.867 0.76,-0.132 1.266,0.823 1.557,1.647 0.496,1.402 0.397,3.206 -0.242,4.387 -0.135,0.248 -0.343,0.566 -0.754,0.817 -0.853,0.519 -2.031,0.303 -2.765,-0.118 -1.692,-0.97 -1.875,-3.626 -1.586,-5.174 0.287,-1.536 1.12,-2.525 1.394,-2.849 0.898,-1.066 1.877,-1.528 3.53,-2.254 0.515,-0.227 1.042,-0.433 1.579,-0.619 2.064,0.33 4.2,0.615 6.347,0.846 1.338,0.124 2.521,0.237 3.525,0.333 1.129,0.107 2.033,0.194 2.667,0.248 0.1,0.009 0.305,0.026 0.388,0.121 0.042,0.125 -0.087,0.706 -0.224,1.321 -0.04,0.179 -0.083,0.377 -0.13,0.594 -0.184,0.847 -0.481,1.657 -0.883,2.407 -0.66,1.233 -1.635,2.366 -2.981,3.464 -0.665,0.542 -1.392,1.041 -2.096,1.524 -0.391,0.269 -0.796,0.546 -1.191,0.832 -0.116,0.083 -0.248,0.188 -0.389,0.311 -1.604,-2.107 -2.645,-5.575 -3.095,-10.32 -0.029,-0.314 -0.31,-0.546 -0.622,-0.515 -0.314,0.03 -0.544,0.309 -0.515,0.623 0.487,5.127 1.609,8.744 3.427,11.037 -0.523,0.635 -0.971,1.424 -0.983,2.224 -0.01,0.661 0.28,1.238 0.839,1.669 0.429,0.33 0.938,0.422 1.435,0.259 0.575,-0.189 1.044,-0.696 1.225,-1.325 0.328,-1.14 -0.353,-2.07 -0.971,-2.783 0.11,-0.096 0.217,-0.181 0.318,-0.255 0.384,-0.277 0.783,-0.551 1.169,-0.815 0.722,-0.496 1.469,-1.009 2.171,-1.581 1.465,-1.195 2.533,-2.441 3.266,-3.809 0.452,-0.844 0.786,-1.754 0.992,-2.705 0.047,-0.215 0.09,-0.411 0.129,-0.588 0.278,-1.25 0.405,-1.821 -0.031,-2.32 -0.386,-0.442 -0.94,-0.49 -1.149,-0.508 C 10.04,29.853 9.14,29.767 8.016,29.659 7.01,29.563 5.826,29.45 4.496,29.328 3.243,29.193 1.99,29.039 0.753,28.868 c 0.251,-0.052 0.503,-0.1 0.756,-0.144 0.482,-0.07 0.981,-0.123 1.47,-0.158 0.725,-0.051 2.283,-0.122 3.791,-0.19 1.471,-0.066 2.861,-0.129 3.599,-0.178 0.23,-0.015 0.815,-0.054 1.132,-0.541 0.247,-0.38 0.157,-0.802 0.044,-1.337 L 11.503,26.117 C 11.127,24.287 10.353,22.39 9.065,20.148 8.503,19.17 7.939,18.311 7.341,17.523 L 7.235,17.383 C 6.703,16.678 6.041,15.802 5.173,15.366 4.649,15.102 4.095,15.063 3.571,15.252 2.168,15.758 1.291,17.759 0.819,18.835 L 0.81,18.855 C 0.711,19.081 0.616,19.308 0.524,19.535 0.422,19.108 0.322,18.68 0.225,18.254 c -0.234,-1.028 -0.44,-2.066 -0.619,-3.109 0.006,-0.017 0.011,-0.034 0.017,-0.05 C 0.389,12.893 1.239,10.266 1.73,7.479 1.74,7.42 2.558,1.402 0.723,0.215 0.542,0.098 0.301,0 0,0 M -0.767,12.665 C -0.887,11.732 -0.984,10.798 -1.059,9.866 -1.195,8.183 -1.325,6.396 -1.307,4.67 l 10e-4,-0.085 c 0.01,-1.007 0.028,-2.693 0.837,-3.243 0.184,-0.126 0.434,-0.258 0.572,-0.167 0.818,0.529 0.775,4.558 0.502,6.106 -0.333,1.892 -0.84,3.718 -1.372,5.384 M -6.905,12.594 C -7.533,10.44 -8.127,8.039 -8.236,5.636 -8.29,4.444 -8.358,2.962 -7.839,1.885 -7.654,1.5 -7.391,1.3 -7.099,1.326 c 0.344,0.029 0.651,0.345 0.783,0.804 0.304,1.057 0.202,2.3 0.104,3.502 -0.024,0.29 -0.047,0.575 -0.065,0.853 -0.099,1.577 -0.287,3.18 -0.468,4.729 -0.054,0.455 -0.108,0.916 -0.16,1.38 m 7.898,8.884 C 1.027,21.389 1.061,21.3 1.095,21.212 1.335,20.584 1.584,19.935 1.856,19.314 l 0.009,-0.021 c 0.345,-0.786 1.152,-2.627 2.094,-2.967 0.231,-0.083 0.454,-0.064 0.701,0.06 0.63,0.317 1.179,1.044 1.664,1.685 l 0.108,0.143 c 0.568,0.749 1.105,1.567 1.642,2.502 1.226,2.134 1.96,3.923 2.31,5.631 l 0.044,0.21 c 0.035,0.165 0.076,0.361 0.087,0.474 -0.068,0.017 -0.171,0.024 -0.211,0.027 -0.737,0.048 -2.185,0.114 -3.586,0.177 -1.514,0.069 -3.08,0.14 -3.819,0.192 -0.516,0.036 -1.044,0.093 -1.569,0.169 -1.164,0.201 -2.298,0.485 -3.394,0.849 -1.112,-0.177 -3.336,-0.507 -5.784,-0.432 0.172,-0.873 0.284,-1.757 0.394,-2.624 0.083,-0.653 0.169,-1.328 0.278,-1.97 0.351,-2.069 0.669,-3.998 0.909,-5.904 0.481,0.65 1.132,1.129 2.043,1.202 1.464,0.118 2.406,-0.777 3.007,-1.749 0.103,0.515 0.212,1.028 0.329,1.539 0.219,0.966 0.454,1.94 0.687,2.894 -0.208,0.535 -0.425,1.074 -0.662,1.592 -0.333,0.726 -0.687,1.672 -0.47,2.554 0.148,0.598 0.651,1.076 1.281,1.216 C 0.525,26.89 1.083,26.702 1.443,26.258 2.149,25.385 1.72,24.032 1.407,23.045 1.338,22.828 1.273,22.623 1.235,22.467 L 1.046,21.692 C 1.028,21.62 1.011,21.549 0.993,21.478 M 0.301,25.66 c -0.033,0 -0.068,-0.004 -0.104,-0.012 -0.201,-0.045 -0.378,-0.202 -0.421,-0.375 -0.134,-0.544 0.163,-1.29 0.399,-1.804 0.033,-0.073 0.066,-0.146 0.099,-0.219 0.014,0.046 0.029,0.093 0.044,0.141 0.208,0.655 0.557,1.753 0.237,2.148 C 0.49,25.62 0.405,25.66 0.301,25.66 m 10.215,1.439 z M -11.39,31.66 c -0.151,0 -0.338,-0.05 -0.557,-0.227 -0.122,-0.099 -0.192,-0.237 -0.208,-0.41 -0.022,-0.246 0.074,-0.534 0.246,-0.733 0.571,-0.663 1.421,-0.863 1.76,-0.919 0.27,-0.044 0.542,-0.08 0.813,-0.111 -0.019,0.062 -0.039,0.123 -0.059,0.184 -0.26,0.774 -1.022,1.963 -1.777,2.183 -0.061,0.017 -0.134,0.033 -0.218,0.033 M 3.074,45.532 c -0.087,0 -0.171,-0.033 -0.258,-0.1 -0.274,-0.21 -0.399,-0.448 -0.394,-0.746 0.006,-0.427 0.259,-0.916 0.598,-1.36 0.506,0.599 0.814,1.098 0.661,1.63 -0.074,0.258 -0.273,0.486 -0.483,0.555 -0.043,0.014 -0.083,0.021 -0.124,0.021"
       style="fill:#ffffff;fill-opacity:1;fill-rule:nonzero;stroke:none"
       transform="matrix(0.35277776,0,0,-0.35277776,-535.93721,-425.71395)"
       clip-path="url(#clipPath48)" />
  </g>
</svg>
