<?xml version="1.0" encoding="UTF-8" standalone="no"?>
<!-- Created with Inkscape (http://www.inkscape.org/) -->

<svg
   width="20.763975mm"
   height="20.345747mm"
   viewBox="0 0 20.763975 20.345747"
   version="1.1"
   id="svg1"
   inkscape:version="1.4 (e7c3feb1, 2024-10-09)"
   sodipodi:docname="BDM.svg"
   xmlns:inkscape="http://www.inkscape.org/namespaces/inkscape"
   xmlns:sodipodi="http://sodipodi.sourceforge.net/DTD/sodipodi-0.dtd"
   xmlns="http://www.w3.org/2000/svg"
   xmlns:svg="http://www.w3.org/2000/svg">
  <sodipodi:namedview
     id="namedview1"
     pagecolor="#ffffff"
     bordercolor="#000000"
     borderopacity="0.25"
     inkscape:showpageshadow="2"
     inkscape:pageopacity="0.0"
     inkscape:pagecheckerboard="0"
     inkscape:deskcolor="#d1d1d1"
     inkscape:document-units="mm"
     inkscape:zoom="2.096401"
     inkscape:cx="5.0085838"
     inkscape:cy="42.215207"
     inkscape:window-width="1440"
     inkscape:window-height="872"
     inkscape:window-x="0"
     inkscape:window-y="28"
     inkscape:window-maximized="0"
     inkscape:current-layer="layer1" />
  <defs
     id="defs1">
    <clipPath
       clipPathUnits="userSpaceOnUse"
       id="clipPath46">
      <path
         d="M 0,0 H 960.009 V 540 H 0 Z"
         transform="translate(-335.30581,-447.22351)"
         id="path46" />
    </clipPath>
    <clipPath
       clipPathUnits="userSpaceOnUse"
       id="clipPath48">
      <path
         d="M 0,0 H 960.009 V 540 H 0 Z"
         transform="translate(-366.36111,-395.97531)"
         id="path48" />
    </clipPath>
    <clipPath
       clipPathUnits="userSpaceOnUse"
       id="clipPath46-4">
      <path
         d="M 0,0 H 960.009 V 540 H 0 Z"
         transform="translate(-335.30581,-447.22351)"
         id="path46-1" />
    </clipPath>
    <clipPath
       clipPathUnits="userSpaceOnUse"
       id="clipPath48-8">
      <path
         d="M 0,0 H 960.009 V 540 H 0 Z"
         transform="translate(-366.36111,-395.97531)"
         id="path48-8" />
    </clipPath>
    <clipPath
       clipPathUnits="userSpaceOnUse"
       id="clipPath10">
      <path
         d="M 0,0 H 960.009 V 540 H 0 Z"
         transform="translate(-452.25271,-448.21871)"
         id="path10" />
    </clipPath>
    <clipPath
       clipPathUnits="userSpaceOnUse"
       id="clipPath12">
      <path
         d="M 0,0 H 960.009 V 540 H 0 Z"
         transform="translate(-445.51041,-428.84291)"
         id="path12" />
    </clipPath>
    <clipPath
       clipPathUnits="userSpaceOnUse"
       id="clipPath14">
      <path
         d="M 0,0 H 960.009 V 540 H 0 Z"
         transform="translate(-490.38481,-447.77471)"
         id="path14" />
    </clipPath>
    <clipPath
       clipPathUnits="userSpaceOnUse"
       id="clipPath16">
      <path
         d="M 0,0 H 960.009 V 540 H 0 Z"
         transform="translate(-520.07251,-407.43611)"
         id="path16" />
    </clipPath>
    <clipPath
       clipPathUnits="userSpaceOnUse"
       id="clipPath18">
      <path
         d="M 0,0 H 960.009 V 540 H 0 Z"
         transform="translate(-475.72791,-420.29251)"
         id="path18" />
    </clipPath>
  </defs>
  <g
     inkscape:label="Layer 1"
     inkscape:groupmode="layer"
     id="layer1"
     transform="translate(540.01462,444.23543)">
    <path
       id="path13"
       d="m 0,0 c 0.325,-0.01 0.651,-0.003 0.975,0.025 3.394,0.296 6.769,0.833 10.177,0.874 5.129,0.06 10.149,0.246 15.155,-0.814 2.247,-0.475 4.678,-1.057 6.092,-2.766 1.304,-1.576 1.411,-3.721 1.463,-5.715 0.369,-14.038 0.781,-29.327 1.149,-43.365 0.017,-0.632 0.029,-1.288 -0.24,-1.867 -0.292,-0.629 -0.881,-1.091 -1.498,-1.459 -3.419,-2.042 -7.803,-1.739 -11.84,-1.364 -5.721,0.531 -11.441,1.063 -17.162,1.594 -3.014,0.28 -6.043,0.56 -9.066,0.4 -3.857,-0.205 -7.646,-1.124 -11.509,-1.237 -1.702,-0.05 -3.573,0.122 -4.788,1.245 -1.112,1.026 -1.395,2.589 -1.532,4.045 -0.407,4.355 -0.019,8.734 0.019,13.105 0.103,11.789 -2.342,23.638 -0.617,35.312 0.066,0.45 0.142,0.909 0.363,1.313 0.855,1.559 3.211,1.505 5.057,1.227 z"
       style="fill:#9d5f80;fill-opacity:1;fill-rule:nonzero;stroke:none"
       transform="matrix(0.35277776,0,0,-0.35277776,-531.60442,-443.90017)"
       clip-path="url(#clipPath14)" />
    <path
       id="path15"
       d="m 0,0 c -1.09,2.9 -4.488,3.719 -7.005,4.199 -1.348,1.469 -3.045,3.171 -3.937,4.055 l -0.064,0.064 c -2.136,2.133 -3.208,3.203 -4.136,4.581 -1.502,2.23 -2.26,3.91 -2.48,4.96 1.919,-1.84 4.185,-2.553 6.31,-2.927 0.363,-0.858 0.752,-1.733 1.354,-2.51 l 0.102,-0.132 c 0.56,-0.731 1.498,-1.954 2.551,-2.035 0.414,-0.03 0.8,0.113 1.119,0.418 0.835,0.799 0.359,2.15 -0.302,3.064 -0.826,1.143 -2.298,1.969 -3.939,2.21 -0.026,0.004 -0.052,0.007 -0.078,0.011 -0.319,0.749 -0.667,1.507 -1.167,2.197 -1.06,1.46 -3.087,2.206 -4.522,2.282 -0.746,0.039 -1.373,-0.091 -1.823,-0.37 -0.053,0.075 -0.106,0.151 -0.158,0.229 -0.035,0.053 -0.076,0.115 -0.121,0.187 -0.001,0.002 -0.002,0.004 -0.003,0.006 -0.004,0.006 -0.388,0.626 -0.605,1.34 -0.16,0.525 -0.14,1.452 -0.125,2.129 0.006,0.245 0.01,0.469 0.008,0.655 -0.031,2.126 -0.668,3.731 -1.795,4.519 -0.85,0.595 -2.107,0.82 -3.28,0.589 -1.037,-0.205 -1.881,-0.743 -2.378,-1.517 -0.91,-1.416 -0.969,-3.502 -0.158,-5.578 0.261,-0.667 0.87,-2.228 2.142,-2.538 1.355,-0.331 2.131,0.861 2.645,1.65 0.054,0.082 0.106,0.161 0.157,0.236 0.176,0.262 0.107,0.617 -0.155,0.793 -0.261,0.176 -0.616,0.108 -0.792,-0.154 -0.054,-0.08 -0.11,-0.164 -0.166,-0.252 -0.497,-0.762 -0.89,-1.293 -1.418,-1.163 -0.695,0.169 -1.17,1.385 -1.349,1.843 -0.524,1.341 -0.784,3.239 0.055,4.546 0.327,0.509 0.909,0.869 1.638,1.013 0.866,0.171 1.81,0.012 2.405,-0.404 0.806,-0.564 1.282,-1.876 1.307,-3.6 0.002,-0.173 -0.003,-0.383 -0.008,-0.613 -0.017,-0.796 -0.039,-1.786 0.174,-2.487 0.25,-0.821 0.674,-1.522 0.724,-1.604 0.001,-0.003 0.003,-0.005 0.004,-0.008 0.054,-0.086 0.103,-0.16 0.144,-0.223 0.128,-0.19 0.258,-0.372 0.391,-0.548 -0.304,-1.065 0.1,-3.073 2.645,-6.852 0.99,-1.47 2.088,-2.567 4.28,-4.755 l 0.063,-0.063 c 0.534,-0.529 1.694,-1.688 2.833,-2.879 -0.894,0.191 -1.772,0.439 -2.544,0.87 -1.042,0.582 -1.941,1.319 -2.893,2.099 -0.735,0.603 -1.495,1.226 -2.325,1.767 -0.39,0.255 -0.754,0.455 -1.096,0.61 -0.052,0.155 -0.109,0.308 -0.168,0.458 -0.527,1.336 -1.263,2.691 -2.318,4.263 -1.716,2.556 -2.038,2.935 -2.645,3.116 -1.387,0.413 -2.635,-0.519 -3.957,-1.506 l -0.234,-0.174 c -0.022,-0.017 -0.044,-0.036 -0.063,-0.055 -0.045,-0.045 -4.572,-4.537 -11.433,-7.464 l -1.515,-0.606 c -0.025,-0.01 -0.048,-0.021 -0.071,-0.034 l -0.023,-0.013 c -0.006,-0.004 -0.014,-0.008 -0.022,-0.012 -0.159,0.091 -0.453,0.298 -0.623,0.418 -0.177,0.124 -0.343,0.242 -0.475,0.324 -1.784,1.113 -3.95,0.004 -5.262,-1.284 -0.561,-0.551 -1.479,-1.814 -1.361,-3.056 0.058,-0.611 0.367,-1.119 0.893,-1.469 1.421,-0.944 3.792,0.133 3.816,0.144 1.959,0.905 2.936,2.681 3.385,3.837 0.082,0.032 0.15,0.069 0.204,0.1 l 1.49,0.595 c 6.865,2.929 11.329,7.242 11.775,7.683 l 0.203,0.151 c 1.132,0.846 2.11,1.575 2.947,1.327 0.21,-0.063 0.538,-0.446 2.022,-2.658 0.906,-1.35 1.564,-2.525 2.047,-3.662 -0.737,0.108 -1.329,-0.002 -1.815,-0.146 -0.807,-0.239 -1.323,-0.686 -1.868,-1.159 -1.26,-1.093 -2.095,-2.386 -2.48,-3.842 -0.01,-0.041 -0.02,-0.082 -0.03,-0.122 -1.617,-1.214 -2.379,-3.332 -2.704,-4.579 -0.362,-1.39 -0.298,-2.557 0.189,-3.47 0.007,-0.013 0.707,-1.262 1.887,-1.262 0.025,0 0.05,10e-4 0.075,0.002 0.361,0.016 0.899,0.162 1.414,0.766 0.729,0.855 0.616,1.864 0.444,3.392 -0.053,0.469 -0.113,1.001 -0.161,1.613 -0.107,1.372 -0.172,2.208 -0.101,2.861 0.055,0.032 0.11,0.062 0.167,0.091 0.328,0.167 1.19,0.375 2.023,0.577 1.874,0.453 3.144,0.79 3.702,1.328 0.686,0.659 0.921,1.375 0.917,2.088 0.066,-0.04 0.133,-0.082 0.201,-0.127 0.777,-0.508 1.513,-1.111 2.225,-1.694 0.949,-0.778 1.929,-1.582 3.06,-2.213 1.269,-0.708 2.682,-0.969 4.049,-1.221 L -7.768,3.18 C -7.709,3.169 -7.65,3.158 -7.59,3.147 -6.997,2.492 -6.5,1.908 -6.229,1.514 c 0.34,-0.494 0.715,-0.961 1.078,-1.412 0.2,-0.248 0.4,-0.496 0.594,-0.749 0.077,-0.101 0.157,-0.209 0.239,-0.319 0.542,-0.732 1.217,-1.642 2.194,-1.951 0.644,-0.203 1.261,-0.059 1.693,0.397 C 0.131,-1.926 0.317,-0.843 0,0 m -7.413,13.068 c 0.402,-0.556 0.68,-1.337 0.438,-1.569 -0.105,-0.1 -0.179,-0.109 -0.243,-0.105 -0.544,0.042 -1.376,1.127 -1.732,1.591 l -0.105,0.136 c -0.368,0.476 -0.649,1.005 -0.905,1.566 1.077,-0.284 2.002,-0.865 2.547,-1.619 m -8.842,6.229 c 1.211,-0.065 2.856,-0.708 3.658,-1.813 0.289,-0.398 0.521,-0.828 0.734,-1.281 -1.937,0.419 -3.843,1.19 -5.432,2.957 0.248,0.108 0.617,0.159 1.04,0.137 m -27.456,-15.3 c -0.564,-0.261 -2.028,-0.68 -2.705,-0.23 -0.239,0.159 -0.363,0.358 -0.388,0.626 -0.064,0.67 0.48,1.599 1.024,2.133 0.62,0.608 1.764,1.41 2.85,1.41 0.348,0 0.69,-0.082 1.008,-0.28 0.104,-0.065 0.258,-0.174 0.421,-0.288 0.204,-0.144 0.37,-0.26 0.511,-0.352 -0.409,-0.973 -1.22,-2.326 -2.721,-3.019 m 18.351,-6.735 c -0.195,-0.228 -0.406,-0.358 -0.596,-0.366 -0.428,-0.012 -0.841,0.548 -0.904,0.657 -0.432,0.811 -0.288,1.886 -0.09,2.644 0.22,0.847 0.664,2.152 1.476,3.163 0.019,-0.523 0.067,-1.142 0.128,-1.923 0.049,-0.631 0.11,-1.173 0.164,-1.651 0.163,-1.455 0.214,-2.064 -0.178,-2.524 m 6.151,9.944 c -0.377,-0.364 -2.063,-0.771 -3.178,-1.041 -0.57,-0.138 -1.094,-0.265 -1.522,-0.391 0.389,0.88 0.997,1.681 1.816,2.391 0.507,0.44 0.873,0.758 1.443,0.927 0.2,0.059 0.489,0.144 0.884,0.144 0.291,0 0.641,-0.046 1.055,-0.184 0.164,-0.722 0.067,-1.303 -0.498,-1.846 m 17.949,-8.94 c -0.093,-0.099 -0.228,-0.186 -0.521,-0.094 -0.623,0.197 -1.152,0.911 -1.619,1.542 -0.086,0.116 -0.17,0.228 -0.251,0.335 -0.199,0.259 -0.405,0.514 -0.61,0.769 -0.366,0.455 -0.712,0.885 -1.027,1.343 -0.118,0.172 -0.273,0.374 -0.456,0.599 1.942,-0.483 3.983,-1.32 4.675,-3.162 0.162,-0.431 0.073,-1.054 -0.191,-1.332"
       style="fill:#ffffff;fill-opacity:1;fill-rule:nonzero;stroke:none"
       transform="matrix(0.35277776,0,0,-0.35277776,-521.13126,-429.66961)"
       clip-path="url(#clipPath16)" />
    <path
       id="path17"
       d="m 0,0 c 0.102,-0.182 0.293,-0.292 0.498,-0.292 0.021,0 0.041,0.001 0.062,0.003 0.228,0.025 0.419,0.184 0.485,0.403 L 2.269,4.175 C 2.331,4.379 2.273,4.601 2.12,4.749 2.085,4.784 1.23,5.596 0.048,5.555 -0.719,5.525 -1.425,5.151 -2.049,4.443 -2.209,4.261 -2.237,3.998 -2.119,3.787 Z M 0.084,4.414 C 0.481,4.432 0.835,4.267 1.061,4.125 L 0.34,1.732 -0.912,3.968 c 0.322,0.281 0.656,0.43 0.996,0.446"
       style="fill:#ffffff;fill-opacity:1;fill-rule:nonzero;stroke:none"
       transform="matrix(0.35277776,0,0,-0.35277776,-536.77505,-434.20506)"
       clip-path="url(#clipPath18)" />
  </g>
</svg>
