<?xml version="1.0" encoding="UTF-8" standalone="no"?>
<!-- Created with Inkscape (http://www.inkscape.org/) -->

<svg
   width="20.280466mm"
   height="20.463587mm"
   viewBox="0 0 20.280466 20.463586"
   version="1.1"
   id="svg1"
   inkscape:version="1.4 (e7c3feb1, 2024-10-09)"
   sodipodi:docname="BOX.svg"
   xmlns:inkscape="http://www.inkscape.org/namespaces/inkscape"
   xmlns:sodipodi="http://sodipodi.sourceforge.net/DTD/sodipodi-0.dtd"
   xmlns="http://www.w3.org/2000/svg"
   xmlns:svg="http://www.w3.org/2000/svg">
  <sodipodi:namedview
     id="namedview1"
     pagecolor="#ffffff"
     bordercolor="#000000"
     borderopacity="0.25"
     inkscape:showpageshadow="2"
     inkscape:pageopacity="0.0"
     inkscape:pagecheckerboard="0"
     inkscape:deskcolor="#d1d1d1"
     inkscape:document-units="mm"
     inkscape:zoom="2.096401"
     inkscape:cx="-76.082773"
     inkscape:cy="-5.9625998"
     inkscape:window-width="1440"
     inkscape:window-height="872"
     inkscape:window-x="0"
     inkscape:window-y="28"
     inkscape:window-maximized="0"
     inkscape:current-layer="layer1" />
  <defs
     id="defs1">
    <clipPath
       clipPathUnits="userSpaceOnUse"
       id="clipPath46">
      <path
         d="M 0,0 H 960.009 V 540 H 0 Z"
         transform="translate(-335.30581,-447.22351)"
         id="path46" />
    </clipPath>
    <clipPath
       clipPathUnits="userSpaceOnUse"
       id="clipPath48">
      <path
         d="M 0,0 H 960.009 V 540 H 0 Z"
         transform="translate(-366.36111,-395.97531)"
         id="path48" />
    </clipPath>
    <clipPath
       clipPathUnits="userSpaceOnUse"
       id="clipPath46-4">
      <path
         d="M 0,0 H 960.009 V 540 H 0 Z"
         transform="translate(-335.30581,-447.22351)"
         id="path46-1" />
    </clipPath>
    <clipPath
       clipPathUnits="userSpaceOnUse"
       id="clipPath48-8">
      <path
         d="M 0,0 H 960.009 V 540 H 0 Z"
         transform="translate(-366.36111,-395.97531)"
         id="path48-8" />
    </clipPath>
    <clipPath
       clipPathUnits="userSpaceOnUse"
       id="clipPath10">
      <path
         d="M 0,0 H 960.009 V 540 H 0 Z"
         transform="translate(-452.25271,-448.21871)"
         id="path10" />
    </clipPath>
    <clipPath
       clipPathUnits="userSpaceOnUse"
       id="clipPath12">
      <path
         d="M 0,0 H 960.009 V 540 H 0 Z"
         transform="translate(-445.51041,-428.84291)"
         id="path12" />
    </clipPath>
    <clipPath
       clipPathUnits="userSpaceOnUse"
       id="clipPath14">
      <path
         d="M 0,0 H 960.009 V 540 H 0 Z"
         transform="translate(-490.38481,-447.77471)"
         id="path14" />
    </clipPath>
    <clipPath
       clipPathUnits="userSpaceOnUse"
       id="clipPath16">
      <path
         d="M 0,0 H 960.009 V 540 H 0 Z"
         transform="translate(-520.07251,-407.43611)"
         id="path16" />
    </clipPath>
    <clipPath
       clipPathUnits="userSpaceOnUse"
       id="clipPath18">
      <path
         d="M 0,0 H 960.009 V 540 H 0 Z"
         transform="translate(-475.72791,-420.29251)"
         id="path18" />
    </clipPath>
    <clipPath
       clipPathUnits="userSpaceOnUse"
       id="clipPath20">
      <path
         d="M 0,0 H 960.009 V 540 H 0 Z"
         transform="translate(-532.40951,-415.32891)"
         id="path20" />
    </clipPath>
    <clipPath
       clipPathUnits="userSpaceOnUse"
       id="clipPath22">
      <path
         d="M 0,0 H 960.009 V 540 H 0 Z"
         transform="translate(-585.24491,-404.67841)"
         id="path22" />
    </clipPath>
    <clipPath
       clipPathUnits="userSpaceOnUse"
       id="clipPath24">
      <path
         d="M 0,0 H 960.009 V 540 H 0 Z"
         transform="translate(-546.73501,-439.46011)"
         id="path24" />
    </clipPath>
    <clipPath
       clipPathUnits="userSpaceOnUse"
       id="clipPath26">
      <path
         d="M 0,0 H 960.009 V 540 H 0 Z"
         transform="translate(-597.25132,-396.91631)"
         id="path26" />
    </clipPath>
    <clipPath
       clipPathUnits="userSpaceOnUse"
       id="clipPath28">
      <path
         d="M 0,0 H 960.009 V 540 H 0 Z"
         transform="translate(-644.79592,-427.55181)"
         id="path28" />
    </clipPath>
    <clipPath
       clipPathUnits="userSpaceOnUse"
       id="clipPath30">
      <path
         d="M 0,0 H 960.009 V 540 H 0 Z"
         transform="translate(-722.31742,-442.86561)"
         id="path30" />
    </clipPath>
    <clipPath
       clipPathUnits="userSpaceOnUse"
       id="clipPath32">
      <path
         d="M 0,0 H 960.009 V 540 H 0 Z"
         transform="translate(-713.80762,-411.31901)"
         id="path32" />
    </clipPath>
    <clipPath
       clipPathUnits="userSpaceOnUse"
       id="clipPath34">
      <path
         d="M 0,0 H 960.009 V 540 H 0 Z"
         transform="translate(-711.27122,-406.75661)"
         id="path34" />
    </clipPath>
    <clipPath
       clipPathUnits="userSpaceOnUse"
       id="clipPath36">
      <path
         d="M 0,0 H 960.009 V 540 H 0 Z"
         transform="translate(-788.58924,-392.63841)"
         id="path36" />
    </clipPath>
    <clipPath
       clipPathUnits="userSpaceOnUse"
       id="clipPath38">
      <path
         d="M 0,0 H 960.009 V 540 H 0 Z"
         transform="translate(-775.73004,-429.83291)"
         id="path38" />
    </clipPath>
  </defs>
  <g
     inkscape:label="Layer 1"
     inkscape:groupmode="layer"
     id="layer1"
     transform="translate(518.58341,431.53541)">
    <path
       id="path35"
       d="m 0,0 c 0.023,-0.955 -0.691,-1.768 -1.641,-1.865 -8.634,-0.879 -22.032,0.405 -30.06,0.702 -8.473,0.314 -16.07,-2.061 -24.256,0.129 -0.345,0.093 -0.707,0.194 -0.964,0.442 -0.328,0.317 -0.455,0.796 -0.478,1.251 -0.497,9.711 1.296,17.898 0.584,35.348 -0.102,2.491 -0.536,7.335 -0.582,9.827 -0.047,2.493 0.712,5.146 2.655,6.73 1.704,1.389 4.014,1.744 6.204,2.007 15.376,1.844 30.997,1.676 46.329,-0.498 0.419,-0.059 0.869,-0.135 1.166,-0.434 0.379,-0.382 0.377,-0.985 0.351,-1.52 -0.136,-2.778 -0.273,-5.557 -0.378,-8.336 z"
       style="fill:#fcb560;fill-opacity:1;fill-rule:nonzero;stroke:none"
       transform="matrix(0.35277776,0,0,-0.35277776,-498.30313,-411.83662)"
       clip-path="url(#clipPath36)" />
    <path
       id="path37"
       d="M 0,0 C -0.047,1.127 -0.383,1.914 -0.997,2.339 -2.232,3.196 -4.406,2.532 -7.461,0.366 -7.479,0.353 -7.498,0.34 -7.516,0.327 c -0.236,0.112 -0.477,0.225 -0.723,0.329 -3.173,1.343 -6.703,1.125 -10.041,0.688 -0.01,-0.001 -0.019,-0.002 -0.029,-0.003 -0.01,-0.002 -0.021,-0.004 -0.031,-0.006 -1.145,-0.221 -2.228,-0.068 -2.237,-0.067 -0.531,0.081 -1.032,0.157 -1.606,0.478 -0.383,0.248 -0.734,0.539 -1.043,0.867 -0.443,0.469 -1.483,1.757 -1.575,3.586 -0.041,0.801 -0.136,2.679 1.22,3.676 1.145,0.842 3.164,0.969 4.053,-0.127 0.961,-1.187 0.911,-3.072 0.544,-4.44 l -0.011,-0.041 c -0.199,-0.739 -0.47,-1.752 -1.041,-1.886 -0.506,-0.118 -1.226,0.356 -1.713,1.129 -0.168,0.267 -0.521,0.347 -0.787,0.178 -0.267,-0.168 -0.347,-0.521 -0.179,-0.787 0.775,-1.229 1.929,-1.869 2.94,-1.632 1.236,0.29 1.61,1.684 1.883,2.702 l 0.011,0.041 c 0.57,2.124 0.287,4.163 -0.76,5.455 -1.334,1.646 -4.03,1.495 -5.616,0.328 -1.851,-1.361 -1.73,-3.753 -1.685,-4.654 0.111,-2.208 1.356,-3.751 1.886,-4.312 0.376,-0.399 0.803,-0.753 1.269,-1.053 0.01,-0.006 0.019,-0.011 0.028,-0.017 0.762,-0.43 1.425,-0.531 2.013,-0.621 0.052,-0.007 1.277,-0.183 2.618,0.074 3.18,0.416 6.524,0.628 9.443,-0.608 0.037,-0.015 0.074,-0.031 0.111,-0.047 -0.6,-0.439 -1.216,-0.884 -1.842,-1.265 -1.805,-1.099 -3.756,-2.162 -5.96,-2.763 0.627,0.553 0.96,1.182 0.988,1.887 0.027,0.658 -0.342,1.307 -1.098,1.93 -0.32,0.263 -1.067,0.879 -1.682,0.389 -0.202,-0.161 -0.361,-0.367 -0.533,-0.689 -0.003,-0.007 -0.008,-0.016 -0.013,-0.025 -0.111,0.063 -0.251,0.13 -0.424,0.151 -0.632,0.146 -0.892,-0.455 -1.048,-0.815 -0.005,-0.011 -0.009,-0.021 -0.013,-0.032 -0.457,-1.255 -0.718,-2.352 -0.695,-2.933 0.009,-0.236 0.064,-0.443 0.125,-0.606 -0.107,-0.034 -0.21,-0.066 -0.305,-0.094 -10e-4,-0.001 -0.002,-0.001 -0.003,-0.002 h -0.004 l -0.647,-0.206 c -0.762,-0.266 -1.645,-0.54 -2.479,-0.429 -0.134,0.017 -0.267,0.046 -0.4,0.084 0.005,0.041 0.009,0.082 0.013,0.123 0.082,0.77 0.166,1.567 0.191,2.354 0.03,0.927 -0.008,2.126 -0.57,3.188 -0.386,0.73 -0.973,1.168 -1.609,1.2 -1.052,0.058 -1.774,-0.961 -1.941,-1.991 -0.205,-1.261 0.106,-2.654 0.854,-3.821 0.492,-0.769 1.129,-1.376 1.842,-1.773 -0.127,-1.36 -0.186,-2.747 0.129,-4.127 0.32,-1.401 0.861,-2.634 1.547,-3.743 -0.229,-0.307 -0.426,-0.656 -0.586,-1.041 -0.711,-1.713 -0.531,-3.562 -0.358,-5.35 0.08,-0.827 0.159,-1.633 0.152,-2.406 -0.114,-0.072 -0.221,-0.138 -0.322,-0.201 -0.59,-0.366 -1.311,-0.675 -2.074,-1.002 -1.546,-0.661 -3.144,-1.346 -4.082,-2.67 -0.389,-0.55 -0.412,-1.267 -0.058,-1.745 0.337,-0.456 0.875,-0.573 1.251,-0.621 2.414,-0.309 4.88,1.081 5.864,3.307 0.328,0.744 0.482,1.515 0.537,2.297 1.067,0.721 2.447,1.835 3.354,3.535 0.149,0.278 0.043,0.624 -0.235,0.772 -0.278,0.149 -0.624,0.044 -0.773,-0.234 -0.625,-1.172 -1.509,-2.028 -2.337,-2.663 -0.027,0.582 -0.084,1.165 -0.14,1.741 -0.167,1.724 -0.325,3.353 0.276,4.802 0.054,0.13 0.128,0.289 0.226,0.459 1.284,-1.724 2.906,-3.147 4.526,-4.479 0.615,-0.505 1.251,-1.049 1.843,-1.65 0.007,-0.11 0.012,-0.215 0.014,-0.315 0.027,-1.359 -0.136,-2.824 -0.498,-4.478 -0.061,-0.281 -0.206,-0.677 -0.359,-1.096 -0.512,-1.403 -1.212,-3.325 -0.09,-4.443 0.333,-0.332 0.769,-0.471 1.204,-0.471 0.401,0 0.802,0.117 1.124,0.311 2.112,1.266 2.726,4.501 2.1,6.896 -0.431,1.645 -1.336,2.972 -2.391,4.099 -0.245,2.347 -1.336,6.198 -3.481,7.594 -0.971,0.632 -2.083,0.714 -3.216,0.239 -0.225,-0.094 -0.44,-0.216 -0.642,-0.362 -0.558,0.951 -0.994,1.996 -1.262,3.172 -0.256,1.123 -0.234,2.262 -0.135,3.442 0.12,-0.027 0.24,-0.049 0.361,-0.066 1.084,-0.144 2.12,0.175 2.991,0.479 l 0.626,0.198 c 0.292,0.089 0.664,0.209 1.011,0.32 0.026,0.009 0.053,0.018 0.079,0.026 0.276,-0.029 0.643,-0.031 1.133,0.02 0.001,0 0.001,0 0.001,0 h 0.001 c 3.389,0.357 6.181,1.822 8.694,3.352 0.739,0.45 1.446,0.968 2.129,1.47 0.099,0.073 0.198,0.145 0.297,0.218 0.265,-0.124 0.536,-0.244 0.815,-0.351 l 3.035,-1.312 c 0.03,-0.013 0.061,-0.023 0.092,-0.031 0.558,-0.135 1.133,-0.274 1.459,0.277 0.141,0.226 0.151,0.466 0.148,0.654 0.04,-0.005 0.076,-0.011 0.101,-0.015 0.127,-0.02 0.192,-0.049 0.268,-0.081 0.124,-0.054 0.33,-0.144 0.599,-0.074 C 0.044,-1.691 0.007,-0.172 0,0 m -25.544,-3.348 c -0.021,-0.64 -0.084,-1.302 -0.152,-1.951 -0.382,0.29 -0.729,0.666 -1.012,1.107 -0.598,0.934 -0.848,2.035 -0.688,3.022 0.082,0.505 0.397,1.034 0.739,1.034 0.006,0 0.011,0 0.017,0 0.26,-0.014 0.51,-0.316 0.657,-0.594 0.436,-0.825 0.464,-1.832 0.439,-2.618 m 0.135,-22.37 c -0.771,-1.746 -2.78,-2.879 -4.674,-2.636 -0.341,0.043 -0.446,0.123 -0.478,0.167 -0.052,0.07 -0.032,0.258 0.072,0.406 0.752,1.062 2.199,1.681 3.599,2.28 0.614,0.263 1.245,0.533 1.812,0.841 -0.073,-0.363 -0.18,-0.716 -0.331,-1.058 m 8.954,-0.92 c 0.292,1.335 0.46,2.558 0.511,3.708 0.552,-0.758 0.997,-1.601 1.247,-2.555 0.509,-1.945 0.049,-4.65 -1.582,-5.628 -0.284,-0.17 -0.722,-0.222 -0.935,-0.01 -0.605,0.603 -0.049,2.129 0.357,3.243 0.167,0.456 0.324,0.887 0.402,1.242 m -5.783,12.321 c 0.79,0.331 1.493,0.284 2.151,-0.144 1.383,-0.9 2.309,-3.303 2.739,-5.33 -0.286,0.25 -0.574,0.491 -0.857,0.723 -1.677,1.38 -3.279,2.786 -4.494,4.484 0.138,0.104 0.291,0.196 0.461,0.267 m 2.671,9.488 c -0.036,-0.011 -0.073,-0.023 -0.111,-0.035 -0.03,0.066 -0.07,0.176 -0.075,0.3 -0.013,0.337 0.176,1.257 0.621,2.481 0.003,0.007 0.006,0.013 0.009,0.02 0.132,-0.075 0.309,-0.154 0.529,-0.154 h 0.007 c 0.51,0.004 0.769,0.491 0.895,0.726 0.052,0.098 0.094,0.166 0.129,0.214 0.071,-0.043 0.183,-0.12 0.351,-0.259 0.452,-0.372 0.694,-0.728 0.683,-1.002 -0.035,-0.867 -1.114,-1.681 -3.038,-2.291 m 18.349,4.099 c -0.092,0.031 -0.207,0.062 -0.349,0.085 -0.313,0.05 -0.897,0.142 -1.227,-0.288 -0.176,-0.23 -0.197,-0.49 -0.197,-0.69 -0.043,0.009 -0.092,0.02 -0.147,0.033 l -3.001,1.298 c -0.008,0.003 -0.016,0.006 -0.024,0.009 -0.049,0.019 -0.097,0.038 -0.146,0.057 0.966,0.651 1.857,1.145 2.601,1.443 0.964,0.386 1.677,0.45 2.061,0.184 0.379,-0.263 0.484,-0.933 0.506,-1.449 0.011,-0.261 -0.029,-0.518 -0.077,-0.682"
       style="fill:#ffffff;fill-opacity:1;fill-rule:nonzero;stroke:none"
       transform="matrix(0.35277776,0,0,-0.35277776,-502.83957,-424.95801)"
       clip-path="url(#clipPath38)" />
  </g>
</svg>
