<?xml version="1.0" encoding="UTF-8" standalone="no"?>
<!-- Created with Inkscape (http://www.inkscape.org/) -->

<svg
   width="20.764133mm"
   height="20.345604mm"
   viewBox="0 0 20.764132 20.345604"
   version="1.1"
   id="svg1"
   inkscape:version="1.4 (e7c3feb1, 2024-10-09)"
   sodipodi:docname="CLB.svg"
   xmlns:inkscape="http://www.inkscape.org/namespaces/inkscape"
   xmlns:sodipodi="http://sodipodi.sourceforge.net/DTD/sodipodi-0.dtd"
   xmlns="http://www.w3.org/2000/svg"
   xmlns:svg="http://www.w3.org/2000/svg">
  <sodipodi:namedview
     id="namedview1"
     pagecolor="#ffffff"
     bordercolor="#000000"
     borderopacity="0.25"
     inkscape:showpageshadow="2"
     inkscape:pageopacity="0.0"
     inkscape:pagecheckerboard="0"
     inkscape:deskcolor="#d1d1d1"
     inkscape:document-units="mm"
     inkscape:zoom="2.096401"
     inkscape:cx="29.335991"
     inkscape:cy="15.502759"
     inkscape:window-width="1440"
     inkscape:window-height="872"
     inkscape:window-x="0"
     inkscape:window-y="28"
     inkscape:window-maximized="0"
     inkscape:current-layer="layer1" />
  <defs
     id="defs1">
    <clipPath
       clipPathUnits="userSpaceOnUse"
       id="clipPath46">
      <path
         d="M 0,0 H 960.009 V 540 H 0 Z"
         transform="translate(-335.30581,-447.22351)"
         id="path46" />
    </clipPath>
    <clipPath
       clipPathUnits="userSpaceOnUse"
       id="clipPath48">
      <path
         d="M 0,0 H 960.009 V 540 H 0 Z"
         transform="translate(-366.36111,-395.97531)"
         id="path48" />
    </clipPath>
    <clipPath
       clipPathUnits="userSpaceOnUse"
       id="clipPath46-4">
      <path
         d="M 0,0 H 960.009 V 540 H 0 Z"
         transform="translate(-335.30581,-447.22351)"
         id="path46-1" />
    </clipPath>
    <clipPath
       clipPathUnits="userSpaceOnUse"
       id="clipPath48-8">
      <path
         d="M 0,0 H 960.009 V 540 H 0 Z"
         transform="translate(-366.36111,-395.97531)"
         id="path48-8" />
    </clipPath>
    <clipPath
       clipPathUnits="userSpaceOnUse"
       id="clipPath10">
      <path
         d="M 0,0 H 960.009 V 540 H 0 Z"
         transform="translate(-452.25271,-448.21871)"
         id="path10" />
    </clipPath>
    <clipPath
       clipPathUnits="userSpaceOnUse"
       id="clipPath12">
      <path
         d="M 0,0 H 960.009 V 540 H 0 Z"
         transform="translate(-445.51041,-428.84291)"
         id="path12" />
    </clipPath>
    <clipPath
       clipPathUnits="userSpaceOnUse"
       id="clipPath14">
      <path
         d="M 0,0 H 960.009 V 540 H 0 Z"
         transform="translate(-490.38481,-447.77471)"
         id="path14" />
    </clipPath>
    <clipPath
       clipPathUnits="userSpaceOnUse"
       id="clipPath16">
      <path
         d="M 0,0 H 960.009 V 540 H 0 Z"
         transform="translate(-520.07251,-407.43611)"
         id="path16" />
    </clipPath>
    <clipPath
       clipPathUnits="userSpaceOnUse"
       id="clipPath18">
      <path
         d="M 0,0 H 960.009 V 540 H 0 Z"
         transform="translate(-475.72791,-420.29251)"
         id="path18" />
    </clipPath>
    <clipPath
       clipPathUnits="userSpaceOnUse"
       id="clipPath20">
      <path
         d="M 0,0 H 960.009 V 540 H 0 Z"
         transform="translate(-532.40951,-415.32891)"
         id="path20" />
    </clipPath>
    <clipPath
       clipPathUnits="userSpaceOnUse"
       id="clipPath22">
      <path
         d="M 0,0 H 960.009 V 540 H 0 Z"
         transform="translate(-585.24491,-404.67841)"
         id="path22" />
    </clipPath>
    <clipPath
       clipPathUnits="userSpaceOnUse"
       id="clipPath24">
      <path
         d="M 0,0 H 960.009 V 540 H 0 Z"
         transform="translate(-546.73501,-439.46011)"
         id="path24" />
    </clipPath>
    <clipPath
       clipPathUnits="userSpaceOnUse"
       id="clipPath26">
      <path
         d="M 0,0 H 960.009 V 540 H 0 Z"
         transform="translate(-597.25132,-396.91631)"
         id="path26" />
    </clipPath>
    <clipPath
       clipPathUnits="userSpaceOnUse"
       id="clipPath28">
      <path
         d="M 0,0 H 960.009 V 540 H 0 Z"
         transform="translate(-644.79592,-427.55181)"
         id="path28" />
    </clipPath>
    <clipPath
       clipPathUnits="userSpaceOnUse"
       id="clipPath30">
      <path
         d="M 0,0 H 960.009 V 540 H 0 Z"
         transform="translate(-722.31742,-442.86561)"
         id="path30" />
    </clipPath>
    <clipPath
       clipPathUnits="userSpaceOnUse"
       id="clipPath32">
      <path
         d="M 0,0 H 960.009 V 540 H 0 Z"
         transform="translate(-713.80762,-411.31901)"
         id="path32" />
    </clipPath>
    <clipPath
       clipPathUnits="userSpaceOnUse"
       id="clipPath34">
      <path
         d="M 0,0 H 960.009 V 540 H 0 Z"
         transform="translate(-711.27122,-406.75661)"
         id="path34" />
    </clipPath>
    <clipPath
       clipPathUnits="userSpaceOnUse"
       id="clipPath36">
      <path
         d="M 0,0 H 960.009 V 540 H 0 Z"
         transform="translate(-788.58924,-392.63841)"
         id="path36" />
    </clipPath>
    <clipPath
       clipPathUnits="userSpaceOnUse"
       id="clipPath38">
      <path
         d="M 0,0 H 960.009 V 540 H 0 Z"
         transform="translate(-775.73004,-429.83291)"
         id="path38" />
    </clipPath>
    <clipPath
       clipPathUnits="userSpaceOnUse"
       id="clipPath40">
      <path
         d="M 0,0 H 960.009 V 540 H 0 Z"
         transform="translate(-854.0284,-447.94411)"
         id="path40" />
    </clipPath>
    <clipPath
       clipPathUnits="userSpaceOnUse"
       id="clipPath42">
      <path
         d="M 0,0 H 960.009 V 540 H 0 Z"
         transform="translate(-841.42262,-414.05971)"
         id="path42" />
    </clipPath>
    <clipPath
       clipPathUnits="userSpaceOnUse"
       id="clipPath44">
      <path
         d="M 0,0 H 960.009 V 540 H 0 Z"
         transform="translate(-828.18625,-402.03771)"
         id="path44" />
    </clipPath>
    <clipPath
       clipPathUnits="userSpaceOnUse"
       id="clipPath186">
      <path
         d="M 0,0 H 960.009 V 540 H 0 Z"
         transform="translate(-796.23144,-323.72221)"
         id="path186" />
    </clipPath>
    <clipPath
       clipPathUnits="userSpaceOnUse"
       id="clipPath188">
      <path
         d="M 0,0 H 960.009 V 540 H 0 Z"
         transform="translate(-837.6514,-370.80791)"
         id="path188" />
    </clipPath>
    <clipPath
       clipPathUnits="userSpaceOnUse"
       id="clipPath182">
      <path
         d="M 0,0 H 960.009 V 540 H 0 Z"
         transform="translate(-736.95462,-375.25501)"
         id="path182" />
    </clipPath>
    <clipPath
       clipPathUnits="userSpaceOnUse"
       id="clipPath184">
      <path
         d="M 0,0 H 960.009 V 540 H 0 Z"
         transform="translate(-768.50649,-358.25011)"
         id="path184" />
    </clipPath>
    <clipPath
       clipPathUnits="userSpaceOnUse"
       id="clipPath178">
      <path
         d="M 0,0 H 960.009 V 540 H 0 Z"
         transform="translate(-720.27222,-375.61331)"
         id="path178" />
    </clipPath>
    <clipPath
       clipPathUnits="userSpaceOnUse"
       id="clipPath180">
      <path
         d="M 0,0 H 960.009 V 540 H 0 Z"
         transform="translate(-708.29912,-339.89981)"
         id="path180" />
    </clipPath>
    <clipPath
       clipPathUnits="userSpaceOnUse"
       id="clipPath174">
      <path
         d="M 0,0 H 960.009 V 540 H 0 Z"
         transform="translate(-632.38852,-318.07351)"
         id="path174" />
    </clipPath>
    <clipPath
       clipPathUnits="userSpaceOnUse"
       id="clipPath176">
      <path
         d="M 0,0 H 960.009 V 540 H 0 Z"
         transform="translate(-651.53441,-331.09111)"
         id="path176" />
    </clipPath>
    <clipPath
       clipPathUnits="userSpaceOnUse"
       id="clipPath170">
      <path
         d="M 0,0 H 960.009 V 540 H 0 Z"
         transform="translate(-591.96502,-324.88781)"
         id="path170" />
    </clipPath>
    <clipPath
       clipPathUnits="userSpaceOnUse"
       id="clipPath172">
      <path
         d="M 0,0 H 960.009 V 540 H 0 Z"
         transform="translate(-586.33631,-340.16661)"
         id="path172" />
    </clipPath>
    <clipPath
       clipPathUnits="userSpaceOnUse"
       id="clipPath166">
      <path
         d="M 0,0 H 960.009 V 540 H 0 Z"
         transform="translate(-524.71871,-320.54331)"
         id="path166" />
    </clipPath>
    <clipPath
       clipPathUnits="userSpaceOnUse"
       id="clipPath168">
      <path
         d="M 0,0 H 960.009 V 540 H 0 Z"
         transform="translate(-503.36561,-325.03411)"
         id="path168" />
    </clipPath>
    <clipPath
       clipPathUnits="userSpaceOnUse"
       id="clipPath160">
      <path
         d="M 0,0 H 960.009 V 540 H 0 Z"
         transform="translate(-403.48081,-318.39281)"
         id="path160" />
    </clipPath>
    <clipPath
       clipPathUnits="userSpaceOnUse"
       id="clipPath162">
      <path
         d="M 0,0 H 960.009 V 540 H 0 Z"
         transform="translate(-451.85691,-327.41961)"
         id="path162" />
    </clipPath>
    <clipPath
       clipPathUnits="userSpaceOnUse"
       id="clipPath164">
      <path
         d="M 0,0 H 960.009 V 540 H 0 Z"
         transform="translate(-409.77981,-357.93981)"
         id="path164" />
    </clipPath>
    <clipPath
       clipPathUnits="userSpaceOnUse"
       id="clipPath156">
      <path
         d="M 0,0 H 960.009 V 540 H 0 Z"
         transform="translate(-368.23991,-318.73791)"
         id="path156" />
    </clipPath>
    <clipPath
       clipPathUnits="userSpaceOnUse"
       id="clipPath158">
      <path
         d="M 0,0 H 960.009 V 540 H 0 Z"
         transform="translate(-383.86171,-342.63551)"
         id="path158" />
    </clipPath>
    <clipPath
       clipPathUnits="userSpaceOnUse"
       id="clipPath114">
      <path
         d="M 0,0 H 960.009 V 540 H 0 Z"
         transform="translate(-392.75611,-298.45791)"
         id="path114" />
    </clipPath>
    <clipPath
       clipPathUnits="userSpaceOnUse"
       id="clipPath116">
      <path
         d="M 0,0 H 960.009 V 540 H 0 Z"
         transform="translate(-387.31901,-254.33761)"
         id="path116" />
    </clipPath>
    <clipPath
       clipPathUnits="userSpaceOnUse"
       id="clipPath118">
      <path
         d="M 0,0 H 960.009 V 540 H 0 Z"
         transform="translate(-360.51291,-262.97961)"
         id="path118" />
    </clipPath>
    <clipPath
       clipPathUnits="userSpaceOnUse"
       id="clipPath120">
      <path
         d="M 0,0 H 960.009 V 540 H 0 Z"
         transform="translate(-455.62551,-246.02871)"
         id="path120" />
    </clipPath>
    <clipPath
       clipPathUnits="userSpaceOnUse"
       id="clipPath122">
      <path
         d="M 0,0 H 960.009 V 540 H 0 Z"
         transform="translate(-452.63151,-264.6049)"
         id="path122" />
    </clipPath>
    <clipPath
       clipPathUnits="userSpaceOnUse"
       id="clipPath124">
      <path
         d="M 0,0 H 960.009 V 540 H 0 Z"
         transform="translate(-409.98541,-258.8899)"
         id="path124" />
    </clipPath>
    <clipPath
       clipPathUnits="userSpaceOnUse"
       id="clipPath126">
      <path
         d="M 0,0 H 960.009 V 540 H 0 Z"
         transform="translate(-473.91801,-244.75861)"
         id="path126" />
    </clipPath>
    <clipPath
       clipPathUnits="userSpaceOnUse"
       id="clipPath128">
      <path
         d="M 0,0 H 960.009 V 540 H 0 Z"
         transform="translate(-522.03322,-284.9617)"
         id="path128" />
    </clipPath>
    <clipPath
       clipPathUnits="userSpaceOnUse"
       id="clipPath130">
      <path
         d="M 0,0 H 960.009 V 540 H 0 Z"
         transform="translate(-566.28982,-245.4835)"
         id="path130" />
    </clipPath>
    <clipPath
       clipPathUnits="userSpaceOnUse"
       id="clipPath132">
      <path
         d="M 0,0 H 960.009 V 540 H 0 Z"
         transform="translate(-579.34751,-261.87991)"
         id="path132" />
    </clipPath>
    <clipPath
       clipPathUnits="userSpaceOnUse"
       id="clipPath134">
      <path
         d="M 0,0 H 960.009 V 540 H 0 Z"
         transform="translate(-599.74111,-300.49821)"
         id="path134" />
    </clipPath>
    <clipPath
       clipPathUnits="userSpaceOnUse"
       id="clipPath136">
      <path
         d="M 0,0 H 960.009 V 540 H 0 Z"
         transform="translate(-607.69802,-279.2284)"
         id="path136" />
    </clipPath>
    <clipPath
       clipPathUnits="userSpaceOnUse"
       id="clipPath138">
      <path
         d="M 0,0 H 960.009 V 540 H 0 Z"
         transform="translate(-650.53442,-256.29601)"
         id="path138" />
    </clipPath>
    <clipPath
       clipPathUnits="userSpaceOnUse"
       id="clipPath140">
      <path
         d="M 0,0 H 960.009 V 540 H 0 Z"
         transform="translate(-622.88372,-267.98611)"
         id="path140" />
    </clipPath>
    <clipPath
       clipPathUnits="userSpaceOnUse"
       id="clipPath142">
      <path
         d="M 0,0 H 960.009 V 540 H 0 Z"
         transform="translate(-650.88982,-289.31181)"
         id="path142" />
    </clipPath>
    <clipPath
       clipPathUnits="userSpaceOnUse"
       id="clipPath144">
      <path
         d="M 0,0 H 960.009 V 540 H 0 Z"
         transform="translate(-670.90652,-304.59101)"
         id="path144" />
    </clipPath>
    <clipPath
       clipPathUnits="userSpaceOnUse"
       id="clipPath146">
      <path
         d="M 0,0 H 960.009 V 540 H 0 Z"
         transform="translate(-675.34091,-252.8968)"
         id="path146" />
    </clipPath>
    <clipPath
       clipPathUnits="userSpaceOnUse"
       id="clipPath148">
      <path
         d="M 0,0 H 960.009 V 540 H 0 Z"
         transform="translate(-731.60292,-301.35641)"
         id="path148" />
    </clipPath>
    <clipPath
       clipPathUnits="userSpaceOnUse"
       id="clipPath150">
      <path
         d="M 0,0 H 960.009 V 540 H 0 Z"
         transform="translate(-769.25522,-269.3509)"
         id="path150" />
    </clipPath>
    <clipPath
       clipPathUnits="userSpaceOnUse"
       id="clipPath152">
      <path
         d="M 0,0 H 960.009 V 540 H 0 Z"
         transform="translate(-797.62959,-270.71421)"
         id="path152" />
    </clipPath>
    <clipPath
       clipPathUnits="userSpaceOnUse"
       id="clipPath154">
      <path
         d="M 0,0 H 960.009 V 540 H 0 Z"
         transform="translate(-819.53545,-251.29921)"
         id="path154" />
    </clipPath>
    <clipPath
       clipPathUnits="userSpaceOnUse"
       id="clipPath106">
      <path
         d="M 0,0 H 960.009 V 540 H 0 Z"
         transform="translate(-854.43355,-222.87901)"
         id="path106" />
    </clipPath>
    <clipPath
       clipPathUnits="userSpaceOnUse"
       id="clipPath108">
      <path
         d="M 0,0 H 960.009 V 540 H 0 Z"
         transform="translate(-845.89442,-183.77151)"
         id="path108" />
    </clipPath>
    <clipPath
       clipPathUnits="userSpaceOnUse"
       id="clipPath110">
      <path
         d="M 0,0 H 960.009 V 540 H 0 Z"
         transform="translate(-827.15155,-207.2536)"
         id="path110" />
    </clipPath>
    <clipPath
       clipPathUnits="userSpaceOnUse"
       id="clipPath112">
      <path
         d="M 0,0 H 960.009 V 540 H 0 Z"
         transform="translate(-821.5558,-184.11621)"
         id="path112" />
    </clipPath>
    <clipPath
       clipPathUnits="userSpaceOnUse"
       id="clipPath100">
      <path
         d="M 0,0 H 960.009 V 540 H 0 Z"
         transform="translate(-788.83644,-175.0057)"
         id="path100" />
    </clipPath>
    <clipPath
       clipPathUnits="userSpaceOnUse"
       id="clipPath102">
      <path
         d="M 0,0 H 960.009 V 540 H 0 Z"
         transform="translate(-762.95784,-218.90061)"
         id="path102" />
    </clipPath>
    <clipPath
       clipPathUnits="userSpaceOnUse"
       id="clipPath104">
      <path
         d="M 0,0 H 960.009 V 540 H 0 Z"
         transform="translate(-767.37212,-210.89581)"
         id="path104" />
    </clipPath>
    <clipPath
       clipPathUnits="userSpaceOnUse"
       id="clipPath96">
      <path
         d="M 0,0 H 960.009 V 540 H 0 Z"
         transform="translate(-667.61321,-172.85541)"
         id="path96" />
    </clipPath>
    <clipPath
       clipPathUnits="userSpaceOnUse"
       id="clipPath98">
      <path
         d="M 0,0 H 960.009 V 540 H 0 Z"
         transform="translate(-707.81362,-221.51581)"
         id="path98" />
    </clipPath>
    <clipPath
       clipPathUnits="userSpaceOnUse"
       id="clipPath88">
      <path
         d="M 0,0 H 960.009 V 540 H 0 Z"
         transform="translate(-599.45281,-229.32291)"
         id="path88" />
    </clipPath>
    <clipPath
       clipPathUnits="userSpaceOnUse"
       id="clipPath90">
      <path
         d="M 0,0 H 960.009 V 540 H 0 Z"
         transform="translate(-649.90772,-199.2534)"
         id="path90" />
    </clipPath>
    <clipPath
       clipPathUnits="userSpaceOnUse"
       id="clipPath92">
      <path
         d="M 0,0 H 960.009 V 540 H 0 Z"
         transform="translate(-638.90842,-203.66491)"
         id="path92" />
    </clipPath>
    <clipPath
       clipPathUnits="userSpaceOnUse"
       id="clipPath94">
      <path
         d="M 0,0 H 960.009 V 540 H 0 Z"
         transform="translate(-628.77641,-189.4174)"
         id="path94" />
    </clipPath>
    <clipPath
       clipPathUnits="userSpaceOnUse"
       id="clipPath84">
      <path
         d="M 0,0 H 960.009 V 540 H 0 Z"
         transform="translate(-584.37121,-231.34611)"
         id="path84" />
    </clipPath>
    <clipPath
       clipPathUnits="userSpaceOnUse"
       id="clipPath86">
      <path
         d="M 0,0 H 960.009 V 540 H 0 Z"
         transform="translate(-586.71481,-200.10211)"
         id="path86" />
    </clipPath>
    <clipPath
       clipPathUnits="userSpaceOnUse"
       id="clipPath74">
      <path
         d="M 0,0 H 960.009 V 540 H 0 Z"
         transform="translate(-469.54581,-229.89861)"
         id="path74" />
    </clipPath>
    <clipPath
       clipPathUnits="userSpaceOnUse"
       id="clipPath76">
      <path
         d="M 0,0 H 960.009 V 540 H 0 Z"
         transform="translate(-504.62411,-187.19301)"
         id="path76" />
    </clipPath>
    <clipPath
       clipPathUnits="userSpaceOnUse"
       id="clipPath78">
      <path
         d="M 0,0 H 960.009 V 540 H 0 Z"
         transform="translate(-479.18201,-202.14411)"
         id="path78" />
    </clipPath>
    <clipPath
       clipPathUnits="userSpaceOnUse"
       id="clipPath80">
      <path
         d="M 0,0 H 960.009 V 540 H 0 Z"
         transform="translate(-512.10071,-205.33581)"
         id="path80" />
    </clipPath>
    <clipPath
       clipPathUnits="userSpaceOnUse"
       id="clipPath82">
      <path
         d="M 0,0 H 960.009 V 540 H 0 Z"
         transform="translate(-504.38371,-189.2929)"
         id="path82" />
    </clipPath>
  </defs>
  <g
     inkscape:label="Layer 1"
     inkscape:groupmode="layer"
     id="layer1"
     transform="translate(546.62928,437.35627)">
    <path
       id="path73"
       d="m 0,0 c 7.137,-0.656 14.322,-1.319 21.465,-0.75 3.558,0.284 7.092,0.872 10.664,0.914 5.129,0.06 10.148,0.246 15.155,-0.813 2.247,-0.476 4.678,-1.058 6.091,-2.767 1.305,-1.576 1.412,-3.721 1.464,-5.715 0.369,-14.038 0.78,-29.327 1.149,-43.365 0.016,-0.632 0.028,-1.287 -0.24,-1.866 -0.292,-0.629 -0.882,-1.092 -1.498,-1.46 -3.42,-2.042 -7.803,-1.738 -11.841,-1.364 -5.72,0.532 -11.441,1.063 -17.161,1.594 -3.014,0.28 -6.043,0.56 -9.066,0.4 -3.858,-0.205 -7.647,-1.124 -11.509,-1.237 -1.702,-0.05 -3.573,0.122 -4.789,1.245 -1.111,1.026 -1.394,2.589 -1.531,4.046 -0.408,4.354 -0.019,8.734 0.019,13.104 0.102,11.789 -2.343,23.638 -0.618,35.313 0.067,0.45 0.143,0.908 0.364,1.312 0,0 0.236,1.56 1.882,1.409"
       style="fill:#fcb560;fill-opacity:1;fill-rule:nonzero;stroke:none"
       transform="matrix(0.35277776,0,0,-0.35277776,-545.61895,-437.28029)"
       clip-path="url(#clipPath74)" />
    <path
       id="path75"
       d="m 0,0 c -0.877,-0.046 -1.996,-0.348 -2.505,-1.053 -0.256,-0.355 -0.329,-0.767 -0.212,-1.193 0.118,-0.429 0.423,-0.786 0.881,-1.031 0.428,-0.229 0.966,-0.345 1.526,-0.345 0.423,0 0.857,0.066 1.263,0.201 0.498,0.166 0.922,0.418 1.261,0.751 0.716,0.705 0.678,1.279 0.521,1.637 C 2.334,-0.124 0.827,0.045 0,0 M 1.413,-1.856 C 1.203,-2.062 0.92,-2.228 0.594,-2.337 -0.048,-2.55 -0.825,-2.522 -1.297,-2.27 c -0.123,0.066 -0.277,0.175 -0.319,0.327 -0.025,0.09 -0.015,0.15 0.037,0.222 0.211,0.293 0.916,0.542 1.639,0.58 0.072,0.004 0.142,0.006 0.21,0.006 0.746,0 1.316,-0.21 1.413,-0.349 -0.008,-0.034 -0.052,-0.157 -0.27,-0.372"
       style="fill:#ffffff;fill-opacity:1;fill-rule:nonzero;stroke:none"
       transform="matrix(0.35277776,0,0,-0.35277776,-533.2441,-422.2147)"
       clip-path="url(#clipPath76)" />
    <path
       id="path77"
       d="m 0,0 c -0.006,0 -0.012,0 -0.017,0 -0.717,0 -1.444,-0.578 -1.767,-1.126 -0.271,-0.46 -0.3,-0.943 -0.08,-1.328 0.286,-0.501 0.926,-0.755 1.902,-0.755 0.018,0 0.035,10e-4 0.052,0.002 1.94,0.177 2.321,0.883 2.3,1.443 C 2.351,-0.775 0.914,-0.012 0,0 m 0.013,-2.067 c -0.712,0.004 -0.877,0.171 -0.882,0.171 v 0 c -0.006,0.036 0.033,0.174 0.185,0.349 0.217,0.251 0.514,0.405 0.666,0.405 h 0.003 C 0.463,-1.148 1.088,-1.551 1.226,-1.77 1.127,-1.838 0.825,-1.99 0.013,-2.067"
       style="fill:#ffffff;fill-opacity:1;fill-rule:nonzero;stroke:none"
       transform="matrix(0.35277776,0,0,-0.35277776,-542.21951,-427.48912)"
       clip-path="url(#clipPath78)" />
    <path
       id="path79"
       d="m 0,0 c -0.141,0.439 -0.517,0.761 -1.033,0.885 -1.123,0.273 -2.463,-0.718 -2.959,-1.506 -0.46,-0.729 -0.317,-1.498 0.363,-1.96 0.347,-0.235 0.808,-0.363 1.268,-0.363 0.586,0 1.171,0.208 1.517,0.666 C -0.083,-1.391 0.201,-0.625 0,0 m -1.722,-1.548 c -0.011,-0.012 -0.02,-0.025 -0.03,-0.037 -0.194,-0.268 -0.875,-0.295 -1.235,-0.05 -0.129,0.087 -0.195,0.157 -0.039,0.404 0.338,0.536 1.117,1.02 1.595,1.02 0.046,0 0.09,-0.004 0.131,-0.014 0.09,-0.022 0.194,-0.066 0.213,-0.125 0.04,-0.125 -0.048,-0.518 -0.635,-1.198"
       style="fill:#ffffff;fill-opacity:1;fill-rule:nonzero;stroke:none"
       transform="matrix(0.35277776,0,0,-0.35277776,-530.60653,-428.61508)"
       clip-path="url(#clipPath80)" />
    <path
       id="path81"
       d="m 0,0 c 0.915,1.732 0.117,5.397 -0.889,6.871 -0.264,0.387 -0.527,0.608 -0.767,0.727 -0.089,1.183 -0.506,2.146 -1.245,2.868 -0.985,0.962 -2.502,1.427 -4.504,1.399 -1.052,-0.017 -2.085,-0.212 -3.075,-0.572 -0.803,1.561 -1.342,3.308 -1.837,4.912 -0.062,0.201 -0.146,0.446 -0.246,0.727 0.24,0.162 0.496,0.32 0.767,0.474 2.051,1.163 4.898,0.985 6.976,0.854 0.609,-0.038 1.122,-0.072 1.55,-0.067 -0.246,-0.614 -0.772,-1.04 -1.229,-1.31 -1.686,-0.996 -4.197,-1.016 -6.107,-0.046 -0.281,0.142 -0.625,0.03 -0.767,-0.251 -0.143,-0.282 -0.031,-0.625 0.25,-0.768 2.239,-1.136 5.202,-1.102 7.205,0.082 1.062,0.628 1.72,1.508 1.887,2.508 1.017,0.383 1.805,1.119 2.294,2.148 0.844,1.777 0.593,3.95 0.279,4.666 -0.007,0.016 -0.014,0.029 -0.021,0.044 1.009,0.295 1.239,0.816 1.222,1.251 -0.039,0.989 -1.476,1.752 -2.39,1.764 -0.725,0.009 -1.458,-0.574 -1.784,-1.127 -0.271,-0.459 -0.3,-0.943 -0.08,-1.327 0.102,-0.179 0.251,-0.324 0.442,-0.44 -0.254,-0.283 -0.448,-0.6 -0.552,-0.864 -0.424,-1.074 -0.466,-3.383 -0.494,-4.911 -10e-4,-0.095 -0.003,-0.187 -0.005,-0.274 -0.413,-0.015 -1.009,0.023 -1.629,0.062 -2.221,0.139 -5.263,0.33 -7.61,-1 -0.212,-0.121 -0.417,-0.244 -0.613,-0.369 -0.154,0.405 -0.323,0.845 -0.501,1.307 -0.04,0.105 -0.081,0.211 -0.122,0.318 0.803,0.162 2.108,0.567 2.626,1.53 0.228,0.425 0.393,1.132 -0.121,2.092 -0.13,0.242 -0.261,0.479 -0.39,0.713 -0.995,1.799 -1.781,3.22 -0.949,5.106 0.279,0.632 0.821,1.13 1.485,1.364 0.599,0.211 1.222,0.176 1.755,-0.099 1.141,-0.59 1.837,-2.071 1.817,-3.867 -0.016,-1.447 -0.17,-1.849 -0.595,-2.255 -0.259,-0.248 -0.677,-0.367 -1.017,-0.288 -0.222,0.051 -0.371,0.175 -0.444,0.369 -0.11,0.296 -0.44,0.445 -0.735,0.335 -0.295,-0.11 -0.445,-0.439 -0.335,-0.734 0.207,-0.553 0.665,-0.947 1.258,-1.083 0.715,-0.165 1.524,0.062 2.062,0.575 0.786,0.75 0.932,1.587 0.948,3.068 0.025,2.264 -0.885,4.094 -2.435,4.894 -0.815,0.422 -1.76,0.479 -2.659,0.162 -0.96,-0.339 -1.744,-1.061 -2.15,-1.98 -1.061,-2.405 -0.063,-4.209 0.994,-6.119 0.127,-0.23 0.256,-0.462 0.383,-0.7 0.332,-0.62 0.175,-0.914 0.123,-1.011 -0.308,-0.574 -1.389,-0.873 -2.037,-0.986 -0.557,1.463 -1.081,2.897 -1.3,3.762 -0.197,0.777 -0.683,2.508 -1.256,4.071 -0.364,0.993 -0.672,1.678 -0.948,2.144 0.266,0.133 0.496,0.32 0.673,0.556 0.499,0.667 0.365,1.229 0.24,1.505 -0.338,0.748 -1.345,1.156 -2.138,1.218 -0.604,0.05 -1.401,-0.093 -1.831,-0.632 -0.285,-0.358 -0.356,-0.83 -0.2,-1.329 0.151,-0.484 0.502,-0.886 0.946,-1.158 -0.67,-1.139 -0.743,-3.515 -0.157,-5.81 0.707,-2.765 1.874,-5.544 5.117,-5.544 0.032,0 0.064,0.001 0.096,0.001 0.077,-0.201 0.154,-0.401 0.23,-0.598 0.214,-0.557 0.423,-1.099 0.606,-1.585 -1.761,-1.414 -2.634,-3.12 -2.659,-5.176 -0.021,-1.766 0.295,-3.543 0.614,-5.267 -1.345,-1.907 -2.49,-4.417 -3.199,-7.048 -0.53,-1.967 -0.903,-4.427 -0.497,-5.839 -0.089,-0.02 -0.178,-0.045 -0.265,-0.08 -1.272,-0.424 -2.008,-1.008 -2.187,-1.735 -0.125,-0.51 0.038,-1.031 0.46,-1.465 0.47,-0.485 1.236,-0.698 2.016,-0.698 0.642,0 1.294,0.145 1.798,0.401 0.87,0.443 1.173,1.284 0.771,2.143 -0.092,0.197 -0.218,0.386 -0.367,0.558 1.579,1.07 2.545,4.682 3.099,7.779 0.303,1.696 -0.034,3.644 -0.416,5.708 0.097,0.128 0.196,0.253 0.296,0.376 1.023,1.25 2.21,2.209 3.494,2.84 0.312,-0.506 0.658,-0.99 1.047,-1.441 0.896,-1.037 1.964,-1.747 3.089,-2.051 1.365,-0.37 2.702,-0.128 3.996,0.11 -0.063,-0.417 -0.163,-0.915 -0.268,-1.43 -0.406,-2.009 -0.867,-4.285 0.047,-5.403 0.237,-0.29 0.681,-0.635 1.45,-0.635 0.697,0 1.27,0.358 1.614,1.01 m -0.769,21.046 c -0.283,-0.596 -0.686,-1.047 -1.202,-1.349 0.025,1.367 0.073,3.548 0.412,4.407 0.173,0.439 0.656,0.891 0.876,0.895 h 0.001 c 0.044,0 0.117,-0.097 0.178,-0.236 0.199,-0.452 0.418,-2.28 -0.265,-3.717 m -0.562,5.688 c 0.217,0.251 0.514,0.404 0.666,0.404 h 0.003 C -0.184,27.132 0.441,26.73 0.579,26.511 0.48,26.442 0.178,26.29 -0.634,26.214 c -0.712,0.004 -0.877,0.171 -0.882,0.171 v -0.001 c -0.005,0.037 0.033,0.175 0.185,0.35 m -18.347,5.92 c 0.089,0.111 0.368,0.211 0.709,0.211 0.045,0 0.092,-0.002 0.139,-0.005 0.51,-0.041 1.075,-0.303 1.187,-0.55 0.014,-0.031 0.056,-0.124 -0.113,-0.35 -0.098,-0.13 -0.233,-0.222 -0.402,-0.273 -0.591,-0.18 -1.36,0.17 -1.523,0.691 -0.061,0.195 -0.013,0.256 0.003,0.276 m 0.803,-7.302 c -0.56,2.193 -0.406,4.372 0.089,5.032 0.024,0.033 0.048,0.059 0.07,0.079 0.557,-0.586 1.662,-3.73 2.298,-6.24 0.215,-0.848 0.69,-2.171 1.21,-3.546 -1.543,0.117 -2.77,1.165 -3.667,4.675 m 0.505,-33.898 c -0.709,-0.361 -2.017,-0.399 -2.476,0.074 -0.097,0.101 -0.206,0.251 -0.17,0.397 0.058,0.237 0.471,0.605 1.456,0.93 0.016,0.005 0.031,0.011 0.045,0.017 0.064,0.027 0.135,0.04 0.212,0.04 0.413,0 0.976,-0.365 1.188,-0.817 0.138,-0.297 0.067,-0.477 -0.255,-0.641 m 2.897,9.663 c -0.876,-4.896 -2.097,-7.12 -2.925,-7.153 0,0 -0.13,0.085 -0.223,0.529 -0.418,1.998 0.675,7.014 2.94,10.772 0.259,-1.526 0.422,-2.949 0.208,-4.148 m 0.438,6.981 c -0.237,1.354 -0.43,2.725 -0.415,4.055 0.019,1.566 0.655,2.901 1.934,4.043 0.042,-0.121 0.078,-0.231 0.107,-0.328 0.504,-1.631 1.051,-3.405 1.876,-5.028 -1.276,-0.637 -2.461,-1.56 -3.502,-2.742 M -3.027,7.585 C -4.257,7.359 -5.418,7.146 -6.54,7.45 c -0.918,0.248 -1.767,0.819 -2.523,1.695 -0.307,0.356 -0.586,0.737 -0.841,1.139 0.816,0.276 1.66,0.425 2.518,0.439 1.688,0.026 2.928,-0.333 3.687,-1.074 C -3.19,9.151 -2.89,8.472 -2.805,7.626 -2.879,7.612 -2.953,7.599 -3.027,7.585 M -2.18,0.348 c -0.571,0.699 -0.114,2.958 0.189,4.453 0.096,0.475 0.185,0.917 0.25,1.313 C -1.182,5.171 -0.553,3 -0.781,1.333 -0.945,0.132 -1.448,0.132 -1.614,0.132 c -0.349,0 -0.49,0.124 -0.566,0.216"
       style="fill:#ffffff;fill-opacity:1;fill-rule:nonzero;stroke:none"
       transform="matrix(0.35277776,0,0,-0.35277776,-533.32891,-422.9555)"
       clip-path="url(#clipPath82)" />
  </g>
</svg>
