<?xml version="1.0" encoding="UTF-8" standalone="no"?>
<!-- Created with Inkscape (http://www.inkscape.org/) -->

<svg
   width="20.497509mm"
   height="20.564999mm"
   viewBox="0 0 20.497509 20.564998"
   version="1.1"
   id="svg1"
   inkscape:version="1.4 (e7c3feb1, 2024-10-09)"
   sodipodi:docname="CAS.svg"
   xmlns:inkscape="http://www.inkscape.org/namespaces/inkscape"
   xmlns:sodipodi="http://sodipodi.sourceforge.net/DTD/sodipodi-0.dtd"
   xmlns="http://www.w3.org/2000/svg"
   xmlns:svg="http://www.w3.org/2000/svg">
  <sodipodi:namedview
     id="namedview1"
     pagecolor="#ffffff"
     bordercolor="#000000"
     borderopacity="0.25"
     inkscape:showpageshadow="2"
     inkscape:pageopacity="0.0"
     inkscape:pagecheckerboard="0"
     inkscape:deskcolor="#d1d1d1"
     inkscape:document-units="mm"
     inkscape:zoom="2.096401"
     inkscape:cx="-128.07664"
     inkscape:cy="-34.106071"
     inkscape:window-width="1440"
     inkscape:window-height="872"
     inkscape:window-x="0"
     inkscape:window-y="28"
     inkscape:window-maximized="0"
     inkscape:current-layer="layer1" />
  <defs
     id="defs1">
    <clipPath
       clipPathUnits="userSpaceOnUse"
       id="clipPath46">
      <path
         d="M 0,0 H 960.009 V 540 H 0 Z"
         transform="translate(-335.30581,-447.22351)"
         id="path46" />
    </clipPath>
    <clipPath
       clipPathUnits="userSpaceOnUse"
       id="clipPath48">
      <path
         d="M 0,0 H 960.009 V 540 H 0 Z"
         transform="translate(-366.36111,-395.97531)"
         id="path48" />
    </clipPath>
    <clipPath
       clipPathUnits="userSpaceOnUse"
       id="clipPath46-4">
      <path
         d="M 0,0 H 960.009 V 540 H 0 Z"
         transform="translate(-335.30581,-447.22351)"
         id="path46-1" />
    </clipPath>
    <clipPath
       clipPathUnits="userSpaceOnUse"
       id="clipPath48-8">
      <path
         d="M 0,0 H 960.009 V 540 H 0 Z"
         transform="translate(-366.36111,-395.97531)"
         id="path48-8" />
    </clipPath>
    <clipPath
       clipPathUnits="userSpaceOnUse"
       id="clipPath10">
      <path
         d="M 0,0 H 960.009 V 540 H 0 Z"
         transform="translate(-452.25271,-448.21871)"
         id="path10" />
    </clipPath>
    <clipPath
       clipPathUnits="userSpaceOnUse"
       id="clipPath12">
      <path
         d="M 0,0 H 960.009 V 540 H 0 Z"
         transform="translate(-445.51041,-428.84291)"
         id="path12" />
    </clipPath>
    <clipPath
       clipPathUnits="userSpaceOnUse"
       id="clipPath14">
      <path
         d="M 0,0 H 960.009 V 540 H 0 Z"
         transform="translate(-490.38481,-447.77471)"
         id="path14" />
    </clipPath>
    <clipPath
       clipPathUnits="userSpaceOnUse"
       id="clipPath16">
      <path
         d="M 0,0 H 960.009 V 540 H 0 Z"
         transform="translate(-520.07251,-407.43611)"
         id="path16" />
    </clipPath>
    <clipPath
       clipPathUnits="userSpaceOnUse"
       id="clipPath18">
      <path
         d="M 0,0 H 960.009 V 540 H 0 Z"
         transform="translate(-475.72791,-420.29251)"
         id="path18" />
    </clipPath>
    <clipPath
       clipPathUnits="userSpaceOnUse"
       id="clipPath20">
      <path
         d="M 0,0 H 960.009 V 540 H 0 Z"
         transform="translate(-532.40951,-415.32891)"
         id="path20" />
    </clipPath>
    <clipPath
       clipPathUnits="userSpaceOnUse"
       id="clipPath22">
      <path
         d="M 0,0 H 960.009 V 540 H 0 Z"
         transform="translate(-585.24491,-404.67841)"
         id="path22" />
    </clipPath>
    <clipPath
       clipPathUnits="userSpaceOnUse"
       id="clipPath24">
      <path
         d="M 0,0 H 960.009 V 540 H 0 Z"
         transform="translate(-546.73501,-439.46011)"
         id="path24" />
    </clipPath>
    <clipPath
       clipPathUnits="userSpaceOnUse"
       id="clipPath26">
      <path
         d="M 0,0 H 960.009 V 540 H 0 Z"
         transform="translate(-597.25132,-396.91631)"
         id="path26" />
    </clipPath>
    <clipPath
       clipPathUnits="userSpaceOnUse"
       id="clipPath28">
      <path
         d="M 0,0 H 960.009 V 540 H 0 Z"
         transform="translate(-644.79592,-427.55181)"
         id="path28" />
    </clipPath>
    <clipPath
       clipPathUnits="userSpaceOnUse"
       id="clipPath30">
      <path
         d="M 0,0 H 960.009 V 540 H 0 Z"
         transform="translate(-722.31742,-442.86561)"
         id="path30" />
    </clipPath>
    <clipPath
       clipPathUnits="userSpaceOnUse"
       id="clipPath32">
      <path
         d="M 0,0 H 960.009 V 540 H 0 Z"
         transform="translate(-713.80762,-411.31901)"
         id="path32" />
    </clipPath>
    <clipPath
       clipPathUnits="userSpaceOnUse"
       id="clipPath34">
      <path
         d="M 0,0 H 960.009 V 540 H 0 Z"
         transform="translate(-711.27122,-406.75661)"
         id="path34" />
    </clipPath>
    <clipPath
       clipPathUnits="userSpaceOnUse"
       id="clipPath36">
      <path
         d="M 0,0 H 960.009 V 540 H 0 Z"
         transform="translate(-788.58924,-392.63841)"
         id="path36" />
    </clipPath>
    <clipPath
       clipPathUnits="userSpaceOnUse"
       id="clipPath38">
      <path
         d="M 0,0 H 960.009 V 540 H 0 Z"
         transform="translate(-775.73004,-429.83291)"
         id="path38" />
    </clipPath>
    <clipPath
       clipPathUnits="userSpaceOnUse"
       id="clipPath40">
      <path
         d="M 0,0 H 960.009 V 540 H 0 Z"
         transform="translate(-854.0284,-447.94411)"
         id="path40" />
    </clipPath>
    <clipPath
       clipPathUnits="userSpaceOnUse"
       id="clipPath42">
      <path
         d="M 0,0 H 960.009 V 540 H 0 Z"
         transform="translate(-841.42262,-414.05971)"
         id="path42" />
    </clipPath>
    <clipPath
       clipPathUnits="userSpaceOnUse"
       id="clipPath44">
      <path
         d="M 0,0 H 960.009 V 540 H 0 Z"
         transform="translate(-828.18625,-402.03771)"
         id="path44" />
    </clipPath>
  </defs>
  <g
     inkscape:label="Layer 1"
     inkscape:groupmode="layer"
     id="layer1"
     transform="translate(504.82509,424.12708)">
    <path
       id="path39"
       d="m 0,0 c 0.495,-0.019 0.873,-0.446 0.834,-0.94 0,-0.003 0,-0.006 0,-0.009 -1.278,-16.491 -1.428,-33.061 -0.448,-49.57 0.119,-1.99 0.063,-4.368 -1.679,-5.463 -0.981,-0.617 -2.234,-0.624 -3.408,-0.615 -7.02,0.054 -14.043,-0.072 -21.056,-0.379 -9.549,-0.417 -19.266,-1.154 -28.549,1.029 -0.453,0.107 -0.935,0.238 -1.231,0.584 -0.237,0.276 -0.312,0.645 -0.378,0.997 -1.782,9.616 -1.474,19.467 -0.919,29.219 0.42,7.388 0.98,14.768 1.678,22.136 0.029,0.313 0.07,0.649 0.291,0.88 0.213,0.222 0.544,0.294 0.854,0.345 2.573,0.419 5.229,0.141 7.804,0.554 1.966,0.316 3.839,1.028 5.783,1.453 2.683,0.587 5.46,0.619 8.212,0.632 C -23.367,0.896 -4.363,0.172 0,0"
       style="fill:#03a0bf;fill-opacity:1;fill-rule:nonzero;stroke:none"
       transform="matrix(0.35277776,0,0,-0.35277776,-484.62277,-423.82551)"
       clip-path="url(#clipPath40)" />
    <path
       id="path41"
       d="m 0,0 c -0.184,0 -0.364,0.088 -0.474,0.252 -1.424,2.113 -11.429,14.04 -13.44,16.317 -0.143,0.161 -0.183,0.389 -0.103,0.589 0.025,0.065 0.628,1.665 -0.369,3.162 -0.362,0.543 -0.843,1.049 -1.496,1.57 -0.573,-0.533 -1.561,-1.469 -2.134,-2.015 0.385,-0.572 0.852,-1.163 1.448,-1.599 0.38,-0.279 0.809,-0.489 1.274,-0.623 0.303,-0.087 0.478,-0.404 0.391,-0.707 -0.088,-0.303 -0.405,-0.477 -0.707,-0.39 -0.595,0.171 -1.144,0.44 -1.633,0.798 -0.893,0.655 -1.534,1.575 -1.992,2.303 -0.145,0.229 -0.108,0.528 0.087,0.715 0.417,0.402 2.359,2.247 2.851,2.688 0.201,0.181 0.502,0.195 0.72,0.035 0.957,-0.706 1.638,-1.386 2.141,-2.142 1.035,-1.553 0.776,-3.176 0.591,-3.871 C -10.415,14.295 -0.925,2.964 0.473,0.89 0.649,0.629 0.58,0.274 0.319,0.097 0.221,0.031 0.11,0 0,0"
       style="fill:#ffffff;fill-opacity:1;fill-rule:nonzero;stroke:none"
       transform="matrix(0.35277776,0,0,-0.35277776,-489.06981,-411.87185)"
       clip-path="url(#clipPath42)" />
    <path
       id="path43"
       d="M 0,0 C -0.822,0 -1.642,0.002 -2.461,0.006 -7.049,0.03 -11.7,0.12 -16.284,0.274 c -3.237,0.109 -7.67,0.259 -10.11,3.527 -0.393,0.526 -0.257,0.934 -0.074,1.184 0.201,0.275 0.538,0.44 0.9,0.44 h 0.001 c 1.44,-0.002 2.863,-0.026 4.24,-0.05 4.854,-0.083 9.217,-0.158 13.035,0.712 -0.088,0.126 -0.16,0.252 -0.219,0.375 -0.715,1.506 0.087,3.338 1.075,4.551 1.159,1.421 2.856,2.151 5.055,2.178 -0.721,1.763 -1.242,3.614 -1.452,5.192 -0.307,2.297 0.01,3.937 0.942,4.875 0.766,0.771 1.835,1.196 2.936,1.165 1.029,-0.028 1.959,-0.451 2.617,-1.191 1.081,-1.214 1.452,-3.193 0.991,-5.293 -0.148,-0.676 -0.495,-2.257 -1.667,-2.747 -1.251,-0.523 -2.211,0.541 -2.784,1.176 -0.063,0.07 -0.124,0.138 -0.183,0.201 -0.215,0.231 -0.202,0.592 0.028,0.807 0.231,0.215 0.593,0.203 0.807,-0.028 0.064,-0.068 0.129,-0.14 0.196,-0.215 0.58,-0.643 1.027,-1.084 1.496,-0.887 0.624,0.261 0.891,1.479 0.992,1.937 0.295,1.347 0.259,3.181 -0.729,4.29 -0.447,0.502 -1.084,0.789 -1.795,0.809 -0.784,0.017 -1.55,-0.281 -2.095,-0.829 -1.416,-1.426 -0.569,-5.805 0.969,-9.331 0.669,-0.107 1.415,-0.375 2.258,-0.678 2.459,-0.885 5.826,-2.095 10.922,-0.854 0.296,0.072 0.598,-0.101 0.683,-0.394 0.009,-0.031 0.883,-2.929 2.68,-3.668 0.55,0.5 1.67,1.539 2.248,2.076 -0.383,0.533 -0.985,1.308 -1.413,1.629 -0.814,0.61 -1.861,0.897 -2.873,0.79 -0.315,-0.033 -0.595,0.193 -0.629,0.507 -0.034,0.313 0.194,0.595 0.507,0.629 1.297,0.138 2.637,-0.23 3.68,-1.012 0.815,-0.611 1.841,-2.135 1.955,-2.307 C 19.061,9.607 19.024,9.296 18.82,9.106 18.722,9.014 16.418,6.87 15.941,6.452 15.798,6.326 15.602,6.28 15.417,6.329 13.36,6.879 12.236,9.291 11.831,10.363 6.677,9.241 3.131,10.516 0.759,11.369 0.245,11.554 -0.23,11.725 -0.654,11.846 -0.135,9.416 -1.858,7.379 -4.017,6.347 -4.428,6.15 -4.847,5.971 -5.274,5.808 c 0.276,-0.029 0.551,-0.04 0.809,-0.04 2.146,0 4.921,-0.103 7.605,-0.203 2.677,-0.099 5.206,-0.194 7.163,-0.194 2.104,-0.007 4.145,0.04 5.95,0.075 C 18.02,5.481 19.546,5.511 20.8,5.499 21.156,5.496 21.481,5.328 21.691,5.04 21.899,4.752 21.958,4.393 21.851,4.055 21.184,1.943 18.514,1.005 16.982,0.634 15.31,0.229 13.581,0.187 12.055,0.149 8.06,0.05 4.015,0 0,0 m -25.321,4.282 c 2.146,-2.633 5.98,-2.762 9.075,-2.866 4.574,-0.154 9.214,-0.244 13.791,-0.268 4.808,-0.024 9.68,0.024 14.482,0.143 1.469,0.036 3.133,0.077 4.686,0.453 1.036,0.251 3.49,1.006 4.035,2.613 C 19.519,4.368 18.014,4.338 16.275,4.304 14.481,4.269 12.449,4.229 10.358,4.229 h -0.056 c -1.977,0 -4.516,0.095 -7.205,0.195 -2.673,0.099 -5.438,0.202 -7.562,0.202 -1.249,0 -2.136,0.227 -2.765,0.554 -4.212,-1.117 -9.053,-1.034 -14.117,-0.947 -1.293,0.022 -2.628,0.045 -3.974,0.049 m 23.072,7.767 c -1.904,0 -3.349,-0.59 -4.301,-1.758 -0.95,-1.166 -1.324,-2.507 -0.929,-3.338 0.103,-0.216 0.252,-0.394 0.434,-0.541 0.876,0.259 1.722,0.576 2.535,0.965 1.846,0.883 3.313,2.644 2.614,4.666 -0.12,0.004 -0.237,0.006 -0.353,0.006"
       style="fill:#ffffff;fill-opacity:1;fill-rule:nonzero;stroke:none"
       transform="matrix(0.35277776,0,0,-0.35277776,-493.73931,-407.63076)"
       clip-path="url(#clipPath44)" />
  </g>
</svg>
