<?xml version="1.0" encoding="UTF-8" standalone="no"?>
<!-- Created with Inkscape (http://www.inkscape.org/) -->

<svg
   width="21.372736mm"
   height="20.561819mm"
   viewBox="0 0 21.372735 20.561818"
   version="1.1"
   id="svg1"
   inkscape:version="1.4 (e7c3feb1, 2024-10-09)"
   sodipodi:docname="EJP.svg"
   xmlns:inkscape="http://www.inkscape.org/namespaces/inkscape"
   xmlns:sodipodi="http://sodipodi.sourceforge.net/DTD/sodipodi-0.dtd"
   xmlns="http://www.w3.org/2000/svg"
   xmlns:svg="http://www.w3.org/2000/svg">
  <sodipodi:namedview
     id="namedview1"
     pagecolor="#ffffff"
     bordercolor="#000000"
     borderopacity="0.25"
     inkscape:showpageshadow="2"
     inkscape:pageopacity="0.0"
     inkscape:pagecheckerboard="0"
     inkscape:deskcolor="#d1d1d1"
     inkscape:document-units="mm"
     inkscape:zoom="2.096401"
     inkscape:cx="40.784183"
     inkscape:cy="38.399143"
     inkscape:window-width="1440"
     inkscape:window-height="872"
     inkscape:window-x="0"
     inkscape:window-y="28"
     inkscape:window-maximized="0"
     inkscape:current-layer="layer1" />
  <defs
     id="defs1">
    <clipPath
       clipPathUnits="userSpaceOnUse"
       id="clipPath46">
      <path
         d="M 0,0 H 960.009 V 540 H 0 Z"
         transform="translate(-335.30581,-447.22351)"
         id="path46" />
    </clipPath>
    <clipPath
       clipPathUnits="userSpaceOnUse"
       id="clipPath48">
      <path
         d="M 0,0 H 960.009 V 540 H 0 Z"
         transform="translate(-366.36111,-395.97531)"
         id="path48" />
    </clipPath>
    <clipPath
       clipPathUnits="userSpaceOnUse"
       id="clipPath46-4">
      <path
         d="M 0,0 H 960.009 V 540 H 0 Z"
         transform="translate(-335.30581,-447.22351)"
         id="path46-1" />
    </clipPath>
    <clipPath
       clipPathUnits="userSpaceOnUse"
       id="clipPath48-8">
      <path
         d="M 0,0 H 960.009 V 540 H 0 Z"
         transform="translate(-366.36111,-395.97531)"
         id="path48-8" />
    </clipPath>
    <clipPath
       clipPathUnits="userSpaceOnUse"
       id="clipPath10">
      <path
         d="M 0,0 H 960.009 V 540 H 0 Z"
         transform="translate(-452.25271,-448.21871)"
         id="path10" />
    </clipPath>
    <clipPath
       clipPathUnits="userSpaceOnUse"
       id="clipPath12">
      <path
         d="M 0,0 H 960.009 V 540 H 0 Z"
         transform="translate(-445.51041,-428.84291)"
         id="path12" />
    </clipPath>
    <clipPath
       clipPathUnits="userSpaceOnUse"
       id="clipPath14">
      <path
         d="M 0,0 H 960.009 V 540 H 0 Z"
         transform="translate(-490.38481,-447.77471)"
         id="path14" />
    </clipPath>
    <clipPath
       clipPathUnits="userSpaceOnUse"
       id="clipPath16">
      <path
         d="M 0,0 H 960.009 V 540 H 0 Z"
         transform="translate(-520.07251,-407.43611)"
         id="path16" />
    </clipPath>
    <clipPath
       clipPathUnits="userSpaceOnUse"
       id="clipPath18">
      <path
         d="M 0,0 H 960.009 V 540 H 0 Z"
         transform="translate(-475.72791,-420.29251)"
         id="path18" />
    </clipPath>
    <clipPath
       clipPathUnits="userSpaceOnUse"
       id="clipPath20">
      <path
         d="M 0,0 H 960.009 V 540 H 0 Z"
         transform="translate(-532.40951,-415.32891)"
         id="path20" />
    </clipPath>
    <clipPath
       clipPathUnits="userSpaceOnUse"
       id="clipPath22">
      <path
         d="M 0,0 H 960.009 V 540 H 0 Z"
         transform="translate(-585.24491,-404.67841)"
         id="path22" />
    </clipPath>
    <clipPath
       clipPathUnits="userSpaceOnUse"
       id="clipPath24">
      <path
         d="M 0,0 H 960.009 V 540 H 0 Z"
         transform="translate(-546.73501,-439.46011)"
         id="path24" />
    </clipPath>
    <clipPath
       clipPathUnits="userSpaceOnUse"
       id="clipPath26">
      <path
         d="M 0,0 H 960.009 V 540 H 0 Z"
         transform="translate(-597.25132,-396.91631)"
         id="path26" />
    </clipPath>
    <clipPath
       clipPathUnits="userSpaceOnUse"
       id="clipPath28">
      <path
         d="M 0,0 H 960.009 V 540 H 0 Z"
         transform="translate(-644.79592,-427.55181)"
         id="path28" />
    </clipPath>
    <clipPath
       clipPathUnits="userSpaceOnUse"
       id="clipPath30">
      <path
         d="M 0,0 H 960.009 V 540 H 0 Z"
         transform="translate(-722.31742,-442.86561)"
         id="path30" />
    </clipPath>
    <clipPath
       clipPathUnits="userSpaceOnUse"
       id="clipPath32">
      <path
         d="M 0,0 H 960.009 V 540 H 0 Z"
         transform="translate(-713.80762,-411.31901)"
         id="path32" />
    </clipPath>
    <clipPath
       clipPathUnits="userSpaceOnUse"
       id="clipPath34">
      <path
         d="M 0,0 H 960.009 V 540 H 0 Z"
         transform="translate(-711.27122,-406.75661)"
         id="path34" />
    </clipPath>
    <clipPath
       clipPathUnits="userSpaceOnUse"
       id="clipPath36">
      <path
         d="M 0,0 H 960.009 V 540 H 0 Z"
         transform="translate(-788.58924,-392.63841)"
         id="path36" />
    </clipPath>
    <clipPath
       clipPathUnits="userSpaceOnUse"
       id="clipPath38">
      <path
         d="M 0,0 H 960.009 V 540 H 0 Z"
         transform="translate(-775.73004,-429.83291)"
         id="path38" />
    </clipPath>
    <clipPath
       clipPathUnits="userSpaceOnUse"
       id="clipPath40">
      <path
         d="M 0,0 H 960.009 V 540 H 0 Z"
         transform="translate(-854.0284,-447.94411)"
         id="path40" />
    </clipPath>
    <clipPath
       clipPathUnits="userSpaceOnUse"
       id="clipPath42">
      <path
         d="M 0,0 H 960.009 V 540 H 0 Z"
         transform="translate(-841.42262,-414.05971)"
         id="path42" />
    </clipPath>
    <clipPath
       clipPathUnits="userSpaceOnUse"
       id="clipPath44">
      <path
         d="M 0,0 H 960.009 V 540 H 0 Z"
         transform="translate(-828.18625,-402.03771)"
         id="path44" />
    </clipPath>
    <clipPath
       clipPathUnits="userSpaceOnUse"
       id="clipPath186">
      <path
         d="M 0,0 H 960.009 V 540 H 0 Z"
         transform="translate(-796.23144,-323.72221)"
         id="path186" />
    </clipPath>
    <clipPath
       clipPathUnits="userSpaceOnUse"
       id="clipPath188">
      <path
         d="M 0,0 H 960.009 V 540 H 0 Z"
         transform="translate(-837.6514,-370.80791)"
         id="path188" />
    </clipPath>
    <clipPath
       clipPathUnits="userSpaceOnUse"
       id="clipPath182">
      <path
         d="M 0,0 H 960.009 V 540 H 0 Z"
         transform="translate(-736.95462,-375.25501)"
         id="path182" />
    </clipPath>
    <clipPath
       clipPathUnits="userSpaceOnUse"
       id="clipPath184">
      <path
         d="M 0,0 H 960.009 V 540 H 0 Z"
         transform="translate(-768.50649,-358.25011)"
         id="path184" />
    </clipPath>
    <clipPath
       clipPathUnits="userSpaceOnUse"
       id="clipPath178">
      <path
         d="M 0,0 H 960.009 V 540 H 0 Z"
         transform="translate(-720.27222,-375.61331)"
         id="path178" />
    </clipPath>
    <clipPath
       clipPathUnits="userSpaceOnUse"
       id="clipPath180">
      <path
         d="M 0,0 H 960.009 V 540 H 0 Z"
         transform="translate(-708.29912,-339.89981)"
         id="path180" />
    </clipPath>
    <clipPath
       clipPathUnits="userSpaceOnUse"
       id="clipPath174">
      <path
         d="M 0,0 H 960.009 V 540 H 0 Z"
         transform="translate(-632.38852,-318.07351)"
         id="path174" />
    </clipPath>
    <clipPath
       clipPathUnits="userSpaceOnUse"
       id="clipPath176">
      <path
         d="M 0,0 H 960.009 V 540 H 0 Z"
         transform="translate(-651.53441,-331.09111)"
         id="path176" />
    </clipPath>
    <clipPath
       clipPathUnits="userSpaceOnUse"
       id="clipPath170">
      <path
         d="M 0,0 H 960.009 V 540 H 0 Z"
         transform="translate(-591.96502,-324.88781)"
         id="path170" />
    </clipPath>
    <clipPath
       clipPathUnits="userSpaceOnUse"
       id="clipPath172">
      <path
         d="M 0,0 H 960.009 V 540 H 0 Z"
         transform="translate(-586.33631,-340.16661)"
         id="path172" />
    </clipPath>
  </defs>
  <g
     inkscape:label="Layer 1"
     inkscape:groupmode="layer"
     id="layer1"
     transform="translate(549.53968,443.44166)">
    <path
       id="path169"
       d="m 0,0 c 0.123,-1.99 0.065,-4.367 -1.749,-5.462 -1.022,-0.617 -2.328,-0.624 -3.551,-0.615 -7.315,0.054 -14.63,-0.072 -21.937,-0.379 -9.949,-0.417 -20.072,-1.154 -29.743,1.029 -0.472,0.107 -0.975,0.239 -1.283,0.584 -0.247,0.276 -0.326,0.645 -0.394,0.997 -1.856,9.614 -1.536,19.463 -0.958,29.213 0.438,7.386 1.021,14.765 1.748,22.132 0.031,0.313 0.074,0.649 0.305,0.88 0.221,0.222 0.565,0.294 0.889,0.344 2.681,0.42 5.448,0.141 8.13,0.555 2.049,0.315 4,1.027 6.025,1.452 2.795,0.587 5.689,0.619 8.556,0.633 9.79,0.044 22.363,-0.435 32.496,-0.815 1.118,-0.041 1.997,-0.966 1.985,-2.084 z"
       style="fill:#fcb560;fill-opacity:1;fill-rule:nonzero;stroke:none"
       transform="matrix(0.35277776,0,0,-0.35277776,-528.35008,-425.32094)"
       clip-path="url(#clipPath170)" />
    <path
       id="path171"
       d="m 0,0 c -0.427,1.604 -2.526,3.866 -4.591,4.38 -0.596,0.149 -1.141,0.137 -1.617,-0.031 -0.218,0.29 -0.425,0.567 -0.616,0.824 -0.496,0.666 -0.855,1.148 -1.056,1.37 -1.562,1.724 -3.232,2.278 -5.165,2.92 -0.278,0.092 -0.564,0.187 -0.859,0.288 -0.298,0.103 -0.623,-0.056 -0.726,-0.354 -0.102,-0.298 0.056,-0.623 0.355,-0.726 0.298,-0.103 0.588,-0.199 0.87,-0.292 1.854,-0.615 3.318,-1.101 4.678,-2.603 0.165,-0.181 0.546,-0.693 0.987,-1.286 0.199,-0.267 0.394,-0.528 0.585,-0.78 -0.776,-0.872 -1.143,-3.23 -1.091,-7.009 0.012,-0.898 0.05,-1.833 0.108,-2.736 -0.57,0.517 -1.118,1.074 -1.653,1.616 -0.706,0.717 -1.436,1.458 -2.228,2.125 -2.059,1.731 -5.089,2.779 -8.533,2.953 -0.783,0.039 -2.736,0.05 -4.998,0.063 -2.322,0.014 -5.691,0.033 -7.856,0.104 -0.174,0.768 -0.627,1.896 -1.467,2.194 -0.356,0.126 -0.911,0.154 -1.536,-0.426 -0.375,-0.349 -0.553,-0.833 -0.487,-1.329 0.073,-0.547 0.438,-1.054 0.953,-1.325 0.179,-0.094 0.616,-0.163 1.55,-0.214 0.053,-0.419 0.1,-0.839 0.146,-1.249 0.065,-0.577 0.131,-1.163 0.212,-1.752 -1.311,0.491 -2.595,1.12 -3.528,2.111 -1.514,1.607 -1.515,4.031 -0.004,5.639 0.7,0.744 1.563,1.329 2.482,1.821 1.09,-0.918 2.223,-1.85 3.594,-2.416 1.332,-0.55 3.023,-0.37 4.022,0.427 0.76,0.608 1.08,1.516 0.903,2.558 -0.149,0.874 -0.604,1.547 -1.317,1.947 -1.325,0.743 -3.312,0.4 -4.611,-0.119 -0.789,-0.315 -1.618,-0.646 -2.434,-1.037 -0.657,0.548 -1.339,1.092 -2.079,1.541 -1.622,0.983 -3.5,0.578 -5.154,-1.112 -0.413,-0.422 -0.769,-0.966 -1.146,-1.541 -0.629,-0.961 -1.279,-1.955 -2.111,-2.186 -0.266,-0.074 -0.512,-0.04 -0.713,0.099 -0.211,0.145 -0.347,0.395 -0.373,0.685 -0.136,1.475 0.557,3.101 1.227,4.674 0.374,0.879 0.762,1.789 0.994,2.659 0.077,0.289 0.149,0.587 0.204,0.89 0.118,-0.003 0.237,0.002 0.359,0.009 0.646,0.036 1.28,0.094 1.893,0.15 1.375,0.126 2.673,0.245 4.05,0.128 1.822,-0.155 3.636,-0.588 5.391,-1.006 1.681,-0.4 3.42,-0.814 5.197,-0.997 1.74,-0.18 3.528,-0.122 5.282,0.164 0,-0.006 -0.001,-0.011 -0.001,-0.017 -0.079,-1.285 0.378,-2.409 0.921,-3.479 -1.437,-1.376 -2.001,-2.953 -1.526,-4.428 0.352,-1.089 1.5,-1.885 2.563,-1.78 0.883,0.09 1.477,0.753 1.59,1.774 0.171,1.542 -0.51,2.872 -1.191,4.154 0.31,0.239 0.587,0.421 0.77,0.535 0.805,0.499 1.678,0.894 2.604,1.312 1.426,0.645 2.9,1.311 4.101,2.391 1.896,1.703 2.282,4.245 0.961,6.324 -2.404,3.784 -8.061,2.81 -11.276,1.232 -1.512,-0.742 -2.84,-1.714 -4.05,-2.771 0.335,0.925 0.553,1.828 0.66,2.723 0.259,2.175 -0.185,4.258 -1.251,5.867 -0.601,0.907 -1.319,1.536 -2.135,1.87 -1.018,0.417 -2.202,0.351 -3.167,-0.176 -0.965,-0.528 -1.66,-1.489 -1.859,-2.571 -0.159,-0.87 -0.013,-1.838 0.436,-2.877 0.38,-0.878 0.904,-1.677 1.557,-2.375 0.913,-0.975 1.701,-1.043 2.2,-0.927 1.233,0.285 1.594,1.704 1.768,2.386 0.077,0.305 -0.107,0.616 -0.413,0.694 -0.306,0.078 -0.617,-0.107 -0.694,-0.413 -0.18,-0.705 -0.429,-1.441 -0.918,-1.554 -0.396,-0.091 -0.864,0.333 -1.109,0.595 -0.564,0.601 -1.015,1.29 -1.342,2.047 -0.358,0.828 -0.48,1.574 -0.361,2.218 0.135,0.736 0.626,1.416 1.283,1.775 0.656,0.359 1.494,0.405 2.186,0.122 0.592,-0.243 1.151,-0.742 1.616,-1.445 0.917,-1.383 1.296,-3.195 1.068,-5.101 -0.194,-1.627 -0.803,-3.303 -1.861,-5.124 -0.145,-0.249 -0.082,-0.567 0.148,-0.742 0.229,-0.174 0.552,-0.15 0.754,0.056 1.719,1.758 3.635,3.543 5.987,4.698 1.671,0.819 3.673,1.299 5.349,1.29 2.079,-0.015 3.58,-0.724 4.46,-2.109 1.027,-1.617 0.729,-3.525 -0.76,-4.862 -1.07,-0.962 -2.4,-1.563 -3.809,-2.2 -0.918,-0.415 -1.867,-0.844 -2.735,-1.382 -0.247,-0.154 -0.482,-0.312 -0.703,-0.474 -0.425,0.871 -0.739,1.732 -0.682,2.657 0.007,0.104 0.018,0.209 0.033,0.313 0.605,0.135 1.203,0.297 1.792,0.487 0.969,0.312 2.296,0.74 3.121,1.672 0.614,0.693 0.51,1.249 0.394,1.519 -0.215,0.499 -0.783,0.799 -1.557,0.825 -2.114,0.062 -4.041,-1.461 -4.696,-3.531 -1.786,-0.331 -3.614,-0.41 -5.391,-0.226 -1.702,0.175 -3.404,0.58 -5.049,0.973 -1.796,0.427 -3.653,0.87 -5.559,1.032 -1.478,0.125 -2.888,-0.004 -4.251,-0.129 -0.603,-0.055 -1.227,-0.112 -1.852,-0.147 -0.064,-0.003 -0.127,-0.006 -0.19,-0.007 -0.009,0.647 -0.158,1.279 -0.558,1.842 -0.357,0.503 -1.043,1.125 -1.8,1.223 -0.416,0.053 -0.803,-0.058 -1.119,-0.322 -0.331,-0.276 -0.508,-0.634 -0.514,-1.035 -0.01,-0.807 0.696,-1.518 1,-1.785 0.52,-0.459 1.099,-0.767 1.75,-0.929 -0.048,-0.243 -0.108,-0.488 -0.173,-0.732 -0.211,-0.791 -0.566,-1.624 -0.941,-2.506 -0.725,-1.703 -1.475,-3.464 -1.314,-5.226 0.058,-0.628 0.372,-1.182 0.862,-1.52 0.483,-0.333 1.075,-0.425 1.668,-0.259 1.246,0.347 2.05,1.575 2.76,2.66 0.346,0.527 0.672,1.026 1.007,1.368 0.898,0.918 2.277,1.825 3.745,0.934 0.548,-0.332 1.061,-0.72 1.574,-1.138 -0.862,-0.496 -1.677,-1.085 -2.373,-1.825 -1.931,-2.054 -1.929,-5.151 0.004,-7.204 1.247,-1.324 2.934,-2.051 4.571,-2.618 0.02,-0.107 0.042,-0.214 0.064,-0.321 0.217,-1.033 0.86,-2.426 1.96,-2.957 0.635,-0.306 1.335,-0.285 2.026,0.062 0.539,0.27 0.875,0.735 0.922,1.277 0.051,0.582 -0.236,1.164 -0.766,1.559 -0.629,0.466 -1.43,0.703 -2.137,0.911 -0.188,0.055 -0.372,0.109 -0.547,0.166 -0.17,0.055 -0.342,0.111 -0.515,0.168 -0.122,0.768 -0.21,1.545 -0.295,2.304 -0.039,0.353 -0.08,0.713 -0.124,1.074 1.576,-0.048 3.995,-0.076 7.679,-0.098 2.249,-0.013 4.19,-0.024 4.948,-0.062 3.196,-0.161 5.986,-1.115 7.855,-2.686 0.751,-0.632 1.462,-1.354 2.149,-2.052 0.741,-0.753 1.508,-1.531 2.346,-2.222 0.083,-0.068 0.166,-0.136 0.249,-0.203 0.123,-1.288 0.283,-2.401 0.457,-3.088 0.35,-1.379 1.279,-3.12 2.746,-3.487 0.268,-0.067 0.505,-0.095 0.714,-0.095 0.793,0 1.187,0.411 1.365,0.698 0.57,0.918 0.142,2.488 -0.615,3.377 -0.949,1.117 -2.049,1.982 -3.112,2.818 -0.156,0.123 -0.314,0.247 -0.473,0.373 -0.305,3.633 -0.278,8.478 0.494,9.814 2.319,-3.003 3.961,-4.728 5.16,-4.829 0.351,-0.029 0.665,0.078 0.907,0.31 C -0.119,-1.516 0.259,-0.972 0,0 m -35.438,0.966 c -0.176,0.102 -0.303,0.276 -0.326,0.45 -0.017,0.13 0.026,0.242 0.133,0.341 0.093,0.086 0.265,0.226 0.377,0.186 0.218,-0.077 0.488,-0.54 0.653,-1.065 -0.413,0.025 -0.706,0.054 -0.837,0.088 m 3.367,6.667 c 1.15,0.459 2.718,0.694 3.629,0.183 0.413,-0.232 0.658,-0.606 0.75,-1.143 0.108,-0.632 -0.057,-1.127 -0.49,-1.473 -0.671,-0.536 -1.933,-0.652 -2.874,-0.264 -1.064,0.439 -1.978,1.138 -2.906,1.909 0.636,0.286 1.277,0.542 1.891,0.788 m 14.938,7.769 c 0.036,0 0.073,-10e-4 0.11,-0.002 0.339,-0.011 0.497,-0.096 0.54,-0.132 -0.007,-0.036 -0.04,-0.14 -0.194,-0.313 -0.618,-0.698 -1.726,-1.055 -2.616,-1.342 -0.339,-0.109 -0.681,-0.208 -1.026,-0.299 0.602,1.168 1.756,2.088 3.186,2.088 m -3.294,-8.15 c 0.57,-1.086 1.055,-2.13 0.932,-3.244 -0.079,-0.713 -0.448,-0.75 -0.57,-0.762 -0.475,-0.047 -1.152,0.348 -1.361,0.994 -0.373,1.158 0.243,2.216 0.999,3.012 m -25.782,8.034 c -0.363,0.321 -0.615,0.696 -0.613,0.914 0.001,0.03 0.001,0.088 0.104,0.173 0.057,0.048 0.113,0.07 0.185,0.07 0.017,0 0.036,-0.001 0.055,-0.004 0.332,-0.043 0.778,-0.416 1.016,-0.752 0.213,-0.299 0.314,-0.647 0.342,-1.022 -0.402,0.128 -0.763,0.335 -1.089,0.621 M -32.078,-5.13 c 0.646,-0.19 1.313,-0.387 1.779,-0.732 0.206,-0.154 0.325,-0.362 0.309,-0.543 -0.012,-0.143 -0.112,-0.263 -0.296,-0.355 -0.372,-0.187 -0.705,-0.204 -1.017,-0.054 -0.587,0.283 -1.034,1.089 -1.254,1.829 0.155,-0.049 0.316,-0.097 0.479,-0.145 m 27.865,-5.85 c 0.5,-0.587 0.764,-1.633 0.515,-2.035 -0.135,-0.218 -0.527,-0.173 -0.832,-0.097 -0.911,0.228 -1.631,1.538 -1.916,2.66 -0.117,0.461 -0.224,1.087 -0.317,1.819 0.918,-0.727 1.784,-1.446 2.55,-2.347 m 3.066,10.055 c -0.006,-0.003 -0.56,-0.1 -2.429,1.995 -0.63,0.706 -1.27,1.502 -1.864,2.27 0.174,0.007 0.365,-0.017 0.573,-0.068 1.594,-0.397 3.433,-2.324 3.763,-3.566 0.057,-0.212 0.094,-0.495 -0.043,-0.631"
       style="fill:#ffffff;fill-opacity:1;fill-rule:nonzero;stroke:none"
       transform="matrix(0.35277776,0,0,-0.35277776,-530.33577,-430.71096)"
       clip-path="url(#clipPath172)" />
  </g>
</svg>
