<?xml version="1.0" encoding="UTF-8" standalone="no"?>
<!-- Created with Inkscape (http://www.inkscape.org/) -->

<svg
   width="20.46347mm"
   height="20.140392mm"
   viewBox="0 0 20.46347 20.140391"
   version="1.1"
   id="svg1"
   inkscape:version="1.4 (e7c3feb1, 2024-10-09)"
   sodipodi:docname="GBL.svg"
   xmlns:inkscape="http://www.inkscape.org/namespaces/inkscape"
   xmlns:sodipodi="http://sodipodi.sourceforge.net/DTD/sodipodi-0.dtd"
   xmlns="http://www.w3.org/2000/svg"
   xmlns:svg="http://www.w3.org/2000/svg">
  <sodipodi:namedview
     id="namedview1"
     pagecolor="#ffffff"
     bordercolor="#000000"
     borderopacity="0.25"
     inkscape:showpageshadow="2"
     inkscape:pageopacity="0.0"
     inkscape:pagecheckerboard="0"
     inkscape:deskcolor="#d1d1d1"
     inkscape:document-units="mm"
     inkscape:zoom="2.096401"
     inkscape:cx="-82.283877"
     inkscape:cy="197.71981"
     inkscape:window-width="1440"
     inkscape:window-height="872"
     inkscape:window-x="0"
     inkscape:window-y="28"
     inkscape:window-maximized="0"
     inkscape:current-layer="layer1" />
  <defs
     id="defs1">
    <clipPath
       clipPathUnits="userSpaceOnUse"
       id="clipPath46">
      <path
         d="M 0,0 H 960.009 V 540 H 0 Z"
         transform="translate(-335.30581,-447.22351)"
         id="path46" />
    </clipPath>
    <clipPath
       clipPathUnits="userSpaceOnUse"
       id="clipPath48">
      <path
         d="M 0,0 H 960.009 V 540 H 0 Z"
         transform="translate(-366.36111,-395.97531)"
         id="path48" />
    </clipPath>
    <clipPath
       clipPathUnits="userSpaceOnUse"
       id="clipPath46-4">
      <path
         d="M 0,0 H 960.009 V 540 H 0 Z"
         transform="translate(-335.30581,-447.22351)"
         id="path46-1" />
    </clipPath>
    <clipPath
       clipPathUnits="userSpaceOnUse"
       id="clipPath48-8">
      <path
         d="M 0,0 H 960.009 V 540 H 0 Z"
         transform="translate(-366.36111,-395.97531)"
         id="path48-8" />
    </clipPath>
    <clipPath
       clipPathUnits="userSpaceOnUse"
       id="clipPath10">
      <path
         d="M 0,0 H 960.009 V 540 H 0 Z"
         transform="translate(-452.25271,-448.21871)"
         id="path10" />
    </clipPath>
    <clipPath
       clipPathUnits="userSpaceOnUse"
       id="clipPath12">
      <path
         d="M 0,0 H 960.009 V 540 H 0 Z"
         transform="translate(-445.51041,-428.84291)"
         id="path12" />
    </clipPath>
    <clipPath
       clipPathUnits="userSpaceOnUse"
       id="clipPath14">
      <path
         d="M 0,0 H 960.009 V 540 H 0 Z"
         transform="translate(-490.38481,-447.77471)"
         id="path14" />
    </clipPath>
    <clipPath
       clipPathUnits="userSpaceOnUse"
       id="clipPath16">
      <path
         d="M 0,0 H 960.009 V 540 H 0 Z"
         transform="translate(-520.07251,-407.43611)"
         id="path16" />
    </clipPath>
    <clipPath
       clipPathUnits="userSpaceOnUse"
       id="clipPath18">
      <path
         d="M 0,0 H 960.009 V 540 H 0 Z"
         transform="translate(-475.72791,-420.29251)"
         id="path18" />
    </clipPath>
    <clipPath
       clipPathUnits="userSpaceOnUse"
       id="clipPath20">
      <path
         d="M 0,0 H 960.009 V 540 H 0 Z"
         transform="translate(-532.40951,-415.32891)"
         id="path20" />
    </clipPath>
    <clipPath
       clipPathUnits="userSpaceOnUse"
       id="clipPath22">
      <path
         d="M 0,0 H 960.009 V 540 H 0 Z"
         transform="translate(-585.24491,-404.67841)"
         id="path22" />
    </clipPath>
    <clipPath
       clipPathUnits="userSpaceOnUse"
       id="clipPath24">
      <path
         d="M 0,0 H 960.009 V 540 H 0 Z"
         transform="translate(-546.73501,-439.46011)"
         id="path24" />
    </clipPath>
    <clipPath
       clipPathUnits="userSpaceOnUse"
       id="clipPath26">
      <path
         d="M 0,0 H 960.009 V 540 H 0 Z"
         transform="translate(-597.25132,-396.91631)"
         id="path26" />
    </clipPath>
    <clipPath
       clipPathUnits="userSpaceOnUse"
       id="clipPath28">
      <path
         d="M 0,0 H 960.009 V 540 H 0 Z"
         transform="translate(-644.79592,-427.55181)"
         id="path28" />
    </clipPath>
    <clipPath
       clipPathUnits="userSpaceOnUse"
       id="clipPath30">
      <path
         d="M 0,0 H 960.009 V 540 H 0 Z"
         transform="translate(-722.31742,-442.86561)"
         id="path30" />
    </clipPath>
    <clipPath
       clipPathUnits="userSpaceOnUse"
       id="clipPath32">
      <path
         d="M 0,0 H 960.009 V 540 H 0 Z"
         transform="translate(-713.80762,-411.31901)"
         id="path32" />
    </clipPath>
    <clipPath
       clipPathUnits="userSpaceOnUse"
       id="clipPath34">
      <path
         d="M 0,0 H 960.009 V 540 H 0 Z"
         transform="translate(-711.27122,-406.75661)"
         id="path34" />
    </clipPath>
    <clipPath
       clipPathUnits="userSpaceOnUse"
       id="clipPath36">
      <path
         d="M 0,0 H 960.009 V 540 H 0 Z"
         transform="translate(-788.58924,-392.63841)"
         id="path36" />
    </clipPath>
    <clipPath
       clipPathUnits="userSpaceOnUse"
       id="clipPath38">
      <path
         d="M 0,0 H 960.009 V 540 H 0 Z"
         transform="translate(-775.73004,-429.83291)"
         id="path38" />
    </clipPath>
    <clipPath
       clipPathUnits="userSpaceOnUse"
       id="clipPath40">
      <path
         d="M 0,0 H 960.009 V 540 H 0 Z"
         transform="translate(-854.0284,-447.94411)"
         id="path40" />
    </clipPath>
    <clipPath
       clipPathUnits="userSpaceOnUse"
       id="clipPath42">
      <path
         d="M 0,0 H 960.009 V 540 H 0 Z"
         transform="translate(-841.42262,-414.05971)"
         id="path42" />
    </clipPath>
    <clipPath
       clipPathUnits="userSpaceOnUse"
       id="clipPath44">
      <path
         d="M 0,0 H 960.009 V 540 H 0 Z"
         transform="translate(-828.18625,-402.03771)"
         id="path44" />
    </clipPath>
    <clipPath
       clipPathUnits="userSpaceOnUse"
       id="clipPath186">
      <path
         d="M 0,0 H 960.009 V 540 H 0 Z"
         transform="translate(-796.23144,-323.72221)"
         id="path186" />
    </clipPath>
    <clipPath
       clipPathUnits="userSpaceOnUse"
       id="clipPath188">
      <path
         d="M 0,0 H 960.009 V 540 H 0 Z"
         transform="translate(-837.6514,-370.80791)"
         id="path188" />
    </clipPath>
    <clipPath
       clipPathUnits="userSpaceOnUse"
       id="clipPath182">
      <path
         d="M 0,0 H 960.009 V 540 H 0 Z"
         transform="translate(-736.95462,-375.25501)"
         id="path182" />
    </clipPath>
    <clipPath
       clipPathUnits="userSpaceOnUse"
       id="clipPath184">
      <path
         d="M 0,0 H 960.009 V 540 H 0 Z"
         transform="translate(-768.50649,-358.25011)"
         id="path184" />
    </clipPath>
    <clipPath
       clipPathUnits="userSpaceOnUse"
       id="clipPath178">
      <path
         d="M 0,0 H 960.009 V 540 H 0 Z"
         transform="translate(-720.27222,-375.61331)"
         id="path178" />
    </clipPath>
    <clipPath
       clipPathUnits="userSpaceOnUse"
       id="clipPath180">
      <path
         d="M 0,0 H 960.009 V 540 H 0 Z"
         transform="translate(-708.29912,-339.89981)"
         id="path180" />
    </clipPath>
  </defs>
  <g
     inkscape:label="Layer 1"
     inkscape:groupmode="layer"
     id="layer1"
     transform="translate(516.99593,485.51042)">
    <path
       id="path177"
       d="M 0,0 C 1.386,0.265 2.694,-0.731 2.809,-2.138 3.512,-10.779 2.308,-23.518 2.021,-31.261 1.707,-39.734 4.083,-47.331 1.892,-55.517 1.8,-55.863 1.698,-56.224 1.45,-56.481 1.133,-56.81 0.654,-56.936 0.2,-56.96 c -9.712,-0.496 -17.899,1.297 -35.349,0.584 -2.491,-0.101 -7.334,-0.535 -9.827,-0.582 -2.493,-0.046 -5.146,0.713 -6.73,2.656 -1.389,1.704 -1.744,4.013 -2.006,6.204 -1.844,15.376 -1.677,30.996 0.497,46.328 0.059,0.419 0.136,0.87 0.434,1.167 0.382,0.379 0.985,0.377 1.52,0.351 2.779,-0.137 5.557,-0.273 8.337,-0.378 15.149,-0.572 27.292,-0.782 42.396,0.529 z"
       style="fill:#fcb560;fill-opacity:1;fill-rule:nonzero;stroke:none"
       transform="matrix(0.35277776,0,0,-0.35277776,-497.60002,-485.49532)"
       clip-path="url(#clipPath178)" />
    <path
       id="path179"
       d="M 0,0 C -0.247,0.555 -0.799,0.975 -1.516,1.154 -2.906,1.5 -4.128,0.946 -5.309,0.411 -5.641,0.26 -5.964,0.114 -6.281,-0.009 -6.435,0.108 -6.572,0.218 -6.687,0.32 c -1.408,1.244 -2.562,2.818 -3.677,4.341 -0.246,0.335 -0.49,0.669 -0.736,0.997 -0.919,1.228 -2.148,2.599 -3.826,3.002 0.012,0.141 0.028,0.282 0.048,0.422 0.097,0.702 0.34,1.97 0.909,3.149 2.01,-0.851 3.338,-0.983 4.737,-1.121 0.806,-0.08 1.635,-0.161 2.67,-0.382 0.129,-0.255 0.256,-0.51 0.38,-0.761 1.208,-2.433 2.458,-4.948 4.478,-4.012 0.498,0.231 0.85,0.612 1.018,1.102 0.207,0.601 0.121,1.342 -0.235,2.032 -0.874,1.697 -2.846,2.159 -4.43,2.531 -0.146,0.034 -0.289,0.067 -0.428,0.101 -0.003,10e-4 -0.007,0.002 -0.01,0.002 -0.977,1.876 -2.128,3.683 -3.781,4.2 -0.928,0.291 -1.925,0.148 -2.965,-0.424 -0.797,-0.438 -1.415,-1.076 -1.896,-1.789 -0.216,0.114 -0.47,0.253 -0.745,0.403 -0.532,0.291 -1.168,0.639 -1.84,0.979 1.477,0.59 2.703,1.369 3.664,2.329 1.658,1.656 2.415,4.103 2.132,6.891 -0.167,1.648 -0.964,2.944 -2.185,3.557 -1.421,0.713 -3.244,0.528 -4.434,-0.449 -1.344,-1.103 -1.817,-2.984 -1.331,-5.296 0.225,-1.07 0.644,-3.062 2.193,-3.524 1.323,-0.394 2.148,0.743 2.695,1.496 0.056,0.078 0.111,0.153 0.165,0.225 0.189,0.252 0.138,0.61 -0.114,0.799 -0.252,0.189 -0.611,0.139 -0.8,-0.114 -0.057,-0.076 -0.115,-0.156 -0.176,-0.239 -0.525,-0.724 -0.934,-1.224 -1.444,-1.073 -0.897,0.268 -1.225,1.827 -1.401,2.665 -0.279,1.326 -0.342,3.127 0.938,4.179 0.852,0.699 2.167,0.827 3.197,0.31 0.852,-0.428 1.435,-1.419 1.56,-2.652 0.144,-1.412 0.1,-4.066 -1.802,-5.967 -1.065,-1.064 -2.515,-1.884 -4.325,-2.447 -0.096,0.041 -0.192,0.081 -0.287,0.12 -5.492,2.228 -9.159,3.478 -10.468,2.827 -0.291,-0.145 -0.488,-0.378 -0.567,-0.674 -0.111,-0.411 -0.116,-1.033 0.488,-1.667 1.708,-1.794 7.66,-2.528 9.637,-2.099 0.385,0.084 0.758,0.177 1.12,0.279 1.008,-0.457 2.043,-1.023 2.837,-1.457 0.272,-0.148 0.515,-0.282 0.727,-0.394 -0.637,-1.322 -0.905,-2.703 -1.013,-3.478 -0.021,-0.154 -0.039,-0.308 -0.052,-0.463 -0.004,0 -0.007,-10e-4 -0.011,-10e-4 -1.46,-0.049 -2.575,-0.599 -3.312,-1.633 -0.986,-1.383 -1.255,-3.635 -0.798,-6.693 0.173,-1.161 0.431,-2.31 0.695,-3.332 -0.704,-1.237 -1.17,-2.73 -1.392,-4.461 -0.099,-0.78 -0.024,-2.8 0.849,-3.72 0.315,-0.331 0.707,-0.504 1.141,-0.504 0.042,0 0.084,10e-4 0.126,0.004 0.521,0.04 0.952,0.289 1.247,0.721 0.056,0.081 0.104,0.169 0.148,0.261 0.655,-0.78 1.635,-1.277 2.73,-1.277 1.967,0 3.566,1.599 3.566,3.565 0,1.966 -1.599,3.566 -3.566,3.566 -1.116,0 -2.113,-0.517 -2.768,-1.323 -0.1,0.426 -0.182,0.701 -0.186,0.711 l -0.018,0.059 c -0.161,0.526 -0.4,1.305 -0.647,2.224 0.186,0.285 0.387,0.552 0.604,0.8 0.129,0.147 0.258,0.283 0.387,0.419 0.731,0.771 1.487,1.567 2.198,4.129 0.084,0.303 -0.094,0.618 -0.398,0.703 -0.304,0.084 -0.618,-0.094 -0.703,-0.398 -0.634,-2.287 -1.261,-2.948 -1.926,-3.648 -0.139,-0.147 -0.279,-0.294 -0.419,-0.454 -0.033,-0.039 -0.067,-0.078 -0.1,-0.118 -0.653,2.845 -1.097,6.34 0.16,8.103 0.517,0.725 1.289,1.103 2.358,1.152 0.087,-3.117 1.622,-6.196 4.033,-7.864 1.503,-1.04 3.269,-1.46 4.976,-1.186 0.211,0.034 0.419,0.083 0.624,0.143 1.277,-0.853 3.196,-1.785 4.673,-1.518 0.749,0.136 1.335,0.565 1.694,1.241 C 0.179,-1.032 0.214,-0.481 0,0 m -1.936,8.566 c 0.211,-0.409 0.274,-0.834 0.17,-1.138 -0.067,-0.194 -0.203,-0.337 -0.418,-0.436 -0.93,-0.433 -1.769,1.059 -2.932,3.398 1.288,-0.315 2.619,-0.736 3.18,-1.824 m -10.049,5.933 c 0.767,0.421 1.446,0.531 2.074,0.334 1.041,-0.325 1.902,-1.475 2.664,-2.815 -0.698,0.113 -1.308,0.173 -1.872,0.229 -1.329,0.131 -2.495,0.246 -4.264,0.976 0.372,0.514 0.831,0.964 1.398,1.276 m -16.506,2.677 c -0.229,0.24 -0.246,0.412 -0.222,0.54 0.142,0.064 0.853,0.231 3.713,-0.689 1.516,-0.488 3.225,-1.149 4.58,-1.691 -2.087,-0.177 -6.818,0.524 -8.071,1.84 M -14.639,-5.87 c 1.337,0 2.424,-1.088 2.424,-2.424 0,-1.336 -1.087,-2.423 -2.424,-2.423 -1.252,0 -2.285,0.954 -2.41,2.174 -0.003,0.087 -0.007,0.174 -0.012,0.261 0.006,1.331 1.09,2.412 2.422,2.412 m -4.384,1.314 c 0.119,-0.405 0.229,-0.762 0.321,-1.061 l 0.018,-0.058 c 0.358,-1.167 0.791,-3.692 0.224,-4.524 -0.099,-0.145 -0.216,-0.212 -0.39,-0.226 -0.14,-0.01 -0.245,0.034 -0.352,0.148 -0.514,0.541 -0.629,2.126 -0.545,2.788 0.139,1.088 0.381,2.068 0.724,2.933 m 7.609,5.262 c -2.075,1.436 -3.411,4.074 -3.536,6.775 1.204,-0.39 2.148,-1.455 2.935,-2.507 0.244,-0.326 0.486,-0.656 0.73,-0.988 1.095,-1.495 2.226,-3.038 3.624,-4.326 -1.292,-0.108 -2.61,0.256 -3.753,1.046 m 10.308,-1.723 c -0.197,-0.371 -0.48,-0.579 -0.889,-0.653 -0.882,-0.159 -2.108,0.322 -3.136,0.908 0.098,0.044 0.196,0.088 0.293,0.133 1.05,0.475 2.042,0.925 3.046,0.675 0.362,-0.091 0.649,-0.286 0.749,-0.511 0.07,-0.159 0.05,-0.34 -0.063,-0.552"
       style="fill:#ffffff;fill-opacity:1;fill-rule:nonzero;stroke:none"
       transform="matrix(0.35277776,0,0,-0.35277776,-501.82386,-472.89639)"
       clip-path="url(#clipPath180)" />
  </g>
</svg>
