<?xml version="1.0" encoding="UTF-8" standalone="no"?>
<!-- Created with Inkscape (http://www.inkscape.org/) -->

<svg
   width="20.606619mm"
   height="21.548986mm"
   viewBox="0 0 20.606618 21.548985"
   version="1.1"
   id="svg1"
   inkscape:version="1.4 (e7c3feb1, 2024-10-09)"
   sodipodi:docname="FEN.svg"
   xmlns:inkscape="http://www.inkscape.org/namespaces/inkscape"
   xmlns:sodipodi="http://sodipodi.sourceforge.net/DTD/sodipodi-0.dtd"
   xmlns="http://www.w3.org/2000/svg"
   xmlns:svg="http://www.w3.org/2000/svg">
  <sodipodi:namedview
     id="namedview1"
     pagecolor="#ffffff"
     bordercolor="#000000"
     borderopacity="0.25"
     inkscape:showpageshadow="2"
     inkscape:pageopacity="0.0"
     inkscape:pagecheckerboard="0"
     inkscape:deskcolor="#d1d1d1"
     inkscape:document-units="mm"
     inkscape:zoom="2.096401"
     inkscape:cx="-37.445127"
     inkscape:cy="4.5315758"
     inkscape:window-width="1440"
     inkscape:window-height="872"
     inkscape:window-x="0"
     inkscape:window-y="28"
     inkscape:window-maximized="0"
     inkscape:current-layer="layer1" />
  <defs
     id="defs1">
    <clipPath
       clipPathUnits="userSpaceOnUse"
       id="clipPath46">
      <path
         d="M 0,0 H 960.009 V 540 H 0 Z"
         transform="translate(-335.30581,-447.22351)"
         id="path46" />
    </clipPath>
    <clipPath
       clipPathUnits="userSpaceOnUse"
       id="clipPath48">
      <path
         d="M 0,0 H 960.009 V 540 H 0 Z"
         transform="translate(-366.36111,-395.97531)"
         id="path48" />
    </clipPath>
    <clipPath
       clipPathUnits="userSpaceOnUse"
       id="clipPath46-4">
      <path
         d="M 0,0 H 960.009 V 540 H 0 Z"
         transform="translate(-335.30581,-447.22351)"
         id="path46-1" />
    </clipPath>
    <clipPath
       clipPathUnits="userSpaceOnUse"
       id="clipPath48-8">
      <path
         d="M 0,0 H 960.009 V 540 H 0 Z"
         transform="translate(-366.36111,-395.97531)"
         id="path48-8" />
    </clipPath>
    <clipPath
       clipPathUnits="userSpaceOnUse"
       id="clipPath10">
      <path
         d="M 0,0 H 960.009 V 540 H 0 Z"
         transform="translate(-452.25271,-448.21871)"
         id="path10" />
    </clipPath>
    <clipPath
       clipPathUnits="userSpaceOnUse"
       id="clipPath12">
      <path
         d="M 0,0 H 960.009 V 540 H 0 Z"
         transform="translate(-445.51041,-428.84291)"
         id="path12" />
    </clipPath>
    <clipPath
       clipPathUnits="userSpaceOnUse"
       id="clipPath14">
      <path
         d="M 0,0 H 960.009 V 540 H 0 Z"
         transform="translate(-490.38481,-447.77471)"
         id="path14" />
    </clipPath>
    <clipPath
       clipPathUnits="userSpaceOnUse"
       id="clipPath16">
      <path
         d="M 0,0 H 960.009 V 540 H 0 Z"
         transform="translate(-520.07251,-407.43611)"
         id="path16" />
    </clipPath>
    <clipPath
       clipPathUnits="userSpaceOnUse"
       id="clipPath18">
      <path
         d="M 0,0 H 960.009 V 540 H 0 Z"
         transform="translate(-475.72791,-420.29251)"
         id="path18" />
    </clipPath>
    <clipPath
       clipPathUnits="userSpaceOnUse"
       id="clipPath20">
      <path
         d="M 0,0 H 960.009 V 540 H 0 Z"
         transform="translate(-532.40951,-415.32891)"
         id="path20" />
    </clipPath>
    <clipPath
       clipPathUnits="userSpaceOnUse"
       id="clipPath22">
      <path
         d="M 0,0 H 960.009 V 540 H 0 Z"
         transform="translate(-585.24491,-404.67841)"
         id="path22" />
    </clipPath>
    <clipPath
       clipPathUnits="userSpaceOnUse"
       id="clipPath24">
      <path
         d="M 0,0 H 960.009 V 540 H 0 Z"
         transform="translate(-546.73501,-439.46011)"
         id="path24" />
    </clipPath>
    <clipPath
       clipPathUnits="userSpaceOnUse"
       id="clipPath26">
      <path
         d="M 0,0 H 960.009 V 540 H 0 Z"
         transform="translate(-597.25132,-396.91631)"
         id="path26" />
    </clipPath>
    <clipPath
       clipPathUnits="userSpaceOnUse"
       id="clipPath28">
      <path
         d="M 0,0 H 960.009 V 540 H 0 Z"
         transform="translate(-644.79592,-427.55181)"
         id="path28" />
    </clipPath>
    <clipPath
       clipPathUnits="userSpaceOnUse"
       id="clipPath30">
      <path
         d="M 0,0 H 960.009 V 540 H 0 Z"
         transform="translate(-722.31742,-442.86561)"
         id="path30" />
    </clipPath>
    <clipPath
       clipPathUnits="userSpaceOnUse"
       id="clipPath32">
      <path
         d="M 0,0 H 960.009 V 540 H 0 Z"
         transform="translate(-713.80762,-411.31901)"
         id="path32" />
    </clipPath>
    <clipPath
       clipPathUnits="userSpaceOnUse"
       id="clipPath34">
      <path
         d="M 0,0 H 960.009 V 540 H 0 Z"
         transform="translate(-711.27122,-406.75661)"
         id="path34" />
    </clipPath>
    <clipPath
       clipPathUnits="userSpaceOnUse"
       id="clipPath36">
      <path
         d="M 0,0 H 960.009 V 540 H 0 Z"
         transform="translate(-788.58924,-392.63841)"
         id="path36" />
    </clipPath>
    <clipPath
       clipPathUnits="userSpaceOnUse"
       id="clipPath38">
      <path
         d="M 0,0 H 960.009 V 540 H 0 Z"
         transform="translate(-775.73004,-429.83291)"
         id="path38" />
    </clipPath>
    <clipPath
       clipPathUnits="userSpaceOnUse"
       id="clipPath40">
      <path
         d="M 0,0 H 960.009 V 540 H 0 Z"
         transform="translate(-854.0284,-447.94411)"
         id="path40" />
    </clipPath>
    <clipPath
       clipPathUnits="userSpaceOnUse"
       id="clipPath42">
      <path
         d="M 0,0 H 960.009 V 540 H 0 Z"
         transform="translate(-841.42262,-414.05971)"
         id="path42" />
    </clipPath>
    <clipPath
       clipPathUnits="userSpaceOnUse"
       id="clipPath44">
      <path
         d="M 0,0 H 960.009 V 540 H 0 Z"
         transform="translate(-828.18625,-402.03771)"
         id="path44" />
    </clipPath>
    <clipPath
       clipPathUnits="userSpaceOnUse"
       id="clipPath186">
      <path
         d="M 0,0 H 960.009 V 540 H 0 Z"
         transform="translate(-796.23144,-323.72221)"
         id="path186" />
    </clipPath>
    <clipPath
       clipPathUnits="userSpaceOnUse"
       id="clipPath188">
      <path
         d="M 0,0 H 960.009 V 540 H 0 Z"
         transform="translate(-837.6514,-370.80791)"
         id="path188" />
    </clipPath>
    <clipPath
       clipPathUnits="userSpaceOnUse"
       id="clipPath182">
      <path
         d="M 0,0 H 960.009 V 540 H 0 Z"
         transform="translate(-736.95462,-375.25501)"
         id="path182" />
    </clipPath>
    <clipPath
       clipPathUnits="userSpaceOnUse"
       id="clipPath184">
      <path
         d="M 0,0 H 960.009 V 540 H 0 Z"
         transform="translate(-768.50649,-358.25011)"
         id="path184" />
    </clipPath>
    <clipPath
       clipPathUnits="userSpaceOnUse"
       id="clipPath178">
      <path
         d="M 0,0 H 960.009 V 540 H 0 Z"
         transform="translate(-720.27222,-375.61331)"
         id="path178" />
    </clipPath>
    <clipPath
       clipPathUnits="userSpaceOnUse"
       id="clipPath180">
      <path
         d="M 0,0 H 960.009 V 540 H 0 Z"
         transform="translate(-708.29912,-339.89981)"
         id="path180" />
    </clipPath>
    <clipPath
       clipPathUnits="userSpaceOnUse"
       id="clipPath174">
      <path
         d="M 0,0 H 960.009 V 540 H 0 Z"
         transform="translate(-632.38852,-318.07351)"
         id="path174" />
    </clipPath>
    <clipPath
       clipPathUnits="userSpaceOnUse"
       id="clipPath176">
      <path
         d="M 0,0 H 960.009 V 540 H 0 Z"
         transform="translate(-651.53441,-331.09111)"
         id="path176" />
    </clipPath>
  </defs>
  <g
     inkscape:label="Layer 1"
     inkscape:groupmode="layer"
     id="layer1"
     transform="translate(528.90218,434.44583)">
    <path
       id="path173"
       d="m 0,0 c -3.595,-0.189 -7.177,-0.699 -10.777,-0.633 -5.171,0.094 -10.235,0.052 -15.245,1.321 -2.248,0.569 -4.679,1.255 -6.045,3.097 -1.261,1.698 -1.297,3.957 -1.282,6.056 0.102,14.777 0.203,30.872 0.305,45.649 0.005,0.665 0.015,1.355 0.305,1.956 0.315,0.652 0.925,1.121 1.558,1.489 3.515,2.042 7.922,1.589 11.979,1.07 5.746,-0.734 11.493,-1.469 17.24,-2.203 3.028,-0.388 6.07,-0.775 9.122,-0.7 3.894,0.097 7.744,0.948 11.64,0.948 1.717,0 3.596,-0.239 4.783,-1.457 1.086,-1.114 1.319,-2.766 1.407,-4.303 C 25.254,47.698 24.715,43.103 24.529,38.507 24.028,26.11 26.092,13.571 23.96,1.345 23.878,0.874 23.902,0.301 23.549,-0.025 22.803,-0.713 15.802,-0.263 11.028,0.13 Z"
       style="fill:#9d5f80;fill-opacity:1;fill-rule:nonzero;stroke:none"
       transform="matrix(0.35277776,0,0,-0.35277776,-517.13668,-413.12222)"
       clip-path="url(#clipPath174)" />
    <path
       id="path175"
       d="m 0,0 c -0.665,1.387 -1.769,2.456 -2.725,3.255 -0.014,0.17 -0.033,0.341 -0.059,0.513 -0.572,3.791 -2.456,6.685 -5.167,7.938 -0.796,0.368 -1.626,0.616 -2.47,0.797 -0.443,1.469 -1.582,2.554 -3.48,3.314 -1.19,0.477 -2.442,0.77 -3.653,1.053 -0.469,0.11 -0.951,0.223 -1.42,0.344 0.357,0.658 0.88,1.236 1.596,1.756 1.528,-1.044 3.762,-1.495 5.529,-0.16 0.857,0.647 1.299,1.627 1.689,2.492 0.107,0.237 0.208,0.461 0.316,0.676 0.013,0.026 0.025,0.052 0.038,0.078 0.831,0.346 1.641,0.754 2.398,1.275 0.776,0.535 2.557,1.955 2.341,3.604 -0.082,0.625 -0.454,1.109 -1.019,1.329 -0.642,0.249 -1.44,0.107 -1.988,-0.353 -1.102,-0.927 -1.617,-2.355 -2.115,-3.736 -0.156,-0.432 -0.305,-0.847 -0.467,-1.229 -0.755,-0.294 -1.531,-0.546 -2.294,-0.794 -0.658,-0.213 -1.338,-0.434 -1.997,-0.679 -0.728,-0.27 -1.561,-0.619 -2.362,-1.097 -1.337,1.236 -1.948,2.93 -2.032,5.588 l -10e-4,0.03 c -0.046,1.457 -0.109,3.453 -1.672,4.498 -0.922,0.617 -2.08,0.825 -3.175,0.573 -1.025,-0.236 -1.869,-0.847 -2.379,-1.721 -0.837,-1.436 -0.808,-3.494 0.079,-5.507 0.285,-0.647 0.953,-2.161 2.223,-2.413 1.353,-0.268 2.069,0.94 2.543,1.74 0.049,0.083 0.097,0.163 0.144,0.239 0.165,0.269 0.081,0.621 -0.188,0.786 -0.269,0.165 -0.62,0.081 -0.786,-0.188 -0.049,-0.081 -0.1,-0.167 -0.152,-0.255 -0.456,-0.769 -0.818,-1.305 -1.339,-1.202 -0.687,0.137 -1.205,1.311 -1.399,1.754 -0.572,1.296 -0.908,3.151 -0.138,4.47 0.349,0.599 0.934,1.019 1.648,1.184 0.79,0.183 1.623,0.033 2.284,-0.409 1.075,-0.719 1.123,-2.242 1.165,-3.585 l 0.001,-0.03 c 0.062,-1.949 0.379,-4.372 2.211,-6.209 -0.734,-0.577 -1.385,-1.295 -1.827,-2.201 -1.398,0.387 -2.843,0.824 -4.309,1.303 -1.589,0.518 -3.251,1.1 -5.081,1.778 0.73,0.543 0.788,1.499 0.437,2.2 -0.377,0.754 -1.269,1.266 -2.241,0.785 -0.877,-0.434 -1.113,-1.421 -0.881,-2.268 -0.102,0.002 -0.2,-10e-4 -0.296,-0.005 -0.956,-0.043 -1.912,-0.086 -2.868,-0.126 -3.169,-0.136 -6.65,-0.273 -10.953,-0.429 -0.315,-0.011 -0.562,-0.276 -0.55,-0.591 0.012,-0.315 0.271,-0.564 0.591,-0.55 4.306,0.156 7.789,0.292 10.961,0.428 0.957,0.042 1.914,0.084 2.871,0.127 0.173,0.008 0.383,0.003 0.606,-0.002 0.148,-0.004 0.301,-0.007 0.455,-0.008 0.366,-0.251 0.79,-0.396 1.162,-0.523 0.101,-0.035 0.2,-0.069 0.294,-0.104 1.85,-0.685 3.531,-1.273 5.139,-1.798 1.451,-0.474 2.883,-0.907 4.269,-1.293 -0.202,-0.834 -0.114,-1.577 0.263,-2.212 0.578,-0.977 1.796,-1.633 3.723,-2.007 0.922,-0.179 1.877,-0.287 2.801,-0.392 0.766,-0.087 1.543,-0.175 2.308,-0.305 0.033,-0.668 -0.213,-1.294 -0.738,-1.869 -1.229,0.685 -3.441,1.594 -5.153,0.515 -0.588,-0.371 -0.986,-0.961 -1.121,-1.663 -0.149,-0.776 0.035,-1.59 0.503,-2.234 0.825,-1.132 2.199,-1.601 3.388,-1.895 0.134,-0.437 0.305,-0.823 0.455,-1.117 0.731,-1.44 2.011,-2.457 3.421,-2.721 1.083,-0.202 1.963,0.086 2.415,0.791 0.583,0.908 0.192,2.035 -0.473,2.635 -0.637,0.575 -1.452,0.722 -2.17,0.852 l -0.636,0.114 c -0.679,0.121 -1.382,0.245 -2.06,0.397 -0.072,0.476 -0.051,0.979 0.171,1.416 0.259,0.511 0.725,0.906 1.219,1.324 0.066,0.056 0.133,0.112 0.199,0.169 0.818,-0.497 1.626,-1.041 2.412,-1.571 C -9.088,6.348 -8.594,6.016 -8.104,5.698 -6.475,4.64 -5.12,3.719 -3.841,2.692 -3.83,2.15 -3.87,1.598 -3.91,1.026 -3.971,0.172 -4.034,-0.71 -3.924,-1.604 c 0.097,-0.794 0.577,-2.457 1.697,-3.075 0.28,-0.155 0.578,-0.232 0.885,-0.232 0.293,0 0.595,0.071 0.896,0.213 0.44,0.207 0.763,0.573 0.936,1.059 C 0.912,-2.453 0.38,-0.794 0,0 m -9.114,23.788 c 0.447,1.239 0.909,2.519 1.776,3.249 0.159,0.134 0.376,0.207 0.58,0.207 0.091,0 0.18,-0.014 0.259,-0.045 0.174,-0.067 0.272,-0.202 0.299,-0.412 0.11,-0.837 -0.931,-1.878 -1.856,-2.515 -0.359,-0.247 -0.736,-0.468 -1.125,-0.669 0.022,0.062 0.045,0.123 0.067,0.185 m -5.435,-3.386 c 0.636,0.237 1.305,0.454 1.952,0.664 0.42,0.136 0.843,0.274 1.266,0.419 -0.322,-0.703 -0.656,-1.348 -1.207,-1.764 -1.153,-0.871 -2.609,-0.69 -3.748,-0.081 0.511,0.269 1.088,0.522 1.737,0.762 m -15.719,1.054 c -0.166,-0.085 -0.405,-0.124 -0.667,-0.141 -0.025,0.034 -0.047,0.07 -0.065,0.109 -0.165,0.346 -0.208,0.927 0.214,1.136 0.097,0.048 0.183,0.068 0.259,0.068 0.24,0 0.382,-0.198 0.454,-0.34 0.101,-0.203 0.191,-0.637 -0.195,-0.832 m 16.69,-8.49 c -0.901,0.102 -1.834,0.208 -2.711,0.378 -1.567,0.304 -2.562,0.798 -2.959,1.468 -0.217,0.367 -0.265,0.804 -0.143,1.331 0.524,-0.139 1.059,-0.264 1.576,-0.385 1.17,-0.274 2.38,-0.557 3.489,-1.001 1.279,-0.513 2.129,-1.177 2.578,-2.019 -0.611,0.09 -1.224,0.159 -1.83,0.228 m 1.871,-9.156 0.633,-0.114 c 0.596,-0.107 1.212,-0.219 1.608,-0.576 0.313,-0.283 0.508,-0.81 0.277,-1.17 -0.275,-0.429 -1.022,-0.326 -1.244,-0.285 -1.064,0.199 -2.041,0.99 -2.613,2.115 -0.043,0.084 -0.092,0.186 -0.144,0.304 0.498,-0.1 0.996,-0.188 1.483,-0.274 m -2.708,3.454 c -0.269,-0.532 -0.353,-1.096 -0.329,-1.641 -0.863,0.253 -1.737,0.635 -2.24,1.325 -0.279,0.383 -0.392,0.886 -0.304,1.346 0.052,0.274 0.2,0.655 0.607,0.911 0.371,0.234 0.793,0.327 1.229,0.327 0.844,0 1.74,-0.348 2.418,-0.691 -0.521,-0.442 -1.043,-0.911 -1.381,-1.577 m 6.933,-0.608 c -0.482,0.313 -0.972,0.642 -1.446,0.961 -0.72,0.485 -1.457,0.981 -2.211,1.448 0.554,0.675 0.853,1.436 0.882,2.228 0.631,-0.155 1.245,-0.355 1.827,-0.624 2.934,-1.356 4.008,-4.531 4.393,-6.379 -1.048,0.785 -2.165,1.535 -3.445,2.366 m 6.896,-9.912 c -0.072,-0.201 -0.182,-0.331 -0.347,-0.409 -0.371,-0.175 -0.602,-0.092 -0.743,-0.014 -0.566,0.312 -1.011,1.371 -1.115,2.214 -0.096,0.784 -0.04,1.574 0.02,2.41 0.018,0.257 0.037,0.516 0.051,0.778 0.645,-0.616 1.277,-1.354 1.69,-2.217 0.34,-0.709 0.702,-2.035 0.444,-2.762"
       style="fill:#ffffff;fill-opacity:1;fill-rule:nonzero;stroke:none"
       transform="matrix(0.35277776,0,0,-0.35277776,-510.38244,-417.71454)"
       clip-path="url(#clipPath176)" />
  </g>
</svg>
