<?xml version="1.0" encoding="UTF-8" standalone="no"?>
<!-- Created with Inkscape (http://www.inkscape.org/) -->

<svg
   width="20.764133mm"
   height="20.345655mm"
   viewBox="0 0 20.764133 20.345654"
   version="1.1"
   id="svg1"
   inkscape:version="1.4 (e7c3feb1, 2024-10-09)"
   sodipodi:docname="GLF.svg"
   xmlns:inkscape="http://www.inkscape.org/namespaces/inkscape"
   xmlns:sodipodi="http://sodipodi.sourceforge.net/DTD/sodipodi-0.dtd"
   xmlns="http://www.w3.org/2000/svg"
   xmlns:svg="http://www.w3.org/2000/svg">
  <sodipodi:namedview
     id="namedview1"
     pagecolor="#ffffff"
     bordercolor="#000000"
     borderopacity="0.25"
     inkscape:showpageshadow="2"
     inkscape:pageopacity="0.0"
     inkscape:pagecheckerboard="0"
     inkscape:deskcolor="#d1d1d1"
     inkscape:document-units="mm"
     inkscape:zoom="2.096401"
     inkscape:cx="38.876151"
     inkscape:cy="38.876151"
     inkscape:window-width="1440"
     inkscape:window-height="872"
     inkscape:window-x="0"
     inkscape:window-y="28"
     inkscape:window-maximized="0"
     inkscape:current-layer="layer1" />
  <defs
     id="defs1">
    <clipPath
       clipPathUnits="userSpaceOnUse"
       id="clipPath46">
      <path
         d="M 0,0 H 960.009 V 540 H 0 Z"
         transform="translate(-335.30581,-447.22351)"
         id="path46" />
    </clipPath>
    <clipPath
       clipPathUnits="userSpaceOnUse"
       id="clipPath48">
      <path
         d="M 0,0 H 960.009 V 540 H 0 Z"
         transform="translate(-366.36111,-395.97531)"
         id="path48" />
    </clipPath>
    <clipPath
       clipPathUnits="userSpaceOnUse"
       id="clipPath46-4">
      <path
         d="M 0,0 H 960.009 V 540 H 0 Z"
         transform="translate(-335.30581,-447.22351)"
         id="path46-1" />
    </clipPath>
    <clipPath
       clipPathUnits="userSpaceOnUse"
       id="clipPath48-8">
      <path
         d="M 0,0 H 960.009 V 540 H 0 Z"
         transform="translate(-366.36111,-395.97531)"
         id="path48-8" />
    </clipPath>
    <clipPath
       clipPathUnits="userSpaceOnUse"
       id="clipPath10">
      <path
         d="M 0,0 H 960.009 V 540 H 0 Z"
         transform="translate(-452.25271,-448.21871)"
         id="path10" />
    </clipPath>
    <clipPath
       clipPathUnits="userSpaceOnUse"
       id="clipPath12">
      <path
         d="M 0,0 H 960.009 V 540 H 0 Z"
         transform="translate(-445.51041,-428.84291)"
         id="path12" />
    </clipPath>
    <clipPath
       clipPathUnits="userSpaceOnUse"
       id="clipPath14">
      <path
         d="M 0,0 H 960.009 V 540 H 0 Z"
         transform="translate(-490.38481,-447.77471)"
         id="path14" />
    </clipPath>
    <clipPath
       clipPathUnits="userSpaceOnUse"
       id="clipPath16">
      <path
         d="M 0,0 H 960.009 V 540 H 0 Z"
         transform="translate(-520.07251,-407.43611)"
         id="path16" />
    </clipPath>
    <clipPath
       clipPathUnits="userSpaceOnUse"
       id="clipPath18">
      <path
         d="M 0,0 H 960.009 V 540 H 0 Z"
         transform="translate(-475.72791,-420.29251)"
         id="path18" />
    </clipPath>
    <clipPath
       clipPathUnits="userSpaceOnUse"
       id="clipPath20">
      <path
         d="M 0,0 H 960.009 V 540 H 0 Z"
         transform="translate(-532.40951,-415.32891)"
         id="path20" />
    </clipPath>
    <clipPath
       clipPathUnits="userSpaceOnUse"
       id="clipPath22">
      <path
         d="M 0,0 H 960.009 V 540 H 0 Z"
         transform="translate(-585.24491,-404.67841)"
         id="path22" />
    </clipPath>
    <clipPath
       clipPathUnits="userSpaceOnUse"
       id="clipPath24">
      <path
         d="M 0,0 H 960.009 V 540 H 0 Z"
         transform="translate(-546.73501,-439.46011)"
         id="path24" />
    </clipPath>
    <clipPath
       clipPathUnits="userSpaceOnUse"
       id="clipPath26">
      <path
         d="M 0,0 H 960.009 V 540 H 0 Z"
         transform="translate(-597.25132,-396.91631)"
         id="path26" />
    </clipPath>
    <clipPath
       clipPathUnits="userSpaceOnUse"
       id="clipPath28">
      <path
         d="M 0,0 H 960.009 V 540 H 0 Z"
         transform="translate(-644.79592,-427.55181)"
         id="path28" />
    </clipPath>
    <clipPath
       clipPathUnits="userSpaceOnUse"
       id="clipPath30">
      <path
         d="M 0,0 H 960.009 V 540 H 0 Z"
         transform="translate(-722.31742,-442.86561)"
         id="path30" />
    </clipPath>
    <clipPath
       clipPathUnits="userSpaceOnUse"
       id="clipPath32">
      <path
         d="M 0,0 H 960.009 V 540 H 0 Z"
         transform="translate(-713.80762,-411.31901)"
         id="path32" />
    </clipPath>
    <clipPath
       clipPathUnits="userSpaceOnUse"
       id="clipPath34">
      <path
         d="M 0,0 H 960.009 V 540 H 0 Z"
         transform="translate(-711.27122,-406.75661)"
         id="path34" />
    </clipPath>
    <clipPath
       clipPathUnits="userSpaceOnUse"
       id="clipPath36">
      <path
         d="M 0,0 H 960.009 V 540 H 0 Z"
         transform="translate(-788.58924,-392.63841)"
         id="path36" />
    </clipPath>
    <clipPath
       clipPathUnits="userSpaceOnUse"
       id="clipPath38">
      <path
         d="M 0,0 H 960.009 V 540 H 0 Z"
         transform="translate(-775.73004,-429.83291)"
         id="path38" />
    </clipPath>
    <clipPath
       clipPathUnits="userSpaceOnUse"
       id="clipPath40">
      <path
         d="M 0,0 H 960.009 V 540 H 0 Z"
         transform="translate(-854.0284,-447.94411)"
         id="path40" />
    </clipPath>
    <clipPath
       clipPathUnits="userSpaceOnUse"
       id="clipPath42">
      <path
         d="M 0,0 H 960.009 V 540 H 0 Z"
         transform="translate(-841.42262,-414.05971)"
         id="path42" />
    </clipPath>
    <clipPath
       clipPathUnits="userSpaceOnUse"
       id="clipPath44">
      <path
         d="M 0,0 H 960.009 V 540 H 0 Z"
         transform="translate(-828.18625,-402.03771)"
         id="path44" />
    </clipPath>
    <clipPath
       clipPathUnits="userSpaceOnUse"
       id="clipPath186">
      <path
         d="M 0,0 H 960.009 V 540 H 0 Z"
         transform="translate(-796.23144,-323.72221)"
         id="path186" />
    </clipPath>
    <clipPath
       clipPathUnits="userSpaceOnUse"
       id="clipPath188">
      <path
         d="M 0,0 H 960.009 V 540 H 0 Z"
         transform="translate(-837.6514,-370.80791)"
         id="path188" />
    </clipPath>
    <clipPath
       clipPathUnits="userSpaceOnUse"
       id="clipPath182">
      <path
         d="M 0,0 H 960.009 V 540 H 0 Z"
         transform="translate(-736.95462,-375.25501)"
         id="path182" />
    </clipPath>
    <clipPath
       clipPathUnits="userSpaceOnUse"
       id="clipPath184">
      <path
         d="M 0,0 H 960.009 V 540 H 0 Z"
         transform="translate(-768.50649,-358.25011)"
         id="path184" />
    </clipPath>
  </defs>
  <g
     inkscape:label="Layer 1"
     inkscape:groupmode="layer"
     id="layer1"
     transform="translate(549.01051,443.44167)">
    <path
       id="path181"
       d="M 0,0 C -1.846,0.277 -4.201,0.331 -5.056,-1.227 -5.278,-1.631 -5.353,-2.09 -5.42,-2.54 c -1.725,-11.674 0.72,-23.524 0.618,-35.313 -0.038,-4.37 -0.427,-8.749 -0.019,-13.104 0.136,-1.457 0.42,-3.02 1.531,-4.046 1.216,-1.123 3.087,-1.295 4.789,-1.245 3.862,0.113 7.651,1.032 11.509,1.237 3.023,0.16 6.051,-0.12 9.065,-0.4 5.721,-0.531 11.442,-1.062 17.162,-1.593 4.038,-0.375 8.421,-0.678 11.841,1.363 0.616,0.368 1.206,0.831 1.498,1.46 0.268,0.579 0.256,1.234 0.24,1.866 -0.369,14.038 -0.781,29.328 -1.149,43.366 -0.052,1.993 -0.16,4.138 -1.464,5.715 -1.413,1.709 -3.845,2.291 -6.091,2.766 C 39.103,0.592 34.084,0.406 28.955,0.345 25.383,0.303 21.849,-0.285 18.291,-0.569 11.148,-1.138 3.963,-0.478 -3.174,0.181"
       style="fill:#55bf9b;fill-opacity:1;fill-rule:nonzero;stroke:none"
       transform="matrix(0.35277776,0,0,-0.35277776,-546.88047,-443.3016)"
       clip-path="url(#clipPath182)" />
    <path
       id="path183"
       d="m 0,0 c -0.595,0.203 -1.453,0.041 -2.078,-1.025 -1.315,-2.241 -1.855,-4.781 -2.066,-7.15 -1.12,-0.641 -2.294,-0.618 -3.727,0.093 0.555,0.587 1.048,1.241 1.467,1.949 0.484,0.816 0.873,1.707 1.156,2.648 0.078,0.257 0.158,0.507 0.237,0.754 0.259,0.814 0.504,1.583 0.64,2.465 0.028,0.182 0.058,0.349 0.089,0.503 0.063,-0.036 0.127,-0.072 0.192,-0.108 1.069,-0.59 1.872,-0.569 2.388,0.062 0.328,0.403 0.443,0.95 0.315,1.503 -0.135,0.58 -0.513,1.062 -1.011,1.29 -0.731,0.335 -1.279,0.192 -1.611,0.013 -0.399,-0.215 -0.692,-0.584 -0.91,-1.019 -0.592,0.384 -1.153,0.766 -1.637,1.098 -0.686,0.471 -1.432,0.993 -2.346,1.643 -0.828,0.588 -1.653,1.18 -2.477,1.773 l -2.387,1.722 c -0.691,0.499 -1.384,0.996 -2.08,1.488 -0.546,0.387 -1.041,0.735 -1.56,1.076 -0.049,0.033 -0.1,0.068 -0.152,0.105 -0.228,0.159 -0.487,0.34 -0.797,0.43 -0.509,0.148 -1.076,0.08 -1.556,-0.186 -0.466,-0.258 -0.798,-0.671 -0.938,-1.164 -0.319,-1.133 0.357,-2.12 1.155,-2.473 0.81,-0.359 1.649,-0.086 2.136,0.695 0.167,0.268 0.085,0.62 -0.182,0.787 -0.268,0.167 -0.62,0.085 -0.787,-0.182 -0.184,-0.295 -0.422,-0.381 -0.705,-0.256 -0.364,0.161 -0.657,0.624 -0.517,1.119 0.055,0.197 0.195,0.366 0.392,0.475 0.212,0.118 0.467,0.151 0.683,0.088 0.129,-0.037 0.306,-0.161 0.463,-0.27 0.06,-0.042 0.119,-0.083 0.177,-0.122 0.504,-0.332 0.991,-0.674 1.529,-1.054 0.693,-0.49 1.382,-0.986 2.071,-1.482 l 2.387,-1.722 c 0.826,-0.595 1.653,-1.189 2.483,-1.779 0.92,-0.653 1.67,-1.178 2.362,-1.652 C -6.65,1.756 -5.999,1.313 -5.311,0.872 -5.394,0.538 -5.454,0.207 -5.5,-0.092 -5.622,-0.886 -5.854,-1.614 -6.1,-2.384 -6.18,-2.637 -6.262,-2.893 -6.341,-3.156 -6.598,-4.008 -6.95,-4.814 -7.386,-5.551 c -0.423,-0.715 -0.93,-1.366 -1.505,-1.941 -0.92,0.587 -1.729,1.189 -2.467,1.834 -0.646,0.564 -1.225,1.168 -1.724,1.796 -1.31,1.65 -1.72,3.021 -1.217,4.076 0.298,0.625 0.854,1.108 1.527,1.323 0.605,0.195 1.229,0.141 1.755,-0.15 1.171,-0.649 1.75,-2.204 1.902,-3.443 0.051,-0.419 0.188,-1.533 -0.253,-1.93 -0.294,-0.264 -0.719,-0.108 -1.503,0.32 -0.081,0.044 -0.159,0.086 -0.234,0.126 -0.28,0.146 -0.625,0.039 -0.771,-0.241 -0.147,-0.279 -0.04,-0.624 0.24,-0.771 0.07,-0.036 0.143,-0.076 0.218,-0.117 0.698,-0.381 1.867,-1.019 2.814,-0.165 0.882,0.795 0.7,2.282 0.623,2.917 -0.241,1.967 -1.169,3.576 -2.483,4.303 -0.804,0.446 -1.748,0.531 -2.657,0.239 -0.971,-0.311 -1.777,-1.011 -2.21,-1.92 -0.705,-1.482 -0.249,-3.257 1.355,-5.278 0.541,-0.681 1.169,-1.335 1.867,-1.945 0.706,-0.618 1.472,-1.196 2.328,-1.759 -0.29,-0.225 -0.594,-0.433 -0.908,-0.622 -0.723,0.457 -1.531,0.79 -2.406,0.982 -0.02,0.004 -1.996,0.41 -2.959,-0.353 -0.313,-0.248 -0.481,-0.586 -0.486,-0.979 -0.007,-0.519 0.216,-0.964 0.645,-1.285 0.967,-0.723 2.726,-0.619 3.411,-0.407 0.599,0.186 1.179,0.421 1.729,0.7 1.019,-0.806 1.785,-1.944 2.238,-3.354 0.287,-0.895 0.438,-1.795 0.483,-2.697 -0.502,0.277 -1.098,0.375 -1.632,0.249 -0.586,-0.137 -1.025,-0.523 -1.237,-1.086 -0.668,-1.774 0.386,-4.129 1.155,-5.849 0.107,-0.238 0.208,-0.463 0.296,-0.669 0.013,-0.031 0.026,-0.062 0.04,-0.093 -0.219,-0.652 -0.449,-1.301 -0.677,-1.947 -0.261,-0.735 -0.53,-1.496 -0.772,-2.234 -0.053,-0.16 -0.112,-0.33 -0.174,-0.507 -0.475,-1.364 -1.126,-3.232 -0.169,-4.631 0.379,-0.554 0.937,-0.823 1.574,-0.753 1.006,0.108 1.952,1.023 2.285,1.846 1.136,2.803 0.257,5.614 -0.848,8.273 0.509,1.55 0.949,3.117 1.169,4.699 1.1,-1.558 1.79,-3.362 2.29,-4.876 0.025,-0.075 0.05,-0.151 0.074,-0.226 -0.179,-1.041 -0.406,-2.076 -0.627,-3.09 -0.218,-0.997 -0.444,-2.028 -0.624,-3.055 -0.022,-0.126 -0.051,-0.27 -0.083,-0.428 -0.211,-1.05 -0.53,-2.635 0.128,-3.62 0.273,-0.408 0.672,-0.666 1.187,-0.767 0.122,-0.023 0.242,-0.035 0.359,-0.035 0.361,0 0.7,0.111 0.997,0.328 0.861,0.631 1.067,1.909 1.11,2.286 0.322,2.852 -0.432,5.85 -1.274,8.466 0.102,0.62 0.187,1.244 0.245,1.872 0.241,2.61 0.195,5.256 0.151,7.816 -0.016,0.942 -0.033,1.916 -0.035,2.871 -0.002,0.82 0.014,1.704 0.077,2.619 2.101,1.456 3.893,4.213 4.194,6.545 C 1.283,-1.218 0.812,-0.278 0,0 M -3.467,1.992 C -3.37,2.044 -3.203,2.096 -2.873,1.945 -2.7,1.866 -2.553,1.666 -2.499,1.435 -2.477,1.338 -2.44,1.094 -2.587,0.914 -2.63,0.861 -2.762,0.7 -3.538,1.129 c -0.137,0.075 -0.273,0.155 -0.407,0.236 0.178,0.398 0.356,0.561 0.478,0.627 M -12.823,-9.85 c -0.516,-0.16 -1.848,-0.173 -2.388,0.231 -0.135,0.101 -0.189,0.203 -0.187,0.354 0,0.04 0.006,0.062 0.054,0.1 0.196,0.156 0.645,0.218 1.099,0.218 0.331,0 0.664,-0.033 0.906,-0.086 0.505,-0.111 0.982,-0.274 1.426,-0.486 -0.296,-0.125 -0.6,-0.235 -0.91,-0.331 m 4.42,-21.687 c -0.195,-0.481 -0.827,-1.083 -1.349,-1.14 -0.215,-0.023 -0.367,0.056 -0.509,0.262 -0.631,0.924 -0.112,2.414 0.305,3.612 0.064,0.183 0.125,0.359 0.18,0.525 0.238,0.726 0.493,1.447 0.763,2.21 0.084,0.236 0.167,0.472 0.25,0.709 0.771,-2.096 1.18,-4.154 0.36,-6.178 m -0.488,9.443 c -0.631,1.43 -1.399,3.351 -0.943,4.562 0.076,0.204 0.217,0.328 0.428,0.377 0.066,0.016 0.136,0.023 0.208,0.023 0.297,0 0.63,-0.126 0.855,-0.335 0.1,-0.094 0.199,-0.19 0.295,-0.288 -0.096,-1.447 -0.419,-2.897 -0.843,-4.339 m 2.012,4.758 c 0.043,1.354 -0.11,2.718 -0.551,4.09 -0.468,1.46 -1.256,2.687 -2.286,3.611 0.335,0.222 0.658,0.464 0.966,0.723 1.197,-0.667 2.792,-1.243 4.52,-0.568 -0.031,-0.685 -0.04,-1.348 -0.038,-1.974 0.002,-0.964 0.019,-1.943 0.035,-2.889 0.042,-2.389 0.084,-4.856 -0.11,-7.269 -0.594,1.455 -1.391,2.983 -2.536,4.276 m 3.531,-15.013 c -0.061,-0.534 -0.29,-1.229 -0.65,-1.493 -0.137,-0.1 -0.279,-0.128 -0.461,-0.093 -0.278,0.055 -0.394,0.187 -0.457,0.281 -0.395,0.59 -0.121,1.948 0.042,2.759 0.034,0.169 0.065,0.323 0.088,0.457 0.176,1.004 0.399,2.023 0.614,3.008 0.071,0.324 0.143,0.65 0.213,0.978 0.504,-1.932 0.829,-3.969 0.611,-5.897 m 3.36,30.208 c -0.22,-1.71 -1.422,-3.752 -2.904,-5.106 0.255,1.921 0.773,3.895 1.799,5.644 0.2,0.342 0.434,0.537 0.632,0.537 0.031,0 0.062,-0.005 0.091,-0.015 0.241,-0.082 0.457,-0.482 0.382,-1.06"
       style="fill:#ffffff;fill-opacity:1;fill-rule:nonzero;stroke:none"
       transform="matrix(0.35277776,0,0,-0.35277776,-535.74967,-437.30264)"
       clip-path="url(#clipPath184)" />
  </g>
</svg>
