<?xml version="1.0" encoding="UTF-8" standalone="no"?>
<!-- Created with Inkscape (http://www.inkscape.org/) -->

<svg
   width="21.834614mm"
   height="20.60655mm"
   viewBox="0 0 21.834613 20.60655"
   version="1.1"
   id="svg1"
   inkscape:version="1.4 (e7c3feb1, 2024-10-09)"
   sodipodi:docname="HBB.svg"
   xmlns:inkscape="http://www.inkscape.org/namespaces/inkscape"
   xmlns:sodipodi="http://sodipodi.sourceforge.net/DTD/sodipodi-0.dtd"
   xmlns="http://www.w3.org/2000/svg"
   xmlns:svg="http://www.w3.org/2000/svg">
  <sodipodi:namedview
     id="namedview1"
     pagecolor="#ffffff"
     bordercolor="#000000"
     borderopacity="0.25"
     inkscape:showpageshadow="2"
     inkscape:pageopacity="0.0"
     inkscape:pagecheckerboard="0"
     inkscape:deskcolor="#d1d1d1"
     inkscape:document-units="mm"
     inkscape:zoom="2.096401"
     inkscape:cx="-80.852853"
     inkscape:cy="22.180871"
     inkscape:window-width="1440"
     inkscape:window-height="872"
     inkscape:window-x="0"
     inkscape:window-y="28"
     inkscape:window-maximized="0"
     inkscape:current-layer="layer1" />
  <defs
     id="defs1">
    <clipPath
       clipPathUnits="userSpaceOnUse"
       id="clipPath46">
      <path
         d="M 0,0 H 960.009 V 540 H 0 Z"
         transform="translate(-335.30581,-447.22351)"
         id="path46" />
    </clipPath>
    <clipPath
       clipPathUnits="userSpaceOnUse"
       id="clipPath48">
      <path
         d="M 0,0 H 960.009 V 540 H 0 Z"
         transform="translate(-366.36111,-395.97531)"
         id="path48" />
    </clipPath>
    <clipPath
       clipPathUnits="userSpaceOnUse"
       id="clipPath46-4">
      <path
         d="M 0,0 H 960.009 V 540 H 0 Z"
         transform="translate(-335.30581,-447.22351)"
         id="path46-1" />
    </clipPath>
    <clipPath
       clipPathUnits="userSpaceOnUse"
       id="clipPath48-8">
      <path
         d="M 0,0 H 960.009 V 540 H 0 Z"
         transform="translate(-366.36111,-395.97531)"
         id="path48-8" />
    </clipPath>
    <clipPath
       clipPathUnits="userSpaceOnUse"
       id="clipPath10">
      <path
         d="M 0,0 H 960.009 V 540 H 0 Z"
         transform="translate(-452.25271,-448.21871)"
         id="path10" />
    </clipPath>
    <clipPath
       clipPathUnits="userSpaceOnUse"
       id="clipPath12">
      <path
         d="M 0,0 H 960.009 V 540 H 0 Z"
         transform="translate(-445.51041,-428.84291)"
         id="path12" />
    </clipPath>
    <clipPath
       clipPathUnits="userSpaceOnUse"
       id="clipPath14">
      <path
         d="M 0,0 H 960.009 V 540 H 0 Z"
         transform="translate(-490.38481,-447.77471)"
         id="path14" />
    </clipPath>
    <clipPath
       clipPathUnits="userSpaceOnUse"
       id="clipPath16">
      <path
         d="M 0,0 H 960.009 V 540 H 0 Z"
         transform="translate(-520.07251,-407.43611)"
         id="path16" />
    </clipPath>
    <clipPath
       clipPathUnits="userSpaceOnUse"
       id="clipPath18">
      <path
         d="M 0,0 H 960.009 V 540 H 0 Z"
         transform="translate(-475.72791,-420.29251)"
         id="path18" />
    </clipPath>
    <clipPath
       clipPathUnits="userSpaceOnUse"
       id="clipPath20">
      <path
         d="M 0,0 H 960.009 V 540 H 0 Z"
         transform="translate(-532.40951,-415.32891)"
         id="path20" />
    </clipPath>
    <clipPath
       clipPathUnits="userSpaceOnUse"
       id="clipPath22">
      <path
         d="M 0,0 H 960.009 V 540 H 0 Z"
         transform="translate(-585.24491,-404.67841)"
         id="path22" />
    </clipPath>
    <clipPath
       clipPathUnits="userSpaceOnUse"
       id="clipPath24">
      <path
         d="M 0,0 H 960.009 V 540 H 0 Z"
         transform="translate(-546.73501,-439.46011)"
         id="path24" />
    </clipPath>
    <clipPath
       clipPathUnits="userSpaceOnUse"
       id="clipPath26">
      <path
         d="M 0,0 H 960.009 V 540 H 0 Z"
         transform="translate(-597.25132,-396.91631)"
         id="path26" />
    </clipPath>
    <clipPath
       clipPathUnits="userSpaceOnUse"
       id="clipPath28">
      <path
         d="M 0,0 H 960.009 V 540 H 0 Z"
         transform="translate(-644.79592,-427.55181)"
         id="path28" />
    </clipPath>
  </defs>
  <g
     inkscape:label="Layer 1"
     inkscape:groupmode="layer"
     id="layer1"
     transform="translate(517.26047,438.94376)">
    <path
       id="path25"
       d="m 0,0 c -0.349,-1.851 -0.477,-4.223 1.136,-5.137 0.418,-0.236 0.898,-0.328 1.369,-0.41 12.227,-2.132 24.766,-0.068 37.163,-0.569 4.595,-0.186 9.19,-0.725 13.783,-0.461 1.536,0.088 3.189,0.321 4.302,1.406 1.219,1.187 1.457,3.067 1.457,4.784 0,3.896 -0.851,7.745 -0.947,11.64 -0.076,3.051 0.312,6.094 0.699,9.122 0.734,5.746 1.469,11.493 2.204,17.24 0.518,4.056 0.972,8.463 -1.071,11.978 -0.368,0.634 -0.836,1.244 -1.489,1.559 -0.601,0.29 -1.291,0.3 -1.956,0.305 C 41.873,51.559 25.778,51.66 11.001,51.762 8.903,51.776 6.643,51.741 4.945,50.48 3.104,49.113 2.417,46.682 1.848,44.435 0.58,39.425 0.621,34.361 0.527,29.19 0.461,25.59 0.971,22.008 1.16,18.413 1.54,11.195 0.625,3.977 -0.288,-3.193"
       style="fill:#03a0bf;fill-opacity:1;fill-rule:nonzero;stroke:none"
       transform="matrix(0.35277776,0,0,-0.35277776,-517.15887,-420.68263)"
       clip-path="url(#clipPath26)" />
    <path
       id="path27"
       d="m 0,0 c -1.073,0.977 -4.212,0.825 -6.574,0.398 -1.342,-0.243 -2.566,-0.895 -3.677,-1.823 -1.754,0.316 -3.626,1.009 -5.159,2.453 -0.422,0.398 -1.301,1.225 -1.799,2.566 -0.683,1.838 -0.834,4.905 0.969,5.97 1.224,0.723 3.247,0.65 4.021,-0.526 0.84,-1.276 0.604,-3.147 0.103,-4.472 l -0.015,-0.04 c -0.271,-0.716 -0.641,-1.697 -1.223,-1.774 -0.513,-0.069 -1.183,0.476 -1.592,1.293 -0.141,0.282 -0.485,0.397 -0.766,0.255 -0.283,-0.141 -0.397,-0.484 -0.256,-0.766 0.65,-1.299 1.734,-2.05 2.764,-1.914 1.259,0.167 1.769,1.517 2.141,2.502 l 0.015,0.04 c 0.778,2.058 0.697,4.115 -0.217,5.503 -1.129,1.717 -3.864,1.882 -5.555,0.883 -2.505,-1.479 -2.224,-5.295 -1.459,-7.352 0.591,-1.592 1.6,-2.542 2.085,-2.999 1.31,-1.234 2.965,-2.097 4.931,-2.571 -2.091,-2.182 -3.737,-5.3 -4.981,-8.256 -0.804,0.764 -1.724,1.288 -2.702,1.538 0.224,1.715 0.249,3.25 0.075,4.581 -0.288,2.199 -1.366,4.105 -2.408,5.949 l -0.084,0.147 c -0.135,0.24 -0.272,0.48 -0.409,0.72 -0.226,0.399 -0.455,0.801 -0.681,1.207 0.273,-0.103 0.542,-0.206 0.805,-0.305 0.748,-0.285 1.455,-0.553 2.058,-0.751 0.301,-0.099 0.622,0.064 0.721,0.364 0.098,0.3 -0.065,0.622 -0.364,0.721 -0.579,0.19 -1.274,0.454 -2.009,0.733 -0.356,0.135 -0.723,0.275 -1.097,0.414 -0.323,0.12 -0.64,0.241 -0.949,0.365 -0.38,0.732 -0.738,1.476 -1.051,2.231 -0.533,1.286 -0.913,2.474 -1.163,3.633 0.417,-0.276 0.908,-0.454 1.44,-0.499 0.089,-0.008 0.177,-0.012 0.265,-0.012 1.592,0 2.95,1.224 3.087,2.839 0.145,1.703 -1.123,3.207 -2.827,3.352 -1.522,0.131 -2.88,-0.869 -3.257,-2.298 -0.455,0.215 -1.026,0.305 -1.517,0.078 -1.494,-0.688 -1.343,-3.729 -0.659,-5.66 0.868,-2.449 2.727,-3.653 4.863,-4.561 0.436,-0.821 0.893,-1.624 1.343,-2.415 0.136,-0.24 0.272,-0.479 0.407,-0.718 l 0.083,-0.148 c 0.989,-1.748 2.012,-3.556 2.271,-5.534 0.161,-1.23 0.136,-2.66 -0.073,-4.268 -1.136,0.043 -2.063,-0.316 -2.748,-1.07 -1.55,-1.706 -1.25,-4.816 -1.121,-5.729 0.092,-0.653 0.234,-1.264 0.372,-1.854 0.11,-0.471 0.218,-0.931 0.293,-1.392 -0.07,-0.068 -0.142,-0.136 -0.218,-0.203 -0.214,-0.192 -0.536,-0.457 -0.945,-0.793 -0.937,-0.772 -2.221,-1.829 -3.569,-3.12 l -0.063,-0.06 c -0.586,-0.56 -1.677,-1.6 -1.273,-2.693 0.155,-0.418 0.449,-0.715 0.849,-0.857 0.904,-0.322 2.156,0.236 3.048,0.76 1.717,1.011 2.882,2.59 3.28,4.446 0.16,0.749 0.167,1.452 0.097,2.128 1.541,1.739 1.94,3.816 2.6,7.264 0.073,0.38 0.15,0.779 0.231,1.197 0.045,0.228 0.086,0.453 0.124,0.675 0.919,-0.261 1.736,-0.819 2.408,-1.551 -0.877,-2.227 -1.52,-4.274 -1.949,-5.639 l -0.113,-0.36 c -0.522,-1.653 -0.971,-3.344 -1.405,-4.979 -0.154,-0.583 -0.309,-1.166 -0.468,-1.75 -0.024,-0.09 -0.049,-0.182 -0.076,-0.275 -0.074,-0.044 -0.148,-0.089 -0.222,-0.133 -1.114,-0.668 -2.266,-1.358 -3.304,-2.211 -2.446,-2.009 -3.338,-3.722 -2.58,-4.955 0.336,-0.545 0.797,-0.687 1.124,-0.709 0.034,-0.003 0.067,-0.004 0.101,-0.004 1.309,10e-4 2.845,1.689 3.455,2.429 1.246,1.512 1.941,3.305 2.399,4.836 0.24,0.146 0.481,0.294 0.718,0.443 2.378,1.501 5.528,4.011 5.433,8.456 -0.037,1.713 -0.704,3.594 -1.785,5.031 -0.003,0.003 -0.006,0.007 -0.008,0.01 1.333,3.248 3.169,6.803 5.5,8.954 1.845,-0.263 3.515,-0.167 4.438,-0.114 0.395,0.022 0.801,0.037 1.204,0.053 2.331,0.087 4.533,0.17 4.661,1.684 C 0.445,-0.631 0.298,-0.271 0,0 m -25.751,13.673 c 0.087,1.02 0.945,1.793 1.95,1.793 0.056,0 0.111,-0.002 0.168,-0.007 1.076,-0.092 1.877,-1.042 1.785,-2.118 -0.044,-0.521 -0.289,-0.994 -0.689,-1.331 -0.399,-0.337 -0.906,-0.499 -1.428,-0.454 -1.076,0.091 -1.877,1.041 -1.786,2.117 m -2.142,-4.575 c -0.696,1.965 -0.458,4.003 0.06,4.242 0.042,0.019 0.096,0.028 0.155,0.028 0.181,0 0.421,-0.085 0.592,-0.221 0.292,-0.235 0.33,-0.908 0.364,-1.503 0.019,-0.341 0.038,-0.663 0.1,-0.954 0.264,-1.231 0.666,-2.488 1.228,-3.844 0.144,-0.345 0.295,-0.688 0.454,-1.026 -1.336,0.735 -2.396,1.705 -2.953,3.278 m 4.605,-30.351 c -0.33,-1.539 -1.304,-2.854 -2.742,-3.7 -0.894,-0.526 -1.732,-0.796 -2.085,-0.669 -0.054,0.018 -0.114,0.049 -0.161,0.177 -0.144,0.389 0.709,1.203 0.989,1.47 l 0.066,0.063 c 1.316,1.261 2.58,2.302 3.504,3.062 0.199,0.164 0.379,0.311 0.537,0.443 -0.013,-0.277 -0.047,-0.558 -0.108,-0.846 m 2.924,10.569 c -0.082,-0.419 -0.158,-0.819 -0.232,-1.201 -0.534,-2.791 -0.872,-4.552 -1.748,-5.94 -0.038,0.169 -0.077,0.337 -0.116,0.504 -0.133,0.567 -0.269,1.152 -0.355,1.755 -0.229,1.624 -0.129,3.738 0.837,4.801 0.426,0.47 0.991,0.699 1.72,0.699 h 0.009 c -0.036,-0.203 -0.074,-0.409 -0.115,-0.618 m -2.666,-18.954 c -0.828,-1.006 -2.023,-2.052 -2.595,-2.013 -0.05,0.004 -0.132,0.009 -0.23,0.168 -0.393,0.639 0.501,1.971 2.331,3.475 0.704,0.578 1.482,1.087 2.267,1.569 -0.408,-1.087 -0.965,-2.219 -1.773,-3.199 m 8.29,12.983 c 0.062,-2.883 -1.348,-5.13 -4.56,-7.245 0.076,0.283 0.151,0.567 0.226,0.85 0.431,1.622 0.876,3.3 1.39,4.928 l 0.114,0.362 c 0.353,1.123 0.911,2.902 1.674,4.897 0.71,-1.15 1.128,-2.511 1.156,-3.792 m 14.014,15.74 c -0.043,-0.508 -2.335,-0.594 -3.566,-0.64 -0.411,-0.015 -0.824,-0.031 -1.226,-0.054 -0.734,-0.042 -1.828,-0.105 -3.078,-0.019 0.702,0.448 1.445,0.761 2.225,0.902 2.858,0.516 5.093,0.345 5.602,-0.119 0.046,-0.041 0.045,-0.055 0.043,-0.07"
       style="fill:#ffffff;fill-opacity:1;fill-rule:nonzero;stroke:none"
       transform="matrix(0.35277776,0,0,-0.35277776,-500.38619,-431.49016)"
       clip-path="url(#clipPath28)" />
  </g>
</svg>
