<?xml version="1.0" encoding="UTF-8" standalone="no"?>
<!-- Created with Inkscape (http://www.inkscape.org/) -->

<svg
   width="20.640144mm"
   height="21.548986mm"
   viewBox="0 0 20.640144 21.548986"
   version="1.1"
   id="svg1"
   inkscape:version="1.4 (e7c3feb1, 2024-10-09)"
   sodipodi:docname="KTE.svg"
   xmlns:inkscape="http://www.inkscape.org/namespaces/inkscape"
   xmlns:sodipodi="http://sodipodi.sourceforge.net/DTD/sodipodi-0.dtd"
   xmlns="http://www.w3.org/2000/svg"
   xmlns:svg="http://www.w3.org/2000/svg">
  <sodipodi:namedview
     id="namedview1"
     pagecolor="#ffffff"
     bordercolor="#000000"
     borderopacity="0.25"
     inkscape:showpageshadow="2"
     inkscape:pageopacity="0.0"
     inkscape:pagecheckerboard="0"
     inkscape:deskcolor="#d1d1d1"
     inkscape:document-units="mm"
     inkscape:zoom="2.096401"
     inkscape:cx="-13.594728"
     inkscape:cy="-18.364807"
     inkscape:window-width="1440"
     inkscape:window-height="872"
     inkscape:window-x="0"
     inkscape:window-y="28"
     inkscape:window-maximized="0"
     inkscape:current-layer="layer1" />
  <defs
     id="defs1">
    <clipPath
       clipPathUnits="userSpaceOnUse"
       id="clipPath46">
      <path
         d="M 0,0 H 960.009 V 540 H 0 Z"
         transform="translate(-335.30581,-447.22351)"
         id="path46" />
    </clipPath>
    <clipPath
       clipPathUnits="userSpaceOnUse"
       id="clipPath48">
      <path
         d="M 0,0 H 960.009 V 540 H 0 Z"
         transform="translate(-366.36111,-395.97531)"
         id="path48" />
    </clipPath>
    <clipPath
       clipPathUnits="userSpaceOnUse"
       id="clipPath46-4">
      <path
         d="M 0,0 H 960.009 V 540 H 0 Z"
         transform="translate(-335.30581,-447.22351)"
         id="path46-1" />
    </clipPath>
    <clipPath
       clipPathUnits="userSpaceOnUse"
       id="clipPath48-8">
      <path
         d="M 0,0 H 960.009 V 540 H 0 Z"
         transform="translate(-366.36111,-395.97531)"
         id="path48-8" />
    </clipPath>
    <clipPath
       clipPathUnits="userSpaceOnUse"
       id="clipPath10">
      <path
         d="M 0,0 H 960.009 V 540 H 0 Z"
         transform="translate(-452.25271,-448.21871)"
         id="path10" />
    </clipPath>
    <clipPath
       clipPathUnits="userSpaceOnUse"
       id="clipPath12">
      <path
         d="M 0,0 H 960.009 V 540 H 0 Z"
         transform="translate(-445.51041,-428.84291)"
         id="path12" />
    </clipPath>
    <clipPath
       clipPathUnits="userSpaceOnUse"
       id="clipPath14">
      <path
         d="M 0,0 H 960.009 V 540 H 0 Z"
         transform="translate(-490.38481,-447.77471)"
         id="path14" />
    </clipPath>
    <clipPath
       clipPathUnits="userSpaceOnUse"
       id="clipPath16">
      <path
         d="M 0,0 H 960.009 V 540 H 0 Z"
         transform="translate(-520.07251,-407.43611)"
         id="path16" />
    </clipPath>
    <clipPath
       clipPathUnits="userSpaceOnUse"
       id="clipPath18">
      <path
         d="M 0,0 H 960.009 V 540 H 0 Z"
         transform="translate(-475.72791,-420.29251)"
         id="path18" />
    </clipPath>
    <clipPath
       clipPathUnits="userSpaceOnUse"
       id="clipPath20">
      <path
         d="M 0,0 H 960.009 V 540 H 0 Z"
         transform="translate(-532.40951,-415.32891)"
         id="path20" />
    </clipPath>
    <clipPath
       clipPathUnits="userSpaceOnUse"
       id="clipPath22">
      <path
         d="M 0,0 H 960.009 V 540 H 0 Z"
         transform="translate(-585.24491,-404.67841)"
         id="path22" />
    </clipPath>
    <clipPath
       clipPathUnits="userSpaceOnUse"
       id="clipPath24">
      <path
         d="M 0,0 H 960.009 V 540 H 0 Z"
         transform="translate(-546.73501,-439.46011)"
         id="path24" />
    </clipPath>
    <clipPath
       clipPathUnits="userSpaceOnUse"
       id="clipPath26">
      <path
         d="M 0,0 H 960.009 V 540 H 0 Z"
         transform="translate(-597.25132,-396.91631)"
         id="path26" />
    </clipPath>
    <clipPath
       clipPathUnits="userSpaceOnUse"
       id="clipPath28">
      <path
         d="M 0,0 H 960.009 V 540 H 0 Z"
         transform="translate(-644.79592,-427.55181)"
         id="path28" />
    </clipPath>
    <clipPath
       clipPathUnits="userSpaceOnUse"
       id="clipPath30">
      <path
         d="M 0,0 H 960.009 V 540 H 0 Z"
         transform="translate(-722.31742,-442.86561)"
         id="path30" />
    </clipPath>
    <clipPath
       clipPathUnits="userSpaceOnUse"
       id="clipPath32">
      <path
         d="M 0,0 H 960.009 V 540 H 0 Z"
         transform="translate(-713.80762,-411.31901)"
         id="path32" />
    </clipPath>
    <clipPath
       clipPathUnits="userSpaceOnUse"
       id="clipPath34">
      <path
         d="M 0,0 H 960.009 V 540 H 0 Z"
         transform="translate(-711.27122,-406.75661)"
         id="path34" />
    </clipPath>
    <clipPath
       clipPathUnits="userSpaceOnUse"
       id="clipPath36">
      <path
         d="M 0,0 H 960.009 V 540 H 0 Z"
         transform="translate(-788.58924,-392.63841)"
         id="path36" />
    </clipPath>
    <clipPath
       clipPathUnits="userSpaceOnUse"
       id="clipPath38">
      <path
         d="M 0,0 H 960.009 V 540 H 0 Z"
         transform="translate(-775.73004,-429.83291)"
         id="path38" />
    </clipPath>
    <clipPath
       clipPathUnits="userSpaceOnUse"
       id="clipPath40">
      <path
         d="M 0,0 H 960.009 V 540 H 0 Z"
         transform="translate(-854.0284,-447.94411)"
         id="path40" />
    </clipPath>
    <clipPath
       clipPathUnits="userSpaceOnUse"
       id="clipPath42">
      <path
         d="M 0,0 H 960.009 V 540 H 0 Z"
         transform="translate(-841.42262,-414.05971)"
         id="path42" />
    </clipPath>
    <clipPath
       clipPathUnits="userSpaceOnUse"
       id="clipPath44">
      <path
         d="M 0,0 H 960.009 V 540 H 0 Z"
         transform="translate(-828.18625,-402.03771)"
         id="path44" />
    </clipPath>
    <clipPath
       clipPathUnits="userSpaceOnUse"
       id="clipPath186">
      <path
         d="M 0,0 H 960.009 V 540 H 0 Z"
         transform="translate(-796.23144,-323.72221)"
         id="path186" />
    </clipPath>
    <clipPath
       clipPathUnits="userSpaceOnUse"
       id="clipPath188">
      <path
         d="M 0,0 H 960.009 V 540 H 0 Z"
         transform="translate(-837.6514,-370.80791)"
         id="path188" />
    </clipPath>
    <clipPath
       clipPathUnits="userSpaceOnUse"
       id="clipPath182">
      <path
         d="M 0,0 H 960.009 V 540 H 0 Z"
         transform="translate(-736.95462,-375.25501)"
         id="path182" />
    </clipPath>
    <clipPath
       clipPathUnits="userSpaceOnUse"
       id="clipPath184">
      <path
         d="M 0,0 H 960.009 V 540 H 0 Z"
         transform="translate(-768.50649,-358.25011)"
         id="path184" />
    </clipPath>
    <clipPath
       clipPathUnits="userSpaceOnUse"
       id="clipPath178">
      <path
         d="M 0,0 H 960.009 V 540 H 0 Z"
         transform="translate(-720.27222,-375.61331)"
         id="path178" />
    </clipPath>
    <clipPath
       clipPathUnits="userSpaceOnUse"
       id="clipPath180">
      <path
         d="M 0,0 H 960.009 V 540 H 0 Z"
         transform="translate(-708.29912,-339.89981)"
         id="path180" />
    </clipPath>
    <clipPath
       clipPathUnits="userSpaceOnUse"
       id="clipPath174">
      <path
         d="M 0,0 H 960.009 V 540 H 0 Z"
         transform="translate(-632.38852,-318.07351)"
         id="path174" />
    </clipPath>
    <clipPath
       clipPathUnits="userSpaceOnUse"
       id="clipPath176">
      <path
         d="M 0,0 H 960.009 V 540 H 0 Z"
         transform="translate(-651.53441,-331.09111)"
         id="path176" />
    </clipPath>
    <clipPath
       clipPathUnits="userSpaceOnUse"
       id="clipPath170">
      <path
         d="M 0,0 H 960.009 V 540 H 0 Z"
         transform="translate(-591.96502,-324.88781)"
         id="path170" />
    </clipPath>
    <clipPath
       clipPathUnits="userSpaceOnUse"
       id="clipPath172">
      <path
         d="M 0,0 H 960.009 V 540 H 0 Z"
         transform="translate(-586.33631,-340.16661)"
         id="path172" />
    </clipPath>
    <clipPath
       clipPathUnits="userSpaceOnUse"
       id="clipPath166">
      <path
         d="M 0,0 H 960.009 V 540 H 0 Z"
         transform="translate(-524.71871,-320.54331)"
         id="path166" />
    </clipPath>
    <clipPath
       clipPathUnits="userSpaceOnUse"
       id="clipPath168">
      <path
         d="M 0,0 H 960.009 V 540 H 0 Z"
         transform="translate(-503.36561,-325.03411)"
         id="path168" />
    </clipPath>
    <clipPath
       clipPathUnits="userSpaceOnUse"
       id="clipPath160">
      <path
         d="M 0,0 H 960.009 V 540 H 0 Z"
         transform="translate(-403.48081,-318.39281)"
         id="path160" />
    </clipPath>
    <clipPath
       clipPathUnits="userSpaceOnUse"
       id="clipPath162">
      <path
         d="M 0,0 H 960.009 V 540 H 0 Z"
         transform="translate(-451.85691,-327.41961)"
         id="path162" />
    </clipPath>
    <clipPath
       clipPathUnits="userSpaceOnUse"
       id="clipPath164">
      <path
         d="M 0,0 H 960.009 V 540 H 0 Z"
         transform="translate(-409.77981,-357.93981)"
         id="path164" />
    </clipPath>
    <clipPath
       clipPathUnits="userSpaceOnUse"
       id="clipPath156">
      <path
         d="M 0,0 H 960.009 V 540 H 0 Z"
         transform="translate(-368.23991,-318.73791)"
         id="path156" />
    </clipPath>
    <clipPath
       clipPathUnits="userSpaceOnUse"
       id="clipPath158">
      <path
         d="M 0,0 H 960.009 V 540 H 0 Z"
         transform="translate(-383.86171,-342.63551)"
         id="path158" />
    </clipPath>
    <clipPath
       clipPathUnits="userSpaceOnUse"
       id="clipPath114">
      <path
         d="M 0,0 H 960.009 V 540 H 0 Z"
         transform="translate(-392.75611,-298.45791)"
         id="path114" />
    </clipPath>
    <clipPath
       clipPathUnits="userSpaceOnUse"
       id="clipPath116">
      <path
         d="M 0,0 H 960.009 V 540 H 0 Z"
         transform="translate(-387.31901,-254.33761)"
         id="path116" />
    </clipPath>
    <clipPath
       clipPathUnits="userSpaceOnUse"
       id="clipPath118">
      <path
         d="M 0,0 H 960.009 V 540 H 0 Z"
         transform="translate(-360.51291,-262.97961)"
         id="path118" />
    </clipPath>
    <clipPath
       clipPathUnits="userSpaceOnUse"
       id="clipPath120">
      <path
         d="M 0,0 H 960.009 V 540 H 0 Z"
         transform="translate(-455.62551,-246.02871)"
         id="path120" />
    </clipPath>
    <clipPath
       clipPathUnits="userSpaceOnUse"
       id="clipPath122">
      <path
         d="M 0,0 H 960.009 V 540 H 0 Z"
         transform="translate(-452.63151,-264.6049)"
         id="path122" />
    </clipPath>
    <clipPath
       clipPathUnits="userSpaceOnUse"
       id="clipPath124">
      <path
         d="M 0,0 H 960.009 V 540 H 0 Z"
         transform="translate(-409.98541,-258.8899)"
         id="path124" />
    </clipPath>
    <clipPath
       clipPathUnits="userSpaceOnUse"
       id="clipPath126">
      <path
         d="M 0,0 H 960.009 V 540 H 0 Z"
         transform="translate(-473.91801,-244.75861)"
         id="path126" />
    </clipPath>
    <clipPath
       clipPathUnits="userSpaceOnUse"
       id="clipPath128">
      <path
         d="M 0,0 H 960.009 V 540 H 0 Z"
         transform="translate(-522.03322,-284.9617)"
         id="path128" />
    </clipPath>
    <clipPath
       clipPathUnits="userSpaceOnUse"
       id="clipPath130">
      <path
         d="M 0,0 H 960.009 V 540 H 0 Z"
         transform="translate(-566.28982,-245.4835)"
         id="path130" />
    </clipPath>
    <clipPath
       clipPathUnits="userSpaceOnUse"
       id="clipPath132">
      <path
         d="M 0,0 H 960.009 V 540 H 0 Z"
         transform="translate(-579.34751,-261.87991)"
         id="path132" />
    </clipPath>
  </defs>
  <g
     inkscape:label="Layer 1"
     inkscape:groupmode="layer"
     id="layer1"
     transform="translate(535.25219,428.36039)">
    <path
       id="path129"
       d="m 0,0 c -3.595,-0.189 -7.177,-0.699 -10.777,-0.633 -5.171,0.094 -10.235,0.052 -15.245,1.321 -2.248,0.569 -4.679,1.256 -6.045,3.097 -1.261,1.698 -1.297,3.957 -1.282,6.056 0.102,14.777 0.203,30.872 0.305,45.649 0.005,0.665 0.014,1.355 0.305,1.956 0.315,0.652 0.925,1.121 1.558,1.489 3.515,2.042 7.922,1.589 11.978,1.07 5.747,-0.734 11.494,-1.469 17.241,-2.203 3.028,-0.388 6.07,-0.775 9.122,-0.7 3.894,0.097 7.744,0.948 11.64,0.948 1.717,0 3.596,-0.239 4.783,-1.457 1.086,-1.114 1.318,-2.766 1.407,-4.303 C 25.254,47.698 24.715,43.103 24.529,38.507 24.028,26.11 25.719,19.184 24.955,5.796 24.944,5.605 24.932,4.657 24.921,3.589 24.902,1.682 23.342,0.151 21.435,0.168 15.919,0.22 5.222,0.274 0,0"
       style="fill:#55bf9b;fill-opacity:1;fill-rule:nonzero;stroke:none"
       transform="matrix(0.35277776,0,0,-0.35277776,-523.48669,-407.03678)"
       clip-path="url(#clipPath130)" />
    <path
       id="path131"
       d="m 0,0 c -1.459,1.098 -3.379,1.217 -5.072,1.322 -0.28,0.018 -0.555,0.035 -0.822,0.056 -0.592,0.047 -1.193,0.071 -1.773,0.095 -0.137,0.005 -0.274,0.01 -0.411,0.016 -0.55,0.636 -1.096,1.346 -1.638,2.129 -0.398,0.576 -0.773,1.235 -1.171,1.934 -1.264,2.224 -2.698,4.745 -5.452,5.312 -0.482,0.1 -0.992,0.136 -1.514,0.112 0.166,1.554 0.7,3.125 1.577,4.575 0.248,0.41 1.059,1.67 2.138,2.533 1.543,-0.764 2.709,-1.863 3.468,-3.264 -0.239,-0.263 -0.503,-0.517 -0.774,-0.778 -0.159,-0.154 -0.317,-0.306 -0.47,-0.46 -0.641,-0.645 -0.942,-1.516 -0.787,-2.273 0.13,-0.639 0.571,-1.139 1.241,-1.411 0.743,-0.301 1.493,-0.215 2.059,0.237 0.605,0.482 0.896,1.309 0.759,2.157 -0.139,0.853 -0.365,1.646 -0.678,2.376 0.108,0.151 0.21,0.309 0.304,0.474 0.855,1.518 0.274,3.511 -1.294,4.443 -1.355,0.804 -2.721,0.584 -3.95,-0.187 -0.553,0.23 -1.144,0.425 -1.771,0.585 -0.041,0.01 -0.082,0.021 -0.123,0.031 0.553,0.997 0.956,2.057 1.348,3.092 0.175,0.46 0.356,0.936 0.545,1.392 0.52,1.253 1.602,3.861 0.135,5.842 -1.218,1.644 -3.536,2.133 -5.167,1.09 -1.4,-0.896 -2.312,-2.742 -2.44,-4.937 -0.041,-0.706 -0.138,-2.357 0.878,-3.161 1.081,-0.857 2.27,-0.107 3.057,0.389 0.081,0.051 0.16,0.101 0.237,0.147 0.269,0.164 0.354,0.516 0.191,0.785 -0.164,0.269 -0.516,0.355 -0.785,0.191 -0.081,-0.049 -0.166,-0.102 -0.252,-0.157 -0.757,-0.477 -1.324,-0.788 -1.739,-0.46 -0.55,0.435 -0.475,1.717 -0.447,2.199 0.083,1.414 0.629,3.219 1.916,4.042 1.135,0.726 2.765,0.364 3.633,-0.808 0.951,-1.284 0.431,-3.03 -0.272,-4.724 -0.196,-0.472 -0.38,-0.957 -0.557,-1.425 -0.431,-1.134 -0.842,-2.217 -1.428,-3.201 -3.12,0.795 -6.906,1.564 -11.233,-0.453 -1.516,0.475 -3.346,1.004 -4.927,0.567 -0.974,-0.269 -1.502,-1.028 -1.346,-1.933 0.159,-0.917 1.082,-1.848 2.295,-1.764 1.139,0.083 2.092,0.689 3.014,1.274 0.365,0.232 0.712,0.452 1.055,0.63 0.12,-0.038 0.238,-0.075 0.353,-0.11 0.337,-0.103 0.698,-0.221 1.077,-0.345 3.089,-1.009 7.758,-2.533 10.163,0.746 0.019,0.026 0.038,0.052 0.057,0.078 0.162,-0.042 0.322,-0.084 0.48,-0.124 0.345,-0.088 0.677,-0.187 0.997,-0.299 -0.735,-0.684 -1.395,-1.538 -1.937,-2.435 -1.014,-1.675 -1.611,-3.505 -1.761,-5.312 -1.219,-0.249 -2.437,-0.794 -3.452,-1.581 -1.458,-1.133 -2.302,-2.616 -2.375,-4.176 -0.015,-0.305 0.003,-0.598 0.048,-0.881 -1.286,-1.436 -1.438,-3.845 -0.728,-5.649 0.436,-1.108 1.743,-2.862 3.161,-3.108 0.106,-0.018 0.223,-0.03 0.348,-0.03 0.46,0 1.026,0.162 1.548,0.76 1.275,1.458 -0.283,3.518 -1.032,4.509 l -0.02,0.027 c -0.14,0.184 -0.284,0.369 -0.429,0.554 -0.655,0.84 -1.285,1.646 -1.582,2.544 0.077,0.055 0.158,0.106 0.242,0.151 1.021,0.549 2.379,0.3 3.571,0.023 0.308,-0.072 0.614,0.119 0.686,0.427 0.071,0.307 -0.12,0.614 -0.427,0.685 -1.353,0.315 -2.902,0.591 -4.245,-0.065 0.057,1.221 0.745,2.402 1.935,3.327 0.795,0.617 1.753,1.065 2.718,1.301 0.021,-0.798 0.132,-1.584 0.337,-2.341 0.922,-3.413 3.688,-5.894 7.4,-6.639 0.895,-0.18 1.803,-0.252 2.697,-0.298 1.985,-2.189 4.056,-3.518 6.276,-4.037 1.344,-0.314 2.816,0.238 3.28,1.231 C 1.123,-2.052 1.39,-1.046 0,0 m -10.114,11.028 c -0.24,-0.192 -0.557,-0.217 -0.917,-0.071 -0.317,0.128 -0.498,0.319 -0.551,0.581 -0.077,0.375 0.115,0.873 0.478,1.239 0.147,0.148 0.3,0.295 0.452,0.442 0.161,0.155 0.323,0.311 0.482,0.472 0.176,-0.498 0.31,-1.025 0.4,-1.582 0.071,-0.441 -0.06,-0.855 -0.344,-1.081 m -0.78,7.575 c 0.971,-0.577 1.384,-1.804 0.957,-2.752 -0.743,1.191 -1.764,2.169 -3.047,2.916 0.663,0.249 1.375,0.261 2.09,-0.164 m -19.216,0.362 c -0.84,-0.533 -1.633,-1.037 -2.484,-1.098 -0.608,-0.048 -1.023,0.447 -1.087,0.819 -0.02,0.116 -0.082,0.47 0.524,0.637 0.308,0.085 0.638,0.121 0.981,0.121 0.72,0 1.498,-0.16 2.247,-0.364 -0.061,-0.038 -0.121,-0.077 -0.181,-0.115 m 3.451,0.297 c -0.056,0.018 -0.112,0.037 -0.168,0.055 3.295,1.139 6.277,0.619 8.822,-0.008 -1.995,-2.221 -5.826,-0.97 -8.654,-0.047 m 3.814,-18.71 c 0.141,-0.181 0.281,-0.36 0.417,-0.54 l 0.021,-0.027 c 0.567,-0.75 1.746,-2.31 1.083,-3.068 -0.341,-0.391 -0.644,-0.391 -0.841,-0.356 -0.883,0.153 -1.948,1.524 -2.293,2.401 -0.465,1.181 -0.454,2.732 0.107,3.844 0.395,-0.831 0.97,-1.568 1.506,-2.254 m 11.76,1.236 c -3.278,0.657 -5.716,2.832 -6.522,5.817 -0.194,0.716 -0.294,1.463 -0.302,2.222 0.467,0.03 0.92,0.005 1.339,-0.081 2.248,-0.464 3.49,-2.647 4.691,-4.759 0.41,-0.721 0.797,-1.402 1.224,-2.019 0.337,-0.487 0.677,-0.949 1.019,-1.383 -0.49,0.045 -0.975,0.108 -1.449,0.203 m 10.994,-3.741 c -0.208,-0.444 -1.121,-0.804 -1.986,-0.602 -1.695,0.396 -3.31,1.338 -4.879,2.854 0.325,-0.016 0.651,-0.034 0.972,-0.06 0.273,-0.021 0.555,-0.039 0.841,-0.057 1.608,-0.1 3.271,-0.203 4.456,-1.095 0.299,-0.225 0.774,-0.659 0.596,-1.04"
       style="fill:#ffffff;fill-opacity:1;fill-rule:nonzero;stroke:none"
       transform="matrix(0.35277776,0,0,-0.35277776,-518.88023,-412.82107)"
       clip-path="url(#clipPath132)" />
  </g>
</svg>
