<?xml version="1.0" encoding="UTF-8" standalone="no"?>
<!-- Created with Inkscape (http://www.inkscape.org/) -->

<svg
   width="20.140392mm"
   height="20.46347mm"
   viewBox="0 0 20.140391 20.463472"
   version="1.1"
   id="svg1"
   inkscape:version="1.4 (e7c3feb1, 2024-10-09)"
   sodipodi:docname="MPN.svg"
   xmlns:inkscape="http://www.inkscape.org/namespaces/inkscape"
   xmlns:sodipodi="http://sodipodi.sourceforge.net/DTD/sodipodi-0.dtd"
   xmlns="http://www.w3.org/2000/svg"
   xmlns:svg="http://www.w3.org/2000/svg">
  <sodipodi:namedview
     id="namedview1"
     pagecolor="#ffffff"
     bordercolor="#000000"
     borderopacity="0.25"
     inkscape:showpageshadow="2"
     inkscape:pageopacity="0.0"
     inkscape:pagecheckerboard="0"
     inkscape:deskcolor="#d1d1d1"
     inkscape:document-units="mm"
     inkscape:zoom="2.096401"
     inkscape:cx="38.399143"
     inkscape:cy="38.399143"
     inkscape:window-width="1440"
     inkscape:window-height="872"
     inkscape:window-x="0"
     inkscape:window-y="28"
     inkscape:window-maximized="0"
     inkscape:current-layer="layer1" />
  <defs
     id="defs1">
    <clipPath
       clipPathUnits="userSpaceOnUse"
       id="clipPath46">
      <path
         d="M 0,0 H 960.009 V 540 H 0 Z"
         transform="translate(-335.30581,-447.22351)"
         id="path46" />
    </clipPath>
    <clipPath
       clipPathUnits="userSpaceOnUse"
       id="clipPath48">
      <path
         d="M 0,0 H 960.009 V 540 H 0 Z"
         transform="translate(-366.36111,-395.97531)"
         id="path48" />
    </clipPath>
    <clipPath
       clipPathUnits="userSpaceOnUse"
       id="clipPath46-4">
      <path
         d="M 0,0 H 960.009 V 540 H 0 Z"
         transform="translate(-335.30581,-447.22351)"
         id="path46-1" />
    </clipPath>
    <clipPath
       clipPathUnits="userSpaceOnUse"
       id="clipPath48-8">
      <path
         d="M 0,0 H 960.009 V 540 H 0 Z"
         transform="translate(-366.36111,-395.97531)"
         id="path48-8" />
    </clipPath>
    <clipPath
       clipPathUnits="userSpaceOnUse"
       id="clipPath10">
      <path
         d="M 0,0 H 960.009 V 540 H 0 Z"
         transform="translate(-452.25271,-448.21871)"
         id="path10" />
    </clipPath>
    <clipPath
       clipPathUnits="userSpaceOnUse"
       id="clipPath12">
      <path
         d="M 0,0 H 960.009 V 540 H 0 Z"
         transform="translate(-445.51041,-428.84291)"
         id="path12" />
    </clipPath>
    <clipPath
       clipPathUnits="userSpaceOnUse"
       id="clipPath14">
      <path
         d="M 0,0 H 960.009 V 540 H 0 Z"
         transform="translate(-490.38481,-447.77471)"
         id="path14" />
    </clipPath>
    <clipPath
       clipPathUnits="userSpaceOnUse"
       id="clipPath16">
      <path
         d="M 0,0 H 960.009 V 540 H 0 Z"
         transform="translate(-520.07251,-407.43611)"
         id="path16" />
    </clipPath>
    <clipPath
       clipPathUnits="userSpaceOnUse"
       id="clipPath18">
      <path
         d="M 0,0 H 960.009 V 540 H 0 Z"
         transform="translate(-475.72791,-420.29251)"
         id="path18" />
    </clipPath>
    <clipPath
       clipPathUnits="userSpaceOnUse"
       id="clipPath20">
      <path
         d="M 0,0 H 960.009 V 540 H 0 Z"
         transform="translate(-532.40951,-415.32891)"
         id="path20" />
    </clipPath>
    <clipPath
       clipPathUnits="userSpaceOnUse"
       id="clipPath22">
      <path
         d="M 0,0 H 960.009 V 540 H 0 Z"
         transform="translate(-585.24491,-404.67841)"
         id="path22" />
    </clipPath>
    <clipPath
       clipPathUnits="userSpaceOnUse"
       id="clipPath24">
      <path
         d="M 0,0 H 960.009 V 540 H 0 Z"
         transform="translate(-546.73501,-439.46011)"
         id="path24" />
    </clipPath>
    <clipPath
       clipPathUnits="userSpaceOnUse"
       id="clipPath26">
      <path
         d="M 0,0 H 960.009 V 540 H 0 Z"
         transform="translate(-597.25132,-396.91631)"
         id="path26" />
    </clipPath>
    <clipPath
       clipPathUnits="userSpaceOnUse"
       id="clipPath28">
      <path
         d="M 0,0 H 960.009 V 540 H 0 Z"
         transform="translate(-644.79592,-427.55181)"
         id="path28" />
    </clipPath>
    <clipPath
       clipPathUnits="userSpaceOnUse"
       id="clipPath30">
      <path
         d="M 0,0 H 960.009 V 540 H 0 Z"
         transform="translate(-722.31742,-442.86561)"
         id="path30" />
    </clipPath>
    <clipPath
       clipPathUnits="userSpaceOnUse"
       id="clipPath32">
      <path
         d="M 0,0 H 960.009 V 540 H 0 Z"
         transform="translate(-713.80762,-411.31901)"
         id="path32" />
    </clipPath>
    <clipPath
       clipPathUnits="userSpaceOnUse"
       id="clipPath34">
      <path
         d="M 0,0 H 960.009 V 540 H 0 Z"
         transform="translate(-711.27122,-406.75661)"
         id="path34" />
    </clipPath>
    <clipPath
       clipPathUnits="userSpaceOnUse"
       id="clipPath36">
      <path
         d="M 0,0 H 960.009 V 540 H 0 Z"
         transform="translate(-788.58924,-392.63841)"
         id="path36" />
    </clipPath>
    <clipPath
       clipPathUnits="userSpaceOnUse"
       id="clipPath38">
      <path
         d="M 0,0 H 960.009 V 540 H 0 Z"
         transform="translate(-775.73004,-429.83291)"
         id="path38" />
    </clipPath>
    <clipPath
       clipPathUnits="userSpaceOnUse"
       id="clipPath40">
      <path
         d="M 0,0 H 960.009 V 540 H 0 Z"
         transform="translate(-854.0284,-447.94411)"
         id="path40" />
    </clipPath>
    <clipPath
       clipPathUnits="userSpaceOnUse"
       id="clipPath42">
      <path
         d="M 0,0 H 960.009 V 540 H 0 Z"
         transform="translate(-841.42262,-414.05971)"
         id="path42" />
    </clipPath>
    <clipPath
       clipPathUnits="userSpaceOnUse"
       id="clipPath44">
      <path
         d="M 0,0 H 960.009 V 540 H 0 Z"
         transform="translate(-828.18625,-402.03771)"
         id="path44" />
    </clipPath>
    <clipPath
       clipPathUnits="userSpaceOnUse"
       id="clipPath186">
      <path
         d="M 0,0 H 960.009 V 540 H 0 Z"
         transform="translate(-796.23144,-323.72221)"
         id="path186" />
    </clipPath>
    <clipPath
       clipPathUnits="userSpaceOnUse"
       id="clipPath188">
      <path
         d="M 0,0 H 960.009 V 540 H 0 Z"
         transform="translate(-837.6514,-370.80791)"
         id="path188" />
    </clipPath>
    <clipPath
       clipPathUnits="userSpaceOnUse"
       id="clipPath182">
      <path
         d="M 0,0 H 960.009 V 540 H 0 Z"
         transform="translate(-736.95462,-375.25501)"
         id="path182" />
    </clipPath>
    <clipPath
       clipPathUnits="userSpaceOnUse"
       id="clipPath184">
      <path
         d="M 0,0 H 960.009 V 540 H 0 Z"
         transform="translate(-768.50649,-358.25011)"
         id="path184" />
    </clipPath>
    <clipPath
       clipPathUnits="userSpaceOnUse"
       id="clipPath178">
      <path
         d="M 0,0 H 960.009 V 540 H 0 Z"
         transform="translate(-720.27222,-375.61331)"
         id="path178" />
    </clipPath>
    <clipPath
       clipPathUnits="userSpaceOnUse"
       id="clipPath180">
      <path
         d="M 0,0 H 960.009 V 540 H 0 Z"
         transform="translate(-708.29912,-339.89981)"
         id="path180" />
    </clipPath>
    <clipPath
       clipPathUnits="userSpaceOnUse"
       id="clipPath174">
      <path
         d="M 0,0 H 960.009 V 540 H 0 Z"
         transform="translate(-632.38852,-318.07351)"
         id="path174" />
    </clipPath>
    <clipPath
       clipPathUnits="userSpaceOnUse"
       id="clipPath176">
      <path
         d="M 0,0 H 960.009 V 540 H 0 Z"
         transform="translate(-651.53441,-331.09111)"
         id="path176" />
    </clipPath>
    <clipPath
       clipPathUnits="userSpaceOnUse"
       id="clipPath170">
      <path
         d="M 0,0 H 960.009 V 540 H 0 Z"
         transform="translate(-591.96502,-324.88781)"
         id="path170" />
    </clipPath>
    <clipPath
       clipPathUnits="userSpaceOnUse"
       id="clipPath172">
      <path
         d="M 0,0 H 960.009 V 540 H 0 Z"
         transform="translate(-586.33631,-340.16661)"
         id="path172" />
    </clipPath>
    <clipPath
       clipPathUnits="userSpaceOnUse"
       id="clipPath166">
      <path
         d="M 0,0 H 960.009 V 540 H 0 Z"
         transform="translate(-524.71871,-320.54331)"
         id="path166" />
    </clipPath>
    <clipPath
       clipPathUnits="userSpaceOnUse"
       id="clipPath168">
      <path
         d="M 0,0 H 960.009 V 540 H 0 Z"
         transform="translate(-503.36561,-325.03411)"
         id="path168" />
    </clipPath>
    <clipPath
       clipPathUnits="userSpaceOnUse"
       id="clipPath160">
      <path
         d="M 0,0 H 960.009 V 540 H 0 Z"
         transform="translate(-403.48081,-318.39281)"
         id="path160" />
    </clipPath>
    <clipPath
       clipPathUnits="userSpaceOnUse"
       id="clipPath162">
      <path
         d="M 0,0 H 960.009 V 540 H 0 Z"
         transform="translate(-451.85691,-327.41961)"
         id="path162" />
    </clipPath>
    <clipPath
       clipPathUnits="userSpaceOnUse"
       id="clipPath164">
      <path
         d="M 0,0 H 960.009 V 540 H 0 Z"
         transform="translate(-409.77981,-357.93981)"
         id="path164" />
    </clipPath>
    <clipPath
       clipPathUnits="userSpaceOnUse"
       id="clipPath156">
      <path
         d="M 0,0 H 960.009 V 540 H 0 Z"
         transform="translate(-368.23991,-318.73791)"
         id="path156" />
    </clipPath>
    <clipPath
       clipPathUnits="userSpaceOnUse"
       id="clipPath158">
      <path
         d="M 0,0 H 960.009 V 540 H 0 Z"
         transform="translate(-383.86171,-342.63551)"
         id="path158" />
    </clipPath>
    <clipPath
       clipPathUnits="userSpaceOnUse"
       id="clipPath114">
      <path
         d="M 0,0 H 960.009 V 540 H 0 Z"
         transform="translate(-392.75611,-298.45791)"
         id="path114" />
    </clipPath>
    <clipPath
       clipPathUnits="userSpaceOnUse"
       id="clipPath116">
      <path
         d="M 0,0 H 960.009 V 540 H 0 Z"
         transform="translate(-387.31901,-254.33761)"
         id="path116" />
    </clipPath>
    <clipPath
       clipPathUnits="userSpaceOnUse"
       id="clipPath118">
      <path
         d="M 0,0 H 960.009 V 540 H 0 Z"
         transform="translate(-360.51291,-262.97961)"
         id="path118" />
    </clipPath>
    <clipPath
       clipPathUnits="userSpaceOnUse"
       id="clipPath120">
      <path
         d="M 0,0 H 960.009 V 540 H 0 Z"
         transform="translate(-455.62551,-246.02871)"
         id="path120" />
    </clipPath>
    <clipPath
       clipPathUnits="userSpaceOnUse"
       id="clipPath122">
      <path
         d="M 0,0 H 960.009 V 540 H 0 Z"
         transform="translate(-452.63151,-264.6049)"
         id="path122" />
    </clipPath>
    <clipPath
       clipPathUnits="userSpaceOnUse"
       id="clipPath124">
      <path
         d="M 0,0 H 960.009 V 540 H 0 Z"
         transform="translate(-409.98541,-258.8899)"
         id="path124" />
    </clipPath>
    <clipPath
       clipPathUnits="userSpaceOnUse"
       id="clipPath126">
      <path
         d="M 0,0 H 960.009 V 540 H 0 Z"
         transform="translate(-473.91801,-244.75861)"
         id="path126" />
    </clipPath>
    <clipPath
       clipPathUnits="userSpaceOnUse"
       id="clipPath128">
      <path
         d="M 0,0 H 960.009 V 540 H 0 Z"
         transform="translate(-522.03322,-284.9617)"
         id="path128" />
    </clipPath>
    <clipPath
       clipPathUnits="userSpaceOnUse"
       id="clipPath130">
      <path
         d="M 0,0 H 960.009 V 540 H 0 Z"
         transform="translate(-566.28982,-245.4835)"
         id="path130" />
    </clipPath>
    <clipPath
       clipPathUnits="userSpaceOnUse"
       id="clipPath132">
      <path
         d="M 0,0 H 960.009 V 540 H 0 Z"
         transform="translate(-579.34751,-261.87991)"
         id="path132" />
    </clipPath>
    <clipPath
       clipPathUnits="userSpaceOnUse"
       id="clipPath134">
      <path
         d="M 0,0 H 960.009 V 540 H 0 Z"
         transform="translate(-599.74111,-300.49821)"
         id="path134" />
    </clipPath>
    <clipPath
       clipPathUnits="userSpaceOnUse"
       id="clipPath136">
      <path
         d="M 0,0 H 960.009 V 540 H 0 Z"
         transform="translate(-607.69802,-279.2284)"
         id="path136" />
    </clipPath>
    <clipPath
       clipPathUnits="userSpaceOnUse"
       id="clipPath138">
      <path
         d="M 0,0 H 960.009 V 540 H 0 Z"
         transform="translate(-650.53442,-256.29601)"
         id="path138" />
    </clipPath>
    <clipPath
       clipPathUnits="userSpaceOnUse"
       id="clipPath140">
      <path
         d="M 0,0 H 960.009 V 540 H 0 Z"
         transform="translate(-622.88372,-267.98611)"
         id="path140" />
    </clipPath>
    <clipPath
       clipPathUnits="userSpaceOnUse"
       id="clipPath142">
      <path
         d="M 0,0 H 960.009 V 540 H 0 Z"
         transform="translate(-650.88982,-289.31181)"
         id="path142" />
    </clipPath>
    <clipPath
       clipPathUnits="userSpaceOnUse"
       id="clipPath144">
      <path
         d="M 0,0 H 960.009 V 540 H 0 Z"
         transform="translate(-670.90652,-304.59101)"
         id="path144" />
    </clipPath>
    <clipPath
       clipPathUnits="userSpaceOnUse"
       id="clipPath146">
      <path
         d="M 0,0 H 960.009 V 540 H 0 Z"
         transform="translate(-675.34091,-252.8968)"
         id="path146" />
    </clipPath>
    <clipPath
       clipPathUnits="userSpaceOnUse"
       id="clipPath148">
      <path
         d="M 0,0 H 960.009 V 540 H 0 Z"
         transform="translate(-731.60292,-301.35641)"
         id="path148" />
    </clipPath>
    <clipPath
       clipPathUnits="userSpaceOnUse"
       id="clipPath150">
      <path
         d="M 0,0 H 960.009 V 540 H 0 Z"
         transform="translate(-769.25522,-269.3509)"
         id="path150" />
    </clipPath>
    <clipPath
       clipPathUnits="userSpaceOnUse"
       id="clipPath152">
      <path
         d="M 0,0 H 960.009 V 540 H 0 Z"
         transform="translate(-797.62959,-270.71421)"
         id="path152" />
    </clipPath>
    <clipPath
       clipPathUnits="userSpaceOnUse"
       id="clipPath154">
      <path
         d="M 0,0 H 960.009 V 540 H 0 Z"
         transform="translate(-819.53545,-251.29921)"
         id="path154" />
    </clipPath>
    <clipPath
       clipPathUnits="userSpaceOnUse"
       id="clipPath106">
      <path
         d="M 0,0 H 960.009 V 540 H 0 Z"
         transform="translate(-854.43355,-222.87901)"
         id="path106" />
    </clipPath>
    <clipPath
       clipPathUnits="userSpaceOnUse"
       id="clipPath108">
      <path
         d="M 0,0 H 960.009 V 540 H 0 Z"
         transform="translate(-845.89442,-183.77151)"
         id="path108" />
    </clipPath>
    <clipPath
       clipPathUnits="userSpaceOnUse"
       id="clipPath110">
      <path
         d="M 0,0 H 960.009 V 540 H 0 Z"
         transform="translate(-827.15155,-207.2536)"
         id="path110" />
    </clipPath>
    <clipPath
       clipPathUnits="userSpaceOnUse"
       id="clipPath112">
      <path
         d="M 0,0 H 960.009 V 540 H 0 Z"
         transform="translate(-821.5558,-184.11621)"
         id="path112" />
    </clipPath>
    <clipPath
       clipPathUnits="userSpaceOnUse"
       id="clipPath100">
      <path
         d="M 0,0 H 960.009 V 540 H 0 Z"
         transform="translate(-788.83644,-175.0057)"
         id="path100" />
    </clipPath>
    <clipPath
       clipPathUnits="userSpaceOnUse"
       id="clipPath102">
      <path
         d="M 0,0 H 960.009 V 540 H 0 Z"
         transform="translate(-762.95784,-218.90061)"
         id="path102" />
    </clipPath>
    <clipPath
       clipPathUnits="userSpaceOnUse"
       id="clipPath104">
      <path
         d="M 0,0 H 960.009 V 540 H 0 Z"
         transform="translate(-767.37212,-210.89581)"
         id="path104" />
    </clipPath>
    <clipPath
       clipPathUnits="userSpaceOnUse"
       id="clipPath96">
      <path
         d="M 0,0 H 960.009 V 540 H 0 Z"
         transform="translate(-667.61321,-172.85541)"
         id="path96" />
    </clipPath>
    <clipPath
       clipPathUnits="userSpaceOnUse"
       id="clipPath98">
      <path
         d="M 0,0 H 960.009 V 540 H 0 Z"
         transform="translate(-707.81362,-221.51581)"
         id="path98" />
    </clipPath>
    <clipPath
       clipPathUnits="userSpaceOnUse"
       id="clipPath88">
      <path
         d="M 0,0 H 960.009 V 540 H 0 Z"
         transform="translate(-599.45281,-229.32291)"
         id="path88" />
    </clipPath>
    <clipPath
       clipPathUnits="userSpaceOnUse"
       id="clipPath90">
      <path
         d="M 0,0 H 960.009 V 540 H 0 Z"
         transform="translate(-649.90772,-199.2534)"
         id="path90" />
    </clipPath>
    <clipPath
       clipPathUnits="userSpaceOnUse"
       id="clipPath92">
      <path
         d="M 0,0 H 960.009 V 540 H 0 Z"
         transform="translate(-638.90842,-203.66491)"
         id="path92" />
    </clipPath>
    <clipPath
       clipPathUnits="userSpaceOnUse"
       id="clipPath94">
      <path
         d="M 0,0 H 960.009 V 540 H 0 Z"
         transform="translate(-628.77641,-189.4174)"
         id="path94" />
    </clipPath>
    <clipPath
       clipPathUnits="userSpaceOnUse"
       id="clipPath84">
      <path
         d="M 0,0 H 960.009 V 540 H 0 Z"
         transform="translate(-584.37121,-231.34611)"
         id="path84" />
    </clipPath>
    <clipPath
       clipPathUnits="userSpaceOnUse"
       id="clipPath86">
      <path
         d="M 0,0 H 960.009 V 540 H 0 Z"
         transform="translate(-586.71481,-200.10211)"
         id="path86" />
    </clipPath>
    <clipPath
       clipPathUnits="userSpaceOnUse"
       id="clipPath74">
      <path
         d="M 0,0 H 960.009 V 540 H 0 Z"
         transform="translate(-469.54581,-229.89861)"
         id="path74" />
    </clipPath>
    <clipPath
       clipPathUnits="userSpaceOnUse"
       id="clipPath76">
      <path
         d="M 0,0 H 960.009 V 540 H 0 Z"
         transform="translate(-504.62411,-187.19301)"
         id="path76" />
    </clipPath>
    <clipPath
       clipPathUnits="userSpaceOnUse"
       id="clipPath78">
      <path
         d="M 0,0 H 960.009 V 540 H 0 Z"
         transform="translate(-479.18201,-202.14411)"
         id="path78" />
    </clipPath>
    <clipPath
       clipPathUnits="userSpaceOnUse"
       id="clipPath80">
      <path
         d="M 0,0 H 960.009 V 540 H 0 Z"
         transform="translate(-512.10071,-205.33581)"
         id="path80" />
    </clipPath>
    <clipPath
       clipPathUnits="userSpaceOnUse"
       id="clipPath82">
      <path
         d="M 0,0 H 960.009 V 540 H 0 Z"
         transform="translate(-504.38371,-189.2929)"
         id="path82" />
    </clipPath>
    <clipPath
       clipPathUnits="userSpaceOnUse"
       id="clipPath62">
      <path
         d="M 0,0 H 960.009 V 540 H 0 Z"
         transform="translate(-400.17211,-197.133)"
         id="path62" />
    </clipPath>
    <clipPath
       clipPathUnits="userSpaceOnUse"
       id="clipPath64">
      <path
         d="M 0,0 H 960.009 V 540 H 0 Z"
         transform="translate(-438.38491,-182.84691)"
         id="path64" />
    </clipPath>
    <clipPath
       clipPathUnits="userSpaceOnUse"
       id="clipPath66">
      <path
         d="M 0,0 H 960.009 V 540 H 0 Z"
         transform="translate(-416.77671,-183.0805)"
         id="path66" />
    </clipPath>
    <clipPath
       clipPathUnits="userSpaceOnUse"
       id="clipPath68">
      <path
         d="M 0,0 H 960.009 V 540 H 0 Z"
         transform="translate(-433.64651,-183.8322)"
         id="path68" />
    </clipPath>
    <clipPath
       clipPathUnits="userSpaceOnUse"
       id="clipPath70">
      <path
         d="M 0,0 H 960.009 V 540 H 0 Z"
         transform="translate(-417.30471,-184.38231)"
         id="path70" />
    </clipPath>
    <clipPath
       clipPathUnits="userSpaceOnUse"
       id="clipPath72">
      <path
         d="M 0,0 H 960.009 V 540 H 0 Z"
         transform="translate(-438.46141,-184.6746)"
         id="path72" />
    </clipPath>
    <clipPath
       clipPathUnits="userSpaceOnUse"
       id="clipPath58">
      <path
         d="M 0,0 H 960.009 V 540 H 0 Z"
         transform="translate(-335.41721,-174.7122)"
         id="path58" />
    </clipPath>
    <clipPath
       clipPathUnits="userSpaceOnUse"
       id="clipPath60">
      <path
         d="M 0,0 H 960.009 V 540 H 0 Z"
         transform="translate(-382.04741,-212.30661)"
         id="path60" />
    </clipPath>
    <clipPath
       clipPathUnits="userSpaceOnUse"
       id="clipPath54">
      <path
         d="M 0,0 H 960.009 V 540 H 0 Z"
         transform="translate(-458.80751,-133.5075)"
         id="path54" />
    </clipPath>
    <clipPath
       clipPathUnits="userSpaceOnUse"
       id="clipPath56">
      <path
         d="M 0,0 H 960.009 V 540 H 0 Z"
         transform="translate(-453.72421,-125.85711)"
         id="path56" />
    </clipPath>
    <clipPath
       clipPathUnits="userSpaceOnUse"
       id="clipPath50">
      <path
         d="M 0,0 H 960.009 V 540 H 0 Z"
         transform="translate(-392.80211,-99.8527)"
         id="path50" />
    </clipPath>
    <clipPath
       clipPathUnits="userSpaceOnUse"
       id="clipPath52">
      <path
         d="M 0,0 H 960.009 V 540 H 0 Z"
         transform="translate(-380.64201,-148.4077)"
         id="path52" />
    </clipPath>
    <clipPath
       clipPathUnits="userSpaceOnUse"
       id="clipPath134-0">
      <path
         d="M 0,0 H 960.009 V 540 H 0 Z"
         transform="translate(-599.74111,-300.49821)"
         id="path134-8" />
    </clipPath>
    <clipPath
       clipPathUnits="userSpaceOnUse"
       id="clipPath136-4">
      <path
         d="M 0,0 H 960.009 V 540 H 0 Z"
         transform="translate(-607.69802,-279.2284)"
         id="path136-9" />
    </clipPath>
    <clipPath
       clipPathUnits="userSpaceOnUse"
       id="clipPath138-3">
      <path
         d="M 0,0 H 960.009 V 540 H 0 Z"
         transform="translate(-650.53442,-256.29601)"
         id="path138-0" />
    </clipPath>
    <clipPath
       clipPathUnits="userSpaceOnUse"
       id="clipPath140-5">
      <path
         d="M 0,0 H 960.009 V 540 H 0 Z"
         transform="translate(-622.88372,-267.98611)"
         id="path140-2" />
    </clipPath>
    <clipPath
       clipPathUnits="userSpaceOnUse"
       id="clipPath142-3">
      <path
         d="M 0,0 H 960.009 V 540 H 0 Z"
         transform="translate(-650.88982,-289.31181)"
         id="path142-8" />
    </clipPath>
  </defs>
  <g
     inkscape:label="Layer 1"
     inkscape:groupmode="layer"
     id="layer1"
     transform="translate(549.01054,443.44168)">
    <path
       id="path133"
       d="M 0,0 C -0.265,1.386 0.731,2.694 2.138,2.809 10.779,3.512 23.518,2.308 31.261,2.021 39.734,1.707 47.331,4.082 55.517,1.892 55.863,1.8 56.224,1.698 56.481,1.45 56.81,1.133 56.936,0.654 56.96,0.2 c 0.496,-9.712 -1.297,-17.899 -0.584,-35.349 0.102,-2.491 0.535,-7.335 0.582,-9.827 0.046,-2.493 -0.713,-5.146 -2.656,-6.73 -1.704,-1.389 -4.013,-1.744 -6.204,-2.006 -15.376,-1.844 -30.996,-1.677 -46.328,0.497 -0.419,0.059 -0.869,0.136 -1.167,0.434 -0.379,0.382 -0.377,0.985 -0.351,1.52 0.137,2.779 0.273,5.557 0.378,8.337 0.572,15.149 0.782,27.292 -0.529,42.396 z"
       style="fill:#f37361;fill-opacity:1;fill-rule:nonzero;stroke:none"
       transform="matrix(0.35277776,0,0,-0.35277776,-548.99544,-442.37412)"
       clip-path="url(#clipPath134-0)" />
    <path
       id="path135"
       d="M 0,0 C 0.742,0.275 1.999,0.742 3.305,1.589 4.69,1.342 6.088,1.188 7.205,2.139 8.686,3.4 9.407,5.14 9.909,6.872 10.49,6.896 11.001,6.834 11.325,6.795 11.45,6.78 11.548,6.769 11.613,6.765 13.241,6.678 15.71,5.988 15.841,4.785 15.882,4.41 15.85,4.043 15.776,3.675 15.127,4.183 14.297,4.59 13.35,4.848 12.989,4.947 12.627,5.01 12.278,5.071 11.517,5.203 10.86,5.318 10.503,5.739 10.365,5.902 10.12,5.923 9.957,5.784 9.794,5.646 9.773,5.401 9.912,5.238 10.45,4.602 11.311,4.452 12.145,4.307 12.477,4.249 12.82,4.19 13.146,4.101 14.116,3.836 14.957,3.39 15.55,2.849 15.479,2.634 15.401,2.417 15.323,2.196 15.145,1.699 14.961,1.184 14.851,0.656 14.693,-0.1 14.78,-1.009 15.497,-1.296 c 0.119,-0.047 0.24,-0.07 0.359,-0.07 0.362,0 0.708,0.21 0.911,0.58 0.55,1.002 0.638,2.011 0.253,2.917 -0.139,0.328 -0.34,0.641 -0.595,0.934 0.159,0.577 0.255,1.174 0.187,1.804 -0.194,1.775 -3.07,2.569 -4.957,2.67 -0.054,0.003 -0.134,0.013 -0.236,0.026 -0.288,0.034 -0.749,0.092 -1.296,0.086 0.079,0.303 0.154,0.604 0.227,0.899 0.179,0.717 0.348,1.393 0.548,1.975 0.061,0.176 0.114,0.345 0.158,0.509 0.535,-0.102 1.073,-0.198 1.613,-0.283 10e-4,-0.004 0.002,-0.007 0.004,-0.011 0.509,-1.387 1.521,-2.071 2.779,-1.875 1.035,0.161 1.331,1.131 1.461,1.924 0.357,0.178 0.698,0.441 1.038,0.817 0.374,0.412 0.834,1.062 0.896,1.819 0.033,0.405 -0.072,0.977 -0.382,1.342 -0.182,0.213 -0.417,0.337 -0.68,0.358 -0.265,0.02 -0.513,-0.062 -0.718,-0.239 -0.602,-0.522 -0.731,-1.764 -0.811,-2.992 -0.013,-0.193 -0.024,-0.36 -0.037,-0.461 l -0.011,-0.092 c -10e-4,0 -10e-4,0 -10e-4,0 -0.445,-0.13 -0.946,-0.125 -1.581,-0.063 -0.463,0.046 -0.927,0.104 -1.39,0.171 -0.015,0.04 -0.03,0.08 -0.045,0.121 -0.363,0.968 -0.706,1.882 -0.881,2.873 -0.174,0.982 -0.29,2.18 0.361,2.741 0.3,0.258 0.837,0.402 1.335,0.357 0.413,-0.038 0.752,-0.197 0.955,-0.448 0.552,-0.685 0.519,-1.775 0.304,-2.568 C 15.193,14.258 15,13.547 14.637,13.416 14.397,13.33 14.18,13.53 13.81,13.982 c -0.038,0.047 -0.076,0.093 -0.112,0.135 -0.138,0.164 -0.382,0.185 -0.546,0.047 -0.163,-0.138 -0.184,-0.383 -0.046,-0.547 0.034,-0.039 0.068,-0.082 0.104,-0.126 0.334,-0.408 0.892,-1.092 1.691,-0.804 0.741,0.268 1.001,1.226 1.112,1.635 0.343,1.266 0.175,2.483 -0.449,3.257 -0.335,0.416 -0.864,0.677 -1.488,0.733 -0.715,0.066 -1.447,-0.142 -1.911,-0.541 -1.068,-0.92 -0.753,-2.702 -0.618,-3.463 0.169,-0.955 0.486,-1.853 0.81,-2.721 -0.384,0.064 -0.767,0.134 -1.149,0.207 0.031,0.26 0.037,0.503 0.016,0.731 -0.053,0.614 -0.327,1.096 -0.79,1.396 -0.789,0.51 -1.951,0.385 -2.775,0.097 C 6.943,13.769 6.301,13.389 5.686,12.992 4.771,13.21 3.741,13.443 2.774,13.098 2.244,12.908 1.353,12.475 1.342,11.703 1.332,11.065 1.976,10.65 2.603,10.617 c 0.777,-0.039 1.528,0.444 2.13,0.833 0.082,0.053 0.162,0.104 0.238,0.152 0.234,0.146 0.465,0.298 0.696,0.451 0.055,0.036 0.109,0.072 0.164,0.108 0.633,-0.149 1.309,-0.302 2.06,-0.464 L 8.153,11.64 C 8.859,11.486 9.574,11.331 10.294,11.185 10.257,11.054 10.215,10.919 10.166,10.778 9.954,10.164 9.781,9.471 9.599,8.738 9.505,8.363 9.41,7.98 9.306,7.595 8.158,7.442 6.864,6.932 6.043,5.502 5.249,4.12 4.198,3.128 3.146,2.406 3.107,2.413 3.068,2.42 3.029,2.427 1.673,2.679 0.135,2.964 -1.287,2.321 -2.042,1.98 -2.211,1.215 -1.987,0.668 -1.745,0.081 -1.021,-0.379 0,0 m 16.053,1.936 c 0.026,0.075 0.053,0.15 0.08,0.225 0.068,-0.109 0.126,-0.22 0.174,-0.333 0.292,-0.689 0.218,-1.443 -0.22,-2.242 -0.038,-0.069 -0.144,-0.227 -0.302,-0.162 -0.24,0.095 -0.269,0.624 -0.175,1.073 0.099,0.476 0.266,0.944 0.443,1.439 m 0.976,9.908 c 0.045,0.682 0.138,2.103 0.546,2.456 0.043,0.037 0.08,0.053 0.129,0.053 0.006,0 0.013,0 0.02,-10e-4 0.038,-0.003 0.089,-0.016 0.15,-0.088 0.151,-0.177 0.221,-0.533 0.201,-0.775 -0.045,-0.54 -0.404,-1.039 -0.698,-1.363 -0.118,-0.13 -0.235,-0.243 -0.352,-0.341 0.001,0.019 0.003,0.039 0.004,0.059 M 14.55,10.507 c 0.561,-0.055 1.059,-0.067 1.518,0.011 -0.121,-0.487 -0.32,-0.823 -0.736,-0.888 -0.939,-0.146 -1.473,0.444 -1.76,0.99 0.325,-0.043 0.651,-0.081 0.978,-0.113 M 4.56,12.259 C 4.481,12.209 4.398,12.156 4.313,12.101 3.804,11.772 3.172,11.364 2.644,11.391 c -0.258,0.014 -0.529,0.168 -0.527,0.301 0.003,0.206 0.38,0.484 0.918,0.676 0.259,0.092 0.536,0.129 0.822,0.129 0.302,0 0.614,-0.041 0.922,-0.099 C 4.706,12.351 4.633,12.304 4.56,12.259 m 3.757,0.138 -0.261,0.057 c -0.459,0.099 -0.889,0.195 -1.299,0.288 0.373,0.215 0.753,0.404 1.157,0.545 0.67,0.233 1.58,0.318 2.099,-0.017 0.263,-0.17 0.406,-0.436 0.439,-0.813 0.014,-0.159 0.012,-0.329 -0.007,-0.512 -0.715,0.146 -1.425,0.3 -2.128,0.452 M 6.715,5.116 C 7.304,6.142 8.2,6.593 9.069,6.772 8.603,5.26 7.939,3.782 6.702,2.729 6.018,2.147 5.171,2.107 4.202,2.231 5.123,2.959 6.016,3.899 6.715,5.116 M -0.968,1.615 c 0.529,0.239 1.086,0.324 1.655,0.324 0.484,0 0.977,-0.062 1.469,-0.143 C 1.212,1.276 0.336,0.951 -0.27,0.727 -0.848,0.513 -1.17,0.72 -1.27,0.962 -1.359,1.179 -1.3,1.465 -0.968,1.615"
       style="fill:#ffffff;fill-opacity:1;fill-rule:nonzero;stroke:none"
       transform="matrix(0.35277776,0,0,-0.35277776,-546.18842,-434.8706)"
       clip-path="url(#clipPath136-4)" />
    <path
       id="path137"
       d="M 0,0 C -0.188,0.126 -0.416,0.209 -0.697,0.253 -1.605,0.396 -2.65,0.166 -3.488,-0.019 l -0.04,-0.009 C -4.259,-0.189 -4.865,-0.421 -5.364,-0.733 -5.608,-0.74 -5.85,-0.75 -6.09,-0.759 l -0.436,-0.018 c -0.51,-0.018 -1.021,-0.044 -1.531,-0.069 -1.224,-0.062 -2.488,-0.125 -3.725,-0.082 -1.019,0.036 -2.059,0.153 -3.065,0.267 -0.386,0.044 -0.775,0.088 -1.167,0.127 -0.051,0.152 -0.134,0.29 -0.247,0.403 -0.235,0.234 -0.544,0.309 -0.769,0.364 -0.301,0.075 -0.613,0.135 -0.942,0.2 -1.089,0.212 -2.215,0.432 -2.908,1.133 -0.179,0.182 -0.337,0.386 -0.479,0.603 0.193,0.004 0.385,0.012 0.575,0.02 1.171,0.051 2.381,0.104 4.156,-0.965 0.602,-0.363 1.511,-0.407 2.493,-0.124 1.198,0.347 2.203,1.079 2.622,1.913 0.595,1.182 1.306,2.36 2.469,2.962 0.539,0.28 1.179,0.417 1.836,0.405 C -7.349,6.245 -7.483,6.109 -7.614,5.977 L -7.659,5.932 C -7.981,5.605 -8.315,5.236 -8.679,4.803 -8.746,4.723 -8.816,4.642 -8.886,4.562 -9.204,4.196 -9.533,3.817 -9.746,3.344 -9.797,3.231 -9.932,2.931 -9.786,2.635 c 0.231,-0.467 0.705,-0.511 0.989,-0.426 0.618,0.13 1.184,0.473 1.731,0.806 1.156,0.702 1.794,1.027 2.538,0.139 0.35,-0.417 0.409,-1.063 0.141,-1.536 C -4.715,1.038 -5.445,0.744 -5.851,0.62 -6.201,0.513 -6.58,0.467 -6.977,0.483 c -0.134,0.005 -0.299,0.02 -0.383,0.085 -0.082,0.065 -0.12,0.219 -0.093,0.375 0.035,0.205 0.159,0.416 0.279,0.62 0.108,0.184 0.047,0.422 -0.138,0.53 C -7.497,2.202 -7.734,2.14 -7.842,1.955 -7.99,1.704 -8.158,1.419 -8.217,1.076 -8.294,0.63 -8.149,0.201 -7.838,-0.042 c 0.259,-0.202 0.58,-0.24 0.83,-0.25 0.483,-0.019 0.95,0.038 1.384,0.171 0.516,0.158 1.45,0.543 1.911,1.357 0.429,0.756 0.338,1.75 -0.221,2.417 C -5.141,5.091 -6.431,4.307 -7.468,3.677 -7.965,3.375 -8.479,3.064 -8.972,2.965 -8.99,2.961 -9.007,2.957 -9.025,2.95 c 0,0 -0.031,-0.003 -0.045,0 0.005,0.016 0.015,0.041 0.03,0.076 0.167,0.368 0.445,0.689 0.739,1.028 0.073,0.084 0.145,0.167 0.216,0.25 0.35,0.417 0.67,0.771 0.978,1.083 l 0.044,0.045 c 0.279,0.282 0.563,0.57 0.867,0.809 0.835,-0.215 1.657,-0.674 2.386,-1.332 l 0.051,-0.046 c 0.202,-0.184 0.453,-0.413 0.81,-0.494 0.238,-0.055 0.477,-0.022 0.674,0.091 0.208,0.12 0.349,0.307 0.408,0.543 0.081,0.326 -0.007,0.736 -0.234,1.095 -0.74,1.169 -2.173,1.753 -3.407,1.386 C -5.821,7.392 -6.105,7.247 -6.369,7.072 -7.437,7.27 -8.506,7.127 -9.401,6.663 -10.763,5.957 -11.583,4.598 -12.205,3.361 -12.526,2.724 -13.368,2.129 -14.35,1.845 c -0.764,-0.221 -1.466,-0.205 -1.878,0.043 -1.975,1.189 -3.364,1.129 -4.59,1.076 -0.338,-0.015 -0.659,-0.029 -0.978,-0.017 -0.09,0.181 -0.177,0.366 -0.262,0.548 l -0.045,0.095 c -0.509,1.082 -1.355,2.539 -2.834,2.716 -0.347,0.042 -0.629,-0.024 -0.838,-0.193 -0.364,-0.297 -0.425,-0.838 -0.157,-1.412 0.398,-0.856 1.157,-1.586 2.139,-2.056 0.535,-0.256 1.033,-0.381 1.507,-0.437 0.233,-0.424 0.503,-0.831 0.855,-1.187 0.861,-0.87 2.162,-1.125 3.31,-1.349 0.121,-0.024 0.24,-0.047 0.356,-0.07 -0.542,0.025 -1.086,0.029 -1.629,0.002 -0.806,-0.04 -1.62,-0.136 -2.407,-0.228 -0.574,-0.068 -1.155,-0.137 -1.737,-0.183 -0.141,0.072 -0.281,0.145 -0.42,0.218 -0.857,0.447 -1.667,0.869 -2.411,1.126 -0.378,0.13 -0.784,0.233 -1.201,0.111 -0.69,-0.205 -0.778,-0.621 -0.769,-0.85 0.024,-0.598 0.771,-1.121 1.295,-1.231 1.118,-0.236 2.239,-0.243 3.347,-0.164 2.243,-1.148 4.885,-2.284 7.02,-0.574 0.328,0.262 0.539,0.536 0.647,0.835 0.003,0.008 0.005,0.016 0.008,0.024 0.365,-0.037 0.728,-0.078 1.088,-0.119 1.02,-0.115 2.075,-0.235 3.125,-0.272 1.27,-0.045 2.551,0.02 3.79,0.082 0.507,0.026 1.014,0.052 1.521,0.07 l 0.175,0.007 c -0.204,-0.214 -0.395,-0.435 -0.583,-0.652 -0.363,-0.419 -0.706,-0.815 -1.116,-1.142 -0.333,-0.265 -0.6,-0.357 -0.84,-0.291 -0.181,0.05 -0.355,0.185 -0.539,0.327 -0.069,0.053 -0.138,0.106 -0.207,0.156 -0.957,0.682 -1.664,0.238 -2.252,-0.231 -0.5,-0.399 -0.822,-0.429 -1.275,-0.118 -0.102,0.07 -0.201,0.146 -0.301,0.222 -0.464,0.354 -1.041,0.795 -1.821,0.584 -0.377,-0.102 -0.709,-0.267 -1.03,-0.427 -0.515,-0.256 -0.96,-0.477 -1.501,-0.414 -0.212,0.024 -0.405,-0.127 -0.43,-0.34 -0.025,-0.212 0.127,-0.405 0.34,-0.429 0.77,-0.091 1.389,0.217 1.936,0.489 0.301,0.15 0.585,0.291 0.887,0.373 0.392,0.106 0.692,-0.103 1.149,-0.452 0.11,-0.084 0.22,-0.168 0.332,-0.245 0.366,-0.25 0.7,-0.345 1,-0.345 0.496,0 0.899,0.258 1.197,0.496 0.609,0.487 0.868,0.527 1.319,0.206 0.062,-0.044 0.122,-0.091 0.183,-0.138 0.225,-0.174 0.479,-0.37 0.806,-0.461 0.494,-0.136 0.994,0.005 1.53,0.432 0.466,0.371 0.849,0.813 1.219,1.241 0.322,0.371 0.626,0.723 0.977,1.026 0.07,0.061 0.144,0.119 0.222,0.175 0.437,0.008 0.876,0.004 1.301,-0.032 0.35,-0.03 0.699,-0.089 1.068,-0.152 0.642,-0.11 1.307,-0.223 1.986,-0.168 0.227,0.018 0.423,0.068 0.598,0.151 0.524,0.247 0.627,0.62 0.642,0.82 C 0.499,-0.546 0.322,-0.216 0,0 M -2.756,5.684 C -2.648,5.513 -2.591,5.305 -2.62,5.189 -2.628,5.156 -2.639,5.145 -2.661,5.132 -2.687,5.117 -2.731,5.114 -2.776,5.124 -2.935,5.16 -3.075,5.288 -3.237,5.436 L -3.29,5.484 c -0.61,0.55 -1.282,0.978 -1.978,1.263 0.89,0.252 1.966,-0.202 2.512,-1.063 m -20.702,-2.34 c -0.82,0.393 -1.449,0.991 -1.772,1.684 -0.105,0.226 -0.114,0.436 -0.056,0.483 0.021,0.017 0.071,0.032 0.153,0.032 0.03,0 0.065,-0.002 0.105,-0.007 0.833,-0.099 1.54,-0.822 2.223,-2.275 l 0.045,-0.095 c 0.015,-0.031 0.029,-0.062 0.044,-0.093 -0.239,0.061 -0.485,0.148 -0.742,0.271 m -3.426,-4.019 c -0.285,0.06 -0.629,0.346 -0.676,0.485 0.027,0.021 0.091,0.059 0.211,0.095 0.206,0.06 0.471,-0.013 0.727,-0.101 0.464,-0.16 0.972,-0.398 1.507,-0.668 -0.594,0.011 -1.186,0.066 -1.769,0.189 m 9.723,-0.891 c -1.46,-1.169 -3.281,-0.698 -5.062,0.112 0.171,0.019 0.342,0.04 0.513,0.06 0.774,0.091 1.575,0.186 2.354,0.224 0.833,0.041 1.676,0.004 2.514,-0.065 -0.072,-0.108 -0.177,-0.217 -0.319,-0.331 M -0.5,-1.003 c -0.089,-0.042 -0.196,-0.068 -0.329,-0.079 -0.582,-0.047 -1.17,0.054 -1.793,0.16 -0.261,0.044 -0.528,0.09 -0.798,0.124 0.02,0.004 0.039,0.009 0.059,0.013 l 0.039,0.009 c 0.776,0.171 1.74,0.383 2.505,0.263 0.167,-0.026 0.293,-0.069 0.385,-0.131 0.092,-0.061 0.137,-0.138 0.133,-0.181 -0.003,-0.04 -0.057,-0.11 -0.201,-0.178"
       style="fill:#ffffff;fill-opacity:1;fill-rule:nonzero;stroke:none"
       transform="matrix(0.35277776,0,0,-0.35277776,-531.07669,-426.78056)"
       clip-path="url(#clipPath138-3)" />
    <path
       id="path139"
       d="M 0,0 C 0.085,0 0.17,0.002 0.252,0.004 0.379,0.007 0.5,0.011 0.606,0.006 1.169,-0.02 1.732,-0.045 2.295,-0.069 4.181,-0.15 6.17,-0.228 8.746,-0.321 8.96,-0.33 9.139,-0.162 9.147,0.052 9.155,0.266 8.988,0.446 8.774,0.453 6.2,0.547 4.212,0.625 2.328,0.706 1.766,0.73 1.203,0.755 0.641,0.78 0.605,0.782 0.568,0.782 0.53,0.783 0.644,1.287 0.487,1.855 -0.031,2.112 -0.563,2.375 -1.147,2.171 -1.419,1.627 c -0.204,-0.408 -0.183,-0.958 0.2,-1.301 -1.039,-0.384 -1.99,-0.716 -2.903,-1.014 -0.848,-0.277 -1.683,-0.53 -2.492,-0.754 -0.254,0.504 -0.617,0.909 -1.026,1.239 1.055,1.088 1.239,2.506 1.276,3.665 0.025,0.778 0.053,1.66 0.663,2.068 0.378,0.252 0.853,0.337 1.304,0.233 C -3.991,5.67 -3.658,5.431 -3.46,5.091 -3.016,4.332 -3.212,3.258 -3.544,2.507 -3.655,2.253 -3.952,1.58 -4.33,1.505 -4.58,1.456 -4.766,1.685 -5.063,2.188 -5.094,2.24 -5.125,2.291 -5.154,2.338 -5.266,2.521 -5.504,2.578 -5.687,2.466 -5.869,2.354 -5.926,2.115 -5.814,1.933 -5.787,1.888 -5.759,1.841 -5.73,1.792 c 0.269,-0.453 0.719,-1.214 1.551,-1.047 0.773,0.153 1.174,1.062 1.345,1.449 0.528,1.2 0.545,2.429 0.044,3.288 C -3.098,6.008 -3.606,6.377 -4.223,6.519 -4.881,6.67 -5.577,6.545 -6.132,6.174 -7.073,5.545 -7.111,4.355 -7.139,3.469 -7.188,1.938 -7.534,0.958 -8.29,0.243 c -0.465,0.272 -0.945,0.473 -1.366,0.629 -0.388,0.145 -0.789,0.275 -1.177,0.401 -0.455,0.147 -0.899,0.291 -1.326,0.456 -0.092,0.219 -0.177,0.456 -0.266,0.703 -0.282,0.78 -0.601,1.665 -1.26,2.22 -0.336,0.283 -0.827,0.37 -1.222,0.216 -0.35,-0.136 -0.581,-0.436 -0.631,-0.823 -0.131,-0.998 0.934,-1.85 1.399,-2.17 0.443,-0.305 0.917,-0.545 1.402,-0.748 0.005,-0.01 0.01,-0.019 0.015,-0.029 0.063,-0.128 0.123,-0.261 0.184,-0.395 0.232,-0.515 0.496,-1.099 1.011,-1.487 1.048,-0.793 2.37,-0.538 3.283,0.072 0.379,-0.28 0.663,-0.589 0.863,-0.937 -0.255,-0.065 -0.516,-0.126 -0.77,-0.186 -0.715,-0.167 -1.453,-0.34 -2.157,-0.622 -1.12,-0.448 -1.798,-1.088 -2.069,-1.954 -0.49,-0.106 -0.972,-0.252 -1.435,-0.466 -1.612,-0.745 -2.73,-2.462 -3.07,-4.71 -0.015,-0.095 -0.025,-0.19 -0.033,-0.284 -0.563,-0.473 -1.21,-1.102 -1.601,-1.919 -0.227,-0.475 -0.544,-1.468 -0.29,-2.181 0.106,-0.299 0.306,-0.525 0.577,-0.653 0.185,-0.087 0.37,-0.13 0.55,-0.13 0.189,0 0.372,0.047 0.545,0.143 0.677,0.373 0.967,1.372 1.025,1.848 0.065,0.531 0.028,1.053 -0.008,1.558 -0.023,0.327 -0.046,0.642 -0.041,0.952 0.745,0.597 1.536,1.134 2.486,1.75 0.287,0.186 0.573,0.379 0.859,0.572 0.452,0.304 0.917,0.617 1.387,0.904 0.03,-0.025 0.06,-0.05 0.089,-0.075 0.287,-0.243 0.557,-0.472 0.705,-0.763 0.12,-0.236 0.136,-0.507 0.101,-0.768 -0.387,-0.085 -0.788,-0.157 -1.176,-0.225 l -0.372,-0.067 c -0.431,-0.078 -0.918,-0.166 -1.305,-0.514 -0.406,-0.367 -0.645,-1.058 -0.287,-1.617 0.278,-0.433 0.815,-0.612 1.474,-0.488 0.846,0.158 1.612,0.767 2.05,1.628 0.086,0.169 0.184,0.389 0.262,0.638 0.702,0.175 1.505,0.456 1.995,1.128 0.284,0.39 0.395,0.884 0.305,1.354 -0.082,0.428 -0.324,0.787 -0.683,1.013 -0.764,0.481 -1.844,0.381 -3.049,-0.282 -0.269,0.308 -0.402,0.64 -0.395,0.993 0.427,0.07 0.865,0.12 1.315,0.171 0.544,0.061 1.107,0.125 1.651,0.231 1.15,0.223 1.878,0.617 2.226,1.205 0.221,0.373 0.279,0.807 0.172,1.292 0.801,0.224 1.628,0.475 2.466,0.748 0.951,0.31 1.941,0.657 3.026,1.059 0.055,0.021 0.113,0.04 0.172,0.06 C -0.466,-0.231 -0.217,-0.146 0,0 m -13.7,2.513 c -0.532,0.367 -1.132,0.962 -1.07,1.431 0.014,0.106 0.058,0.168 0.144,0.202 0.041,0.015 0.087,0.023 0.134,0.023 0.108,0 0.223,-0.039 0.308,-0.11 0.496,-0.418 0.765,-1.158 1.024,-1.875 -0.185,0.1 -0.365,0.209 -0.54,0.329 m 2.64,-2.679 c -0.286,0.216 -0.472,0.545 -0.644,0.909 0.211,-0.071 0.422,-0.139 0.632,-0.208 0.38,-0.123 0.773,-0.251 1.147,-0.389 0.342,-0.127 0.651,-0.26 0.927,-0.401 -0.64,-0.312 -1.432,-0.387 -2.062,0.089 m -5.818,-12.503 c -0.058,-0.472 -0.315,-1.09 -0.63,-1.264 -0.08,-0.043 -0.195,-0.082 -0.391,0.01 -0.057,0.027 -0.129,0.076 -0.177,0.212 -0.147,0.413 0.063,1.176 0.259,1.586 0.223,0.465 0.556,0.868 0.904,1.211 0.007,-0.116 0.015,-0.232 0.023,-0.346 0.035,-0.49 0.068,-0.952 0.012,-1.409 m 6.04,3.104 c -0.329,-0.648 -0.891,-1.103 -1.501,-1.217 -0.123,-0.023 -0.535,-0.081 -0.68,0.144 -0.121,0.19 -0.014,0.471 0.154,0.623 0.223,0.201 0.563,0.262 0.923,0.327 l 0.371,0.066 c 0.255,0.046 0.515,0.092 0.775,0.143 -0.015,-0.032 -0.029,-0.06 -0.042,-0.086 m 2.157,3.126 c 0.224,-0.141 0.306,-0.351 0.335,-0.502 0.049,-0.257 -0.015,-0.538 -0.171,-0.753 -0.274,-0.376 -0.746,-0.593 -1.222,-0.739 0.004,0.305 -0.05,0.62 -0.202,0.918 -0.189,0.374 -0.484,0.652 -0.765,0.894 0.591,0.289 1.428,0.558 2.025,0.182 m -4.565,-0.85 c -0.283,-0.19 -0.565,-0.38 -0.848,-0.564 -0.71,-0.46 -1.334,-0.879 -1.92,-1.312 0.247,1.092 0.89,2.828 2.527,3.584 0.324,0.15 0.66,0.263 1.005,0.35 0.029,-0.437 0.195,-0.857 0.491,-1.234 -0.428,-0.266 -0.846,-0.548 -1.255,-0.824 m 6.059,4.219 c -0.226,-0.381 -0.8,-0.663 -1.706,-0.839 -0.515,-0.1 -1.062,-0.162 -1.592,-0.222 -0.322,-0.037 -0.648,-0.074 -0.974,-0.119 0.27,0.442 0.745,0.796 1.439,1.074 0.649,0.26 1.359,0.426 2.046,0.587 0.287,0.067 0.584,0.137 0.877,0.213 0.054,-0.274 0.024,-0.502 -0.09,-0.694 m 6.461,4.35 c 0.043,0.085 0.113,0.171 0.223,0.171 0.038,0 0.08,-0.01 0.128,-0.033 C -0.158,1.31 -0.185,1.002 -0.273,0.817 -0.278,0.806 -0.284,0.794 -0.291,0.784 -0.427,0.794 -0.549,0.816 -0.634,0.859 -0.873,0.98 -0.732,1.268 -0.726,1.28"
       style="fill:#ffffff;fill-opacity:1;fill-rule:nonzero;stroke:none"
       transform="matrix(0.35277776,0,0,-0.35277776,-540.83125,-430.90457)"
       clip-path="url(#clipPath140-5)" />
    <path
       id="path141"
       d="m 0,0 c -0.31,0 -0.619,-0.001 -0.929,-0.003 -0.27,-0.002 -0.54,-0.003 -0.81,-0.003 -0.139,0 -0.28,0.002 -0.42,0.005 -0.459,0.008 -0.934,0.016 -1.411,-0.066 -0.255,-0.044 -0.521,-0.166 -0.756,-0.336 -0.307,0.047 -0.654,0.037 -0.782,0.031 -1.05,-0.045 -3.497,-0.246 -5.272,-0.466 -0.06,0.066 -0.123,0.135 -0.188,0.206 -0.603,0.657 -1.427,1.557 -1.913,2.594 -0.426,0.911 -0.536,1.85 -0.281,2.392 0.158,0.338 0.479,0.594 0.88,0.703 0.433,0.118 0.897,0.046 1.243,-0.191 0.704,-0.481 0.979,-1.504 1.001,-2.302 0.007,-0.268 0.027,-0.981 -0.271,-1.202 -0.2,-0.149 -0.318,-0.198 -0.794,0.301 -0.147,0.154 -0.392,0.16 -0.547,0.012 -0.155,-0.147 -0.161,-0.393 -0.013,-0.547 0.315,-0.33 0.97,-1.017 1.816,-0.388 0.622,0.462 0.595,1.432 0.583,1.846 -0.035,1.28 -0.535,2.371 -1.337,2.92 -0.539,0.369 -1.226,0.478 -1.885,0.299 -0.621,-0.169 -1.123,-0.578 -1.378,-1.121 -0.423,-0.901 -0.132,-2.166 0.281,-3.05 0.489,-1.044 1.256,-1.926 1.869,-2.6 -0.315,-0.048 -0.578,-0.097 -0.769,-0.143 -0.374,0.267 -1.03,0.47 -1.709,0.412 -0.617,-0.053 -1.478,-0.336 -2.081,-1.387 -0.648,-1.13 -0.178,-2.122 0.455,-2.777 -0.02,-0.165 -0.027,-0.33 -0.021,-0.493 0.028,-0.751 0.341,-1.418 0.905,-1.928 0.046,-0.042 0.093,-0.081 0.143,-0.119 0.223,-0.169 0.45,-0.265 0.676,-0.285 0.293,-0.026 0.578,0.079 0.767,0.281 0.256,0.275 0.314,0.712 0.153,1.142 -0.283,0.75 -1.015,1.194 -1.5,1.487 -0.023,0.015 -0.134,0.083 -0.277,0.197 0.137,0.492 0.416,0.981 0.806,1.392 0.438,0.461 1.007,0.906 1.471,1.16 1.056,-1.519 0.872,-3.725 0.588,-5.498 -0.483,0.148 -0.997,0.075 -1.35,-0.208 -0.765,-0.613 -0.635,-1.822 -0.548,-2.622 l 0.021,-0.192 c 0.08,-0.811 0.23,-1.616 0.375,-2.395 0.027,-0.147 0.054,-0.293 0.081,-0.439 -0.158,-0.331 -0.366,-0.669 -0.583,-1.023 -0.472,-0.768 -0.96,-1.563 -1.031,-2.448 -0.045,-0.567 0.153,-1.09 0.529,-1.397 0.279,-0.227 0.533,-0.3 0.745,-0.3 0.135,0 0.253,0.029 0.35,0.068 0.702,0.284 1.009,1.362 1.072,1.892 0.114,0.943 -0.054,1.874 -0.216,2.774 l -0.047,0.26 c -0.005,0.025 -0.009,0.051 -0.014,0.077 0.003,0.007 0.006,0.014 0.009,0.022 0.484,1.185 0.835,2.515 1.072,4.067 0.024,0.157 0.054,0.328 0.086,0.512 0.058,-0.071 0.117,-0.147 0.177,-0.227 0.515,-0.688 0.984,-1.437 1.403,-2.239 -0.006,-0.085 -0.012,-0.17 -0.018,-0.254 -0.04,-0.537 -0.145,-1.079 -0.256,-1.653 -0.199,-1.027 -0.405,-2.089 -0.218,-3.149 0.187,-1.062 0.701,-1.709 1.375,-1.732 0.337,-0.01 0.637,0.114 0.863,0.36 0.644,0.701 0.506,2.167 0.472,2.454 -0.129,1.08 -0.51,2.085 -0.867,2.926 -0.175,0.414 -0.363,0.818 -0.562,1.21 0.047,0.659 0.089,1.319 0.131,1.979 0.024,0.372 0.048,0.744 0.073,1.116 0.141,2.128 0.102,4.557 -1.224,6.535 1.6,0.182 3.643,0.358 4.734,0.405 0.038,10e-4 0.078,0.003 0.119,0.003 -0.132,-0.298 -0.141,-0.606 -0.023,-0.877 0.201,-0.466 0.624,-0.69 1.077,-0.574 0.494,0.128 0.843,0.619 0.795,1.119 -0.023,0.234 -0.143,0.453 -0.347,0.642 0.004,0.001 0.008,0.001 0.013,0.002 0.405,0.07 0.824,0.062 1.266,0.055 0.137,-0.003 0.274,-0.005 0.41,-0.005 0.276,-0.003 0.559,0.001 0.838,0.003 0.227,0.001 0.453,0.002 0.68,0.003 -0.012,-0.074 -0.024,-0.144 -0.036,-0.204 l -2.171,-0.02 C -2.666,-1.001 -2.838,-1.176 -2.836,-1.39 l 0.007,-0.787 h -0.174 c -0.215,0 -0.388,-0.173 -0.388,-0.388 0,-0.214 0.173,-0.387 0.388,-0.387 h 0.384 c 0.153,0 0.297,0.06 0.405,0.17 0.108,0.11 0.165,0.255 0.162,0.404 l -0.006,0.607 2.062,0.019 c 0.116,0.001 0.225,0.054 0.298,0.143 0.05,0.062 0.167,0.207 0.258,1.002 0.001,0.014 0.002,0.029 0.002,0.044 C 0.562,-0.254 0.31,-0.001 0,0 m -13.521,-6.536 c 0.053,-0.141 0.056,-0.287 0.006,-0.34 -0.021,-0.023 -0.073,-0.044 -0.132,-0.038 -0.078,0.007 -0.17,0.05 -0.274,0.129 -0.032,0.024 -0.062,0.05 -0.092,0.077 -0.377,0.341 -0.592,0.759 -0.642,1.244 0.505,-0.307 0.965,-0.624 1.134,-1.072 m -0.807,3.883 c -0.367,-0.387 -0.652,-0.824 -0.842,-1.28 -0.307,0.484 -0.317,0.964 -0.031,1.463 0.35,0.611 0.846,0.947 1.474,1.001 0.059,0.005 0.117,0.007 0.173,0.007 0.21,0 0.402,-0.032 0.565,-0.077 -0.454,-0.292 -0.934,-0.689 -1.339,-1.114 m 1.513,-13.843 c -0.06,-0.499 -0.332,-1.161 -0.593,-1.266 -0.029,-0.012 -0.117,-0.048 -0.315,0.114 -0.211,0.172 -0.266,0.492 -0.246,0.735 0.055,0.699 0.494,1.413 0.918,2.103 0.046,0.074 0.091,0.148 0.136,0.223 0.104,-0.641 0.175,-1.288 0.1,-1.909 m 0.943,8.019 c -0.052,-0.292 -0.1,-0.56 -0.136,-0.795 -0.15,-0.981 -0.346,-1.867 -0.594,-2.68 -0.086,0.492 -0.162,0.989 -0.211,1.481 l -0.021,0.2 c -0.069,0.631 -0.172,1.586 0.262,1.934 0.101,0.081 0.231,0.114 0.363,0.114 0.127,0 0.257,-0.031 0.369,-0.077 -0.011,-0.06 -0.021,-0.119 -0.032,-0.177 m 2.92,-4.184 c 0.004,-0.011 0.009,-0.022 0.014,-0.033 0.335,-0.79 0.693,-1.731 0.81,-2.715 0.079,-0.661 0.01,-1.53 -0.273,-1.838 -0.073,-0.08 -0.154,-0.111 -0.267,-0.109 -0.307,0.01 -0.545,0.573 -0.637,1.092 -0.161,0.918 0.022,1.865 0.216,2.867 0.047,0.242 0.094,0.488 0.137,0.736 m -0.404,4.627 c -0.025,-0.373 -0.049,-0.746 -0.073,-1.119 -0.017,-0.262 -0.034,-0.524 -0.051,-0.786 -0.276,0.453 -0.57,0.887 -0.879,1.3 -0.185,0.247 -0.388,0.496 -0.631,0.704 0.306,1.813 0.586,4.324 -0.539,6.152 0.226,0.039 0.512,0.081 0.838,0.124 0.05,-0.06 0.094,-0.114 0.129,-0.163 1.306,-1.811 1.342,-4.156 1.206,-6.212 m 5.262,6.191 c -0.039,-0.01 -0.104,-0.027 -0.172,0.13 -0.036,0.083 -0.021,0.185 0.044,0.305 0.023,0.042 0.051,0.083 0.082,0.124 0.165,-0.1 0.258,-0.204 0.264,-0.265 0.013,-0.137 -0.104,-0.265 -0.218,-0.294"
       style="fill:#ffffff;fill-opacity:1;fill-rule:nonzero;stroke:none"
       transform="matrix(0.35277776,0,0,-0.35277776,-530.95131,-438.42781)"
       clip-path="url(#clipPath142-3)" />
  </g>
</svg>
