<?xml version="1.0" encoding="UTF-8" standalone="no"?>
<!-- Created with Inkscape (http://www.inkscape.org/) -->

<svg
   width="20.46356mm"
   height="20.278624mm"
   viewBox="0 0 20.463559 20.278624"
   version="1.1"
   id="svg1"
   inkscape:version="1.4 (e7c3feb1, 2024-10-09)"
   sodipodi:docname="TKD.svg"
   xmlns:inkscape="http://www.inkscape.org/namespaces/inkscape"
   xmlns:sodipodi="http://sodipodi.sourceforge.net/DTD/sodipodi-0.dtd"
   xmlns="http://www.w3.org/2000/svg"
   xmlns:svg="http://www.w3.org/2000/svg">
  <sodipodi:namedview
     id="namedview1"
     pagecolor="#ffffff"
     bordercolor="#000000"
     borderopacity="0.25"
     inkscape:showpageshadow="2"
     inkscape:pageopacity="0.0"
     inkscape:pagecheckerboard="0"
     inkscape:deskcolor="#d1d1d1"
     inkscape:document-units="mm"
     inkscape:zoom="2.096401"
     inkscape:cx="-100.41018"
     inkscape:cy="68.450646"
     inkscape:window-width="1440"
     inkscape:window-height="872"
     inkscape:window-x="0"
     inkscape:window-y="28"
     inkscape:window-maximized="0"
     inkscape:current-layer="layer1" />
  <defs
     id="defs1">
    <clipPath
       clipPathUnits="userSpaceOnUse"
       id="clipPath46">
      <path
         d="M 0,0 H 960.009 V 540 H 0 Z"
         transform="translate(-335.30581,-447.22351)"
         id="path46" />
    </clipPath>
    <clipPath
       clipPathUnits="userSpaceOnUse"
       id="clipPath48">
      <path
         d="M 0,0 H 960.009 V 540 H 0 Z"
         transform="translate(-366.36111,-395.97531)"
         id="path48" />
    </clipPath>
    <clipPath
       clipPathUnits="userSpaceOnUse"
       id="clipPath46-4">
      <path
         d="M 0,0 H 960.009 V 540 H 0 Z"
         transform="translate(-335.30581,-447.22351)"
         id="path46-1" />
    </clipPath>
    <clipPath
       clipPathUnits="userSpaceOnUse"
       id="clipPath48-8">
      <path
         d="M 0,0 H 960.009 V 540 H 0 Z"
         transform="translate(-366.36111,-395.97531)"
         id="path48-8" />
    </clipPath>
    <clipPath
       clipPathUnits="userSpaceOnUse"
       id="clipPath10">
      <path
         d="M 0,0 H 960.009 V 540 H 0 Z"
         transform="translate(-452.25271,-448.21871)"
         id="path10" />
    </clipPath>
    <clipPath
       clipPathUnits="userSpaceOnUse"
       id="clipPath12">
      <path
         d="M 0,0 H 960.009 V 540 H 0 Z"
         transform="translate(-445.51041,-428.84291)"
         id="path12" />
    </clipPath>
    <clipPath
       clipPathUnits="userSpaceOnUse"
       id="clipPath14">
      <path
         d="M 0,0 H 960.009 V 540 H 0 Z"
         transform="translate(-490.38481,-447.77471)"
         id="path14" />
    </clipPath>
    <clipPath
       clipPathUnits="userSpaceOnUse"
       id="clipPath16">
      <path
         d="M 0,0 H 960.009 V 540 H 0 Z"
         transform="translate(-520.07251,-407.43611)"
         id="path16" />
    </clipPath>
    <clipPath
       clipPathUnits="userSpaceOnUse"
       id="clipPath18">
      <path
         d="M 0,0 H 960.009 V 540 H 0 Z"
         transform="translate(-475.72791,-420.29251)"
         id="path18" />
    </clipPath>
    <clipPath
       clipPathUnits="userSpaceOnUse"
       id="clipPath20">
      <path
         d="M 0,0 H 960.009 V 540 H 0 Z"
         transform="translate(-532.40951,-415.32891)"
         id="path20" />
    </clipPath>
    <clipPath
       clipPathUnits="userSpaceOnUse"
       id="clipPath22">
      <path
         d="M 0,0 H 960.009 V 540 H 0 Z"
         transform="translate(-585.24491,-404.67841)"
         id="path22" />
    </clipPath>
    <clipPath
       clipPathUnits="userSpaceOnUse"
       id="clipPath24">
      <path
         d="M 0,0 H 960.009 V 540 H 0 Z"
         transform="translate(-546.73501,-439.46011)"
         id="path24" />
    </clipPath>
    <clipPath
       clipPathUnits="userSpaceOnUse"
       id="clipPath26">
      <path
         d="M 0,0 H 960.009 V 540 H 0 Z"
         transform="translate(-597.25132,-396.91631)"
         id="path26" />
    </clipPath>
    <clipPath
       clipPathUnits="userSpaceOnUse"
       id="clipPath28">
      <path
         d="M 0,0 H 960.009 V 540 H 0 Z"
         transform="translate(-644.79592,-427.55181)"
         id="path28" />
    </clipPath>
    <clipPath
       clipPathUnits="userSpaceOnUse"
       id="clipPath30">
      <path
         d="M 0,0 H 960.009 V 540 H 0 Z"
         transform="translate(-722.31742,-442.86561)"
         id="path30" />
    </clipPath>
    <clipPath
       clipPathUnits="userSpaceOnUse"
       id="clipPath32">
      <path
         d="M 0,0 H 960.009 V 540 H 0 Z"
         transform="translate(-713.80762,-411.31901)"
         id="path32" />
    </clipPath>
    <clipPath
       clipPathUnits="userSpaceOnUse"
       id="clipPath34">
      <path
         d="M 0,0 H 960.009 V 540 H 0 Z"
         transform="translate(-711.27122,-406.75661)"
         id="path34" />
    </clipPath>
    <clipPath
       clipPathUnits="userSpaceOnUse"
       id="clipPath36">
      <path
         d="M 0,0 H 960.009 V 540 H 0 Z"
         transform="translate(-788.58924,-392.63841)"
         id="path36" />
    </clipPath>
    <clipPath
       clipPathUnits="userSpaceOnUse"
       id="clipPath38">
      <path
         d="M 0,0 H 960.009 V 540 H 0 Z"
         transform="translate(-775.73004,-429.83291)"
         id="path38" />
    </clipPath>
    <clipPath
       clipPathUnits="userSpaceOnUse"
       id="clipPath40">
      <path
         d="M 0,0 H 960.009 V 540 H 0 Z"
         transform="translate(-854.0284,-447.94411)"
         id="path40" />
    </clipPath>
    <clipPath
       clipPathUnits="userSpaceOnUse"
       id="clipPath42">
      <path
         d="M 0,0 H 960.009 V 540 H 0 Z"
         transform="translate(-841.42262,-414.05971)"
         id="path42" />
    </clipPath>
    <clipPath
       clipPathUnits="userSpaceOnUse"
       id="clipPath44">
      <path
         d="M 0,0 H 960.009 V 540 H 0 Z"
         transform="translate(-828.18625,-402.03771)"
         id="path44" />
    </clipPath>
    <clipPath
       clipPathUnits="userSpaceOnUse"
       id="clipPath186">
      <path
         d="M 0,0 H 960.009 V 540 H 0 Z"
         transform="translate(-796.23144,-323.72221)"
         id="path186" />
    </clipPath>
    <clipPath
       clipPathUnits="userSpaceOnUse"
       id="clipPath188">
      <path
         d="M 0,0 H 960.009 V 540 H 0 Z"
         transform="translate(-837.6514,-370.80791)"
         id="path188" />
    </clipPath>
    <clipPath
       clipPathUnits="userSpaceOnUse"
       id="clipPath182">
      <path
         d="M 0,0 H 960.009 V 540 H 0 Z"
         transform="translate(-736.95462,-375.25501)"
         id="path182" />
    </clipPath>
    <clipPath
       clipPathUnits="userSpaceOnUse"
       id="clipPath184">
      <path
         d="M 0,0 H 960.009 V 540 H 0 Z"
         transform="translate(-768.50649,-358.25011)"
         id="path184" />
    </clipPath>
    <clipPath
       clipPathUnits="userSpaceOnUse"
       id="clipPath178">
      <path
         d="M 0,0 H 960.009 V 540 H 0 Z"
         transform="translate(-720.27222,-375.61331)"
         id="path178" />
    </clipPath>
    <clipPath
       clipPathUnits="userSpaceOnUse"
       id="clipPath180">
      <path
         d="M 0,0 H 960.009 V 540 H 0 Z"
         transform="translate(-708.29912,-339.89981)"
         id="path180" />
    </clipPath>
    <clipPath
       clipPathUnits="userSpaceOnUse"
       id="clipPath174">
      <path
         d="M 0,0 H 960.009 V 540 H 0 Z"
         transform="translate(-632.38852,-318.07351)"
         id="path174" />
    </clipPath>
    <clipPath
       clipPathUnits="userSpaceOnUse"
       id="clipPath176">
      <path
         d="M 0,0 H 960.009 V 540 H 0 Z"
         transform="translate(-651.53441,-331.09111)"
         id="path176" />
    </clipPath>
    <clipPath
       clipPathUnits="userSpaceOnUse"
       id="clipPath170">
      <path
         d="M 0,0 H 960.009 V 540 H 0 Z"
         transform="translate(-591.96502,-324.88781)"
         id="path170" />
    </clipPath>
    <clipPath
       clipPathUnits="userSpaceOnUse"
       id="clipPath172">
      <path
         d="M 0,0 H 960.009 V 540 H 0 Z"
         transform="translate(-586.33631,-340.16661)"
         id="path172" />
    </clipPath>
    <clipPath
       clipPathUnits="userSpaceOnUse"
       id="clipPath166">
      <path
         d="M 0,0 H 960.009 V 540 H 0 Z"
         transform="translate(-524.71871,-320.54331)"
         id="path166" />
    </clipPath>
    <clipPath
       clipPathUnits="userSpaceOnUse"
       id="clipPath168">
      <path
         d="M 0,0 H 960.009 V 540 H 0 Z"
         transform="translate(-503.36561,-325.03411)"
         id="path168" />
    </clipPath>
    <clipPath
       clipPathUnits="userSpaceOnUse"
       id="clipPath160">
      <path
         d="M 0,0 H 960.009 V 540 H 0 Z"
         transform="translate(-403.48081,-318.39281)"
         id="path160" />
    </clipPath>
    <clipPath
       clipPathUnits="userSpaceOnUse"
       id="clipPath162">
      <path
         d="M 0,0 H 960.009 V 540 H 0 Z"
         transform="translate(-451.85691,-327.41961)"
         id="path162" />
    </clipPath>
    <clipPath
       clipPathUnits="userSpaceOnUse"
       id="clipPath164">
      <path
         d="M 0,0 H 960.009 V 540 H 0 Z"
         transform="translate(-409.77981,-357.93981)"
         id="path164" />
    </clipPath>
    <clipPath
       clipPathUnits="userSpaceOnUse"
       id="clipPath156">
      <path
         d="M 0,0 H 960.009 V 540 H 0 Z"
         transform="translate(-368.23991,-318.73791)"
         id="path156" />
    </clipPath>
    <clipPath
       clipPathUnits="userSpaceOnUse"
       id="clipPath158">
      <path
         d="M 0,0 H 960.009 V 540 H 0 Z"
         transform="translate(-383.86171,-342.63551)"
         id="path158" />
    </clipPath>
    <clipPath
       clipPathUnits="userSpaceOnUse"
       id="clipPath114">
      <path
         d="M 0,0 H 960.009 V 540 H 0 Z"
         transform="translate(-392.75611,-298.45791)"
         id="path114" />
    </clipPath>
    <clipPath
       clipPathUnits="userSpaceOnUse"
       id="clipPath116">
      <path
         d="M 0,0 H 960.009 V 540 H 0 Z"
         transform="translate(-387.31901,-254.33761)"
         id="path116" />
    </clipPath>
    <clipPath
       clipPathUnits="userSpaceOnUse"
       id="clipPath118">
      <path
         d="M 0,0 H 960.009 V 540 H 0 Z"
         transform="translate(-360.51291,-262.97961)"
         id="path118" />
    </clipPath>
    <clipPath
       clipPathUnits="userSpaceOnUse"
       id="clipPath120">
      <path
         d="M 0,0 H 960.009 V 540 H 0 Z"
         transform="translate(-455.62551,-246.02871)"
         id="path120" />
    </clipPath>
    <clipPath
       clipPathUnits="userSpaceOnUse"
       id="clipPath122">
      <path
         d="M 0,0 H 960.009 V 540 H 0 Z"
         transform="translate(-452.63151,-264.6049)"
         id="path122" />
    </clipPath>
    <clipPath
       clipPathUnits="userSpaceOnUse"
       id="clipPath124">
      <path
         d="M 0,0 H 960.009 V 540 H 0 Z"
         transform="translate(-409.98541,-258.8899)"
         id="path124" />
    </clipPath>
    <clipPath
       clipPathUnits="userSpaceOnUse"
       id="clipPath126">
      <path
         d="M 0,0 H 960.009 V 540 H 0 Z"
         transform="translate(-473.91801,-244.75861)"
         id="path126" />
    </clipPath>
    <clipPath
       clipPathUnits="userSpaceOnUse"
       id="clipPath128">
      <path
         d="M 0,0 H 960.009 V 540 H 0 Z"
         transform="translate(-522.03322,-284.9617)"
         id="path128" />
    </clipPath>
    <clipPath
       clipPathUnits="userSpaceOnUse"
       id="clipPath130">
      <path
         d="M 0,0 H 960.009 V 540 H 0 Z"
         transform="translate(-566.28982,-245.4835)"
         id="path130" />
    </clipPath>
    <clipPath
       clipPathUnits="userSpaceOnUse"
       id="clipPath132">
      <path
         d="M 0,0 H 960.009 V 540 H 0 Z"
         transform="translate(-579.34751,-261.87991)"
         id="path132" />
    </clipPath>
    <clipPath
       clipPathUnits="userSpaceOnUse"
       id="clipPath134">
      <path
         d="M 0,0 H 960.009 V 540 H 0 Z"
         transform="translate(-599.74111,-300.49821)"
         id="path134" />
    </clipPath>
    <clipPath
       clipPathUnits="userSpaceOnUse"
       id="clipPath136">
      <path
         d="M 0,0 H 960.009 V 540 H 0 Z"
         transform="translate(-607.69802,-279.2284)"
         id="path136" />
    </clipPath>
    <clipPath
       clipPathUnits="userSpaceOnUse"
       id="clipPath138">
      <path
         d="M 0,0 H 960.009 V 540 H 0 Z"
         transform="translate(-650.53442,-256.29601)"
         id="path138" />
    </clipPath>
    <clipPath
       clipPathUnits="userSpaceOnUse"
       id="clipPath140">
      <path
         d="M 0,0 H 960.009 V 540 H 0 Z"
         transform="translate(-622.88372,-267.98611)"
         id="path140" />
    </clipPath>
    <clipPath
       clipPathUnits="userSpaceOnUse"
       id="clipPath142">
      <path
         d="M 0,0 H 960.009 V 540 H 0 Z"
         transform="translate(-650.88982,-289.31181)"
         id="path142" />
    </clipPath>
    <clipPath
       clipPathUnits="userSpaceOnUse"
       id="clipPath144">
      <path
         d="M 0,0 H 960.009 V 540 H 0 Z"
         transform="translate(-670.90652,-304.59101)"
         id="path144" />
    </clipPath>
    <clipPath
       clipPathUnits="userSpaceOnUse"
       id="clipPath146">
      <path
         d="M 0,0 H 960.009 V 540 H 0 Z"
         transform="translate(-675.34091,-252.8968)"
         id="path146" />
    </clipPath>
    <clipPath
       clipPathUnits="userSpaceOnUse"
       id="clipPath148">
      <path
         d="M 0,0 H 960.009 V 540 H 0 Z"
         transform="translate(-731.60292,-301.35641)"
         id="path148" />
    </clipPath>
    <clipPath
       clipPathUnits="userSpaceOnUse"
       id="clipPath150">
      <path
         d="M 0,0 H 960.009 V 540 H 0 Z"
         transform="translate(-769.25522,-269.3509)"
         id="path150" />
    </clipPath>
    <clipPath
       clipPathUnits="userSpaceOnUse"
       id="clipPath152">
      <path
         d="M 0,0 H 960.009 V 540 H 0 Z"
         transform="translate(-797.62959,-270.71421)"
         id="path152" />
    </clipPath>
    <clipPath
       clipPathUnits="userSpaceOnUse"
       id="clipPath154">
      <path
         d="M 0,0 H 960.009 V 540 H 0 Z"
         transform="translate(-819.53545,-251.29921)"
         id="path154" />
    </clipPath>
    <clipPath
       clipPathUnits="userSpaceOnUse"
       id="clipPath106">
      <path
         d="M 0,0 H 960.009 V 540 H 0 Z"
         transform="translate(-854.43355,-222.87901)"
         id="path106" />
    </clipPath>
    <clipPath
       clipPathUnits="userSpaceOnUse"
       id="clipPath108">
      <path
         d="M 0,0 H 960.009 V 540 H 0 Z"
         transform="translate(-845.89442,-183.77151)"
         id="path108" />
    </clipPath>
    <clipPath
       clipPathUnits="userSpaceOnUse"
       id="clipPath110">
      <path
         d="M 0,0 H 960.009 V 540 H 0 Z"
         transform="translate(-827.15155,-207.2536)"
         id="path110" />
    </clipPath>
    <clipPath
       clipPathUnits="userSpaceOnUse"
       id="clipPath112">
      <path
         d="M 0,0 H 960.009 V 540 H 0 Z"
         transform="translate(-821.5558,-184.11621)"
         id="path112" />
    </clipPath>
    <clipPath
       clipPathUnits="userSpaceOnUse"
       id="clipPath100">
      <path
         d="M 0,0 H 960.009 V 540 H 0 Z"
         transform="translate(-788.83644,-175.0057)"
         id="path100" />
    </clipPath>
    <clipPath
       clipPathUnits="userSpaceOnUse"
       id="clipPath102">
      <path
         d="M 0,0 H 960.009 V 540 H 0 Z"
         transform="translate(-762.95784,-218.90061)"
         id="path102" />
    </clipPath>
    <clipPath
       clipPathUnits="userSpaceOnUse"
       id="clipPath104">
      <path
         d="M 0,0 H 960.009 V 540 H 0 Z"
         transform="translate(-767.37212,-210.89581)"
         id="path104" />
    </clipPath>
    <clipPath
       clipPathUnits="userSpaceOnUse"
       id="clipPath96">
      <path
         d="M 0,0 H 960.009 V 540 H 0 Z"
         transform="translate(-667.61321,-172.85541)"
         id="path96" />
    </clipPath>
    <clipPath
       clipPathUnits="userSpaceOnUse"
       id="clipPath98">
      <path
         d="M 0,0 H 960.009 V 540 H 0 Z"
         transform="translate(-707.81362,-221.51581)"
         id="path98" />
    </clipPath>
  </defs>
  <g
     inkscape:label="Layer 1"
     inkscape:groupmode="layer"
     id="layer1"
     transform="translate(512.23343,451.37918)">
    <path
       id="path95"
       d="m 0,0 c -1.092,-0.027 -2.012,0.798 -2.117,1.886 -0.829,8.64 0.433,21.858 0.727,29.809 0.314,8.473 -2.061,16.07 0.129,24.256 0.093,0.346 0.194,0.707 0.442,0.964 0.317,0.329 0.797,0.455 1.251,0.479 9.712,0.496 17.898,-1.297 35.348,-0.584 2.491,0.101 7.335,0.535 9.827,0.582 2.493,0.046 5.147,-0.713 6.73,-2.656 1.389,-1.704 1.744,-4.013 2.007,-6.204 C 56.188,33.156 56.02,17.536 53.846,2.204 53.787,1.785 53.711,1.334 53.412,1.038 53.03,0.658 52.427,0.66 51.892,0.686 49.136,0.822 46.38,0.957 43.623,1.062 43.578,1.064 43.533,1.064 43.488,1.063 Z"
       style="fill:#fcb560;fill-opacity:1;fill-rule:nonzero;stroke:none"
       transform="matrix(0.35277776,0,0,-0.35277776,-511.38858,-431.10078)"
       clip-path="url(#clipPath96)" />
    <path
       id="path97"
       d="m 0,0 c -0.588,0.245 -1.292,0.147 -1.837,-0.254 -2.043,-1.502 -2.1,-3.988 -2.15,-6.182 -10e-4,-0.037 -0.002,-0.073 -0.003,-0.11 -0.368,-0.275 -0.748,-0.56 -1.11,-0.849 -1.903,-1.521 -3.706,-3.198 -5.36,-4.985 -0.349,-0.377 -0.691,-0.753 -1.032,-1.126 -0.656,-0.719 -1.294,-1.419 -1.948,-2.099 l -0.489,3.53 c 0.832,1.004 1.436,2.177 1.635,3.631 0.183,1.345 -0.016,2.658 -0.274,4.112 -0.065,0.368 -0.239,1.346 -1.16,1.529 -0.343,0.067 -0.715,-0.017 -1.019,-0.231 -0.537,-0.377 -0.719,-0.953 -0.827,-1.467 -0.384,-1.834 -0.096,-3.665 0.182,-5.436 0.06,-0.383 0.12,-0.764 0.172,-1.143 l 0.088,-0.635 c -1.004,-1.081 -2.332,-1.978 -3.7,-2.902 -0.7,-0.473 -1.412,-0.955 -2.082,-1.468 -0.612,1.432 -1.547,2.726 -2.722,3.749 -0.197,0.171 -0.4,0.336 -0.597,0.494 -0.576,0.465 -1.12,0.904 -1.458,1.471 -0.429,0.72 -0.486,1.644 -0.15,2.412 0.337,0.767 1.055,1.351 1.875,1.523 0.907,0.191 1.958,-0.111 2.81,-0.808 0.732,-0.598 1.336,-1.464 1.849,-2.649 0.288,-0.665 0.338,-1.176 0.142,-1.44 -0.25,-0.336 -0.998,-0.467 -2.001,-0.35 -0.314,0.035 -0.597,-0.188 -0.633,-0.502 -0.037,-0.313 0.188,-0.597 0.501,-0.633 1.478,-0.171 2.532,0.106 3.05,0.803 0.462,0.623 0.459,1.49 -0.011,2.576 -0.587,1.356 -1.298,2.363 -2.174,3.079 -1.117,0.914 -2.526,1.303 -3.768,1.042 -1.175,-0.247 -2.204,-1.083 -2.686,-2.183 -0.482,-1.099 -0.399,-2.423 0.215,-3.454 0.443,-0.744 1.093,-1.268 1.722,-1.776 0.197,-0.159 0.384,-0.309 0.564,-0.466 1.131,-0.984 2.01,-2.249 2.548,-3.647 -0.264,-0.236 -0.515,-0.479 -0.75,-0.732 -0.677,-0.731 -1.104,-1.593 -1.233,-2.493 -0.149,-1.034 0.103,-2.015 0.727,-2.838 0.702,-0.926 1.865,-1.635 3.211,-1.981 0.038,-0.059 0.076,-0.117 0.117,-0.175 1.625,-2.345 5.404,-3.338 7.777,-2.044 0.678,0.369 0.965,0.878 0.855,1.513 -0.044,0.247 -0.153,0.482 -0.316,0.678 -0.415,0.499 -1.006,0.659 -1.529,0.749 -1.074,0.186 -2.158,0.169 -3.206,0.154 -0.924,-0.013 -1.797,-0.027 -2.665,0.086 -0.099,0.013 -0.197,0.029 -0.295,0.046 -0.548,1.078 -0.692,2.35 -0.843,3.686 -0.089,0.788 -0.181,1.602 -0.362,2.388 -0.046,0.199 -0.098,0.397 -0.156,0.593 0.707,0.565 1.497,1.098 2.313,1.65 1.13,0.763 2.275,1.537 3.257,2.438 l 0.484,-3.499 c -0.441,-0.429 -0.895,-0.849 -1.372,-1.259 -0.667,-0.574 -0.848,-1.531 -0.43,-2.274 0.291,-0.515 0.781,-0.801 1.337,-0.776 0.653,0.025 1.311,0.478 1.601,1.1 0.356,0.765 0.237,1.623 0.15,2.25 l -0.076,0.548 c 0.887,0.889 1.726,1.808 2.594,2.76 0.339,0.371 0.68,0.745 1.027,1.12 1.614,1.745 3.375,3.383 5.234,4.869 0.11,0.088 0.222,0.175 0.336,0.263 -0.042,-0.538 -0.114,-1.046 -0.249,-1.51 l -0.091,-0.312 c -1.101,-3.782 -1.708,-5.865 -4.157,-9.165 -0.402,-0.541 -0.577,-1.208 -0.492,-1.877 0.149,-1.169 -0.234,-3.817 -0.933,-5.352 -0.512,-1.126 -1.092,-2.249 -1.654,-3.334 -0.084,-0.164 -0.169,-0.328 -0.254,-0.493 -0.216,0.494 -0.421,0.996 -0.598,1.503 -0.104,0.298 -0.43,0.455 -0.728,0.351 -0.298,-0.104 -0.455,-0.429 -0.351,-0.727 0.294,-0.843 0.655,-1.652 1.011,-2.436 -0.139,-0.278 -0.275,-0.557 -0.409,-0.836 -1.242,-2.594 -1.669,-4.821 -1.304,-6.807 0.21,-1.14 0.752,-1.803 1.612,-1.969 0.118,-0.023 0.238,-0.035 0.358,-0.035 0.383,0 0.768,0.116 1.112,0.338 0.738,0.477 1.183,1.29 1.358,2.485 0.381,2.584 -0.525,4.733 -1.461,6.799 0.222,0.438 0.448,0.874 0.669,1.302 0.568,1.098 1.155,2.234 1.679,3.385 0.786,1.727 1.197,4.627 1.027,5.97 -0.048,0.375 0.05,0.749 0.275,1.053 2.571,3.464 3.198,5.617 4.337,9.526 l 0.09,0.311 c 0.246,0.845 0.311,1.786 0.341,2.726 1.571,1.186 3.108,2.47 3.736,4.515 C 1.251,-1.382 0.916,-0.381 0,0 m -16.168,-25.155 c 1.041,0.015 2.025,0.03 2.994,-0.137 0.334,-0.058 0.668,-0.141 0.846,-0.355 0.035,-0.042 0.06,-0.093 0.068,-0.144 0.014,-0.077 0.026,-0.149 -0.276,-0.314 -1.578,-0.86 -4.14,-0.354 -5.642,0.97 0.677,-0.04 1.351,-0.03 2.01,-0.02 m -6.016,2.938 c -0.442,0.583 -0.612,1.251 -0.507,1.985 0.097,0.67 0.422,1.32 0.941,1.88 0.092,0.099 0.188,0.197 0.286,0.294 0,-0.002 0,-0.004 10e-4,-0.006 0.167,-0.722 0.255,-1.504 0.34,-2.259 0.118,-1.047 0.239,-2.116 0.568,-3.122 -0.68,0.308 -1.254,0.733 -1.629,1.228 m 7.832,2.865 c -0.109,-0.234 -0.382,-0.432 -0.609,-0.441 -0.093,-0.003 -0.197,0.017 -0.298,0.196 -0.149,0.266 -0.072,0.63 0.181,0.848 0.28,0.241 0.551,0.484 0.817,0.73 0.064,-0.528 0.078,-0.969 -0.091,-1.333 m 0.088,9.592 c -0.262,1.669 -0.533,3.395 -0.192,5.025 0.089,0.425 0.195,0.646 0.366,0.767 0.046,0.032 0.092,0.046 0.124,0.046 0.006,0 0.011,-10e-4 0.016,-0.002 0.105,-0.021 0.189,-0.219 0.258,-0.608 0.241,-1.357 0.427,-2.576 0.266,-3.758 -0.109,-0.798 -0.366,-1.5 -0.735,-2.134 -0.033,0.221 -0.068,0.442 -0.103,0.664 m 3.314,-28.274 c -0.125,-0.85 -0.402,-1.404 -0.847,-1.692 -0.201,-0.129 -0.432,-0.18 -0.634,-0.141 -0.262,0.051 -0.551,0.216 -0.705,1.054 -0.319,1.734 0.073,3.723 1.197,6.08 0.728,-1.69 1.274,-3.365 0.989,-5.301 m 10.731,35.756 c -0.437,-1.424 -1.433,-2.435 -2.604,-3.375 0.063,1.809 0.276,3.459 1.662,4.479 0.149,0.109 0.32,0.166 0.482,0.166 0.084,0 0.166,-0.015 0.241,-0.047 0.489,-0.203 0.291,-0.987 0.219,-1.223"
       style="fill:#ffffff;fill-opacity:1;fill-rule:nonzero;stroke:none"
       transform="matrix(0.35277776,0,0,-0.35277776,-497.20677,-448.26708)"
       clip-path="url(#clipPath98)" />
  </g>
</svg>
