<?xml version="1.0" encoding="UTF-8" standalone="no"?>
<!-- Created with Inkscape (http://www.inkscape.org/) -->

<svg
   width="20.345636mm"
   height="20.764133mm"
   viewBox="0 0 20.345635 20.764134"
   version="1.1"
   id="svg1"
   inkscape:version="1.4 (e7c3feb1, 2024-10-09)"
   sodipodi:docname="TRI.svg"
   xmlns:inkscape="http://www.inkscape.org/namespaces/inkscape"
   xmlns:sodipodi="http://sodipodi.sourceforge.net/DTD/sodipodi-0.dtd"
   xmlns="http://www.w3.org/2000/svg"
   xmlns:svg="http://www.w3.org/2000/svg">
  <sodipodi:namedview
     id="namedview1"
     pagecolor="#ffffff"
     bordercolor="#000000"
     borderopacity="0.25"
     inkscape:showpageshadow="2"
     inkscape:pageopacity="0.0"
     inkscape:pagecheckerboard="0"
     inkscape:deskcolor="#d1d1d1"
     inkscape:document-units="mm"
     inkscape:zoom="2.096401"
     inkscape:cx="47.462294"
     inkscape:cy="4.5315758"
     inkscape:window-width="1440"
     inkscape:window-height="872"
     inkscape:window-x="0"
     inkscape:window-y="28"
     inkscape:window-maximized="0"
     inkscape:current-layer="layer1" />
  <defs
     id="defs1">
    <clipPath
       clipPathUnits="userSpaceOnUse"
       id="clipPath46">
      <path
         d="M 0,0 H 960.009 V 540 H 0 Z"
         transform="translate(-335.30581,-447.22351)"
         id="path46" />
    </clipPath>
    <clipPath
       clipPathUnits="userSpaceOnUse"
       id="clipPath48">
      <path
         d="M 0,0 H 960.009 V 540 H 0 Z"
         transform="translate(-366.36111,-395.97531)"
         id="path48" />
    </clipPath>
    <clipPath
       clipPathUnits="userSpaceOnUse"
       id="clipPath46-4">
      <path
         d="M 0,0 H 960.009 V 540 H 0 Z"
         transform="translate(-335.30581,-447.22351)"
         id="path46-1" />
    </clipPath>
    <clipPath
       clipPathUnits="userSpaceOnUse"
       id="clipPath48-8">
      <path
         d="M 0,0 H 960.009 V 540 H 0 Z"
         transform="translate(-366.36111,-395.97531)"
         id="path48-8" />
    </clipPath>
    <clipPath
       clipPathUnits="userSpaceOnUse"
       id="clipPath10">
      <path
         d="M 0,0 H 960.009 V 540 H 0 Z"
         transform="translate(-452.25271,-448.21871)"
         id="path10" />
    </clipPath>
    <clipPath
       clipPathUnits="userSpaceOnUse"
       id="clipPath12">
      <path
         d="M 0,0 H 960.009 V 540 H 0 Z"
         transform="translate(-445.51041,-428.84291)"
         id="path12" />
    </clipPath>
    <clipPath
       clipPathUnits="userSpaceOnUse"
       id="clipPath14">
      <path
         d="M 0,0 H 960.009 V 540 H 0 Z"
         transform="translate(-490.38481,-447.77471)"
         id="path14" />
    </clipPath>
    <clipPath
       clipPathUnits="userSpaceOnUse"
       id="clipPath16">
      <path
         d="M 0,0 H 960.009 V 540 H 0 Z"
         transform="translate(-520.07251,-407.43611)"
         id="path16" />
    </clipPath>
    <clipPath
       clipPathUnits="userSpaceOnUse"
       id="clipPath18">
      <path
         d="M 0,0 H 960.009 V 540 H 0 Z"
         transform="translate(-475.72791,-420.29251)"
         id="path18" />
    </clipPath>
    <clipPath
       clipPathUnits="userSpaceOnUse"
       id="clipPath20">
      <path
         d="M 0,0 H 960.009 V 540 H 0 Z"
         transform="translate(-532.40951,-415.32891)"
         id="path20" />
    </clipPath>
    <clipPath
       clipPathUnits="userSpaceOnUse"
       id="clipPath22">
      <path
         d="M 0,0 H 960.009 V 540 H 0 Z"
         transform="translate(-585.24491,-404.67841)"
         id="path22" />
    </clipPath>
    <clipPath
       clipPathUnits="userSpaceOnUse"
       id="clipPath24">
      <path
         d="M 0,0 H 960.009 V 540 H 0 Z"
         transform="translate(-546.73501,-439.46011)"
         id="path24" />
    </clipPath>
    <clipPath
       clipPathUnits="userSpaceOnUse"
       id="clipPath26">
      <path
         d="M 0,0 H 960.009 V 540 H 0 Z"
         transform="translate(-597.25132,-396.91631)"
         id="path26" />
    </clipPath>
    <clipPath
       clipPathUnits="userSpaceOnUse"
       id="clipPath28">
      <path
         d="M 0,0 H 960.009 V 540 H 0 Z"
         transform="translate(-644.79592,-427.55181)"
         id="path28" />
    </clipPath>
    <clipPath
       clipPathUnits="userSpaceOnUse"
       id="clipPath30">
      <path
         d="M 0,0 H 960.009 V 540 H 0 Z"
         transform="translate(-722.31742,-442.86561)"
         id="path30" />
    </clipPath>
    <clipPath
       clipPathUnits="userSpaceOnUse"
       id="clipPath32">
      <path
         d="M 0,0 H 960.009 V 540 H 0 Z"
         transform="translate(-713.80762,-411.31901)"
         id="path32" />
    </clipPath>
    <clipPath
       clipPathUnits="userSpaceOnUse"
       id="clipPath34">
      <path
         d="M 0,0 H 960.009 V 540 H 0 Z"
         transform="translate(-711.27122,-406.75661)"
         id="path34" />
    </clipPath>
    <clipPath
       clipPathUnits="userSpaceOnUse"
       id="clipPath36">
      <path
         d="M 0,0 H 960.009 V 540 H 0 Z"
         transform="translate(-788.58924,-392.63841)"
         id="path36" />
    </clipPath>
    <clipPath
       clipPathUnits="userSpaceOnUse"
       id="clipPath38">
      <path
         d="M 0,0 H 960.009 V 540 H 0 Z"
         transform="translate(-775.73004,-429.83291)"
         id="path38" />
    </clipPath>
    <clipPath
       clipPathUnits="userSpaceOnUse"
       id="clipPath40">
      <path
         d="M 0,0 H 960.009 V 540 H 0 Z"
         transform="translate(-854.0284,-447.94411)"
         id="path40" />
    </clipPath>
    <clipPath
       clipPathUnits="userSpaceOnUse"
       id="clipPath42">
      <path
         d="M 0,0 H 960.009 V 540 H 0 Z"
         transform="translate(-841.42262,-414.05971)"
         id="path42" />
    </clipPath>
    <clipPath
       clipPathUnits="userSpaceOnUse"
       id="clipPath44">
      <path
         d="M 0,0 H 960.009 V 540 H 0 Z"
         transform="translate(-828.18625,-402.03771)"
         id="path44" />
    </clipPath>
    <clipPath
       clipPathUnits="userSpaceOnUse"
       id="clipPath186">
      <path
         d="M 0,0 H 960.009 V 540 H 0 Z"
         transform="translate(-796.23144,-323.72221)"
         id="path186" />
    </clipPath>
    <clipPath
       clipPathUnits="userSpaceOnUse"
       id="clipPath188">
      <path
         d="M 0,0 H 960.009 V 540 H 0 Z"
         transform="translate(-837.6514,-370.80791)"
         id="path188" />
    </clipPath>
    <clipPath
       clipPathUnits="userSpaceOnUse"
       id="clipPath182">
      <path
         d="M 0,0 H 960.009 V 540 H 0 Z"
         transform="translate(-736.95462,-375.25501)"
         id="path182" />
    </clipPath>
    <clipPath
       clipPathUnits="userSpaceOnUse"
       id="clipPath184">
      <path
         d="M 0,0 H 960.009 V 540 H 0 Z"
         transform="translate(-768.50649,-358.25011)"
         id="path184" />
    </clipPath>
    <clipPath
       clipPathUnits="userSpaceOnUse"
       id="clipPath178">
      <path
         d="M 0,0 H 960.009 V 540 H 0 Z"
         transform="translate(-720.27222,-375.61331)"
         id="path178" />
    </clipPath>
    <clipPath
       clipPathUnits="userSpaceOnUse"
       id="clipPath180">
      <path
         d="M 0,0 H 960.009 V 540 H 0 Z"
         transform="translate(-708.29912,-339.89981)"
         id="path180" />
    </clipPath>
    <clipPath
       clipPathUnits="userSpaceOnUse"
       id="clipPath174">
      <path
         d="M 0,0 H 960.009 V 540 H 0 Z"
         transform="translate(-632.38852,-318.07351)"
         id="path174" />
    </clipPath>
    <clipPath
       clipPathUnits="userSpaceOnUse"
       id="clipPath176">
      <path
         d="M 0,0 H 960.009 V 540 H 0 Z"
         transform="translate(-651.53441,-331.09111)"
         id="path176" />
    </clipPath>
    <clipPath
       clipPathUnits="userSpaceOnUse"
       id="clipPath170">
      <path
         d="M 0,0 H 960.009 V 540 H 0 Z"
         transform="translate(-591.96502,-324.88781)"
         id="path170" />
    </clipPath>
    <clipPath
       clipPathUnits="userSpaceOnUse"
       id="clipPath172">
      <path
         d="M 0,0 H 960.009 V 540 H 0 Z"
         transform="translate(-586.33631,-340.16661)"
         id="path172" />
    </clipPath>
    <clipPath
       clipPathUnits="userSpaceOnUse"
       id="clipPath166">
      <path
         d="M 0,0 H 960.009 V 540 H 0 Z"
         transform="translate(-524.71871,-320.54331)"
         id="path166" />
    </clipPath>
    <clipPath
       clipPathUnits="userSpaceOnUse"
       id="clipPath168">
      <path
         d="M 0,0 H 960.009 V 540 H 0 Z"
         transform="translate(-503.36561,-325.03411)"
         id="path168" />
    </clipPath>
    <clipPath
       clipPathUnits="userSpaceOnUse"
       id="clipPath160">
      <path
         d="M 0,0 H 960.009 V 540 H 0 Z"
         transform="translate(-403.48081,-318.39281)"
         id="path160" />
    </clipPath>
    <clipPath
       clipPathUnits="userSpaceOnUse"
       id="clipPath162">
      <path
         d="M 0,0 H 960.009 V 540 H 0 Z"
         transform="translate(-451.85691,-327.41961)"
         id="path162" />
    </clipPath>
    <clipPath
       clipPathUnits="userSpaceOnUse"
       id="clipPath164">
      <path
         d="M 0,0 H 960.009 V 540 H 0 Z"
         transform="translate(-409.77981,-357.93981)"
         id="path164" />
    </clipPath>
    <clipPath
       clipPathUnits="userSpaceOnUse"
       id="clipPath156">
      <path
         d="M 0,0 H 960.009 V 540 H 0 Z"
         transform="translate(-368.23991,-318.73791)"
         id="path156" />
    </clipPath>
    <clipPath
       clipPathUnits="userSpaceOnUse"
       id="clipPath158">
      <path
         d="M 0,0 H 960.009 V 540 H 0 Z"
         transform="translate(-383.86171,-342.63551)"
         id="path158" />
    </clipPath>
    <clipPath
       clipPathUnits="userSpaceOnUse"
       id="clipPath114">
      <path
         d="M 0,0 H 960.009 V 540 H 0 Z"
         transform="translate(-392.75611,-298.45791)"
         id="path114" />
    </clipPath>
    <clipPath
       clipPathUnits="userSpaceOnUse"
       id="clipPath116">
      <path
         d="M 0,0 H 960.009 V 540 H 0 Z"
         transform="translate(-387.31901,-254.33761)"
         id="path116" />
    </clipPath>
    <clipPath
       clipPathUnits="userSpaceOnUse"
       id="clipPath118">
      <path
         d="M 0,0 H 960.009 V 540 H 0 Z"
         transform="translate(-360.51291,-262.97961)"
         id="path118" />
    </clipPath>
    <clipPath
       clipPathUnits="userSpaceOnUse"
       id="clipPath120">
      <path
         d="M 0,0 H 960.009 V 540 H 0 Z"
         transform="translate(-455.62551,-246.02871)"
         id="path120" />
    </clipPath>
    <clipPath
       clipPathUnits="userSpaceOnUse"
       id="clipPath122">
      <path
         d="M 0,0 H 960.009 V 540 H 0 Z"
         transform="translate(-452.63151,-264.6049)"
         id="path122" />
    </clipPath>
    <clipPath
       clipPathUnits="userSpaceOnUse"
       id="clipPath124">
      <path
         d="M 0,0 H 960.009 V 540 H 0 Z"
         transform="translate(-409.98541,-258.8899)"
         id="path124" />
    </clipPath>
    <clipPath
       clipPathUnits="userSpaceOnUse"
       id="clipPath126">
      <path
         d="M 0,0 H 960.009 V 540 H 0 Z"
         transform="translate(-473.91801,-244.75861)"
         id="path126" />
    </clipPath>
    <clipPath
       clipPathUnits="userSpaceOnUse"
       id="clipPath128">
      <path
         d="M 0,0 H 960.009 V 540 H 0 Z"
         transform="translate(-522.03322,-284.9617)"
         id="path128" />
    </clipPath>
    <clipPath
       clipPathUnits="userSpaceOnUse"
       id="clipPath130">
      <path
         d="M 0,0 H 960.009 V 540 H 0 Z"
         transform="translate(-566.28982,-245.4835)"
         id="path130" />
    </clipPath>
    <clipPath
       clipPathUnits="userSpaceOnUse"
       id="clipPath132">
      <path
         d="M 0,0 H 960.009 V 540 H 0 Z"
         transform="translate(-579.34751,-261.87991)"
         id="path132" />
    </clipPath>
    <clipPath
       clipPathUnits="userSpaceOnUse"
       id="clipPath134">
      <path
         d="M 0,0 H 960.009 V 540 H 0 Z"
         transform="translate(-599.74111,-300.49821)"
         id="path134" />
    </clipPath>
    <clipPath
       clipPathUnits="userSpaceOnUse"
       id="clipPath136">
      <path
         d="M 0,0 H 960.009 V 540 H 0 Z"
         transform="translate(-607.69802,-279.2284)"
         id="path136" />
    </clipPath>
    <clipPath
       clipPathUnits="userSpaceOnUse"
       id="clipPath138">
      <path
         d="M 0,0 H 960.009 V 540 H 0 Z"
         transform="translate(-650.53442,-256.29601)"
         id="path138" />
    </clipPath>
    <clipPath
       clipPathUnits="userSpaceOnUse"
       id="clipPath140">
      <path
         d="M 0,0 H 960.009 V 540 H 0 Z"
         transform="translate(-622.88372,-267.98611)"
         id="path140" />
    </clipPath>
    <clipPath
       clipPathUnits="userSpaceOnUse"
       id="clipPath142">
      <path
         d="M 0,0 H 960.009 V 540 H 0 Z"
         transform="translate(-650.88982,-289.31181)"
         id="path142" />
    </clipPath>
    <clipPath
       clipPathUnits="userSpaceOnUse"
       id="clipPath144">
      <path
         d="M 0,0 H 960.009 V 540 H 0 Z"
         transform="translate(-670.90652,-304.59101)"
         id="path144" />
    </clipPath>
    <clipPath
       clipPathUnits="userSpaceOnUse"
       id="clipPath146">
      <path
         d="M 0,0 H 960.009 V 540 H 0 Z"
         transform="translate(-675.34091,-252.8968)"
         id="path146" />
    </clipPath>
    <clipPath
       clipPathUnits="userSpaceOnUse"
       id="clipPath148">
      <path
         d="M 0,0 H 960.009 V 540 H 0 Z"
         transform="translate(-731.60292,-301.35641)"
         id="path148" />
    </clipPath>
    <clipPath
       clipPathUnits="userSpaceOnUse"
       id="clipPath150">
      <path
         d="M 0,0 H 960.009 V 540 H 0 Z"
         transform="translate(-769.25522,-269.3509)"
         id="path150" />
    </clipPath>
    <clipPath
       clipPathUnits="userSpaceOnUse"
       id="clipPath152">
      <path
         d="M 0,0 H 960.009 V 540 H 0 Z"
         transform="translate(-797.62959,-270.71421)"
         id="path152" />
    </clipPath>
    <clipPath
       clipPathUnits="userSpaceOnUse"
       id="clipPath154">
      <path
         d="M 0,0 H 960.009 V 540 H 0 Z"
         transform="translate(-819.53545,-251.29921)"
         id="path154" />
    </clipPath>
    <clipPath
       clipPathUnits="userSpaceOnUse"
       id="clipPath106">
      <path
         d="M 0,0 H 960.009 V 540 H 0 Z"
         transform="translate(-854.43355,-222.87901)"
         id="path106" />
    </clipPath>
    <clipPath
       clipPathUnits="userSpaceOnUse"
       id="clipPath108">
      <path
         d="M 0,0 H 960.009 V 540 H 0 Z"
         transform="translate(-845.89442,-183.77151)"
         id="path108" />
    </clipPath>
    <clipPath
       clipPathUnits="userSpaceOnUse"
       id="clipPath110">
      <path
         d="M 0,0 H 960.009 V 540 H 0 Z"
         transform="translate(-827.15155,-207.2536)"
         id="path110" />
    </clipPath>
    <clipPath
       clipPathUnits="userSpaceOnUse"
       id="clipPath112">
      <path
         d="M 0,0 H 960.009 V 540 H 0 Z"
         transform="translate(-821.5558,-184.11621)"
         id="path112" />
    </clipPath>
  </defs>
  <g
     inkscape:label="Layer 1"
     inkscape:groupmode="layer"
     id="layer1"
     transform="translate(551.39176,434.44583)">
    <path
       id="path105"
       d="m 0,0 c -0.433,-5.337 -0.692,-10.687 -0.267,-16.014 0.283,-3.559 0.871,-7.093 0.913,-10.665 0.061,-5.129 0.247,-10.148 -0.813,-15.155 -0.475,-2.246 -1.057,-4.678 -2.766,-6.091 -1.576,-1.304 -3.722,-1.411 -5.715,-1.464 -14.038,-0.368 -29.327,-0.78 -43.365,-1.149 -0.632,-0.016 -1.288,-0.028 -1.867,0.24 -0.629,0.292 -1.091,0.882 -1.459,1.498 -2.042,3.42 -1.739,7.803 -1.364,11.841 0.531,5.721 1.062,11.441 1.594,17.162 0.28,3.014 0.56,6.042 0.4,9.065 -0.205,3.858 -1.125,7.647 -1.238,11.509 -0.049,1.702 0.123,3.573 1.246,4.789 1.026,1.111 2.589,1.395 4.045,1.531 4.355,0.408 8.734,0.019 13.104,-0.019 11.79,-0.102 23.639,2.343 35.313,0.618 0.45,-0.067 0.909,-0.142 1.313,-0.364 1.559,-0.855 1.505,-3.21 1.227,-5.056 z"
       style="fill:#55bf9b;fill-opacity:1;fill-rule:nonzero;stroke:none"
       transform="matrix(0.35277776,0,0,-0.35277776,-531.29238,-431.51286)"
       clip-path="url(#clipPath106)" />
    <path
       id="path107"
       d="m 0,0 c -0.122,0 -0.247,0.024 -0.371,0.073 -0.725,0.29 -0.813,1.212 -0.653,1.978 0.112,0.537 0.299,1.061 0.48,1.567 0.08,0.226 0.16,0.448 0.232,0.668 -0.604,0.553 -1.462,1.008 -2.451,1.278 -0.333,0.091 -0.682,0.152 -1.02,0.211 -0.847,0.147 -1.722,0.3 -2.268,0.945 -0.139,0.163 -0.118,0.408 0.045,0.546 0.164,0.138 0.408,0.118 0.546,-0.046 0.365,-0.43 1.034,-0.547 1.81,-0.682 0.355,-0.062 0.723,-0.126 1.091,-0.226 0.966,-0.264 1.814,-0.68 2.474,-1.199 0.077,0.378 0.11,0.756 0.068,1.141 C -0.15,7.483 -2.666,8.187 -4.324,8.276 -4.391,8.279 -4.491,8.291 -4.617,8.306 -4.948,8.346 -5.471,8.41 -6.064,8.384 -6.575,6.621 -7.308,4.85 -8.815,3.567 -9.949,2.601 -11.371,2.758 -12.78,3.009 c -1.329,-0.862 -2.608,-1.337 -3.363,-1.617 -1.034,-0.384 -1.769,0.081 -2.013,0.675 -0.228,0.554 -0.057,1.329 0.708,1.674 1.446,0.653 3.008,0.363 4.387,0.108 0.041,-0.008 0.082,-0.015 0.123,-0.023 1.071,0.736 2.142,1.746 2.951,3.155 0.835,1.453 2.153,1.971 3.32,2.126 0.106,0.393 0.203,0.785 0.299,1.167 0.186,0.747 0.361,1.451 0.577,2.075 0.05,0.146 0.094,0.287 0.132,0.422 -0.737,0.15 -1.468,0.308 -2.191,0.465 l -0.26,0.057 c -0.775,0.168 -1.464,0.323 -2.099,0.473 -0.056,-0.037 -0.112,-0.074 -0.169,-0.111 -0.235,-0.155 -0.471,-0.31 -0.708,-0.459 -0.078,-0.049 -0.159,-0.101 -0.243,-0.155 -0.612,-0.396 -1.377,-0.885 -2.163,-0.846 -0.635,0.033 -1.287,0.453 -1.277,1.098 0.011,0.781 0.915,1.22 1.452,1.413 0.983,0.351 2.032,0.113 2.963,-0.109 0.626,0.404 1.28,0.792 2.008,1.045 0.836,0.292 2.016,0.42 2.818,-0.099 0.469,-0.303 0.746,-0.792 0.801,-1.414 0.02,-0.234 0.014,-0.483 -0.018,-0.749 0.395,-0.075 0.791,-0.147 1.187,-0.214 -0.331,0.887 -0.656,1.803 -0.828,2.778 -0.137,0.774 -0.457,2.584 0.627,3.517 0.47,0.405 1.214,0.617 1.939,0.55 0.633,-0.058 1.169,-0.322 1.51,-0.743 0.633,-0.786 0.804,-2.023 0.455,-3.308 -0.112,-0.415 -0.376,-1.387 -1.128,-1.659 -0.807,-0.291 -1.374,0.402 -1.712,0.816 -0.037,0.044 -0.072,0.087 -0.106,0.128 -0.138,0.164 -0.118,0.408 0.046,0.546 0.164,0.138 0.408,0.118 0.546,-0.046 0.037,-0.044 0.075,-0.09 0.114,-0.138 0.378,-0.462 0.601,-0.667 0.849,-0.577 0.373,0.134 0.569,0.859 0.643,1.133 0.219,0.807 0.252,1.919 -0.311,2.618 -0.207,0.257 -0.554,0.42 -0.976,0.458 -0.508,0.047 -1.056,-0.1 -1.364,-0.365 -0.664,-0.572 -0.546,-1.794 -0.369,-2.795 0.179,-1.009 0.528,-1.939 0.897,-2.925 0.016,-0.042 0.032,-0.084 0.047,-0.126 0.473,-0.068 0.946,-0.127 1.418,-0.174 0.65,-0.064 1.162,-0.069 1.616,0.065 0.001,0.002 0.001,0.003 0.001,0.003 l 0.012,0.096 c 0.013,0.102 0.024,0.272 0.037,0.469 0.082,1.247 0.213,2.51 0.824,3.039 0.206,0.179 0.458,0.26 0.724,0.242 0.266,-0.021 0.504,-0.146 0.688,-0.362 0.315,-0.37 0.421,-0.95 0.387,-1.361 C 2.965,14.277 2.499,13.617 2.119,13.198 1.772,12.816 1.425,12.548 1.061,12.367 0.929,11.563 0.63,10.575 -0.421,10.412 c -1.275,-0.199 -2.303,0.495 -2.82,1.904 -10e-4,0.005 -0.003,0.009 -0.005,0.014 -0.552,0.087 -1.103,0.185 -1.651,0.29 -0.045,-0.168 -0.099,-0.343 -0.162,-0.524 -0.204,-0.591 -0.376,-1.28 -0.557,-2.009 C -5.692,9.783 -5.769,9.474 -5.85,9.163 -5.292,9.165 -4.818,9.111 -4.524,9.076 -4.42,9.063 -4.338,9.053 -4.283,9.05 -2.366,8.947 0.558,8.14 0.754,6.338 0.824,5.697 0.726,5.09 0.563,4.502 0.823,4.204 1.029,3.885 1.17,3.551 1.561,2.631 1.471,1.607 0.913,0.589 0.705,0.211 0.364,0 0,0 M 0.272,3.6 C 0.243,3.519 0.214,3.438 0.186,3.357 0.006,2.853 -0.164,2.377 -0.266,1.893 -0.361,1.433 -0.33,0.892 -0.083,0.793 0.083,0.726 0.193,0.889 0.233,0.961 0.68,1.776 0.755,2.545 0.457,3.248 0.406,3.367 0.344,3.485 0.272,3.6 M -15.442,3.365 c -0.58,0 -1.148,-0.087 -1.687,-0.33 -0.342,-0.154 -0.402,-0.449 -0.31,-0.673 0.103,-0.25 0.433,-0.464 1.026,-0.244 0.62,0.231 1.518,0.564 2.486,1.099 -0.507,0.084 -1.016,0.148 -1.515,0.148 m 3.56,0.286 c 0.993,-0.13 1.863,-0.091 2.565,0.506 1.262,1.075 1.938,2.584 2.414,4.128 -0.89,-0.181 -1.809,-0.64 -2.412,-1.69 -0.714,-1.244 -1.626,-2.202 -2.567,-2.944 m 9.537,8.548 c 0.292,-0.56 0.837,-1.17 1.805,-1.022 0.429,0.067 0.633,0.415 0.757,0.919 -0.47,-0.081 -0.979,-0.07 -1.554,-0.013 -0.336,0.033 -0.672,0.072 -1.008,0.116 m -9.872,1.908 c -0.291,0 -0.574,-0.037 -0.839,-0.131 -0.549,-0.197 -0.935,-0.482 -0.938,-0.694 -0.003,-0.153 0.296,-0.3 0.542,-0.313 0.539,-0.029 1.184,0.388 1.703,0.723 0.086,0.056 0.17,0.11 0.251,0.16 0.08,0.05 0.159,0.101 0.238,0.151 -0.32,0.061 -0.643,0.104 -0.957,0.104 m 14.09,1.889 C 1.821,15.996 1.781,15.979 1.736,15.94 1.319,15.579 1.224,14.132 1.179,13.436 1.177,13.41 1.175,13.386 1.174,13.361 c 0.123,0.102 0.246,0.221 0.371,0.358 0.299,0.33 0.665,0.839 0.711,1.39 0.02,0.248 -0.051,0.613 -0.205,0.794 -0.064,0.076 -0.118,0.089 -0.158,0.092 -0.007,0 -0.014,0.001 -0.02,0.001 M -9.284,14.347 c 0.418,-0.095 0.862,-0.193 1.338,-0.297 l 0.26,-0.056 c 0.719,-0.156 1.446,-0.314 2.179,-0.463 0.019,0.19 0.022,0.366 0.008,0.53 -0.034,0.386 -0.181,0.658 -0.45,0.832 -0.531,0.343 -1.459,0.256 -2.142,0.018 C -8.508,14.765 -8.9,14.57 -9.284,14.347"
       style="fill:#ffffff;fill-opacity:1;fill-rule:nonzero;stroke:none"
       transform="matrix(0.35277776,0,0,-0.35277776,-534.3048,-417.7166)"
       clip-path="url(#clipPath108)" />
    <path
       id="path109"
       d="M 0,0 C -0.31,0 -0.654,0.097 -1.031,0.356 -1.147,0.435 -1.262,0.523 -1.377,0.611 -1.856,0.976 -2.172,1.195 -2.585,1.083 -2.901,0.997 -3.198,0.85 -3.512,0.694 -4.106,0.398 -4.721,0.092 -5.517,0.186 c -0.213,0.025 -0.365,0.217 -0.34,0.43 0.024,0.212 0.218,0.365 0.43,0.34 0.567,-0.067 1.032,0.164 1.57,0.432 0.334,0.166 0.679,0.337 1.07,0.443 0.804,0.218 1.401,-0.238 1.88,-0.605 C -0.802,1.147 -0.698,1.067 -0.593,0.995 -0.113,0.666 0.226,0.697 0.753,1.118 1.36,1.603 2.09,2.062 3.078,1.358 3.15,1.306 3.221,1.251 3.293,1.196 3.486,1.047 3.668,0.906 3.859,0.853 4.114,0.783 4.396,0.88 4.747,1.159 5.175,1.5 5.532,1.913 5.911,2.349 6.114,2.584 6.321,2.824 6.543,3.055 L 6.323,3.046 C 5.795,3.027 5.268,3 4.741,2.974 3.452,2.909 2.118,2.841 0.797,2.888 -0.295,2.927 -1.392,3.051 -2.454,3.171 -2.833,3.214 -3.215,3.257 -3.599,3.296 -3.603,3.284 -3.607,3.272 -3.611,3.26 -3.722,2.951 -3.94,2.669 -4.279,2.398 c -2.215,-1.774 -4.961,-0.593 -7.292,0.6 -1.153,-0.082 -2.32,-0.075 -3.483,0.17 -0.54,0.114 -1.31,0.651 -1.335,1.267 -0.009,0.234 0.081,0.658 0.79,0.868 0.428,0.128 0.848,0.02 1.239,-0.115 0.774,-0.267 1.616,-0.706 2.508,-1.171 0.145,-0.076 0.292,-0.152 0.44,-0.229 0.608,0.049 1.213,0.12 1.812,0.191 0.819,0.097 1.667,0.196 2.504,0.238 0.633,0.031 1.267,0.021 1.897,-0.013 -0.183,0.039 -0.373,0.076 -0.57,0.115 -1.192,0.233 -2.543,0.497 -3.436,1.399 -0.367,0.371 -0.648,0.796 -0.891,1.239 -0.495,0.058 -1.014,0.187 -1.571,0.454 -1.018,0.488 -1.806,1.245 -2.219,2.132 -0.275,0.591 -0.214,1.147 0.16,1.45 0.214,0.174 0.503,0.241 0.86,0.198 1.53,-0.183 2.409,-1.696 2.936,-2.817 l 0.046,-0.099 c 0.091,-0.192 0.182,-0.387 0.278,-0.58 0.336,-0.013 0.673,0.002 1.029,0.018 1.273,0.055 2.716,0.117 4.767,-1.117 0.432,-0.26 1.167,-0.278 1.967,-0.047 1.026,0.297 1.906,0.919 2.241,1.585 0.646,1.285 1.498,2.698 2.911,3.43 0.931,0.482 2.042,0.63 3.152,0.423 0.274,0.183 0.571,0.334 0.897,0.43 1.277,0.38 2.761,-0.224 3.527,-1.436 0.234,-0.37 0.324,-0.791 0.241,-1.127 C 11.066,9.613 10.922,9.421 10.71,9.299 10.508,9.184 10.263,9.15 10.02,9.206 9.652,9.289 9.404,9.516 9.184,9.716 L 9.131,9.764 C 8.368,10.452 7.507,10.932 6.633,11.156 6.314,10.905 6.016,10.604 5.724,10.307 L 5.678,10.261 C 5.356,9.936 5.023,9.567 4.659,9.134 4.586,9.047 4.511,8.96 4.435,8.873 4.128,8.519 3.838,8.185 3.664,7.799 3.644,7.755 3.634,7.726 3.629,7.709 3.642,7.696 3.663,7.687 3.699,7.7 3.716,7.706 3.734,7.711 3.752,7.714 4.268,7.817 4.804,8.143 5.322,8.457 6.396,9.11 7.732,9.922 8.979,8.435 9.557,7.747 9.651,6.719 9.207,5.938 8.731,5.096 7.762,4.697 7.228,4.534 6.777,4.396 6.294,4.336 5.793,4.357 5.519,4.368 5.202,4.406 4.939,4.613 4.62,4.863 4.471,5.303 4.55,5.761 4.611,6.115 4.785,6.411 4.938,6.671 5.046,6.856 5.283,6.917 5.468,6.809 5.653,6.701 5.714,6.463 5.606,6.279 5.481,6.065 5.351,5.844 5.314,5.629 5.284,5.46 5.327,5.294 5.417,5.223 5.507,5.152 5.682,5.137 5.824,5.131 6.24,5.116 6.635,5.163 7.001,5.275 7.426,5.404 8.189,5.712 8.533,6.32 8.816,6.818 8.753,7.498 8.385,7.937 7.602,8.87 6.934,8.53 5.724,7.795 5.155,7.45 4.567,7.092 3.926,6.959 3.637,6.872 3.152,6.916 2.916,7.393 2.767,7.695 2.905,8.002 2.957,8.118 3.178,8.608 3.52,9.001 3.85,9.381 c 0.073,0.084 0.145,0.168 0.216,0.252 0.377,0.449 0.724,0.833 1.06,1.173 l 0.046,0.046 c 0.145,0.146 0.294,0.298 0.45,0.446 C 4.924,11.319 4.241,11.174 3.666,10.876 2.452,10.247 1.711,9.019 1.091,7.786 0.656,6.923 -0.385,6.164 -1.628,5.805 -2.646,5.51 -3.587,5.557 -4.21,5.932 -6.061,7.046 -7.323,6.99 -8.544,6.938 -8.751,6.929 -8.959,6.92 -9.171,6.917 -9.018,6.681 -8.848,6.46 -8.654,6.263 -7.929,5.53 -6.755,5.301 -5.62,5.079 -5.277,5.012 -4.954,4.949 -4.64,4.872 -4.408,4.815 -4.089,4.737 -3.847,4.496 -3.729,4.379 -3.643,4.234 -3.591,4.075 -3.18,4.033 -2.772,3.987 -2.367,3.941 -1.32,3.823 -0.237,3.701 0.824,3.663 2.113,3.618 3.429,3.684 4.702,3.748 5.233,3.775 5.764,3.801 6.295,3.82 L 6.742,3.838 C 6.995,3.848 7.251,3.859 7.508,3.866 8.026,4.191 8.656,4.433 9.417,4.6 l 0.039,0.009 c 0.873,0.192 1.959,0.432 2.901,0.283 C 12.648,4.846 12.883,4.761 13.076,4.631 13.406,4.41 13.588,4.072 13.563,3.727 13.547,3.522 13.441,3.141 12.903,2.886 12.723,2.801 12.521,2.75 12.287,2.731 11.581,2.673 10.891,2.792 10.223,2.905 9.839,2.971 9.476,3.033 9.111,3.063 8.666,3.101 8.208,3.106 7.75,3.097 7.668,3.038 7.589,2.976 7.515,2.912 7.148,2.595 6.832,2.229 6.496,1.842 6.112,1.398 5.714,0.938 5.23,0.553 4.676,0.112 4.16,-0.034 3.652,0.106 3.315,0.2 3.051,0.403 2.819,0.583 2.755,0.632 2.692,0.681 2.628,0.727 2.156,1.063 1.87,1.019 1.236,0.512 0.928,0.266 0.512,0 0,0 m -10.099,3.141 c 1.875,-0.86 3.797,-1.372 5.336,-0.138 0.158,0.127 0.274,0.249 0.349,0.37 -0.881,0.073 -1.767,0.113 -2.644,0.07 C -7.869,3.403 -8.703,3.304 -9.509,3.209 -9.705,3.186 -9.901,3.163 -10.099,3.141 M 9.437,3.809 c 0.309,-0.036 0.617,-0.089 0.916,-0.14 0.649,-0.11 1.263,-0.215 1.871,-0.166 0.14,0.012 0.253,0.039 0.348,0.084 0.155,0.073 0.214,0.15 0.218,0.198 0.003,0.048 -0.041,0.132 -0.145,0.202 C 12.547,4.053 12.413,4.098 12.237,4.126 11.438,4.252 10.432,4.03 9.623,3.852 L 9.584,3.843 C 9.534,3.832 9.485,3.821 9.437,3.809 m -25.049,0.642 c 0.035,-0.142 0.412,-0.46 0.718,-0.524 0.631,-0.134 1.27,-0.19 1.913,-0.199 -0.581,0.294 -1.13,0.554 -1.632,0.727 -0.269,0.093 -0.547,0.17 -0.766,0.105 -0.15,-0.044 -0.212,-0.09 -0.233,-0.109 m 2.543,5.977 c -0.113,0 -0.156,-0.026 -0.168,-0.036 -0.066,-0.054 -0.06,-0.277 0.054,-0.522 0.337,-0.725 0.994,-1.35 1.85,-1.76 0.281,-0.134 0.548,-0.228 0.808,-0.292 -0.02,0.043 -0.04,0.085 -0.06,0.128 l -0.046,0.098 c -0.714,1.517 -1.453,2.273 -2.327,2.377 -0.043,0.005 -0.08,0.007 -0.111,0.007 m 20.624,1.239 c 0.738,-0.295 1.45,-0.746 2.095,-1.328 l 0.056,-0.05 c 0.17,-0.155 0.317,-0.289 0.486,-0.328 0.051,-0.011 0.101,-0.007 0.132,0.01 0.025,0.015 0.04,0.03 0.05,0.069 0.031,0.125 -0.03,0.346 -0.144,0.527 C 9.655,11.476 8.514,11.952 7.578,11.674 7.57,11.672 7.563,11.67 7.555,11.667"
       style="fill:#ffffff;fill-opacity:1;fill-rule:nonzero;stroke:none"
       transform="matrix(0.35277776,0,0,-0.35277776,-540.91687,-426.00057)"
       clip-path="url(#clipPath110)" />
    <path
       id="path111"
       d="m 0,0 c -1.882,0 -3.544,1.116 -4.175,2.825 -0.78,2.112 0.281,4.147 1.147,5.494 0.083,0.129 0.167,0.26 0.254,0.393 -0.065,0.02 -0.13,0.04 -0.194,0.061 -0.881,0.292 -1.773,0.765 -2.651,1.405 -0.061,0.045 -0.123,0.091 -0.187,0.138 C -6.07,9.612 -6.602,8.81 -7.576,7.945 -6.934,6.36 -7.049,4.588 -7.903,3.04 -8.797,1.422 -10.332,0.362 -12.114,0.131 c -2.019,-0.259 -4.015,0.561 -5.084,2.094 -1.122,1.609 -1.137,3.848 -0.036,5.443 1.049,1.522 3.045,2.339 4.851,1.989 1.161,-0.226 2.323,-1.034 3.098,-2.109 0.108,0.087 0.216,0.172 0.323,0.258 0.144,0.115 0.289,0.23 0.432,0.346 -0.247,0.455 -0.569,0.892 -0.906,1.349 -0.743,1.009 -1.511,2.052 -1.531,3.401 -0.034,2.199 1.885,3.764 3.76,4.008 1.628,0.211 2.837,-0.353 3.062,-0.468 0.191,-0.097 0.266,-0.33 0.169,-0.521 -0.097,-0.191 -0.331,-0.267 -0.521,-0.169 -0.117,0.059 -1.179,0.575 -2.61,0.389 -1.538,-0.199 -3.112,-1.461 -3.085,-3.227 0.016,-1.101 0.679,-2.001 1.38,-2.953 0.306,-0.415 0.619,-0.841 0.879,-1.29 0.499,0.475 1.206,1.268 1.475,2.152 -0.489,0.399 -0.991,0.864 -1.406,1.382 -0.217,0.27 -0.404,0.698 -0.278,1.085 0.086,0.266 0.301,0.459 0.606,0.542 0.518,0.143 1.053,-0.127 1.469,-0.739 0.201,-0.296 0.572,-0.991 0.462,-1.957 0.157,-0.121 0.307,-0.232 0.443,-0.332 0.813,-0.593 1.633,-1.028 2.438,-1.295 0.133,-0.044 0.266,-0.083 0.4,-0.116 0.199,0.29 0.406,0.581 0.625,0.865 -0.995,0.973 -1.817,2.745 -1.886,4.889 -0.03,0.956 -0.094,2.947 1.287,3.679 0.995,0.528 2.554,0.333 3.15,-0.716 0.467,-0.823 0.438,-1.991 -0.078,-3.125 -0.167,-0.367 -0.558,-1.228 -1.302,-1.367 -0.803,-0.148 -1.224,0.581 -1.476,1.018 -0.027,0.046 -0.053,0.091 -0.078,0.133 -0.11,0.184 -0.05,0.422 0.134,0.532 0.183,0.11 0.421,0.049 0.531,-0.134 0.028,-0.046 0.055,-0.094 0.084,-0.144 0.271,-0.469 0.438,-0.688 0.663,-0.643 0.347,0.065 0.632,0.69 0.739,0.926 0.319,0.701 0.515,1.706 0.109,2.422 -0.361,0.634 -1.463,0.757 -2.113,0.414 -0.954,-0.506 -0.901,-2.171 -0.875,-2.971 0.054,-1.696 0.744,-3.423 1.6,-4.321 0.027,0.031 0.054,0.061 0.081,0.091 0.175,0.194 1.091,1.154 1.998,1.068 0.26,-0.024 0.626,-0.147 0.899,-0.594 C 1.943,11.129 2.005,10.844 1.954,10.566 1.814,9.802 0.581,9.387 -0.174,9.452 -0.475,9.477 -0.785,9.588 -1.091,9.776 -1.226,9.601 -1.358,9.421 -1.486,9.24 -0.953,9.174 -0.408,9.156 0.154,9.137 H 0.175 C 2.384,9.063 3.856,8.287 4.551,6.828 5.204,5.458 5.102,3.88 4.271,2.5 3.385,1.029 1.825,0.073 0.201,0.004 0.134,0.001 0.067,0 0,0 M -1.969,8.528 C -2.109,8.315 -2.245,8.104 -2.376,7.9 -3.61,5.981 -3.95,4.454 -3.448,3.093 -2.911,1.64 -1.458,0.71 0.169,0.779 1.536,0.836 2.853,1.649 3.607,2.9 4.301,4.053 4.39,5.363 3.851,6.495 3.283,7.687 2.072,8.298 0.149,8.362 L 0.129,8.363 C -0.56,8.385 -1.265,8.409 -1.969,8.528 m -11.273,0.435 c -1.301,0 -2.61,-0.656 -3.354,-1.735 -0.907,-1.314 -0.892,-3.232 0.034,-4.56 0.905,-1.298 2.612,-1.992 4.349,-1.768 1.534,0.198 2.858,1.115 3.631,2.515 0.698,1.264 0.827,2.698 0.376,4.003 C -8.297,7.345 -8.388,7.272 -8.479,7.2 -8.613,7.093 -8.745,6.988 -8.874,6.883 -8.85,6.837 -8.827,6.791 -8.804,6.744 -8.417,5.94 -8.338,5.109 -8.583,4.405 -8.755,3.91 -9.222,3.295 -9.841,3.114 c -0.395,-0.115 -0.797,-0.034 -1.132,0.229 -0.312,0.246 -0.495,0.576 -0.53,0.954 -0.076,0.835 0.579,1.678 0.863,2.001 0.238,0.269 0.494,0.516 0.759,0.75 -0.661,0.935 -1.675,1.658 -2.65,1.848 -0.234,0.045 -0.473,0.067 -0.711,0.067 m 3.76,-2.598 C -9.685,6.181 -9.878,5.991 -10.058,5.786 -10.41,5.387 -10.771,4.805 -10.731,4.367 c 0.015,-0.168 0.091,-0.299 0.237,-0.414 0.14,-0.111 0.279,-0.141 0.435,-0.095 0.325,0.095 0.633,0.482 0.744,0.801 0.219,0.632 0.036,1.269 -0.167,1.706 m 8.884,4.008 c 0.162,-0.084 0.325,-0.135 0.488,-0.149 0.584,-0.046 1.269,0.304 1.302,0.482 0.016,0.084 -0.013,0.187 -0.085,0.305 -0.113,0.185 -0.226,0.218 -0.31,0.226 -0.372,0.035 -0.96,-0.384 -1.351,-0.816 -0.015,-0.016 -0.029,-0.032 -0.044,-0.048 m -6.671,2.72 c -0.021,0 -0.041,-0.002 -0.061,-0.008 -0.059,-0.016 -0.075,-0.034 -0.075,-0.034 -0.014,-0.03 0.008,-0.19 0.145,-0.361 0.264,-0.33 0.577,-0.642 0.896,-0.927 -0.037,0.299 -0.144,0.6 -0.344,0.895 -0.143,0.21 -0.367,0.435 -0.561,0.435"
       style="fill:#ffffff;fill-opacity:1;fill-rule:nonzero;stroke:none"
       transform="matrix(0.35277776,0,0,-0.35277776,-542.89092,-417.83821)"
       clip-path="url(#clipPath112)" />
  </g>
</svg>
