<?xml version="1.0" encoding="UTF-8" standalone="no"?>
<!-- Created with Inkscape (http://www.inkscape.org/) -->

<svg
   width="20.274145mm"
   height="20.46348mm"
   viewBox="0 0 20.274144 20.46348"
   version="1.1"
   id="svg1"
   inkscape:version="1.4 (e7c3feb1, 2024-10-09)"
   sodipodi:docname="TTE.svg"
   xmlns:inkscape="http://www.inkscape.org/namespaces/inkscape"
   xmlns:sodipodi="http://sodipodi.sourceforge.net/DTD/sodipodi-0.dtd"
   xmlns="http://www.w3.org/2000/svg"
   xmlns:svg="http://www.w3.org/2000/svg">
  <sodipodi:namedview
     id="namedview1"
     pagecolor="#ffffff"
     bordercolor="#000000"
     borderopacity="0.25"
     inkscape:showpageshadow="2"
     inkscape:pageopacity="0.0"
     inkscape:pagecheckerboard="0"
     inkscape:deskcolor="#d1d1d1"
     inkscape:document-units="mm"
     inkscape:zoom="2.096401"
     inkscape:cx="-100.41018"
     inkscape:cy="69.404662"
     inkscape:window-width="1440"
     inkscape:window-height="872"
     inkscape:window-x="0"
     inkscape:window-y="28"
     inkscape:window-maximized="0"
     inkscape:current-layer="layer1" />
  <defs
     id="defs1">
    <clipPath
       clipPathUnits="userSpaceOnUse"
       id="clipPath46">
      <path
         d="M 0,0 H 960.009 V 540 H 0 Z"
         transform="translate(-335.30581,-447.22351)"
         id="path46" />
    </clipPath>
    <clipPath
       clipPathUnits="userSpaceOnUse"
       id="clipPath48">
      <path
         d="M 0,0 H 960.009 V 540 H 0 Z"
         transform="translate(-366.36111,-395.97531)"
         id="path48" />
    </clipPath>
    <clipPath
       clipPathUnits="userSpaceOnUse"
       id="clipPath46-4">
      <path
         d="M 0,0 H 960.009 V 540 H 0 Z"
         transform="translate(-335.30581,-447.22351)"
         id="path46-1" />
    </clipPath>
    <clipPath
       clipPathUnits="userSpaceOnUse"
       id="clipPath48-8">
      <path
         d="M 0,0 H 960.009 V 540 H 0 Z"
         transform="translate(-366.36111,-395.97531)"
         id="path48-8" />
    </clipPath>
    <clipPath
       clipPathUnits="userSpaceOnUse"
       id="clipPath10">
      <path
         d="M 0,0 H 960.009 V 540 H 0 Z"
         transform="translate(-452.25271,-448.21871)"
         id="path10" />
    </clipPath>
    <clipPath
       clipPathUnits="userSpaceOnUse"
       id="clipPath12">
      <path
         d="M 0,0 H 960.009 V 540 H 0 Z"
         transform="translate(-445.51041,-428.84291)"
         id="path12" />
    </clipPath>
    <clipPath
       clipPathUnits="userSpaceOnUse"
       id="clipPath14">
      <path
         d="M 0,0 H 960.009 V 540 H 0 Z"
         transform="translate(-490.38481,-447.77471)"
         id="path14" />
    </clipPath>
    <clipPath
       clipPathUnits="userSpaceOnUse"
       id="clipPath16">
      <path
         d="M 0,0 H 960.009 V 540 H 0 Z"
         transform="translate(-520.07251,-407.43611)"
         id="path16" />
    </clipPath>
    <clipPath
       clipPathUnits="userSpaceOnUse"
       id="clipPath18">
      <path
         d="M 0,0 H 960.009 V 540 H 0 Z"
         transform="translate(-475.72791,-420.29251)"
         id="path18" />
    </clipPath>
    <clipPath
       clipPathUnits="userSpaceOnUse"
       id="clipPath20">
      <path
         d="M 0,0 H 960.009 V 540 H 0 Z"
         transform="translate(-532.40951,-415.32891)"
         id="path20" />
    </clipPath>
    <clipPath
       clipPathUnits="userSpaceOnUse"
       id="clipPath22">
      <path
         d="M 0,0 H 960.009 V 540 H 0 Z"
         transform="translate(-585.24491,-404.67841)"
         id="path22" />
    </clipPath>
    <clipPath
       clipPathUnits="userSpaceOnUse"
       id="clipPath24">
      <path
         d="M 0,0 H 960.009 V 540 H 0 Z"
         transform="translate(-546.73501,-439.46011)"
         id="path24" />
    </clipPath>
    <clipPath
       clipPathUnits="userSpaceOnUse"
       id="clipPath26">
      <path
         d="M 0,0 H 960.009 V 540 H 0 Z"
         transform="translate(-597.25132,-396.91631)"
         id="path26" />
    </clipPath>
    <clipPath
       clipPathUnits="userSpaceOnUse"
       id="clipPath28">
      <path
         d="M 0,0 H 960.009 V 540 H 0 Z"
         transform="translate(-644.79592,-427.55181)"
         id="path28" />
    </clipPath>
    <clipPath
       clipPathUnits="userSpaceOnUse"
       id="clipPath30">
      <path
         d="M 0,0 H 960.009 V 540 H 0 Z"
         transform="translate(-722.31742,-442.86561)"
         id="path30" />
    </clipPath>
    <clipPath
       clipPathUnits="userSpaceOnUse"
       id="clipPath32">
      <path
         d="M 0,0 H 960.009 V 540 H 0 Z"
         transform="translate(-713.80762,-411.31901)"
         id="path32" />
    </clipPath>
    <clipPath
       clipPathUnits="userSpaceOnUse"
       id="clipPath34">
      <path
         d="M 0,0 H 960.009 V 540 H 0 Z"
         transform="translate(-711.27122,-406.75661)"
         id="path34" />
    </clipPath>
    <clipPath
       clipPathUnits="userSpaceOnUse"
       id="clipPath36">
      <path
         d="M 0,0 H 960.009 V 540 H 0 Z"
         transform="translate(-788.58924,-392.63841)"
         id="path36" />
    </clipPath>
    <clipPath
       clipPathUnits="userSpaceOnUse"
       id="clipPath38">
      <path
         d="M 0,0 H 960.009 V 540 H 0 Z"
         transform="translate(-775.73004,-429.83291)"
         id="path38" />
    </clipPath>
    <clipPath
       clipPathUnits="userSpaceOnUse"
       id="clipPath40">
      <path
         d="M 0,0 H 960.009 V 540 H 0 Z"
         transform="translate(-854.0284,-447.94411)"
         id="path40" />
    </clipPath>
    <clipPath
       clipPathUnits="userSpaceOnUse"
       id="clipPath42">
      <path
         d="M 0,0 H 960.009 V 540 H 0 Z"
         transform="translate(-841.42262,-414.05971)"
         id="path42" />
    </clipPath>
    <clipPath
       clipPathUnits="userSpaceOnUse"
       id="clipPath44">
      <path
         d="M 0,0 H 960.009 V 540 H 0 Z"
         transform="translate(-828.18625,-402.03771)"
         id="path44" />
    </clipPath>
    <clipPath
       clipPathUnits="userSpaceOnUse"
       id="clipPath186">
      <path
         d="M 0,0 H 960.009 V 540 H 0 Z"
         transform="translate(-796.23144,-323.72221)"
         id="path186" />
    </clipPath>
    <clipPath
       clipPathUnits="userSpaceOnUse"
       id="clipPath188">
      <path
         d="M 0,0 H 960.009 V 540 H 0 Z"
         transform="translate(-837.6514,-370.80791)"
         id="path188" />
    </clipPath>
    <clipPath
       clipPathUnits="userSpaceOnUse"
       id="clipPath182">
      <path
         d="M 0,0 H 960.009 V 540 H 0 Z"
         transform="translate(-736.95462,-375.25501)"
         id="path182" />
    </clipPath>
    <clipPath
       clipPathUnits="userSpaceOnUse"
       id="clipPath184">
      <path
         d="M 0,0 H 960.009 V 540 H 0 Z"
         transform="translate(-768.50649,-358.25011)"
         id="path184" />
    </clipPath>
    <clipPath
       clipPathUnits="userSpaceOnUse"
       id="clipPath178">
      <path
         d="M 0,0 H 960.009 V 540 H 0 Z"
         transform="translate(-720.27222,-375.61331)"
         id="path178" />
    </clipPath>
    <clipPath
       clipPathUnits="userSpaceOnUse"
       id="clipPath180">
      <path
         d="M 0,0 H 960.009 V 540 H 0 Z"
         transform="translate(-708.29912,-339.89981)"
         id="path180" />
    </clipPath>
    <clipPath
       clipPathUnits="userSpaceOnUse"
       id="clipPath174">
      <path
         d="M 0,0 H 960.009 V 540 H 0 Z"
         transform="translate(-632.38852,-318.07351)"
         id="path174" />
    </clipPath>
    <clipPath
       clipPathUnits="userSpaceOnUse"
       id="clipPath176">
      <path
         d="M 0,0 H 960.009 V 540 H 0 Z"
         transform="translate(-651.53441,-331.09111)"
         id="path176" />
    </clipPath>
    <clipPath
       clipPathUnits="userSpaceOnUse"
       id="clipPath170">
      <path
         d="M 0,0 H 960.009 V 540 H 0 Z"
         transform="translate(-591.96502,-324.88781)"
         id="path170" />
    </clipPath>
    <clipPath
       clipPathUnits="userSpaceOnUse"
       id="clipPath172">
      <path
         d="M 0,0 H 960.009 V 540 H 0 Z"
         transform="translate(-586.33631,-340.16661)"
         id="path172" />
    </clipPath>
    <clipPath
       clipPathUnits="userSpaceOnUse"
       id="clipPath166">
      <path
         d="M 0,0 H 960.009 V 540 H 0 Z"
         transform="translate(-524.71871,-320.54331)"
         id="path166" />
    </clipPath>
    <clipPath
       clipPathUnits="userSpaceOnUse"
       id="clipPath168">
      <path
         d="M 0,0 H 960.009 V 540 H 0 Z"
         transform="translate(-503.36561,-325.03411)"
         id="path168" />
    </clipPath>
    <clipPath
       clipPathUnits="userSpaceOnUse"
       id="clipPath160">
      <path
         d="M 0,0 H 960.009 V 540 H 0 Z"
         transform="translate(-403.48081,-318.39281)"
         id="path160" />
    </clipPath>
    <clipPath
       clipPathUnits="userSpaceOnUse"
       id="clipPath162">
      <path
         d="M 0,0 H 960.009 V 540 H 0 Z"
         transform="translate(-451.85691,-327.41961)"
         id="path162" />
    </clipPath>
    <clipPath
       clipPathUnits="userSpaceOnUse"
       id="clipPath164">
      <path
         d="M 0,0 H 960.009 V 540 H 0 Z"
         transform="translate(-409.77981,-357.93981)"
         id="path164" />
    </clipPath>
    <clipPath
       clipPathUnits="userSpaceOnUse"
       id="clipPath156">
      <path
         d="M 0,0 H 960.009 V 540 H 0 Z"
         transform="translate(-368.23991,-318.73791)"
         id="path156" />
    </clipPath>
    <clipPath
       clipPathUnits="userSpaceOnUse"
       id="clipPath158">
      <path
         d="M 0,0 H 960.009 V 540 H 0 Z"
         transform="translate(-383.86171,-342.63551)"
         id="path158" />
    </clipPath>
    <clipPath
       clipPathUnits="userSpaceOnUse"
       id="clipPath114">
      <path
         d="M 0,0 H 960.009 V 540 H 0 Z"
         transform="translate(-392.75611,-298.45791)"
         id="path114" />
    </clipPath>
    <clipPath
       clipPathUnits="userSpaceOnUse"
       id="clipPath116">
      <path
         d="M 0,0 H 960.009 V 540 H 0 Z"
         transform="translate(-387.31901,-254.33761)"
         id="path116" />
    </clipPath>
    <clipPath
       clipPathUnits="userSpaceOnUse"
       id="clipPath118">
      <path
         d="M 0,0 H 960.009 V 540 H 0 Z"
         transform="translate(-360.51291,-262.97961)"
         id="path118" />
    </clipPath>
    <clipPath
       clipPathUnits="userSpaceOnUse"
       id="clipPath120">
      <path
         d="M 0,0 H 960.009 V 540 H 0 Z"
         transform="translate(-455.62551,-246.02871)"
         id="path120" />
    </clipPath>
    <clipPath
       clipPathUnits="userSpaceOnUse"
       id="clipPath122">
      <path
         d="M 0,0 H 960.009 V 540 H 0 Z"
         transform="translate(-452.63151,-264.6049)"
         id="path122" />
    </clipPath>
    <clipPath
       clipPathUnits="userSpaceOnUse"
       id="clipPath124">
      <path
         d="M 0,0 H 960.009 V 540 H 0 Z"
         transform="translate(-409.98541,-258.8899)"
         id="path124" />
    </clipPath>
    <clipPath
       clipPathUnits="userSpaceOnUse"
       id="clipPath126">
      <path
         d="M 0,0 H 960.009 V 540 H 0 Z"
         transform="translate(-473.91801,-244.75861)"
         id="path126" />
    </clipPath>
    <clipPath
       clipPathUnits="userSpaceOnUse"
       id="clipPath128">
      <path
         d="M 0,0 H 960.009 V 540 H 0 Z"
         transform="translate(-522.03322,-284.9617)"
         id="path128" />
    </clipPath>
    <clipPath
       clipPathUnits="userSpaceOnUse"
       id="clipPath130">
      <path
         d="M 0,0 H 960.009 V 540 H 0 Z"
         transform="translate(-566.28982,-245.4835)"
         id="path130" />
    </clipPath>
    <clipPath
       clipPathUnits="userSpaceOnUse"
       id="clipPath132">
      <path
         d="M 0,0 H 960.009 V 540 H 0 Z"
         transform="translate(-579.34751,-261.87991)"
         id="path132" />
    </clipPath>
    <clipPath
       clipPathUnits="userSpaceOnUse"
       id="clipPath134">
      <path
         d="M 0,0 H 960.009 V 540 H 0 Z"
         transform="translate(-599.74111,-300.49821)"
         id="path134" />
    </clipPath>
    <clipPath
       clipPathUnits="userSpaceOnUse"
       id="clipPath136">
      <path
         d="M 0,0 H 960.009 V 540 H 0 Z"
         transform="translate(-607.69802,-279.2284)"
         id="path136" />
    </clipPath>
    <clipPath
       clipPathUnits="userSpaceOnUse"
       id="clipPath138">
      <path
         d="M 0,0 H 960.009 V 540 H 0 Z"
         transform="translate(-650.53442,-256.29601)"
         id="path138" />
    </clipPath>
    <clipPath
       clipPathUnits="userSpaceOnUse"
       id="clipPath140">
      <path
         d="M 0,0 H 960.009 V 540 H 0 Z"
         transform="translate(-622.88372,-267.98611)"
         id="path140" />
    </clipPath>
    <clipPath
       clipPathUnits="userSpaceOnUse"
       id="clipPath142">
      <path
         d="M 0,0 H 960.009 V 540 H 0 Z"
         transform="translate(-650.88982,-289.31181)"
         id="path142" />
    </clipPath>
    <clipPath
       clipPathUnits="userSpaceOnUse"
       id="clipPath144">
      <path
         d="M 0,0 H 960.009 V 540 H 0 Z"
         transform="translate(-670.90652,-304.59101)"
         id="path144" />
    </clipPath>
    <clipPath
       clipPathUnits="userSpaceOnUse"
       id="clipPath146">
      <path
         d="M 0,0 H 960.009 V 540 H 0 Z"
         transform="translate(-675.34091,-252.8968)"
         id="path146" />
    </clipPath>
    <clipPath
       clipPathUnits="userSpaceOnUse"
       id="clipPath148">
      <path
         d="M 0,0 H 960.009 V 540 H 0 Z"
         transform="translate(-731.60292,-301.35641)"
         id="path148" />
    </clipPath>
    <clipPath
       clipPathUnits="userSpaceOnUse"
       id="clipPath150">
      <path
         d="M 0,0 H 960.009 V 540 H 0 Z"
         transform="translate(-769.25522,-269.3509)"
         id="path150" />
    </clipPath>
    <clipPath
       clipPathUnits="userSpaceOnUse"
       id="clipPath152">
      <path
         d="M 0,0 H 960.009 V 540 H 0 Z"
         transform="translate(-797.62959,-270.71421)"
         id="path152" />
    </clipPath>
    <clipPath
       clipPathUnits="userSpaceOnUse"
       id="clipPath154">
      <path
         d="M 0,0 H 960.009 V 540 H 0 Z"
         transform="translate(-819.53545,-251.29921)"
         id="path154" />
    </clipPath>
    <clipPath
       clipPathUnits="userSpaceOnUse"
       id="clipPath106">
      <path
         d="M 0,0 H 960.009 V 540 H 0 Z"
         transform="translate(-854.43355,-222.87901)"
         id="path106" />
    </clipPath>
    <clipPath
       clipPathUnits="userSpaceOnUse"
       id="clipPath108">
      <path
         d="M 0,0 H 960.009 V 540 H 0 Z"
         transform="translate(-845.89442,-183.77151)"
         id="path108" />
    </clipPath>
    <clipPath
       clipPathUnits="userSpaceOnUse"
       id="clipPath110">
      <path
         d="M 0,0 H 960.009 V 540 H 0 Z"
         transform="translate(-827.15155,-207.2536)"
         id="path110" />
    </clipPath>
    <clipPath
       clipPathUnits="userSpaceOnUse"
       id="clipPath112">
      <path
         d="M 0,0 H 960.009 V 540 H 0 Z"
         transform="translate(-821.5558,-184.11621)"
         id="path112" />
    </clipPath>
    <clipPath
       clipPathUnits="userSpaceOnUse"
       id="clipPath100">
      <path
         d="M 0,0 H 960.009 V 540 H 0 Z"
         transform="translate(-788.83644,-175.0057)"
         id="path100" />
    </clipPath>
    <clipPath
       clipPathUnits="userSpaceOnUse"
       id="clipPath102">
      <path
         d="M 0,0 H 960.009 V 540 H 0 Z"
         transform="translate(-762.95784,-218.90061)"
         id="path102" />
    </clipPath>
    <clipPath
       clipPathUnits="userSpaceOnUse"
       id="clipPath104">
      <path
         d="M 0,0 H 960.009 V 540 H 0 Z"
         transform="translate(-767.37212,-210.89581)"
         id="path104" />
    </clipPath>
    <clipPath
       clipPathUnits="userSpaceOnUse"
       id="clipPath96">
      <path
         d="M 0,0 H 960.009 V 540 H 0 Z"
         transform="translate(-667.61321,-172.85541)"
         id="path96" />
    </clipPath>
    <clipPath
       clipPathUnits="userSpaceOnUse"
       id="clipPath98">
      <path
         d="M 0,0 H 960.009 V 540 H 0 Z"
         transform="translate(-707.81362,-221.51581)"
         id="path98" />
    </clipPath>
    <clipPath
       clipPathUnits="userSpaceOnUse"
       id="clipPath88">
      <path
         d="M 0,0 H 960.009 V 540 H 0 Z"
         transform="translate(-599.45281,-229.32291)"
         id="path88" />
    </clipPath>
    <clipPath
       clipPathUnits="userSpaceOnUse"
       id="clipPath90">
      <path
         d="M 0,0 H 960.009 V 540 H 0 Z"
         transform="translate(-649.90772,-199.2534)"
         id="path90" />
    </clipPath>
    <clipPath
       clipPathUnits="userSpaceOnUse"
       id="clipPath92">
      <path
         d="M 0,0 H 960.009 V 540 H 0 Z"
         transform="translate(-638.90842,-203.66491)"
         id="path92" />
    </clipPath>
    <clipPath
       clipPathUnits="userSpaceOnUse"
       id="clipPath94">
      <path
         d="M 0,0 H 960.009 V 540 H 0 Z"
         transform="translate(-628.77641,-189.4174)"
         id="path94" />
    </clipPath>
  </defs>
  <g
     inkscape:label="Layer 1"
     inkscape:groupmode="layer"
     id="layer1"
     transform="translate(512.23344,451.64377)">
    <path
       id="path87"
       d="M 0,0 C -0.034,0.419 0.266,0.792 0.683,0.844 9.256,1.926 23.356,0.557 31.68,0.249 40.153,-0.065 47.751,2.31 55.937,0.12 c 0.345,-0.093 0.707,-0.195 0.963,-0.442 0.329,-0.317 0.456,-0.797 0.479,-1.251 0.497,-9.712 -1.296,-17.898 -0.584,-35.348 0.102,-2.491 0.535,-7.335 0.582,-9.827 0.046,-2.493 -0.713,-5.147 -2.655,-6.73 -1.705,-1.389 -4.014,-1.744 -6.205,-2.007 -15.376,-1.844 -30.996,-1.676 -46.328,0.498 -0.419,0.059 -0.869,0.135 -1.166,0.434 -0.38,0.382 -0.378,0.985 -0.351,1.52 0.136,2.778 0.273,5.557 0.378,8.336 0.572,15.15 0.495,26.742 -0.817,41.847 z"
       style="fill:#9d5f80;fill-opacity:1;fill-rule:nonzero;stroke:none"
       transform="matrix(0.35277776,0,0,-0.35277776,-512.23251,-451.20152)"
       clip-path="url(#clipPath88)" />
    <path
       id="path89"
       d="m 0,0 h -3.765 v 4.515 c 0,0.316 -0.256,0.571 -0.571,0.571 -0.315,0 -0.571,-0.255 -0.571,-0.571 V 0 h -15.421 c -0.316,0 -0.571,-0.256 -0.571,-0.571 0,-0.316 0.255,-0.571 0.571,-0.571 H 0 c 0.315,0 0.571,0.255 0.571,0.571 C 0.571,-0.256 0.315,0 0,0"
       style="fill:#ffffff;fill-opacity:1;fill-rule:nonzero;stroke:none"
       transform="matrix(0.35277776,0,0,-0.35277776,-494.43314,-440.59366)"
       clip-path="url(#clipPath90)" />
    <path
       id="path91"
       d="M 0,0 C 0.461,0 0.835,0.374 0.835,0.835 0.835,1.297 0.461,1.671 0,1.671 -0.461,1.671 -0.835,1.297 -0.835,0.835 -0.835,0.374 -0.461,0 0,0"
       style="fill:#ffffff;fill-opacity:1;fill-rule:nonzero;stroke:none"
       transform="matrix(0.35277776,0,0,-0.35277776,-498.31345,-442.14994)"
       clip-path="url(#clipPath92)" />
    <path
       id="path93"
       d="M 0,0 C 0.323,2.496 -0.771,5.532 -2.661,7.382 -4.076,8.766 -5.758,9.356 -7.525,9.088 -7.901,9.031 -8.257,8.924 -8.594,8.784 c 0.246,1.254 0.347,2.63 0.029,3.965 -0.375,1.581 -1.57,3.072 -3.117,3.891 -0.504,0.267 -1.022,0.45 -1.539,0.546 0.984,0.905 2.327,0.659 4.158,-0.112 0.818,-1.945 1.928,-3.344 3.431,-4.341 1.402,-0.931 2.874,-1.279 4.147,-0.979 1.158,0.272 2.243,1.1 3.137,2.393 0.389,0.563 0.712,1.14 1.025,1.699 0.073,0.13 0.146,0.261 0.221,0.393 0.124,0.139 0.237,0.29 0.337,0.452 0.543,-0.258 1.181,-0.339 1.834,-0.222 0.966,0.172 1.798,0.751 2.226,1.548 0.831,1.547 0.169,3.696 -1.417,4.598 C 5.424,22.873 4.974,23.004 4.532,22.994 3.939,22.984 3.338,22.726 2.794,22.248 2.047,21.592 1.583,20.684 1.522,19.759 1.464,18.896 1.751,18.033 2.271,17.43 2.171,17.265 2.074,17.099 1.98,16.935 1.283,16.209 0.091,15.86 -0.978,15.841 c -2.356,-0.043 -4.6,0.948 -6.772,1.906 l -0.429,0.189 c -0.111,0.294 -0.217,0.601 -0.317,0.924 -0.068,0.218 -0.138,0.437 -0.207,0.657 -0.474,1.498 -0.964,3.046 -1.097,4.586 -0.073,0.849 -0.092,2.936 1.312,3.985 0.872,0.65 2.248,0.869 3.193,0.029 1.483,-1.318 1.483,-3.907 0.626,-5.647 -0.223,-0.454 -0.451,-0.741 -0.716,-0.904 -0.282,-0.172 -0.588,-0.199 -0.908,-0.082 -0.427,0.156 -0.8,0.549 -0.95,1.001 -0.1,0.3 -0.423,0.462 -0.722,0.362 -0.299,-0.099 -0.462,-0.422 -0.362,-0.722 0.26,-0.782 0.889,-1.439 1.641,-1.714 0.646,-0.236 1.319,-0.171 1.896,0.181 0.459,0.28 0.823,0.716 1.146,1.373 1.031,2.095 1.069,5.263 -0.892,7.006 -1.237,1.1 -3.187,1.113 -4.635,0.032 -1.312,-0.98 -1.956,-2.802 -1.767,-4.999 0.144,-1.665 0.653,-3.274 1.146,-4.831 0.069,-0.218 0.138,-0.436 0.205,-0.653 0.002,-0.005 0.003,-0.01 0.005,-0.015 -1.582,0.545 -3.697,0.836 -5.078,-1.275 -0.334,-0.043 -0.661,-0.125 -0.978,-0.246 -1.384,-0.527 -2.536,-1.743 -3.246,-3.426 -0.1,-0.238 -0.609,-1.487 -0.788,-2.766 -0.272,-1.946 0.424,-2.676 1.056,-2.945 0.521,-0.223 1.038,-0.21 1.495,0.037 1.211,0.655 1.673,2.734 2.009,4.63 0.034,0.19 0.063,0.35 0.087,0.469 0.264,1.254 0.615,2.308 1.045,3.139 0.581,-0.018 1.181,-0.183 1.764,-0.491 1.246,-0.66 2.243,-1.894 2.54,-3.146 0.354,-1.491 0.108,-3.051 -0.264,-4.462 -0.171,-0.119 -0.334,-0.24 -0.49,-0.361 -2.195,-1.684 -4.213,-3.942 -6.35,-7.104 -1.156,-1.71 -2.595,-3.838 -2.753,-6.194 -0.051,-0.752 0.138,-1.296 0.561,-1.617 1.195,-0.904 2.46,0.533 3,1.147 l 0.113,0.127 c 0.867,0.965 1.688,2.103 2.585,3.581 1.844,3.038 3.254,6.155 4.191,9.263 0.044,0.144 0.088,0.292 0.13,0.444 0.49,0.308 1.028,0.564 1.599,0.65 1.769,0.268 3.093,-0.61 3.894,-1.393 C -1.908,5.047 -0.945,2.514 -1.103,0.434 -1.319,0.62 -1.542,0.793 -1.771,0.951 -2.122,1.194 -2.486,1.421 -2.838,1.64 -3.494,2.049 -4.115,2.435 -4.656,2.92 -5.08,3.299 -6.054,4.316 -5.931,5.547 -5.9,5.861 -6.129,6.14 -6.443,6.172 -6.757,6.206 -7.037,5.974 -7.068,5.66 -7.19,4.426 -6.589,3.117 -5.418,2.069 -4.803,1.518 -4.111,1.087 -3.441,0.67 -3.101,0.459 -2.75,0.24 -2.421,0.012 -2.029,-0.259 -1.673,-0.557 -1.352,-0.874 -1.426,-1.136 -1.51,-1.4 -1.596,-1.67 -1.767,-2.208 -1.944,-2.765 -2.051,-3.348 -2.31,-4.77 -2.235,-6.256 -1.832,-7.645 c 0.231,-0.799 0.59,-1.755 1.325,-2.061 0.123,-0.051 0.281,-0.093 0.467,-0.093 0.196,0 0.424,0.048 0.672,0.184 0.39,0.214 0.615,0.57 0.766,0.857 1.382,2.609 0.424,5.912 -1.499,8.18 C -0.06,-0.388 -0.025,-0.196 0,0 m 2.661,19.683 c 0.042,0.626 0.365,1.249 0.887,1.707 0.332,0.293 0.688,0.457 1.002,0.462 0.234,0.013 0.489,-0.074 0.763,-0.23 1.051,-0.598 1.516,-2.058 0.976,-3.065 -0.265,-0.492 -0.796,-0.852 -1.421,-0.964 -0.572,-0.102 -1.112,0.026 -1.484,0.353 -0.01,0.009 -0.02,0.018 -0.031,0.026 l -0.001,10e-4 -10e-4,0.001 c -10e-4,0 -10e-4,0 -10e-4,0 0,0 -10e-4,0.001 -0.002,0.002 -0.448,0.341 -0.731,1.043 -0.687,1.707 m -3.619,-4.984 c 0.567,0.01 1.193,0.099 1.798,0.287 -0.041,-0.063 -0.084,-0.126 -0.127,-0.189 -0.51,-0.737 -1.35,-1.67 -2.46,-1.931 -1.298,-0.305 -2.595,0.381 -3.253,0.818 -1.014,0.673 -1.813,1.539 -2.458,2.688 2.052,-0.892 4.176,-1.711 6.5,-1.673 m -15.184,-1.481 c -0.027,-0.128 -0.058,-0.3 -0.094,-0.504 -0.164,-0.924 -0.6,-3.377 -1.429,-3.825 -0.099,-0.054 -0.245,-0.101 -0.503,0.008 -0.833,0.356 -0.292,2.727 0.336,4.217 0.331,0.784 1.086,2.163 2.478,2.754 -0.315,-0.768 -0.579,-1.654 -0.788,-2.65 m 1.892,-15.024 c -0.859,-1.415 -1.64,-2.498 -2.458,-3.409 l -0.121,-0.137 c -0.302,-0.343 -1.105,-1.254 -1.454,-0.99 -0.034,0.026 -0.143,0.148 -0.111,0.63 0.138,2.047 1.481,4.034 2.56,5.631 1.807,2.672 3.515,4.668 5.315,6.203 -0.898,-2.66 -2.15,-5.322 -3.731,-7.928 M 0.389,-8.224 c -0.071,-0.134 -0.18,-0.32 -0.306,-0.389 -0.104,-0.057 -0.14,-0.043 -0.151,-0.038 -0.097,0.041 -0.357,0.25 -0.667,1.323 -0.354,1.221 -0.42,2.526 -0.192,3.775 0.093,0.512 0.251,1.009 0.419,1.536 0.012,0.037 0.023,0.073 0.035,0.11 1.49,-2.097 1.74,-4.658 0.862,-6.317"
       style="fill:#ffffff;fill-opacity:1;fill-rule:nonzero;stroke:none"
       transform="matrix(0.35277776,0,0,-0.35277776,-501.88779,-437.12374)"
       clip-path="url(#clipPath94)" />
  </g>
</svg>
