<?xml version="1.0" encoding="UTF-8" standalone="no"?>
<!-- Created with Inkscape (http://www.inkscape.org/) -->

<svg
   width="20.345758mm"
   height="20.763975mm"
   viewBox="0 0 20.345757 20.763976"
   version="1.1"
   id="svg1"
   inkscape:version="1.4 (e7c3feb1, 2024-10-09)"
   sodipodi:docname="WRE.svg"
   xmlns:inkscape="http://www.inkscape.org/namespaces/inkscape"
   xmlns:sodipodi="http://sodipodi.sourceforge.net/DTD/sodipodi-0.dtd"
   xmlns="http://www.w3.org/2000/svg"
   xmlns:svg="http://www.w3.org/2000/svg">
  <sodipodi:namedview
     id="namedview1"
     pagecolor="#ffffff"
     bordercolor="#000000"
     borderopacity="0.25"
     inkscape:showpageshadow="2"
     inkscape:pageopacity="0.0"
     inkscape:pagecheckerboard="0"
     inkscape:deskcolor="#d1d1d1"
     inkscape:document-units="mm"
     inkscape:zoom="2.096401"
     inkscape:cx="38.399143"
     inkscape:cy="39.353159"
     inkscape:window-width="1440"
     inkscape:window-height="872"
     inkscape:window-x="0"
     inkscape:window-y="28"
     inkscape:window-maximized="0"
     inkscape:current-layer="layer1" />
  <defs
     id="defs1">
    <clipPath
       clipPathUnits="userSpaceOnUse"
       id="clipPath46">
      <path
         d="M 0,0 H 960.009 V 540 H 0 Z"
         transform="translate(-335.30581,-447.22351)"
         id="path46" />
    </clipPath>
    <clipPath
       clipPathUnits="userSpaceOnUse"
       id="clipPath48">
      <path
         d="M 0,0 H 960.009 V 540 H 0 Z"
         transform="translate(-366.36111,-395.97531)"
         id="path48" />
    </clipPath>
    <clipPath
       clipPathUnits="userSpaceOnUse"
       id="clipPath46-4">
      <path
         d="M 0,0 H 960.009 V 540 H 0 Z"
         transform="translate(-335.30581,-447.22351)"
         id="path46-1" />
    </clipPath>
    <clipPath
       clipPathUnits="userSpaceOnUse"
       id="clipPath48-8">
      <path
         d="M 0,0 H 960.009 V 540 H 0 Z"
         transform="translate(-366.36111,-395.97531)"
         id="path48-8" />
    </clipPath>
    <clipPath
       clipPathUnits="userSpaceOnUse"
       id="clipPath10">
      <path
         d="M 0,0 H 960.009 V 540 H 0 Z"
         transform="translate(-452.25271,-448.21871)"
         id="path10" />
    </clipPath>
    <clipPath
       clipPathUnits="userSpaceOnUse"
       id="clipPath12">
      <path
         d="M 0,0 H 960.009 V 540 H 0 Z"
         transform="translate(-445.51041,-428.84291)"
         id="path12" />
    </clipPath>
    <clipPath
       clipPathUnits="userSpaceOnUse"
       id="clipPath14">
      <path
         d="M 0,0 H 960.009 V 540 H 0 Z"
         transform="translate(-490.38481,-447.77471)"
         id="path14" />
    </clipPath>
    <clipPath
       clipPathUnits="userSpaceOnUse"
       id="clipPath16">
      <path
         d="M 0,0 H 960.009 V 540 H 0 Z"
         transform="translate(-520.07251,-407.43611)"
         id="path16" />
    </clipPath>
    <clipPath
       clipPathUnits="userSpaceOnUse"
       id="clipPath18">
      <path
         d="M 0,0 H 960.009 V 540 H 0 Z"
         transform="translate(-475.72791,-420.29251)"
         id="path18" />
    </clipPath>
    <clipPath
       clipPathUnits="userSpaceOnUse"
       id="clipPath20">
      <path
         d="M 0,0 H 960.009 V 540 H 0 Z"
         transform="translate(-532.40951,-415.32891)"
         id="path20" />
    </clipPath>
    <clipPath
       clipPathUnits="userSpaceOnUse"
       id="clipPath22">
      <path
         d="M 0,0 H 960.009 V 540 H 0 Z"
         transform="translate(-585.24491,-404.67841)"
         id="path22" />
    </clipPath>
    <clipPath
       clipPathUnits="userSpaceOnUse"
       id="clipPath24">
      <path
         d="M 0,0 H 960.009 V 540 H 0 Z"
         transform="translate(-546.73501,-439.46011)"
         id="path24" />
    </clipPath>
    <clipPath
       clipPathUnits="userSpaceOnUse"
       id="clipPath26">
      <path
         d="M 0,0 H 960.009 V 540 H 0 Z"
         transform="translate(-597.25132,-396.91631)"
         id="path26" />
    </clipPath>
    <clipPath
       clipPathUnits="userSpaceOnUse"
       id="clipPath28">
      <path
         d="M 0,0 H 960.009 V 540 H 0 Z"
         transform="translate(-644.79592,-427.55181)"
         id="path28" />
    </clipPath>
    <clipPath
       clipPathUnits="userSpaceOnUse"
       id="clipPath30">
      <path
         d="M 0,0 H 960.009 V 540 H 0 Z"
         transform="translate(-722.31742,-442.86561)"
         id="path30" />
    </clipPath>
    <clipPath
       clipPathUnits="userSpaceOnUse"
       id="clipPath32">
      <path
         d="M 0,0 H 960.009 V 540 H 0 Z"
         transform="translate(-713.80762,-411.31901)"
         id="path32" />
    </clipPath>
    <clipPath
       clipPathUnits="userSpaceOnUse"
       id="clipPath34">
      <path
         d="M 0,0 H 960.009 V 540 H 0 Z"
         transform="translate(-711.27122,-406.75661)"
         id="path34" />
    </clipPath>
    <clipPath
       clipPathUnits="userSpaceOnUse"
       id="clipPath36">
      <path
         d="M 0,0 H 960.009 V 540 H 0 Z"
         transform="translate(-788.58924,-392.63841)"
         id="path36" />
    </clipPath>
    <clipPath
       clipPathUnits="userSpaceOnUse"
       id="clipPath38">
      <path
         d="M 0,0 H 960.009 V 540 H 0 Z"
         transform="translate(-775.73004,-429.83291)"
         id="path38" />
    </clipPath>
    <clipPath
       clipPathUnits="userSpaceOnUse"
       id="clipPath40">
      <path
         d="M 0,0 H 960.009 V 540 H 0 Z"
         transform="translate(-854.0284,-447.94411)"
         id="path40" />
    </clipPath>
    <clipPath
       clipPathUnits="userSpaceOnUse"
       id="clipPath42">
      <path
         d="M 0,0 H 960.009 V 540 H 0 Z"
         transform="translate(-841.42262,-414.05971)"
         id="path42" />
    </clipPath>
    <clipPath
       clipPathUnits="userSpaceOnUse"
       id="clipPath44">
      <path
         d="M 0,0 H 960.009 V 540 H 0 Z"
         transform="translate(-828.18625,-402.03771)"
         id="path44" />
    </clipPath>
    <clipPath
       clipPathUnits="userSpaceOnUse"
       id="clipPath186">
      <path
         d="M 0,0 H 960.009 V 540 H 0 Z"
         transform="translate(-796.23144,-323.72221)"
         id="path186" />
    </clipPath>
    <clipPath
       clipPathUnits="userSpaceOnUse"
       id="clipPath188">
      <path
         d="M 0,0 H 960.009 V 540 H 0 Z"
         transform="translate(-837.6514,-370.80791)"
         id="path188" />
    </clipPath>
    <clipPath
       clipPathUnits="userSpaceOnUse"
       id="clipPath182">
      <path
         d="M 0,0 H 960.009 V 540 H 0 Z"
         transform="translate(-736.95462,-375.25501)"
         id="path182" />
    </clipPath>
    <clipPath
       clipPathUnits="userSpaceOnUse"
       id="clipPath184">
      <path
         d="M 0,0 H 960.009 V 540 H 0 Z"
         transform="translate(-768.50649,-358.25011)"
         id="path184" />
    </clipPath>
    <clipPath
       clipPathUnits="userSpaceOnUse"
       id="clipPath178">
      <path
         d="M 0,0 H 960.009 V 540 H 0 Z"
         transform="translate(-720.27222,-375.61331)"
         id="path178" />
    </clipPath>
    <clipPath
       clipPathUnits="userSpaceOnUse"
       id="clipPath180">
      <path
         d="M 0,0 H 960.009 V 540 H 0 Z"
         transform="translate(-708.29912,-339.89981)"
         id="path180" />
    </clipPath>
    <clipPath
       clipPathUnits="userSpaceOnUse"
       id="clipPath174">
      <path
         d="M 0,0 H 960.009 V 540 H 0 Z"
         transform="translate(-632.38852,-318.07351)"
         id="path174" />
    </clipPath>
    <clipPath
       clipPathUnits="userSpaceOnUse"
       id="clipPath176">
      <path
         d="M 0,0 H 960.009 V 540 H 0 Z"
         transform="translate(-651.53441,-331.09111)"
         id="path176" />
    </clipPath>
    <clipPath
       clipPathUnits="userSpaceOnUse"
       id="clipPath170">
      <path
         d="M 0,0 H 960.009 V 540 H 0 Z"
         transform="translate(-591.96502,-324.88781)"
         id="path170" />
    </clipPath>
    <clipPath
       clipPathUnits="userSpaceOnUse"
       id="clipPath172">
      <path
         d="M 0,0 H 960.009 V 540 H 0 Z"
         transform="translate(-586.33631,-340.16661)"
         id="path172" />
    </clipPath>
    <clipPath
       clipPathUnits="userSpaceOnUse"
       id="clipPath166">
      <path
         d="M 0,0 H 960.009 V 540 H 0 Z"
         transform="translate(-524.71871,-320.54331)"
         id="path166" />
    </clipPath>
    <clipPath
       clipPathUnits="userSpaceOnUse"
       id="clipPath168">
      <path
         d="M 0,0 H 960.009 V 540 H 0 Z"
         transform="translate(-503.36561,-325.03411)"
         id="path168" />
    </clipPath>
    <clipPath
       clipPathUnits="userSpaceOnUse"
       id="clipPath160">
      <path
         d="M 0,0 H 960.009 V 540 H 0 Z"
         transform="translate(-403.48081,-318.39281)"
         id="path160" />
    </clipPath>
    <clipPath
       clipPathUnits="userSpaceOnUse"
       id="clipPath162">
      <path
         d="M 0,0 H 960.009 V 540 H 0 Z"
         transform="translate(-451.85691,-327.41961)"
         id="path162" />
    </clipPath>
    <clipPath
       clipPathUnits="userSpaceOnUse"
       id="clipPath164">
      <path
         d="M 0,0 H 960.009 V 540 H 0 Z"
         transform="translate(-409.77981,-357.93981)"
         id="path164" />
    </clipPath>
    <clipPath
       clipPathUnits="userSpaceOnUse"
       id="clipPath156">
      <path
         d="M 0,0 H 960.009 V 540 H 0 Z"
         transform="translate(-368.23991,-318.73791)"
         id="path156" />
    </clipPath>
    <clipPath
       clipPathUnits="userSpaceOnUse"
       id="clipPath158">
      <path
         d="M 0,0 H 960.009 V 540 H 0 Z"
         transform="translate(-383.86171,-342.63551)"
         id="path158" />
    </clipPath>
    <clipPath
       clipPathUnits="userSpaceOnUse"
       id="clipPath114">
      <path
         d="M 0,0 H 960.009 V 540 H 0 Z"
         transform="translate(-392.75611,-298.45791)"
         id="path114" />
    </clipPath>
    <clipPath
       clipPathUnits="userSpaceOnUse"
       id="clipPath116">
      <path
         d="M 0,0 H 960.009 V 540 H 0 Z"
         transform="translate(-387.31901,-254.33761)"
         id="path116" />
    </clipPath>
    <clipPath
       clipPathUnits="userSpaceOnUse"
       id="clipPath118">
      <path
         d="M 0,0 H 960.009 V 540 H 0 Z"
         transform="translate(-360.51291,-262.97961)"
         id="path118" />
    </clipPath>
    <clipPath
       clipPathUnits="userSpaceOnUse"
       id="clipPath120">
      <path
         d="M 0,0 H 960.009 V 540 H 0 Z"
         transform="translate(-455.62551,-246.02871)"
         id="path120" />
    </clipPath>
    <clipPath
       clipPathUnits="userSpaceOnUse"
       id="clipPath122">
      <path
         d="M 0,0 H 960.009 V 540 H 0 Z"
         transform="translate(-452.63151,-264.6049)"
         id="path122" />
    </clipPath>
    <clipPath
       clipPathUnits="userSpaceOnUse"
       id="clipPath124">
      <path
         d="M 0,0 H 960.009 V 540 H 0 Z"
         transform="translate(-409.98541,-258.8899)"
         id="path124" />
    </clipPath>
    <clipPath
       clipPathUnits="userSpaceOnUse"
       id="clipPath126">
      <path
         d="M 0,0 H 960.009 V 540 H 0 Z"
         transform="translate(-473.91801,-244.75861)"
         id="path126" />
    </clipPath>
    <clipPath
       clipPathUnits="userSpaceOnUse"
       id="clipPath128">
      <path
         d="M 0,0 H 960.009 V 540 H 0 Z"
         transform="translate(-522.03322,-284.9617)"
         id="path128" />
    </clipPath>
    <clipPath
       clipPathUnits="userSpaceOnUse"
       id="clipPath130">
      <path
         d="M 0,0 H 960.009 V 540 H 0 Z"
         transform="translate(-566.28982,-245.4835)"
         id="path130" />
    </clipPath>
    <clipPath
       clipPathUnits="userSpaceOnUse"
       id="clipPath132">
      <path
         d="M 0,0 H 960.009 V 540 H 0 Z"
         transform="translate(-579.34751,-261.87991)"
         id="path132" />
    </clipPath>
    <clipPath
       clipPathUnits="userSpaceOnUse"
       id="clipPath134">
      <path
         d="M 0,0 H 960.009 V 540 H 0 Z"
         transform="translate(-599.74111,-300.49821)"
         id="path134" />
    </clipPath>
    <clipPath
       clipPathUnits="userSpaceOnUse"
       id="clipPath136">
      <path
         d="M 0,0 H 960.009 V 540 H 0 Z"
         transform="translate(-607.69802,-279.2284)"
         id="path136" />
    </clipPath>
    <clipPath
       clipPathUnits="userSpaceOnUse"
       id="clipPath138">
      <path
         d="M 0,0 H 960.009 V 540 H 0 Z"
         transform="translate(-650.53442,-256.29601)"
         id="path138" />
    </clipPath>
    <clipPath
       clipPathUnits="userSpaceOnUse"
       id="clipPath140">
      <path
         d="M 0,0 H 960.009 V 540 H 0 Z"
         transform="translate(-622.88372,-267.98611)"
         id="path140" />
    </clipPath>
    <clipPath
       clipPathUnits="userSpaceOnUse"
       id="clipPath142">
      <path
         d="M 0,0 H 960.009 V 540 H 0 Z"
         transform="translate(-650.88982,-289.31181)"
         id="path142" />
    </clipPath>
    <clipPath
       clipPathUnits="userSpaceOnUse"
       id="clipPath144">
      <path
         d="M 0,0 H 960.009 V 540 H 0 Z"
         transform="translate(-670.90652,-304.59101)"
         id="path144" />
    </clipPath>
    <clipPath
       clipPathUnits="userSpaceOnUse"
       id="clipPath146">
      <path
         d="M 0,0 H 960.009 V 540 H 0 Z"
         transform="translate(-675.34091,-252.8968)"
         id="path146" />
    </clipPath>
    <clipPath
       clipPathUnits="userSpaceOnUse"
       id="clipPath148">
      <path
         d="M 0,0 H 960.009 V 540 H 0 Z"
         transform="translate(-731.60292,-301.35641)"
         id="path148" />
    </clipPath>
    <clipPath
       clipPathUnits="userSpaceOnUse"
       id="clipPath150">
      <path
         d="M 0,0 H 960.009 V 540 H 0 Z"
         transform="translate(-769.25522,-269.3509)"
         id="path150" />
    </clipPath>
    <clipPath
       clipPathUnits="userSpaceOnUse"
       id="clipPath152">
      <path
         d="M 0,0 H 960.009 V 540 H 0 Z"
         transform="translate(-797.62959,-270.71421)"
         id="path152" />
    </clipPath>
    <clipPath
       clipPathUnits="userSpaceOnUse"
       id="clipPath154">
      <path
         d="M 0,0 H 960.009 V 540 H 0 Z"
         transform="translate(-819.53545,-251.29921)"
         id="path154" />
    </clipPath>
    <clipPath
       clipPathUnits="userSpaceOnUse"
       id="clipPath106">
      <path
         d="M 0,0 H 960.009 V 540 H 0 Z"
         transform="translate(-854.43355,-222.87901)"
         id="path106" />
    </clipPath>
    <clipPath
       clipPathUnits="userSpaceOnUse"
       id="clipPath108">
      <path
         d="M 0,0 H 960.009 V 540 H 0 Z"
         transform="translate(-845.89442,-183.77151)"
         id="path108" />
    </clipPath>
    <clipPath
       clipPathUnits="userSpaceOnUse"
       id="clipPath110">
      <path
         d="M 0,0 H 960.009 V 540 H 0 Z"
         transform="translate(-827.15155,-207.2536)"
         id="path110" />
    </clipPath>
    <clipPath
       clipPathUnits="userSpaceOnUse"
       id="clipPath112">
      <path
         d="M 0,0 H 960.009 V 540 H 0 Z"
         transform="translate(-821.5558,-184.11621)"
         id="path112" />
    </clipPath>
    <clipPath
       clipPathUnits="userSpaceOnUse"
       id="clipPath100">
      <path
         d="M 0,0 H 960.009 V 540 H 0 Z"
         transform="translate(-788.83644,-175.0057)"
         id="path100" />
    </clipPath>
    <clipPath
       clipPathUnits="userSpaceOnUse"
       id="clipPath102">
      <path
         d="M 0,0 H 960.009 V 540 H 0 Z"
         transform="translate(-762.95784,-218.90061)"
         id="path102" />
    </clipPath>
    <clipPath
       clipPathUnits="userSpaceOnUse"
       id="clipPath104">
      <path
         d="M 0,0 H 960.009 V 540 H 0 Z"
         transform="translate(-767.37212,-210.89581)"
         id="path104" />
    </clipPath>
    <clipPath
       clipPathUnits="userSpaceOnUse"
       id="clipPath96">
      <path
         d="M 0,0 H 960.009 V 540 H 0 Z"
         transform="translate(-667.61321,-172.85541)"
         id="path96" />
    </clipPath>
    <clipPath
       clipPathUnits="userSpaceOnUse"
       id="clipPath98">
      <path
         d="M 0,0 H 960.009 V 540 H 0 Z"
         transform="translate(-707.81362,-221.51581)"
         id="path98" />
    </clipPath>
    <clipPath
       clipPathUnits="userSpaceOnUse"
       id="clipPath88">
      <path
         d="M 0,0 H 960.009 V 540 H 0 Z"
         transform="translate(-599.45281,-229.32291)"
         id="path88" />
    </clipPath>
    <clipPath
       clipPathUnits="userSpaceOnUse"
       id="clipPath90">
      <path
         d="M 0,0 H 960.009 V 540 H 0 Z"
         transform="translate(-649.90772,-199.2534)"
         id="path90" />
    </clipPath>
    <clipPath
       clipPathUnits="userSpaceOnUse"
       id="clipPath92">
      <path
         d="M 0,0 H 960.009 V 540 H 0 Z"
         transform="translate(-638.90842,-203.66491)"
         id="path92" />
    </clipPath>
    <clipPath
       clipPathUnits="userSpaceOnUse"
       id="clipPath94">
      <path
         d="M 0,0 H 960.009 V 540 H 0 Z"
         transform="translate(-628.77641,-189.4174)"
         id="path94" />
    </clipPath>
    <clipPath
       clipPathUnits="userSpaceOnUse"
       id="clipPath84">
      <path
         d="M 0,0 H 960.009 V 540 H 0 Z"
         transform="translate(-584.37121,-231.34611)"
         id="path84" />
    </clipPath>
    <clipPath
       clipPathUnits="userSpaceOnUse"
       id="clipPath86">
      <path
         d="M 0,0 H 960.009 V 540 H 0 Z"
         transform="translate(-586.71481,-200.10211)"
         id="path86" />
    </clipPath>
    <clipPath
       clipPathUnits="userSpaceOnUse"
       id="clipPath74">
      <path
         d="M 0,0 H 960.009 V 540 H 0 Z"
         transform="translate(-469.54581,-229.89861)"
         id="path74" />
    </clipPath>
    <clipPath
       clipPathUnits="userSpaceOnUse"
       id="clipPath76">
      <path
         d="M 0,0 H 960.009 V 540 H 0 Z"
         transform="translate(-504.62411,-187.19301)"
         id="path76" />
    </clipPath>
    <clipPath
       clipPathUnits="userSpaceOnUse"
       id="clipPath78">
      <path
         d="M 0,0 H 960.009 V 540 H 0 Z"
         transform="translate(-479.18201,-202.14411)"
         id="path78" />
    </clipPath>
    <clipPath
       clipPathUnits="userSpaceOnUse"
       id="clipPath80">
      <path
         d="M 0,0 H 960.009 V 540 H 0 Z"
         transform="translate(-512.10071,-205.33581)"
         id="path80" />
    </clipPath>
    <clipPath
       clipPathUnits="userSpaceOnUse"
       id="clipPath82">
      <path
         d="M 0,0 H 960.009 V 540 H 0 Z"
         transform="translate(-504.38371,-189.2929)"
         id="path82" />
    </clipPath>
    <clipPath
       clipPathUnits="userSpaceOnUse"
       id="clipPath62">
      <path
         d="M 0,0 H 960.009 V 540 H 0 Z"
         transform="translate(-400.17211,-197.133)"
         id="path62" />
    </clipPath>
    <clipPath
       clipPathUnits="userSpaceOnUse"
       id="clipPath64">
      <path
         d="M 0,0 H 960.009 V 540 H 0 Z"
         transform="translate(-438.38491,-182.84691)"
         id="path64" />
    </clipPath>
    <clipPath
       clipPathUnits="userSpaceOnUse"
       id="clipPath66">
      <path
         d="M 0,0 H 960.009 V 540 H 0 Z"
         transform="translate(-416.77671,-183.0805)"
         id="path66" />
    </clipPath>
    <clipPath
       clipPathUnits="userSpaceOnUse"
       id="clipPath68">
      <path
         d="M 0,0 H 960.009 V 540 H 0 Z"
         transform="translate(-433.64651,-183.8322)"
         id="path68" />
    </clipPath>
    <clipPath
       clipPathUnits="userSpaceOnUse"
       id="clipPath70">
      <path
         d="M 0,0 H 960.009 V 540 H 0 Z"
         transform="translate(-417.30471,-184.38231)"
         id="path70" />
    </clipPath>
    <clipPath
       clipPathUnits="userSpaceOnUse"
       id="clipPath72">
      <path
         d="M 0,0 H 960.009 V 540 H 0 Z"
         transform="translate(-438.46141,-184.6746)"
         id="path72" />
    </clipPath>
    <clipPath
       clipPathUnits="userSpaceOnUse"
       id="clipPath58">
      <path
         d="M 0,0 H 960.009 V 540 H 0 Z"
         transform="translate(-335.41721,-174.7122)"
         id="path58" />
    </clipPath>
    <clipPath
       clipPathUnits="userSpaceOnUse"
       id="clipPath60">
      <path
         d="M 0,0 H 960.009 V 540 H 0 Z"
         transform="translate(-382.04741,-212.30661)"
         id="path60" />
    </clipPath>
    <clipPath
       clipPathUnits="userSpaceOnUse"
       id="clipPath54">
      <path
         d="M 0,0 H 960.009 V 540 H 0 Z"
         transform="translate(-458.80751,-133.5075)"
         id="path54" />
    </clipPath>
    <clipPath
       clipPathUnits="userSpaceOnUse"
       id="clipPath56">
      <path
         d="M 0,0 H 960.009 V 540 H 0 Z"
         transform="translate(-453.72421,-125.85711)"
         id="path56" />
    </clipPath>
  </defs>
  <g
     inkscape:label="Layer 1"
     inkscape:groupmode="layer"
     id="layer1"
     transform="translate(549.01054,443.70626)">
    <path
       id="path53"
       d="m 0,0 c 0.284,-3.558 0.872,-7.093 0.914,-10.664 0.06,-5.129 0.246,-10.149 -0.813,-15.155 -0.476,-2.247 -1.058,-4.678 -2.767,-6.092 -1.576,-1.304 -3.721,-1.411 -5.715,-1.463 -14.038,-0.369 -29.327,-0.781 -43.365,-1.149 -0.632,-0.017 -1.287,-0.029 -1.866,0.24 -0.629,0.292 -1.092,0.881 -1.46,1.498 -2.042,3.419 -1.739,7.803 -1.364,11.84 0.532,5.721 1.063,11.442 1.594,17.162 0.28,3.014 0.56,6.043 0.4,9.066 -0.205,3.857 -1.124,7.646 -1.237,11.509 -0.05,1.702 0.122,3.573 1.245,4.789 1.026,1.111 2.589,1.394 4.046,1.531 4.354,0.407 8.734,0.019 13.104,-0.019 11.789,-0.103 23.638,2.342 35.312,0.617 0.451,-0.066 0.909,-0.142 1.313,-0.363 C 0.9,22.492 0.846,20.136 0.569,18.291 0.569,18.291 -0.569,7.143 0,0"
       style="fill:#55bf9b;fill-opacity:1;fill-rule:nonzero;stroke:none"
       transform="matrix(0.35277776,0,0,-0.35277776,-529.00535,-435.12391)"
       clip-path="url(#clipPath54)" />
    <path
       id="path55"
       d="M 0,0 C 0.462,1.031 0.65,2.017 0.558,2.932 0.526,3.246 0.246,3.475 -0.067,3.443 -0.381,3.412 -0.61,3.132 -0.578,2.818 -0.507,2.104 -0.663,1.313 -1.042,0.467 -1.381,-0.287 -1.888,-1.082 -2.439,-1.918 -2.9,-0.5 -3.143,0.801 -3.194,2.093 c -0.011,0.276 -0.022,0.561 -0.039,0.852 0.365,0.298 0.717,0.615 1.049,0.958 1.068,1.106 1.602,2.394 1.542,3.725 -0.061,1.374 -0.775,2.72 -2.011,3.791 -2.139,1.852 -5.43,2.757 -9.029,2.484 -1.022,-0.078 -1.875,-0.301 -2.659,-0.718 -0.073,1.025 -0.258,2.057 -0.744,2.973 -0.479,0.902 -1.389,1.506 -2.498,1.655 -1.208,0.164 -2.441,-0.246 -3.217,-1.068 -1.593,-1.688 -1.304,-4.276 -0.991,-5.668 0.242,-1.074 1.016,-2.338 2.198,-2.741 0.551,-0.187 1.401,-0.251 2.319,0.511 0.476,0.395 0.859,0.865 1.23,1.318 0.208,0.255 0.406,0.498 0.616,0.723 0.001,-0.124 0.003,-0.246 0.006,-0.367 0.036,-1.476 -0.013,-2.979 -0.067,-4.441 -1.342,-1.266 -2.762,-2.463 -4.407,-3.223 -0.311,-0.143 -0.624,-0.264 -0.938,-0.364 -0.182,0.22 -0.362,0.447 -0.545,0.679 -0.345,0.438 -0.702,0.89 -1.1,1.309 -1.474,1.553 -3.345,2.306 -5.002,2.017 -0.246,-0.043 -0.483,-0.107 -0.711,-0.189 -0.405,0.954 -1.325,3.691 -1.948,5.578 l 0.37,-0.313 c 0.666,-0.569 1.66,-1.324 2.609,-1.324 1.651,0 2.084,1.24 2.401,2.145 l 0.066,0.188 c 0.648,1.811 0.488,3.961 0.414,4.396 -0.175,1.032 -0.787,1.938 -1.679,2.487 -0.847,0.521 -1.859,0.658 -2.775,0.375 -2.068,-0.637 -3.247,-2.508 -3.24,-5.015 -0.753,0.477 -1.562,0.829 -2.388,1.036 0,0 -0.023,0.005 -0.024,0.005 -2.549,0.632 -5.959,0.197 -7.835,-2.195 -1.476,-1.882 -1.775,-4.71 -0.822,-7.76 0.312,-0.998 0.86,-1.925 1.391,-2.821 0.465,-0.786 0.916,-1.547 1.189,-2.316 -0.511,-0.58 -1.084,-1.125 -1.676,-1.689 -0.801,-0.762 -1.63,-1.55 -2.32,-2.459 -0.784,-1.033 -1.192,-2.001 -1.244,-2.957 -0.042,-0.76 -0.027,-1.845 0.589,-2.496 0.321,-0.339 0.766,-0.518 1.287,-0.518 1.699,0 4.371,2.985 4.76,8.384 0.037,0.51 -0.015,0.999 -0.127,1.472 0.268,0.338 0.518,0.692 0.741,1.068 0.29,0.488 0.527,1.002 0.757,1.5 0.496,1.073 0.965,2.086 1.888,2.738 0.53,0.375 1.146,0.525 1.692,0.414 1.332,-0.271 1.826,-1.836 2.133,-3.33 0.006,-0.027 0.011,-0.054 0.016,-0.081 -0.702,-1.097 -4.568,-7.289 -4.397,-10.3 0.03,-0.536 0.317,-1.044 0.788,-1.393 0.539,-0.4 1.252,-0.545 1.907,-0.386 0.537,0.13 1.169,0.611 1.472,1.12 1.749,2.942 2.222,6.452 1.441,10.714 0.522,0.75 1.213,1.617 2.058,2.194 0.845,-1.498 1.877,-2.556 3.077,-3.151 1.281,-0.635 2.822,-0.772 4.401,-0.416 0.229,-0.244 0.472,-0.478 0.736,-0.694 1.195,-0.978 3.13,-1.564 4.557,-0.539 1.414,1.017 1.472,2.873 1.514,4.229 l 0.003,0.097 c 0.014,0.426 0.029,0.851 0.045,1.277 0.27,0.258 0.536,0.517 0.801,0.776 l 0.056,0.054 c 0.692,0.674 1.434,1.06 1.933,1.006 0.271,-0.029 0.5,-0.191 0.7,-0.494 0.173,-0.263 0.528,-0.335 0.791,-0.162 0.263,0.173 0.336,0.528 0.162,0.791 -0.49,0.743 -1.102,0.954 -1.53,1 -1.17,0.127 -2.29,-0.774 -2.853,-1.323 L -14.307,7.22 c 0.034,1.101 0.054,2.218 0.027,3.329 -0.007,0.279 -0.008,0.565 -0.01,0.856 -0.001,0.157 -0.002,0.316 -0.004,0.477 0.784,0.542 1.604,0.798 2.699,0.882 3.298,0.252 6.284,-0.554 8.194,-2.209 C -2.39,9.679 -1.83,8.65 -1.783,7.577 -1.738,6.567 -2.16,5.571 -3.005,4.696 -3.122,4.576 -3.241,4.459 -3.363,4.345 -3.418,4.732 -3.493,5.121 -3.598,5.506 -4.001,6.995 -4.73,7.833 -5.766,7.997 -7.553,8.278 -9.063,6.745 -9.812,5.346 c -1.323,-2.472 -1.249,-4.92 -0.712,-7.325 -0.719,-1.154 -1.28,-2.463 -1.676,-3.912 -0.528,-1.934 -1.01,-4.141 -0.038,-5.848 0.367,-0.643 0.942,-1.037 1.621,-1.109 0.074,-0.008 0.148,-0.012 0.223,-0.012 0.726,0 1.493,0.365 2.048,0.985 1.343,1.503 0.904,3.648 0.371,5.349 -0.128,0.408 -0.261,0.817 -0.394,1.226 -0.342,1.051 -0.678,2.084 -0.933,3.105 0.238,0.349 0.491,0.68 0.761,0.993 0.909,1.053 2.045,1.829 3.247,2.65 0.317,0.217 0.638,0.436 0.956,0.662 0.001,-0.021 0.002,-0.042 0.003,-0.062 0.065,-1.656 0.419,-3.315 1.105,-5.167 -1.472,-2.279 -2.809,-4.807 -1.604,-7.482 0.65,-1.443 1.694,-1.473 2.112,-1.418 1.095,0.143 2.086,1.242 2.304,2.556 0.308,1.86 -0.455,3.65 -1.129,5.229 -0.117,0.276 -0.233,0.548 -0.342,0.816 -0.022,0.055 -0.044,0.109 -0.066,0.163 0.081,0.122 0.163,0.245 0.243,0.367 C -1.049,-1.887 -0.422,-0.942 0,0 m -16.112,11.824 c -0.296,-0.299 -0.561,-0.623 -0.817,-0.936 -0.352,-0.431 -0.684,-0.837 -1.075,-1.162 -0.416,-0.346 -0.816,-0.446 -1.221,-0.309 -0.63,0.215 -1.254,1.036 -1.452,1.911 -0.263,1.171 -0.522,3.33 0.708,4.633 0.449,0.475 1.134,0.746 1.851,0.746 0.127,0 0.254,-0.008 0.381,-0.025 0.74,-0.1 1.339,-0.486 1.643,-1.059 0.492,-0.928 0.613,-2.046 0.647,-3.186 -0.223,-0.184 -0.444,-0.388 -0.665,-0.613 m -12.286,6.926 c 0.603,0.185 1.273,0.092 1.841,-0.257 0.611,-0.377 1.031,-0.998 1.151,-1.705 0.054,-0.313 0.204,-2.233 -0.363,-3.821 l -0.069,-0.195 c -0.326,-0.932 -0.518,-1.38 -1.323,-1.38 -0.291,0 -0.85,0.182 -1.867,1.05 l -1.745,1.477 c -0.302,2.442 0.597,4.283 2.375,4.831 M -40.206,-0.878 c -0.348,-4.832 -2.696,-7.324 -3.621,-7.324 -0.273,0 -0.392,0.092 -0.457,0.161 -0.232,0.245 -0.326,0.799 -0.279,1.648 0.04,0.721 0.371,1.483 1.014,2.329 0.634,0.836 1.429,1.592 2.197,2.323 0.386,0.367 0.777,0.739 1.155,1.126 0,-0.087 -0.003,-0.175 -0.009,-0.263 m 7.027,-6.676 c -0.144,-0.242 -0.519,-0.536 -0.759,-0.594 -0.329,-0.08 -0.687,-0.008 -0.957,0.193 -0.198,0.147 -0.318,0.344 -0.329,0.54 -0.11,1.937 2.11,6.159 3.538,8.536 0.431,-3.417 -0.062,-6.269 -1.493,-8.675 m 2.097,11.603 c -0.41,1.492 -1.153,2.966 -2.806,3.302 -0.865,0.177 -1.782,-0.036 -2.58,-0.6 -1.172,-0.828 -1.727,-2.03 -2.265,-3.192 -0.227,-0.493 -0.443,-0.959 -0.702,-1.396 -0.07,-0.118 -0.144,-0.235 -0.22,-0.349 -0.291,0.638 -0.656,1.253 -1.014,1.859 -0.521,0.878 -1.012,1.708 -1.284,2.58 -0.397,1.271 -1.13,4.468 0.63,6.714 1.134,1.445 2.978,2.022 4.742,2.022 0.666,0 1.32,-0.082 1.921,-0.23 l 0.137,0.554 -0.117,-0.56 c 1.003,-0.25 1.98,-0.753 2.838,-1.46 0.32,-0.987 1.99,-6.119 2.587,-7.496 -0.732,-0.473 -1.352,-1.11 -1.867,-1.748 m 5.968,-1.407 c -0.978,0.485 -1.836,1.37 -2.559,2.637 0.127,0.039 0.256,0.071 0.389,0.094 1.28,0.224 2.766,-0.403 3.977,-1.678 0.362,-0.381 0.687,-0.794 1.031,-1.23 0.066,-0.083 0.131,-0.166 0.198,-0.25 -1.107,-0.144 -2.167,-0.004 -3.036,0.427 m 9.563,1.69 -0.003,-0.098 c -0.039,-1.241 -0.083,-2.648 -1.04,-3.336 -0.896,-0.643 -2.271,-0.238 -3.166,0.495 -0.075,0.061 -0.148,0.124 -0.22,0.189 0.188,0.073 0.376,0.152 0.563,0.238 1.446,0.668 2.701,1.618 3.87,2.656 -10e-4,-0.048 -0.003,-0.096 -0.004,-0.144 m 6.486,-11.199 c 0.443,-1.413 0.828,-3.173 -0.133,-4.247 -0.365,-0.408 -0.874,-0.643 -1.298,-0.598 -0.312,0.033 -0.565,0.214 -0.75,0.538 -0.82,1.44 -0.19,3.744 0.148,4.983 0.256,0.939 0.587,1.814 0.989,2.618 0.204,-0.698 0.429,-1.391 0.654,-2.08 0.131,-0.405 0.263,-0.81 0.39,-1.214 m 3.127,9.259 C -7.148,1.565 -8.4,0.71 -9.406,-0.456 c -0.068,-0.08 -0.136,-0.16 -0.203,-0.242 -0.287,1.854 -0.174,3.677 0.804,5.505 0.431,0.804 1.437,2.081 2.61,2.081 0.083,0 0.167,-0.006 0.251,-0.019 C -5.386,6.781 -4.979,6.237 -4.7,5.208 -4.547,4.644 -4.465,4.052 -4.414,3.468 -4.901,3.1 -5.412,2.751 -5.938,2.392 m 4.393,-11.668 c -0.146,-0.879 -0.802,-1.542 -1.324,-1.61 -0.368,-0.049 -0.677,0.206 -0.924,0.754 -0.862,1.914 -0.055,3.828 1.088,5.703 0.036,-0.084 0.072,-0.168 0.108,-0.253 0.642,-1.506 1.306,-3.063 1.052,-4.594"
       style="fill:#ffffff;fill-opacity:1;fill-rule:nonzero;stroke:none"
       transform="matrix(0.35277776,0,0,-0.35277776,-530.79863,-432.42502)"
       clip-path="url(#clipPath56)" />
  </g>
</svg>
