<?xml version="1.0" encoding="UTF-8" standalone="no"?>
<!-- Created with Inkscape (http://www.inkscape.org/) -->

<svg
   width="16.022108mm"
   height="15.986124mm"
   viewBox="0 0 16.022108 15.986124"
   version="1.1"
   id="svg1"
   inkscape:version="1.4 (e7c3feb1, 2024-10-09)"
   sodipodi:docname="ARC.svg"
   xmlns:inkscape="http://www.inkscape.org/namespaces/inkscape"
   xmlns:sodipodi="http://sodipodi.sourceforge.net/DTD/sodipodi-0.dtd"
   xmlns="http://www.w3.org/2000/svg"
   xmlns:svg="http://www.w3.org/2000/svg">
  <sodipodi:namedview
     id="namedview1"
     pagecolor="#ffffff"
     bordercolor="#000000"
     borderopacity="0.25"
     inkscape:showpageshadow="2"
     inkscape:pageopacity="0.0"
     inkscape:pagecheckerboard="0"
     inkscape:deskcolor="#d1d1d1"
     inkscape:document-units="mm"
     inkscape:zoom="3.4212031"
     inkscape:cx="-2.1922113"
     inkscape:cy="18.853017"
     inkscape:window-width="1440"
     inkscape:window-height="872"
     inkscape:window-x="0"
     inkscape:window-y="28"
     inkscape:window-maximized="0"
     inkscape:current-layer="layer1" />
  <defs
     id="defs1">
    <clipPath
       clipPathUnits="userSpaceOnUse"
       id="clipPath22">
      <path
         d="M 0,0 H 841.89 V 595.276 H 0 Z"
         transform="translate(-116.31291,-375.94591)"
         id="path22" />
    </clipPath>
    <clipPath
       clipPathUnits="userSpaceOnUse"
       id="clipPath24">
      <path
         d="M 0,0 H 841.89 V 595.276 H 0 Z"
         transform="translate(-139.1415,-392.50891)"
         id="path24" />
    </clipPath>
    <clipPath
       clipPathUnits="userSpaceOnUse"
       id="clipPath26">
      <path
         d="M 0,0 H 841.89 V 595.276 H 0 Z"
         transform="translate(-125.1015,-387.80331)"
         id="path26" />
    </clipPath>
    <clipPath
       clipPathUnits="userSpaceOnUse"
       id="clipPath28">
      <path
         d="M 0,0 H 841.89 V 595.276 H 0 Z"
         transform="translate(-116.4081,-398.42731)"
         id="path28" />
    </clipPath>
    <clipPath
       clipPathUnits="userSpaceOnUse"
       id="clipPath30">
      <path
         d="M 0,0 H 841.89 V 595.276 H 0 Z"
         transform="translate(-112.43691,-405.29651)"
         id="path30" />
    </clipPath>
    <clipPath
       clipPathUnits="userSpaceOnUse"
       id="clipPath32">
      <path
         d="M 0,0 H 841.89 V 595.276 H 0 Z"
         transform="translate(-118.95111,-403.44641)"
         id="path32" />
    </clipPath>
    <clipPath
       clipPathUnits="userSpaceOnUse"
       id="clipPath34">
      <path
         d="M 0,0 H 841.89 V 595.276 H 0 Z"
         transform="translate(-136.1908,-382.59821)"
         id="path34" />
    </clipPath>
    <clipPath
       clipPathUnits="userSpaceOnUse"
       id="clipPath36">
      <path
         d="M 0,0 H 841.89 V 595.276 H 0 Z"
         transform="translate(-141.81291,-390.33991)"
         id="path36" />
    </clipPath>
    <clipPath
       clipPathUnits="userSpaceOnUse"
       id="clipPath38">
      <path
         d="M 0,0 H 841.89 V 595.276 H 0 Z"
         transform="translate(-109.13571,-383.44741)"
         id="path38" />
    </clipPath>
    <clipPath
       clipPathUnits="userSpaceOnUse"
       id="clipPath40">
      <path
         d="M 0,0 H 841.89 V 595.276 H 0 Z"
         transform="translate(-144.1542,-387.93421)"
         id="path40" />
    </clipPath>
    <clipPath
       clipPathUnits="userSpaceOnUse"
       id="clipPath44">
      <path
         d="M 0,0 H 841.89 V 595.276 H 0 Z"
         transform="translate(-144.82611,-381.53181)"
         id="path44" />
    </clipPath>
    <clipPath
       clipPathUnits="userSpaceOnUse"
       id="clipPath148">
      <path
         d="M 0,0 H 841.89 V 595.276 H 0 Z"
         transform="translate(-203.72161,-375.94491)"
         id="path148" />
    </clipPath>
    <clipPath
       clipPathUnits="userSpaceOnUse"
       id="clipPath150">
      <path
         d="M 0,0 H 841.89 V 595.276 H 0 Z"
         transform="translate(-227.7187,-401.97671)"
         id="path150" />
    </clipPath>
    <clipPath
       clipPathUnits="userSpaceOnUse"
       id="clipPath152">
      <path
         d="M 0,0 H 841.89 V 595.276 H 0 Z"
         transform="translate(-208.15131,-404.98461)"
         id="path152" />
    </clipPath>
    <clipPath
       clipPathUnits="userSpaceOnUse"
       id="clipPath154">
      <path
         d="M 0,0 H 841.89 V 595.276 H 0 Z"
         transform="translate(-215.76651,-396.58801)"
         id="path154" />
    </clipPath>
    <clipPath
       clipPathUnits="userSpaceOnUse"
       id="clipPath170">
      <path
         d="M 0,0 H 841.89 V 595.276 H 0 Z"
         transform="translate(-232.2265,-381.55531)"
         id="path170" />
    </clipPath>
  </defs>
  <g
     inkscape:label="Layer 1"
     inkscape:groupmode="layer"
     id="layer1"
     transform="translate(-104.51042,-139.17083)">
    <path
       id="path147"
       d="m 0,0 c -6.807,0 -12.326,5.506 -12.326,12.301 v 20.716 c 0,6.794 5.519,12.298 12.326,12.298 h 20.764 c 6.805,0 12.326,-5.504 12.327,-12.298 V 12.301 C 33.09,5.506 27.569,0 20.764,0 Z M -8.065,41.06 C -10.129,39 -11.403,36.159 -11.403,33.017 V 12.301 c 0,-3.142 1.274,-5.984 3.338,-8.044 C -6,2.197 -3.151,0.925 0,0.925 h 20.764 c 3.15,0 5.999,1.272 8.064,3.332 2.065,2.06 3.341,4.902 3.341,8.044 v 20.716 c 0,3.142 -1.276,5.983 -3.341,8.043 -2.065,2.059 -4.914,3.331 -8.064,3.332 H 0 C -3.151,44.391 -6,43.119 -8.065,41.06"
       style="fill:#231f20;fill-opacity:1;fill-rule:nonzero;stroke:none"
       transform="matrix(0.35277776,0,0,-0.35277776,108.85876,155.15695)"
       clip-path="url(#clipPath148)" />
    <path
       id="path149"
       d="m 0,0 c -0.922,9.316 -6.794,16.19 -6.794,16.19 -0.118,0.136 -0.084,-0.402 -0.078,-0.438 0.035,-0.19 0.504,-0.788 1.253,-2.382 1.419,-3.018 4.059,-7.629 4.602,-13.291 0.555,-5.797 -2.591,-11.406 -5.895,-17.245 0,0 0.187,-0.172 0.482,0.082 2.124,1.602 6.231,8.554 6.799,15.332 C 0.452,-0.765 0.103,-1.049 0,0"
       style="fill:#231f20;fill-opacity:1;fill-rule:nonzero;stroke:none"
       transform="matrix(0.35277776,0,0,-0.35277776,117.3244,145.97351)"
       clip-path="url(#clipPath150)" />
    <path
       id="path151"
       d="m 0,0 c -0.137,0.194 -1.922,2.728 -2.26,2.434 0.006,0.013 2.373,-3.59 2.471,-3.763 0.524,-0.963 1.137,-1.489 2.07,-1.732 1.612,-0.414 3.966,1.032 3.329,2.965 L 5.982,0.083 C 5.685,1.638 4.064,2.656 2.836,3.19 1.922,3.69 -1.66,4.486 -2.615,3.884 -2.498,3.96 0.531,0.692 0,0"
       style="fill:#231f20;fill-opacity:1;fill-rule:nonzero;stroke:none"
       transform="matrix(0.35277776,0,0,-0.35277776,110.42146,144.91239)"
       clip-path="url(#clipPath152)" />
    <path
       id="path153"
       d="M 0,0 C -0.34,1.768 9.428,4.263 10.022,4.5 10.345,4.63 9.727,5.012 9.633,5.019 8.899,5.062 -3.592,5.09 -5.022,4.284 c -4.222,0.627 -6.504,0.57 -6.77,0.832 -0.517,0.509 0.229,1.396 0.607,1.964 0.115,0.17 0.003,0.682 -0.17,0.627 -1.57,-0.496 -2.387,-1.358 -3.139,-2.225 -0.935,-1.08 -0.407,-2.242 0.002,-2.406 2.293,-0.917 6.532,-3.125 7.382,-6.006 0.086,-0.287 -0.571,-1.47 -1.061,-2.125 -2.278,-3.038 -5.439,-7.48 -5.809,-8.12 -0.602,-1.039 -0.542,-1.157 -0.913,-1.883 -0.237,-0.463 0.129,-0.361 0.354,-0.38 0.312,-0.028 3.8,1.896 6.094,3.747 3.207,2.591 3.462,3.566 5.002,3.908 1.113,0.248 1.919,-1.355 2.545,-2.619 0.421,-0.855 0.045,-5.075 0.375,-5.136 0.536,-0.1 3.441,3.714 2.467,7.157 C 1.277,-6.02 0.375,-1.945 0,0"
       style="fill:#231f20;fill-opacity:1;fill-rule:nonzero;stroke:none"
       transform="matrix(0.35277776,0,0,-0.35277776,113.10793,147.87452)"
       clip-path="url(#clipPath154)" />
    <path
       id="path167"
       d="m 116.63331,152.85768 h -0.28504 v -0.0804 h 0.67451 v 0.0804 h -0.28328 v 0.72072 h -0.10619 z"
       style="fill:#231f20;fill-opacity:1;fill-rule:nonzero;stroke:none;stroke-width:0.352778" />
    <path
       id="path168"
       d="m 117.14389,152.77725 h 0.14993 l 0.22331,0.63006 h 0.003 l 0.23001,-0.63006 h 0.1337 v 0.80116 h -0.0991 v -0.6604 h -0.003 l -0.2219,0.60713 h -0.10477 l -0.21625,-0.60713 h -0.002 v 0.6604 h -0.0931 z"
       style="fill:#231f20;fill-opacity:1;fill-rule:nonzero;stroke:none;stroke-width:0.352778" />
    <path
       id="path169"
       d="m 0,0 c 0,-0.625 -0.507,-1.136 -1.136,-1.136 -0.624,0 -1.137,0.511 -1.137,1.136 0,0.626 0.513,1.134 1.137,1.134 C -0.507,1.134 0,0.626 0,0 m -2.09,0 c 0,-0.537 0.417,-0.957 0.954,-0.957 0.536,0 0.955,0.42 0.955,0.957 0,0.534 -0.419,0.953 -0.955,0.953 C -1.673,0.953 -2.09,0.534 -2.09,0 m 1.366,-0.578 c -0.11,-0.039 -0.249,-0.07 -0.37,-0.07 -0.375,0 -0.626,0.267 -0.626,0.64 0,0.337 0.211,0.646 0.633,0.646 0.139,0 0.289,-0.029 0.363,-0.049 V 0.413 c -0.106,0.044 -0.23,0.078 -0.348,0.078 -0.292,0 -0.434,-0.228 -0.434,-0.499 0,-0.272 0.164,-0.478 0.446,-0.478 0.121,0 0.236,0.029 0.336,0.089 z"
       style="fill:#231f20;fill-opacity:1;fill-rule:nonzero;stroke:none"
       transform="matrix(0.35277776,0,0,-0.35277776,118.91465,153.17772)"
       clip-path="url(#clipPath170)" />
  </g>
</svg>
