<?xml version="1.0" encoding="UTF-8" standalone="no"?>
<!-- Created with Inkscape (http://www.inkscape.org/) -->

<svg
   width="16.022108mm"
   height="15.986124mm"
   viewBox="0 0 16.022108 15.986124"
   version="1.1"
   id="svg1"
   inkscape:version="1.4 (e7c3feb1, 2024-10-09)"
   sodipodi:docname="ATH.svg"
   xmlns:inkscape="http://www.inkscape.org/namespaces/inkscape"
   xmlns:sodipodi="http://sodipodi.sourceforge.net/DTD/sodipodi-0.dtd"
   xmlns="http://www.w3.org/2000/svg"
   xmlns:svg="http://www.w3.org/2000/svg">
  <sodipodi:namedview
     id="namedview1"
     pagecolor="#ffffff"
     bordercolor="#000000"
     borderopacity="0.25"
     inkscape:showpageshadow="2"
     inkscape:pageopacity="0.0"
     inkscape:pagecheckerboard="0"
     inkscape:deskcolor="#d1d1d1"
     inkscape:document-units="mm"
     inkscape:zoom="3.4212031"
     inkscape:cx="-56.266756"
     inkscape:cy="24.991209"
     inkscape:window-width="1440"
     inkscape:window-height="872"
     inkscape:window-x="0"
     inkscape:window-y="28"
     inkscape:window-maximized="0"
     inkscape:current-layer="layer1" />
  <defs
     id="defs1">
    <clipPath
       clipPathUnits="userSpaceOnUse"
       id="clipPath22">
      <path
         d="M 0,0 H 841.89 V 595.276 H 0 Z"
         transform="translate(-116.31291,-375.94591)"
         id="path22" />
    </clipPath>
    <clipPath
       clipPathUnits="userSpaceOnUse"
       id="clipPath24">
      <path
         d="M 0,0 H 841.89 V 595.276 H 0 Z"
         transform="translate(-139.1415,-392.50891)"
         id="path24" />
    </clipPath>
    <clipPath
       clipPathUnits="userSpaceOnUse"
       id="clipPath26">
      <path
         d="M 0,0 H 841.89 V 595.276 H 0 Z"
         transform="translate(-125.1015,-387.80331)"
         id="path26" />
    </clipPath>
    <clipPath
       clipPathUnits="userSpaceOnUse"
       id="clipPath28">
      <path
         d="M 0,0 H 841.89 V 595.276 H 0 Z"
         transform="translate(-116.4081,-398.42731)"
         id="path28" />
    </clipPath>
    <clipPath
       clipPathUnits="userSpaceOnUse"
       id="clipPath30">
      <path
         d="M 0,0 H 841.89 V 595.276 H 0 Z"
         transform="translate(-112.43691,-405.29651)"
         id="path30" />
    </clipPath>
    <clipPath
       clipPathUnits="userSpaceOnUse"
       id="clipPath32">
      <path
         d="M 0,0 H 841.89 V 595.276 H 0 Z"
         transform="translate(-118.95111,-403.44641)"
         id="path32" />
    </clipPath>
    <clipPath
       clipPathUnits="userSpaceOnUse"
       id="clipPath34">
      <path
         d="M 0,0 H 841.89 V 595.276 H 0 Z"
         transform="translate(-136.1908,-382.59821)"
         id="path34" />
    </clipPath>
    <clipPath
       clipPathUnits="userSpaceOnUse"
       id="clipPath36">
      <path
         d="M 0,0 H 841.89 V 595.276 H 0 Z"
         transform="translate(-141.81291,-390.33991)"
         id="path36" />
    </clipPath>
    <clipPath
       clipPathUnits="userSpaceOnUse"
       id="clipPath38">
      <path
         d="M 0,0 H 841.89 V 595.276 H 0 Z"
         transform="translate(-109.13571,-383.44741)"
         id="path38" />
    </clipPath>
    <clipPath
       clipPathUnits="userSpaceOnUse"
       id="clipPath40">
      <path
         d="M 0,0 H 841.89 V 595.276 H 0 Z"
         transform="translate(-144.1542,-387.93421)"
         id="path40" />
    </clipPath>
    <clipPath
       clipPathUnits="userSpaceOnUse"
       id="clipPath44">
      <path
         d="M 0,0 H 841.89 V 595.276 H 0 Z"
         transform="translate(-144.82611,-381.53181)"
         id="path44" />
    </clipPath>
    <clipPath
       clipPathUnits="userSpaceOnUse"
       id="clipPath148">
      <path
         d="M 0,0 H 841.89 V 595.276 H 0 Z"
         transform="translate(-203.72161,-375.94491)"
         id="path148" />
    </clipPath>
    <clipPath
       clipPathUnits="userSpaceOnUse"
       id="clipPath150">
      <path
         d="M 0,0 H 841.89 V 595.276 H 0 Z"
         transform="translate(-227.7187,-401.97671)"
         id="path150" />
    </clipPath>
    <clipPath
       clipPathUnits="userSpaceOnUse"
       id="clipPath152">
      <path
         d="M 0,0 H 841.89 V 595.276 H 0 Z"
         transform="translate(-208.15131,-404.98461)"
         id="path152" />
    </clipPath>
    <clipPath
       clipPathUnits="userSpaceOnUse"
       id="clipPath154">
      <path
         d="M 0,0 H 841.89 V 595.276 H 0 Z"
         transform="translate(-215.76651,-396.58801)"
         id="path154" />
    </clipPath>
    <clipPath
       clipPathUnits="userSpaceOnUse"
       id="clipPath170">
      <path
         d="M 0,0 H 841.89 V 595.276 H 0 Z"
         transform="translate(-232.2265,-381.55531)"
         id="path170" />
    </clipPath>
    <clipPath
       clipPathUnits="userSpaceOnUse"
       id="clipPath80">
      <path
         d="M 0,0 H 841.89 V 595.276 H 0 Z"
         transform="translate(-291.13081,-375.94491)"
         id="path80" />
    </clipPath>
    <clipPath
       clipPathUnits="userSpaceOnUse"
       id="clipPath82">
      <path
         d="M 0,0 H 841.89 V 595.276 H 0 Z"
         transform="translate(-312.07221,-408.45181)"
         id="path82" />
    </clipPath>
    <clipPath
       clipPathUnits="userSpaceOnUse"
       id="clipPath84">
      <path
         d="M 0,0 H 841.89 V 595.276 H 0 Z"
         transform="translate(-318.26261,-405.37271)"
         id="path84" />
    </clipPath>
    <clipPath
       clipPathUnits="userSpaceOnUse"
       id="clipPath103">
      <path
         d="M 0,0 H 841.89 V 595.276 H 0 Z"
         transform="translate(-319.63711,-381.55531)"
         id="path103" />
    </clipPath>
  </defs>
  <g
     inkscape:label="Layer 1"
     inkscape:groupmode="layer"
     id="layer1"
     transform="translate(-118.79792,-137.58333)">
    <path
       id="path79"
       d="m 0,0 c -6.806,0 -12.326,5.506 -12.326,12.301 v 20.716 c 0,6.794 5.52,12.298 12.326,12.298 h 20.765 c 6.804,0 12.326,-5.504 12.326,-12.298 V 12.301 C 33.091,5.506 27.569,0 20.765,0 Z M -8.064,41.06 C -10.128,39 -11.403,36.159 -11.403,33.017 V 12.301 c 0,-3.142 1.275,-5.984 3.339,-8.044 C -5.999,2.197 -3.15,0.925 0,0.925 h 20.765 c 3.15,0 5.999,1.272 8.064,3.332 2.064,2.06 3.339,4.902 3.34,8.044 v 20.716 c -10e-4,3.142 -1.276,5.983 -3.34,8.043 -2.065,2.059 -4.914,3.331 -8.064,3.332 H 0 C -3.15,44.391 -5.999,43.119 -8.064,41.06"
       style="fill:#231f20;fill-opacity:1;fill-rule:nonzero;stroke:none"
       transform="matrix(0.35277776,0,0,-0.35277776,123.14626,153.56945)"
       clip-path="url(#clipPath80)" />
    <path
       id="path81"
       d="m 0,0 c -0.091,1.696 -1.668,3.015 -2.897,3.759 -0.9,0.664 -4.594,2.029 -5.696,1.527 0.135,0.064 2.883,-3.851 2.219,-4.509 -0.118,0.226 -1.651,3.18 -2.051,2.916 0.009,0.013 2.004,-4.162 2.084,-4.36 0.418,-1.1 0.992,-1.748 1.949,-2.141 1.654,-0.673 4.367,0.523 3.971,2.672"
       style="fill:#231f20;fill-opacity:1;fill-rule:nonzero;stroke:none"
       transform="matrix(0.35277776,0,0,-0.35277776,130.53392,142.10174)"
       clip-path="url(#clipPath82)" />
    <path
       id="path83"
       d="m 0,0 c 0,0 -2.598,-1.692 -3.484,-2.157 -3.002,-0.874 -7.418,1.927 -8.738,2.193 -1.404,0.284 -2.624,0.361 -5.26,0.177 -2.357,-0.165 -7.953,-2.326 -9.461,-3.313 -0.084,-0.054 0.133,-0.233 0.249,-0.454 0.105,-0.197 4.575,0.973 7.384,0.813 0.983,-0.057 1.608,-0.584 1.984,-1.186 0.322,-0.515 -4.671,-3.754 -5.384,-5.093 -0.344,-0.644 -0.301,-0.815 -0.516,-1.716 -0.343,-1.762 -2.343,-5.101 -4.162,-6.713 -2.179,-1.932 -2.758,-2.418 -5.196,-3.758 -0.479,-0.263 0.316,-0.621 0.596,-0.56 0.401,0.089 6.494,1.525 7.853,2.792 2.2,2.052 5.137,4.442 5.649,5.141 1.118,-0.442 2.158,-0.813 3.937,-1.291 1.454,-0.394 -1.421,-4.886 -1.581,-6.266 -0.015,-0.135 0.108,-0.672 0.227,-0.563 2.278,2.05 7.057,7.653 5.856,8.822 -2.758,2.684 -4.702,4.07 -4.702,4.07 0,0 3.463,2.11 5.626,4.005 1.402,-0.005 4.37,0.024 4.714,0.146 1.937,0.688 4.921,4.236 4.967,4.748 C 0.573,0.011 0,0 0,0"
       style="fill:#231f20;fill-opacity:1;fill-rule:nonzero;stroke:none"
       transform="matrix(0.35277776,0,0,-0.35277776,132.71775,143.18798)"
       clip-path="url(#clipPath84)" />
    <path
       id="path100"
       d="m 130.92099,151.27019 h -0.28504 v -0.0804 h 0.67451 v 0.0804 h -0.28364 v 0.72072 h -0.10583 z"
       style="fill:#231f20;fill-opacity:1;fill-rule:nonzero;stroke:none;stroke-width:0.352778" />
    <path
       id="path101"
       d="m 131.43153,151.18975 h 0.14993 l 0.22366,0.63006 h 0.002 l 0.23001,-0.63006 h 0.1337 v 0.80116 h -0.0988 v -0.6604 h -0.002 l -0.22225,0.60713 h -0.10513 l -0.2159,-0.60713 h -0.002 v 0.6604 h -0.0931 z"
       style="fill:#231f20;fill-opacity:1;fill-rule:nonzero;stroke:none;stroke-width:0.352778" />
    <path
       id="path102"
       d="m 0,0 c 0,-0.625 -0.508,-1.136 -1.136,-1.136 -0.625,0 -1.138,0.511 -1.138,1.136 0,0.626 0.513,1.134 1.138,1.134 C -0.508,1.134 0,0.626 0,0 m -2.091,0 c 0,-0.537 0.417,-0.957 0.955,-0.957 0.535,0 0.954,0.42 0.954,0.957 0,0.534 -0.419,0.953 -0.954,0.953 -0.538,0 -0.955,-0.419 -0.955,-0.953 m 1.366,-0.578 c -0.11,-0.039 -0.249,-0.07 -0.369,-0.07 -0.376,0 -0.625,0.267 -0.625,0.64 0,0.337 0.21,0.646 0.632,0.646 0.139,0 0.289,-0.029 0.362,-0.049 V 0.413 c -0.106,0.044 -0.229,0.078 -0.348,0.078 -0.292,0 -0.433,-0.228 -0.433,-0.499 0,-0.272 0.164,-0.478 0.446,-0.478 0.12,0 0.235,0.029 0.335,0.089 z"
       style="fill:#231f20;fill-opacity:1;fill-rule:nonzero;stroke:none"
       transform="matrix(0.35277776,0,0,-0.35277776,133.20265,151.59023)"
       clip-path="url(#clipPath103)" />
  </g>
</svg>
