<?xml version="1.0" encoding="UTF-8" standalone="no"?>
<!-- Created with Inkscape (http://www.inkscape.org/) -->

<svg
   width="16.022108mm"
   height="15.986124mm"
   viewBox="0 0 16.022108 15.986124"
   version="1.1"
   id="svg1"
   inkscape:version="1.4 (e7c3feb1, 2024-10-09)"
   sodipodi:docname="BDM.svg"
   xmlns:inkscape="http://www.inkscape.org/namespaces/inkscape"
   xmlns:sodipodi="http://sodipodi.sourceforge.net/DTD/sodipodi-0.dtd"
   xmlns="http://www.w3.org/2000/svg"
   xmlns:svg="http://www.w3.org/2000/svg">
  <sodipodi:namedview
     id="namedview1"
     pagecolor="#ffffff"
     bordercolor="#000000"
     borderopacity="0.25"
     inkscape:showpageshadow="2"
     inkscape:pageopacity="0.0"
     inkscape:pagecheckerboard="0"
     inkscape:deskcolor="#d1d1d1"
     inkscape:document-units="mm"
     inkscape:zoom="3.4212031"
     inkscape:cx="-11.253351"
     inkscape:cy="57.435935"
     inkscape:window-width="1440"
     inkscape:window-height="872"
     inkscape:window-x="0"
     inkscape:window-y="28"
     inkscape:window-maximized="0"
     inkscape:current-layer="layer1" />
  <defs
     id="defs1">
    <clipPath
       clipPathUnits="userSpaceOnUse"
       id="clipPath22">
      <path
         d="M 0,0 H 841.89 V 595.276 H 0 Z"
         transform="translate(-116.31291,-375.94591)"
         id="path22" />
    </clipPath>
    <clipPath
       clipPathUnits="userSpaceOnUse"
       id="clipPath24">
      <path
         d="M 0,0 H 841.89 V 595.276 H 0 Z"
         transform="translate(-139.1415,-392.50891)"
         id="path24" />
    </clipPath>
    <clipPath
       clipPathUnits="userSpaceOnUse"
       id="clipPath26">
      <path
         d="M 0,0 H 841.89 V 595.276 H 0 Z"
         transform="translate(-125.1015,-387.80331)"
         id="path26" />
    </clipPath>
    <clipPath
       clipPathUnits="userSpaceOnUse"
       id="clipPath28">
      <path
         d="M 0,0 H 841.89 V 595.276 H 0 Z"
         transform="translate(-116.4081,-398.42731)"
         id="path28" />
    </clipPath>
    <clipPath
       clipPathUnits="userSpaceOnUse"
       id="clipPath30">
      <path
         d="M 0,0 H 841.89 V 595.276 H 0 Z"
         transform="translate(-112.43691,-405.29651)"
         id="path30" />
    </clipPath>
    <clipPath
       clipPathUnits="userSpaceOnUse"
       id="clipPath32">
      <path
         d="M 0,0 H 841.89 V 595.276 H 0 Z"
         transform="translate(-118.95111,-403.44641)"
         id="path32" />
    </clipPath>
    <clipPath
       clipPathUnits="userSpaceOnUse"
       id="clipPath34">
      <path
         d="M 0,0 H 841.89 V 595.276 H 0 Z"
         transform="translate(-136.1908,-382.59821)"
         id="path34" />
    </clipPath>
    <clipPath
       clipPathUnits="userSpaceOnUse"
       id="clipPath36">
      <path
         d="M 0,0 H 841.89 V 595.276 H 0 Z"
         transform="translate(-141.81291,-390.33991)"
         id="path36" />
    </clipPath>
    <clipPath
       clipPathUnits="userSpaceOnUse"
       id="clipPath38">
      <path
         d="M 0,0 H 841.89 V 595.276 H 0 Z"
         transform="translate(-109.13571,-383.44741)"
         id="path38" />
    </clipPath>
    <clipPath
       clipPathUnits="userSpaceOnUse"
       id="clipPath40">
      <path
         d="M 0,0 H 841.89 V 595.276 H 0 Z"
         transform="translate(-144.1542,-387.93421)"
         id="path40" />
    </clipPath>
    <clipPath
       clipPathUnits="userSpaceOnUse"
       id="clipPath44">
      <path
         d="M 0,0 H 841.89 V 595.276 H 0 Z"
         transform="translate(-144.82611,-381.53181)"
         id="path44" />
    </clipPath>
    <clipPath
       clipPathUnits="userSpaceOnUse"
       id="clipPath148">
      <path
         d="M 0,0 H 841.89 V 595.276 H 0 Z"
         transform="translate(-203.72161,-375.94491)"
         id="path148" />
    </clipPath>
    <clipPath
       clipPathUnits="userSpaceOnUse"
       id="clipPath150">
      <path
         d="M 0,0 H 841.89 V 595.276 H 0 Z"
         transform="translate(-227.7187,-401.97671)"
         id="path150" />
    </clipPath>
    <clipPath
       clipPathUnits="userSpaceOnUse"
       id="clipPath152">
      <path
         d="M 0,0 H 841.89 V 595.276 H 0 Z"
         transform="translate(-208.15131,-404.98461)"
         id="path152" />
    </clipPath>
    <clipPath
       clipPathUnits="userSpaceOnUse"
       id="clipPath154">
      <path
         d="M 0,0 H 841.89 V 595.276 H 0 Z"
         transform="translate(-215.76651,-396.58801)"
         id="path154" />
    </clipPath>
    <clipPath
       clipPathUnits="userSpaceOnUse"
       id="clipPath170">
      <path
         d="M 0,0 H 841.89 V 595.276 H 0 Z"
         transform="translate(-232.2265,-381.55531)"
         id="path170" />
    </clipPath>
    <clipPath
       clipPathUnits="userSpaceOnUse"
       id="clipPath80">
      <path
         d="M 0,0 H 841.89 V 595.276 H 0 Z"
         transform="translate(-291.13081,-375.94491)"
         id="path80" />
    </clipPath>
    <clipPath
       clipPathUnits="userSpaceOnUse"
       id="clipPath82">
      <path
         d="M 0,0 H 841.89 V 595.276 H 0 Z"
         transform="translate(-312.07221,-408.45181)"
         id="path82" />
    </clipPath>
    <clipPath
       clipPathUnits="userSpaceOnUse"
       id="clipPath84">
      <path
         d="M 0,0 H 841.89 V 595.276 H 0 Z"
         transform="translate(-318.26261,-405.37271)"
         id="path84" />
    </clipPath>
    <clipPath
       clipPathUnits="userSpaceOnUse"
       id="clipPath103">
      <path
         d="M 0,0 H 841.89 V 595.276 H 0 Z"
         transform="translate(-319.63711,-381.55531)"
         id="path103" />
    </clipPath>
    <clipPath
       clipPathUnits="userSpaceOnUse"
       id="clipPath105">
      <path
         d="M 0,0 H 841.89 V 595.276 H 0 Z"
         transform="translate(-378.54291,-375.94491)"
         id="path105" />
    </clipPath>
    <clipPath
       clipPathUnits="userSpaceOnUse"
       id="clipPath107">
      <path
         d="M 0,0 H 841.89 V 595.276 H 0 Z"
         transform="translate(-388.22751,-406.46441)"
         id="path107" />
    </clipPath>
    <clipPath
       clipPathUnits="userSpaceOnUse"
       id="clipPath109">
      <path
         d="M 0,0 H 841.89 V 595.276 H 0 Z"
         transform="translate(-399.21871,-404.85851)"
         id="path109" />
    </clipPath>
    <clipPath
       clipPathUnits="userSpaceOnUse"
       id="clipPath111">
      <path
         d="M 0,0 H 841.89 V 595.276 H 0 Z"
         transform="translate(-398.46961,-403.62021)"
         id="path111" />
    </clipPath>
    <clipPath
       clipPathUnits="userSpaceOnUse"
       id="clipPath113">
      <path
         d="M 0,0 H 841.89 V 595.276 H 0 Z"
         transform="translate(-392.92381,-412.60211)"
         id="path113" />
    </clipPath>
    <clipPath
       clipPathUnits="userSpaceOnUse"
       id="clipPath115">
      <path
         d="M 0,0 H 841.89 V 595.276 H 0 Z"
         transform="translate(-381.55561,-411.76331)"
         id="path115" />
    </clipPath>
    <clipPath
       clipPathUnits="userSpaceOnUse"
       id="clipPath117">
      <path
         d="M 0,0 H 841.89 V 595.276 H 0 Z"
         transform="translate(-378.83101,-412.57871)"
         id="path117" />
    </clipPath>
    <clipPath
       clipPathUnits="userSpaceOnUse"
       id="clipPath119">
      <path
         d="M 0,0 H 841.89 V 595.276 H 0 Z"
         transform="translate(-392.68351,-413.64611)"
         id="path119" />
    </clipPath>
    <clipPath
       clipPathUnits="userSpaceOnUse"
       id="clipPath121">
      <path
         d="M 0,0 H 841.89 V 595.276 H 0 Z"
         transform="translate(-395.06831,-415.78961)"
         id="path121" />
    </clipPath>
    <clipPath
       clipPathUnits="userSpaceOnUse"
       id="clipPath123">
      <path
         d="M 0,0 H 841.89 V 595.276 H 0 Z"
         transform="translate(-394.66791,-411.71051)"
         id="path123" />
    </clipPath>
    <clipPath
       clipPathUnits="userSpaceOnUse"
       id="clipPath125">
      <path
         d="M 0,0 H 841.89 V 595.276 H 0 Z"
         transform="translate(-393.35831,-411.70421)"
         id="path125" />
    </clipPath>
    <clipPath
       clipPathUnits="userSpaceOnUse"
       id="clipPath146">
      <path
         d="M 0,0 H 841.89 V 595.276 H 0 Z"
         transform="translate(-407.04781,-381.55531)"
         id="path146" />
    </clipPath>
  </defs>
  <g
     inkscape:label="Layer 1"
     inkscape:groupmode="layer"
     id="layer1"
     transform="translate(-143.66875,-128.85208)">
    <path
       id="path104"
       d="M 0,0 C -6.808,0 -12.326,5.506 -12.327,12.301 V 33.017 C -12.326,39.811 -6.808,45.315 0,45.315 h 20.763 c 6.805,0 12.327,-5.504 12.327,-12.298 V 12.301 C 33.09,5.506 27.568,0 20.763,0 Z m -8.064,41.06 c -2.065,-2.06 -3.34,-4.901 -3.34,-8.043 V 12.301 c 0,-3.142 1.275,-5.984 3.34,-8.044 C -6,2.197 -3.151,0.925 0,0.925 h 20.763 c 3.15,0 6.001,1.272 8.064,3.332 2.066,2.06 3.34,4.902 3.34,8.044 v 20.716 c 0,3.142 -1.274,5.983 -3.34,8.043 -2.063,2.059 -4.914,3.331 -8.064,3.332 H 0 C -3.151,44.391 -6,43.119 -8.064,41.06"
       style="fill:#231f20;fill-opacity:1;fill-rule:nonzero;stroke:none"
       transform="matrix(0.35277776,0,0,-0.35277776,148.01744,144.8382)"
       clip-path="url(#clipPath105)" />
    <path
       id="path106"
       d="m 0,0 c -1.749,-0.802 -1.235,-3.365 0.089,-4.217 0.768,-0.489 1.528,-0.576 2.533,-0.32 0.183,0.044 4.204,0.723 4.197,0.71 -0.01,0.424 -2.917,0.03 -3.139,-10e-4 0.137,0.814 4.353,0.817 4.376,0.688 C 7.859,-2.09 5,-0.119 4.065,0.192 2.904,0.7 1.155,1.168 -0.114,0.374"
       style="fill:#231f20;fill-opacity:1;fill-rule:nonzero;stroke:none"
       transform="matrix(0.35277776,0,0,-0.35277776,151.43395,134.0716)"
       clip-path="url(#clipPath107)" />
    <path
       id="path108"
       d="m 0,0 c -0.123,0.186 -0.372,0.248 -0.372,0.248 0,0 -0.953,-3.099 -2.287,-3.959 -1.924,-1.24 -3.883,-0.835 -6.5,-0.254 -2.502,0.556 -6,1.907 -12.878,4.71 -0.268,0.109 -0.176,-0.471 -0.114,-0.657 0.063,-0.186 5.891,-4.222 6.978,-5.625 1.087,-1.402 1.901,-4.329 1.212,-4.945 -1.023,-0.916 -3.617,-4.037 -4.158,-4.938 -1.195,-1.921 -0.508,-5.603 -0.149,-7.412 l 0.683,0.377 c 0,0 0.586,3.994 1.518,4.716 2.071,1.605 3.954,2.165 4.312,2.289 1.802,-2.67 4.513,-7.271 9.791,-9.524 0,0 0.393,-0.056 0.515,0.192 0.119,0.244 -2.514,3.039 -3.865,5.251 -0.506,1.345 -1.58,4.345 -2.362,7.698 0.561,2.66 2.954,4.164 6.308,5.953 C 0.309,-4.987 0.125,-0.186 0,0"
       style="fill:#231f20;fill-opacity:1;fill-rule:nonzero;stroke:none"
       transform="matrix(0.35277776,0,0,-0.35277776,155.31141,134.63813)"
       clip-path="url(#clipPath109)" />
    <path
       id="path110"
       d="M 0,0 C 0,0 -2.701,6.846 -2.752,6.984 -2.794,7.108 -2.267,7.209 -2.124,7.016 -1.981,6.823 0.721,0.398 0.797,0.235 0.875,0.07 0.313,0.061 0,0"
       style="fill:#231f20;fill-opacity:1;fill-rule:nonzero;stroke:none"
       transform="matrix(0.35277776,0,0,-0.35277776,155.04714,135.07497)"
       clip-path="url(#clipPath111)" />
    <path
       id="path112"
       d="M 0,0 C 0.496,-1.39 1.597,-2.384 2.774,-2.267 L 3.1,-2.295 c 0,0 0.213,-0.375 0.007,-0.415 -1.009,-0.199 -3.113,0.492 -3.752,2.134 l -0.306,0.439 C -2.067,2.596 -0.352,4.336 0.721,4.747 1.74,5.138 4.064,4.233 4.75,1.868 5.325,0.357 5.165,-1.502 4.249,-2.259 c 0,0 -0.079,-0.107 -0.452,-0.333 -0.508,-0.307 -0.305,0.333 -0.305,0.333 1.155,1.049 0.938,1.79 0.786,3.253 0,0 0.101,0.278 -0.041,0.766 C 3.824,3.182 2.309,4.197 1.017,3.7 0.233,3.422 -0.738,2.067 0,0"
       style="fill:#231f20;fill-opacity:1;fill-rule:nonzero;stroke:none"
       transform="matrix(0.35277776,0,0,-0.35277776,153.0907,131.90636)"
       clip-path="url(#clipPath113)" />
    <path
       id="path114"
       d="M 0,0 C 0.401,-0.04 0.684,-0.39 0.633,-0.781 0.581,-1.173 0.213,-1.458 -0.188,-1.417 -0.591,-1.378 -0.402,0.042 0,0"
       style="fill:#231f20;fill-opacity:1;fill-rule:nonzero;stroke:none"
       transform="matrix(0.35277776,0,0,-0.35277776,149.08026,132.20227)"
       clip-path="url(#clipPath115)" />
    <path
       id="path116"
       d="m 0,0 c 0,0 -0.397,-0.763 -0.52,-1.023 l 0.076,-1.4 0.578,-0.575 2.374,0.999 0.2,0.875 z"
       style="fill:#231f20;fill-opacity:1;fill-rule:nonzero;stroke:none"
       transform="matrix(0.35277776,0,0,-0.35277776,148.11908,131.91461)"
       clip-path="url(#clipPath117)" />
    <path
       id="path118"
       d="m 0,0 c 0.69,0.267 0.703,0.196 0.703,0.196 l 3.648,1.468 c 0,0 0.139,-0.287 0.054,-0.422 C 4.353,1.16 3.589,0.987 3.42,0.918 2.969,0.735 0.044,-0.334 0.044,-0.334 l -0.892,-0.02 0.553,0.283 z"
       style="fill:#231f20;fill-opacity:1;fill-rule:nonzero;stroke:none"
       transform="matrix(0.35277776,0,0,-0.35277776,153.00593,131.53806)"
       clip-path="url(#clipPath119)" />
    <path
       id="path120"
       d="M 0,0 C 0.331,-0.774 0.262,-0.796 0.262,-0.796 L 2.06,-4.892 c 0,0 -0.185,-0.311 -0.327,-0.223 -0.086,0.054 -0.42,1.049 -0.502,1.239 -0.224,0.505 -1.559,3.8 -1.559,3.8 L -0.429,0.95 -0.097,0.336 Z"
       style="fill:#231f20;fill-opacity:1;fill-rule:nonzero;stroke:none"
       transform="matrix(0.35277776,0,0,-0.35277776,153.84724,130.78188)"
       clip-path="url(#clipPath121)" />
    <path
       id="path122"
       d="m 0,0 0.194,-0.452 0.465,-1.141 0.199,0.146 c 0,0 -1.524,4.51 -1.713,4.993 -0.073,0.182 -0.259,1.005 -0.34,1.06 -0.138,0.09 -0.421,-0.065 -0.421,-0.065 0,0 1.66,-4.13 1.616,-4.541"
       style="fill:#231f20;fill-opacity:1;fill-rule:nonzero;stroke:none"
       transform="matrix(0.35277776,0,0,-0.35277776,153.70598,132.22089)"
       clip-path="url(#clipPath123)" />
    <path
       id="path124"
       d="m 0,0 c 1.437,0.666 2.365,0.849 2.365,0.849 l 1.987,0.815 c 0,0 0.138,-0.287 0.052,-0.422 C 4.354,1.161 3.588,0.987 3.42,0.919 2.97,0.736 0.043,-0.334 0.043,-0.334 l -0.591,0.042 0.252,0.222 z"
       style="fill:#231f20;fill-opacity:1;fill-rule:nonzero;stroke:none"
       transform="matrix(0.35277776,0,0,-0.35277776,153.24399,132.22312)"
       clip-path="url(#clipPath125)" />
    <path
       id="path143"
       d="m 155.79199,142.53894 h -0.2854 v -0.0804 h 0.67451 v 0.0804 h -0.28292 v 0.72072 h -0.10619 z"
       style="fill:#231f20;fill-opacity:1;fill-rule:nonzero;stroke:none;stroke-width:0.352778" />
    <path
       id="path144"
       d="m 156.30253,142.4585 h 0.14993 l 0.22401,0.63006 h 0.002 l 0.22966,-0.63006 h 0.13405 v 0.80116 h -0.0995 v -0.6604 h -0.002 l -0.2219,0.60713 h -0.10512 l -0.21555,-0.60713 h -0.002 v 0.6604 h -0.0935 z"
       style="fill:#231f20;fill-opacity:1;fill-rule:nonzero;stroke:none;stroke-width:0.352778" />
    <path
       id="path145"
       d="m 0,0 c 0,-0.625 -0.507,-1.136 -1.136,-1.136 -0.624,0 -1.137,0.511 -1.137,1.136 0,0.626 0.513,1.134 1.137,1.134 C -0.507,1.134 0,0.626 0,0 m -2.09,0 c 0,-0.537 0.417,-0.957 0.954,-0.957 0.536,0 0.955,0.42 0.955,0.957 0,0.534 -0.419,0.953 -0.955,0.953 C -1.673,0.953 -2.09,0.534 -2.09,0 m 1.366,-0.578 c -0.11,-0.039 -0.249,-0.07 -0.369,-0.07 -0.376,0 -0.626,0.267 -0.626,0.64 0,0.337 0.211,0.646 0.633,0.646 0.138,0 0.287,-0.029 0.362,-0.049 V 0.413 c -0.106,0.044 -0.231,0.078 -0.347,0.078 -0.293,0 -0.434,-0.228 -0.434,-0.499 0,-0.272 0.163,-0.478 0.445,-0.478 0.12,0 0.236,0.029 0.336,0.089 z"
       style="fill:#231f20;fill-opacity:1;fill-rule:nonzero;stroke:none"
       transform="matrix(0.35277776,0,0,-0.35277776,158.07334,142.85898)"
       clip-path="url(#clipPath146)" />
  </g>
</svg>
