<?xml version="1.0" encoding="UTF-8" standalone="no"?>
<!-- Created with Inkscape (http://www.inkscape.org/) -->

<svg
   width="16.021755mm"
   height="15.986477mm"
   viewBox="0 0 16.021755 15.986477"
   version="1.1"
   id="svg1"
   inkscape:version="1.4 (e7c3feb1, 2024-10-09)"
   sodipodi:docname="BKB.svg"
   xmlns:inkscape="http://www.inkscape.org/namespaces/inkscape"
   xmlns:sodipodi="http://sodipodi.sourceforge.net/DTD/sodipodi-0.dtd"
   xmlns="http://www.w3.org/2000/svg"
   xmlns:svg="http://www.w3.org/2000/svg">
  <sodipodi:namedview
     id="namedview1"
     pagecolor="#ffffff"
     bordercolor="#000000"
     borderopacity="0.25"
     inkscape:showpageshadow="2"
     inkscape:pageopacity="0.0"
     inkscape:pagecheckerboard="0"
     inkscape:deskcolor="#d1d1d1"
     inkscape:document-units="mm"
     inkscape:zoom="3.4212031"
     inkscape:cx="-11.253351"
     inkscape:cy="53.343808"
     inkscape:window-width="1440"
     inkscape:window-height="872"
     inkscape:window-x="0"
     inkscape:window-y="28"
     inkscape:window-maximized="0"
     inkscape:current-layer="layer1" />
  <defs
     id="defs1">
    <clipPath
       clipPathUnits="userSpaceOnUse"
       id="clipPath22">
      <path
         d="M 0,0 H 841.89 V 595.276 H 0 Z"
         transform="translate(-116.31291,-375.94591)"
         id="path22" />
    </clipPath>
    <clipPath
       clipPathUnits="userSpaceOnUse"
       id="clipPath24">
      <path
         d="M 0,0 H 841.89 V 595.276 H 0 Z"
         transform="translate(-139.1415,-392.50891)"
         id="path24" />
    </clipPath>
    <clipPath
       clipPathUnits="userSpaceOnUse"
       id="clipPath26">
      <path
         d="M 0,0 H 841.89 V 595.276 H 0 Z"
         transform="translate(-125.1015,-387.80331)"
         id="path26" />
    </clipPath>
    <clipPath
       clipPathUnits="userSpaceOnUse"
       id="clipPath28">
      <path
         d="M 0,0 H 841.89 V 595.276 H 0 Z"
         transform="translate(-116.4081,-398.42731)"
         id="path28" />
    </clipPath>
    <clipPath
       clipPathUnits="userSpaceOnUse"
       id="clipPath30">
      <path
         d="M 0,0 H 841.89 V 595.276 H 0 Z"
         transform="translate(-112.43691,-405.29651)"
         id="path30" />
    </clipPath>
    <clipPath
       clipPathUnits="userSpaceOnUse"
       id="clipPath32">
      <path
         d="M 0,0 H 841.89 V 595.276 H 0 Z"
         transform="translate(-118.95111,-403.44641)"
         id="path32" />
    </clipPath>
    <clipPath
       clipPathUnits="userSpaceOnUse"
       id="clipPath34">
      <path
         d="M 0,0 H 841.89 V 595.276 H 0 Z"
         transform="translate(-136.1908,-382.59821)"
         id="path34" />
    </clipPath>
    <clipPath
       clipPathUnits="userSpaceOnUse"
       id="clipPath36">
      <path
         d="M 0,0 H 841.89 V 595.276 H 0 Z"
         transform="translate(-141.81291,-390.33991)"
         id="path36" />
    </clipPath>
    <clipPath
       clipPathUnits="userSpaceOnUse"
       id="clipPath38">
      <path
         d="M 0,0 H 841.89 V 595.276 H 0 Z"
         transform="translate(-109.13571,-383.44741)"
         id="path38" />
    </clipPath>
    <clipPath
       clipPathUnits="userSpaceOnUse"
       id="clipPath40">
      <path
         d="M 0,0 H 841.89 V 595.276 H 0 Z"
         transform="translate(-144.1542,-387.93421)"
         id="path40" />
    </clipPath>
    <clipPath
       clipPathUnits="userSpaceOnUse"
       id="clipPath44">
      <path
         d="M 0,0 H 841.89 V 595.276 H 0 Z"
         transform="translate(-144.82611,-381.53181)"
         id="path44" />
    </clipPath>
    <clipPath
       clipPathUnits="userSpaceOnUse"
       id="clipPath148">
      <path
         d="M 0,0 H 841.89 V 595.276 H 0 Z"
         transform="translate(-203.72161,-375.94491)"
         id="path148" />
    </clipPath>
    <clipPath
       clipPathUnits="userSpaceOnUse"
       id="clipPath150">
      <path
         d="M 0,0 H 841.89 V 595.276 H 0 Z"
         transform="translate(-227.7187,-401.97671)"
         id="path150" />
    </clipPath>
    <clipPath
       clipPathUnits="userSpaceOnUse"
       id="clipPath152">
      <path
         d="M 0,0 H 841.89 V 595.276 H 0 Z"
         transform="translate(-208.15131,-404.98461)"
         id="path152" />
    </clipPath>
    <clipPath
       clipPathUnits="userSpaceOnUse"
       id="clipPath154">
      <path
         d="M 0,0 H 841.89 V 595.276 H 0 Z"
         transform="translate(-215.76651,-396.58801)"
         id="path154" />
    </clipPath>
    <clipPath
       clipPathUnits="userSpaceOnUse"
       id="clipPath170">
      <path
         d="M 0,0 H 841.89 V 595.276 H 0 Z"
         transform="translate(-232.2265,-381.55531)"
         id="path170" />
    </clipPath>
    <clipPath
       clipPathUnits="userSpaceOnUse"
       id="clipPath80">
      <path
         d="M 0,0 H 841.89 V 595.276 H 0 Z"
         transform="translate(-291.13081,-375.94491)"
         id="path80" />
    </clipPath>
    <clipPath
       clipPathUnits="userSpaceOnUse"
       id="clipPath82">
      <path
         d="M 0,0 H 841.89 V 595.276 H 0 Z"
         transform="translate(-312.07221,-408.45181)"
         id="path82" />
    </clipPath>
    <clipPath
       clipPathUnits="userSpaceOnUse"
       id="clipPath84">
      <path
         d="M 0,0 H 841.89 V 595.276 H 0 Z"
         transform="translate(-318.26261,-405.37271)"
         id="path84" />
    </clipPath>
    <clipPath
       clipPathUnits="userSpaceOnUse"
       id="clipPath103">
      <path
         d="M 0,0 H 841.89 V 595.276 H 0 Z"
         transform="translate(-319.63711,-381.55531)"
         id="path103" />
    </clipPath>
    <clipPath
       clipPathUnits="userSpaceOnUse"
       id="clipPath105">
      <path
         d="M 0,0 H 841.89 V 595.276 H 0 Z"
         transform="translate(-378.54291,-375.94491)"
         id="path105" />
    </clipPath>
    <clipPath
       clipPathUnits="userSpaceOnUse"
       id="clipPath107">
      <path
         d="M 0,0 H 841.89 V 595.276 H 0 Z"
         transform="translate(-388.22751,-406.46441)"
         id="path107" />
    </clipPath>
    <clipPath
       clipPathUnits="userSpaceOnUse"
       id="clipPath109">
      <path
         d="M 0,0 H 841.89 V 595.276 H 0 Z"
         transform="translate(-399.21871,-404.85851)"
         id="path109" />
    </clipPath>
    <clipPath
       clipPathUnits="userSpaceOnUse"
       id="clipPath111">
      <path
         d="M 0,0 H 841.89 V 595.276 H 0 Z"
         transform="translate(-398.46961,-403.62021)"
         id="path111" />
    </clipPath>
    <clipPath
       clipPathUnits="userSpaceOnUse"
       id="clipPath113">
      <path
         d="M 0,0 H 841.89 V 595.276 H 0 Z"
         transform="translate(-392.92381,-412.60211)"
         id="path113" />
    </clipPath>
    <clipPath
       clipPathUnits="userSpaceOnUse"
       id="clipPath115">
      <path
         d="M 0,0 H 841.89 V 595.276 H 0 Z"
         transform="translate(-381.55561,-411.76331)"
         id="path115" />
    </clipPath>
    <clipPath
       clipPathUnits="userSpaceOnUse"
       id="clipPath117">
      <path
         d="M 0,0 H 841.89 V 595.276 H 0 Z"
         transform="translate(-378.83101,-412.57871)"
         id="path117" />
    </clipPath>
    <clipPath
       clipPathUnits="userSpaceOnUse"
       id="clipPath119">
      <path
         d="M 0,0 H 841.89 V 595.276 H 0 Z"
         transform="translate(-392.68351,-413.64611)"
         id="path119" />
    </clipPath>
    <clipPath
       clipPathUnits="userSpaceOnUse"
       id="clipPath121">
      <path
         d="M 0,0 H 841.89 V 595.276 H 0 Z"
         transform="translate(-395.06831,-415.78961)"
         id="path121" />
    </clipPath>
    <clipPath
       clipPathUnits="userSpaceOnUse"
       id="clipPath123">
      <path
         d="M 0,0 H 841.89 V 595.276 H 0 Z"
         transform="translate(-394.66791,-411.71051)"
         id="path123" />
    </clipPath>
    <clipPath
       clipPathUnits="userSpaceOnUse"
       id="clipPath125">
      <path
         d="M 0,0 H 841.89 V 595.276 H 0 Z"
         transform="translate(-393.35831,-411.70421)"
         id="path125" />
    </clipPath>
    <clipPath
       clipPathUnits="userSpaceOnUse"
       id="clipPath146">
      <path
         d="M 0,0 H 841.89 V 595.276 H 0 Z"
         transform="translate(-407.04781,-381.55531)"
         id="path146" />
    </clipPath>
    <clipPath
       clipPathUnits="userSpaceOnUse"
       id="clipPath172">
      <path
         d="M 0,0 H 841.89 V 595.276 H 0 Z"
         transform="translate(-465.95301,-375.99521)"
         id="path172" />
    </clipPath>
    <clipPath
       clipPathUnits="userSpaceOnUse"
       id="clipPath193">
      <path
         d="M 0,0 H 841.89 V 595.276 H 0 Z"
         transform="translate(-494.45991,-381.60611)"
         id="path193" />
    </clipPath>
    <clipPath
       clipPathUnits="userSpaceOnUse"
       id="clipPath195">
      <path
         d="M 0,0 H 841.89 V 595.276 H 0 Z"
         transform="translate(-489.57711,-415.26861)"
         id="path195" />
    </clipPath>
    <clipPath
       clipPathUnits="userSpaceOnUse"
       id="clipPath197">
      <path
         d="M 0,0 H 841.89 V 595.276 H 0 Z"
         transform="translate(-485.58101,-410.73591)"
         id="path197" />
    </clipPath>
    <clipPath
       clipPathUnits="userSpaceOnUse"
       id="clipPath199">
      <path
         d="M 0,0 H 841.89 V 595.276 H 0 Z"
         transform="translate(-484.44131,-413.28631)"
         id="path199" />
    </clipPath>
    <clipPath
       clipPathUnits="userSpaceOnUse"
       id="clipPath201">
      <path
         d="M 0,0 H 841.89 V 595.276 H 0 Z"
         transform="translate(-489.50481,-414.45521)"
         id="path201" />
    </clipPath>
    <clipPath
       clipPathUnits="userSpaceOnUse"
       id="clipPath203">
      <path
         d="M 0,0 H 841.89 V 595.276 H 0 Z"
         transform="translate(-489.30561,-412.84191)"
         id="path203" />
    </clipPath>
    <clipPath
       clipPathUnits="userSpaceOnUse"
       id="clipPath205">
      <path
         d="M 0,0 H 841.89 V 595.276 H 0 Z"
         transform="translate(-487.04191,-416.12701)"
         id="path205" />
    </clipPath>
    <clipPath
       clipPathUnits="userSpaceOnUse"
       id="clipPath207">
      <path
         d="M 0,0 H 841.89 V 595.276 H 0 Z"
         transform="translate(-477.55361,-409.56751)"
         id="path207" />
    </clipPath>
    <clipPath
       clipPathUnits="userSpaceOnUse"
       id="clipPath209">
      <path
         d="M 0,0 H 841.89 V 595.276 H 0 Z"
         transform="translate(-481.92471,-410.93271)"
         id="path209" />
    </clipPath>
    <clipPath
       clipPathUnits="userSpaceOnUse"
       id="clipPath211">
      <path
         d="M 0,0 H 841.89 V 595.276 H 0 Z"
         transform="translate(-483.36611,-412.48541)"
         id="path211" />
    </clipPath>
    <clipPath
       clipPathUnits="userSpaceOnUse"
       id="clipPath213">
      <path
         d="M 0,0 H 841.89 V 595.276 H 0 Z"
         transform="translate(-486.98141,-406.47911)"
         id="path213" />
    </clipPath>
    <clipPath
       clipPathUnits="userSpaceOnUse"
       id="clipPath215">
      <path
         d="M 0,0 H 841.89 V 595.276 H 0 Z"
         transform="translate(-481.97551,-407.67001)"
         id="path215" />
    </clipPath>
    <clipPath
       clipPathUnits="userSpaceOnUse"
       id="clipPath217">
      <path
         d="M 0,0 H 841.89 V 595.276 H 0 Z"
         transform="translate(-466.52821,-402.89471)"
         id="path217" />
    </clipPath>
    <clipPath
       clipPathUnits="userSpaceOnUse"
       id="clipPath219">
      <path
         d="M 0,0 H 841.89 V 595.276 H 0 Z"
         transform="translate(-458.91301,-401.85211)"
         id="path219" />
    </clipPath>
    <clipPath
       clipPathUnits="userSpaceOnUse"
       id="clipPath221">
      <path
         d="M 0,0 H 841.89 V 595.276 H 0 Z"
         transform="translate(-493.70791,-385.98501)"
         id="path221" />
    </clipPath>
  </defs>
  <g
     inkscape:label="Layer 1"
     inkscape:groupmode="layer"
     id="layer1"
     transform="translate(-143.66875,-129.91041)">
    <path
       id="path171"
       d="m 0,0 c -6.806,0 -12.325,5.505 -12.327,12.3 v 20.716 c 0.002,6.795 5.521,12.3 12.327,12.3 h 20.763 c 6.806,0 12.326,-5.505 12.326,-12.3 V 12.3 C 33.089,5.505 27.569,0 20.763,0 Z m -8.065,41.059 c -2.063,-2.059 -3.338,-4.9 -3.34,-8.043 V 12.3 c 0.002,-3.142 1.277,-5.983 3.34,-8.043 C -6,2.198 -3.151,0.924 0,0.924 h 20.763 c 3.152,0 6,1.274 8.064,3.333 2.065,2.06 3.34,4.901 3.34,8.043 v 20.716 c 0,3.143 -1.275,5.984 -3.34,8.043 -2.064,2.059 -4.912,3.332 -8.064,3.332 L 0,44.391 c -3.151,0 -6,-1.273 -8.065,-3.332"
       style="fill:#231f20;fill-opacity:1;fill-rule:nonzero;stroke:none"
       transform="matrix(0.35277776,0,0,-0.35277776,148.01744,145.89689)"
       clip-path="url(#clipPath172)" />
    <path
       id="path190"
       d="m 155.79199,143.59745 h -0.2854 v -0.0801 h 0.67522 v 0.0801 h -0.28363 v 0.72108 h -0.10619 z"
       style="fill:#231f20;fill-opacity:1;fill-rule:nonzero;stroke:none;stroke-width:0.352778" />
    <path
       id="path191"
       d="m 156.30292,143.51754 h 0.14922 l 0.22402,0.62971 h 0.002 l 0.23071,-0.62971 h 0.133 v 0.80116 h -0.0988 v -0.66075 h -0.002 l -0.2219,0.60748 h -0.10477 l -0.21625,-0.60748 h -0.002 v 0.66075 h -0.0928 z"
       style="fill:#231f20;fill-opacity:1;fill-rule:nonzero;stroke:none;stroke-width:0.352778" />
    <path
       id="path192"
       d="m 0,0 c 0,-0.626 -0.51,-1.137 -1.137,-1.137 -0.623,0 -1.138,0.511 -1.138,1.137 0,0.626 0.515,1.133 1.138,1.133 C -0.51,1.133 0,0.626 0,0 m -2.092,0 c 0,-0.537 0.416,-0.958 0.955,-0.958 0.535,0 0.955,0.421 0.955,0.958 0,0.533 -0.42,0.952 -0.955,0.952 -0.539,0 -0.955,-0.419 -0.955,-0.952 m 1.365,-0.578 c -0.109,-0.04 -0.248,-0.071 -0.369,-0.071 -0.377,0 -0.625,0.267 -0.625,0.641 0,0.336 0.211,0.647 0.633,0.647 0.139,0 0.287,-0.031 0.361,-0.051 V 0.412 c -0.103,0.043 -0.228,0.079 -0.347,0.079 -0.293,0 -0.434,-0.228 -0.434,-0.499 0,-0.272 0.166,-0.479 0.445,-0.479 0.124,0 0.237,0.029 0.336,0.089 z"
       style="fill:#231f20;fill-opacity:1;fill-rule:nonzero;stroke:none"
       transform="matrix(0.35277776,0,0,-0.35277776,158.07404,143.91749)"
       clip-path="url(#clipPath193)" />
    <path
       id="path194"
       d="M 0,0 -0.228,-0.011 -0.4,-0.53 c -0.295,-1.216 -0.588,-2.431 -0.882,-3.646 l 0.339,-1.02 c 0.119,0.006 0.437,0.058 0.478,0.225 0.379,1.565 0.647,3.25 1.024,4.816 C 0.621,0.104 0.314,0.067 0,0"
       style="fill:#231f20;fill-opacity:1;fill-rule:nonzero;stroke:none"
       transform="matrix(0.35277776,0,0,-0.35277776,156.3515,132.04211)"
       clip-path="url(#clipPath195)" />
    <path
       id="path196"
       d="m 0,0 c -0.098,0.751 -0.195,1.502 -0.293,2.252 l -0.462,1.663 -0.203,0.026 c -0.089,0.01 -0.55,0.015 -0.526,-0.175 0.181,-1.404 0.365,-2.808 0.548,-4.212 0.026,-0.207 0.315,-0.255 0.481,-0.277 L 0.01,-0.786 0.082,-0.338 0.043,-0.333 C 0.029,-0.222 0.014,-0.111 0,0"
       style="fill:#231f20;fill-opacity:1;fill-rule:nonzero;stroke:none"
       transform="matrix(0.35277776,0,0,-0.35277776,154.94176,133.64114)"
       clip-path="url(#clipPath197)" />
    <path
       id="path198"
       d="M 0,0 C 1.46,-0.486 2.825,-1.35 3.963,-2.379 4.177,-2.573 4.921,-1.907 4.772,-1.772 3.614,-0.724 2.214,0.164 0.727,0.659 0.464,0.746 -0.21,0.069 0,0"
       style="fill:#231f20;fill-opacity:1;fill-rule:nonzero;stroke:none"
       transform="matrix(0.35277776,0,0,-0.35277776,154.5397,132.74142)"
       clip-path="url(#clipPath199)" />
    <path
       id="path200"
       d="m 0,0 c -1.227,-1.086 -2.746,-1.802 -4.281,-2.214 -0.25,-0.068 -0.778,-1.024 -0.438,-0.932 1.668,0.448 3.299,1.263 4.629,2.44 C 0.133,-0.509 0.533,0.473 0,0"
       style="fill:#231f20;fill-opacity:1;fill-rule:nonzero;stroke:none"
       transform="matrix(0.35277776,0,0,-0.35277776,156.32599,132.32906)"
       clip-path="url(#clipPath201)" />
    <path
       id="path202"
       d="m 0,0 c -1.377,-0.996 -2.191,-1.417 -3.84,-1.782 -0.273,-0.06 -0.904,-0.943 -0.537,-0.86 1.791,0.395 2.733,0.907 4.229,1.987 0.248,0.18 0.332,0.537 0.332,0.537 z"
       style="fill:#231f20;fill-opacity:1;fill-rule:nonzero;stroke:none"
       transform="matrix(0.35277776,0,0,-0.35277776,156.25572,132.89819)"
       clip-path="url(#clipPath203)" />
    <path
       id="path204"
       d="M 0,0 C -1.701,-0.171 -2.995,-0.859 -2.958,-1.482 -2.92,-2.172 -1.536,-2.521 0.156,-2.396 1.85,-2.272 3.123,-1.555 3.07,-0.93 3.012,-0.24 1.848,0.186 0,0 m -0.035,-2.045 c -1.184,0.087 -2.033,0.521 -2.084,0.983 -0.049,0.426 1.2,0.698 2.207,0.669 1.293,-0.039 2.154,-0.435 2.121,-0.966 -0.025,-0.456 -1.061,-0.772 -2.244,-0.686"
       style="fill:#231f20;fill-opacity:1;fill-rule:nonzero;stroke:none"
       transform="matrix(0.35277776,0,0,-0.35277776,155.45713,131.73928)"
       clip-path="url(#clipPath205)" />
    <path
       id="path206"
       d="m 0,0 c -0.618,0.84 -1.87,0.984 -2.752,0.951 -0.684,0.037 -3.039,-0.509 -3.436,-1.138 0.049,0.078 2.778,-1.001 2.659,-1.563 -0.135,0.076 -1.916,1.073 -2.034,0.803 0,0.009 2.432,-1.457 2.54,-1.532 0.584,-0.424 1.097,-0.561 1.72,-0.44 1.074,0.212 2.062,1.741 1.135,2.708"
       style="fill:#231f20;fill-opacity:1;fill-rule:nonzero;stroke:none"
       transform="matrix(0.35277776,0,0,-0.35277776,152.10987,134.05333)"
       clip-path="url(#clipPath207)" />
    <path
       id="path208"
       d="m 0,0 c 0,0 -0.357,-0.359 -0.854,-0.704 -0.498,-0.345 -3.042,-3.669 -4.354,-4.179 -0.901,-0.353 -5.058,0.162 -7.994,1.152 l -0.044,-0.188 c 0.505,-0.704 2.834,-3.189 3.661,-4.126 0.388,-0.439 0.825,-0.721 1.241,-0.903 -0.283,-0.35 -0.799,-1.077 -1.323,-2.258 -0.779,-1.758 -0.915,-5.383 -0.915,-5.383 0,0 0.102,-0.112 0.264,0.025 l 0.234,0.103 c 0.646,0.798 1.959,3.558 3.208,4.003 -0.077,-0.922 1.329,-8.986 1.329,-8.986 0,0 -0.121,-0.374 0.496,-0.345 L -3.184,-8.85 C -2.753,-7.89 -0.123,-1.145 0,0"
       style="fill:#231f20;fill-opacity:1;fill-rule:nonzero;stroke:none"
       transform="matrix(0.35277776,0,0,-0.35277776,153.6519,133.57172)"
       clip-path="url(#clipPath209)" />
    <path
       id="path210"
       d="m 0,0 c 0,-1.137 -0.92,-2.058 -2.058,-2.058 -1.136,0 -2.057,0.921 -2.057,2.058 0,1.137 0.921,2.058 2.057,2.058 C -0.92,2.058 0,1.137 0,0"
       style="fill:#231f20;fill-opacity:1;fill-rule:nonzero;stroke:none"
       transform="matrix(0.35277776,0,0,-0.35277776,154.16039,133.02396)"
       clip-path="url(#clipPath211)" />
    <path
       id="path212"
       d="m 0,0 c 0.852,0.502 1.996,0.164 2.752,-0.19 0.611,-0.22 2.459,-1.567 2.572,-2.261 -0.015,0.085 -2.789,0.153 -2.896,-0.38 0.148,0.016 2.07,0.227 2.07,-0.052 0.004,0.008 -2.656,-0.372 -2.776,-0.397 -0.667,-0.154 -1.166,-0.083 -1.663,0.253 -0.86,0.583 -1.155,2.279 0.011,2.779"
       style="fill:#231f20;fill-opacity:1;fill-rule:nonzero;stroke:none"
       transform="matrix(0.35277776,0,0,-0.35277776,155.43579,135.14285)"
       clip-path="url(#clipPath213)" />
    <path
       id="path214"
       d="m 0,0 c 0,0 0.322,-0.356 0.774,-0.706 0.453,-0.349 2.701,-3.615 3.914,-4.161 0.838,-0.375 4.781,-0.339 7.605,0.456 l 0.031,-0.181 c -0.998,-0.809 -2.142,-1.43 -3.517,-2.981 -0.301,-0.339 -0.92,-1.371 -1.263,-1.849 0.029,-0.816 0.146,-1.969 0.585,-3.112 0.654,-1.699 2.154,-2.944 2.154,-2.944 0,0 -0.185,-0.167 -0.365,-0.193 0,0 -2.895,-0.074 -4.397,2.76 -1.343,-4.82 0.384,-7.127 0.384,-7.127 0,0 0.379,-0.41 -0.204,-0.353 0,0 -3.979,2.99 -2.932,12.07 C 0.668,-2.228 0.063,-1.087 0,0"
       style="fill:#231f20;fill-opacity:1;fill-rule:nonzero;stroke:none"
       transform="matrix(0.35277776,0,0,-0.35277776,153.66982,134.72272)"
       clip-path="url(#clipPath215)" />
    <path
       id="path216"
       d="m 0,0 c -0.869,0.549 -2.066,0.232 -2.864,-0.113 -0.643,-0.21 -2.608,-1.553 -2.745,-2.271 0.016,0.089 2.903,0.073 2.998,-0.485 -0.153,0.021 -2.144,0.3 -2.156,0.01 -0.003,0.008 2.753,-0.468 2.877,-0.498 0.689,-0.18 1.21,-0.122 1.739,0.211 0.91,0.581 1.267,2.335 0.072,2.891"
       style="fill:#231f20;fill-opacity:1;fill-rule:nonzero;stroke:none"
       transform="matrix(0.35277776,0,0,-0.35277776,148.22036,136.40734)"
       clip-path="url(#clipPath217)" />
    <path
       id="path218"
       d="m 0,0 c 0.045,0.095 0.272,0.02 0.272,-0.1 0,-0.645 0.963,-1.955 1.33,-2.16 0.19,-0.106 0.706,-0.77 2.841,-0.85 4.409,-0.016 7.922,1.985 8.551,1.861 l 0.054,-0.26 C 12.75,-1.735 9.117,-4.727 8.788,-5.722 8.517,-6.534 8.489,-7.11 8.795,-9.375 c 0.18,-1.327 0.407,-2.919 -0.046,-3.948 -0.517,-1.175 -2.478,-3.32 -2.743,-3.412 -0.216,-0.073 -0.407,0.021 -0.407,0.021 0.317,0.343 0.88,2.311 0.796,3.828 -0.051,0.946 -0.28,2.284 -0.449,2.116 -0.523,-0.519 -1.287,-1.004 -2.945,-1.421 -1.705,-0.426 -3.538,0.739 -3.69,0.842 -0.192,0.129 -0.251,0.181 -0.222,0.303 0.053,0.213 0.079,0.249 0.167,0.244 0.25,-0.01 3.417,0.271 4.291,1.666 0.255,0.404 0.722,1.332 0.279,2.084 C 2.938,-5.545 1.592,-4.762 0.771,-3.58 -0.247,-2.115 -0.216,-0.466 0,0"
       style="fill:#231f20;fill-opacity:1;fill-rule:nonzero;stroke:none"
       transform="matrix(0.35277776,0,0,-0.35277776,145.53388,136.77515)"
       clip-path="url(#clipPath219)" />
    <path
       id="path220"
       d="m 0,0 v 0 c -3.424,-1.425 -6.82,-2.287 -13.408,-2.878 l -2.22,-0.213 c -1.89,-0.17 -2.96,-0.086 -4.698,-0.086 0,0 -6.491,0.128 -9.394,0.897 l -1.112,0.513 c -1.3,0.411 -2.128,0.548 -2.817,1.101 -0.691,0.557 -1.031,1.145 -1.031,1.768 0,0.489 0.206,1.009 0.624,1.542 1.249,1.608 4.364,3.237 8.48,4.29 l 4.454,-0.658 -5.618,-3.557 -0.183,0.028 -0.187,-0.292 -0.036,-0.023 c -0.419,-0.299 -0.7,-0.659 -0.701,-1.084 l -0.21,0.215 c 0.003,-0.425 0.135,-0.854 0.557,-1.152 l 0.598,-0.428 c 0.637,-0.451 0.652,-0.552 1.921,-0.811 l 1.364,-0.232 c 1.181,-0.138 1.974,-0.277 3.609,-0.277 l 1.458,0.069 c 2.325,0.173 2.907,0.318 4.353,0.752 0.507,0.152 0.945,0.325 1.309,0.518 l 9.968,3.59 3.785,-0.558 -0.98,0.914 -26.72,3.701 -0.596,-0.442 0.775,-0.115 c -2.353,-0.679 -4.342,-1.539 -5.799,-2.488 -0.828,-0.538 -1.488,-1.103 -1.946,-1.69 -0.456,-0.585 -0.717,-1.196 -0.717,-1.812 0,-0.794 0.444,-1.509 1.196,-2.109 1.131,-0.904 2.978,-1.61 5.346,-2.103 2.369,-0.49 5.26,-0.761 8.461,-0.761 1.75,0 3.48,-0.074 5.384,0.096 l 3.243,0.385 c 6.621,0.594 8.996,1.67 12.472,3.117 z m -15.457,-0.406 c -1.233,-0.251 -2.731,-0.399 -4.344,-0.399 -2.148,0 -3.673,0.055 -5.065,0.473 l -0.903,0.313 c -0.695,0.208 -0.769,0.354 -1.138,0.617 -0.372,0.264 -0.533,0.524 -0.531,0.75 -0.002,0.225 0.159,0.485 0.531,0.75 l 0.122,0.082 13.416,-1.957 c -0.545,-0.245 -1.258,-0.461 -2.088,-0.629 m 2.764,1.004 -0.014,-0.011 -13.228,2.01 c 0.498,0.193 1.105,0.365 1.79,0.505 1.235,0.25 2.731,0.398 4.342,0.398 h 0.002 c 2.151,10e-4 4.094,-0.262 5.487,-0.682 0.695,-0.209 1.253,-0.457 1.621,-0.72 0.373,-0.265 0.532,-0.525 0.531,-0.75 0.001,-0.226 -0.158,-0.486 -0.531,-0.75 m 8.636,3.162 -6.832,-2.197 -0.982,-0.678 c 0.075,0.145 0.117,0.299 0.118,0.463 -0.003,0.425 -0.28,0.785 -0.704,1.084 -0.637,0.451 -1.649,0.813 -2.918,1.071 -1.268,0.257 -2.162,0.469 -3.799,0.469 l -1.527,-0.173 c -1.936,0 -3,-0.121 -4.223,-0.451 l 4.592,2.812 z"
       style="fill:#231f20;fill-opacity:1;fill-rule:nonzero;stroke:none"
       transform="matrix(0.35277776,0,0,-0.35277776,157.80875,142.37271)"
       clip-path="url(#clipPath221)" />
  </g>
</svg>
