<?xml version="1.0" encoding="UTF-8" standalone="no"?>
<!-- Created with Inkscape (http://www.inkscape.org/) -->

<svg
   width="16.021049mm"
   height="15.985418mm"
   viewBox="0 0 16.021049 15.985418"
   version="1.1"
   id="svg1"
   inkscape:version="1.4 (e7c3feb1, 2024-10-09)"
   sodipodi:docname="ROW.svg"
   xmlns:inkscape="http://www.inkscape.org/namespaces/inkscape"
   xmlns:sodipodi="http://sodipodi.sourceforge.net/DTD/sodipodi-0.dtd"
   xmlns="http://www.w3.org/2000/svg"
   xmlns:svg="http://www.w3.org/2000/svg">
  <sodipodi:namedview
     id="namedview1"
     pagecolor="#ffffff"
     bordercolor="#000000"
     borderopacity="0.25"
     inkscape:showpageshadow="2"
     inkscape:pageopacity="0.0"
     inkscape:pagecheckerboard="0"
     inkscape:deskcolor="#d1d1d1"
     inkscape:document-units="mm"
     inkscape:zoom="3.4212031"
     inkscape:cx="-70.296908"
     inkscape:cy="23.529734"
     inkscape:window-width="1440"
     inkscape:window-height="872"
     inkscape:window-x="0"
     inkscape:window-y="28"
     inkscape:window-maximized="0"
     inkscape:current-layer="layer1" />
  <defs
     id="defs1">
    <clipPath
       clipPathUnits="userSpaceOnUse"
       id="clipPath22">
      <path
         d="M 0,0 H 841.89 V 595.276 H 0 Z"
         transform="translate(-116.31291,-375.94591)"
         id="path22" />
    </clipPath>
    <clipPath
       clipPathUnits="userSpaceOnUse"
       id="clipPath24">
      <path
         d="M 0,0 H 841.89 V 595.276 H 0 Z"
         transform="translate(-139.1415,-392.50891)"
         id="path24" />
    </clipPath>
    <clipPath
       clipPathUnits="userSpaceOnUse"
       id="clipPath26">
      <path
         d="M 0,0 H 841.89 V 595.276 H 0 Z"
         transform="translate(-125.1015,-387.80331)"
         id="path26" />
    </clipPath>
    <clipPath
       clipPathUnits="userSpaceOnUse"
       id="clipPath28">
      <path
         d="M 0,0 H 841.89 V 595.276 H 0 Z"
         transform="translate(-116.4081,-398.42731)"
         id="path28" />
    </clipPath>
    <clipPath
       clipPathUnits="userSpaceOnUse"
       id="clipPath30">
      <path
         d="M 0,0 H 841.89 V 595.276 H 0 Z"
         transform="translate(-112.43691,-405.29651)"
         id="path30" />
    </clipPath>
    <clipPath
       clipPathUnits="userSpaceOnUse"
       id="clipPath32">
      <path
         d="M 0,0 H 841.89 V 595.276 H 0 Z"
         transform="translate(-118.95111,-403.44641)"
         id="path32" />
    </clipPath>
    <clipPath
       clipPathUnits="userSpaceOnUse"
       id="clipPath34">
      <path
         d="M 0,0 H 841.89 V 595.276 H 0 Z"
         transform="translate(-136.1908,-382.59821)"
         id="path34" />
    </clipPath>
    <clipPath
       clipPathUnits="userSpaceOnUse"
       id="clipPath36">
      <path
         d="M 0,0 H 841.89 V 595.276 H 0 Z"
         transform="translate(-141.81291,-390.33991)"
         id="path36" />
    </clipPath>
    <clipPath
       clipPathUnits="userSpaceOnUse"
       id="clipPath38">
      <path
         d="M 0,0 H 841.89 V 595.276 H 0 Z"
         transform="translate(-109.13571,-383.44741)"
         id="path38" />
    </clipPath>
    <clipPath
       clipPathUnits="userSpaceOnUse"
       id="clipPath40">
      <path
         d="M 0,0 H 841.89 V 595.276 H 0 Z"
         transform="translate(-144.1542,-387.93421)"
         id="path40" />
    </clipPath>
    <clipPath
       clipPathUnits="userSpaceOnUse"
       id="clipPath44">
      <path
         d="M 0,0 H 841.89 V 595.276 H 0 Z"
         transform="translate(-144.82611,-381.53181)"
         id="path44" />
    </clipPath>
    <clipPath
       clipPathUnits="userSpaceOnUse"
       id="clipPath148">
      <path
         d="M 0,0 H 841.89 V 595.276 H 0 Z"
         transform="translate(-203.72161,-375.94491)"
         id="path148" />
    </clipPath>
    <clipPath
       clipPathUnits="userSpaceOnUse"
       id="clipPath150">
      <path
         d="M 0,0 H 841.89 V 595.276 H 0 Z"
         transform="translate(-227.7187,-401.97671)"
         id="path150" />
    </clipPath>
    <clipPath
       clipPathUnits="userSpaceOnUse"
       id="clipPath152">
      <path
         d="M 0,0 H 841.89 V 595.276 H 0 Z"
         transform="translate(-208.15131,-404.98461)"
         id="path152" />
    </clipPath>
    <clipPath
       clipPathUnits="userSpaceOnUse"
       id="clipPath154">
      <path
         d="M 0,0 H 841.89 V 595.276 H 0 Z"
         transform="translate(-215.76651,-396.58801)"
         id="path154" />
    </clipPath>
    <clipPath
       clipPathUnits="userSpaceOnUse"
       id="clipPath170">
      <path
         d="M 0,0 H 841.89 V 595.276 H 0 Z"
         transform="translate(-232.2265,-381.55531)"
         id="path170" />
    </clipPath>
    <clipPath
       clipPathUnits="userSpaceOnUse"
       id="clipPath80">
      <path
         d="M 0,0 H 841.89 V 595.276 H 0 Z"
         transform="translate(-291.13081,-375.94491)"
         id="path80" />
    </clipPath>
    <clipPath
       clipPathUnits="userSpaceOnUse"
       id="clipPath82">
      <path
         d="M 0,0 H 841.89 V 595.276 H 0 Z"
         transform="translate(-312.07221,-408.45181)"
         id="path82" />
    </clipPath>
    <clipPath
       clipPathUnits="userSpaceOnUse"
       id="clipPath84">
      <path
         d="M 0,0 H 841.89 V 595.276 H 0 Z"
         transform="translate(-318.26261,-405.37271)"
         id="path84" />
    </clipPath>
    <clipPath
       clipPathUnits="userSpaceOnUse"
       id="clipPath103">
      <path
         d="M 0,0 H 841.89 V 595.276 H 0 Z"
         transform="translate(-319.63711,-381.55531)"
         id="path103" />
    </clipPath>
    <clipPath
       clipPathUnits="userSpaceOnUse"
       id="clipPath105">
      <path
         d="M 0,0 H 841.89 V 595.276 H 0 Z"
         transform="translate(-378.54291,-375.94491)"
         id="path105" />
    </clipPath>
    <clipPath
       clipPathUnits="userSpaceOnUse"
       id="clipPath107">
      <path
         d="M 0,0 H 841.89 V 595.276 H 0 Z"
         transform="translate(-388.22751,-406.46441)"
         id="path107" />
    </clipPath>
    <clipPath
       clipPathUnits="userSpaceOnUse"
       id="clipPath109">
      <path
         d="M 0,0 H 841.89 V 595.276 H 0 Z"
         transform="translate(-399.21871,-404.85851)"
         id="path109" />
    </clipPath>
    <clipPath
       clipPathUnits="userSpaceOnUse"
       id="clipPath111">
      <path
         d="M 0,0 H 841.89 V 595.276 H 0 Z"
         transform="translate(-398.46961,-403.62021)"
         id="path111" />
    </clipPath>
    <clipPath
       clipPathUnits="userSpaceOnUse"
       id="clipPath113">
      <path
         d="M 0,0 H 841.89 V 595.276 H 0 Z"
         transform="translate(-392.92381,-412.60211)"
         id="path113" />
    </clipPath>
    <clipPath
       clipPathUnits="userSpaceOnUse"
       id="clipPath115">
      <path
         d="M 0,0 H 841.89 V 595.276 H 0 Z"
         transform="translate(-381.55561,-411.76331)"
         id="path115" />
    </clipPath>
    <clipPath
       clipPathUnits="userSpaceOnUse"
       id="clipPath117">
      <path
         d="M 0,0 H 841.89 V 595.276 H 0 Z"
         transform="translate(-378.83101,-412.57871)"
         id="path117" />
    </clipPath>
    <clipPath
       clipPathUnits="userSpaceOnUse"
       id="clipPath119">
      <path
         d="M 0,0 H 841.89 V 595.276 H 0 Z"
         transform="translate(-392.68351,-413.64611)"
         id="path119" />
    </clipPath>
    <clipPath
       clipPathUnits="userSpaceOnUse"
       id="clipPath121">
      <path
         d="M 0,0 H 841.89 V 595.276 H 0 Z"
         transform="translate(-395.06831,-415.78961)"
         id="path121" />
    </clipPath>
    <clipPath
       clipPathUnits="userSpaceOnUse"
       id="clipPath123">
      <path
         d="M 0,0 H 841.89 V 595.276 H 0 Z"
         transform="translate(-394.66791,-411.71051)"
         id="path123" />
    </clipPath>
    <clipPath
       clipPathUnits="userSpaceOnUse"
       id="clipPath125">
      <path
         d="M 0,0 H 841.89 V 595.276 H 0 Z"
         transform="translate(-393.35831,-411.70421)"
         id="path125" />
    </clipPath>
    <clipPath
       clipPathUnits="userSpaceOnUse"
       id="clipPath146">
      <path
         d="M 0,0 H 841.89 V 595.276 H 0 Z"
         transform="translate(-407.04781,-381.55531)"
         id="path146" />
    </clipPath>
    <clipPath
       clipPathUnits="userSpaceOnUse"
       id="clipPath172">
      <path
         d="M 0,0 H 841.89 V 595.276 H 0 Z"
         transform="translate(-465.95301,-375.99521)"
         id="path172" />
    </clipPath>
    <clipPath
       clipPathUnits="userSpaceOnUse"
       id="clipPath193">
      <path
         d="M 0,0 H 841.89 V 595.276 H 0 Z"
         transform="translate(-494.45991,-381.60611)"
         id="path193" />
    </clipPath>
    <clipPath
       clipPathUnits="userSpaceOnUse"
       id="clipPath195">
      <path
         d="M 0,0 H 841.89 V 595.276 H 0 Z"
         transform="translate(-489.57711,-415.26861)"
         id="path195" />
    </clipPath>
    <clipPath
       clipPathUnits="userSpaceOnUse"
       id="clipPath197">
      <path
         d="M 0,0 H 841.89 V 595.276 H 0 Z"
         transform="translate(-485.58101,-410.73591)"
         id="path197" />
    </clipPath>
    <clipPath
       clipPathUnits="userSpaceOnUse"
       id="clipPath199">
      <path
         d="M 0,0 H 841.89 V 595.276 H 0 Z"
         transform="translate(-484.44131,-413.28631)"
         id="path199" />
    </clipPath>
    <clipPath
       clipPathUnits="userSpaceOnUse"
       id="clipPath201">
      <path
         d="M 0,0 H 841.89 V 595.276 H 0 Z"
         transform="translate(-489.50481,-414.45521)"
         id="path201" />
    </clipPath>
    <clipPath
       clipPathUnits="userSpaceOnUse"
       id="clipPath203">
      <path
         d="M 0,0 H 841.89 V 595.276 H 0 Z"
         transform="translate(-489.30561,-412.84191)"
         id="path203" />
    </clipPath>
    <clipPath
       clipPathUnits="userSpaceOnUse"
       id="clipPath205">
      <path
         d="M 0,0 H 841.89 V 595.276 H 0 Z"
         transform="translate(-487.04191,-416.12701)"
         id="path205" />
    </clipPath>
    <clipPath
       clipPathUnits="userSpaceOnUse"
       id="clipPath207">
      <path
         d="M 0,0 H 841.89 V 595.276 H 0 Z"
         transform="translate(-477.55361,-409.56751)"
         id="path207" />
    </clipPath>
    <clipPath
       clipPathUnits="userSpaceOnUse"
       id="clipPath209">
      <path
         d="M 0,0 H 841.89 V 595.276 H 0 Z"
         transform="translate(-481.92471,-410.93271)"
         id="path209" />
    </clipPath>
    <clipPath
       clipPathUnits="userSpaceOnUse"
       id="clipPath211">
      <path
         d="M 0,0 H 841.89 V 595.276 H 0 Z"
         transform="translate(-483.36611,-412.48541)"
         id="path211" />
    </clipPath>
    <clipPath
       clipPathUnits="userSpaceOnUse"
       id="clipPath213">
      <path
         d="M 0,0 H 841.89 V 595.276 H 0 Z"
         transform="translate(-486.98141,-406.47911)"
         id="path213" />
    </clipPath>
    <clipPath
       clipPathUnits="userSpaceOnUse"
       id="clipPath215">
      <path
         d="M 0,0 H 841.89 V 595.276 H 0 Z"
         transform="translate(-481.97551,-407.67001)"
         id="path215" />
    </clipPath>
    <clipPath
       clipPathUnits="userSpaceOnUse"
       id="clipPath217">
      <path
         d="M 0,0 H 841.89 V 595.276 H 0 Z"
         transform="translate(-466.52821,-402.89471)"
         id="path217" />
    </clipPath>
    <clipPath
       clipPathUnits="userSpaceOnUse"
       id="clipPath219">
      <path
         d="M 0,0 H 841.89 V 595.276 H 0 Z"
         transform="translate(-458.91301,-401.85211)"
         id="path219" />
    </clipPath>
    <clipPath
       clipPathUnits="userSpaceOnUse"
       id="clipPath221">
      <path
         d="M 0,0 H 841.89 V 595.276 H 0 Z"
         transform="translate(-493.70791,-385.98501)"
         id="path221" />
    </clipPath>
    <clipPath
       clipPathUnits="userSpaceOnUse"
       id="clipPath223">
      <path
         d="M 0,0 H 841.89 V 595.276 H 0 Z"
         transform="translate(-553.36271,-375.99521)"
         id="path223" />
    </clipPath>
    <clipPath
       clipPathUnits="userSpaceOnUse"
       id="clipPath225">
      <path
         d="M 0,0 H 841.89 V 595.276 H 0 Z"
         transform="translate(-562.67131,-395.72181)"
         id="path225" />
    </clipPath>
    <clipPath
       clipPathUnits="userSpaceOnUse"
       id="clipPath227">
      <path
         d="M 0,0 H 841.89 V 595.276 H 0 Z"
         transform="translate(-568.48582,-408.67101)"
         id="path227" />
    </clipPath>
    <clipPath
       clipPathUnits="userSpaceOnUse"
       id="clipPath229">
      <path
         d="M 0,0 H 841.89 V 595.276 H 0 Z"
         transform="translate(-568.90571,-399.87561)"
         id="path229" />
    </clipPath>
    <clipPath
       clipPathUnits="userSpaceOnUse"
       id="clipPath231">
      <path
         d="M 0,0 H 841.89 V 595.276 H 0 Z"
         transform="translate(-567.55222,-398.50311)"
         id="path231" />
    </clipPath>
    <clipPath
       clipPathUnits="userSpaceOnUse"
       id="clipPath245">
      <path
         d="M 0,0 H 841.89 V 595.276 H 0 Z"
         transform="translate(-581.86661,-381.60611)"
         id="path245" />
    </clipPath>
    <clipPath
       clipPathUnits="userSpaceOnUse"
       id="clipPath276">
      <path
         d="M 0,0 H 841.89 V 595.276 H 0 Z"
         transform="translate(-640.77292,-375.99521)"
         id="path276" />
    </clipPath>
    <clipPath
       clipPathUnits="userSpaceOnUse"
       id="clipPath278">
      <path
         d="M 0,0 H 841.89 V 595.276 H 0 Z"
         transform="translate(-655.01512,-387.61921)"
         id="path278" />
    </clipPath>
    <clipPath
       clipPathUnits="userSpaceOnUse"
       id="clipPath280">
      <path
         d="M 0,0 H 841.89 V 595.276 H 0 Z"
         transform="translate(-668.49941,-385.23111)"
         id="path280" />
    </clipPath>
    <clipPath
       clipPathUnits="userSpaceOnUse"
       id="clipPath282">
      <path
         d="M 0,0 H 841.89 V 595.276 H 0 Z"
         transform="translate(-668.89982,-391.53231)"
         id="path282" />
    </clipPath>
    <clipPath
       clipPathUnits="userSpaceOnUse"
       id="clipPath284">
      <path
         d="M 0,0 H 841.89 V 595.276 H 0 Z"
         transform="translate(-640.93112,-391.82281)"
         id="path284" />
    </clipPath>
    <clipPath
       clipPathUnits="userSpaceOnUse"
       id="clipPath286">
      <path
         d="M 0,0 H 841.89 V 595.276 H 0 Z"
         transform="translate(-641.40182,-392.46691)"
         id="path286" />
    </clipPath>
    <clipPath
       clipPathUnits="userSpaceOnUse"
       id="clipPath288">
      <path
         d="M 0,0 H 841.89 V 595.276 H 0 Z"
         transform="translate(-647.81192,-406.74281)"
         id="path288" />
    </clipPath>
    <clipPath
       clipPathUnits="userSpaceOnUse"
       id="clipPath290">
      <path
         d="M 0,0 H 841.89 V 595.276 H 0 Z"
         transform="translate(-651.41741,-404.28961)"
         id="path290" />
    </clipPath>
    <clipPath
       clipPathUnits="userSpaceOnUse"
       id="clipPath292">
      <path
         d="M 0,0 H 841.89 V 595.276 H 0 Z"
         transform="translate(-663.88222,-391.85711)"
         id="path292" />
    </clipPath>
    <clipPath
       clipPathUnits="userSpaceOnUse"
       id="clipPath294">
      <path
         d="M 0,0 H 841.89 V 595.276 H 0 Z"
         transform="translate(-652.23581,-397.11541)"
         id="path294" />
    </clipPath>
    <clipPath
       clipPathUnits="userSpaceOnUse"
       id="clipPath316">
      <path
         d="M 0,0 H 841.89 V 595.276 H 0 Z"
         transform="translate(-669.27872,-381.60561)"
         id="path316" />
    </clipPath>
    <clipPath
       clipPathUnits="userSpaceOnUse"
       id="clipPath247">
      <path
         d="M 0,0 H 841.89 V 595.276 H 0 Z"
         transform="translate(-728.12642,-376.12661)"
         id="path247" />
    </clipPath>
    <clipPath
       clipPathUnits="userSpaceOnUse"
       id="clipPath249">
      <path
         d="M 0,0 H 841.89 V 595.276 H 0 Z"
         transform="translate(-720.10692,-408.93321)"
         id="path249" />
    </clipPath>
    <clipPath
       clipPathUnits="userSpaceOnUse"
       id="clipPath251">
      <path
         d="M 0,0 H 841.89 V 595.276 H 0 Z"
         transform="translate(-742.48192,-394.07681)"
         id="path251" />
    </clipPath>
    <clipPath
       clipPathUnits="userSpaceOnUse"
       id="clipPath253">
      <path
         d="M 0,0 H 841.89 V 595.276 H 0 Z"
         transform="translate(-756.57954,-395.99371)"
         id="path253" />
    </clipPath>
    <clipPath
       clipPathUnits="userSpaceOnUse"
       id="clipPath255">
      <path
         d="M 0,0 H 841.89 V 595.276 H 0 Z"
         transform="translate(-748.75532,-405.31991)"
         id="path255" />
    </clipPath>
    <clipPath
       clipPathUnits="userSpaceOnUse"
       id="clipPath257">
      <path
         d="M 0,0 H 841.89 V 595.276 H 0 Z"
         transform="translate(-745.71622,-413.08851)"
         id="path257" />
    </clipPath>
    <clipPath
       clipPathUnits="userSpaceOnUse"
       id="clipPath259">
      <path
         d="M 0,0 H 841.89 V 595.276 H 0 Z"
         transform="translate(-721.41742,-387.86731)"
         id="path259" />
    </clipPath>
    <clipPath
       clipPathUnits="userSpaceOnUse"
       id="clipPath274">
      <path
         d="M 0,0 H 841.89 V 595.276 H 0 Z"
         transform="translate(-756.68889,-381.81501)"
         id="path274" />
    </clipPath>
    <clipPath
       clipPathUnits="userSpaceOnUse"
       id="clipPath46">
      <path
         d="M 0,0 H 841.89 V 595.276 H 0 Z"
         transform="translate(-70.686002,-284.28821)"
         id="path46" />
    </clipPath>
    <clipPath
       clipPathUnits="userSpaceOnUse"
       id="clipPath48">
      <path
         d="M 0,0 H 841.89 V 595.276 H 0 Z"
         transform="translate(-74.136602,-306.70221)"
         id="path48" />
    </clipPath>
    <clipPath
       clipPathUnits="userSpaceOnUse"
       id="clipPath50">
      <path
         d="M 0,0 H 841.89 V 595.276 H 0 Z"
         transform="translate(-73.939402,-316.70421)"
         id="path50" />
    </clipPath>
    <clipPath
       clipPathUnits="userSpaceOnUse"
       id="clipPath52">
      <path
         d="M 0,0 H 841.89 V 595.276 H 0 Z"
         transform="translate(-63.382202,-304.51431)"
         id="path52" />
    </clipPath>
    <clipPath
       clipPathUnits="userSpaceOnUse"
       id="clipPath54">
      <path
         d="M 0,0 H 841.89 V 595.276 H 0 Z"
         transform="translate(-75.873902,-295.74671)"
         id="path54" />
    </clipPath>
    <clipPath
       clipPathUnits="userSpaceOnUse"
       id="clipPath56">
      <path
         d="M 0,0 H 841.89 V 595.276 H 0 Z"
         transform="translate(-66.602501,-293.58161)"
         id="path56" />
    </clipPath>
    <clipPath
       clipPathUnits="userSpaceOnUse"
       id="clipPath78">
      <path
         d="M 0,0 H 841.89 V 595.276 H 0 Z"
         transform="translate(-99.1918,-289.8995)"
         id="path78" />
    </clipPath>
    <clipPath
       clipPathUnits="userSpaceOnUse"
       id="clipPath318">
      <path
         d="M 0,0 H 841.89 V 595.276 H 0 Z"
         transform="translate(-158.0971,-284.28721)"
         id="path318" />
    </clipPath>
    <clipPath
       clipPathUnits="userSpaceOnUse"
       id="clipPath320">
      <path
         d="M 0,0 H 841.89 V 595.276 H 0 Z"
         transform="translate(-167.78901,-316.63441)"
         id="path320" />
    </clipPath>
    <clipPath
       clipPathUnits="userSpaceOnUse"
       id="clipPath322">
      <path
         d="M 0,0 H 841.89 V 595.276 H 0 Z"
         transform="translate(-153.3954,-313.80871)"
         id="path322" />
    </clipPath>
    <clipPath
       clipPathUnits="userSpaceOnUse"
       id="clipPath324">
      <path
         d="M 0,0 H 841.89 V 595.276 H 0 Z"
         transform="translate(-176.6845,-312.86141)"
         id="path324" />
    </clipPath>
    <clipPath
       clipPathUnits="userSpaceOnUse"
       id="clipPath326">
      <path
         d="M 0,0 H 841.89 V 595.276 H 0 Z"
         transform="translate(-176.41401,-311.52401)"
         id="path326" />
    </clipPath>
    <clipPath
       clipPathUnits="userSpaceOnUse"
       id="clipPath342">
      <path
         d="M 0,0 H 841.89 V 595.276 H 0 Z"
         transform="translate(-186.6025,-289.89761)"
         id="path342" />
    </clipPath>
    <clipPath
       clipPathUnits="userSpaceOnUse"
       id="clipPath344">
      <path
         d="M 0,0 H 841.89 V 595.276 H 0 Z"
         transform="translate(-245.50531,-284.2862)"
         id="path344" />
    </clipPath>
    <clipPath
       clipPathUnits="userSpaceOnUse"
       id="clipPath346">
      <path
         d="M 0,0 H 841.89 V 595.276 H 0 Z"
         transform="translate(-261.02481,-317.53181)"
         id="path346" />
    </clipPath>
    <clipPath
       clipPathUnits="userSpaceOnUse"
       id="clipPath348">
      <path
         d="M 0,0 H 841.89 V 595.276 H 0 Z"
         transform="translate(-244.6405,-313.76231)"
         id="path348" />
    </clipPath>
    <clipPath
       clipPathUnits="userSpaceOnUse"
       id="clipPath350">
      <path
         d="M 0,0 H 841.89 V 595.276 H 0 Z"
         transform="translate(-251.80561,-294.36481)"
         id="path350" />
    </clipPath>
    <clipPath
       clipPathUnits="userSpaceOnUse"
       id="clipPath367">
      <path
         d="M 0,0 H 841.89 V 595.276 H 0 Z"
         transform="translate(-274.01121,-289.89761)"
         id="path367" />
    </clipPath>
    <clipPath
       clipPathUnits="userSpaceOnUse"
       id="clipPath419">
      <path
         d="M 0,0 H 841.89 V 595.276 H 0 Z"
         transform="translate(-332.91501,-284.28721)"
         id="path419" />
    </clipPath>
    <clipPath
       clipPathUnits="userSpaceOnUse"
       id="clipPath421">
      <path
         d="M 0,0 H 841.89 V 595.276 H 0 Z"
         transform="translate(-351.76261,-303.32241)"
         id="path421" />
    </clipPath>
    <clipPath
       clipPathUnits="userSpaceOnUse"
       id="clipPath423">
      <path
         d="M 0,0 H 841.89 V 595.276 H 0 Z"
         transform="translate(-345.17421,-292.9952)"
         id="path423" />
    </clipPath>
    <clipPath
       clipPathUnits="userSpaceOnUse"
       id="clipPath425">
      <path
         d="M 0,0 H 841.89 V 595.276 H 0 Z"
         transform="translate(-361.50091,-295.5182)"
         id="path425" />
    </clipPath>
    <clipPath
       clipPathUnits="userSpaceOnUse"
       id="clipPath427">
      <path
         d="M 0,0 H 841.89 V 595.276 H 0 Z"
         transform="translate(-340.09711,-315.02161)"
         id="path427" />
    </clipPath>
    <clipPath
       clipPathUnits="userSpaceOnUse"
       id="clipPath429">
      <path
         d="M 0,0 H 841.89 V 595.276 H 0 Z"
         transform="translate(-339.97061,-303.90731)"
         id="path429" />
    </clipPath>
    <clipPath
       clipPathUnits="userSpaceOnUse"
       id="clipPath451">
      <path
         d="M 0,0 H 841.89 V 595.276 H 0 Z"
         transform="translate(-361.42131,-289.89851)"
         id="path451" />
    </clipPath>
    <clipPath
       clipPathUnits="userSpaceOnUse"
       id="clipPath369">
      <path
         d="M 0,0 H 841.89 V 595.276 H 0 Z"
         transform="translate(-420.32611,-284.28721)"
         id="path369" />
    </clipPath>
    <clipPath
       clipPathUnits="userSpaceOnUse"
       id="clipPath371">
      <path
         d="M 0,0 H 841.89 V 595.276 H 0 Z"
         transform="translate(-437.28171,-318.69201)"
         id="path371" />
    </clipPath>
    <clipPath
       clipPathUnits="userSpaceOnUse"
       id="clipPath373">
      <path
         d="M 0,0 H 841.89 V 595.276 H 0 Z"
         transform="translate(-420.03261,-316.74131)"
         id="path373" />
    </clipPath>
    <clipPath
       clipPathUnits="userSpaceOnUse"
       id="clipPath375">
      <path
         d="M 0,0 H 841.89 V 595.276 H 0 Z"
         transform="translate(-426.12981,-320.71491)"
         id="path375" />
    </clipPath>
    <clipPath
       clipPathUnits="userSpaceOnUse"
       id="clipPath392">
      <path
         d="M 0,0 H 841.89 V 595.276 H 0 Z"
         transform="translate(-448.83201,-289.89851)"
         id="path392" />
    </clipPath>
    <clipPath
       clipPathUnits="userSpaceOnUse"
       id="clipPath394">
      <path
         d="M 0,0 H 841.89 V 595.276 H 0 Z"
         transform="translate(-507.73721,-284.28721)"
         id="path394" />
    </clipPath>
    <clipPath
       clipPathUnits="userSpaceOnUse"
       id="clipPath396">
      <path
         d="M 0,0 H 841.89 V 595.276 H 0 Z"
         transform="translate(-512.39051,-305.39611)"
         id="path396" />
    </clipPath>
    <clipPath
       clipPathUnits="userSpaceOnUse"
       id="clipPath398">
      <path
         d="M 0,0 H 841.89 V 595.276 H 0 Z"
         transform="translate(-523.96091,-304.38491)"
         id="path398" />
    </clipPath>
    <clipPath
       clipPathUnits="userSpaceOnUse"
       id="clipPath400">
      <path
         d="M 0,0 H 841.89 V 595.276 H 0 Z"
         transform="translate(-523.65031,-317.42781)"
         id="path400" />
    </clipPath>
    <clipPath
       clipPathUnits="userSpaceOnUse"
       id="clipPath402">
      <path
         d="M 0,0 H 841.89 V 595.276 H 0 Z"
         transform="translate(-534.63661,-294.44101)"
         id="path402" />
    </clipPath>
    <clipPath
       clipPathUnits="userSpaceOnUse"
       id="clipPath404">
      <path
         d="M 0,0 H 841.89 V 595.276 H 0 Z"
         transform="translate(-536.29291,-298.1627)"
         id="path404" />
    </clipPath>
    <clipPath
       clipPathUnits="userSpaceOnUse"
       id="clipPath417">
      <path
         d="M 0,0 H 841.89 V 595.276 H 0 Z"
         transform="translate(-536.24212,-289.89661)"
         id="path417" />
    </clipPath>
    <clipPath
       clipPathUnits="userSpaceOnUse"
       id="clipPath453">
      <path
         d="M 0,0 H 841.89 V 595.276 H 0 Z"
         transform="translate(-595.14592,-284.27351)"
         id="path453" />
    </clipPath>
    <clipPath
       clipPathUnits="userSpaceOnUse"
       id="clipPath455">
      <path
         d="M 0,0 H 841.89 V 595.276 H 0 Z"
         transform="translate(-608.95262,-313.43661)"
         id="path455" />
    </clipPath>
    <clipPath
       clipPathUnits="userSpaceOnUse"
       id="clipPath457">
      <path
         d="M 0,0 H 841.89 V 595.276 H 0 Z"
         transform="translate(-602.78852,-301.62361)"
         id="path457" />
    </clipPath>
    <clipPath
       clipPathUnits="userSpaceOnUse"
       id="clipPath459">
      <path
         d="M 0,0 H 841.89 V 595.276 H 0 Z"
         transform="translate(-624.41152,-314.39321)"
         id="path459" />
    </clipPath>
    <clipPath
       clipPathUnits="userSpaceOnUse"
       id="clipPath471">
      <path
         d="M 0,0 H 841.89 V 595.276 H 0 Z"
         transform="translate(-623.65181,-289.88291)"
         id="path471" />
    </clipPath>
    <clipPath
       clipPathUnits="userSpaceOnUse"
       id="clipPath473">
      <path
         d="M 0,0 H 841.89 V 595.276 H 0 Z"
         transform="translate(-682.54442,-284.4542)"
         id="path473" />
    </clipPath>
    <clipPath
       clipPathUnits="userSpaceOnUse"
       id="clipPath475">
      <path
         d="M 0,0 H 841.89 V 595.276 H 0 Z"
         transform="translate(-698.39012,-316.68171)"
         id="path475" />
    </clipPath>
    <clipPath
       clipPathUnits="userSpaceOnUse"
       id="clipPath477">
      <path
         d="M 0,0 H 841.89 V 595.276 H 0 Z"
         transform="translate(-704.82372,-313.75111)"
         id="path477" />
    </clipPath>
    <clipPath
       clipPathUnits="userSpaceOnUse"
       id="clipPath479">
      <path
         d="M 0,0 H 841.89 V 595.276 H 0 Z"
         transform="translate(-682.54442,-313.27791)"
         id="path479" />
    </clipPath>
    <clipPath
       clipPathUnits="userSpaceOnUse"
       id="clipPath481">
      <path
         d="M 0,0 H 841.89 V 595.276 H 0 Z"
         transform="translate(-685.02092,-311.33751)"
         id="path481" />
    </clipPath>
    <clipPath
       clipPathUnits="userSpaceOnUse"
       id="clipPath483">
      <path
         d="M 0,0 H 841.89 V 595.276 H 0 Z"
         transform="translate(-711.44082,-299.82191)"
         id="path483" />
    </clipPath>
    <clipPath
       clipPathUnits="userSpaceOnUse"
       id="clipPath485">
      <path
         d="M 0,0 H 841.89 V 595.276 H 0 Z"
         transform="translate(-711.57372,-294.64951)"
         id="path485" />
    </clipPath>
    <clipPath
       clipPathUnits="userSpaceOnUse"
       id="clipPath487">
      <path
         d="M 0,0 H 841.89 V 595.276 H 0 Z"
         transform="translate(-708.92722,-314.59041)"
         id="path487" />
    </clipPath>
    <clipPath
       clipPathUnits="userSpaceOnUse"
       id="clipPath489">
      <path
         d="M 0,0 H 841.89 V 595.276 H 0 Z"
         transform="translate(-703.04442,-312.44441)"
         id="path489" />
    </clipPath>
    <clipPath
       clipPathUnits="userSpaceOnUse"
       id="clipPath491">
      <path
         d="M 0,0 H 841.89 V 595.276 H 0 Z"
         transform="translate(-705.77482,-314.02011)"
         id="path491" />
    </clipPath>
    <clipPath
       clipPathUnits="userSpaceOnUse"
       id="clipPath525">
      <path
         d="M 0,0 H 841.89 V 595.276 H 0 Z"
         transform="translate(-711.06192,-290.02841)"
         id="path525" />
    </clipPath>
    <clipPath
       clipPathUnits="userSpaceOnUse"
       id="clipPath585">
      <path
         d="M 0,0 H 841.89 V 595.276 H 0 Z"
         transform="translate(-769.96824,-284.27351)"
         id="path585" />
    </clipPath>
    <clipPath
       clipPathUnits="userSpaceOnUse"
       id="clipPath587">
      <path
         d="M 0,0 H 841.89 V 595.276 H 0 Z"
         transform="translate(-798.45264,-302.97471)"
         id="path587" />
    </clipPath>
    <clipPath
       clipPathUnits="userSpaceOnUse"
       id="clipPath589">
      <path
         d="M 0,0 H 841.89 V 595.276 H 0 Z"
         transform="translate(-776.83929,-315.27891)"
         id="path589" />
    </clipPath>
    <clipPath
       clipPathUnits="userSpaceOnUse"
       id="clipPath591">
      <path
         d="M 0,0 H 841.89 V 595.276 H 0 Z"
         transform="translate(-776.57949,-302.37121)"
         id="path591" />
    </clipPath>
    <clipPath
       clipPathUnits="userSpaceOnUse"
       id="clipPath593">
      <path
         d="M 0,0 H 841.89 V 595.276 H 0 Z"
         transform="translate(-790.37252,-315.27891)"
         id="path593" />
    </clipPath>
    <clipPath
       clipPathUnits="userSpaceOnUse"
       id="clipPath595">
      <path
         d="M 0,0 H 841.89 V 595.276 H 0 Z"
         transform="translate(-790.11272,-302.37121)"
         id="path595" />
    </clipPath>
    <clipPath
       clipPathUnits="userSpaceOnUse"
       id="clipPath597">
      <path
         d="M 0,0 H 841.89 V 595.276 H 0 Z"
         transform="translate(-762.88622,-298.40441)"
         id="path597" />
    </clipPath>
    <clipPath
       clipPathUnits="userSpaceOnUse"
       id="clipPath599">
      <path
         d="M 0,0 H 841.89 V 595.276 H 0 Z"
         transform="translate(-798.19674,-300.09921)"
         id="path599" />
    </clipPath>
    <clipPath
       clipPathUnits="userSpaceOnUse"
       id="clipPath601">
      <path
         d="M 0,0 H 841.89 V 595.276 H 0 Z"
         transform="translate(-782.48972,-313.17441)"
         id="path601" />
    </clipPath>
    <clipPath
       clipPathUnits="userSpaceOnUse"
       id="clipPath603">
      <path
         d="M 0,0 H 841.89 V 595.276 H 0 Z"
         transform="translate(-796.05999,-313.17441)"
         id="path603" />
    </clipPath>
    <clipPath
       clipPathUnits="userSpaceOnUse"
       id="clipPath617">
      <path
         d="M 0,0 H 841.89 V 595.276 H 0 Z"
         transform="translate(-798.47214,-289.88291)"
         id="path617" />
    </clipPath>
  </defs>
  <g
     inkscape:label="Layer 1"
     inkscape:groupmode="layer"
     id="layer1"
     transform="translate(-190.76456,-110.59578)">
    <path
       id="path584"
       d="m 0,0 c -6.809,0 -12.328,5.504 -12.328,12.297 v 20.716 c 0,6.796 5.519,12.3 12.328,12.3 h 20.762 c 6.806,0 12.324,-5.504 12.324,-12.3 V 12.297 C 33.086,5.504 27.568,0 20.762,0 Z m -8.066,41.056 c -2.067,-2.06 -3.34,-4.9 -3.34,-8.043 V 12.297 c 0,-3.142 1.273,-5.98 3.34,-8.039 C -6.004,2.197 -3.154,0.925 0,0.925 h 20.762 c 3.148,0 5.998,1.272 8.064,3.333 2.065,2.059 3.34,4.897 3.34,8.039 v 20.716 c 0,3.143 -1.275,5.983 -3.34,8.043 -2.066,2.059 -4.916,3.332 -8.064,3.332 L 0,44.388 c -3.154,0 -6.004,-1.273 -8.066,-3.332"
       style="fill:#231f20;fill-opacity:1;fill-rule:nonzero;stroke:none"
       transform="matrix(0.35277776,0,0,-0.35277776,195.1136,126.5812)"
       clip-path="url(#clipPath585)" />
    <path
       id="path586"
       d="m 0,0 c 0.303,-0.015 1.346,-0.237 1.338,-0.409 -0.01,-0.188 -1.19,-0.393 -1.348,-0.404 -0.236,-0.016 -30.193,0.046 -30.193,0.046 -0.283,0.011 -6.945,0.225 -6.99,0.353 -0.067,0.191 6.158,0.445 7.007,0.485 C -29.34,0.111 -0.303,0.013 0,0"
       style="fill:#231f20;fill-opacity:1;fill-rule:nonzero;stroke:none"
       transform="matrix(0.35277776,0,0,-0.35277776,205.16227,119.98383)"
       clip-path="url(#clipPath587)" />
    <path
       id="path588"
       d="m 0,0 c -0.273,1.19 -1.551,1.929 -2.51,2.306 -0.718,0.361 -3.506,0.874 -4.224,0.382 0.089,0.062 2.515,-2.373 2.127,-2.921 -0.112,0.146 -1.561,2.049 -1.811,1.814 0.004,0.009 1.93,-2.702 2.01,-2.831 0.431,-0.728 0.918,-1.117 1.646,-1.278 1.252,-0.274 3.028,0.907 2.481,2.379"
       style="fill:#231f20;fill-opacity:1;fill-rule:nonzero;stroke:none"
       transform="matrix(0.35277776,0,0,-0.35277776,197.53756,115.64319)"
       clip-path="url(#clipPath589)" />
    <path
       id="path590"
       d="m 0,0 c -2.178,1.307 -1.922,3.804 -1.922,3.804 -1.457,-1.992 -4.105,-3.989 -6.795,-3.533 -2.385,0.404 0.276,8.022 3.635,9.203 2.311,0.813 2.916,0.132 6.457,-0.237 2.611,-0.272 4.172,0.067 4.172,0.067 0,0 -0.83,-1.009 -3.613,-1.695 C -0.607,6.983 -1.717,7.56 -3.185,6.565 -3.731,6.197 -3.555,6.004 -3.555,6.004 c 0,0 2.028,1.13 3.328,0.249 C 0.467,5.783 -0.557,2.507 0,0"
       style="fill:#231f20;fill-opacity:1;fill-rule:nonzero;stroke:none"
       transform="matrix(0.35277776,0,0,-0.35277776,197.4459,120.19673)"
       clip-path="url(#clipPath591)" />
    <path
       id="path592"
       d="m 0,0 c -0.275,1.19 -1.553,1.929 -2.516,2.306 -0.716,0.361 -3.5,0.874 -4.22,0.382 0.088,0.062 2.515,-2.373 2.127,-2.921 -0.112,0.146 -1.559,2.049 -1.813,1.814 0.004,0.009 1.932,-2.702 2.012,-2.831 0.43,-0.728 0.918,-1.117 1.646,-1.278 1.252,-0.274 3.026,0.907 2.481,2.379"
       style="fill:#231f20;fill-opacity:1;fill-rule:nonzero;stroke:none"
       transform="matrix(0.35277776,0,0,-0.35277776,202.31178,115.64319)"
       clip-path="url(#clipPath593)" />
    <path
       id="path594"
       d="m 0,0 c -2.18,1.307 -1.924,3.804 -1.924,3.804 -1.459,-1.992 -4.105,-3.989 -6.795,-3.533 -2.387,0.404 0.276,8.022 3.633,9.203 2.314,0.813 2.916,0.132 6.459,-0.237 2.611,-0.272 4.172,0.067 4.172,0.067 0,0 -0.832,-1.009 -3.613,-1.695 C -0.611,6.983 -1.719,7.56 -3.188,6.565 -3.734,6.197 -3.557,6.004 -3.557,6.004 c 0,0 2.028,1.13 3.328,0.249 C 0.465,5.783 -0.559,2.507 0,0"
       style="fill:#231f20;fill-opacity:1;fill-rule:nonzero;stroke:none"
       transform="matrix(0.35277776,0,0,-0.35277776,202.22012,120.19673)"
       clip-path="url(#clipPath595)" />
    <path
       id="path596"
       d="m 0,0 c 0.322,0.183 1.383,0.594 1.758,0.704 0.375,0.11 1.148,0.242 1.529,0.325 0.381,0.083 3.486,0.541 4.666,0.531 1.18,-0.009 2.352,-0.146 3.51,-0.338 1.158,-0.191 2.303,-0.463 3.428,-0.801 1.125,-0.338 2.232,-0.618 3.312,-1.069 0.09,-0.037 0.186,-0.069 0.285,-0.095 0.1,-0.028 0.201,-0.05 0.309,-0.069 0.103,-0.018 0.211,-0.032 0.314,-0.04 0.104,-0.01 0.418,0.158 0.352,0.185 C 18.308,-0.185 17.121,0.249 15.91,0.621 14.699,0.993 13.465,1.304 12.213,1.543 10.963,1.782 9.695,1.946 8.42,2.026 7.148,2.105 5.865,2.098 4.588,1.994 4.068,1.952 3.531,1.894 2.992,1.813 2.449,1.732 1.902,1.63 1.367,1.503 0.832,1.375 0.303,1.22 -0.203,1.034 -0.707,0.849 -1.192,0.631 -1.639,0.379 -1.646,0.375 -1.572,0.336 -1.447,0.284 -1.324,0.231 -1.154,0.165 -0.971,0.104 -0.787,0.045 -0.592,-0.008 -0.422,-0.033 -0.246,-0.057 -0.096,-0.053 0,0"
       style="fill:#231f20;fill-opacity:1;fill-rule:nonzero;stroke:none"
       transform="matrix(0.35277776,0,0,-0.35277776,192.61522,121.59613)"
       clip-path="url(#clipPath597)" />
    <path
       id="path598"
       d="m 0,0 c -0.334,-0.189 -2.975,-0.911 -3.367,-0.991 -0.393,-0.078 -3.51,-0.613 -4.684,-0.588 -1.172,0.025 -2.342,0.144 -3.496,0.342 -1.156,0.197 -2.299,0.472 -3.416,0.809 -1.117,0.336 -2.211,0.734 -3.268,1.175 -0.189,0.078 -0.761,-0.199 -0.695,-0.291 0.065,-0.092 0.19,-0.187 0.379,-0.267 1.098,-0.457 2.217,-0.868 3.356,-1.218 1.136,-0.351 2.293,-0.641 3.466,-0.862 1.172,-0.218 2.358,-0.365 3.555,-0.428 1.197,-0.063 2.404,-0.041 3.619,0.078 0.475,0.046 0.965,0.107 1.455,0.188 0.492,0.082 0.99,0.183 1.477,0.307 0.488,0.123 0.969,0.269 1.428,0.443 0.459,0.175 0.902,0.376 1.314,0.608 0.106,0.06 0.113,0.147 0.059,0.241 C 1.129,-0.36 1.012,-0.259 0.871,-0.172 0.729,-0.086 0.56,-0.015 0.406,0.021 0.248,0.057 0.1,0.057 0,0"
       style="fill:#231f20;fill-opacity:1;fill-rule:nonzero;stroke:none"
       transform="matrix(0.35277776,0,0,-0.35277776,205.07199,120.99825)"
       clip-path="url(#clipPath599)" />
    <path
       id="path600"
       d="m 0,0 c 0,0 0.101,0.268 0.267,0.368 0.168,0.1 1.071,0.301 0.815,-0.168 -0.258,-0.468 -9.33,-16.987 -9.428,-17.187 -0.101,-0.201 -0.08,-0.403 -0.715,-0.48 -0.636,-0.077 -0.312,0.379 -0.101,0.77 C -8.951,-16.308 0,0 0,0"
       style="fill:#231f20;fill-opacity:1;fill-rule:nonzero;stroke:none"
       transform="matrix(0.35277776,0,0,-0.35277776,199.5309,116.38561)"
       clip-path="url(#clipPath601)" />
    <path
       id="path602"
       d="m 0,0 c 0,0 0.102,0.268 0.27,0.368 0.168,0.1 1.068,0.301 0.812,-0.168 -0.256,-0.468 -9.328,-16.987 -9.43,-17.187 -0.099,-0.201 -0.076,-0.403 -0.713,-0.48 -0.636,-0.077 -0.31,0.379 -0.101,0.77 C -8.949,-16.308 0,0 0,0"
       style="fill:#231f20;fill-opacity:1;fill-rule:nonzero;stroke:none"
       transform="matrix(0.35277776,0,0,-0.35277776,204.31819,116.38561)"
       clip-path="url(#clipPath603)" />
    <path
       id="path614"
       d="m 202.88709,124.28194 h -0.28469 v -0.0801 h 0.67416 v 0.0801 h -0.28328 v 0.72108 h -0.10619 z"
       style="fill:#231f20;fill-opacity:1;fill-rule:nonzero;stroke:none;stroke-width:0.352778" />
    <path
       id="path615"
       d="m 203.39765,124.202 h 0.14958 l 0.22331,0.62936 h 0.003 l 0.23001,-0.62936 h 0.13441 v 0.80116 h -0.0995 v -0.66075 h -0.002 l -0.2226,0.60713 h -0.10478 l -0.2166,-0.60713 h -0.002 v 0.66075 h -0.0931 z"
       style="fill:#231f20;fill-opacity:1;fill-rule:nonzero;stroke:none;stroke-width:0.352778" />
    <path
       id="path616"
       d="m 0,0 c 0,-0.625 -0.508,-1.136 -1.137,-1.136 -0.625,0 -1.138,0.511 -1.138,1.136 0,0.627 0.513,1.135 1.138,1.135 C -0.508,1.135 0,0.627 0,0 m -2.092,0 c 0,-0.535 0.416,-0.957 0.955,-0.957 0.535,0 0.953,0.422 0.953,0.957 0,0.534 -0.418,0.953 -0.953,0.953 -0.539,0 -0.955,-0.419 -0.955,-0.953 m 1.367,-0.577 c -0.111,-0.04 -0.248,-0.071 -0.371,-0.071 -0.375,0 -0.625,0.267 -0.625,0.64 0,0.338 0.211,0.647 0.633,0.647 0.139,0 0.289,-0.03 0.363,-0.049 V 0.413 c -0.107,0.043 -0.23,0.078 -0.349,0.078 -0.293,0 -0.434,-0.227 -0.434,-0.499 0,-0.272 0.164,-0.478 0.445,-0.478 0.122,0 0.237,0.029 0.338,0.089 z"
       style="fill:#231f20;fill-opacity:1;fill-rule:nonzero;stroke:none"
       transform="matrix(0.35277776,0,0,-0.35277776,205.16914,124.60233)"
       clip-path="url(#clipPath617)" />
  </g>
</svg>
