<?xml version="1.0" encoding="UTF-8" standalone="no"?>
<!-- Created with Inkscape (http://www.inkscape.org/) -->

<svg
   width="16.021049mm"
   height="15.986124mm"
   viewBox="0 0 16.021049 15.986124"
   version="1.1"
   id="svg1"
   inkscape:version="1.4 (e7c3feb1, 2024-10-09)"
   sodipodi:docname="WLF.svg"
   xmlns:inkscape="http://www.inkscape.org/namespaces/inkscape"
   xmlns:sodipodi="http://sodipodi.sourceforge.net/DTD/sodipodi-0.dtd"
   xmlns="http://www.w3.org/2000/svg"
   xmlns:svg="http://www.w3.org/2000/svg">
  <sodipodi:namedview
     id="namedview1"
     pagecolor="#ffffff"
     bordercolor="#000000"
     borderopacity="0.25"
     inkscape:showpageshadow="2"
     inkscape:pageopacity="0.0"
     inkscape:pagecheckerboard="0"
     inkscape:deskcolor="#d1d1d1"
     inkscape:document-units="mm"
     inkscape:zoom="3.4212031"
     inkscape:cx="-34.052349"
     inkscape:cy="28.498747"
     inkscape:window-width="1440"
     inkscape:window-height="872"
     inkscape:window-x="0"
     inkscape:window-y="28"
     inkscape:window-maximized="0"
     inkscape:current-layer="layer1" />
  <defs
     id="defs1">
    <clipPath
       clipPathUnits="userSpaceOnUse"
       id="clipPath22">
      <path
         d="M 0,0 H 841.89 V 595.276 H 0 Z"
         transform="translate(-116.31291,-375.94591)"
         id="path22" />
    </clipPath>
    <clipPath
       clipPathUnits="userSpaceOnUse"
       id="clipPath24">
      <path
         d="M 0,0 H 841.89 V 595.276 H 0 Z"
         transform="translate(-139.1415,-392.50891)"
         id="path24" />
    </clipPath>
    <clipPath
       clipPathUnits="userSpaceOnUse"
       id="clipPath26">
      <path
         d="M 0,0 H 841.89 V 595.276 H 0 Z"
         transform="translate(-125.1015,-387.80331)"
         id="path26" />
    </clipPath>
    <clipPath
       clipPathUnits="userSpaceOnUse"
       id="clipPath28">
      <path
         d="M 0,0 H 841.89 V 595.276 H 0 Z"
         transform="translate(-116.4081,-398.42731)"
         id="path28" />
    </clipPath>
    <clipPath
       clipPathUnits="userSpaceOnUse"
       id="clipPath30">
      <path
         d="M 0,0 H 841.89 V 595.276 H 0 Z"
         transform="translate(-112.43691,-405.29651)"
         id="path30" />
    </clipPath>
    <clipPath
       clipPathUnits="userSpaceOnUse"
       id="clipPath32">
      <path
         d="M 0,0 H 841.89 V 595.276 H 0 Z"
         transform="translate(-118.95111,-403.44641)"
         id="path32" />
    </clipPath>
    <clipPath
       clipPathUnits="userSpaceOnUse"
       id="clipPath34">
      <path
         d="M 0,0 H 841.89 V 595.276 H 0 Z"
         transform="translate(-136.1908,-382.59821)"
         id="path34" />
    </clipPath>
    <clipPath
       clipPathUnits="userSpaceOnUse"
       id="clipPath36">
      <path
         d="M 0,0 H 841.89 V 595.276 H 0 Z"
         transform="translate(-141.81291,-390.33991)"
         id="path36" />
    </clipPath>
    <clipPath
       clipPathUnits="userSpaceOnUse"
       id="clipPath38">
      <path
         d="M 0,0 H 841.89 V 595.276 H 0 Z"
         transform="translate(-109.13571,-383.44741)"
         id="path38" />
    </clipPath>
    <clipPath
       clipPathUnits="userSpaceOnUse"
       id="clipPath40">
      <path
         d="M 0,0 H 841.89 V 595.276 H 0 Z"
         transform="translate(-144.1542,-387.93421)"
         id="path40" />
    </clipPath>
    <clipPath
       clipPathUnits="userSpaceOnUse"
       id="clipPath44">
      <path
         d="M 0,0 H 841.89 V 595.276 H 0 Z"
         transform="translate(-144.82611,-381.53181)"
         id="path44" />
    </clipPath>
    <clipPath
       clipPathUnits="userSpaceOnUse"
       id="clipPath148">
      <path
         d="M 0,0 H 841.89 V 595.276 H 0 Z"
         transform="translate(-203.72161,-375.94491)"
         id="path148" />
    </clipPath>
    <clipPath
       clipPathUnits="userSpaceOnUse"
       id="clipPath150">
      <path
         d="M 0,0 H 841.89 V 595.276 H 0 Z"
         transform="translate(-227.7187,-401.97671)"
         id="path150" />
    </clipPath>
    <clipPath
       clipPathUnits="userSpaceOnUse"
       id="clipPath152">
      <path
         d="M 0,0 H 841.89 V 595.276 H 0 Z"
         transform="translate(-208.15131,-404.98461)"
         id="path152" />
    </clipPath>
    <clipPath
       clipPathUnits="userSpaceOnUse"
       id="clipPath154">
      <path
         d="M 0,0 H 841.89 V 595.276 H 0 Z"
         transform="translate(-215.76651,-396.58801)"
         id="path154" />
    </clipPath>
    <clipPath
       clipPathUnits="userSpaceOnUse"
       id="clipPath170">
      <path
         d="M 0,0 H 841.89 V 595.276 H 0 Z"
         transform="translate(-232.2265,-381.55531)"
         id="path170" />
    </clipPath>
    <clipPath
       clipPathUnits="userSpaceOnUse"
       id="clipPath80">
      <path
         d="M 0,0 H 841.89 V 595.276 H 0 Z"
         transform="translate(-291.13081,-375.94491)"
         id="path80" />
    </clipPath>
    <clipPath
       clipPathUnits="userSpaceOnUse"
       id="clipPath82">
      <path
         d="M 0,0 H 841.89 V 595.276 H 0 Z"
         transform="translate(-312.07221,-408.45181)"
         id="path82" />
    </clipPath>
    <clipPath
       clipPathUnits="userSpaceOnUse"
       id="clipPath84">
      <path
         d="M 0,0 H 841.89 V 595.276 H 0 Z"
         transform="translate(-318.26261,-405.37271)"
         id="path84" />
    </clipPath>
    <clipPath
       clipPathUnits="userSpaceOnUse"
       id="clipPath103">
      <path
         d="M 0,0 H 841.89 V 595.276 H 0 Z"
         transform="translate(-319.63711,-381.55531)"
         id="path103" />
    </clipPath>
    <clipPath
       clipPathUnits="userSpaceOnUse"
       id="clipPath105">
      <path
         d="M 0,0 H 841.89 V 595.276 H 0 Z"
         transform="translate(-378.54291,-375.94491)"
         id="path105" />
    </clipPath>
    <clipPath
       clipPathUnits="userSpaceOnUse"
       id="clipPath107">
      <path
         d="M 0,0 H 841.89 V 595.276 H 0 Z"
         transform="translate(-388.22751,-406.46441)"
         id="path107" />
    </clipPath>
    <clipPath
       clipPathUnits="userSpaceOnUse"
       id="clipPath109">
      <path
         d="M 0,0 H 841.89 V 595.276 H 0 Z"
         transform="translate(-399.21871,-404.85851)"
         id="path109" />
    </clipPath>
    <clipPath
       clipPathUnits="userSpaceOnUse"
       id="clipPath111">
      <path
         d="M 0,0 H 841.89 V 595.276 H 0 Z"
         transform="translate(-398.46961,-403.62021)"
         id="path111" />
    </clipPath>
    <clipPath
       clipPathUnits="userSpaceOnUse"
       id="clipPath113">
      <path
         d="M 0,0 H 841.89 V 595.276 H 0 Z"
         transform="translate(-392.92381,-412.60211)"
         id="path113" />
    </clipPath>
    <clipPath
       clipPathUnits="userSpaceOnUse"
       id="clipPath115">
      <path
         d="M 0,0 H 841.89 V 595.276 H 0 Z"
         transform="translate(-381.55561,-411.76331)"
         id="path115" />
    </clipPath>
    <clipPath
       clipPathUnits="userSpaceOnUse"
       id="clipPath117">
      <path
         d="M 0,0 H 841.89 V 595.276 H 0 Z"
         transform="translate(-378.83101,-412.57871)"
         id="path117" />
    </clipPath>
    <clipPath
       clipPathUnits="userSpaceOnUse"
       id="clipPath119">
      <path
         d="M 0,0 H 841.89 V 595.276 H 0 Z"
         transform="translate(-392.68351,-413.64611)"
         id="path119" />
    </clipPath>
    <clipPath
       clipPathUnits="userSpaceOnUse"
       id="clipPath121">
      <path
         d="M 0,0 H 841.89 V 595.276 H 0 Z"
         transform="translate(-395.06831,-415.78961)"
         id="path121" />
    </clipPath>
    <clipPath
       clipPathUnits="userSpaceOnUse"
       id="clipPath123">
      <path
         d="M 0,0 H 841.89 V 595.276 H 0 Z"
         transform="translate(-394.66791,-411.71051)"
         id="path123" />
    </clipPath>
    <clipPath
       clipPathUnits="userSpaceOnUse"
       id="clipPath125">
      <path
         d="M 0,0 H 841.89 V 595.276 H 0 Z"
         transform="translate(-393.35831,-411.70421)"
         id="path125" />
    </clipPath>
    <clipPath
       clipPathUnits="userSpaceOnUse"
       id="clipPath146">
      <path
         d="M 0,0 H 841.89 V 595.276 H 0 Z"
         transform="translate(-407.04781,-381.55531)"
         id="path146" />
    </clipPath>
    <clipPath
       clipPathUnits="userSpaceOnUse"
       id="clipPath172">
      <path
         d="M 0,0 H 841.89 V 595.276 H 0 Z"
         transform="translate(-465.95301,-375.99521)"
         id="path172" />
    </clipPath>
    <clipPath
       clipPathUnits="userSpaceOnUse"
       id="clipPath193">
      <path
         d="M 0,0 H 841.89 V 595.276 H 0 Z"
         transform="translate(-494.45991,-381.60611)"
         id="path193" />
    </clipPath>
    <clipPath
       clipPathUnits="userSpaceOnUse"
       id="clipPath195">
      <path
         d="M 0,0 H 841.89 V 595.276 H 0 Z"
         transform="translate(-489.57711,-415.26861)"
         id="path195" />
    </clipPath>
    <clipPath
       clipPathUnits="userSpaceOnUse"
       id="clipPath197">
      <path
         d="M 0,0 H 841.89 V 595.276 H 0 Z"
         transform="translate(-485.58101,-410.73591)"
         id="path197" />
    </clipPath>
    <clipPath
       clipPathUnits="userSpaceOnUse"
       id="clipPath199">
      <path
         d="M 0,0 H 841.89 V 595.276 H 0 Z"
         transform="translate(-484.44131,-413.28631)"
         id="path199" />
    </clipPath>
    <clipPath
       clipPathUnits="userSpaceOnUse"
       id="clipPath201">
      <path
         d="M 0,0 H 841.89 V 595.276 H 0 Z"
         transform="translate(-489.50481,-414.45521)"
         id="path201" />
    </clipPath>
    <clipPath
       clipPathUnits="userSpaceOnUse"
       id="clipPath203">
      <path
         d="M 0,0 H 841.89 V 595.276 H 0 Z"
         transform="translate(-489.30561,-412.84191)"
         id="path203" />
    </clipPath>
    <clipPath
       clipPathUnits="userSpaceOnUse"
       id="clipPath205">
      <path
         d="M 0,0 H 841.89 V 595.276 H 0 Z"
         transform="translate(-487.04191,-416.12701)"
         id="path205" />
    </clipPath>
    <clipPath
       clipPathUnits="userSpaceOnUse"
       id="clipPath207">
      <path
         d="M 0,0 H 841.89 V 595.276 H 0 Z"
         transform="translate(-477.55361,-409.56751)"
         id="path207" />
    </clipPath>
    <clipPath
       clipPathUnits="userSpaceOnUse"
       id="clipPath209">
      <path
         d="M 0,0 H 841.89 V 595.276 H 0 Z"
         transform="translate(-481.92471,-410.93271)"
         id="path209" />
    </clipPath>
    <clipPath
       clipPathUnits="userSpaceOnUse"
       id="clipPath211">
      <path
         d="M 0,0 H 841.89 V 595.276 H 0 Z"
         transform="translate(-483.36611,-412.48541)"
         id="path211" />
    </clipPath>
    <clipPath
       clipPathUnits="userSpaceOnUse"
       id="clipPath213">
      <path
         d="M 0,0 H 841.89 V 595.276 H 0 Z"
         transform="translate(-486.98141,-406.47911)"
         id="path213" />
    </clipPath>
    <clipPath
       clipPathUnits="userSpaceOnUse"
       id="clipPath215">
      <path
         d="M 0,0 H 841.89 V 595.276 H 0 Z"
         transform="translate(-481.97551,-407.67001)"
         id="path215" />
    </clipPath>
    <clipPath
       clipPathUnits="userSpaceOnUse"
       id="clipPath217">
      <path
         d="M 0,0 H 841.89 V 595.276 H 0 Z"
         transform="translate(-466.52821,-402.89471)"
         id="path217" />
    </clipPath>
    <clipPath
       clipPathUnits="userSpaceOnUse"
       id="clipPath219">
      <path
         d="M 0,0 H 841.89 V 595.276 H 0 Z"
         transform="translate(-458.91301,-401.85211)"
         id="path219" />
    </clipPath>
    <clipPath
       clipPathUnits="userSpaceOnUse"
       id="clipPath221">
      <path
         d="M 0,0 H 841.89 V 595.276 H 0 Z"
         transform="translate(-493.70791,-385.98501)"
         id="path221" />
    </clipPath>
    <clipPath
       clipPathUnits="userSpaceOnUse"
       id="clipPath223">
      <path
         d="M 0,0 H 841.89 V 595.276 H 0 Z"
         transform="translate(-553.36271,-375.99521)"
         id="path223" />
    </clipPath>
    <clipPath
       clipPathUnits="userSpaceOnUse"
       id="clipPath225">
      <path
         d="M 0,0 H 841.89 V 595.276 H 0 Z"
         transform="translate(-562.67131,-395.72181)"
         id="path225" />
    </clipPath>
    <clipPath
       clipPathUnits="userSpaceOnUse"
       id="clipPath227">
      <path
         d="M 0,0 H 841.89 V 595.276 H 0 Z"
         transform="translate(-568.48582,-408.67101)"
         id="path227" />
    </clipPath>
    <clipPath
       clipPathUnits="userSpaceOnUse"
       id="clipPath229">
      <path
         d="M 0,0 H 841.89 V 595.276 H 0 Z"
         transform="translate(-568.90571,-399.87561)"
         id="path229" />
    </clipPath>
    <clipPath
       clipPathUnits="userSpaceOnUse"
       id="clipPath231">
      <path
         d="M 0,0 H 841.89 V 595.276 H 0 Z"
         transform="translate(-567.55222,-398.50311)"
         id="path231" />
    </clipPath>
    <clipPath
       clipPathUnits="userSpaceOnUse"
       id="clipPath245">
      <path
         d="M 0,0 H 841.89 V 595.276 H 0 Z"
         transform="translate(-581.86661,-381.60611)"
         id="path245" />
    </clipPath>
    <clipPath
       clipPathUnits="userSpaceOnUse"
       id="clipPath276">
      <path
         d="M 0,0 H 841.89 V 595.276 H 0 Z"
         transform="translate(-640.77292,-375.99521)"
         id="path276" />
    </clipPath>
    <clipPath
       clipPathUnits="userSpaceOnUse"
       id="clipPath278">
      <path
         d="M 0,0 H 841.89 V 595.276 H 0 Z"
         transform="translate(-655.01512,-387.61921)"
         id="path278" />
    </clipPath>
    <clipPath
       clipPathUnits="userSpaceOnUse"
       id="clipPath280">
      <path
         d="M 0,0 H 841.89 V 595.276 H 0 Z"
         transform="translate(-668.49941,-385.23111)"
         id="path280" />
    </clipPath>
    <clipPath
       clipPathUnits="userSpaceOnUse"
       id="clipPath282">
      <path
         d="M 0,0 H 841.89 V 595.276 H 0 Z"
         transform="translate(-668.89982,-391.53231)"
         id="path282" />
    </clipPath>
    <clipPath
       clipPathUnits="userSpaceOnUse"
       id="clipPath284">
      <path
         d="M 0,0 H 841.89 V 595.276 H 0 Z"
         transform="translate(-640.93112,-391.82281)"
         id="path284" />
    </clipPath>
    <clipPath
       clipPathUnits="userSpaceOnUse"
       id="clipPath286">
      <path
         d="M 0,0 H 841.89 V 595.276 H 0 Z"
         transform="translate(-641.40182,-392.46691)"
         id="path286" />
    </clipPath>
    <clipPath
       clipPathUnits="userSpaceOnUse"
       id="clipPath288">
      <path
         d="M 0,0 H 841.89 V 595.276 H 0 Z"
         transform="translate(-647.81192,-406.74281)"
         id="path288" />
    </clipPath>
    <clipPath
       clipPathUnits="userSpaceOnUse"
       id="clipPath290">
      <path
         d="M 0,0 H 841.89 V 595.276 H 0 Z"
         transform="translate(-651.41741,-404.28961)"
         id="path290" />
    </clipPath>
    <clipPath
       clipPathUnits="userSpaceOnUse"
       id="clipPath292">
      <path
         d="M 0,0 H 841.89 V 595.276 H 0 Z"
         transform="translate(-663.88222,-391.85711)"
         id="path292" />
    </clipPath>
    <clipPath
       clipPathUnits="userSpaceOnUse"
       id="clipPath294">
      <path
         d="M 0,0 H 841.89 V 595.276 H 0 Z"
         transform="translate(-652.23581,-397.11541)"
         id="path294" />
    </clipPath>
    <clipPath
       clipPathUnits="userSpaceOnUse"
       id="clipPath316">
      <path
         d="M 0,0 H 841.89 V 595.276 H 0 Z"
         transform="translate(-669.27872,-381.60561)"
         id="path316" />
    </clipPath>
    <clipPath
       clipPathUnits="userSpaceOnUse"
       id="clipPath247">
      <path
         d="M 0,0 H 841.89 V 595.276 H 0 Z"
         transform="translate(-728.12642,-376.12661)"
         id="path247" />
    </clipPath>
    <clipPath
       clipPathUnits="userSpaceOnUse"
       id="clipPath249">
      <path
         d="M 0,0 H 841.89 V 595.276 H 0 Z"
         transform="translate(-720.10692,-408.93321)"
         id="path249" />
    </clipPath>
    <clipPath
       clipPathUnits="userSpaceOnUse"
       id="clipPath251">
      <path
         d="M 0,0 H 841.89 V 595.276 H 0 Z"
         transform="translate(-742.48192,-394.07681)"
         id="path251" />
    </clipPath>
    <clipPath
       clipPathUnits="userSpaceOnUse"
       id="clipPath253">
      <path
         d="M 0,0 H 841.89 V 595.276 H 0 Z"
         transform="translate(-756.57954,-395.99371)"
         id="path253" />
    </clipPath>
    <clipPath
       clipPathUnits="userSpaceOnUse"
       id="clipPath255">
      <path
         d="M 0,0 H 841.89 V 595.276 H 0 Z"
         transform="translate(-748.75532,-405.31991)"
         id="path255" />
    </clipPath>
    <clipPath
       clipPathUnits="userSpaceOnUse"
       id="clipPath257">
      <path
         d="M 0,0 H 841.89 V 595.276 H 0 Z"
         transform="translate(-745.71622,-413.08851)"
         id="path257" />
    </clipPath>
    <clipPath
       clipPathUnits="userSpaceOnUse"
       id="clipPath259">
      <path
         d="M 0,0 H 841.89 V 595.276 H 0 Z"
         transform="translate(-721.41742,-387.86731)"
         id="path259" />
    </clipPath>
    <clipPath
       clipPathUnits="userSpaceOnUse"
       id="clipPath274">
      <path
         d="M 0,0 H 841.89 V 595.276 H 0 Z"
         transform="translate(-756.68889,-381.81501)"
         id="path274" />
    </clipPath>
    <clipPath
       clipPathUnits="userSpaceOnUse"
       id="clipPath46">
      <path
         d="M 0,0 H 841.89 V 595.276 H 0 Z"
         transform="translate(-70.686002,-284.28821)"
         id="path46" />
    </clipPath>
    <clipPath
       clipPathUnits="userSpaceOnUse"
       id="clipPath48">
      <path
         d="M 0,0 H 841.89 V 595.276 H 0 Z"
         transform="translate(-74.136602,-306.70221)"
         id="path48" />
    </clipPath>
    <clipPath
       clipPathUnits="userSpaceOnUse"
       id="clipPath50">
      <path
         d="M 0,0 H 841.89 V 595.276 H 0 Z"
         transform="translate(-73.939402,-316.70421)"
         id="path50" />
    </clipPath>
    <clipPath
       clipPathUnits="userSpaceOnUse"
       id="clipPath52">
      <path
         d="M 0,0 H 841.89 V 595.276 H 0 Z"
         transform="translate(-63.382202,-304.51431)"
         id="path52" />
    </clipPath>
    <clipPath
       clipPathUnits="userSpaceOnUse"
       id="clipPath54">
      <path
         d="M 0,0 H 841.89 V 595.276 H 0 Z"
         transform="translate(-75.873902,-295.74671)"
         id="path54" />
    </clipPath>
    <clipPath
       clipPathUnits="userSpaceOnUse"
       id="clipPath56">
      <path
         d="M 0,0 H 841.89 V 595.276 H 0 Z"
         transform="translate(-66.602501,-293.58161)"
         id="path56" />
    </clipPath>
    <clipPath
       clipPathUnits="userSpaceOnUse"
       id="clipPath78">
      <path
         d="M 0,0 H 841.89 V 595.276 H 0 Z"
         transform="translate(-99.1918,-289.8995)"
         id="path78" />
    </clipPath>
    <clipPath
       clipPathUnits="userSpaceOnUse"
       id="clipPath318">
      <path
         d="M 0,0 H 841.89 V 595.276 H 0 Z"
         transform="translate(-158.0971,-284.28721)"
         id="path318" />
    </clipPath>
    <clipPath
       clipPathUnits="userSpaceOnUse"
       id="clipPath320">
      <path
         d="M 0,0 H 841.89 V 595.276 H 0 Z"
         transform="translate(-167.78901,-316.63441)"
         id="path320" />
    </clipPath>
    <clipPath
       clipPathUnits="userSpaceOnUse"
       id="clipPath322">
      <path
         d="M 0,0 H 841.89 V 595.276 H 0 Z"
         transform="translate(-153.3954,-313.80871)"
         id="path322" />
    </clipPath>
    <clipPath
       clipPathUnits="userSpaceOnUse"
       id="clipPath324">
      <path
         d="M 0,0 H 841.89 V 595.276 H 0 Z"
         transform="translate(-176.6845,-312.86141)"
         id="path324" />
    </clipPath>
    <clipPath
       clipPathUnits="userSpaceOnUse"
       id="clipPath326">
      <path
         d="M 0,0 H 841.89 V 595.276 H 0 Z"
         transform="translate(-176.41401,-311.52401)"
         id="path326" />
    </clipPath>
    <clipPath
       clipPathUnits="userSpaceOnUse"
       id="clipPath342">
      <path
         d="M 0,0 H 841.89 V 595.276 H 0 Z"
         transform="translate(-186.6025,-289.89761)"
         id="path342" />
    </clipPath>
    <clipPath
       clipPathUnits="userSpaceOnUse"
       id="clipPath344">
      <path
         d="M 0,0 H 841.89 V 595.276 H 0 Z"
         transform="translate(-245.50531,-284.2862)"
         id="path344" />
    </clipPath>
    <clipPath
       clipPathUnits="userSpaceOnUse"
       id="clipPath346">
      <path
         d="M 0,0 H 841.89 V 595.276 H 0 Z"
         transform="translate(-261.02481,-317.53181)"
         id="path346" />
    </clipPath>
    <clipPath
       clipPathUnits="userSpaceOnUse"
       id="clipPath348">
      <path
         d="M 0,0 H 841.89 V 595.276 H 0 Z"
         transform="translate(-244.6405,-313.76231)"
         id="path348" />
    </clipPath>
    <clipPath
       clipPathUnits="userSpaceOnUse"
       id="clipPath350">
      <path
         d="M 0,0 H 841.89 V 595.276 H 0 Z"
         transform="translate(-251.80561,-294.36481)"
         id="path350" />
    </clipPath>
    <clipPath
       clipPathUnits="userSpaceOnUse"
       id="clipPath367">
      <path
         d="M 0,0 H 841.89 V 595.276 H 0 Z"
         transform="translate(-274.01121,-289.89761)"
         id="path367" />
    </clipPath>
    <clipPath
       clipPathUnits="userSpaceOnUse"
       id="clipPath419">
      <path
         d="M 0,0 H 841.89 V 595.276 H 0 Z"
         transform="translate(-332.91501,-284.28721)"
         id="path419" />
    </clipPath>
    <clipPath
       clipPathUnits="userSpaceOnUse"
       id="clipPath421">
      <path
         d="M 0,0 H 841.89 V 595.276 H 0 Z"
         transform="translate(-351.76261,-303.32241)"
         id="path421" />
    </clipPath>
    <clipPath
       clipPathUnits="userSpaceOnUse"
       id="clipPath423">
      <path
         d="M 0,0 H 841.89 V 595.276 H 0 Z"
         transform="translate(-345.17421,-292.9952)"
         id="path423" />
    </clipPath>
    <clipPath
       clipPathUnits="userSpaceOnUse"
       id="clipPath425">
      <path
         d="M 0,0 H 841.89 V 595.276 H 0 Z"
         transform="translate(-361.50091,-295.5182)"
         id="path425" />
    </clipPath>
    <clipPath
       clipPathUnits="userSpaceOnUse"
       id="clipPath427">
      <path
         d="M 0,0 H 841.89 V 595.276 H 0 Z"
         transform="translate(-340.09711,-315.02161)"
         id="path427" />
    </clipPath>
    <clipPath
       clipPathUnits="userSpaceOnUse"
       id="clipPath429">
      <path
         d="M 0,0 H 841.89 V 595.276 H 0 Z"
         transform="translate(-339.97061,-303.90731)"
         id="path429" />
    </clipPath>
    <clipPath
       clipPathUnits="userSpaceOnUse"
       id="clipPath451">
      <path
         d="M 0,0 H 841.89 V 595.276 H 0 Z"
         transform="translate(-361.42131,-289.89851)"
         id="path451" />
    </clipPath>
    <clipPath
       clipPathUnits="userSpaceOnUse"
       id="clipPath369">
      <path
         d="M 0,0 H 841.89 V 595.276 H 0 Z"
         transform="translate(-420.32611,-284.28721)"
         id="path369" />
    </clipPath>
    <clipPath
       clipPathUnits="userSpaceOnUse"
       id="clipPath371">
      <path
         d="M 0,0 H 841.89 V 595.276 H 0 Z"
         transform="translate(-437.28171,-318.69201)"
         id="path371" />
    </clipPath>
    <clipPath
       clipPathUnits="userSpaceOnUse"
       id="clipPath373">
      <path
         d="M 0,0 H 841.89 V 595.276 H 0 Z"
         transform="translate(-420.03261,-316.74131)"
         id="path373" />
    </clipPath>
    <clipPath
       clipPathUnits="userSpaceOnUse"
       id="clipPath375">
      <path
         d="M 0,0 H 841.89 V 595.276 H 0 Z"
         transform="translate(-426.12981,-320.71491)"
         id="path375" />
    </clipPath>
    <clipPath
       clipPathUnits="userSpaceOnUse"
       id="clipPath392">
      <path
         d="M 0,0 H 841.89 V 595.276 H 0 Z"
         transform="translate(-448.83201,-289.89851)"
         id="path392" />
    </clipPath>
    <clipPath
       clipPathUnits="userSpaceOnUse"
       id="clipPath394">
      <path
         d="M 0,0 H 841.89 V 595.276 H 0 Z"
         transform="translate(-507.73721,-284.28721)"
         id="path394" />
    </clipPath>
    <clipPath
       clipPathUnits="userSpaceOnUse"
       id="clipPath396">
      <path
         d="M 0,0 H 841.89 V 595.276 H 0 Z"
         transform="translate(-512.39051,-305.39611)"
         id="path396" />
    </clipPath>
    <clipPath
       clipPathUnits="userSpaceOnUse"
       id="clipPath398">
      <path
         d="M 0,0 H 841.89 V 595.276 H 0 Z"
         transform="translate(-523.96091,-304.38491)"
         id="path398" />
    </clipPath>
    <clipPath
       clipPathUnits="userSpaceOnUse"
       id="clipPath400">
      <path
         d="M 0,0 H 841.89 V 595.276 H 0 Z"
         transform="translate(-523.65031,-317.42781)"
         id="path400" />
    </clipPath>
    <clipPath
       clipPathUnits="userSpaceOnUse"
       id="clipPath402">
      <path
         d="M 0,0 H 841.89 V 595.276 H 0 Z"
         transform="translate(-534.63661,-294.44101)"
         id="path402" />
    </clipPath>
    <clipPath
       clipPathUnits="userSpaceOnUse"
       id="clipPath404">
      <path
         d="M 0,0 H 841.89 V 595.276 H 0 Z"
         transform="translate(-536.29291,-298.1627)"
         id="path404" />
    </clipPath>
    <clipPath
       clipPathUnits="userSpaceOnUse"
       id="clipPath417">
      <path
         d="M 0,0 H 841.89 V 595.276 H 0 Z"
         transform="translate(-536.24212,-289.89661)"
         id="path417" />
    </clipPath>
    <clipPath
       clipPathUnits="userSpaceOnUse"
       id="clipPath453">
      <path
         d="M 0,0 H 841.89 V 595.276 H 0 Z"
         transform="translate(-595.14592,-284.27351)"
         id="path453" />
    </clipPath>
    <clipPath
       clipPathUnits="userSpaceOnUse"
       id="clipPath455">
      <path
         d="M 0,0 H 841.89 V 595.276 H 0 Z"
         transform="translate(-608.95262,-313.43661)"
         id="path455" />
    </clipPath>
    <clipPath
       clipPathUnits="userSpaceOnUse"
       id="clipPath457">
      <path
         d="M 0,0 H 841.89 V 595.276 H 0 Z"
         transform="translate(-602.78852,-301.62361)"
         id="path457" />
    </clipPath>
    <clipPath
       clipPathUnits="userSpaceOnUse"
       id="clipPath459">
      <path
         d="M 0,0 H 841.89 V 595.276 H 0 Z"
         transform="translate(-624.41152,-314.39321)"
         id="path459" />
    </clipPath>
    <clipPath
       clipPathUnits="userSpaceOnUse"
       id="clipPath471">
      <path
         d="M 0,0 H 841.89 V 595.276 H 0 Z"
         transform="translate(-623.65181,-289.88291)"
         id="path471" />
    </clipPath>
    <clipPath
       clipPathUnits="userSpaceOnUse"
       id="clipPath473">
      <path
         d="M 0,0 H 841.89 V 595.276 H 0 Z"
         transform="translate(-682.54442,-284.4542)"
         id="path473" />
    </clipPath>
    <clipPath
       clipPathUnits="userSpaceOnUse"
       id="clipPath475">
      <path
         d="M 0,0 H 841.89 V 595.276 H 0 Z"
         transform="translate(-698.39012,-316.68171)"
         id="path475" />
    </clipPath>
    <clipPath
       clipPathUnits="userSpaceOnUse"
       id="clipPath477">
      <path
         d="M 0,0 H 841.89 V 595.276 H 0 Z"
         transform="translate(-704.82372,-313.75111)"
         id="path477" />
    </clipPath>
    <clipPath
       clipPathUnits="userSpaceOnUse"
       id="clipPath479">
      <path
         d="M 0,0 H 841.89 V 595.276 H 0 Z"
         transform="translate(-682.54442,-313.27791)"
         id="path479" />
    </clipPath>
    <clipPath
       clipPathUnits="userSpaceOnUse"
       id="clipPath481">
      <path
         d="M 0,0 H 841.89 V 595.276 H 0 Z"
         transform="translate(-685.02092,-311.33751)"
         id="path481" />
    </clipPath>
    <clipPath
       clipPathUnits="userSpaceOnUse"
       id="clipPath483">
      <path
         d="M 0,0 H 841.89 V 595.276 H 0 Z"
         transform="translate(-711.44082,-299.82191)"
         id="path483" />
    </clipPath>
    <clipPath
       clipPathUnits="userSpaceOnUse"
       id="clipPath485">
      <path
         d="M 0,0 H 841.89 V 595.276 H 0 Z"
         transform="translate(-711.57372,-294.64951)"
         id="path485" />
    </clipPath>
    <clipPath
       clipPathUnits="userSpaceOnUse"
       id="clipPath487">
      <path
         d="M 0,0 H 841.89 V 595.276 H 0 Z"
         transform="translate(-708.92722,-314.59041)"
         id="path487" />
    </clipPath>
    <clipPath
       clipPathUnits="userSpaceOnUse"
       id="clipPath489">
      <path
         d="M 0,0 H 841.89 V 595.276 H 0 Z"
         transform="translate(-703.04442,-312.44441)"
         id="path489" />
    </clipPath>
    <clipPath
       clipPathUnits="userSpaceOnUse"
       id="clipPath491">
      <path
         d="M 0,0 H 841.89 V 595.276 H 0 Z"
         transform="translate(-705.77482,-314.02011)"
         id="path491" />
    </clipPath>
    <clipPath
       clipPathUnits="userSpaceOnUse"
       id="clipPath525">
      <path
         d="M 0,0 H 841.89 V 595.276 H 0 Z"
         transform="translate(-711.06192,-290.02841)"
         id="path525" />
    </clipPath>
    <clipPath
       clipPathUnits="userSpaceOnUse"
       id="clipPath585">
      <path
         d="M 0,0 H 841.89 V 595.276 H 0 Z"
         transform="translate(-769.96824,-284.27351)"
         id="path585" />
    </clipPath>
    <clipPath
       clipPathUnits="userSpaceOnUse"
       id="clipPath587">
      <path
         d="M 0,0 H 841.89 V 595.276 H 0 Z"
         transform="translate(-798.45264,-302.97471)"
         id="path587" />
    </clipPath>
    <clipPath
       clipPathUnits="userSpaceOnUse"
       id="clipPath589">
      <path
         d="M 0,0 H 841.89 V 595.276 H 0 Z"
         transform="translate(-776.83929,-315.27891)"
         id="path589" />
    </clipPath>
    <clipPath
       clipPathUnits="userSpaceOnUse"
       id="clipPath591">
      <path
         d="M 0,0 H 841.89 V 595.276 H 0 Z"
         transform="translate(-776.57949,-302.37121)"
         id="path591" />
    </clipPath>
    <clipPath
       clipPathUnits="userSpaceOnUse"
       id="clipPath593">
      <path
         d="M 0,0 H 841.89 V 595.276 H 0 Z"
         transform="translate(-790.37252,-315.27891)"
         id="path593" />
    </clipPath>
    <clipPath
       clipPathUnits="userSpaceOnUse"
       id="clipPath595">
      <path
         d="M 0,0 H 841.89 V 595.276 H 0 Z"
         transform="translate(-790.11272,-302.37121)"
         id="path595" />
    </clipPath>
    <clipPath
       clipPathUnits="userSpaceOnUse"
       id="clipPath597">
      <path
         d="M 0,0 H 841.89 V 595.276 H 0 Z"
         transform="translate(-762.88622,-298.40441)"
         id="path597" />
    </clipPath>
    <clipPath
       clipPathUnits="userSpaceOnUse"
       id="clipPath599">
      <path
         d="M 0,0 H 841.89 V 595.276 H 0 Z"
         transform="translate(-798.19674,-300.09921)"
         id="path599" />
    </clipPath>
    <clipPath
       clipPathUnits="userSpaceOnUse"
       id="clipPath601">
      <path
         d="M 0,0 H 841.89 V 595.276 H 0 Z"
         transform="translate(-782.48972,-313.17441)"
         id="path601" />
    </clipPath>
    <clipPath
       clipPathUnits="userSpaceOnUse"
       id="clipPath603">
      <path
         d="M 0,0 H 841.89 V 595.276 H 0 Z"
         transform="translate(-796.05999,-313.17441)"
         id="path603" />
    </clipPath>
    <clipPath
       clipPathUnits="userSpaceOnUse"
       id="clipPath617">
      <path
         d="M 0,0 H 841.89 V 595.276 H 0 Z"
         transform="translate(-798.47214,-289.88291)"
         id="path617" />
    </clipPath>
    <clipPath
       clipPathUnits="userSpaceOnUse"
       id="clipPath717">
      <path
         d="M 0,0 H 841.89 V 595.276 H 0 Z"
         transform="translate(-769.96719,-192.0265)"
         id="path717" />
    </clipPath>
    <clipPath
       clipPathUnits="userSpaceOnUse"
       id="clipPath719">
      <path
         d="M 0,0 H 841.89 V 595.276 H 0 Z"
         transform="translate(-779.69769,-222.16901)"
         id="path719" />
    </clipPath>
    <clipPath
       clipPathUnits="userSpaceOnUse"
       id="clipPath721">
      <path
         d="M 0,0 H 841.89 V 595.276 H 0 Z"
         transform="translate(-781.35594,-222.84481)"
         id="path721" />
    </clipPath>
    <clipPath
       clipPathUnits="userSpaceOnUse"
       id="clipPath723">
      <path
         d="M 0,0 H 841.89 V 595.276 H 0 Z"
         transform="translate(-774.01022,-220.13)"
         id="path723" />
    </clipPath>
    <clipPath
       clipPathUnits="userSpaceOnUse"
       id="clipPath725">
      <path
         d="M 0,0 H 841.89 V 595.276 H 0 Z"
         transform="translate(-787.96329,-220.4015)"
         id="path725" />
    </clipPath>
    <clipPath
       clipPathUnits="userSpaceOnUse"
       id="clipPath727">
      <path
         d="M 0,0 H 841.89 V 595.276 H 0 Z"
         transform="translate(-775.60202,-219.09481)"
         id="path727" />
    </clipPath>
    <clipPath
       clipPathUnits="userSpaceOnUse"
       id="clipPath746">
      <path
         d="M 0,0 H 841.89 V 595.276 H 0 Z"
         transform="translate(-798.47312,-197.6378)"
         id="path746" />
    </clipPath>
    <clipPath
       clipPathUnits="userSpaceOnUse"
       id="clipPath676">
      <path
         d="M 0,0 H 841.89 V 595.276 H 0 Z"
         transform="translate(-682.55711,-192.0265)"
         id="path676" />
    </clipPath>
    <clipPath
       clipPathUnits="userSpaceOnUse"
       id="clipPath678">
      <path
         d="M 0,0 H 841.89 V 595.276 H 0 Z"
         transform="translate(-696.19772,-222.44351)"
         id="path678" />
    </clipPath>
    <clipPath
       clipPathUnits="userSpaceOnUse"
       id="clipPath680">
      <path
         d="M 0,0 H 841.89 V 595.276 H 0 Z"
         transform="translate(-682.96922,-224.94151)"
         id="path680" />
    </clipPath>
    <clipPath
       clipPathUnits="userSpaceOnUse"
       id="clipPath682">
      <path
         d="M 0,0 H 841.89 V 595.276 H 0 Z"
         transform="translate(-674.97502,-224.17391)"
         id="path682" />
    </clipPath>
    <clipPath
       clipPathUnits="userSpaceOnUse"
       id="clipPath684">
      <path
         d="M 0,0 H 841.89 V 595.276 H 0 Z"
         transform="translate(-708.94382,-230.0636)"
         id="path684" />
    </clipPath>
    <clipPath
       clipPathUnits="userSpaceOnUse"
       id="clipPath686">
      <path
         d="M 0,0 H 841.89 V 595.276 H 0 Z"
         transform="translate(-707.36962,-221.96201)"
         id="path686" />
    </clipPath>
    <clipPath
       clipPathUnits="userSpaceOnUse"
       id="clipPath688">
      <path
         d="M 0,0 H 841.89 V 595.276 H 0 Z"
         transform="translate(-678.57461,-220.94051)"
         id="path688" />
    </clipPath>
    <clipPath
       clipPathUnits="userSpaceOnUse"
       id="clipPath690">
      <path
         d="M 0,0 H 841.89 V 595.276 H 0 Z"
         transform="translate(-677.15471,-221.60561)"
         id="path690" />
    </clipPath>
    <clipPath
       clipPathUnits="userSpaceOnUse"
       id="clipPath715">
      <path
         d="M 0,0 H 841.89 V 595.276 H 0 Z"
         transform="translate(-711.06292,-197.6368)"
         id="path715" />
    </clipPath>
  </defs>
  <g
     inkscape:label="Layer 1"
     inkscape:groupmode="layer"
     id="layer1"
     transform="translate(-181.23957,-109.27287)">
    <path
       id="path675"
       d="m 0,0 c -6.807,0 -12.324,5.505 -12.324,12.3 v 20.717 c 0,6.795 5.517,12.298 12.324,12.298 h 20.764 c 6.804,0 12.326,-5.503 12.326,-12.298 V 12.3 C 33.09,5.505 27.568,0 20.764,0 Z m -8.065,41.06 c -2.062,-2.061 -3.339,-4.902 -3.341,-8.043 V 12.3 C -11.404,9.158 -10.127,6.317 -8.065,4.257 -6,2.197 -3.152,0.925 0,0.924 h 20.764 c 3.15,0.001 6,1.273 8.062,3.333 2.067,2.06 3.34,4.901 3.34,8.043 v 20.717 c 0,3.141 -1.273,5.982 -3.34,8.043 -2.062,2.058 -4.912,3.332 -8.062,3.332 L 0,44.392 c -3.152,0 -6,-1.274 -8.065,-3.332"
       style="fill:#231f20;fill-opacity:1;fill-rule:nonzero;stroke:none"
       transform="matrix(0.35277776,0,0,-0.35277776,185.5872,125.25899)"
       clip-path="url(#clipPath676)" />
    <path
       id="path677"
       d="m 0,0 c -0.281,1.467 -1.813,2.428 -2.971,2.932 -0.859,0.471 -4.242,1.224 -5.144,0.656 0.111,0.071 2.97,-3.014 2.47,-3.666 -0.13,0.182 -1.814,2.574 -2.132,2.297 0.006,0.013 2.238,-3.389 2.33,-3.55 0.494,-0.909 1.074,-1.406 1.955,-1.636 1.519,-0.39 3.742,0.975 3.142,2.797"
       style="fill:#231f20;fill-opacity:1;fill-rule:nonzero;stroke:none"
       transform="matrix(0.35277776,0,0,-0.35277776,190.3993,114.52855)"
       clip-path="url(#clipPath678)" />
    <path
       id="path679"
       d="m 0,0 c -0.139,0.185 -1.494,0.554 -1.586,0.461 -0.08,-0.08 -0.377,0.129 0.353,-1.172 3.106,-5.531 7.077,-8.062 7.247,-8.568 0.132,-0.397 1.498,-3.041 1.021,-4.558 0,0 -2.34,-4.177 -2.957,-5.84 -1.094,-2.94 -2.375,-7.211 -1.797,-7.5 0.076,-0.039 0.236,-0.052 0.387,0 0.152,0.052 2.935,3.917 4.447,5.874 1.291,1.669 2.598,3.879 3.317,3.879 0.603,0 2.058,-2.803 2.927,-4.105 0.916,-1.375 2.819,-4.429 3.383,-5.432 0.197,-0.352 0.897,-0.224 0.883,-0.086 -0.465,4.857 -1.322,6.743 -1.766,8.378 -0.289,1.06 -1.611,3.886 -1.832,4.77 0,0 0.885,4.317 1.061,5.01 0.318,0.922 3.504,3.221 6.666,8.803 0.172,0.303 -0.26,1.033 -0.649,0.711 C 18.519,-1.527 12.123,-6.602 10.717,-6.471 7.9,-6.207 1.473,-1.963 0,0"
       style="fill:#231f20;fill-opacity:1;fill-rule:nonzero;stroke:none"
       transform="matrix(0.35277776,0,0,-0.35277776,185.73258,113.64731)"
       clip-path="url(#clipPath680)" />
    <path
       id="path681"
       d="m 0,0 c -0.029,0.115 0.109,0.283 0.504,0.426 0,0 8.83,3.2 17.478,3.323 C 26.633,3.872 35.773,0.437 35.773,0.437 36.094,0.304 36.426,-0.268 35.422,-0.092 34.42,0.084 25.178,3.012 17.986,2.94 10.797,2.867 1.098,-0.486 0.643,-0.711 0.541,-0.762 0.025,-0.106 0,0"
       style="fill:#231f20;fill-opacity:1;fill-rule:nonzero;stroke:none"
       transform="matrix(0.35277776,0,0,-0.35277776,182.9124,113.9181)"
       clip-path="url(#clipPath682)" />
    <path
       id="path683"
       d="m 0,0 -2.943,-8.872 c -0.037,-0.111 0.406,-0.745 0.523,-0.781 0.119,-0.036 0.649,0.17 0.744,0.186 0.008,0.003 0.422,0.671 0.473,0.828 0.51,1.462 2.838,7.782 2.838,7.782 0.035,0.112 0.262,0.768 -0.377,1.07 l -0.414,0.12 -0.086,0.01 z"
       style="fill:#231f20;fill-opacity:1;fill-rule:nonzero;stroke:none"
       transform="matrix(0.35277776,0,0,-0.35277776,194.89584,111.84035)"
       clip-path="url(#clipPath684)" />
    <path
       id="path685"
       d="M 0,0 3.043,6.236 3.693,6.444 4.16,6.072 C 4.162,6.067 3.33,3.401 3.277,3.29 2.789,2.252 1.031,-0.435 1.031,-0.435 L 0.502,-0.665 0.24,-0.552 0.193,-0.52 Z"
       style="fill:#231f20;fill-opacity:1;fill-rule:nonzero;stroke:none"
       transform="matrix(0.35277776,0,0,-0.35277776,194.3405,114.69841)"
       clip-path="url(#clipPath686)" />
    <path
       id="path687"
       d="m 0,0 -3.285,8.259 c -0.041,0.103 0.308,0.734 0.412,0.775 0.103,0.041 0.728,0.111 0.812,0.1 0.008,0 0.487,-0.664 0.547,-0.809 C -0.951,6.964 1.414,0.56 1.414,0.56 1.453,0.456 1.242,-0.085 1.139,-0.126 L 0.777,-0.267 0.703,-0.28 Z"
       style="fill:#231f20;fill-opacity:1;fill-rule:nonzero;stroke:none"
       transform="matrix(0.35277776,0,0,-0.35277776,184.18226,115.05877)"
       clip-path="url(#clipPath688)" />
    <path
       id="path689"
       d="m 0,0 -2.637,5.709 0.264,0.562 0.57,0.102 c 0.006,0 1.432,-2.123 1.481,-2.223 C 0.123,3.211 0.975,0.448 0.975,0.448 L 0.807,-0.046 0.559,-0.159 0.504,-0.172 Z"
       style="fill:#231f20;fill-opacity:1;fill-rule:nonzero;stroke:none"
       transform="matrix(0.35277776,0,0,-0.35277776,183.68135,114.82414)"
       clip-path="url(#clipPath690)" />
    <path
       id="path712"
       d="m 193.36207,122.95973 h -0.28575 v -0.0804 h 0.67522 v 0.0804 h -0.28399 v 0.72108 h -0.10548 z"
       style="fill:#231f20;fill-opacity:1;fill-rule:nonzero;stroke:none;stroke-width:0.352778" />
    <path
       id="path713"
       d="m 193.87264,122.87947 h 0.14887 l 0.22402,0.62971 h 0.002 l 0.23036,-0.62971 h 0.1337 v 0.80116 h -0.0995 v -0.66075 h -0.002 l -0.2219,0.60748 h -0.10477 l -0.21555,-0.60748 h -0.003 v 0.66075 h -0.0924 z"
       style="fill:#231f20;fill-opacity:1;fill-rule:nonzero;stroke:none;stroke-width:0.352778" />
    <path
       id="path714"
       d="m 0,0 c 0,-0.625 -0.508,-1.137 -1.137,-1.137 -0.623,0 -1.136,0.512 -1.136,1.137 0,0.627 0.513,1.134 1.136,1.134 C -0.508,1.134 0,0.627 0,0 m -2.09,0 c 0,-0.537 0.416,-0.957 0.953,-0.957 0.537,0 0.955,0.42 0.955,0.957 0,0.533 -0.418,0.953 -0.955,0.953 C -1.674,0.953 -2.09,0.533 -2.09,0 m 1.365,-0.578 c -0.109,-0.039 -0.25,-0.07 -0.369,-0.07 -0.377,0 -0.627,0.267 -0.627,0.64 0,0.337 0.213,0.647 0.633,0.647 0.139,0 0.289,-0.03 0.363,-0.05 V 0.412 c -0.105,0.043 -0.23,0.078 -0.349,0.078 -0.291,0 -0.434,-0.226 -0.434,-0.498 0,-0.272 0.164,-0.478 0.448,-0.478 0.121,0 0.236,0.028 0.335,0.088 z"
       style="fill:#231f20;fill-opacity:1;fill-rule:nonzero;stroke:none"
       transform="matrix(0.35277776,0,0,-0.35277776,195.64341,123.2798)"
       clip-path="url(#clipPath715)" />
  </g>
</svg>
