<?xml version="1.0" encoding="UTF-8" standalone="no"?>
<!-- Created with Inkscape (http://www.inkscape.org/) -->

<svg
   width="99.790588mm"
   height="85.091217mm"
   viewBox="0 0 99.790589 85.091218"
   version="1.1"
   id="svg1"
   inkscape:version="1.4 (e7c3feb1, 2024-10-09)"
   sodipodi:docname="P-BO.svg"
   xmlns:inkscape="http://www.inkscape.org/namespaces/inkscape"
   xmlns:sodipodi="http://sodipodi.sourceforge.net/DTD/sodipodi-0.dtd"
   xmlns="http://www.w3.org/2000/svg"
   xmlns:svg="http://www.w3.org/2000/svg">
  <sodipodi:namedview
     id="namedview1"
     pagecolor="#ffffff"
     bordercolor="#000000"
     borderopacity="0.25"
     inkscape:showpageshadow="2"
     inkscape:pageopacity="0.0"
     inkscape:pagecheckerboard="0"
     inkscape:deskcolor="#d1d1d1"
     inkscape:document-units="mm"
     inkscape:zoom="1.0482005"
     inkscape:cx="188.41815"
     inkscape:cy="160.75169"
     inkscape:window-width="1440"
     inkscape:window-height="872"
     inkscape:window-x="0"
     inkscape:window-y="28"
     inkscape:window-maximized="0"
     inkscape:current-layer="layer1" />
  <defs
     id="defs1" />
  <g
     inkscape:label="Layer 1"
     inkscape:groupmode="layer"
     id="layer1"
     transform="translate(-59.132726,-101.19954)">
    <path
       d="m 59.35723,135.28313 c 0.347716,-2.46609 0.447384,-2.97248 0.998511,-5.07349 0.760889,-2.90067 1.795727,-5.55932 3.227626,-8.29229 1.854994,-3.54049 4.931357,-7.56739 7.879953,-10.31473 11.282812,-10.51272 27.731799,-13.336437 41.90246,-7.1932 4.34864,1.88522 9.12982,5.1704 12.00078,8.24581 6.08063,6.51369 9.26434,12.80202 10.78979,21.31158 0.28856,1.60966 0.45546,5.88769 0.33232,8.51886 -0.28617,6.11614 -2.24073,12.16804 -5.84645,18.10251 l -0.66529,1.09496 -0.30578,-1.25647 c -0.42664,-1.75311 -1.20512,-3.41622 -2.38218,-5.08923 -1.21674,-1.72936 -1.45407,-2.0064 -2.62763,-3.06714 -1.87155,-1.69162 -3.7643,-2.824 -6.17831,-3.69633 -4.2809,-1.54694 -8.83571,-1.33067 -12.67896,0.60202 -1.48215,0.74533 -1.79737,1.06047 -0.65453,0.65432 1.15864,-0.41175 4.83224,-0.56259 7.17055,-0.29443 3.93991,0.45184 7.05274,2.05235 9.53696,4.90363 0.89189,1.02366 2.09907,2.77798 2.09907,3.05042 0,0.078 0.0889,0.26947 0.19757,0.42548 0.38899,0.55853 1.07386,2.99175 1.30434,4.63411 0.21794,1.55297 0.21818,1.76093 0.003,2.91892 -0.33476,1.80386 -0.5442,2.27148 -1.3788,3.07849 -4.03207,3.89874 -9.77985,7.15711 -15.62182,8.8559 -3.85964,1.12233 -5.96141,1.40231 -10.597463,1.41166 -4.248917,0.009 -5.807763,-0.13824 -8.744638,-0.82363 -5.292142,-1.23504 -10.568146,-3.68001 -14.667256,-6.79701 -6.94309,-5.2796 -12.064418,-12.93157 -14.140206,-21.12735 -0.963189,-3.80305 -1.113605,-5.01627 -1.167501,-9.4168 -0.03448,-2.81545 0.0095,-3.91862 0.213625,-5.36657 z m 16.718069,17.71979 c 0.295989,2.21359 1.160885,4.97395 2.103543,6.71364 0.160046,0.29537 0.449659,0.84166 0.643599,1.21399 1.064154,2.04302 3.654134,5.18556 5.678858,6.89041 8.112389,6.83076 20.155191,7.53831 29.090331,1.70915 2.83956,-1.85248 4.58554,-3.56579 6.80696,-6.6795 l 0.88532,-1.24094 -2.20871,-2.20125 -2.20869,-2.20126 -0.43966,0.68485 c -0.80312,1.25103 -2.53942,3.30923 -3.78092,4.48185 -4.63585,4.37861 -10.37564,6.81518 -16.080134,6.82605 -4.687994,0.009 -8.797211,-1.43976 -12.545854,-4.42299 -3.480408,-2.7698 -6.389978,-7.0723 -7.529645,-11.13439 -0.208094,-0.74162 -0.435239,-1.53066 -0.504772,-1.75343 l -0.12647,-0.40502 0.06072,0.40502 c 0.03342,0.22277 0.1034,0.72398 0.155524,1.11382 z m 6.899592,-11.34067 c 0.137319,0.6126 0.338164,1.40098 0.446352,1.75196 0.108162,0.35098 0.196638,0.70535 0.196638,0.78749 0,0.44811 1.747547,3.81376 2.668429,5.13924 2.134367,3.07207 5.126725,5.2807 8.796761,6.49278 1.701509,0.56194 1.809829,0.49629 0.340148,-0.20614 -3.093058,-1.47827 -5.537173,-3.9005 -7.246117,-7.18118 -1.464098,-2.81064 -1.98083,-4.74635 -2.118254,-7.9353 -0.141896,-3.29293 0.676142,-6.16499 2.632816,-9.24358 0.923025,-1.45228 3.532743,-3.78351 5.257614,-4.69655 0.368485,-0.19505 0.669952,-0.42042 0.669952,-0.50083 0,-0.0804 -0.668576,-0.94286 -1.485715,-1.91658 -1.699842,-2.02558 -1.52109,-1.98755 -3.402542,-0.72389 -3.511894,2.35876 -5.866553,5.90705 -6.723724,10.13211 -0.359886,1.77393 -0.361685,1.79899 -0.320886,4.45526 0.02662,1.7339 0.117528,2.8823 0.288528,3.64521 z m 14.82635,13.11937 c 0.121073,0.24818 0.403543,0.58742 0.627698,0.75385 0.516255,0.38332 1.869071,0.39177 2.367911,0.0148 1.21039,-0.91469 1.14562,-2.71207 -0.12403,-3.44148 -1.780913,-1.02314 -3.770951,0.82916 -2.871579,2.67284 z m 2.394899,-42.13931 c 1.7611,2.37807 2.70457,5.34749 2.40975,7.58439 -0.16431,1.24676 -1.40015,2.78035 -3.003154,3.72672 -1.015312,0.59939 -0.736785,0.63173 0.658734,0.0765 1.41171,-0.5617 2.84102,-1.67018 3.80376,-2.94994 2.59651,-3.45161 2.17508,-8.65708 -0.93293,-11.52287 -1.61435,-1.48856 -1.37083,-1.47676 -3.455772,-0.16744 l -1.845124,1.15871 0.897413,0.6622 c 0.493581,0.36422 1.153875,1.00851 1.467323,1.43175 z M 74.379584,176.4475 c 1.163611,0.83078 3.900805,2.28239 6.004348,3.18428 6.135449,2.63053 11.683868,3.6818 18.396056,3.48551 5.079842,-0.14854 8.841612,-0.84911 13.389662,-2.49361 5.56948,-2.01383 10.31608,-4.93683 14.74494,-9.08011 1.91241,-1.78909 2.24745,-2.14614 4.00082,-4.26357 1.70645,-2.0608 3.69011,-5.04147 4.86463,-7.30964 0.39825,-0.7691 0.7752,-1.4895 0.83769,-1.60088 0.33798,-0.60242 1.25381,-2.96209 1.87894,-4.84104 0.97454,-2.92927 1.44934,-5.15718 1.94879,-9.14447 0.0845,-0.67499 0.15372,-2.56591 0.15372,-4.20203 0,-3.79796 -0.26932,-6.26143 -1.0732,-9.8168 -0.1079,-0.47727 -0.19619,-0.9557 -0.19619,-1.06319 0,-0.12106 1.5503,-0.19543 4.07379,-0.19543 h 4.07379 l 0.0916,0.45565 c 0.85847,4.27179 1.1402,6.86114 1.1402,10.47998 0,9.70444 -2.80051,18.71767 -8.2455,26.53749 -3.69478,5.30622 -8.19857,9.5177 -13.96873,13.0621 -5.60634,3.44376 -11.18524,5.40832 -18.19453,6.40706 -2.28885,0.32614 -9.007074,0.32169 -11.353955,-0.008 -6.653874,-0.93336 -12.602871,-3.0266 -18.335545,-6.45165 -1.114319,-0.66576 -4.474448,-3.07628 -4.654418,-3.33902 -0.07758,-0.11326 0.112845,-0.0247 0.423122,0.19688 z m 62.190606,-55.96514 c 0.98176,-2.14963 3.5942,-4.32473 7.48442,-6.23147 5.13078,-2.51478 7.36264,-4.15723 9.35771,-6.88644 l 0.90897,-1.24347 -0.089,0.96806 c -0.12417,1.35148 -0.69024,2.96491 -1.41687,4.03838 -0.7317,1.08097 -1.96318,2.16265 -5.94,5.21757 -5.01602,3.85321 -5.81663,4.63544 -6.62421,6.47234 -0.44181,1.00483 -0.47943,2.21969 -0.0847,2.73266 0.7637,0.99235 2.81065,1.22976 4.20005,0.48713 0.9466,-0.50595 0.80555,-0.38671 3.91925,-3.31281 1.31874,-1.23929 2.93378,-2.59842 3.58897,-3.02028 1.18795,-0.76489 3.11324,-1.5566 4.45045,-1.8301 l 0.70522,-0.14423 -0.56417,0.60426 c -0.31031,0.33234 -1.09252,1.37861 -1.73826,2.32503 -2.03518,2.98283 -4.33221,5.05934 -6.43761,5.81962 -1.98921,0.71831 -6.07703,1.03288 -7.88818,0.60702 -3.63638,-0.85504 -5.21507,-3.57531 -3.83214,-6.60327 z m 5.86869,2.4214 c 0.66347,-1.92449 2.24626,-3.54022 6.05859,-6.18472 3.42609,-2.37659 3.80402,-2.66392 5.21859,-3.96769 2.0211,-1.86279 3.64606,-4.00756 4.60044,-6.07204 0.2707,-0.58553 0.52782,-1.06461 0.5714,-1.06461 0.12144,0 -0.0898,2.19932 -0.32504,3.38516 -0.39728,2.00194 -1.08858,3.56505 -2.41745,5.46614 -1.40136,2.00478 -3.49927,3.81591 -5.46179,4.71517 -3.25012,1.48928 -7.8953,4.83006 -8.38118,6.02771 -0.28951,0.71355 -0.16206,-1.43925 0.13644,-2.30512 z"
       style="fill:#000000;stroke-width:0.264583"
       id="path1" />
  </g>
</svg>
