<?xml version="1.0" encoding="UTF-8" standalone="no"?>
<!-- Created with Inkscape (http://www.inkscape.org/) -->

<svg
   width="100.26434mm"
   height="84.936707mm"
   viewBox="0 0 100.26434 84.936707"
   version="1.1"
   id="svg1"
   inkscape:version="1.4 (e7c3feb1, 2024-10-09)"
   sodipodi:docname="P-JU.svg"
   xmlns:inkscape="http://www.inkscape.org/namespaces/inkscape"
   xmlns:sodipodi="http://sodipodi.sourceforge.net/DTD/sodipodi-0.dtd"
   xmlns="http://www.w3.org/2000/svg"
   xmlns:svg="http://www.w3.org/2000/svg">
  <sodipodi:namedview
     id="namedview1"
     pagecolor="#ffffff"
     bordercolor="#000000"
     borderopacity="0.25"
     inkscape:showpageshadow="2"
     inkscape:pageopacity="0.0"
     inkscape:pagecheckerboard="0"
     inkscape:deskcolor="#d1d1d1"
     inkscape:document-units="mm"
     inkscape:zoom="0.52410024"
     inkscape:cx="98.263644"
     inkscape:cy="144.05641"
     inkscape:window-width="1440"
     inkscape:window-height="872"
     inkscape:window-x="0"
     inkscape:window-y="28"
     inkscape:window-maximized="0"
     inkscape:current-layer="layer1" />
  <defs
     id="defs1" />
  <g
     inkscape:label="Layer 1"
     inkscape:groupmode="layer"
     id="layer1"
     transform="translate(-943.72366,-483.10379)">
    <path
       d="m 943.99492,518.01733 c 0.14026,-1.28089 0.32882,-2.69341 0.41905,-3.13894 0.27183,-1.34225 0.56308,-2.6086 0.69863,-3.03767 0.75115,-2.37761 1.15184,-3.49853 1.79496,-5.02135 0.69853,-1.65407 1.28492,-2.9352 1.45568,-3.18038 0.0388,-0.0557 0.32303,-0.55691 0.63162,-1.11382 1.24134,-2.2401 2.77452,-4.31726 5.16562,-6.99841 1.62353,-1.8205 2.21292,-2.38029 4.08246,-3.87761 5.28453,-4.23237 10.9409,-6.80793 17.97625,-8.18529 1.43541,-0.28102 2.81363,-0.35921 6.34693,-0.36007 4.70474,-10e-4 6.04168,0.15057 9.80246,1.11246 7.52314,1.92417 14.62792,6.38839 19.68642,12.36975 l 1.255,1.48391 -1.1317,0.12118 c -3.9824,0.42648 -6.808,4.44477 -5.7715,8.2077 0.4267,1.54924 1.3122,3.31555 1.6621,3.31555 0.077,0 0.038,-0.16281 -0.088,-0.36181 -0.5626,-0.8925 -0.8186,-2.66713 -0.5375,-3.72587 0.3186,-1.20016 1.5691,-2.32338 3.6837,-3.30883 0.948,-0.44176 1.5544,-0.57871 2.8976,-0.65439 l 1.6988,-0.0957 0.4126,0.78248 c 0.2269,0.43037 0.4645,0.87362 0.528,0.985 0.3138,0.55097 1.3648,2.74885 1.743,3.64521 0.9676,2.29283 1.5171,4.24279 2.4542,8.70801 0.4186,1.99449 0.4997,8.53 0.1358,10.93241 -0.5644,3.72498 -0.71,4.33457 -1.8395,7.69868 -0.7339,2.1861 -1.351,3.60925 -2.6527,6.11883 -0.7663,1.4772 -3.8393,5.89087 -4.9547,7.11634 -7.0372,7.73146 -16.50847,12.36493 -26.50897,12.96849 -14.04501,0.84767 -26.72408,-5.3667 -34.64732,-16.98164 -0.56695,-0.83111 -1.01092,-1.53969 -0.98658,-1.57463 0.0243,-0.0349 0.60854,-0.20403 1.29828,-0.37577 3.49597,-0.8705 7.45715,-2.61842 10.63337,-4.69211 1.07426,-0.70137 3.80161,-3.0015 4.93649,-4.16324 0.65939,-0.67498 1.9064,-2.24362 2.77114,-3.48586 l 1.57226,-2.25864 1.15115,0.79028 c 1.2179,0.83611 2.83035,2.8113 3.60471,4.41571 l 0.39415,0.81663 -1.14324,1.66536 c -1.65783,2.41495 -2.81443,4.46318 -3.91361,6.93068 -0.5869,1.31747 -1.65979,4.34846 -1.82793,5.16405 -0.0574,0.27845 -0.16912,0.62239 -0.24826,0.76431 -0.0791,0.14192 -0.10824,0.3092 -0.0647,0.37174 0.0436,0.0625 0.15753,-0.0991 0.25329,-0.35929 0.39134,-1.06319 1.5191,-3.01362 2.79611,-4.83571 1.32607,-1.89207 3.92827,-4.99767 4.79592,-5.7237 l 0.43722,-0.36584 v 1.22571 c 0,2.30146 -0.86174,4.82164 -2.31198,6.76133 -1.48976,1.9926 -4.77903,4.71609 -6.66125,5.51549 -1.37314,0.58317 -1.11858,0.60976 0.95789,0.10005 3.94222,-0.96768 6.62954,-2.83715 8.99441,-6.25714 0.91636,-1.3252 1.33853,-2.12443 1.72852,-3.27231 0.79042,-2.32651 0.98015,-3.34649 1.00634,-5.40998 l 0.0238,-1.86603 1.25693,-0.83987 c 3.68228,-2.46047 8.63899,-4.49091 11.42047,-4.67823 l 0.97089,-0.0654 -0.0268,1.95185 c -0.0562,4.09623 1.25248,8.52911 4.05714,13.74282 1.26955,2.36 4.82046,7.69545 5.12156,7.69545 0.096,0 -0.9768,-2.4335 -1.1604,-2.63265 -0.2524,-0.27371 -1.8363,-4.97933 -2.2154,-6.58164 -1.54293,-6.52144 -1.02254,-12.70126 1.4596,-17.33273 0.3601,-0.67203 0.6322,-1.25341 0.6047,-1.29195 -0.028,-0.0385 -0.8753,-0.28212 -1.8837,-0.54129 -2.4256,-0.62336 -6.8149,-0.67654 -9.0973,-0.11022 -3.86604,0.95925 -7.80135,2.98835 -10.7628,5.54942 -0.45059,0.38968 -0.83397,0.67588 -0.85196,0.63601 -1.89823,-4.20955 -5.42351,-6.98997 -10.88157,-8.58241 -0.93089,-0.2716 -1.71051,-0.41814 -1.7325,-0.32566 -0.0639,0.26902 -1.43999,3.68432 -1.58861,3.94291 -0.0742,0.12918 -0.43635,0.77771 -0.80467,1.44116 -2.68875,4.84318 -6.09844,8.81439 -10.47327,12.19807 -1.53075,1.18393 -5.17433,3.45431 -5.26624,3.28148 -1.36956,-2.57548 -2.25433,-4.60833 -3.03144,-6.96526 -0.25707,-0.77967 -0.51617,-1.55428 -0.57581,-1.72135 -0.0966,-0.27056 -0.47636,-2.04653 -0.86609,-4.05024 -0.23392,-1.20262 -0.55626,-5.06256 -0.53988,-6.465 0.008,-0.73244 0.13031,-2.37971 0.27054,-3.66059 z m 23.06233,-7.51049 c 0.28625,1.74365 0.82364,3.10353 1.75604,4.44363 3.43035,4.93026 10.12801,6.93548 16.0098,4.79318 1.38496,-0.50443 3.24554,-1.5421 3.68128,-2.05309 0.26083,-0.30585 0.26046,-0.31 -0.0145,-0.16316 -3.14489,1.67986 -6.18927,2.10369 -9.40059,1.30874 -2.94667,-0.72943 -5.00764,-2.04631 -6.48536,-4.14388 -1.14327,-1.62279 -1.30668,-1.97459 -1.81454,-3.90641 -0.17825,-0.67803 -0.13028,-3.58657 0.0741,-4.4897 l 0.10901,-0.48176 -1.81948,0.14853 c -1.00074,0.0817 -1.84378,0.18143 -1.87341,0.22164 -0.0639,0.0866 -0.40537,2.28142 -0.42323,2.71973 -0.007,0.16708 0.0836,0.88822 0.20087,1.60255 z m 10.1033,-13.31243 c 1.47119,2.03598 2.03856,4.31726 1.41266,5.68002 -0.34367,0.74826 -1.35668,1.82187 -2.21298,2.34535 -0.90429,0.55282 -0.6487,0.56136 0.58458,0.0195 2.66213,-1.16961 4.24042,-3.32392 4.38956,-5.99156 0.0958,-1.71418 -0.21407,-2.8403 -1.15165,-4.18485 -0.75562,-1.0836 -2.238,-2.35954 -2.74132,-2.35954 -0.15938,0 -0.7852,0.32709 -1.3907,0.72687 -0.6055,0.39978 -1.25339,0.81289 -1.43973,0.91803 -0.31533,0.17789 -0.27125,0.23812 0.63468,0.86728 0.61299,0.42573 1.32218,1.15859 1.9149,1.97888 z m 3.06263,16.01213 c 0.44474,0.35864 1.08254,0.63631 1.79816,0.78285 1.89357,0.38774 5.52143,-2.6e-4 6.84371,-0.7321 0.1592,-0.0881 0.26284,5.3e-4 0.32401,0.27729 0.12671,0.57325 1.69167,2.76984 2.61535,3.67099 1.67278,1.6319 3.55481,2.74471 5.92381,3.50261 1.96612,0.62901 6.02998,0.62506 7.78368,-0.008 1.6041,-0.57865 2.7854,-1.28019 3.88,-2.30412 0.9104,-0.85167 2.4453,-3.04488 2.4347,-3.47902 0,-0.13288 -0.5845,-0.77849 -1.2918,-1.4347 l -1.286,-1.19309 -0.2861,0.56397 c -1.2271,2.41876 -3.5425,4.4397 -6.0213,5.25561 -4.3854,1.44346 -9.89337,-0.55738 -13.15803,-4.77984 -0.24569,-0.31775 -0.21754,-0.36499 0.58205,-0.97691 0.81368,-0.62269 1.89212,-1.96336 2.16292,-2.68889 0.0959,-0.25682 -0.0481,-0.19016 -0.52268,0.24195 -0.36026,0.32803 -1.19513,0.87704 -1.85529,1.22002 -1.34242,0.69745 -1.47386,0.65636 -1.8316,-0.57247 -0.10891,-0.37403 -0.23395,-0.62842 -0.2779,-0.56531 -0.0439,0.0631 0.0259,0.49442 0.15521,0.95847 0.12933,0.46405 0.19555,0.90055 0.14716,0.97001 -0.0484,0.0695 -0.89199,0.12324 -1.8747,0.11952 -2.03444,-0.008 -3.02567,-0.30895 -4.65754,-1.41559 -0.57045,-0.38686 -1.08898,-0.70337 -1.15227,-0.70337 -0.13112,0 -1.11558,2.22281 -1.12111,2.5314 -0.003,0.11138 0.30652,0.45261 0.68556,0.75828 z m 16.42258,-7.33992 c 0.32097,0.96475 0.76758,1.78463 1.67214,3.06972 1.26045,1.79068 1.7177,2.15908 3.1203,2.51401 0.5122,0.12961 0.5717,0.084 1.3121,-1.00475 0.4265,-0.62729 0.7433,-1.21526 0.704,-1.30662 -0.039,-0.0913 -0.4393,-0.28043 -0.8889,-0.42016 -2.1152,-0.65742 -4.23573,-2.8142 -4.94068,-5.02514 -0.36878,-1.1565 -0.4989,-3.44532 -0.25641,-4.50996 0.11443,-0.50241 0.11303,-0.50336 -0.18195,-0.12512 -0.36275,0.46512 -0.88731,1.98063 -1.02196,2.95262 -0.15607,1.12667 0.006,2.42768 0.48136,3.8554 z m -36.75674,52.73681 c 4.12896,2.62285 9.36924,4.64125 14.49676,5.58373 9.15257,1.68232 18.32044,0.44706 26.72762,-3.60123 8.7391,-4.20817 16.0454,-11.64684 20.2412,-20.60811 0.8709,-1.8601 1.9089,-4.63026 2.3393,-6.24337 0.1519,-0.56925 0.3334,-1.21727 0.4034,-1.44003 0.1131,-0.36034 0.2416,-0.98391 0.8341,-4.05024 0.086,-0.44552 0.232,-2.02637 0.3242,-3.51299 0.2516,-4.05801 -0.051,-8.42529 -0.8116,-11.7331 -0.3893,-1.6921 -0.6969,-1.57013 3.7847,-1.50035 2.1915,0.0341 4.0329,0.13086 4.092,0.21496 0.1721,0.24503 0.6261,2.79339 0.8887,4.98831 0.2929,2.44812 0.3271,7.88192 0.063,9.94157 -0.4066,3.16552 -0.8451,5.59196 -1.2776,7.06942 -0.065,0.22277 -0.2618,0.90624 -0.4368,1.51884 -2.7135,9.49905 -8.8886,18.13475 -17.2796,24.16495 -4.7197,3.39184 -8.8136,5.4015 -14.0814,6.91246 -4.53718,1.3014 -7.70319,1.73106 -12.76437,1.73224 -8.23524,0.002 -14.8844,-1.69379 -22.19241,-5.65965 -2.02395,-1.09835 -6.50155,-4.12181 -6.66435,-4.50008 -0.0364,-0.0846 0.55467,0.24061 1.31355,0.72267 z m 61.33828,-55.25404 c 1.0026,-2.56604 3.2702,-4.44733 8.3062,-6.89116 4.7488,-2.30443 7.1681,-4.09604 9.0124,-6.67411 l 0.832,-1.16294 -0.087,1.05048 c -0.087,1.05393 -0.6552,2.74995 -1.2616,3.76523 -0.5662,0.94797 -2.3003,2.4737 -5.6394,4.96169 -4.2236,3.14713 -5.5421,4.23801 -6.2635,5.18223 -1.8441,2.41389 -1.7487,4.43826 0.2415,5.12378 1.7776,0.61229 3.2534,-0.10812 6.4093,-3.1286 3.1413,-3.00658 5.8943,-4.71445 8.2395,-5.11157 l 0.7643,-0.12942 -1.0973,1.50011 c -1.7064,2.33261 -2.2752,3.02986 -3.5127,4.30573 -1.9046,1.96371 -2.7633,2.48043 -5.0827,3.05877 -1.4465,0.36069 -5.9575,0.44498 -7.0757,0.13223 -1.6019,-0.44807 -2.9181,-1.40513 -3.5386,-2.57304 -0.4801,-0.90376 -0.5967,-2.51418 -0.247,-3.40941 z m 5.9232,2.79276 c 0.4437,-2.18887 1.7922,-3.75104 5.4154,-6.27344 4.2572,-2.96371 5.1716,-3.66694 6.8406,-5.26081 2.0029,-1.91274 3.3937,-3.81799 4.2036,-5.75865 0.3736,-0.89537 0.3776,-0.89851 0.3779,-0.29739 0,0.86526 -0.2654,3.10265 -0.4165,3.50657 -0.07,0.18764 -0.2714,0.77873 -0.4472,1.31355 -0.7188,2.18728 -2.5853,4.80722 -4.5108,6.33191 -1.1852,0.93842 -2.0674,1.47428 -4.8199,2.92769 -1.0702,0.56508 -2.4983,1.40044 -3.1735,1.85636 -1.1821,0.79815 -3.1587,2.56991 -3.3419,2.99553 -0.1419,0.32957 -0.3382,0.23752 -0.3171,-0.14864 0.011,-0.19491 0.096,-0.73162 0.1894,-1.19268 z"
       style="fill:#000000;stroke-width:0.264583"
       id="path1" />
  </g>
</svg>
