<?xml version="1.0" encoding="UTF-8" standalone="no"?>
<!-- Created with Inkscape (http://www.inkscape.org/) -->

<svg
   width="99.992409mm"
   height="85.007317mm"
   viewBox="0 0 99.992409 85.007317"
   version="1.1"
   id="svg1"
   inkscape:version="1.4 (e7c3feb1, 2024-10-09)"
   sodipodi:docname="P-WT.svg"
   xmlns:inkscape="http://www.inkscape.org/namespaces/inkscape"
   xmlns:sodipodi="http://sodipodi.sourceforge.net/DTD/sodipodi-0.dtd"
   xmlns="http://www.w3.org/2000/svg"
   xmlns:svg="http://www.w3.org/2000/svg">
  <sodipodi:namedview
     id="namedview1"
     pagecolor="#ffffff"
     bordercolor="#000000"
     borderopacity="0.25"
     inkscape:showpageshadow="2"
     inkscape:pageopacity="0.0"
     inkscape:pagecheckerboard="0"
     inkscape:deskcolor="#d1d1d1"
     inkscape:document-units="mm"
     inkscape:zoom="0.74118967"
     inkscape:cx="178.76666"
     inkscape:cy="135.59282"
     inkscape:window-width="1440"
     inkscape:window-height="872"
     inkscape:window-x="0"
     inkscape:window-y="28"
     inkscape:window-maximized="0"
     inkscape:current-layer="layer1" />
  <defs
     id="defs1" />
  <g
     inkscape:label="Layer 1"
     inkscape:groupmode="layer"
     id="layer1"
     transform="translate(-669.78659,1161.9919)">
    <path
       d="m 669.83767,-1126.182 c 0.34396,-2.8287 0.79772,-5.5518 1.04378,-6.263 0.0609,-0.1753 0.17621,-0.5465 0.25665,-0.8249 0.44132,-1.5285 1.26365,-3.8909 1.75762,-5.0494 1.05781,-2.4813 3.10224,-6.06 4.395,-7.6935 0.22728,-0.2869 0.51408,-0.6584 0.63791,-0.8254 1.4605,-1.9727 4.12194,-4.7888 5.70653,-6.0384 2.4048,-1.8965 2.86676,-2.2304 4.61301,-3.3355 4.02855,-2.5496 8.81671,-4.3699 13.98085,-5.3153 2.44501,-0.4476 7.75097,-0.6101 10.33277,-0.3164 9.78932,1.1135 18.17026,5.3786 24.76924,12.6055 1.28852,1.4112 4.02325,5.2089 4.8633,6.7541 0.30295,0.5569 0.58235,1.0581 0.62124,1.1138 0.5379,0.7724 2.30823,5.176 2.93106,7.2904 0.48736,1.6553 0.53102,1.8465 1.09167,4.7937 0.32888,1.7297 0.49662,5.7751 0.34793,8.3943 -0.12409,2.1871 -0.21088,2.8282 -0.7501,5.5444 -0.77761,3.9157 -2.58683,8.5512 -4.7027,12.0494 -0.16828,0.2785 -0.49689,0.8222 -0.72999,1.2083 l -0.42386,0.702 -0.0976,-0.6007 c -0.19712,-1.2141 -1.21259,-3.8718 -1.89336,-4.9548 -0.38497,-0.6126 -0.7022,-1.1594 -0.70511,-1.2151 -0.003,-0.056 0.5662,-0.072 1.26444,-0.036 1.02896,0.053 1.26973,0.01 1.26973,-0.225 0,-0.3277 -0.92868,-0.5442 -2.34711,-0.5471 -0.79349,0 -0.92022,-0.066 -1.5113,-0.7673 -1.66423,-1.9745 -4.63312,-3.9946 -7.35436,-5.0042 -1.52453,-0.5656 -4.39526,-1.1156 -5.82269,-1.1156 -2.30849,0 -5.48216,0.8474 -7.50596,2.0043 -1.18481,0.6773 -1.16867,0.7506 0.0706,0.3196 1.25413,-0.4362 4.09628,-0.5784 6.44313,-0.3223 3.2647,0.3561 5.22129,1.058 7.52899,2.7006 0.78052,0.5557 1.57374,1.1864 1.76292,1.4014 l 0.34369,0.3911 -1.26921,-0.1129 c -0.69823,-0.062 -3.93514,-0.2942 -7.19322,-0.5159 -3.25808,-0.2217 -7.79622,-0.536 -10.0846,-0.6984 -2.28838,-0.1624 -6.35053,-0.4386 -9.02679,-0.6138 -2.67626,-0.1751 -5.19906,-0.3666 -5.60652,-0.4255 l -0.7403,-0.1071 v -2.5854 c 0,-1.4219 0.0415,-4.6379 0.0923,-7.1467 l 0.0926,-4.5613 1.14168,0.7629 c 2.14524,1.4338 5.17234,2.688 8.05259,3.3365 1.98835,0.4476 6.92653,0.6188 9.02679,0.3128 4.78076,-0.6964 9.39192,-2.9271 12.64656,-6.118 1.27026,-1.2455 4.0296,-4.9517 3.86371,-5.1898 -0.045,-0.064 -0.16034,0.02 -0.25665,0.1869 -0.096,0.1674 -0.52387,0.7152 -0.95038,1.2174 -2.58366,3.041 -6.69343,5.3074 -11.56547,6.3781 -2.17461,0.4779 -6.3627,0.4747 -8.60372,-0.01 -5.75971,-1.2368 -10.08406,-4.2884 -12.93865,-9.131 l -0.45641,-0.7742 0.0915,-9.995 0.0915,-9.9951 h -0.37571 -0.37544 v 3.0047 c 0,1.6526 -0.0421,5.7505 -0.0934,9.1064 -0.10027,6.5793 -0.0971,6.5621 -0.73686,3.9082 -0.16404,-0.6807 -0.29819,-1.3739 -0.29819,-1.5405 0,-0.4766 -0.34475,-0.364 -1.55072,0.5065 l -1.1213,0.8094 -0.38788,-1.1638 c -0.21326,-0.6401 -0.40799,-1.221 -0.43286,-1.2907 -0.0238,-0.07 0.17595,-0.3141 0.44582,-0.5429 0.27014,-0.2289 0.66781,-0.7992 0.88371,-1.2675 0.53816,-1.1676 0.5588,-3.2478 0.0468,-4.7106 -1.57506,-4.5002 -6.14098,-5.8625 -7.71551,-2.3021 -0.54319,1.2282 -0.54531,3.0842 -0.005,4.6117 0.91837,2.5996 2.64055,4.2119 4.61884,4.3245 l 0.91678,0.052 0.45349,1.2771 c 0.2495,0.7024 0.42492,1.3438 0.38973,1.4252 -0.0349,0.081 -0.54054,0.4732 -1.12342,0.8707 -0.58287,0.3974 -1.05886,0.7954 -1.0578,0.8844 0,0.089 0.18785,0.6891 0.41566,1.3336 1.27132,3.5996 3.15886,6.516 5.50624,8.5077 l 0.63474,0.5386 -0.0503,7.548 c -0.0278,4.1514 -0.0667,7.5735 -0.0865,7.6048 -0.0611,0.095 -9.16014,3.6868 -9.34482,3.6883 -0.21246,0 -0.57388,-0.9263 -0.98504,-2.53 -0.40614,-1.5834 -0.43948,-0.6769 -0.041,1.1138 0.34501,1.5509 0.34898,1.7659 0.0352,1.9035 -0.13574,0.06 -1.42108,0.5706 -2.85618,1.1357 -3.82958,1.508 -4.10819,1.6463 -4.05157,2.0122 0.0603,0.3899 -0.30189,0.4985 3.69914,-1.1091 1.86161,-0.748 3.48007,-1.397 3.59648,-1.4423 0.13891,-0.054 0.30613,0.2157 0.48657,0.7846 1.30863,4.1235 4.84479,8.8037 8.74766,11.5777 4.14364,2.9454 8.14599,4.3168 13.19159,4.5203 4.40876,0.1779 7.70335,-0.4717 11.53451,-2.2743 2.02936,-0.9547 5.04508,-2.9738 6.40133,-4.2858 1.16787,-1.1297 4.20794,-5.0062 4.06533,-5.1835 -0.34925,-0.4336 -3.81133,-3.8931 -4.05898,-4.056 -0.28601,-0.1883 -0.41248,-0.087 -1.1131,0.8868 -2.00554,2.7887 -3.64305,4.404 -6.46245,6.374 -7.8232,5.4666 -16.79998,5.7683 -24.26599,0.8155 -2.46724,-1.6367 -5.63325,-5.2402 -7.16783,-8.1584 l -0.66172,-1.258 0.9562,-0.403 c 0.52599,-0.2217 2.73341,-1.1057 4.90538,-1.9644 l 3.94917,-1.5614 3.5261,0.2382 c 1.9394,0.131 6.06478,0.4184 9.16781,0.6387 8.93313,0.6344 10.9736,0.775 16.14937,1.1128 2.67626,0.1746 5.1271,0.3637 5.44619,0.4201 0.46408,0.082 0.72734,0.3138 1.31471,1.1576 0.97446,1.3995 1.87352,3.3853 2.26563,5.0039 0.45323,1.8713 0.46752,4.5863 0.031,5.9123 -0.17198,0.523 -0.31327,1.0242 -0.31406,1.1138 0,0.2153 -1.27397,1.37 -3.08531,2.8002 -13.39797,10.5791 -32.50089,11.0684 -46.27748,1.1855 -1.43563,-1.0299 -3.24485,-2.4807 -4.02061,-3.224 -4.71514,-4.5179 -8.382,-10.1934 -10.26504,-15.8883 -1.00621,-3.0429 -1.19247,-3.814 -1.73857,-7.1892 -0.22066,-1.3627 -0.39846,-7.2254 -0.25533,-8.4042 z m 39.76555,-21.3358 c 1.66476,1.2105 3.34195,4.1902 3.8063,6.7628 0.20611,1.1425 0.20558,1.3243 -0.005,2.239 -0.36804,1.59 -1.51977,2.9672 -3.14881,3.7644 -1.18957,0.5822 -0.61066,0.613 0.81703,0.043 2.20319,-0.8789 4.18359,-2.8832 5.01597,-5.0767 0.33973,-0.8957 0.41937,-1.3775 0.46805,-2.8317 0.0524,-1.5594 0.0185,-1.8786 -0.30718,-2.8997 -0.46487,-1.4584 -1.84415,-3.4401 -3.00276,-4.3147 l -0.8673,-0.6546 -1.65179,1.0155 c -1.69836,1.044 -1.90262,1.185 -1.90262,1.312 0,0.041 0.35031,0.3288 0.77893,0.6402 z m 23.19814,8.3591 c 0,0.2714 0.70273,0.6235 1.2446,0.6235 0.70379,0 1.15332,-0.4737 1.15332,-1.2151 0,-1.2347 -1.50098,-1.711 -2.2053,-0.6998 -0.21167,0.3039 -0.32491,0.643 -0.2757,0.8266 0.0458,0.1712 0.0831,0.3804 0.0831,0.4648 z m -47.28448,52.5814 c 10.93655,6.6752 23.65216,8.2914 35.57799,4.522 7.7044,-2.4351 14.52959,-6.8984 19.6043,-12.8201 2.16826,-2.5302 4.48495,-5.9065 5.71024,-8.3215 0.22595,-0.4456 0.44635,-0.8556 0.49001,-0.9113 0.43947,-0.5626 2.18334,-5.1222 2.98185,-7.7967 0.33549,-1.1234 0.90858,-4.0759 1.19936,-6.1766 0.3294,-2.3829 0.32385,-7.7692 -0.0106,-10.1256 -0.26775,-1.8858 -0.66278,-4.0333 -0.90593,-4.9241 -0.0855,-0.3136 -0.15557,-0.6098 -0.15557,-0.6582 0,-0.048 1.86187,-0.088 4.13702,-0.088 h 4.13703 l 0.17171,0.962 c 0.28575,1.603 0.57679,3.3361 0.73925,4.4046 0.23521,1.5446 0.3212,7.8589 0.12991,9.5181 -0.80989,7.0213 -2.44396,12.3966 -5.53932,18.2205 -1.15067,2.1649 -3.75708,5.8902 -5.38798,7.701 -0.30109,0.3341 -0.71199,0.7994 -0.91307,1.034 -0.20109,0.2346 -1.22264,1.2431 -2.26986,2.2413 -7.58825,7.2322 -16.45761,11.398 -26.91263,12.64 -2.96121,0.3518 -9.75095,0.1348 -12.67168,-0.405 -7.19059,-1.3288 -13.462,-3.965 -19.11271,-8.0341 -1.49384,-1.0756 -2.05317,-1.6254 -0.99933,-0.9822 z m 1.68037,-63.2858 c 0.19447,-0.6396 0.95779,-1.6319 1.4261,-1.8538 1.53935,-0.7295 3.79016,0.7033 4.86093,3.0949 0.30691,0.6858 0.66675,2.1519 0.66939,2.7289 0.003,0.7149 -0.50535,2.2014 -0.90937,2.6578 -1.56872,1.7717 -4.28202,0.5142 -5.66182,-2.6239 -0.30506,-0.6941 -0.3937,-1.1679 -0.42915,-2.2939 -0.0238,-0.7805 -0.005,-1.55 0.0439,-1.71 z m 59.99718,7.7574 c 0.77946,-2.2612 3.43138,-4.4813 8.03275,-6.7247 2.71198,-1.3223 3.39698,-1.6985 4.86595,-2.6731 1.28455,-0.8521 3.29856,-2.7986 4.1992,-4.0583 0.39211,-0.5484 0.74295,-0.997 0.77999,-0.997 0.18865,0 -0.14128,2.0659 -0.47916,3.001 -0.75432,2.0869 -1.83197,3.1862 -6.71856,6.8529 -5.12948,3.849 -6.37858,5.0974 -7.02628,7.022 -0.36301,1.0786 -0.34898,1.3439 0.11245,2.1162 0.56065,0.9388 1.88225,1.399 3.09668,1.0784 1.288,-0.3401 1.92564,-0.7965 4.6019,-3.2941 2.7305,-2.5483 4.05977,-3.5657 5.59462,-4.282 1.1213,-0.5233 2.96545,-1.0576 3.20172,-0.9276 0.20426,0.1123 -2.95857,4.2538 -4.29101,5.6186 -2.27754,2.333 -3.59728,3.039 -6.45081,3.4514 -4.39288,0.6348 -7.54539,-0.08 -8.99239,-2.0397 -0.87313,-1.1822 -1.05516,-2.6128 -0.52705,-4.144 z m 6.14045,1.9504 c 0.19843,-0.5013 0.53102,-1.1718 0.73871,-1.4902 0.68633,-1.0513 2.45401,-2.6114 4.67546,-4.1263 4.12829,-2.8152 6.16823,-4.4717 7.747,-6.2913 1.17395,-1.3526 2.2643,-3.0503 2.89163,-4.5021 l 0.39132,-0.9049 -0.0833,1.4642 c -0.10451,1.8336 -0.37888,3.011 -1.12077,4.8103 -1.41976,3.4427 -3.65602,5.6335 -8.27008,8.102 -3.64146,1.9481 -6.36165,3.9604 -7.08422,5.2405 -0.23945,0.424 -0.24368,0.4155 -0.24527,-0.4796 0,-0.6082 0.1188,-1.2144 0.35957,-1.8226 z"
       style="fill:#000000;stroke-width:0.264583"
       id="path1" />
  </g>
</svg>
