<?xml version="1.0" encoding="UTF-8" standalone="no"?>
<!-- Created with Inkscape (http://www.inkscape.org/) -->

<svg
   width="99.637177mm"
   height="84.948036mm"
   viewBox="0 0 99.637177 84.948037"
   version="1.1"
   id="svg1"
   inkscape:version="1.4 (e7c3feb1, 2024-10-09)"
   sodipodi:docname="P-SA.svg"
   xmlns:inkscape="http://www.inkscape.org/namespaces/inkscape"
   xmlns:sodipodi="http://sodipodi.sourceforge.net/DTD/sodipodi-0.dtd"
   xmlns="http://www.w3.org/2000/svg"
   xmlns:svg="http://www.w3.org/2000/svg">
  <sodipodi:namedview
     id="namedview1"
     pagecolor="#ffffff"
     bordercolor="#000000"
     borderopacity="0.25"
     inkscape:showpageshadow="2"
     inkscape:pageopacity="0.0"
     inkscape:pagecheckerboard="0"
     inkscape:deskcolor="#d1d1d1"
     inkscape:document-units="mm"
     inkscape:zoom="0.74118967"
     inkscape:cx="188.21093"
     inkscape:cy="159.8781"
     inkscape:window-width="1440"
     inkscape:window-height="872"
     inkscape:window-x="0"
     inkscape:window-y="28"
     inkscape:window-maximized="0"
     inkscape:current-layer="layer1" />
  <defs
     id="defs1" />
  <g
     inkscape:label="Layer 1"
     inkscape:groupmode="layer"
     id="layer1"
     transform="translate(-667.19325,1168.481)">
    <path
       d="m 667.22879,-1133.6836 c 0.35454,-3.4605 1.65814,-8.2602 3.13531,-11.5432 1.95183,-4.3379 3.98145,-7.3575 7.70652,-11.4649 3.74544,-4.1299 9.90917,-8.0099 15.7263,-9.8993 4.30636,-1.3988 7.46681,-1.8884 12.2002,-1.89 5.157,0 10.00205,0.8944 14.11261,2.6102 l 0.79428,0.3316 -0.0738,0.7394 c -0.0704,0.706 -0.21484,1.7103 -0.73183,5.0934 -0.46011,3.0111 -0.63262,4.1767 -0.839,5.6703 -0.11536,0.8354 -0.27516,1.8834 -0.35507,2.3289 -0.20558,1.1464 -0.52599,3.1998 -1.01097,6.4804 -0.23045,1.5593 -0.50271,3.382 -0.6051,4.0502 -0.1024,0.6683 -0.29422,1.9442 -0.42625,2.8352 -0.13202,0.8911 -0.32332,2.1669 -0.42518,2.8352 -0.10187,0.6683 -0.28734,1.8985 -0.41169,2.7339 -0.12462,0.8353 -0.32121,2.1112 -0.4371,2.8352 -0.35348,2.2093 -0.66384,4.3193 -0.73713,5.0121 -0.0381,0.362 -0.0831,0.6582 -0.0997,0.6582 -0.0159,0 -0.47387,-0.2165 -1.01574,-0.4812 l -0.98531,-0.4812 -0.15346,0.5318 c -0.24288,0.8419 -1.02843,4.2227 -1.02843,4.4262 0,0.1013 0.50879,0.3028 1.13083,0.4478 0.62177,0.145 1.16073,0.3336 1.1975,0.419 0.0368,0.085 0,0.5985 -0.082,1.1399 -0.082,0.5414 -0.21563,1.4945 -0.29686,2.1181 l -0.1479,1.1337 -2.41697,0.123 c -5.65759,0.2878 -10.44496,2.3713 -14.15865,6.1621 -0.48498,0.4949 -0.88159,0.9407 -0.88159,0.9906 0,0.079 1.70445,1.2654 3.64146,2.5348 l 0.60881,0.3991 1.57718,-1.5108 c 1.98755,-1.9039 3.12764,-2.7178 5.25012,-3.7485 2.52228,-1.2249 4.1455,-1.6491 6.83499,-1.7863 3.12922,-0.1597 5.56365,0.3073 8.19097,1.5711 3.92694,1.889 7.16068,5.0953 9.11701,9.0395 l 0.31274,0.6302 -1.39436,1.1433 c -4.93659,4.0486 -11.57393,7.0025 -18.27159,8.1318 -2.96572,0.5001 -9.22788,0.5024 -12.05654,0 -7.27842,-1.2814 -13.02438,-3.8558 -18.62031,-8.3428 -0.97129,-0.7788 -1.23746,-1.0596 -0.7792,-0.8217 0.15293,0.08 1.3589,0.4558 2.6797,0.8362 3.44911,0.9932 6.17961,1.3635 10.0883,1.3681 4.3381,0.01 6.4127,-0.294 12.34122,-1.7788 9.2292,-2.3114 12.97041,-2.4465 17.20718,-0.6211 0.15504,0.067 0.0598,-0.027 -0.21167,-0.2088 -0.84746,-0.5672 -2.59979,-1.2517 -4.18703,-1.6356 -1.2155,-0.294 -2.2987,-0.3687 -5.33321,-0.3676 -4.01822,0 -5.5626,0.1972 -9.72952,1.2344 -6.32142,1.5733 -9.69063,1.9957 -14.73782,1.8476 -5.10672,-0.1498 -8.53122,-0.8547 -9.70042,-1.997 -1.98305,-1.9375 -5.06174,-5.8957 -6.58019,-8.4602 -1.44065,-2.4333 -3.38904,-7.3722 -4.08146,-10.3459 -0.7702,-3.3071 -0.83661,-3.9388 -0.8755,-8.303 -0.0212,-2.2833 -0.008,-4.4249 0.0264,-4.759 z m 7.95046,10.5306 c 0.0775,-0.069 0.14102,-0.4384 0.14102,-0.8212 0,-0.7999 0.41725,-2.6564 1.01336,-4.5088 1.55098,-4.8205 4.33758,-9.2288 9.00059,-14.2388 2.62282,-2.8178 6.77387,-6.2962 11.21304,-9.3957 5.66394,-3.9547 12.42537,-7.7955 18.82908,-10.696 4.64873,-2.1055 4.74636,-2.1533 4.16083,-2.0386 -1.09907,0.2152 -6.66802,1.9447 -9.43001,2.9285 -8.47302,3.0178 -15.62497,6.8803 -21.4122,11.5637 -3.66712,2.9674 -7.51708,7.4187 -9.4959,10.9788 -0.23283,0.4187 -0.48895,0.8695 -0.56911,1.0017 -0.3392,0.5595 -1.47823,3.1677 -1.87378,4.2908 -0.78502,2.2295 -1.08162,3.3787 -1.43801,5.569 -0.272,1.6727 -0.37307,5.5743 -0.13891,5.3666 z m 6.17061,7.013 c 1.11205,-1.5957 1.83595,-2.2682 4.64027,-4.3101 3.97351,-2.893 5.70838,-3.5017 9.99304,-3.5063 2.96492,0 4.27276,0.1914 6.9477,1.0335 0.87365,0.275 1.64518,0.4495 1.7145,0.3878 0.0696,-0.062 0.17065,-0.5904 0.22489,-1.175 0.054,-0.5847 0.18548,-1.5532 0.2921,-2.1524 0.10689,-0.5992 0.16325,-1.1613 0.12541,-1.2492 -0.0833,-0.1932 -2.10793,-0.8764 -3.66289,-1.2362 -1.63248,-0.3777 -5.6171,-0.3176 -7.24297,0.1092 -2.51909,0.6614 -4.88129,1.9781 -6.93181,3.8643 -2.84163,2.6137 -5.27844,5.6548 -6.3336,7.9043 -0.31353,0.6683 -0.57176,1.2778 -0.57388,1.3545 0,0.077 0.36116,-0.3843 0.80724,-1.0244 z m 25.4852,-20.4894 c 1.27238,1.1925 2.75431,3.3149 3.16574,4.5339 0.4953,1.4682 0.38285,2.8349 -0.33761,4.0972 -0.29898,0.5238 -0.92869,1.3142 -1.39965,1.7565 -0.97472,0.9157 -0.61489,0.8426 0.83662,-0.1699 1.07526,-0.7503 2.23176,-2.1859 2.79796,-3.4738 0.19791,-0.45 0.46461,-1.3976 0.59267,-2.1057 0.1995,-1.1027 0.20743,-1.4472 0.0545,-2.4012 -0.45694,-2.8545 -1.81452,-4.9248 -4.15793,-6.341 -1.60867,-0.9721 -1.64439,-0.9645 -3.27475,0.6972 l -1.44409,1.4716 1.10198,0.5166 c 0.60616,0.2842 1.53512,0.9225 2.06455,1.4186 z m -24.20885,43.3469 c 0.0622,0 0.1733,0.079 0.24686,0.1754 0.27437,0.3592 3.45599,2.0539 5.49751,2.9284 3.50017,1.4991 6.75508,2.4539 10.58069,3.1035 2.97815,0.5057 10.26768,0.5054 13.25165,-5e-4 7.84305,-1.3296 15.16857,-4.6496 20.90077,-9.4725 2.30822,-1.9422 4.91463,-4.6445 6.45345,-6.6915 1.51606,-2.0169 1.93172,-2.6226 2.75854,-4.0207 0.42651,-0.7215 0.81042,-1.3573 0.85275,-1.413 0.80143,-1.0525 3.80154,-8.177 3.80154,-9.0276 0,-0.069 0.0902,-0.4127 0.20055,-0.7636 0.18997,-0.6044 0.56912,-2.2912 0.91731,-4.0809 0.54663,-2.811 0.7157,-8.0665 0.36089,-11.2153 -0.24315,-2.1553 -0.56779,-4.149 -0.96864,-5.9476 l -0.21457,-0.9619 h 4.07537 c 2.78633,0 4.10502,0.07 4.1701,0.2205 0.2458,0.5712 0.83926,4.0874 1.12157,6.6473 0.24448,2.2149 0.27543,6.1061 0.0624,7.8312 -0.61621,4.9892 -1.11336,7.4431 -2.15132,10.615 -0.38524,1.1774 -2.09577,5.4595 -2.38655,5.9741 -0.063,0.1114 -0.44026,0.8318 -0.83846,1.6009 -1.97168,3.8077 -5.18478,8.0049 -8.72093,11.3919 -7.44167,7.1277 -16.22452,11.292 -26.65704,12.6392 -2.24657,0.2901 -8.12376,0.2892 -10.50766,0 -7.65545,-0.9338 -14.65474,-3.5819 -20.90975,-7.9106 -1.81108,-1.2534 -2.2405,-1.62 -1.89707,-1.62 z m 31.77276,-22.6813 c 0.0654,-0.3899 0.19261,-1.2556 0.2831,-1.9239 0.0908,-0.6683 0.17807,-1.238 0.19473,-1.266 0.0159,-0.028 0.65908,0.1384 1.42822,0.3698 3.88329,1.1678 20.92802,6.0973 21.35611,6.1762 0.27147,0.05 -0.39476,-0.3558 -1.48087,-0.902 -7.73271,-3.8892 -10.11899,-5.0824 -17.52388,-8.7619 -2.10503,-1.0459 -2.99694,-1.5793 -2.99747,-1.7927 0,-0.2909 0.30189,-2.3539 0.56515,-3.8477 0.0688,-0.3899 0.23072,-1.4379 0.35984,-2.3289 0.12911,-0.8911 0.31802,-2.1669 0.41962,-2.8352 0.10187,-0.6683 0.32042,-2.1264 0.48604,-3.2402 0.16537,-1.1138 0.35693,-2.3896 0.42572,-2.8351 0.0688,-0.4456 0.25982,-1.7214 0.42439,-2.8352 0.16484,-1.1138 0.41804,-2.7542 0.5625,-3.6452 0.14447,-0.8911 0.36963,-2.3492 0.50007,-3.2402 0.13044,-0.8911 0.32041,-2.1669 0.42227,-2.8352 0.29713,-1.9515 0.77708,-5.1509 1.00251,-6.6829 0.11483,-0.7796 0.26485,-1.7365 0.33364,-2.1263 0.0685,-0.3899 0.22913,-1.4379 0.35666,-2.3289 0.37015,-2.5874 0.10715,-2.4726 2.60403,-1.1355 5.17842,2.7732 9.74539,6.7785 13.19926,11.5763 1.25466,1.743 1.69625,2.4728 2.87259,4.7476 2.00845,3.8839 3.07736,7.066 3.91133,11.6444 0.36222,1.9884 0.38735,2.3957 0.38523,6.2779 0,3.8983 -0.0265,4.275 -0.39026,6.1766 -0.685,3.5743 -1.89441,7.6103 -2.87364,9.5907 -0.2151,0.435 -0.4863,0.9991 -0.60272,1.2537 -1.52558,3.3384 -5.0919,8.2519 -7.99465,11.015 -0.97313,0.9262 -1.31418,1.0314 -1.31418,0.4049 0,-0.1605 -0.0635,-0.2918 -0.14102,-0.2918 -0.0775,0 -0.14103,-0.1302 -0.14103,-0.2893 0,-0.1591 -0.0794,-0.4097 -0.17647,-0.5569 -0.0968,-0.1472 -0.36672,-0.6736 -0.59929,-1.1699 -1.22581,-2.6137 -3.75443,-5.5022 -6.48361,-7.4062 -2.7469,-1.9163 -4.93845,-2.8848 -7.86765,-3.4765 -0.9734,-0.1966 -1.65047,-0.4247 -1.64095,-0.5527 0.008,-0.1199 0.0696,-0.537 0.13468,-0.9268 z m 30.02809,-33.0214 c 0.8546,-2.3211 3.27527,-4.3243 8.18462,-6.7733 4.98343,-2.486 6.85906,-3.9152 8.74474,-6.6628 0.42651,-0.6218 0.81704,-1.131 0.86757,-1.1316 0.22013,0 -0.38153,2.822 -0.79772,3.7453 -0.83079,1.8428 -1.79837,2.8145 -5.86396,5.8883 -5.64938,4.2712 -6.79265,5.3887 -7.45119,7.2817 -0.61516,1.7687 -0.068,2.9066 1.61184,3.3525 1.03875,0.2757 2.18757,-0.013 3.32131,-0.8346 0.43789,-0.3175 1.83674,-1.554 3.10859,-2.7477 2.75352,-2.5849 3.19167,-2.93 4.84929,-3.8202 1.03875,-0.558 3.21071,-1.3233 3.75523,-1.3233 0.11271,0 -0.82736,1.3377 -2.50958,3.5713 -1.64412,2.1832 -3.61553,4.0949 -4.88156,4.7339 -2.0492,1.0341 -6.84847,1.5334 -9.15564,0.9526 -1.94575,-0.4899 -3.33772,-1.5786 -3.86239,-3.0205 -0.27755,-0.7629 -0.23865,-2.3494 0.0788,-3.2116 z m 5.98355,2.3408 c 0.66966,-2.0243 2.34421,-3.8165 5.71447,-6.1157 4.81251,-3.2829 6.55082,-4.833 8.47143,-7.5538 1.3036,-1.8467 1.77959,-2.6679 2.0537,-3.544 0.24632,-0.7859 0.23759,1.349 -0.0106,2.6277 -1.01653,5.2386 -3.60018,8.3724 -9.44404,11.4548 -1.08611,0.5729 -2.67282,1.5244 -3.5261,2.1144 -1.53326,1.0603 -3.31443,2.7492 -3.31443,3.1426 0,0.1116 -0.0635,0.2029 -0.14103,0.2029 -0.25452,0 -0.14499,-1.296 0.19659,-2.3289 z"
       style="fill:#000000;stroke-width:0.264583"
       id="path1" />
  </g>
</svg>
