<?xml version="1.0" encoding="UTF-8" standalone="no"?>
<!-- Created with Inkscape (http://www.inkscape.org/) -->

<svg
   width="99.867683mm"
   height="84.906174mm"
   viewBox="0 0 99.867683 84.906174"
   version="1.1"
   id="svg1"
   inkscape:version="1.4 (e7c3feb1, 2024-10-09)"
   sodipodi:docname="P-TT.svg"
   xmlns:inkscape="http://www.inkscape.org/namespaces/inkscape"
   xmlns:sodipodi="http://sodipodi.sourceforge.net/DTD/sodipodi-0.dtd"
   xmlns="http://www.w3.org/2000/svg"
   xmlns:svg="http://www.w3.org/2000/svg">
  <sodipodi:namedview
     id="namedview1"
     pagecolor="#ffffff"
     bordercolor="#000000"
     borderopacity="0.25"
     inkscape:showpageshadow="2"
     inkscape:pageopacity="0.0"
     inkscape:pagecheckerboard="0"
     inkscape:deskcolor="#d1d1d1"
     inkscape:document-units="mm"
     inkscape:zoom="0.74118967"
     inkscape:cx="188.21093"
     inkscape:cy="159.8781"
     inkscape:window-width="1440"
     inkscape:window-height="872"
     inkscape:window-x="0"
     inkscape:window-y="28"
     inkscape:window-maximized="0"
     inkscape:current-layer="layer1" />
  <defs
     id="defs1" />
  <g
     inkscape:label="Layer 1"
     inkscape:groupmode="layer"
     id="layer1"
     transform="translate(-667.45935,1168.6594)">
    <path
       d="m 667.6536,-1133.6192 c 0.40772,-4.7429 1.88251,-9.6011 4.3651,-14.3817 1.01123,-1.947 2.99931,-4.9658 4.13861,-6.2836 0.38073,-0.4405 0.88847,-1.0323 1.12818,-1.315 2.00845,-2.3679 3.68168,-3.8876 6.55161,-5.9512 4.90697,-3.5279 9.92082,-5.6295 16.31024,-6.8366 1.91797,-0.3623 10.34839,-0.3629 12.27085,-8e-4 4.34366,0.818 7.48083,1.8219 10.78971,3.4528 7.48374,3.6886 12.7119,8.6464 17.09552,16.2116 0.88556,1.528 2.72203,6.1388 3.35465,8.4216 0.77444,2.7946 1.41341,7.3791 1.41023,10.1175 0,2.0934 -0.58684,7.1813 -0.97816,8.5136 -0.0656,0.2228 -0.23045,0.8607 -0.36645,1.4176 -0.28496,1.1661 -1.27132,4.1298 -1.75974,5.2866 -0.38788,0.9194 -2.07037,4.2029 -2.53127,4.9403 -0.1741,0.2784 -0.43418,0.7189 -0.57812,0.9789 -0.32782,0.592 -0.50562,0.4413 -0.69956,-0.5927 -0.0839,-0.4464 -0.4392,-1.4901 -0.78978,-2.3193 -1.7145,-4.0545 -5.42025,-7.592 -9.78508,-9.3403 -4.17354,-1.6717 -8.59737,-1.6525 -12.51929,0.054 -2.28812,0.9957 -3.06335,1.6191 -1.23428,0.992 1.93648,-0.6637 7.00881,-0.5502 9.63136,0.2155 3.27316,0.9557 5.87296,2.8621 7.89913,5.7927 0.87445,1.2644 2.00396,3.5024 2.00687,3.9758 0,0.078 0.0889,0.3842 0.19658,0.6807 0.29898,0.8228 0.55034,3.3406 0.44636,4.4686 -0.0513,0.5538 -0.22649,1.4457 -0.38973,1.9821 -0.26961,0.8862 -0.42651,1.0856 -1.72112,2.1838 -3.37952,2.8675 -5.59276,4.3185 -9.18183,6.0204 -10.17509,4.8247 -21.84691,4.9919 -32.15773,0.4607 -8.8646,-3.8957 -16.27372,-11.4245 -19.98953,-20.3124 -0.80883,-1.9353 -1.43484,-3.745 -1.78567,-5.164 -0.17913,-0.724 -0.38153,-1.4986 -0.45033,-1.7214 -0.0685,-0.2227 -0.18256,-0.7923 -0.2532,-1.2657 l -0.12859,-0.8606 12.29095,-0.012 c 6.76011,-0.01 19.30427,-0.055 27.87624,-0.1075 8.57197,-0.052 17.5686,-0.093 19.99271,-0.089 l 4.40769,0.01 v -3.1368 -3.1369 l -6.28994,-0.053 -6.28994,-0.053 1.55655,-0.8807 c 4.1021,-2.3211 6.97283,-5.7976 8.57911,-10.3896 0.19474,-0.5568 0.3183,-1.0641 0.27411,-1.1273 -0.0439,-0.063 -0.12382,0.058 -0.17727,0.2686 -0.1569,0.6187 -0.89376,1.9235 -1.7354,3.0729 -2.29262,3.1308 -5.87746,5.5342 -10.23303,6.8604 -1.68381,0.5127 -2.08703,0.5583 -4.93659,0.5583 -2.83316,0 -3.25782,-0.047 -4.88712,-0.5454 -2.75987,-0.8435 -4.82812,-2.0506 -6.81911,-3.9803 -1.05754,-1.0249 -2.62387,-3.2387 -3.19378,-4.5135 -0.23786,-0.5323 -0.4908,-0.9678 -0.56224,-0.9678 -0.0712,0 -0.58817,0.5081 -1.14882,1.1291 -0.56066,0.621 -1.40944,1.5535 -1.88648,2.0723 l -0.86731,0.9432 0.41752,0.7572 c 0.63791,1.1565 2.05501,2.9486 3.12843,3.9564 0.81888,0.7689 1.84626,1.5177 3.61871,2.6373 0.25902,0.1637 -4.14735,0.2264 -16.60764,0.2365 l -16.96058,0.014 0.0185,-0.962 c 0.0106,-0.529 0.0728,-1.5998 0.1397,-2.3795 z m 16.84576,16.3365 c 0.66093,3.8615 1.92537,7.0711 3.92959,9.9747 3.80418,5.5109 9.34085,9.1051 15.92183,10.3359 1.94363,0.3635 6.23782,0.4128 8.24918,0.095 4.06056,-0.6422 8.39258,-2.6156 11.7303,-5.3435 1.45706,-1.1908 2.57837,-2.4181 4.32038,-4.729 l 1.11575,-1.4798 -0.35269,-0.3935 c -0.19394,-0.2165 -1.20253,-1.2162 -2.24155,-2.2218 l -1.88886,-1.8282 -0.80883,1.1978 c -3.70179,5.4827 -10.03644,9.5437 -16.48143,10.5655 -2.17514,0.3449 -5.96344,0.1563 -8.03989,-0.4003 -5.83618,-1.5644 -10.98312,-5.958 -13.74775,-11.7357 -0.60034,-1.2545 -1.47796,-3.8471 -1.60073,-4.7283 -0.0434,-0.3115 -0.13414,-0.6154 -0.20161,-0.6753 -0.1606,-0.1424 -0.15981,-0.1303 0.0963,1.3668 z m 22.02259,-24.7259 c 3.64993,-0.8862 6.22459,-3.5597 6.80826,-7.069 0.22754,-1.3685 0.0908,-3.2696 -0.32226,-4.48 -0.3863,-1.1324 -1.64968,-2.9923 -2.52836,-3.7218 l -0.66887,-0.5555 -1.83462,0.9493 c -1.00886,0.5222 -1.83436,1.0245 -1.83436,1.1164 0,0.092 0.20638,0.3196 0.45826,0.506 1.07395,0.7942 1.98094,2.201 2.81173,4.3612 0.76703,1.9942 0.86334,4.4254 0.2286,5.7559 -0.57944,1.2139 -3.03133,3.1226 -4.01135,3.1226 -0.13176,0 -0.20055,0.056 -0.15319,0.124 0.0476,0.068 0.51832,0.019 1.04616,-0.1091 z m 16.17636,-4.3038 c 1.11522,2.5365 4.06612,4.3406 6.09865,3.7285 1.91188,-0.5758 2.53656,-2.7354 1.515,-5.2382 -1.31842,-3.2302 -5.33453,-5.0126 -7.15486,-3.1755 -0.31962,0.3226 -0.66437,0.8107 -0.76597,1.0845 -0.28654,0.7736 -0.13044,2.6054 0.30718,3.6007 z m 0.36989,-3.3441 c 0.28945,-1.0313 1.47055,-1.5761 2.76331,-1.2744 2.9583,0.6906 5.28029,4.818 3.85894,6.859 -0.23627,0.3393 -0.65378,0.6761 -0.93027,0.7506 -2.99667,0.8071 -6.57754,-3.1785 -5.69198,-6.3352 z m 8.35157,13.1906 c 0.44027,0.4428 1.17951,0.3992 1.52003,-0.09 0.33973,-0.4876 0.34502,-0.5908 0.0627,-1.17 -0.25215,-0.5167 -1.13983,-0.6259 -1.61608,-0.1989 -0.37253,0.334 -0.3556,1.0674 0.0333,1.4586 z m -46.20577,6.9621 c 16.36844,-0.07 17.85434,-0.049 19.03465,0.2737 2.30928,0.631 3.76158,0.82 6.26533,0.8156 2.60562,0 4.13703,-0.2114 6.36905,-0.86 1.23931,-0.36 1.9738,-0.3957 8.14547,-0.3957 h 6.78312 v 2.5314 2.5314 h -32.00109 -32.00109 l -0.081,-0.6582 c -0.0444,-0.362 -0.1233,-1.4465 -0.17489,-2.4101 l -0.0942,-1.7519 z m -2.03941,36.0839 c 0.0513,-5e-4 0.60722,0.3151 1.23534,0.7012 4.03119,2.4773 9.96156,4.5543 15.45537,5.4127 2.27039,0.3548 10.16741,0.3521 12.41187,0 7.23794,-1.149 14.23088,-4.12 19.95752,-8.4789 4.30106,-3.2739 8.87386,-8.6058 11.4292,-13.3262 0.42201,-0.7796 0.84746,-1.538 0.94536,-1.6852 0.0982,-0.1471 0.17833,-0.335 0.17833,-0.4174 0,-0.082 0.11853,-0.3328 0.26352,-0.5563 0.14526,-0.2236 0.42731,-0.8103 0.62733,-1.3039 0.47334,-1.1689 1.78858,-4.984 1.78964,-5.1917 0,-0.089 0.0897,-0.4055 0.19844,-0.7043 0.10848,-0.2988 0.24236,-0.8456 0.29739,-1.215 0.055,-0.3695 0.14658,-0.763 0.2032,-0.8744 0.29634,-0.5819 0.79904,-4.7318 0.9443,-7.7967 0.0799,-1.6841 -0.23813,-6.4393 -0.52149,-7.7967 -0.47387,-2.2702 -0.84059,-4.0865 -0.84059,-4.1629 0,-0.071 3.00911,-0.068 7.84596,0.01 0.31538,0 0.41196,0.2621 0.80169,2.131 0.57732,2.7707 0.73183,4.6066 0.73183,8.708 0,4.9974 -0.14525,6.2563 -1.28296,11.1226 -0.57441,2.4578 -1.78541,6.0032 -2.82046,8.2582 -0.37306,0.8129 -0.71861,1.5235 -0.76782,1.5792 -0.0492,0.056 -0.14764,0.2499 -0.21855,0.4316 -0.47122,1.2075 -3.81793,6.2354 -5.34484,8.0301 -4.72837,5.5579 -10.3296,9.8417 -16.57509,12.677 -13.35008,6.0602 -28.65226,5.3972 -41.46656,-1.7966 -2.413,-1.3546 -5.90603,-3.7445 -5.47793,-3.748 z m 61.49631,-55.2788 c 0.0876,-0.4379 0.49689,-1.2043 1.09008,-2.041 1.25704,-1.7731 3.40334,-3.34 7.06596,-5.1586 4.95168,-2.4587 7.16862,-4.1329 9.00298,-6.7995 l 0.89323,-1.2982 -0.0992,1.0126 c -0.12939,1.3207 -0.61543,2.8276 -1.25387,3.8866 -0.70723,1.1732 -1.88383,2.2405 -5.65176,5.1268 -4.4368,3.3986 -5.32421,4.1593 -6.11505,5.2415 -1.35176,1.8503 -1.65894,3.3877 -0.86836,4.3431 0.5244,0.6334 1.70444,1.0283 2.7006,0.9038 1.15279,-0.1441 2.23573,-0.889 4.70588,-3.2368 1.24116,-1.1798 2.74849,-2.5235 3.34936,-2.986 1.32583,-1.0204 3.69808,-2.164 4.89109,-2.3578 l 0.8763,-0.1423 -0.87524,1.1921 c -0.48128,0.6558 -1.23164,1.6819 -1.66688,2.2804 -0.88821,1.2208 -3.16362,3.6026 -4.06082,4.2509 -1.52109,1.0991 -3.94283,1.6494 -7.23504,1.6441 -2.50031,0 -3.73644,-0.2998 -5.012,-1.199 -1.60231,-1.1297 -2.14974,-2.5986 -1.73725,-4.6627 z m 6.16241,1.6711 c 0.32914,-0.9208 1.17739,-2.1535 2.18572,-3.1767 0.93557,-0.9493 2.25425,-1.9512 5.44962,-4.1406 4.22646,-2.8959 7.74251,-6.8901 8.6741,-9.8536 0.25004,-0.7954 0.24395,0.8985 -0.008,2.4076 -0.4318,2.5796 -1.18719,4.3837 -2.71595,6.4873 -1.41764,1.9507 -3.30967,3.4207 -6.79582,5.2798 -3.13055,1.6695 -5.5626,3.4683 -6.66406,4.9291 l -0.38788,0.5144 0.0159,-0.8986 c 0.008,-0.4942 0.11986,-1.1911 0.24792,-1.5487 z"
       style="fill:#000000;stroke-width:0.264583"
       id="path1" />
  </g>
</svg>
