<?xml version="1.0" encoding="UTF-8" standalone="no"?>
<!-- Created with Inkscape (http://www.inkscape.org/) -->

<svg
   width="99.817139mm"
   height="84.980682mm"
   viewBox="0 0 99.817139 84.980683"
   version="1.1"
   id="svg1"
   inkscape:version="1.4 (e7c3feb1, 2024-10-09)"
   sodipodi:docname="P-WB.svg"
   xmlns:inkscape="http://www.inkscape.org/namespaces/inkscape"
   xmlns:sodipodi="http://sodipodi.sourceforge.net/DTD/sodipodi-0.dtd"
   xmlns="http://www.w3.org/2000/svg"
   xmlns:svg="http://www.w3.org/2000/svg">
  <sodipodi:namedview
     id="namedview1"
     pagecolor="#ffffff"
     bordercolor="#000000"
     borderopacity="0.25"
     inkscape:showpageshadow="2"
     inkscape:pageopacity="0.0"
     inkscape:pagecheckerboard="0"
     inkscape:deskcolor="#d1d1d1"
     inkscape:document-units="mm"
     inkscape:zoom="1.0482005"
     inkscape:cx="127.36113"
     inkscape:cy="212.26855"
     inkscape:window-width="1440"
     inkscape:window-height="872"
     inkscape:window-x="0"
     inkscape:window-y="28"
     inkscape:window-maximized="0"
     inkscape:current-layer="layer1" />
  <defs
     id="defs1" />
  <g
     inkscape:label="Layer 1"
     inkscape:groupmode="layer"
     id="layer1"
     transform="translate(-75.206043,-87.625864)">
    <path
       d="m 75.248626,123.22954 c 0.04056,-0.0582 0.14343,-0.74118 0.228573,-1.51764 0.08517,-0.77646 0.225266,-1.73071 0.311362,-2.12055 0.571368,-2.58747 0.551947,-2.51124 1.109583,-4.354 0.848995,-2.80554 2.238772,-6.08344 3.477366,-8.20173 1.990566,-3.40433 5.586333,-7.73595 8.385201,-10.101219 5.392817,-4.557344 11.671409,-7.5449 18.593749,-8.847507 2.34257,-0.44081 8.50249,-0.611693 11.07186,-0.30715 6.82342,0.808768 12.64399,3.07472 18.26504,7.110584 3.71157,2.664865 6.11095,5.126762 8.97101,9.204702 2.72918,3.89136 4.61685,7.91055 5.85142,12.45865 0.68585,2.52669 1.2491,6.97478 1.24368,9.82182 -0.003,1.72144 -0.33208,5.17569 -0.68438,7.18917 -0.67389,3.85154 -2.81246,9.3569 -5.03338,12.95749 -0.17285,0.28025 -0.44114,0.72093 -0.59618,0.97929 -0.27781,0.46295 -0.28406,0.46387 -0.43312,0.0639 -0.0832,-0.22318 -0.15127,-0.50791 -0.15127,-0.63272 0,-0.45654 -0.60939,-2.15738 -1.1617,-3.24239 -1.7735,-3.48395 -4.73758,-6.33699 -8.4292,-8.11341 -2.28251,-1.09835 -3.63776,-1.42504 -6.41792,-1.54705 -2.71053,-0.11896 -4.27162,0.0748 -6.17024,0.7658 -1.16102,0.42254 -3.11182,1.40569 -3.02803,1.52603 0.0275,0.0395 0.52176,-0.0721 1.09831,-0.2481 0.85686,-0.26149 1.69223,-0.30104 4.57436,-0.21654 4.63214,0.13581 6.14704,0.56998 9.02673,2.58705 2.97728,2.08541 4.86696,4.77058 5.88497,8.36232 0.58738,2.07245 0.66434,3.93831 0.23924,5.80016 -0.30888,1.35276 -0.38846,1.51103 -1.11279,2.21303 -2.30132,2.23038 -6.18558,4.90111 -9.38373,6.45201 -10.25734,4.97416 -21.64641,5.3165 -32.110076,0.96518 -3.648657,-1.5173 -6.435407,-3.19211 -9.62234,-5.78295 -4.847934,-3.94116 -9.202949,-9.96264 -11.385047,-15.74156 -0.218916,-0.57979 -0.461592,-1.2177 -0.539247,-1.41758 -0.07768,-0.19988 -0.273844,-0.81908 -0.435954,-1.37598 -0.16211,-0.55691 -0.348033,-1.19482 -0.413147,-1.41759 -0.334169,-1.14289 -0.826241,-3.54418 -1.016714,-4.96154 -0.158909,-1.18235 -0.332793,-8.1308 -0.207989,-8.31001 z m 17.097639,16.77196 c 0.109299,0.47727 0.198702,0.96794 0.198702,1.09039 0,0.48222 1.269339,4.03361 1.842876,5.15604 5.50754,10.77848 17.705147,16.01595 29.186557,12.53227 3.28676,-0.99727 6.77315,-2.98256 9.24399,-5.2639 1.22287,-1.1291 2.04197,-2.07983 3.78706,-4.39566 l 0.83087,-1.1026 -2.11865,-2.16389 c -1.16525,-1.19014 -2.16646,-2.16388 -2.22491,-2.16388 -0.0584,0 -0.55793,0.61549 -1.10995,1.36775 -3.83003,5.21933 -9.10228,8.72497 -15.19741,10.1051 -2.06094,0.46666 -6.19339,0.46345 -8.23206,-0.006 -5.11415,-1.17867 -9.169661,-3.89377 -12.461104,-8.34255 -1.924659,-2.60142 -3.083137,-5.06329 -3.760497,-7.99147 -0.127899,-0.5529 -0.264239,-1.00527 -0.302947,-1.00527 -0.09173,0 0.06633,1.08724 0.317473,2.18408 z m 6.756082,-14.08149 0.09948,2.37966 0.729482,0.30449 c 7.891941,3.29413 19.006031,-0.37649 24.377181,-8.05098 2.54042,-3.62985 3.63823,-7.13591 3.63823,-11.61934 0,-1.1554 -0.0544,-2.10073 -0.12089,-2.10073 -0.0665,0 -0.15502,0.71493 -0.19674,1.58874 -0.0417,0.8738 -0.13772,1.76232 -0.21336,1.97449 -0.0756,0.21216 -0.27911,0.8414 -0.45215,1.39831 -0.79716,2.56579 -2.93423,5.9283 -5.02319,7.90354 -4.96361,4.69337 -11.57923,6.5343 -17.38667,4.8382 -1.40121,-0.40924 -3.72425,-1.52141 -4.78751,-2.29205 -0.462201,-0.33501 -0.871168,-0.56487 -0.908818,-0.51082 -0.03765,0.0541 -0.02037,0.4827 0.0385,0.95255 0.05884,0.46985 0.151739,1.92512 0.206455,3.23394 z m 6.436123,-23.94719 c 0.39645,0 2.2719,1.47658 3.01747,2.37571 0.93292,1.12507 1.99789,2.98443 2.36855,4.13528 0.2608,0.80974 0.31461,2.48939 0.10512,3.28053 -0.20283,0.76595 -1.54173,2.5334 -2.33413,3.0812 -0.9892,0.68384 -0.5397,0.61353 0.72459,-0.11336 1.49272,-0.8582 2.50856,-1.92621 3.52866,-3.70985 0.44273,-0.77408 0.81122,-2.34783 0.86482,-3.69365 0.0502,-1.26057 0.006,-1.58937 -0.37629,-2.80008 -0.54597,-1.72885 -1.70479,-3.40051 -3.05483,-4.40673 -1.87436,-1.397012 -1.78667,-1.400211 -3.5829,0.1307 -1.36361,1.16218 -1.77271,1.72025 -1.26106,1.72025 z m 18.33094,-2.136553 c 0.45858,2.614853 3.18741,4.387843 5.84155,3.795383 1.84629,-0.41213 3.22398,-1.68533 3.76714,-3.48143 0.69297,-2.29142 -0.55523,-4.952549 -2.78106,-5.929092 -0.91205,-0.400155 -3.39522,-0.319077 -4.23127,0.138155 -1.74014,0.951672 -2.5128,2.205159 -2.73413,4.43556 -0.009,0.08991 0.0531,0.558546 0.13777,1.041424 z M 91.240333,163.25188 c 4.689184,2.91173 10.099697,4.85855 16.325687,5.87434 2.9201,0.47642 9.20203,0.48174 12.20021,0.0104 10.83606,-1.70375 19.98956,-6.78812 26.79813,-14.88518 5.22161,-6.20976 8.52046,-13.46206 9.82427,-21.59801 0.21096,-1.31633 0.25969,-2.47445 0.25996,-6.17661 0,-4.86699 -0.10854,-6.03909 -0.85905,-9.24831 -0.18672,-0.79838 -0.33949,-1.50464 -0.33949,-1.56947 0,-0.0648 1.8406,-0.11787 4.09025,-0.11787 2.24962,0 4.09024,0.026 4.09024,0.0576 0,0.0317 0.12939,0.58626 0.28755,1.23235 0.68887,2.81418 0.89826,5.03852 0.8984,9.54439 1.5e-4,5.17638 -0.19945,6.97318 -1.24029,11.16373 -0.94324,3.79761 -2.81869,8.68981 -4.24746,11.07971 -0.0776,0.12975 -0.39357,0.69145 -0.70221,1.2482 -1.22798,2.21521 -4.31181,6.29925 -6.2089,8.22273 -0.38787,0.39326 -1.02256,1.03479 -1.41041,1.42561 -3.24681,3.27156 -9.02909,7.24219 -13.32854,9.15258 -6.64642,2.95322 -12.71641,4.12708 -20.23965,3.91413 -6.20056,-0.17552 -10.4295,-1.05773 -16.08579,-3.35569 -2.042956,-0.82998 -2.615435,-1.10696 -5.141148,-2.4873 -1.570752,-0.85844 -5.500661,-3.5008 -5.500661,-3.69847 0,-0.0645 0.237993,0.0305 0.528902,0.21115 z m 61.132427,-55.43896 c 0.20331,-1.09618 1.00931,-2.31682 2.38837,-3.61701 1.2914,-1.21755 3.89652,-2.9016 5.64327,-3.64802 3.8345,-1.638559 7.28483,-4.224607 9.24819,-6.931591 0.7012,-0.966745 0.88906,-1.139764 0.88906,-0.818838 0,1.214408 -0.82712,3.604694 -1.66471,4.810818 -0.76835,1.106451 -2.01533,2.190777 -6.30423,5.481921 -2.75584,2.11474 -4.47698,3.57924 -5.159,4.38976 -0.45053,0.5354 -1.23645,2.19102 -1.32982,2.8014 -0.25961,1.69725 0.59391,2.52282 2.61014,2.52463 1.24857,0.001 1.41205,-0.0484 2.39773,-0.72653 1.04283,-0.71741 2.29359,-1.83195 4.09025,-3.64476 1.17186,-1.18241 1.96829,-1.83008 3.05874,-2.48748 1.20086,-0.72395 3.04924,-1.46569 4.06392,-1.63081 l 0.84624,-0.13771 -0.41394,0.40401 c -0.22767,0.2222 -0.79888,0.98829 -1.26939,1.70243 -1.0814,1.64144 -2.28335,3.07422 -3.77507,4.50015 -1.91527,1.83076 -3.22572,2.3768 -6.60075,2.75037 -3.3854,0.37472 -5.78845,-0.069 -7.25897,-1.34045 -0.96907,-0.83787 -1.27916,-1.35567 -1.47601,-2.46474 -0.17015,-0.95862 -0.17055,-0.91191 0.0159,-1.91755 z m 6.243,1.57924 c 0.72785,-2.13324 2.178,-3.59807 6.7073,-6.77509 1.7454,-1.2243 3.61772,-2.61201 4.16076,-3.083796 2.06136,-1.790999 4.23597,-4.644687 5.13214,-6.734773 0.18159,-0.42354 0.35447,-0.735177 0.38418,-0.692528 0.11618,0.166811 -0.23281,3.132626 -0.46995,3.993999 -0.46318,1.682189 -1.21815,3.321997 -2.14834,4.666238 -1.57803,2.28042 -2.93524,3.37482 -6.84723,5.52137 -3.84924,2.11211 -5.99848,3.70728 -6.92134,5.13703 l -0.34237,0.53043 0.004,-0.78899 c 0.003,-0.43395 0.15563,-1.2322 0.34044,-1.77389 z"
       style="fill:#000000;stroke-width:0.264583"
       id="path1" />
  </g>
</svg>
