<svg height="341.869858" viewBox="0 0 160 187.29893" width="292.50897" xmlns="http://www.w3.org/2000/svg" xmlns:xlink="http://www.w3.org/1999/xlink"><clipPath id="a"><path d="m0 0h595.276v841.89h-595.276z"/></clipPath><clipPath id="b"><path d="m0 0h595.276v841.89h-595.276z"/></clipPath><clipPath id="c"><path d="m0 0h595.276v841.89h-595.276z"/></clipPath><clipPath id="d"><path d="m0 0h595.276v841.89h-595.276z"/></clipPath><clipPath id="e"><path d="m0 0h595.276v841.89h-595.276z"/></clipPath><clipPath id="f"><path d="m0 0h595.276v841.89h-595.276z"/></clipPath><clipPath id="g"><path d="m0 0h595.276v841.89h-595.276z"/></clipPath><clipPath id="h"><path d="m0 0h595.276v841.89h-595.276z"/></clipPath><g transform="matrix(1.31980875 0 0 -1.31980875 -550.3908125 1034.93931875)"><g clip-path="url(#a)"><path d="m0 0c-1.959 2.326-2.91 5.664-2.91 9.75 0 3.894 1.109 7.183 3.159 9.501 2.046 2.312 5.036 3.643 8.731 3.643 3.01 0 5.153-.554 6.812-1.497l.168-.097-1.911-4.063-.196.116c-.776.457-2.024.895-4.171.895-3.933-.024-6.105-2.518-6.129-8.644-.006-2.945.506-5.133 1.369-6.556.869-1.431 2.064-2.112 3.542-2.115.832 0 1.362.143 1.674.288v6.852h-3.026v3.989h9.041v-14.111l-.098-.062c-1.703-.98-3.774-1.504-7.255-1.504v.211.208c3.369 0 5.339.487 6.943 1.386v13.459h-8.214v-3.165h3.022v-7.51l-.105-.064c-.372-.203-.994-.397-1.982-.397-1.618 0-2.981.792-3.898 2.321-.922 1.527-1.427 3.781-1.427 6.77 0 3.105.571 5.359 1.69 6.858 1.111 1.501 2.789 2.202 4.853 2.195 2.036 0 3.334-.381 4.18-.837l1.559 3.315c-1.564.836-3.582 1.352-6.441 1.352-7.183-.014-11.461-5.1-11.481-12.737.028-8.042 3.712-12.926 11.301-12.946v-.208-.211h-.014c-3.892 0-6.836 1.289-8.786 3.615" fill="#99d420" transform="translate(520.6762 753.6895)"/><path d="m0 0v25.243h6.71l5.042-9.145c1.51-2.675 2.985-5.847 4.151-8.712h.072c-.338 3.36-.452 6.788-.452 10.632v7.225h5.283v-25.243h-6.032l-5.197 9.802c-1.512 2.711-3.202 5.995-4.411 8.97h-.149c.187-3.39.263-6.97.263-11.12v-7.652z" fill="#99d420" transform="translate(459.4158 756.3724)"/><path d="m0 0v-.408h3.605v-23.517h.412v23.925zm-1.16-12.993c-.144.322-.295.645-.447.964.051-1.691.275-4.926.275-4.926l-8.832 16.955h-5.363v-.408h5.127l9.165-17.861h.449l-.026.235c-.165 1.643-.277 3.313-.348 5.041m-9.17 3.438c-.47.996-.922 1.996-1.306 2.958l-.059.126h-.504l.014-.218c.192-3.383.264-6.963.264-11.108v-6.128h.412v6.128c0 3.829-.064 7.18-.227 10.346.437-1.027.923-2.078 1.435-3.12-.009.341-.017.678-.029 1.016" fill="#25852d" transform="translate(474.9385 780.2825)"/><path d="m0 0c-.069 1.775-.102 3.617-.102 5.564v7.018h1.265v.408h-1.68v-7.426c0-1.598.02-3.124.071-4.605.148-.321.298-.637.446-.959m-10.763-12.251h-4.864v24.827h1.256v.411h-1.673v-25.652h5.693v1.734h-.412zm15.529 1.32v-1.32h-5.707l-5.133 9.697c-1.022 1.829-2.119 3.917-3.098 5.989.01-.337.018-.675.027-1.017.875-1.8 1.816-3.586 2.704-5.172l5.257-9.911h6.362v1.734z" fill="#00adef" transform="translate(473.7821 767.3035)"/><g fill="#231f20"><path d="m0 0c0-1.287-.261-2.489-.789-3.599-.528-1.109-1.252-2.174-2.182-3.191-.923-1.025-2.018-2.023-3.292-2.997-1.265-.978-2.327-2.372-3.815-3.386v-.112l12.228.011v-5.404h-22.762v3.9c1.878 1.286 3.674 2.554 5.372 3.807 1.701 1.242 3.194 3.025 4.48 4.166 1.275 1.133 2.292 2.24 3.052 3.32.747 1.065 1.125 2.124 1.125 3.166 0 .623-.12 1.152-.352 1.583-.232.427-.555.783-.983 1.063-.421.272-.912.475-1.479.601-.563.127-1.172.19-1.838.19-1.289 0-2.714-.21-4.271-.621-1.556-.41-3.556-1.179-5.218-1.988v5.398c.573.302 1.609.77 2.331 1.062.725.298 1.511.563 2.353.808.836.241 1.737.436 2.693.583.959.16 1.955.236 2.973.236 1.518 0 2.921-.192 4.196-.562 1.267-.38 2.361-.93 3.277-1.657.912-.718 1.621-1.622 2.135-2.686.508-1.065.766-2.291.766-3.691" transform="translate(445.8864 734.3793)"/><path d="m0 0c0-1.949-.265-3.76-.789-5.425-.535-1.669-1.318-3.111-2.352-4.322-1.044-1.216-2.342-2.175-3.888-2.87-1.55-.703-3.346-1.055-5.389-1.055-2.007 0-3.775.352-5.319 1.055-1.541.695-2.835 1.654-3.895 2.87-1.062 1.211-1.861 2.653-2.411 4.322-.542 1.665-.815 3.476-.815 5.425 0 1.946.273 3.76.815 5.424.55 1.668 1.349 3.111 2.411 4.341 1.06 1.227 2.354 2.187 3.895 2.874 1.544.687 3.312 1.032 5.319 1.032 2.043 0 3.839-.345 5.389-1.032 1.546-.687 2.844-1.647 3.888-2.874 1.034-1.23 1.817-2.673 2.352-4.341.524-1.664.789-3.478.789-5.424m-6.584 0c0 2.725-.501 4.812-1.507 6.269-1 1.462-2.446 2.194-4.327 2.194-1.896 0-3.349-.732-4.352-2.194-1.007-1.457-1.501-3.544-1.501-6.269 0-2.721.494-4.811 1.501-6.272 1.003-1.459 2.456-2.189 4.352-2.189 1.881 0 3.327.73 4.327 2.189 1.006 1.461 1.507 3.551 1.507 6.272" transform="translate(476.7211 729.3033)"/></g></g><g fill="#231f20"><path d="m0 0v15.097l-9.062-2.578v5.642l10.537 3.704h4.891v-21.865h5.835v-5.393h-21.269v5.393z" transform="translate(491.8701 721.0944)"/><path d="m0 0 .055-.076 7.812-.011v8.842h6.37v-8.842h4.675v-5.397h-4.675v-9.698h-6.37v9.698h-14.776v4.537l8.344 22.928h6.506z" transform="translate(515.2396 721.0944)"/><g clip-path="url(#b)"><path d="m0 0v2.164l-1.672 3.11h1.374l.536-1.268c.16-.382.273-.666.403-1.009h.014c.12.331.239.634.4 1.009l.534 1.268h1.344l-1.741-3.079v-2.195z" transform="translate(427.0185 706.1469)"/><path d="m0 0c-1.561 0-2.487 1.19-2.487 2.689 0 1.583 1.021 2.768 2.576 2.768 1.62 0 2.504-1.217 2.504-2.676 0-1.737-1.041-2.781-2.59-2.781zm.052.95c.811 0 1.271.759 1.271 1.798 0 .945-.445 1.756-1.271 1.756-.823 0-1.287-.795-1.287-1.79 0-.984.481-1.764 1.28-1.764h.007z" transform="translate(433.2088 706.0546)"/><path d="m0 0v-3.031c0-.914.349-1.375.955-1.375.626 0 .971.434.971 1.375v3.031h1.196v-2.964c0-1.625-.826-2.402-2.21-2.402-1.335 0-2.107.748-2.107 2.421v2.945z" transform="translate(438.2256 711.4205)"/></g><path d="m0 0h-1.426v1h4.064v-1h-1.443v-4.273h-1.195z" transform="translate(443.8455 710.4194)"/><path d="m0 0v-2.031h1.97v2.031h1.186v-5.274h-1.186v2.196h-1.97v-2.196h-1.193v5.274z" transform="translate(448.7608 711.4205)"/></g><g clip-path="url(#c)"><path d="m0 0c-1.564 0-2.485 1.19-2.485 2.689 0 1.583 1.019 2.768 2.567 2.768 1.628 0 2.51-1.217 2.51-2.676 0-1.737-1.039-2.781-2.586-2.781zm.057.95c.801 0 1.266.759 1.266 1.798 0 .945-.446 1.756-1.266 1.756-.824 0-1.292-.795-1.292-1.79 0-.984.483-1.764 1.283-1.764h.009z" fill="#231f20" transform="translate(457.418 706.0546)"/></g><path d="m0 0h1.187v-4.276h2.103v-.998h-3.29z" fill="#231f20" transform="translate(461.2491 711.4205)"/><g clip-path="url(#d)" fill="#231f20"><path d="m0 0v2.164l-1.67 3.11h1.369l.533-1.268c.168-.382.283-.666.414-1.009h.011c.117.331.241.634.397 1.009l.536 1.268h1.337l-1.734-3.079v-2.195z" transform="translate(466.9149 706.1469)"/><path d="m0 0c-.029.638-.051 1.393-.051 2.173h-.01c-.177-.676-.4-1.43-.605-2.048l-.638-2.059h-.932l-.563 2.036c-.172.624-.349 1.372-.478 2.071h-.014c-.029-.717-.062-1.529-.088-2.192l-.106-2.001h-1.104l.338 5.279h1.593l.52-1.772c.166-.602.325-1.262.44-1.881h.032c.142.614.325 1.304.505 1.896l.557 1.757h1.57l.28-5.279h-1.161z" transform="translate(475.3322 708.1646)"/><path d="m0 0c.375.067.892.114 1.619.114.737 0 1.268-.143 1.619-.43.339-.26.559-.701.559-1.217 0-.526-.166-.966-.477-1.25-.413-.381-1.018-.559-1.727-.559-.157 0-.295.008-.409.035v-1.896h-1.184zm1.184-2.396c.105-.021.231-.026.405-.026.633 0 1.022.317 1.022.85 0 .485-.324.779-.929.779-.246 0-.409-.017-.498-.041z" transform="translate(477.9345 711.3498)"/></g><path d="m482.945 706.145h1.19v5.274h-1.19z" fill="#231f20"/><g clip-path="url(#e)" fill="#231f20"><path d="m0 0c-.209-.105-.709-.234-1.346-.234-1.822 0-2.768 1.144-2.768 2.656 0 1.809 1.283 2.806 2.888 2.806.618 0 1.084-.13 1.3-.242l-.251-.933c-.243.1-.572.198-1.003.198-.947 0-1.679-.577-1.679-1.766 0-1.055.63-1.709 1.686-1.709.366 0 .753.063.999.164z" transform="translate(489.4448 706.2845)"/><path d="m0 0c-.377-.124-1.069-.301-1.767-.301-.969 0-1.664.246-2.149.704-.478.471-.741 1.152-.741 1.932.009 1.755 1.28 2.76 3.011 2.76.682 0 1.211-.134 1.469-.253l-.252-.962c-.288.133-.64.223-1.223.223-.996 0-1.756-.565-1.756-1.705 0-1.095.692-1.724 1.673-1.724.263 0 .485.017.582.056v1.115h-.823v.934h1.976z" transform="translate(496.8716 706.3859)"/><path d="m0 0-.374-1.353h-1.233l1.613 5.281h1.561l1.649-5.281h-1.292l-.409 1.353zm1.338.888-.331 1.125c-.083.31-.175.706-.253 1.021h-.026c-.07-.319-.16-.719-.236-1.021l-.324-1.125z" transform="translate(499.4677 707.5017)"/><path d="m0 0c-.018.638-.043 1.393-.043 2.173h-.017c-.169-.676-.392-1.43-.594-2.048l-.642-2.059h-.934l-.569 2.036c-.165.624-.34 1.372-.472 2.071h-.022c-.024-.717-.049-1.529-.081-2.192l-.102-2.001h-1.102l.335 5.279h1.59l.515-1.772c.177-.602.329-1.262.445-1.881h.037c.144.614.321 1.304.496 1.896l.559 1.757h1.567l.289-5.279h-1.172z" transform="translate(508.2957 708.1646)"/></g><path d="m0 0h-1.938v-1.256h2.169v-.979h-3.365v5.279h3.256v-.981h-2.06v-1.097h1.938z" fill="#231f20" transform="translate(514.0353 708.3793)"/><g clip-path="url(#f)"><path d="m0 0c.311-.162.81-.326 1.321-.326.551 0 .838.226.838.584 0 .315-.247.512-.886.729-.876.316-1.456.796-1.456 1.575 0 .906.761 1.584 1.995 1.584.612 0 1.042-.117 1.347-.265l-.252-.952c-.211.099-.597.249-1.108.249-.515 0-.767-.245-.767-.513 0-.331.289-.483.98-.75.936-.344 1.364-.828 1.364-1.584 0-.885-.672-1.638-2.121-1.638-.603 0-1.206.164-1.501.331z" fill="#231f20" transform="translate(515.5672 707.3619)"/><path d="m0 0v4.122c2.099.373 3.831 2.062 3.831 5.09v23.766h5.978v-23.178c0-6.303-4.209-9.507-9.809-9.8" fill="#25852d" transform="translate(479.5695 744.5085)"/></g><path d="m492.029 774.77h5.972v-26.207h-5.972z" fill="#ec008c"/><g clip-path="url(#g)"><path d="m0 0-10.034 5.146c-.107.061-.172.121-.323.088-.021-.006-13.577-5.952-13.629-5.991l-.114-.024-.043-.016v-27.403l5.615-.971v12.594c-.02.633-.023 1.218-.023 1.776 0 2.84.192 4.84.721 6.119.54 1.265 1.328 1.841 2.715 1.997.16.013.317.025.463.025 1.698-.012 2.577-.997 3.097-2.236.505-1.225.588-2.682.588-3.422 0-.301-.014-.481-.014-.481v-15.464l.047-.009 9.525-2.254v27.522c.009 1.058.461 1.884 1.43 2.562l.259.18.074.054zm-1.93-3.013v-26.847l-8.522 2.014v15.031c.003.07.008.224.008.497 0 .777-.077 2.283-.628 3.631-.541 1.339-1.636 2.556-3.556 2.554h-.024c-.165 0-.342-.011-.52-.037-1.518-.136-2.57-.894-3.136-2.313-.581-1.41-.761-3.452-.771-6.318 0-.56.013-1.152.024-1.783v-11.957l-4.57.783v26.577l13.33 5.876 9.692-4.946s-1.438-.884-1.327-2.743v-.019" fill="#f68712" transform="translate(522.142 775.0317)"/><path d="m0 0c-.006.017-4.019 2.309-8.039 4.622-2.006 1.157-4.011 2.316-5.518 3.192-.749.437-1.38.803-1.818 1.055-.22.136-.386.237-.508.307-.057.036-.106.064-.124.079l-.008.009c-.012.01-.031.026-.063.042-.055.021-.097.023-.12.021h-.017c-.009.002-.031 0-.061-.009-.017-.011-.02-.007-.02-.007-.027-.013-.08-.037-.127-.105-.099-.069-.722-.467-1.734-1.071-1.151-.69-3.059-1.685-5.279-2.994l-.287-.164-.073-.049.337-.233.051-.033c.855-.609 1.246-1.336 1.252-2.273v-20.937l6.433-4.126v15.376c0 .017-.004.163-.009.429 0 .763.065 2.442.563 3.898.51 1.462 1.679 2.545 3.311 2.545.189 0 .4-.019.623-.055 3.171-.52 4.909-3.751 4.918-9.66 0-.216-.006-.437-.006-.662l.056-.003h-.059v-15.101l6.469 3.792v22.044zm-16.252-6.869c0-.273.005-.442.005-.442v-14.395l-5.385 3.446v20.649.018c0 .982-.418 1.832-1.199 2.481 2.124 1.253 3.963 2.205 5.058 2.863.571.342 1.004.609 1.294.792.127.08.227.146.298.2.374-.231 1.249-.743 2.47-1.445 4.222-2.457 12.207-7.034 13.32-7.682v-21.574l-5.41-3.019v14.168c.007.231.012.444.012.668-.005.013-.005.027-.005.042.005 5.94-1.804 9.539-5.347 10.14-.257.044-.491.059-.717.059h-.007c-1.937 0-3.287-1.361-3.802-2.902-.531-1.554-.585-3.275-.585-4.067" fill="#117fcd" transform="translate(445.5787 774.452)"/><path d="m0 0c-7.701 0-11.5 5.045-11.5 13.161 0 7.7 4.382 12.935 11.677 12.935 2.988 0 5.095-.552 6.718-1.474l-1.735-3.689c-.815.48-2.104.922-4.277.922-4.051 0-6.338-2.69-6.338-8.842 0-5.935 2.028-8.888 5.124-8.888.96 0 1.549.185 1.88.374v7.185h-3.024v3.576h8.379v-13.785c-1.66-.963-3.433-1.475-6.904-1.475" fill="#f68712" transform="translate(530.97 749.1761)"/><path d="m0 0v.206l.195.052-.195-.052v-.206h-.151l-1.619 5.637h-7.198l-1.693-5.623h-5.692l8.362 25.432h6.028l8.298-25.446zm-15.793.422h4.823l1.704 5.618h7.81l1.61-5.632h5.624l-8.037 24.634h-5.44l-8.094-24.62zm7.277 8.587 2.393 8.379c.502 1.763.649 2.977.649 2.977l.019.178h.181.259l.015-.183c.005-.006.108-1.251.571-2.974l2.284-8.377zm2.779 8.271-2.242-7.868h5.3l-2.14 7.868.197.051-.197-.051c-.204.767-.344 1.447-.436 1.962-.105-.515-.259-1.185-.482-1.962" fill="#f68712" transform="translate(458.1224 751.3055)"/><path d="m0 0-1.547 5.423h-7.633l-1.621-5.423h-5.348l8.267 25.148h5.823l8.208-25.148zm-4.611 17.102c-.475 1.765-.586 3.058-.586 3.058h-.073s-.151-1.247-.663-3.058l-2.363-8.253h5.937z" fill="#00adef" transform="translate(456.6105 752.3275)"/><path d="m0 0 .169.029c2.017.365 3.653 1.944 3.667 4.889v23.884h6.381v-23.295c.014-6.411-4.33-9.741-10-10.012l-.217-.014zm2.881-6.156h-.203zm-2.464 2.077c5.417.376 9.378 3.467 9.386 9.586v22.885h-5.552v-23.474c.006-3.025-1.721-4.821-3.834-5.262z" fill="#f68712" transform="translate(480.7167 747.5897)"/></g><path d="m0 0v-48.917h50.219v42.84l-6.238 6.077z" fill="#fff" transform="translate(425.6836 701.5228)"/><path d="m0 0h-43.978v-48.911h9.469v-9.133l9.38 9.133h31.373v42.834z" fill="#fff" transform="translate(523.0002 701.4814)"/><path d="m0 0h49.524v42.36l-6.033 5.882h-43.491zm50.218-.674h-50.909v49.591h44.466l6.443-6.281v-43.31z" fill="#231f20" transform="translate(425.988 652.943)"/><path d="m0 0h9.465v-8.656l8.888 8.656h31.176v42.353l-6.041 5.878h-43.488zm8.773-10.284v9.607h-9.467v49.588h44.469l6.447-6.278v-43.31h-31.579z" fill="#231f20" transform="translate(479.3264 652.9077)"/><g clip-path="url(#h)"><path d="m0 0h4.209l-2.104 6.116zm-2.55 21.735c0 2.186 1.809 3.942 4.056 3.942h1.196c2.25 0 4.054-1.756 4.057-3.942h-1.624c0 1.369-1.027 2.467-2.433 2.467h-1.196c-1.404 0-2.434-1.098-2.435-2.467v-5.935c.001-1.368 1.031-2.458 2.435-2.458h1.205c1.397 0 2.424 1.09 2.424 2.458v1.781h-2.325v1.581h3.949v-3.362c-.003-2.183-1.807-3.937-4.048-3.937h-1.205c-2.247 0-4.056 1.754-4.056 3.937zm-12.794-22.822c-.008-2.177-1.8-3.931-4.051-3.931h-5.259v13.501h5.259c2.251-.004 4.043-1.757 4.051-3.941v-5.629zm-3.647 19.226v-6.117h-1.624v6.117l-4.488 7.383h1.903l3.394-5.768h.008l3.392 5.768h1.9zm14.678-23.157h-1.914l-5.774 10.478v-10.478h-1.627v13.501h1.916l5.78-10.476v10.476h1.619zm0 20.818c-.01-2.183-1.805-3.937-4.048-3.937h-1.215c-2.242 0-4.044 1.754-4.052 3.937v5.938c.008 2.183 1.81 3.939 4.052 3.939h1.215c2.243 0 4.038-1.756 4.048-3.939zm10.056-20.818-1.089 3.542h-5.122l-1.079-3.542h-1.606l4.413 13.501h1.693l4.415-13.501zm-25.138 12.023h-3.639v-10.545h3.639c1.402 0 2.428 1.098 2.43 2.453v5.629c-.002 1.372-1.028 2.463-2.43 2.463m11.034 17.197h-1.215c-1.399 0-2.425-1.098-2.425-2.464v-5.938c0-1.368 1.026-2.458 2.425-2.458h1.215c1.4 0 2.429 1.09 2.429 2.458v5.938c0 1.366-1.029 2.464-2.429 2.464" fill="#231f20" transform="translate(513.0265 666.7878)"/><path d="m0 0c-3.388 0-6.166-2.643-6.424-5.998.35-.032.707-.09 1.055-.185.166 2.851 2.504 5.107 5.369 5.107 2.973 0 5.384-2.431 5.384-5.427 0-3.003-2.411-5.433-5.384-5.433-.195 0-.388.007-.577.029-.377.038-.744.118-1.096.232-1.906.63-3.344 2.307-3.653 4.364-.352.109-.72.196-1.095.235.238-2.776 2.199-5.053 4.805-5.729.33-.095.689-.149 1.044-.185.187-.013.381-.024.572-.024 3.559 0 6.45 2.912 6.45 6.511 0 3.589-2.891 6.503-6.45 6.503" fill="#ee2049" transform="translate(464.6281 686.2264)"/><path d="m0 0c-.169-2.845-2.51-5.102-5.375-5.102-2.972 0-5.385 2.43-5.385 5.435 0 2.998 2.413 5.432 5.385 5.432.194 0 .387-.017.576-.038.382-.034.745-.118 1.096-.23 1.908-.631 3.352-2.307 3.648-4.364.353-.114.724-.194 1.104-.233-.238 2.773-2.202 5.051-4.802 5.725-.338.09-.692.152-1.049.184-.186.016-.381.027-.573.027-3.564 0-6.447-2.917-6.447-6.503 0-3.601 2.883-6.512 6.447-6.512 3.393 0 6.172 2.643 6.424 5.999-.357.031-.708.088-1.049.18" fill="#00a650" transform="translate(463.0178 673.4188)"/><path d="m0 0c-.258 3.357-3.036 5.995-6.432 5.995-3.56 0-6.444-2.914-6.444-6.505 0-3.597 2.884-6.502 6.444-6.502.186 0 .369.004.551.017-.009.171-.023.339-.023.513 0 .193.014.383.032.561-.191-.013-.372-.02-.56-.02-2.965 0-5.375 2.428-5.375 5.431 0 2.998 2.41 5.435 5.375 5.435 2.865 0 5.208-2.258 5.383-5.101.002-.112.008-.22.008-.334 0-.274-.025-.539-.06-.797-.302-2.067-1.757-3.76-3.678-4.373-.036-.261-.062-.53-.062-.802 0-.113.004-.22.016-.334 2.609.671 4.579 2.953 4.82 5.731.014.2.025.381.025.575 0 .169-.011.338-.02.51" fill="#231f20" transform="translate(457.0996 680.2313)"/><path d="m0 0c.355-.039.711-.098 1.054-.195" fill="#100f0d" transform="translate(444.236 680.2281)"/><path d="m0 0c-.168-2.857-2.507-5.113-5.378-5.113-2.973 0-5.379 2.43-5.379 5.434 0 2.999 2.406 5.432 5.379 5.432.207 0 .409-.016.612-.043.38-.04.75-.121 1.098-.239 1.892-.64 3.304-2.303 3.616-4.333.35-.125.721-.208 1.093-.248-.238 2.763-2.178 5.026-4.758 5.714-.343.089-.698.16-1.054.194-.2.011-.4.027-.607.027-3.558 0-6.446-2.922-6.446-6.504 0-3.596 2.888-6.508 6.446-6.508 3.389 0 6.169 2.644 6.427 5.993-.36.038-.709.102-1.049.194" fill="#f9a91f" transform="translate(449.0068 673.4304)"/><path d="m0 0c-.257 3.357-3.036 5.995-6.424 5.995-3.561 0-6.45-2.914-6.45-6.505 0-3.597 2.889-6.502 6.45-6.502.18 0 .367.004.547.017-.017.171-.024.339-.024.513 0 .193.007.383.024.561-.177-.013-.363-.02-.547-.02-2.975 0-5.388 2.428-5.388 5.431 0 2.998 2.413 5.435 5.388 5.435 2.862 0 5.204-2.258 5.369-5.101.012-.112.015-.22.015-.334 0-.274-.021-.539-.061-.797-.303-2.067-1.751-3.76-3.678-4.373-.04-.261-.055-.53-.055-.802 0-.113 0-.22.005-.334 2.617.671 4.586 2.953 4.826 5.731.014.2.026.381.026.575 0 .169-.008.338-.023.51" fill="#117fcd" transform="translate(443.0842 680.2313)"/><path d="m0 0-1.455-.003.12-.408 1.035.005 1.327-4.616h.42zm-2.968 11.342c-.465 1.724-.566 2.972-.569 2.977l-.022.175h-.441l-.013-.17s-.101-1.001-.524-2.568l.206-.759.061.243c.221.768.374 1.444.479 1.959.086-.515.228-1.199.437-1.959l2.136-7.871h-5.3l.131.456h-.42l-.245-.864h6.369zm1.23 7.657-.138.403h-4.651l-8.033-24.428h.429l7.898 24.025h4.495z" fill="#7a1d90" transform="translate(456.6352 757.349)"/><path d="m0 0c-.009.01-15.155 9.495-15.272 9.571-.063.03-.103.061-.132.08l-.016.013c-.014.016-.049.036-.08.041-.032.023-.07.025-.087.025h-.007-.016-.02l-.01-.011c-.003 0-.017 0-.03-.004-.016-.006-.023-.01-.023-.01-.025-.005-.085-.032-.124-.097-.101-.079-.759-.495-1.825-1.13-1.194-.72-2.953-1.759-5.28-3.124l-.283-.165-.081-.05.349-.228.027-.019c.912-.639 1.331-1.403 1.337-2.395v-21.765l5.369-4.381s-.012 16.37-.012 16.389l.009.069c-.014.954.098 2.516.61 4.017.533 1.539 1.485 2.743 3.195 2.743.211 0 .427-.022.672-.06 3.328-.549 5.238-3.85 5.25-10.021 0-.225 0-.45-.012-.682l.059-.003h-.059v-14.9l6.627 3.872v22.152zm-12.402.096c-2.015 0-3.102-1.502-3.644-3.111-.549-1.623-.684-3.412-.695-4.243 0-.282.023-.457.023-.457v-14.751l-4.337 3.49v21.473.015c0 1.031-.438 1.917-1.266 2.587l6.743 4.037 15.192-9.517v-21.544l-5.583-3.257v13.982c.011.229.011.463.011.688v.04c.001 6.203-1.986 9.883-5.694 10.504-.264.042-.504.064-.75.064" fill="#99d420" transform="translate(440.688 773.8506)"/><path d="m0 0c-1.675 2.285-4.385 3.706-7.487 4.039-.441.052-.87.077-1.296.077h-.048-.018c-1.791 0-3.409-.497-4.625-1.347-1.823-1.266-2.641-3.022-3.07-4.473-.426-1.47-.48-2.781-.483-3.503 0-.229.003-.401.012-.507v-11.395l5.208-3.125v14.666l-.012.078v.004c0 .036-.006.136-.006.279v.014.012.046c-.005.633.141 2.106.626 3.075.252.516.559.882.885 1.101.354.223.669.371 1.52.384h.006c.182 0 .4-.009.643-.03 1.892-.266 2.911-.846 3.832-2.023.871-1.149 1.492-3.086 1.492-5.827v-.024c0-.198-.001-.403-.011-.608v-.005-.027-13.188h5.208v13.145c.006.229.006.46.006.683 0 3.344-.701 6.218-2.382 8.479" fill="#ec008c" transform="translate(438.0565 772.6918)"/><path d="m0 0c-.243.041-.484.057-.715.057h-.008c-1.733 0-3.057-1.134-3.62-2.485l.54-.098c.533 1.226 1.648 2.055 3.088 2.058.198 0 .406-.016.63-.053 3.17-.52 4.931-3.748 4.945-9.651 0-.221-.008-.442-.008-.663v-13.273h.523v13.269c.005.225.009.442.009.667v.037c0 5.944-1.828 9.534-5.384 10.135m-10.463.441-.243-.231c-.147-.128-.131-.136-.263-.27l-.018-.013.038-18.496 2.787-1.82v.628l-2.259 1.48-.042 18.722z" fill="#7a1d90" transform="translate(434.41 774.4882)"/><path d="m0 0c-.265.043-.515.065-.76.065h-.003c-2.036 0-3.143-1.507-3.688-3.114-.558-1.62-.626-3.418-.627-4.242 0-.285.012-.46.012-.46v-12.31l.527-.321v12.641c0 .015-.013.155-.013.396v.054.022c0 .802.078 2.542.596 4.044.543 1.534 1.458 2.761 3.196 2.761.209 0 .435-.014.675-.058 1.317-.212 2.406-.882 3.245-1.949.45-.239.823-.541 1.179-.919-.959 1.888-2.4 3.07-4.339 3.39" fill="#25852d" transform="translate(429.0363 773.8815)"/><path d="m0 0c-1.667 2.28-4.374 3.703-7.462 4.039-.445.053-.885.079-1.297.079h-.052-.012c-1.797 0-3.39-.498-4.617-1.349-1.814-1.264-2.627-3.022-3.061-4.468-.423-1.476-.475-2.788-.478-3.516 0-.227.003-.396.012-.499v-14.987h5.189v15.133l-.006.073v.009c-.003.038-.003.132-.003.271v.021.015.038c-.011.638.137 2.11.621 3.076.251.521.563.887.88 1.104.357.227.671.373 1.516.391h.005c.183 0 .398-.015.641-.041 1.888-.256 2.903-.843 3.825-2.017.868-1.145 1.491-3.086 1.481-5.823v-.025c0-.204 0-.402-.001-.613v-.007l-.005-.025v-13.188h5.191v13.144c.008.235.017.464.017.689-.009 3.335-.708 6.22-2.384 8.476" fill="#00adef" transform="translate(516.1593 771.6168)"/><path d="m0 0c-.58-1.411-.764-3.454-.767-6.314 0-.566.003-1.156.023-1.785v-7.532h.521v7.535c-.012.636-.02 1.221-.02 1.782 0 2.837.198 4.837.724 6.112.04.084.077.154.11.233.006.281.035.673.096 1.112-.275-.319-.502-.693-.687-1.143" fill="#00a650" transform="translate(503.7617 766.5622)"/><path d="m0 0c-.194-.456-.372-.934-.524-1.425v-10.292c.152-.522.33-1.01.524-1.49z" fill="#ec008c" transform="translate(520.684 768.6661)"/><path d="m0 0c-.223 1.198-.348 2.505-.351 3.908.003.86.063 1.681.174 2.472-.062.409-.128.807-.22 1.195-.235-1.149-.363-2.372-.363-3.667 0-2.093.259-3.986.76-5.653z" fill="#2eaa4a" transform="translate(518.5262 759.5606)"/><path d="m0 0v1.316h-1.732v-.414h1.32v-.902zm5.192 3.571v-12.552c-1.604-.898-3.574-1.386-6.942-1.386-2.901.006-5.226.725-7.001 2.053.46-.512.958-.972 1.515-1.377 1.541-.713 3.369-1.09 5.472-1.09h.014c3.48 0 5.552.52 7.254 1.499l.099.062v12.791zm-8.599-10.025c-.224.207-.436.442-.63.714-.614.342-1.151.877-1.597 1.617-.858 1.423-1.367 3.612-1.362 6.556.023 6.123 2.191 8.62 6.127 8.644 2.147 0 3.396-.437 4.171-.895l.197-.116 1.664 3.547c-.128.043-.26.091-.395.131l-1.457-3.094c-.849.455-2.144.839-4.18.839-2.07.004-3.737-.697-4.852-2.197-1.12-1.5-1.691-3.754-1.691-6.859 0-2.984.505-5.243 1.428-6.77.652-1.088 1.536-1.794 2.577-2.117" fill="#231f20" transform="translate(531.2269 760.8602)"/><path d="m0 0s-.077.051-.189.022c0 0-11.63-6.409-11.655-6.419l-.138-.04-.039-.016v-27.612l5.446-.968v11.336c-.012.631-.015 1.226-.015 1.781 0 2.84.193 4.837.73 6.112.539 1.274 1.338 1.845 2.735 2.001.171.019.321.025.475.025 1.707-.011 2.593-.993 3.124-2.235.516-1.231.593-2.686.593-3.419 0-.303-.012-.485-.012-.485v-14.453l.046-.009 9.62-2.253v27.969c.005 1.061.458 1.886 1.44 2.562l.269.186.075.051c0 0-12.482 5.846-12.505 5.864m1.538-19.88v.003c.003-.003.017-.003.034-.023.003-.009.006-.017.006-.024-.006.028-.023.035-.04.044m8.653 11.241v-.934-26.395l-8.607 2.019v14.011.004c.002.067.011.226.011.502 0 .769-.077 2.277-.638 3.624-.549 1.343-1.652 2.561-3.602 2.561-.005 0-.014-.003-.014-.003-.165 0-.34-.013-.518-.031-1.537-.143-2.592-.897-3.173-2.316-.585-1.41-.766-3.453-.771-6.319 0-.558.005-1.157.023-1.786v-10.706l-4.398.785v26.788l11.359 6.286 11.564-5.428s-1.363-.949-1.236-2.662m-10.389 8.664h.009z" fill="#25852d" transform="translate(509.4861 782.5809)"/></g></g></svg>