<?xml version="1.0" encoding="utf-8"?>
<!-- Generator: Adobe Illustrator 23.0.1, SVG Export Plug-In . SVG Version: 6.00 Build 0)  -->
<svg version="1.1"
	 id="svg2" inkscape:version="0.48.5 r10040" sodipodi:docname="paralympics_spectator_guide_book_ko.svg" xmlns:cc="http://creativecommons.org/ns#" xmlns:dc="http://purl.org/dc/elements/1.1/" xmlns:inkscape="http://www.inkscape.org/namespaces/inkscape" xmlns:rdf="http://www.w3.org/1999/02/22-rdf-syntax-ns#" xmlns:sodipodi="http://sodipodi.sourceforge.net/DTD/sodipodi-0.dtd" xmlns:svg="http://www.w3.org/2000/svg"
	 xmlns="http://www.w3.org/2000/svg" xmlns:xlink="http://www.w3.org/1999/xlink" x="0px" y="0px" width="353.4px" height="300px"
	 viewBox="0 0 353.4 300" enable-background="new 0 0 353.4 300" xml:space="preserve">
<sodipodi:namedview  bordercolor="#666666" borderopacity="1" fit-margin-bottom="0" fit-margin-left="0" fit-margin-right="0" fit-margin-top="0" gridtolerance="10" guidetolerance="10" id="namedview4" inkscape:current-layer="g10" inkscape:cx="201.54845" inkscape:cy="78.390777" inkscape:pageopacity="0" inkscape:pageshadow="2" inkscape:window-height="672" inkscape:window-maximized="1" inkscape:window-width="1280" inkscape:window-x="0" inkscape:window-y="1" inkscape:zoom="1.471921" objecttolerance="10" pagecolor="#ffffff" showgrid="false">
	</sodipodi:namedview>
<g>
	<path fill="#AA272F" d="M143.8,276.5c-1.6,0.7-26.7,2.5-24.1-18.9c2.6-21.4,40.7-36.4,47.8-33.7c-9.5,4.8-29.2,8.7-36.5,30.4
		C123.8,275.8,143.7,276.2,143.8,276.5"/>
	<path fill="#00549F" d="M182.6,287.8c-0.5,1.7-15.2,22-29.9,6.3c-14.7-15.7-1.7-54.6,4.9-58.3c-2.4,10.4-12.1,27.9-0.2,47.6
		C169.2,302.7,182.3,287.7,182.6,287.8"/>
	<path fill="#008542" d="M214.6,255.4c1.5,0.9,17.3,20.4-1.7,30.5c-19,10.1-53.1-12.5-55-19.8c9.4,5,23.9,18.9,45.9,12.5
		C225.5,272.2,214.4,255.7,214.6,255.4"/>
</g>
<g>
	<polygon points="105.6,0 105.6,56.3 111,63.8 116.4,56.3 116.4,0 	"/>
	<polygon fill="#FCB131" points="48.6,49.2 102.2,66.6 111,63.8 105.6,56.3 52,38.9 	"/>
	<polygon fill="#EE334E" points="77.8,118.6 111,73 111,63.8 102.2,66.6 69.1,112.2 	"/>
	<polygon fill="#0081C8" points="152.9,112.2 119.7,66.6 111,63.8 111,73 144.1,118.6 	"/>
	<polygon fill="#00A651" points="170,38.9 116.4,56.3 111,63.8 119.7,66.6 173.3,49.2 	"/>
	<polygon fill="#FCB131" points="223.5,0 223.5,56.3 228.9,63.8 234.3,56.3 234.3,0 	"/>
	<polygon fill="#00A651" points="166.6,49.2 220.2,66.6 228.9,63.8 223.5,56.3 169.9,38.9 	"/>
	<polygon fill="#EE334E" points="195.8,118.6 228.9,73 228.9,63.8 220.2,66.6 187,112.2 	"/>
	<polygon points="270.8,112.2 237.7,66.6 228.9,63.8 228.9,73 262.1,118.6 	"/>
	<polygon fill="#0081C8" points="287.9,38.9 234.3,56.3 228.9,63.8 237.7,66.6 291.3,49.2 	"/>
</g>
<g>
	<g>
		<path d="M67,193.2h5.3c0.8,0,1.5,0.1,2.2,0.3c0.7,0.2,1.2,0.4,1.7,0.8c0.5,0.3,0.8,0.8,1.1,1.3c0.3,0.6,0.4,1.2,0.4,2
			c0,0.7-0.1,1.4-0.4,2c-0.3,0.6-0.6,1.1-1.1,1.4c-0.5,0.4-1,0.7-1.6,0.9c-0.6,0.2-1.3,0.3-2,0.3h-3.8v5.7H67V193.2z M72.1,200.7
			c1.1,0,2-0.3,2.7-0.8c0.7-0.5,1-1.3,1-2.2c0-1-0.3-1.8-1-2.3c-0.6-0.5-1.6-0.7-2.8-0.7h-3.4v6.1H72.1z"/>
		<path d="M84.4,193.2h2l5.7,14.6h-1.8l-1.7-4.3h-6.5l-1.6,4.3h-1.7L84.4,193.2z M82.6,202.1h5.5l-2.5-6.6c0-0.1-0.1-0.3-0.2-0.5
			c-0.1-0.2-0.1-0.3-0.1-0.5c0,0.1-0.1,0.3-0.1,0.5s-0.1,0.3-0.1,0.5L82.6,202.1z"/>
		<path d="M94.4,193.2h5.2c1.7,0,3.1,0.4,3.9,1.1c0.9,0.7,1.3,1.8,1.3,3.1c0,0.5-0.1,1-0.3,1.4c-0.2,0.4-0.4,0.8-0.7,1.2
			c-0.3,0.4-0.6,0.7-1,0.9c-0.4,0.3-0.8,0.5-1.3,0.6c0.1,0.1,0.2,0.2,0.3,0.3c0.1,0.1,0.2,0.3,0.4,0.5l3.6,5.4h-2l-3.8-5.9h-3.8v5.9
			h-1.7V193.2z M99.5,200.5c1.2,0,2-0.3,2.6-0.8c0.6-0.5,0.9-1.3,0.9-2.2c0-0.9-0.3-1.6-0.9-2.1c-0.6-0.5-1.4-0.7-2.6-0.7h-3.5v5.8
			H99.5z"/>
		<path d="M112.5,193.2h2l5.7,14.6h-1.8l-1.7-4.3h-6.5l-1.6,4.3h-1.7L112.5,193.2z M110.7,202.1h5.5l-2.5-6.6c0-0.1-0.1-0.3-0.1-0.5
			c-0.1-0.2-0.1-0.3-0.1-0.5c0,0.1-0.1,0.3-0.1,0.5c0,0.2-0.1,0.3-0.1,0.5L110.7,202.1z"/>
		<polygon points="122.5,193.2 124.1,193.2 124.1,206.3 132.3,206.3 132.3,207.8 122.5,207.8 		"/>
		<path d="M137.8,202.3l-5.5-9.1h2l4,6.8c0.1,0.2,0.2,0.3,0.3,0.5c0.1,0.2,0.2,0.3,0.2,0.5c0-0.2,0.1-0.3,0.2-0.5
			c0.1-0.2,0.2-0.3,0.3-0.5l3.8-6.8h1.8l-5.4,9.1v5.5h-1.7V202.3z"/>
		<path d="M146.8,193.2h2.6l4.1,11.4c0.1,0.2,0.1,0.4,0.2,0.6c0.1,0.3,0.1,0.5,0.2,0.7c0.1-0.2,0.1-0.5,0.2-0.7
			c0.1-0.3,0.1-0.5,0.2-0.7l4-11.3h2.6v14.6h-1.7V195c0,0.2-0.1,0.4-0.1,0.6c0,0.2-0.1,0.4-0.2,0.5l-4.1,11.7H153l-4.3-11.8
			c-0.1-0.3-0.2-0.6-0.3-1v12.8h-1.6V193.2z"/>
		<path d="M164.4,193.2h5.3c0.8,0,1.5,0.1,2.2,0.3c0.7,0.2,1.2,0.4,1.7,0.8c0.5,0.3,0.8,0.8,1.1,1.3c0.2,0.6,0.4,1.2,0.4,2
			c0,0.7-0.1,1.4-0.4,2c-0.3,0.6-0.6,1.1-1.1,1.4c-0.5,0.4-1,0.7-1.6,0.9c-0.6,0.2-1.3,0.3-2,0.3h-3.8v5.7h-1.7V193.2z M169.6,200.7
			c1.1,0,2-0.3,2.7-0.8c0.7-0.5,1-1.3,1-2.2c0-1-0.3-1.8-1-2.3c-0.7-0.5-1.6-0.7-2.8-0.7h-3.4v6.1H169.6z"/>
		<rect x="178.3" y="193.2" width="1.6" height="14.6"/>
		<path d="M190.3,208.1c-0.9,0-1.8-0.2-2.6-0.5c-0.8-0.3-1.6-0.8-2.2-1.5c-0.6-0.6-1.1-1.4-1.5-2.3c-0.4-0.9-0.6-2-0.6-3.1v-0.4
			c0-1.2,0.2-2.3,0.6-3.2c0.4-0.9,0.9-1.7,1.6-2.3c0.6-0.6,1.4-1.1,2.2-1.4c0.8-0.3,1.7-0.5,2.5-0.5c1,0,1.9,0.1,2.6,0.3
			c0.7,0.2,1.3,0.5,1.8,0.7l-0.6,1.4c-0.5-0.3-1-0.5-1.6-0.7c-0.6-0.2-1.4-0.3-2.1-0.3c-0.7,0-1.3,0.1-2,0.4
			c-0.6,0.2-1.2,0.6-1.7,1.1c-0.5,0.5-0.9,1.1-1.2,1.8c-0.3,0.7-0.5,1.6-0.5,2.5v0.4c0,0.9,0.1,1.8,0.4,2.5c0.3,0.7,0.7,1.4,1.1,1.9
			c0.5,0.5,1,0.9,1.7,1.1c0.7,0.3,1.3,0.4,2,0.4c0.9,0,1.7-0.1,2.4-0.3c0.7-0.2,1.3-0.5,1.9-0.9l0.6,1.3c-0.6,0.4-1.2,0.7-2.1,1
			C192.4,207.9,191.4,208.1,190.3,208.1"/>
		<path d="M208.4,206.6c0.9,0,1.6-0.1,2.3-0.3c0.6-0.2,1.1-0.4,1.4-0.7v-4h-3.7v-1.4h5.3v6c-0.5,0.5-1.2,1-2.1,1.3
			c-0.9,0.3-2,0.5-3.2,0.5c-0.9,0-1.8-0.2-2.6-0.5c-0.8-0.3-1.6-0.8-2.2-1.4c-0.6-0.6-1.2-1.4-1.5-2.3c-0.4-0.9-0.6-2-0.6-3.2v-0.3
			c0-1.2,0.2-2.3,0.6-3.2c0.4-0.9,1-1.7,1.6-2.3c0.7-0.6,1.4-1.1,2.2-1.4c0.8-0.3,1.6-0.5,2.5-0.5c1.1,0,1.9,0.1,2.7,0.3
			c0.7,0.2,1.3,0.4,1.8,0.7l-0.6,1.4c-0.5-0.3-1-0.5-1.6-0.7c-0.6-0.2-1.3-0.2-2.2-0.2c-0.6,0-1.3,0.1-1.9,0.4
			c-0.6,0.2-1.2,0.6-1.7,1.1c-0.5,0.5-0.9,1.1-1.2,1.8c-0.3,0.7-0.5,1.6-0.5,2.6v0.4c0,1,0.1,1.8,0.4,2.6c0.3,0.7,0.7,1.4,1.2,1.9
			c0.5,0.5,1,0.9,1.6,1.2C207.1,206.5,207.7,206.6,208.4,206.6"/>
		<path d="M221.8,193.2h2l5.7,14.6h-1.8l-1.7-4.3h-6.5l-1.6,4.3h-1.7L221.8,193.2z M220,202.1h5.5l-2.5-6.6c0-0.1-0.1-0.3-0.2-0.5
			c-0.1-0.2-0.1-0.3-0.1-0.5c0,0.1-0.1,0.3-0.1,0.5c-0.1,0.2-0.1,0.3-0.1,0.5L220,202.1z"/>
		<path d="M231.8,193.2h2.6l4.1,11.4c0.1,0.2,0.1,0.4,0.2,0.6c0.1,0.3,0.1,0.5,0.2,0.7c0.1-0.2,0.1-0.5,0.2-0.7
			c0.1-0.3,0.1-0.5,0.2-0.7l4-11.3h2.6v14.6h-1.7V195c0,0.2-0.1,0.4-0.1,0.6c-0.1,0.2-0.1,0.4-0.2,0.5l-4.1,11.7h-1.8l-4.3-11.8
			c-0.1-0.3-0.2-0.6-0.3-1v12.8h-1.6V193.2z"/>
		<polygon points="249.4,193.2 258.9,193.2 258.9,194.7 251.1,194.7 251.1,199.4 258.3,199.4 258.3,200.9 251.1,200.9 251.1,206.4 
			259,206.4 259,207.8 249.4,207.8 		"/>
		<path d="M266.9,208.1c-0.5,0-0.9,0-1.4-0.1c-0.5-0.1-0.9-0.1-1.4-0.3c-0.4-0.1-0.9-0.2-1.3-0.4c-0.4-0.2-0.7-0.3-1-0.5l0.5-1.5
			c0.3,0.2,0.6,0.3,1,0.5c0.4,0.1,0.7,0.2,1.1,0.4c0.4,0.1,0.8,0.2,1.2,0.2c0.4,0,0.8,0.1,1.2,0.1c1.2,0,2.2-0.2,2.9-0.7
			c0.7-0.5,1.1-1.1,1.1-2c0-0.7-0.3-1.3-0.8-1.7c-0.5-0.4-1.3-0.7-2.3-0.9l-1.6-0.3c-0.6-0.1-1.1-0.3-1.6-0.5
			c-0.5-0.2-0.9-0.5-1.3-0.8c-0.4-0.3-0.7-0.7-0.9-1.1c-0.2-0.4-0.3-0.9-0.3-1.5c0-0.5,0.1-1.1,0.3-1.5c0.2-0.5,0.6-0.9,1-1.2
			c0.4-0.4,1-0.6,1.6-0.8c0.6-0.2,1.4-0.3,2.2-0.3c1.1,0,2,0.1,2.8,0.4c0.8,0.3,1.6,0.6,2.1,0.9l-0.6,1.4c-0.5-0.3-1.1-0.6-1.9-0.8
			c-0.7-0.2-1.5-0.4-2.4-0.4c-1.1,0-1.9,0.2-2.5,0.6c-0.6,0.4-0.9,1-0.9,1.7c0,0.7,0.2,1.3,0.8,1.7c0.5,0.4,1.2,0.7,2.1,0.8l1.6,0.3
			c1.3,0.3,2.4,0.7,3.1,1.4c0.7,0.6,1.1,1.5,1.1,2.7c0,0.7-0.1,1.3-0.4,1.8c-0.3,0.5-0.6,1-1.2,1.4c-0.5,0.4-1.1,0.7-1.8,0.9
			C268.6,208,267.8,208.1,266.9,208.1"/>
	</g>
	<g>
		<path d="M0,147.4h10.6c3.1,0,5.5,0.7,7.3,2.2c1.7,1.5,2.6,3.6,2.6,6.5c0,1.5-0.2,2.8-0.7,4c-0.5,1.1-1.2,2.1-2,2.9
			c-0.9,0.8-1.9,1.4-3,1.8c-1.2,0.4-2.4,0.6-3.8,0.6H5.5v9.5H0V147.4z M9.5,160.7c1.7,0,3-0.4,3.9-1.2c0.9-0.8,1.4-1.8,1.4-3.1
			c0-1.4-0.5-2.4-1.3-3.1c-0.9-0.6-2.2-1-3.8-1H5.5v8.4H9.5z"/>
		<path d="M26.1,183.6c-0.7,0-2.6-0.1-3.4-0.5l1.1-4.3c0.3,0.1,1.4,0.1,1.7,0.1c0.9,0,1.7-0.2,2.3-0.6c0.6-0.4,1.1-1.1,1.5-2.1
			l0.9-1.9l-8.5-19.6h6.2l5.3,13.7l4.8-13.7h6.1L34.6,177c-0.5,1.2-1.1,2.3-1.7,3.1c-0.6,0.9-1.3,1.5-2.1,2
			c-0.7,0.5-1.5,0.9-2.3,1.1C27.7,183.5,26.9,183.6,26.1,183.6"/>
		<path d="M54.1,175.5c-1.6,0-3.1-0.2-4.4-0.7c-1.3-0.5-2.4-1.2-3.4-2.1c-0.9-0.9-1.6-2-2.1-3.2c-0.5-1.3-0.8-2.7-0.8-4.3v-0.7
			c0-1.7,0.3-3.3,0.8-4.6c0.6-1.3,1.3-2.4,2.2-3.3c0.9-0.9,2-1.5,3.1-2c1.2-0.4,2.4-0.7,3.7-0.7c2.9,0,5.2,0.9,6.8,2.6
			c1.7,1.7,2.5,4.1,2.5,7.3v2.8H49.3c0.1,0.7,0.3,1.3,0.6,1.8c0.3,0.5,0.7,0.9,1.2,1.2c0.5,0.3,1,0.6,1.5,0.7
			c0.6,0.1,1.1,0.2,1.6,0.2c1.4,0,2.7-0.2,3.8-0.5c1.1-0.4,2-0.8,2.6-1.2l1.5,4.2c-0.3,0.3-0.8,0.6-1.3,0.9
			c-0.5,0.3-1.2,0.6-1.9,0.8c-0.7,0.3-1.5,0.5-2.3,0.6C55.9,175.4,55,175.5,54.1,175.5 M53.4,158.7c-0.4,0-0.8,0.1-1.2,0.2
			c-0.4,0.1-0.9,0.3-1.3,0.6c-0.4,0.3-0.8,0.6-1.1,1.1c-0.3,0.5-0.5,1.1-0.6,1.8h8c0-0.6-0.1-1.2-0.3-1.7c-0.2-0.4-0.5-0.8-0.9-1.1
			c-0.4-0.3-0.8-0.5-1.2-0.6C54.3,158.8,53.8,158.7,53.4,158.7"/>
		<path d="M75.7,175.6c-1.5,0-2.9-0.3-4.2-0.7c-1.3-0.5-2.4-1.2-3.3-2.1c-0.9-0.9-1.7-2-2.2-3.3c-0.5-1.3-0.8-2.7-0.8-4.3v-0.6
			c0-1.7,0.3-3.2,0.9-4.5c0.6-1.3,1.4-2.5,2.4-3.4c1-0.9,2.1-1.6,3.4-2.1c1.3-0.5,2.6-0.7,3.9-0.7c1.5,0,2.9,0.2,4.2,0.7
			c1.3,0.5,2.4,1.2,3.4,2.1c0.9,0.9,1.7,2,2.2,3.3c0.6,1.3,0.8,2.7,0.8,4.3v0.5c0,1.7-0.3,3.2-0.9,4.5c-0.6,1.3-1.4,2.4-2.4,3.4
			c-1,0.9-2.1,1.6-3.4,2.1C78.3,175.3,77,175.6,75.7,175.6 M75.7,170.9c0.6,0,1.2-0.1,1.7-0.3c0.6-0.2,1.1-0.6,1.5-1
			c0.4-0.5,0.8-1,1-1.8c0.3-0.7,0.4-1.6,0.4-2.6v-1c0-1-0.1-1.9-0.4-2.6c-0.3-0.7-0.6-1.3-1.1-1.7c-0.5-0.4-1-0.7-1.5-1
			c-0.6-0.2-1.2-0.3-1.8-0.3c-0.6,0-1.2,0.1-1.8,0.3c-0.6,0.2-1,0.5-1.5,1c-0.4,0.4-0.8,1-1.1,1.7c-0.3,0.7-0.4,1.5-0.4,2.5v1
			c0,1.1,0.1,2,0.4,2.7c0.3,0.7,0.7,1.3,1.2,1.8c0.5,0.5,1,0.8,1.5,1C74.6,170.8,75.2,170.9,75.7,170.9"/>
		<path d="M89.1,154.6h5.3v2.4c0.4-0.4,0.9-0.8,1.4-1.2c0.5-0.3,1-0.6,1.6-0.8c0.6-0.2,1.2-0.4,1.8-0.5c0.6-0.1,1.2-0.2,1.8-0.2
			c1,0,1.9,0.2,2.8,0.5c0.9,0.3,1.6,0.8,2.3,1.4c0.7,0.6,1.2,1.4,1.5,2.3c0.4,0.9,0.6,2,0.6,3.2v13.3h-5.5v-12.2
			c0-0.9-0.3-1.8-1-2.4c-0.7-0.7-1.6-1-2.9-1c-0.3,0-0.7,0.1-1.1,0.2c-0.4,0.1-0.8,0.3-1.2,0.4c-0.4,0.2-0.8,0.5-1.1,0.8
			c-0.3,0.3-0.6,0.7-0.9,1.1v13.2h-5.5V154.6z"/>
		<path d="M120.5,178.6c0.6,0,1.3-0.1,1.9-0.3c0.6-0.2,1.1-0.5,1.6-0.9c0.4-0.4,0.8-0.9,1.1-1.4c0.3-0.6,0.4-1.2,0.4-2v-1.9
			c-0.5,0.8-1.3,1.4-2.5,1.8c-1.1,0.5-2.4,0.7-3.7,0.7c-1.3,0-2.4-0.3-3.5-0.8c-1-0.5-1.9-1.2-2.7-2.1c-0.7-0.9-1.3-1.9-1.7-3.1
			c-0.4-1.2-0.6-2.4-0.6-3.8v-1.4c0-1.2,0.2-2.4,0.7-3.5c0.4-1.1,1-2.1,1.8-3c0.8-0.9,1.7-1.6,2.7-2.1c1.1-0.5,2.2-0.8,3.5-0.8
			c1.2,0,2.4,0.2,3.5,0.5c1.2,0.3,2,0.9,2.6,1.6v-1.6h5.4v18.7c0,1.7-0.3,3.2-0.8,4.5c-0.5,1.3-1.2,2.3-2.1,3.2
			c-0.9,0.9-2,1.5-3.3,1.9c-1.3,0.4-2.7,0.6-4.3,0.6c-1.9,0-3.6-0.2-5.1-0.5c-1.5-0.3-2.6-0.8-3.5-1.4l1.5-4.5
			c0.3,0.2,0.7,0.4,1.2,0.5c0.5,0.2,1.1,0.3,1.7,0.5c0.6,0.1,1.3,0.3,2,0.3C119.1,178.6,119.8,178.6,120.5,178.6 M121.1,159
			c-0.7,0-1.4,0.1-1.9,0.4c-0.6,0.3-1.1,0.6-1.5,1.1c-0.4,0.5-0.7,1-0.9,1.6c-0.2,0.6-0.3,1.2-0.3,1.9v0.8c0,1.6,0.4,2.9,1.3,3.9
			c0.9,0.9,2,1.4,3.3,1.4c1,0,1.9-0.3,2.7-0.9c0.8-0.6,1.3-1.3,1.6-2.2v-5.4c-0.4-0.8-1-1.5-1.7-1.9
			C122.9,159.2,122.1,159,121.1,159"/>
		<path d="M148,175.3c-1.8,0-3.5-0.3-5.1-1c-1.6-0.7-3-1.6-4.2-2.8c-1.2-1.2-2.1-2.7-2.8-4.4c-0.7-1.7-1-3.6-1-5.6v-1.2
			c0-2.3,0.4-4.3,1.2-5.9c0.8-1.7,1.8-3.1,3.1-4.1c1.3-1.1,2.7-1.9,4.4-2.4c1.6-0.5,3.3-0.8,5-0.8c0.7,0,1.4,0.1,2.2,0.2
			c0.8,0.1,1.5,0.3,2.2,0.4c0.7,0.2,1.4,0.4,2,0.7c0.6,0.3,1.2,0.6,1.6,0.8l-1.8,4.6c-0.7-0.6-1.6-1-2.7-1.3
			c-1.1-0.3-2.1-0.5-3.1-0.5c-1,0-2.1,0.2-3,0.5c-1,0.3-1.9,0.8-2.6,1.5c-0.8,0.7-1.4,1.5-1.9,2.5c-0.5,1-0.7,2.2-0.7,3.6v1.2
			c0,1.3,0.2,2.4,0.6,3.5c0.4,1.1,1,2,1.7,2.8c0.7,0.8,1.6,1.4,2.5,1.9c1,0.5,2,0.7,3.2,0.7c0.5,0,1,0,1.6-0.1
			c0.6-0.1,1.3-0.2,1.9-0.3c0.7-0.1,1.3-0.4,1.9-0.6c0.6-0.2,1.1-0.5,1.4-0.8l1.4,4.6c-0.4,0.4-1,0.7-1.6,1
			c-0.7,0.3-1.4,0.6-2.2,0.8c-0.8,0.2-1.7,0.4-2.5,0.5C149.7,175.3,148.8,175.3,148,175.3"/>
		<path d="M160,145.7h5.5v11.1c0.4-0.5,0.9-0.8,1.4-1.1c0.5-0.3,1.1-0.6,1.7-0.8c0.6-0.2,1.2-0.4,1.8-0.4c0.6-0.1,1.2-0.2,1.8-0.2
			c0.9,0,1.8,0.2,2.7,0.5c0.8,0.3,1.6,0.8,2.3,1.4c0.7,0.6,1.2,1.4,1.6,2.3c0.4,0.9,0.6,2,0.6,3.3v13.1h-5.4V163c0-1.1-0.3-2-1-2.7
			c-0.7-0.7-1.6-1.1-2.9-1.1c-0.3,0-0.7,0.1-1.1,0.1c-0.4,0.1-0.8,0.3-1.3,0.4c-0.5,0.2-0.8,0.4-1.2,0.7c-0.4,0.3-0.6,0.6-0.8,1
			v13.3H160V145.7z"/>
		<path d="M201.9,174.8H197l-0.5-2.3c-0.4,0.4-1.4,1.3-2.6,1.7c-1.1,0.3-2.4,0.5-3.7,0.5c-1.3,0-2.4-0.2-3.5-0.7
			c-1-0.5-1.9-1.2-2.7-2c-0.8-0.9-1.3-1.9-1.7-3.1c-0.4-1.2-0.6-2.5-0.6-3.9v-1.4c0-1.2,0.2-2.4,0.7-3.5c0.5-1.1,1.1-2.2,1.9-3
			c0.8-0.9,1.8-1.6,2.9-2.1c1.1-0.5,2.2-0.8,3.5-0.8c1.2,0,2.3,0.2,3.4,0.5c1,0.3,1.8,0.8,2.4,1.5v-1.6h5.4V174.8z M192,158.8
			c-0.7,0-1.3,0.1-1.9,0.4c-0.6,0.3-1.1,0.6-1.5,1.1c-0.4,0.4-0.7,1-1,1.6c-0.2,0.6-0.4,1.2-0.4,1.9v1c0,0.8,0.1,1.6,0.4,2.2
			c0.2,0.7,0.6,1.2,1,1.6c0.4,0.4,0.9,0.8,1.5,1c0.6,0.2,1.2,0.4,1.9,0.4c1,0,1.9-0.2,2.7-0.6c0.8-0.4,1.3-1.2,1.7-1.8v-6.4
			c-0.4-0.8-1-1.4-1.7-1.8C193.8,159,193,158.8,192,158.8"/>
		<path d="M205.9,154.6h5.3v2.4c0.4-0.4,0.8-0.8,1.4-1.2c0.5-0.3,1.1-0.6,1.6-0.8c0.6-0.2,1.2-0.4,1.8-0.5c0.6-0.1,1.2-0.2,1.8-0.2
			c1,0,1.9,0.2,2.8,0.5c0.9,0.3,1.6,0.8,2.3,1.4c0.7,0.6,1.2,1.4,1.6,2.3c0.4,0.9,0.6,2,0.6,3.2v13.3h-5.5v-12.2
			c0-0.9-0.3-1.8-1-2.4c-0.6-0.7-1.6-1-2.9-1c-0.3,0-0.7,0.1-1.1,0.2c-0.4,0.1-0.8,0.3-1.2,0.4c-0.4,0.2-0.8,0.5-1.1,0.8
			c-0.3,0.3-0.6,0.7-0.9,1.1v13.2h-5.4V154.6z"/>
		<path d="M237.3,178.6c0.6,0,1.3-0.1,1.8-0.3c0.6-0.2,1.1-0.5,1.6-0.9c0.4-0.4,0.8-0.9,1.1-1.4c0.3-0.6,0.4-1.2,0.4-2v-1.9
			c-0.5,0.8-1.3,1.4-2.4,1.8c-1.1,0.5-2.4,0.7-3.7,0.7c-1.3,0-2.4-0.3-3.5-0.8c-1-0.5-1.9-1.2-2.7-2.1c-0.8-0.9-1.3-1.9-1.7-3.1
			c-0.4-1.2-0.6-2.4-0.6-3.8v-1.4c0-1.2,0.2-2.4,0.7-3.5c0.4-1.1,1-2.1,1.8-3c0.8-0.9,1.7-1.6,2.7-2.1c1-0.5,2.2-0.8,3.5-0.8
			c1.2,0,2.4,0.2,3.5,0.5c1.1,0.3,2,0.9,2.5,1.6v-1.6h5.4v18.7c0,1.7-0.3,3.2-0.7,4.5c-0.5,1.3-1.2,2.3-2.1,3.2
			c-0.9,0.9-2,1.5-3.3,1.9c-1.3,0.4-2.7,0.6-4.3,0.6c-1.9,0-3.7-0.2-5.1-0.5c-1.5-0.3-2.6-0.8-3.5-1.4l1.5-4.5
			c0.3,0.2,0.7,0.4,1.2,0.5c0.5,0.2,1.1,0.3,1.7,0.5c0.6,0.1,1.3,0.3,2,0.3C235.9,178.6,236.6,178.6,237.3,178.6 M237.9,159
			c-0.7,0-1.4,0.1-2,0.4c-0.6,0.3-1,0.6-1.4,1.1c-0.4,0.5-0.7,1-0.9,1.6c-0.2,0.6-0.3,1.2-0.3,1.9v0.8c0,1.6,0.4,2.9,1.3,3.9
			c0.8,0.9,2,1.4,3.3,1.4c1,0,2-0.3,2.7-0.9c0.8-0.6,1.3-1.3,1.6-2.2v-5.4c-0.4-0.8-0.9-1.5-1.7-1.9
			C239.7,159.2,238.9,159,237.9,159"/>
		<path d="M256.6,172.6l9.2-9.7c0.8-0.9,1.4-1.6,1.9-2.3c0.5-0.6,1-1.2,1.3-1.7c0.3-0.5,0.5-1,0.7-1.5c0.2-0.5,0.3-1,0.3-1.6
			c0.1-1.4-0.3-2.5-1-3.3c-0.7-0.8-1.8-1.3-3.4-1.3c-1,0-1.9,0.3-2.7,1.1c-0.8,0.7-1.4,1.8-1.8,3.3l-4.5-1.7
			c0.3-1.4,0.8-2.5,1.5-3.4c0.7-0.9,1.4-1.7,2.3-2.3c0.9-0.6,1.8-1,2.7-1.3c0.9-0.3,1.8-0.4,2.6-0.4c3.1,0,5.5,0.7,7.3,2.2
			c1.8,1.5,2.6,3.6,2.6,6.4c0,0.8-0.1,1.6-0.4,2.4c-0.3,0.8-0.6,1.6-1.1,2.4c-0.4,0.8-1,1.6-1.6,2.4c-0.6,0.8-1.2,1.5-1.9,2.3
			l-4.8,5.2h10.3v5h-19.5V172.6z"/>
		<path d="M289.9,175.4c-1.5,0-2.9-0.2-4.2-0.7c-1.3-0.5-2.5-1.2-3.4-2.3c-1-1-1.7-2.3-2.3-3.8c-0.6-1.5-0.8-3.4-0.8-5.5v-3.5
			c0-2.4,0.3-4.4,0.9-6.1c0.6-1.6,1.4-3,2.4-4c1-1,2.2-1.7,3.5-2.2c1.3-0.5,2.7-0.7,4.1-0.7c1.4,0,2.8,0.2,4.1,0.7
			c1.3,0.5,2.4,1.2,3.5,2.2c1,1,1.8,2.3,2.4,4c0.6,1.6,0.9,3.6,0.9,5.9v3.4c0,2.3-0.3,4.2-0.9,5.8c-0.6,1.6-1.4,2.9-2.5,3.9
			c-1,1-2.2,1.7-3.5,2.2C292.7,175.2,291.4,175.4,289.9,175.4 M290,170.4c1.7,0,2.9-0.7,3.7-2c0.8-1.3,1.1-3.2,1.1-5.6v-3.6
			c0-2.5-0.4-4.4-1.2-5.7c-0.8-1.3-2-1.9-3.6-1.9c-1.7,0-2.9,0.6-3.7,1.9c-0.7,1.3-1.1,3.2-1.1,5.6v3.6c0,2.4,0.4,4.3,1.1,5.7
			C287,169.8,288.3,170.4,290,170.4"/>
		<polygon points="308.8,153.3 303.3,154.5 303.3,150.4 311.7,146.7 314.6,146.7 314.6,175 308.8,175 		"/>
		<path d="M320.2,154c0-1.1,0.2-2.1,0.7-3c0.5-0.9,1.1-1.7,1.9-2.4c0.8-0.7,1.8-1.2,2.9-1.6c1.2-0.4,2.4-0.6,3.8-0.6
			c1.3,0,2.6,0.2,3.7,0.6c1.2,0.4,2.1,0.9,3,1.6c0.8,0.6,1.4,1.4,1.9,2.4c0.5,0.9,0.7,1.9,0.7,3c0,1.3-0.3,2.5-1,3.5
			c-0.6,1-1.5,1.9-2.6,2.6c1.4,0.7,2.6,1.6,3.4,2.9c0.9,1.3,1.3,2.7,1.3,4.2c0,1.3-0.3,2.4-0.8,3.4c-0.5,1-1.2,1.9-2.2,2.7
			c-0.9,0.7-2,1.3-3.3,1.7c-1.3,0.4-2.7,0.6-4.2,0.6c-1.5,0-2.9-0.2-4.2-0.6c-1.3-0.4-2.4-1-3.3-1.7c-0.9-0.7-1.6-1.6-2.1-2.7
			c-0.5-1-0.8-2.2-0.8-3.4c0-1.6,0.4-3,1.3-4.2c0.9-1.2,2-2.2,3.4-2.9c-1.1-0.7-2-1.5-2.6-2.5C320.5,156.4,320.2,155.3,320.2,154
			 M325,166.7c0,1.2,0.4,2.1,1.3,2.9c0.8,0.7,1.9,1.1,3.3,1.1c1.3,0,2.4-0.4,3.3-1.1c0.8-0.7,1.3-1.7,1.3-2.9c0-1.2-0.4-2.2-1.3-2.9
			c-0.9-0.7-2-1.1-3.3-1.1c-1.4,0-2.5,0.4-3.3,1.1C325.4,164.5,325,165.5,325,166.7 M325.7,154.4c0,1,0.4,1.8,1.1,2.4
			c0.7,0.6,1.6,0.9,2.8,0.9c1.1,0,2.1-0.3,2.8-0.9c0.7-0.6,1.1-1.4,1.1-2.4c0-1-0.3-1.7-1.1-2.4c-0.7-0.7-1.6-0.9-2.8-0.9
			c-1.1,0-2.1,0.3-2.8,0.9C326,152.6,325.7,153.4,325.7,154.4"/>
	</g>
	<g>
		<polygon points="344,154.3 343.3,154.3 343.3,148.1 341,148.1 341,147.4 346.3,147.4 346.3,148.1 344,148.1 		"/>
		<polygon points="347.2,147.4 348.3,147.4 350.3,153.4 352.4,147.4 353.4,147.4 353.4,154.3 352.7,154.3 352.7,148.5 350.7,154.3 
			349.9,154.3 348,148.4 348,154.3 347.2,154.3 		"/>
	</g>
</g>
</svg>
