<svg enable-background="new 0 0 543.8 749.6" height="371.163357" viewBox="0 0 543.8 749.6" width="269.423148" xmlns="http://www.w3.org/2000/svg"><g transform="matrix(1.4640713 0 0 1.4640713 1.324366 11.028535)"><path d="m10.4 443.9c0 6.5.8 8 5.5 8v1.9h-16.8v-1.9c4.8 0 5.5-1.5 5.5-8v-22.8c0-6.4-.8-8-5.5-8v-1.9h20.2c6.8 0 13.1 3.5 13.1 11.1 0 9.3-8.5 11.5-16.9 11.5h-5.1zm0-12.1h2.2c7.4 0 13.7-1.5 13.7-9.9 0-6.3-4.2-8.8-10.1-8.8-5.5 0-5.8 2.4-5.8 7.2z"/><path d="m50.4 432.8c0-2.9-.6-6.2-4.1-6.2-2.9 0-4.1 1.9-4.8 4.4-.5 1.8-1.3 2.9-3.4 2.9-1.6 0-2.7-1-2.7-2.6 0-4.8 6.8-6.7 10.6-6.7 2.4 0 5.4.4 7.4 2 2.1 1.7 2.1 4.2 2.1 6.6v13.3c0 1.4 0 4 1.7 4 1 0 1.7-.7 2.4-1.5l.8 1.2c-1.5 2.2-3.2 4.1-5.9 4.1-2.4 0-3.7-1.9-4-4.1-2.7 2.2-5.8 4.1-9.3 4.1-4.1 0-6.9-2.8-6.9-6.9 0-7.7 10.1-9.7 16.1-10.9zm0 5.7c-4.1.7-10.5 3.5-10.5 8.3 0 2.7 1.9 4.5 4.2 4.5 2.2 0 4.8-1.7 6.3-3.3z"/><path d="m70.1 445.8c0 5.5 0 5.8 3.9 6.3v1.7h-12.8v-1.7c3.8-.5 3.8-.8 3.8-6.3v-12.5c-.2-3.1-.2-4.2-3.8-4.2v-1.4l8.9-3.4v6.9c2.2-2.7 5.7-6.9 9.5-6.9 1.9 0 3.6 1.3 3.6 3.4 0 1.8-1.2 3.3-3.1 3.3-2 0-2.8-1.5-4.7-1.5-2 0-4.4 2.7-5.4 4.3z"/><path d="m101 432.8c0-2.9-.6-6.2-4.1-6.2-2.9 0-4.1 1.9-4.8 4.4-.5 1.8-1.3 2.9-3.4 2.9-1.6 0-2.7-1-2.7-2.6 0-4.8 6.8-6.7 10.6-6.7 2.4 0 5.4.4 7.4 2 2.1 1.7 2.1 4.2 2.1 6.6v13.3c0 1.4 0 4 1.7 4 1 0 1.7-.7 2.4-1.5l.8 1.2c-1.5 2.2-3.2 4.1-5.9 4.1-2.4 0-3.7-1.9-4-4.1-2.7 2.2-5.8 4.1-9.3 4.1-4.1 0-6.9-2.8-6.9-6.9 0-7.7 10.1-9.7 16.1-10.9zm0 5.7c-4.1.7-10.5 3.5-10.5 8.3 0 2.7 1.9 4.5 4.2 4.5 2.2 0 4.8-1.7 6.3-3.3z"/><path d="m116.1 419.3c0-5.1-.8-4.8-4.9-5.1v-1.7l10.1-3.3v36.7c0 5.5 0 5.8 4 6.3v1.7h-13v-1.7c3.9-.5 3.9-.8 3.9-6.3z"/><path d="m146 433.8c.4-1 1.2-3.2 1.2-4.4 0-2.2-2.6-2.4-4.3-2.4v-1.7h12.4v1.7c-1 .1-2.2.1-3 .8-1.7 1.2-3.1 5.1-3.8 7.1l-8.4 20.8c-1.6 4.2-3.6 9-8.8 9-2.2 0-4.5-1.4-4.5-3.8 0-1.7 1.4-3 3.1-3 2.3 0 2.9 2.3 4.4 2.3 2.4 0 3.4-5.1 4.2-6.8l-8.3-21c-1.1-2.7-1.7-5.3-5.1-5.3v-1.7h13.1v1.7c-1.2 0-3.5.1-3.5 1.7 0 .9.4 2 .8 2.8l5.6 15z"/><path d="m165.2 445.8c0 5.5 0 5.8 4 6.3v1.7h-13v-1.7c4-.5 4-.8 4-6.3v-12.5c-.2-3.1-.2-4.2-3.8-4.2v-1.4l8.9-3.4v5.8c2.3-3 5.8-5.4 9.7-5.4 3.3 0 5.8 2.3 6.9 5.4 2.8-2.7 5.8-5.4 9.9-5.4 2.5 0 4.9.9 6.2 3.2 1.3 2.2 1.2 5.4 1.2 8v9.9c0 5.5 0 5.8 3.9 6.3v1.7h-13v-1.7c4-.5 4-.8 4-6.3v-10.4c0-3.1.1-7.6-4.2-7.6-3 0-5.7 2.2-7.6 4.2v13.8c0 5.5 0 5.8 4 6.3v1.7h-13v-1.7c3.9-.5 3.9-.8 3.9-6.3v-10.4c0-3.1-.1-7.6-4.4-7.6-3 0-5.7 2.2-7.4 4.2z"/><path d="m213.8 456c0 5.5 0 5.8 3.9 6.3v1.7h-13v-1.7c4-.5 4-.9 4-6.3v-22.7c-.1-3.1-.4-4.2-3.8-4.2v-1.4l9-3.4v4.1c2.4-2.1 5-3.7 8.3-3.7 7.3 0 11.1 7.8 11.1 14.1.1 7.2-3.5 15.6-11.9 15.6-2.9 0-5.5-1.6-7.4-3.5zm0-7.5c1.7 1.6 3.8 3.4 6.2 3.4 6.3 0 7.6-8 7.6-12.9s-1.5-11.8-7.7-11.8c-2 0-4.8 2-6.1 3.5z"/><path d="m244.9 445.8c0 5.5 0 5.8 4 6.3v1.7h-13v-1.8c4-.5 4-.9 4-6.3v-12.5c-.2-3.1-.2-4.2-3.8-4.2v-1.4l8.9-3.4zm-3.3-27.5c-2.2 0-3.9-1.7-3.9-3.8 0-2.2 1.7-3.9 3.8-3.9s3.9 1.7 3.9 3.9c.1 2-1.7 3.8-3.8 3.8"/><path d="m276.8 446.8c-2.8 4.2-7 7.6-12.3 7.6-7.6 0-13-6.9-13-14.1 0-8.6 5.9-15.6 14.8-15.6 3.3 0 9.5 2 9.5 6.1 0 1.7-1.5 2.9-3.1 2.9-4.3 0-2.6-7.1-8.2-7.1-6 0-7.2 7.9-7.2 12.4 0 5.5 3.1 12.3 9.5 12.3 4 0 6.5-2.6 9-5.3z"/><path d="m301.1 433.7-1.4.8c-2.8-3.7-6.3-7.9-11.1-7.9-2.3 0-4.6 1.6-4.6 4 0 7.1 18.3 4.4 18.3 15.1 0 5-4.8 8.8-9.5 8.8-1.5 0-2.5-.4-3.8-.8-.7-.2-1.4-.5-2.2-.5-1.2 0-2.4.5-3.4 1.3l-3.6-9.9 1.3-.6c2.2 3.7 7.7 8.6 12 8.6 2.7 0 5.1-2 5.1-4.8 0-7.5-18.1-4.2-18.1-14.8 0-4.9 4.5-8.3 9.1-8.3 2.1 0 4.1.9 5.8.9 1.1 0 1.9-.5 2.6-1.3z"/><path d="m341.2 430.7c0 4.9-1.2 10.5-3.4 14.9-2.4 4.7-6.8 8.8-12.3 8.8-3.2 0-8.5-2-8.5-5.9 0-1.9 1.3-3.1 3.3-3.1 1.9 0 2.3 1.2 2.6 2.7.4 2.2 1.1 4.4 3.7 4.4 6.8 0 9.6-14.9 9.1-20.2-2.7 3.3-5.6 6-10.1 6-6.4 0-10.2-6.2-10.2-12 0-6.9 5.1-14.7 12.6-14.7 10 0 13.2 10.8 13.2 19.1zm-13.1-17.2c-6.1 0-7.3 7.3-7.3 12 0 4.4 1.5 10 6.8 10 3.7 0 6.3-3.8 8-6.6-.2-5.2-.3-15.4-7.5-15.4"/><path d="m361.5 411.6h2.6v29.1h6.5v2.7h-6.5v1.5c0 2 0 3.8.5 5.1.5 1.2 1.6 2 4.1 1.9v1.9h-14.7v-1.9c2.8 0 4.2-.5 4.7-1.7.4-1 .4-2.6.4-4.7v-2h-14.7v-2.7zm-14.4 29.1h11.9v-20.2z"/><path d="m918.8 1775.9c0 4.9-1.1 9.4-3.3 13.6-2 4-4.8 8.1-8.3 12.1l-5.5 5.3-7.3 5.5-8.3 5.8c-2.4 1.7-4.4 2.8-6 3.3l-2 .5-2.8.5c-.5-.2-1-.4-1.5-.8-.3-.3-.8-.9-1.5-1.8 1-2.4 4-6 9.1-10.8l6-5.5 4.3-4c2-2.5 3-5.5 3-9.1 0-1.7-1.3-3.1-4-4.3-5.2-2.2-9.2-4.2-11.8-6-2-2-3-5.1-3-9.3 0-4.5 1.7-8.4 5-11.6 1.8-1.7 3.8-2.9 5.8-3.8 2-.8 4.5-1.3 7.3-1.3 7.7 0 13.8 2.2 18.1 6.6 4.5 4 6.7 9.1 6.7 15.1z" transform="matrix(.20061986 -.05998016 .05998016 .20061986 24.264199 110.87993)"/></g><g transform="matrix(1.0929289 0 0 1.0929289 -329.34852 -397.46851)"><path d="m441.2 1039.4-3.6 9.6h-27v-1.7c4.3 0 4.9-1.4 4.9-7.1v-20.4c0-5.7-.7-7.1-4.9-7.1v-1.7h15.1v1.7c-4.3 0-5 1.4-5 7.1v21.4c0 4.6.4 6.1 5.6 6.1 7 0 10-2.7 13.5-8.5z"/><path d="m448.3 1041.9c0 4.9 0 5.2 3.5 5.6v1.5h-11.7v-1.6c3.5-.4 3.5-.8 3.5-5.6v-11.1c-.2-2.8-.2-3.7-3.4-3.7v-1.3l8-3.1zm-3-24.7c-1.9 0-3.5-1.5-3.5-3.4s1.5-3.5 3.4-3.5 3.5 1.6 3.5 3.5c.1 1.9-1.5 3.4-3.4 3.4"/><path d="m457.7 1018.1c0-4.5-.7-4.3-4.4-4.6v-1.5l9-3v32.8c0 4.9 0 5.2 3.6 5.6v1.5h-11.7v-1.5c3.5-.4 3.5-.7 3.5-5.6z"/><path d="m471.4 1018.1c0-4.5-.7-4.3-4.4-4.6v-1.5l9-3v32.8c0 4.9 0 5.2 3.6 5.6v1.5h-11.7v-1.5c3.5-.4 3.5-.7 3.5-5.6z"/><path d="m487 1034.7c0 5.1 1.5 12.6 8 12.6 3.5 0 6.5-1.9 8.5-4.7l.9.8c-2.2 3.6-5.8 6.1-10.1 6.1-7.3 0-12.6-5.9-12.6-13.1 0-6.7 4.6-13.5 11.9-13.5 6.5 0 11 5.6 11 11.7h-17.6zm12.4-2c.3-3.6-1.3-8-5.8-8-4.4 0-6.2 4.5-6.4 8z"/><path d="m515.7 1041.9c0 4.9 0 5.2 3.5 5.6v1.5h-11.6v-1.5c3.5-.4 3.5-.7 3.5-5.6v-23.7c0-4.5-.7-4.3-4.4-4.6v-1.5l9-3v18c2.3-2.1 6-4.1 9.2-4.1 5.5 0 6.6 4 6.6 9.4v9.5c0 4.9 0 5.2 3.5 5.6v1.5h-11.6v-1.5c3.5-.4 3.5-.7 3.5-5.6v-9.5c0-3.6-.7-6.6-4.2-6.6-2.7 0-5.1 1.8-7 3.5z"/><path d="m552.4 1030.2c0-2.6-.5-5.5-3.6-5.5-2.6 0-3.7 1.7-4.3 4-.5 1.6-1.1 2.6-3 2.6-1.5 0-2.5-.9-2.5-2.3 0-4.3 6.1-6 9.5-6 2.2 0 4.8.4 6.6 1.8 1.9 1.6 1.9 3.7 1.9 5.9v11.9c0 1.3 0 3.5 1.6 3.5.9 0 1.5-.6 2.1-1.3l.7 1.1c-1.3 1.9-2.9 3.6-5.3 3.6-2.1 0-3.3-1.7-3.5-3.6-2.4 1.9-5.2 3.6-8.3 3.6-3.6 0-6.1-2.5-6.1-6.2 0-6.9 9.1-8.7 14.4-9.7v-3.4zm0 5.2c-3.7.6-9.4 3.1-9.4 7.4 0 2.4 1.7 4 3.8 4 1.9 0 4.3-1.5 5.6-3z"/><path d="m570.2 1041.9c0 4.9 0 5.2 3.5 5.6v1.5h-11.7v-1.5c3.5-.4 3.5-.7 3.5-5.6v-11.2c-.2-2.8-.2-3.7-3.4-3.7v-1.3l8-3.1v5.2c2-2.7 5.2-4.8 8.6-4.8 3 0 5.2 2.1 6.2 4.8 2.5-2.4 5.2-4.8 8.9-4.8 2.2 0 4.4.8 5.6 2.9 1.1 2 1.1 4.8 1.1 7.2v8.9c0 4.9 0 5.2 3.5 5.6v1.5h-11.6v-1.5c3.5-.4 3.5-.7 3.5-5.6v-9.3c0-2.8.1-6.8-3.8-6.8-2.7 0-5.1 1.9-6.8 3.8v12.3c0 4.9 0 5.2 3.5 5.6v1.5h-11.6v-1.5c3.5-.4 3.5-.7 3.5-5.6v-9.3c0-2.8-.1-6.8-4-6.8-2.7 0-5.1 1.9-6.7 3.8z"/><path d="m614.1 1041.9c0 4.9 0 5.2 3.5 5.6v1.5h-11.6v-1.5c3.5-.4 3.5-.7 3.5-5.6v-11.2c-.2-2.8-.2-3.7-3.4-3.7v-1.3l8-3.1v5.2c2-2.7 5.2-4.8 8.6-4.8 3 0 5.2 2.1 6.2 4.8 2.5-2.4 5.2-4.8 8.9-4.8 2.2 0 4.4.8 5.6 2.9 1.1 2 1.1 4.8 1.1 7.2v8.9c0 4.9 0 5.2 3.5 5.6v1.5h-11.6v-1.5c3.5-.4 3.5-.7 3.5-5.6v-9.3c0-2.8.1-6.8-3.8-6.8-2.7 0-5.1 1.9-6.8 3.8v12.3c0 4.9 0 5.2 3.5 5.6v1.5h-11.6v-1.5c3.5-.4 3.5-.7 3.5-5.6v-9.3c0-2.8-.1-6.8-4-6.8-2.7 0-5.1 1.9-6.7 3.8z"/><path d="m655.6 1034.7c0 5.1 1.5 12.6 8 12.6 3.5 0 6.5-1.9 8.5-4.7l.9.8c-2.2 3.6-5.8 6.1-10.1 6.1-7.3 0-12.6-5.9-12.6-13.1 0-6.7 4.6-13.5 11.9-13.5 6.5 0 11 5.6 11 11.7h-17.6zm12.4-2c.3-3.6-1.2-8-5.8-8-4.4 0-6.2 4.5-6.4 8z"/><path d="m683.8 1041.9c0 4.9 0 5.2 3.5 5.6v1.5h-11.5v-1.5c3.4-.4 3.4-.7 3.4-5.6v-11.2c-.2-2.8-.2-3.7-3.4-3.7v-1.3l8-3.1v6.1c2-2.4 5.1-6.1 8.5-6.1 1.7 0 3.2 1.2 3.2 3 0 1.6-1.1 2.9-2.8 2.9-1.8 0-2.5-1.4-4.2-1.4-1.8 0-3.9 2.4-4.8 3.8v11"/></g><g clip-rule="evenodd" fill-rule="evenodd" transform="matrix(2.1540222 0 0 2.1540222 79.752692 150.17463)"><path d="m94.7 181.4c-3.3 11.6 3.2 23.7 14.7 27.3s23.8-2.6 27.7-13.9v-.1-.1s0 0 0-.1v-.1-.1c.7-2 .7-4.3.1-6.5-1.7-5.9-7.9-9.3-13.8-7.6-3.6 1-6.2 3.7-7.4 6.9v.1.1c-1.1 3.5-3.8 6.3-7.5 7.4-5.9 1.7-12.1-1.7-13.8-7.6-.5-1.8-.5-3.9 0-5.7z" fill="#309f3d"/><path d="m50.5 181.4c-3.3 11.6 3.2 23.7 14.7 27.3s23.8-2.6 27.7-13.9v-.1-.1s0 0 0-.1v-.1-.1c.7-2 .7-4.3.1-6.5-1.7-5.9-7.9-9.3-13.8-7.6-3.6 1-6.2 3.7-7.4 6.9v.1.1c-1.1 3.5-3.8 6.3-7.5 7.4-5.9 1.7-12.1-1.7-13.8-7.6-.5-1.8-.5-3.9 0-5.7z" fill="#ffb000"/><path d="m69.3 152.1c-3.3 11.6 3.2 23.7 14.7 27.3s23.8-2.6 27.7-13.9v-.1-.1s0 0 0-.1v-.1-.1c.7-2 .7-4.3.1-6.5-1.7-5.9-7.9-9.3-13.8-7.6-3.6 1-6.2 3.7-7.4 6.9v.1.1c-1.1 3.5-3.8 6.3-7.5 7.4-5.9 1.7-12.1-1.7-13.8-7.6-.5-1.8-.5-3.8 0-5.7z"/><path d="m25.1 152.1c-3.3 11.6 3.2 23.7 14.7 27.3s23.8-2.6 27.7-13.9v-.1-.1s0 0 0-.1v-.1-.1c.7-2 .7-4.3.1-6.5-1.7-5.9-7.9-9.3-13.8-7.6-3.6 1-6.2 3.7-7.4 6.9v.1.1c-1.1 3.5-3.8 6.3-7.5 7.4-5.9 1.7-12.1-1.7-13.8-7.6-.5-1.8-.5-3.8 0-5.7z" fill="#0059d0"/><path d="m113.5 152.1c-3.3 11.6 3.2 23.7 14.7 27.3s23.8-2.6 27.7-13.9v-.1-.1s0 0 0-.1v-.1-.1c.7-2 .7-4.3.1-6.5-1.7-5.9-7.9-9.3-13.8-7.6-3.6 1-6.2 3.7-7.4 6.9v.1.1c-1.1 3.5-3.8 6.3-7.5 7.4-5.9 1.7-12.1-1.7-13.8-7.6-.5-1.8-.5-3.8 0-5.7z" fill="#fc3517"/></g><g fill="#7894e7"><path d="m85 0v487.6c2.3-1.2 4.4-2.5 6.4-4 2-14 15.9-2.7 19.6-14.8 11.6-5.5 26.2-2.3 36.4-11.8 11.7-8 23.2-19.1 38.5-16.7 10.3 1.7 17.8-7.3 22.9-14.1 10.8-1.9 2.6-17.1 8.8-23.6 10.5-20.4 10.5-43.8 18.6-65.1 5.5-23.6 13.7-46.5 19.3-69.9 3.4-14.6-8.9-24-18.8-32.2-5.1-11-13.7 3.5-18.4 10.9s-16.4 1.7-7.3-8.9 22.8-15.8 13.1-26.2c-7.7-13-13.4 3.2-22.7 3.9s-19.2-1.4-13.4-11.6c4.5-8.5 18.7-4.6 22.9-10.6-1.6-10-.5-20.1.4-30.1-9.3-2.4-15.6-4.2-25.2-10.9s-24.5-14-35.9-20.4 9.1-7.3 20.6-5.9 24.4 12.8 37.1 18.6c10.6-2.2 14.3-14.3 20.2-21.7-2.8-6.5-7.8-13.2-13.6-18.4-3.3-3-7.3-4.5-10.3-7.4-4.3-4.8-9.3-10.9-14-15.7-7.7-7.8-14.7-14.5-17.3-25-.6-13.3 14-3.6 19.6.7 11.7 8.7 21.6 23.5 30.5 30.7s14.4 16.6 22.9 13.8c8.9-4.4 21.2-5.7 21.7-14.6 2.5-15.4-3.9-30.1-3.5-45.2-.3-12.1 15-12.1 16.1-.8 2.1 16.6 1.8 34 8.3 49.8 9.8 4.6 20.3 4.4 30.9 3.4 4.7-14.7 11.1-29.1 17.3-43.5 8-8.8 19.2 1.6 16 11.3-4.3 10.9-16.1 19.9-14.3 33.2-.9 10.4 10.6 15.8 12.6 25.7 5.4 4.2 13.4-10.4 19.3-14.5s20.5-12.3 21.9-.8c-3.4 17.2-25.8 21.3-32.5 36.4-3.8 9.9 3 19.7 13.5 19.9 14.3-7 30.5-1.6 45.6 0 11.6 4.4 1.8 17.1-7.4 13.6-18.1-1.5-35.9-3.8-54.1-2.6-5.2 7.8-5.7 20.8 6.4 20.9 19.1 4.1 39.5 5.8 57.8 11.9 10 7.7-1 17.4-10.8 13.9-4.8-.6-11.8-3.3-16.5-4.3-15.2-3.3-27.8-6.5-43.1-9.2-9.5 3.1-19.5 12.2-7 19.3 7.5 8.9 13.4 19.6 20 29.1 6.4 10.4-2.6 17.8-13 14.4-9.7-9.2-9.7-24.9-21.7-32.6-8.5-6-15.8 7.4-25.3 6.3-13.7 1-12.8 17.2-17.5 26.9-6.1 22.9-3.8 47.4-10.9 70.3-1 13.3-4.8 25.9-8.9 38.5 1.4 9.1 7.3 19.3 17.6 12.9 9.1-1.8 16.6-8.8 25.8-2.8 9.4 5.1 17.7-4.1 26-4.4 12.6 6.8 27.4 9.5 40.8 13.7 9-.3 13.4-12.3 23.3-11 10.6 1.9 16.9 4.4 25.7-5 13.2-9.8 28.9-13.1 44.3-17.8v-363.5z"/><path d="m235.5 413.9c4.3-.2 8.7-1.4 11.5-4.9 3.5-3.4 6-7.7 9.7-10.9.6-4.3-1.9-8.4-2.9-12.5-.5-4.3 2.4-7.9 3-12.1 1.2-4.6 6.3-7.5 4.5-12.8-1.3-7.8 0-15.9 1.8-23.5 2.3-6.1 5.4-12.1 6.1-18.7-3.3-3.6-8.9-3.3-13.1-1.8-5 4.5-7.6 11.1-7.9 17.7-.8 7.3-1.6 14.7-3.2 21.9-2.2 9.2-7.4 17.4-9.5 26.6 1.1 5.1-2 9.6-2.9 14.4-.7 4.1-1.7 8.6.7 12.3.9 1.5 1.5 2.9 2.2 4.3z"/><path d="m292.7 225.2c.4 1 12.5 2.8 15.4-.5 3-3.4 12.6-13 17.3-20.7 6.5-14.4 16.4-27.1 21.8-42 .2-7.5.1-15.1-2.8-22.1-1.8-7.7-7.4-13.5-11.6-20-3.7-3.6-5.8-13.1-10.8-11.9-13.2 1.7-26.4 3.3-39.7 2.1-7-.3-14-.8-21-1.5-6.2 1.3-14 6.4-17.4 12.9-4.9 9.4-9.9 18.7-14.6 28.3-.9 8.3-5.3 16.7-3.4 25 1.6 8.2 3.8 16.3 7.5 23.9 2.3 8 7.2 14.1 13.9 18.8 5.7 5.6 13.4 8.2 20.5 11.6 7.2 2.6 12.5-4.6 13.6-11-.2-5.9 2.9-13.8-1.6-18.3-5.4-4.2-13.2-9.7-6.3-16.4 4.9-5.1 13.6-6.1 20.1-4.1 6.8.5 10.6 5.4 12.3 11.6 1.3 4.6 3.8 10.2-3 11.5-6.2 4.2-14.3 7.8-12.8 16.6-.1 2.2 2.2 5.2 2.6 6.2z"/></g></svg>