<?xml version="1.0" encoding="UTF-8"?>
<!-- Created with Inkscape (http://www.inkscape.org/) -->
<svg width="55.895mm" height="95.25mm" version="1.1" viewBox="0 0 55.895 95.25" xmlns="http://www.w3.org/2000/svg" xmlns:cc="http://creativecommons.org/ns#" xmlns:dc="http://purl.org/dc/elements/1.1/" xmlns:rdf="http://www.w3.org/1999/02/22-rdf-syntax-ns#">
 <metadata>
  <rdf:RDF>
   <cc:Work rdf:about="">
    <dc:format>image/svg+xml</dc:format>
    <dc:type rdf:resource="http://purl.org/dc/dcmitype/StillImage"/>
    <dc:title/>
   </cc:Work>
  </rdf:RDF>
 </metadata>
 <g transform="translate(178 -43.89)">
  <g transform="matrix(1.0012 0 0 1.0012 .21467 -.1678)">
   <path d="m-166.98 44.611c12.007-5.3418 16.333 26.347 12.484 28.06s-24.491-22.718-12.484-28.06z" fill="#249a47" fill-rule="evenodd"/>
   <path d="m-128.42 119.12c0.323-0.16844 0.49521-0.63378 0.38344-1.0362-0.0509-0.18334-0.20206-0.37254-0.37487-0.46927-0.14149-0.0793-0.18446-0.0889-0.39025-0.0878-0.19233 6.5e-4 -0.2562 0.0141-0.37926 0.0779-0.33175 0.17194-0.49983 0.55605-0.4173 0.95361 0.0609 0.29368 0.24229 0.49479 0.5313 0.58925 0.15866 0.052 0.52455 0.0362 0.64694-0.0275zm0.0292 2.9983c0.1881-0.09 0.36276-0.28533 0.44575-0.49832 0.0499-0.12819 0.0635-0.22221 0.0627-0.43787-1e-3 -0.44843-0.1581-0.75984-0.47137-0.93655-0.14525-0.082-0.18147-0.0896-0.41917-0.0895-0.30006 1.8e-4 -0.45034 0.0538-0.64585 0.23043-0.37965 0.34298-0.40693 1.1461-0.0523 1.5387 0.2555 0.2828 0.71964 0.36581 1.0801 0.19318zm-0.73625 1.087c-0.57605-0.0598-1.0856-0.26749-1.3805-0.5627-0.2047-0.20492-0.38544-0.53168-0.48098-0.86955-0.0837-0.29599-0.0909-0.7757-0.0159-1.0514 0.12372-0.45485 0.39827-0.81638 0.76736-1.0105l0.18345-0.0965-0.14009-0.0803c-0.66329-0.37966-0.86576-1.2493-0.47451-2.0382 0.30198-0.60889 0.80295-0.91841 1.6161-0.99845 0.50447-0.0497 1.0086 0.026 1.365 0.20478 0.80654 0.40466 1.1548 1.4364 0.75956 2.2505-0.0867 0.17857-0.35812 0.46423-0.495 0.52093-0.051 0.0211-0.0927 0.0466-0.0927 0.0566 0 0.0102 0.0748 0.0567 0.16621 0.10393 0.3476 0.17937 0.63854 0.55818 0.75066 0.97735 0.07 0.26176 0.0613 0.8026-0.0178 1.105-0.1967 0.7523-0.75803 1.2824-1.5288 1.4439-0.26319 0.0552-0.69275 0.0746-0.98216 0.0446zm-4.0661-3.3898c0.28394-0.14501 0.4475-0.41456 0.5053-0.83276 0.0704-0.50966-0.0874-1.0438-0.37249-1.2609-0.36514-0.27798-0.89972-0.22302-1.218 0.12522-0.18926 0.20708-0.26479 0.41041-0.28321 0.76229-0.0343 0.6555 0.22252 1.1134 0.71538 1.2754 0.0398 0.0131 0.16983 0.0197 0.28908 0.0148 0.16409-7e-3 0.25259-0.0272 0.36394-0.0841zm-0.91319 3.3865c-0.80455-0.10736-1.3707-0.56609-1.546-1.2527-0.0242-0.0948-0.0439-0.2151-0.0439-0.26741v-0.0951h1.2114l0.06 0.13573c0.0865 0.19536 0.18887 0.31809 0.32738 0.39212 0.10233 0.0547 0.16616 0.0648 0.41026 0.0648 0.26232 0 0.30143-7e-3 0.42243-0.0784 0.24063-0.14146 0.39387-0.36684 0.51376-0.75568 0.0587-0.19022 0.14787-0.76308 0.14787-0.94955 0-0.089-1e-3 -0.0884-0.19513 0.11244-0.29795 0.3084-0.58069 0.41625-1.0913 0.41625-0.92337 0-1.6304-0.54238-1.8686-1.4335-0.0909-0.34033-0.0918-1.0781-1e-3 -1.4408 0.18923-0.76066 0.69108-1.2879 1.4365-1.5092 0.22552-0.067 0.31217-0.0772 0.65043-0.0775 0.45-3.9e-4 0.70279 0.0534 1.0316 0.21891 0.85446 0.4303 1.3067 1.4706 1.3089 3.011 3e-3 1.9594-0.62657 3.1768-1.7913 3.4648-0.24253 0.06-0.70704 0.0808-0.98286 0.0439z" stroke="#000" stroke-width=".13229"/>
   <g fill="#1a1a1a">
    <path d="m-137.48 118.91 8e-3 -0.2396 0.0875-0.0226c0.27178-0.0702 0.49102-0.34886 0.52793-0.67102l0.0184-0.16036h-0.67576v-1.1713h1.1992l-3.7e-4 0.70418c-3.7e-4 0.76445-0.016 0.87983-0.15439 1.134-0.15391 0.2828-0.54787 0.56328-0.89911 0.64019l-0.11957 0.0262 8e-3 -0.2396z" stroke-width=".027889"/>
    <path d="m-159.7 123.2c-1.3196-0.18481-2.2836-1.2083-2.4967-2.6506-0.0598-0.40469-0.0406-1.078 0.0424-1.4884 0.14694-0.72653 0.41863-1.2854 0.84107-1.7302 0.35495-0.37367 0.76497-0.60407 1.3285-0.74651 0.21609-0.0545 0.31617-0.0617 0.87162-0.0617 0.5565 0 0.65528 7e-3 0.8731 0.0621 0.95868 0.24224 1.658 0.89765 1.8431 1.7272 0.0781 0.34961 0.14542 0.31522-0.61807 0.31522h-0.66285l-0.0494-0.18825c-0.0619-0.23592-0.15133-0.36609-0.35873-0.52201-0.27269-0.20496-0.57545-0.29409-0.99614-0.29326-0.81127 2e-3 -1.3822 0.40868-1.6552 1.1801-0.21265 0.60094-0.21265 1.5002 0 2.1011 0.16616 0.46951 0.43888 0.79549 0.82468 0.9857 0.30941 0.15253 0.56698 0.20318 0.9528 0.1874 0.35431-0.0145 0.53236-0.0704 0.77263-0.24243 0.16921-0.12117 0.42872-0.42412 0.52247-0.60995 0.0522-0.10329 0.16907-0.49548 0.16907-0.56697 0-0.0129-0.3263-0.0233-0.72513-0.0233h-0.72509v-1.0319h2.6215v3.4024h-0.88522l-0.0507-0.37708c-0.0279-0.20739-0.0597-0.37369-0.0709-0.36953-0.0111 4e-3 -0.0775 0.0855-0.14732 0.18078-0.33788 0.46039-0.97297 0.74663-1.7172 0.77398-0.17708 7e-3 -0.4041 3.6e-4 -0.5045-0.0137zm17.989-0.0106c-1.3038-0.23305-2.2436-1.1792-2.468-2.4846-0.13711-0.79764-0.0477-1.7199 0.23528-2.4266 0.38853-0.97033 1.1545-1.594 2.1575-1.7567 0.33377-0.0541 0.95328-0.0539 1.2396 3.7e-4 0.9143 0.17342 1.5915 0.70113 2.0037 1.5614 0.29129 0.60786 0.38823 1.1255 0.36563 1.9519-0.0151 0.55337-0.0477 0.76646-0.17664 1.1577-0.20364 0.61774-0.62396 1.1981-1.1098 1.5323-0.21818 0.1501-0.63274 0.33359-0.92255 0.40833-0.34459 0.0888-0.9884 0.11602-1.3247 0.0559zm0.97726-1.1611c0.44676-0.12903 0.86749-0.54338 1.063-1.0469 0.11447-0.29476 0.16295-0.62514 0.16291-1.11 0-0.80013-0.16162-1.3398-0.53339-1.7819-0.41439-0.49272-1.2104-0.63168-1.8578-0.32426-0.28002 0.13299-0.5777 0.4403-0.72815 0.75176-0.32878 0.68056-0.37015 1.6992-0.0984 2.4231 0.33653 0.89655 1.1384 1.3347 1.9918 1.0882zm-32.575-2.2021v-3.1793h1.4166l1.237 2.0789 1.237 2.0789 7e-3 -2.0789 7e-3 -2.0789h1.2825v6.3586l-1.4084-0.00193-1.241-2.102-1.241-2.102-7e-3 2.1031-7e-3 2.1031h-1.2825zm5.5476 2.88c0.82364-2.2903 2.1498-5.973 2.1646-6.0109 0.0179-0.0457 0.0756-0.0487 0.80074-0.0419l0.78152 7e-3 1.1112 3.1654c0.61116 1.741 1.1115 3.1687 1.1118 3.1728 3.6e-4 4e-3 -0.32701 4e-3 -0.72738 0l-0.72795-8e-3 -0.2014-0.64144-0.20139-0.64144h-2.3664l-0.21044 0.64144-0.21043 0.64144-1.4324 0.016zm3.6721-2.3013c-0.48847-1.5692-0.75503-2.3888-0.77127-2.3712-0.011 0.0119-0.19843 0.58629-0.41663 1.2766-0.2182 0.69023-0.40228 1.2644-0.40909 1.2759-7e-3 0.0116 0.3639 0.0208 0.82377 0.0208h0.83616zm8.097 2.3013c0.82365-2.2903 2.1498-5.973 2.1646-6.0109 0.0178-0.0457 0.0756-0.0487 0.80075-0.0419l0.78151 7e-3 1.1112 3.1654c0.61116 1.741 1.1114 3.1687 1.1118 3.1728 3.6e-4 4e-3 -0.32702 4e-3 -0.72738 0l-0.72796-8e-3 -0.20137-0.64144-0.2014-0.64144h-2.3665l-0.21044 0.64144-0.21045 0.64144-1.4324 0.016zm3.6721-2.3013c-0.48847-1.5692-0.75506-2.3888-0.77128-2.3712-0.011 0.0119-0.19843 0.58629-0.41663 1.2766-0.2182 0.69023-0.40229 1.2644-0.40909 1.2759-7e-3 0.0116 0.36389 0.0208 0.82379 0.0208h0.83615zm2.5493-0.57869v-3.1793h1.4166l2.4739 4.1579 7e-3 -2.0789 7e-3 -2.0789h1.2825v6.3586l-1.4084-0.00193-2.4821-4.2039-7e-3 2.1031-7e-3 2.1031h-1.2825z" stroke-width=".027889"/>
    <path d="m-125.4 115.01c-0.4783-0.0738-0.86283-0.21667-1.2192-0.45276-0.50859-0.3369-0.75949-0.78469-0.8168-1.4578l-0.0186-0.21931 1.2598 0.016 0.0608 0.19759c0.0828 0.2691 0.12917 0.34975 0.2822 0.49079 0.26393 0.2433 0.67572 0.37931 1.1434 0.37769 0.43628-9.8e-4 0.74645-0.1084 0.9974-0.3436 0.34292-0.32146 0.30244-0.76032-0.0938-1.0164-0.2195-0.14188-0.45524-0.22194-1.2881-0.43754-1.0919-0.28265-1.4555-0.42992-1.7621-0.71386-0.1756-0.16257-0.32735-0.42055-0.41171-0.69993-0.0758-0.25131-0.0696-0.77446 0.0129-1.0672 0.22608-0.80242 0.86589-1.3089 1.8456-1.4609 0.35106-0.0545 1.0759-0.0205 1.4057 0.066 0.97499 0.25547 1.5728 0.90697 1.6291 1.7754l0.0163 0.2504-1.2601-0.016-0.0367-0.16166c-0.0834-0.36749-0.30017-0.63481-0.60064-0.74082-0.33274-0.1174-0.92439-0.11043-1.2528 0.0147-0.34938 0.13315-0.55589 0.39195-0.55589 0.69662 0 0.37062 0.23013 0.56435 0.8468 0.71285 0.11645 0.0281 0.434 0.10426 0.70569 0.1693 1.8602 0.44555 2.3807 0.89263 2.3337 2.0047-0.0169 0.39834-0.0647 0.60326-0.20753 0.88841-0.39743 0.79331-1.1908 1.1785-2.4085 1.1694-0.19405-9.8e-4 -0.46716-0.0203-0.60688-0.0419zm-5.4443-0.0274c-0.38346-0.0762-0.83919-0.26428-1.1468-0.47325-0.1877-0.12755-0.49755-0.43309-0.63492-0.6261-0.38443-0.5401-0.58084-1.3096-0.58113-2.2766-3.2e-4 -0.48753 0.0442-0.82946 0.15838-1.2238 0.33145-1.1437 1.1667-1.9073 2.2856-2.0894 0.67487-0.10987 1.3984-5e-3 1.9623 0.28536 0.67065 0.34489 1.1778 1.0544 1.2575 1.7594l0.0194 0.17183h-0.65376c-0.59798 0-0.65505-5e-3 -0.66901-0.0494-0.22172-0.71787-0.65053-1.0561-1.3379-1.0552-0.86158 9.1e-4 -1.4426 0.58867-1.6252 1.6437-0.0664 0.38394-0.0439 1.1601 0.0435 1.4932 0.21388 0.81592 0.71508 1.2795 1.4265 1.3194 0.31215 0.0175 0.51744-0.0224 0.77234-0.14984 0.32871-0.16445 0.53516-0.42505 0.66934-0.84492l0.0632-0.1976 1.3356-0.016-0.0195 0.1346c-0.0319 0.21915-0.14882 0.5999-0.25116 0.81743-0.14168 0.30114-0.29426 0.50971-0.54454 0.74431-0.35691 0.33457-0.78315 0.53911-1.3177 0.63233-0.3059 0.0533-0.94258 0.0531-1.212-4.3e-4zm-47.157-3.3716v-3.2179l1.4466 4.6e-4c1.8419 4.5e-4 2.0981 0.0259 2.5786 0.25503 0.3964 0.18896 0.68526 0.58443 0.83391 1.1417 0.0864 0.32406 0.0871 0.95115 9.8e-4 1.2642-0.16744 0.61145-0.593 1.1034-1.1505 1.3299-0.33963 0.138-0.53076 0.15804-1.5072 0.15804h-0.90446v2.2864h-1.2984zm2.731-0.16946c0.38199-0.0496 0.63731-0.22175 0.77444-0.5221 0.0551-0.12062 0.0646-0.18833 0.0649-0.46575 4.6e-4 -0.37-0.0436-0.50779-0.2177-0.68199-0.2314-0.2314-0.45956-0.27773-1.3678-0.27773h-0.68638v0.96913c0 0.53303 9e-3 0.9776 0.0188 0.98795 0.0284 0.0285 1.1804 0.0208 1.4137-9e-3zm1.3879 3.0844c0.83363-2.3181 2.1759-6.0455 2.1909-6.0838 0.018-0.0462 0.0766-0.0493 0.81046-0.0423l0.79101 8e-3 1.1247 3.2038c0.61857 1.7621 1.1249 3.2072 1.1252 3.2113 3.2e-4 5e-3 -0.33098 5e-3 -0.7362 0l-0.7368-8e-3 -0.20382-0.64923-0.20385-0.64922h-2.3952l-0.21299 0.64922-0.21298 0.64923-1.4498 0.016zm3.7166-2.3292c-0.49438-1.5883-0.76419-2.4178-0.78063-2.4-0.0112 0.012-0.20083 0.59343-0.42167 1.292-0.22085 0.69863-0.40718 1.2798-0.41405 1.2914-7e-3 0.0117 0.3683 0.0212 0.83376 0.0212h0.84629zm2.5803-0.58787v-3.2201l1.8277 0.012c2.051 0.0134 2.0517 0.0135 2.4871 0.21969 0.39888 0.18885 0.70388 0.54524 0.84419 0.98639 0.081 0.2545 0.0949 0.35767 0.0935 0.68709-3e-3 0.68731-0.29614 1.1821-0.85459 1.4434l-0.13258 0.062 0.15365 0.0637c0.2021 0.0837 0.41577 0.27928 0.50537 0.46244 0.126 0.25752 0.15554 0.48088 0.15608 1.1798 4.5e-4 0.73378 0.0193 0.87063 0.1547 1.1329l0.0984 0.19054h-0.68608c-0.68294 0-0.68622-3.3e-4 -0.71886-0.0635-0.1046-0.20248-0.12384-0.3275-0.14678-0.95266-0.0128-0.34931-0.0372-0.70497-0.0541-0.79037-0.0651-0.32839-0.23802-0.56467-0.47563-0.64966-0.0762-0.0273-0.3572-0.0405-1.0292-0.0488l-0.92443-0.0113v2.5163h-1.2984zm3.5048-0.42811c0.1687-0.0992 0.31907-0.27526 0.37486-0.43897 0.0586-0.17209 0.0572-0.54921-2e-3 -0.72498-0.028-0.0821-0.0982-0.18976-0.17643-0.27042-0.21508-0.22179-0.27233-0.23168-1.4213-0.24555l-0.9809-0.0118v1.7859l2.0747-0.016zm1.9972 3.3452c0.83364-2.3181 2.1759-6.0455 2.1909-6.0838 0.0181-0.0462 0.0766-0.0493 0.81046-0.0423l0.79101 8e-3 1.1247 3.2038c0.61858 1.7621 1.125 3.2072 1.1253 3.2113 3.2e-4 5e-3 -0.33098 5e-3 -0.73622 0l-0.73677-8e-3 -0.20385-0.64923-0.20382-0.64922h-2.3952l-0.42598 1.2984-1.4498 0.016zm3.7166-2.3292c-0.49439-1.5883-0.76421-2.4178-0.78064-2.4-0.0112 0.012-0.20083 0.59343-0.42168 1.292-0.22084 0.69863-0.40717 1.2798-0.41406 1.2914-7e-3 0.0117 0.36832 0.0212 0.83378 0.0212h0.8463zm2.5803-0.58624v-3.2184l1.2843 0.016 7e-3 2.646 7e-3 2.6461 3.1753 0.014 8e-3 0.55748 8e-3 0.5575h-4.4893zm5.1028 2.1105-8e-3 -1.1079-1.0795-2.08c-0.59372-1.144-1.0795-2.0935-1.0795-2.11 0-0.0204 0.25019-0.0299 0.78388-0.0299h0.78386l0.62849 1.4466c0.34567 0.79564 0.63851 1.4628 0.65076 1.4826 0.0139 0.0225 0.25646-0.51884 0.64507-1.4396l0.62277-1.4756 0.76531-8e-3c0.42091-5e-3 0.76529-1.1e-4 0.76529 9e-3 0 9e-3 -0.48268 0.97024-1.0726 2.1361l-1.0726 2.1198v2.1645h-1.3248zm3.7323-2.11v-3.2179h1.0284c0.95477 0 1.0295 3e-3 1.0437 0.0494 8e-3 0.0272 0.27005 1.1665 0.58144 2.5319 0.3114 1.3654 0.57102 2.4874 0.57695 2.4933 6e-3 6e-3 0.0317-0.0823 0.057-0.19613 0.0255-0.11382 0.28386-1.2549 0.57425-2.5357l0.52798-2.3288 2.0743-0.016v6.4365h-1.2702l-2e-3 -2.4487c-9.8e-4 -1.3468-0.0101-2.4296-0.019-2.4064-9e-3 0.0233-0.26682 1.122-0.57234 2.4416l-0.55547 2.3993-0.83681 8e-3c-0.46022 5e-3 -0.83678 2e-3 -0.83678-5e-3 0-0.0372-1.1324-4.8845-1.1438-4.8958-8e-3 -8e-3 -0.0135 1.0937-0.0135 2.4469v2.4605h-1.2138zm6.9156 0v-3.2179l1.4466 4.6e-4c1.8419 4.5e-4 2.0981 0.0259 2.5786 0.25503 0.39641 0.18896 0.68527 0.58443 0.83392 1.1417 0.0865 0.32406 0.0871 0.95115 9.8e-4 1.2642-0.16744 0.61145-0.59299 1.1034-1.1505 1.3299-0.33963 0.138-0.53075 0.15804-1.5072 0.15804h-0.90445v2.2864h-1.2984zm2.731-0.16946c0.38196-0.0496 0.63729-0.22175 0.77443-0.5221 0.0551-0.12062 0.0646-0.18833 0.0649-0.46575 4.4e-4 -0.37-0.0436-0.50779-0.21771-0.68199-0.23139-0.2314-0.45956-0.27773-1.3678-0.27773h-0.68637v0.96913c0 0.53303 9e-3 0.9776 0.0188 0.98795 0.0285 0.0285 1.1804 0.0208 1.4138-9e-3zm2.4628 0.16894v-3.2184l1.2843 0.016 7e-3 3.2108 7e-3 3.2108h-1.2987z" stroke-width=".028227"/>
   </g>
   <g>
    <g fill-rule="evenodd">
     <path transform="scale(.26458)" d="m-568.14 284.35c-31.161 0-55.293 1.0519-61.182 2.1035-4.7004 0.83945-9.0097 3.5699-11.965 7.3203-2.4859 3.1548-3.999 7.0662-4.2852 12.82 0.28611 5.7541 1.7993 9.6636 4.2852 12.818 2.9552 3.7504 7.2644 6.4828 11.965 7.3223 2.0263 0.36187 6.3379 0.71969 12.27 1.0369l2e-3 0.22286v43.102c0 8.7885 5.9485 16.972 14.295 19.631h-11.541c-1.6485 0-2.593-0.70081-3.4766-1.8516-0.88362-1.1508-1.3477-2.9261-1.3594-3.1602-0.0658-1.8379-1.5428-3.3114-3.3808-3.373-2.072-0.0737-3.7536 1.6597-3.6172 3.7285 0.11452 2.2914 0.97549 4.6797 2.8066 7.0644 1.8312 2.3848 4.9937 4.5898 9.0273 4.5898h34.725c4.7958 0.13224 4.7958-7.1303 0-6.998h-9.709c5.0564-1.4452 7.0405-4.4798 9.3652-8.002l14.129-21.408c1.9401-2.9395 5.0343-2.2037 8.5566 0.49219l30.4 23.268c4.2027 3.2166 11.912 3.8358 18.775-0.13282-1.567 2.0523-5.0137 6.5664-5.0137 6.5664-3.1342 3.7431 2.7734 8.2537 5.5586 4.2441 0 0 17.625-23.078 21.074-27.594 2.4484-3.2056 2.6216-7.0542 1.8379-9.957-0.78368-2.9028-2.1687-5.0377-3.9199-6.5195-0.62265-0.54372-1.4176-0.84953-2.2441-0.86328-3.3206-0.0596-4.8498 4.106-2.2793 6.209 0.17877 0.15141 1.3035 1.5954 1.6816 2.9961 0.37818 1.4008 0.36594 2.5728-0.63476 3.8828-0.78539 1.0282-2.9187 3.823-4.7988 6.2852 2.4422-8.2236-0.25415-15.242-3.3828-18.027l-26.678-23.746-0.30531-0.28427c10.154-0.3879 17.347-0.89219 20.198-1.4013 4.7004-0.83946 9.0097-3.5718 11.965-7.3223 2.4859-3.1548 3.999-7.0642 4.2852-12.818-0.28611-5.7541-1.7993-9.6655-4.2852-12.82-2.9552-3.7504-7.2644-6.4809-11.965-7.3203-5.8882-1.0516-30.019-2.1035-61.18-2.1035z" fill="#1e57a0"/>
     <path d="m-155.84 84.247c0.51972 1.7009 1.2284 4.4885 5.0436 4.4885 3.8152 0 4.5239-2.7876 5.0436-4.4885z" fill="#fff"/>
     <path d="m-133.6 44.611c12.007 5.3418-8.6342 29.773-12.484 28.06s0.47682-33.402 12.484-28.06z" fill="#a5012a"/>
     <path transform="scale(.26458)" d="m-547.14 329.22a2.1429 2.1429 0 0 0-2.1426 2.1426 2.1429 2.1429 0 0 0 2.1426 2.1426 2.1429 2.1429 0 0 0 2.1426-2.1426 2.1429 2.1429 0 0 0-2.1426-2.1426zm-53.305 7.9863-6.5644 6.5664 6.5644 6.5664 6.5664-6.5664zm84.688 1.5215a3.75 3.75 0 0 0-3.75 3.75 3.75 3.75 0 0 0 3.75 3.75 3.75 3.75 0 0 0 3.75-3.75 3.75 3.75 0 0 0-0.12695-0.95703l-3.0898-2.75a3.75 3.75 0 0 0-0.53321-0.043zm-30.758 5.6699a3.5714 3.5714 0 0 0-3.5723 3.5723 3.5714 3.5714 0 0 0 3.5723 3.5703 3.5714 3.5714 0 0 0 3.5703-3.5703 3.5714 3.5714 0 0 0-3.5703-3.5723zm19.656 4.1914-2.6055 1.0801-2.6035 1.0801 2.2383 1.7168 2.2363 1.7148 0.36718-2.7949zm-43.377 1.2734v5.2461h5.2441v-5.2461zm62.998 5.7969a2.0203 2.0203 0 0 0-2.0195 2.0195 2.0203 2.0203 0 0 0 2.0195 2.0215 2.0203 2.0203 0 0 0 2.0215-2.0215 2.0203 2.0203 0 0 0-2.0215-2.0195zm-78.475 0.3457a1.5179 1.5179 0 0 0-1.5176 1.5176 1.5179 1.5179 0 0 0 1.5176 1.5176 1.5179 1.5179 0 0 0 1.5176-1.5176 1.5179 1.5179 0 0 0-1.5176-1.5176zm-16.988 2.9863 0.95703 1.6582 0.95703 1.6582 0.95703-1.6582 0.95703-1.6582h-1.9141zm-10.764 1.5957-3.5859 2.2988v4.3828l1.584 2.4707 5.5781-3.5742zm91.359 1.2285a2.2728 2.2728 0 0 0-2.2734 2.2715 2.2728 2.2728 0 0 0 2.2734 2.2734 2.2728 2.2728 0 0 0 2.2734-2.2734 2.2728 2.2728 0 0 0-2.2734-2.2715zm-12.848 0.53516a3.504 3.504 0 0 0-3.5039 3.5039 3.504 3.504 0 0 0 3.5039 3.5039 3.504 3.504 0 0 0 3.5039-3.5039 3.504 3.504 0 0 0-3.5039-3.5039zm-14.732 0.61914a3.5714 3.5714 0 0 0-3.2598 2.1172l5.5156 4.2207a3.5714 3.5714 0 0 0 1.3164-2.7676 3.5714 3.5714 0 0 0-3.5723-3.5703zm-28.191 5.7578a1.7411 1.7411 0 0 0-1.7422 1.7422 1.7411 1.7411 0 0 0 1.7422 1.7402 1.7411 1.7411 0 0 0 1.7402-1.7402 1.7411 1.7411 0 0 0-1.7402-1.7422zm-21.406 0.84961a3.3036 3.3036 0 0 0-3.3047 3.3027 3.3036 3.3036 0 0 0 3.3047 3.3027 3.3036 3.3036 0 0 0 3.3027-3.3027 3.3036 3.3036 0 0 0-3.3027-3.3027zm94.688 1.8066a1.9866 1.9866 0 0 0-1.9863 1.9863 1.9866 1.9866 0 0 0 1.9863 1.9863 1.9866 1.9866 0 0 0 1.9863-1.9863 1.9866 1.9866 0 0 0-1.9863-1.9863zm-16.094 4.666a3.058 3.058 0 0 0-3.0586 3.0566 3.058 3.058 0 0 0 3.0586 3.0586 3.058 3.058 0 0 0 3.0566-3.0586 3.058 3.058 0 0 0-3.0566-3.0566zm-89.264 6.2051a2.9018 2.9018 0 0 0-2.584 1.5859c1.1442 1.454 2.4682 2.766 3.9531 3.873a2.9018 2.9018 0 0 0 1.5332-2.5566 2.9018 2.9018 0 0 0-2.9024-2.9024zm18.373 0.2793-2.623 1.457-2.6211 1.457 2.5723 1.543 2.5723 1.541 0.0508-2.998z" fill="#fff"/>
    </g>
    <g>
     <path d="m-144.3 133.28c0.50744-0.52822 1.4918-1.1231 2.7677-0.49215 0.0428 0.0202 0.16507 0.0929 0.23171 0.13756 0.46159 0.30874 2.1386 1.8414 0.12961 4.3945-0.26411 0.33686-1.6128 2.0139-4.3945 1.691-2.989-0.34603-4.7351-3.1626-4.0785-5.8007 0 0-0.24455 1.7455 1.2912 2.3844 0.69574 0.29162 1.8965 0.50866 2.7298-0.15162 0.34053-0.26962 0.66212-0.6933 0.89444-1.3505 0.0342-0.0942 0.14856-0.51906 0.42857-0.81252" fill="#1e57a0"/>
     <path d="m-154.23 133.37c0.50683-0.52884 1.4918-1.1237 2.7677-0.49338 0.0422 0.0208 0.16446 0.0929 0.23232 0.13817 0.46098 0.30875 2.1368 1.8415 0.129 4.3946-0.2635 0.33686-1.6134 2.0145-4.3958 1.691-2.9878-0.34604-4.7345-3.1614-4.0766-5.8001 0 0-0.24638 1.7449 1.2888 2.3844 0.69758 0.29041 1.8989 0.50806 2.7328-0.15223 0.33992-0.269 0.66089-0.69207 0.89382-1.3505 0.033-0.0929 0.14795-0.51905 0.42796-0.8119" fill="#a5012a"/>
     <path d="m-149.87 126.88c0.50682-0.52822 1.4911-1.1219 2.7677-0.49215 0.0422 0.0196 0.16323 0.0929 0.2311 0.13756 0.46219 0.30874 2.1374 1.8421 0.12961 4.3952-0.26412 0.33625-1.6134 2.0132-4.3945 1.6911-2.9884-0.34604-4.7357-3.1626-4.0785-5.8007 0 0-0.24516 1.7448 1.29 2.3837 0.69696 0.29101 1.8989 0.50927 2.7322-0.15162 0.33992-0.26962 0.66028-0.69208 0.89321-1.3493 0.0342-0.0941 0.14796-0.51967 0.42919-0.81374" fill="#249a47"/>
    </g>
   </g>
  </g>
 </g>
</svg>
