<svg xmlns="http://www.w3.org/2000/svg" xmlns:xlink="http://www.w3.org/1999/xlink" width="584" height="296" viewBox="0 0 154.51666 78.316669">
  <defs>
    <path id="a" d="M-7.7687996 101.02435c-14.3990504-3.304697-34.0502124.35408-52.5801374 11.03534-29.093163 16.75955-44.436413 44.49543-34.404288 61.90412 6.432363 11.15336 21.7166 15.34325 39.479362 12.62867-8.143724-1.8884-14.576087-5.96026-18.175849-12.21559-10.032125-17.40868 5.311124-45.14456 34.345275-61.90411 10.445212-6.07829 21.303512-9.85509 31.3356374-11.44843m.23605 68.74957c4.3079125 14.10399 17.290663 29.32921 35.8795996 40.01047 29.03415 16.75955 60.723863 16.22844 70.815002-1.18025 6.432358-11.15336 2.478518-26.49661-8.792864-40.48257 2.419514 7.96669 2.124454 15.5793-1.475313 21.89364-10.032125 17.40868-41.78085 17.9398-70.815 1.18025-10.5042246-6.01928-19.2380746-13.51387-25.6114246-21.42154"/>
    <path id="b" d="M-27.183912 135.54666c-10.091138 10.79929-16.700538 29.62428-16.700538 51.10483 0 33.5191 16.28745 60.72387 36.4107129 60.72387 12.8647255 0 24.1361121-11.09435 30.6274871-27.8539-5.6652 6.07828-12.451637 9.61903-19.7101746 9.61903-20.1232624 0-36.4107124-27.20476-36.4107124-60.72386-.05901-12.09756 2.065437-23.36895 5.783225-32.86997"/>
  </defs>
  <path fill="#cd7f32" stroke="#a05a2c" stroke-width="1.85207538" d="M153.59062416 39.1583335c0 21.111785-17.11698555 38.23228845-38.23229105 38.23228845-21.1153068 0-38.23229361-17.12050345-38.23229361-38.23228845 0-21.11178735 17.1169868-38.23229108 38.23229361-38.23229108 21.1153055 0 38.23229105 17.12050373 38.23229105 38.23229108z"/>
  <g fill="#784414" stroke-width=".590125" transform="translate(114.77317 -6.776541) scale(.26458)">
    <use xlink:href="#a"/>
    <use xlink:href="#b"/>
  </g>
  <path fill="#ccc" stroke="#999" stroke-width="1.85207538" d="M115.49062616 39.1583345c0 21.111785-17.11698555 38.23228845-38.23229105 38.23228845-21.1153068 0-38.23229361-17.12050345-38.23229361-38.23228845 0-21.11178735 17.1169868-38.23229108 38.23229361-38.23229108 21.1153055 0 38.23229105 17.12050373 38.23229105 38.23229108z"/>
  <g fill="#666" stroke-width=".590125" transform="translate(76.673175 -6.77654) scale(.26458)">
    <use xlink:href="#a"/>
    <use xlink:href="#b"/>
  </g>
  <path fill="#ffcd00" stroke="#ffb72a" stroke-width="1.85207538" d="M77.39062716 39.1583335c0 21.111785-17.11698555 38.23228845-38.23229105 38.23228845-21.1153068 0-38.23229361-17.12050345-38.23229361-38.23228845 0-21.11178735 17.1169868-38.23229108 38.23229361-38.23229108 21.1153055 0 38.23229105 17.12050373 38.23229105 38.23229108z"/>
  <g fill="#d29a02" stroke-width=".590125" transform="translate(38.573176 -6.776541) scale(.26458)">
    <use xlink:href="#a"/>
    <use xlink:href="#b"/>
  </g>
</svg>