<?xml version="1.0" encoding="utf-8"?>
<!-- Generator: Adobe Illustrator 23.0.1, SVG Export Plug-In . SVG Version: 6.00 Build 0)  -->
<svg version="1.1" id="Livello_1" xmlns="http://www.w3.org/2000/svg" xmlns:xlink="http://www.w3.org/1999/xlink" x="0px" y="0px"
	 viewBox="0 0 339.033 250.015" enable-background="new 0 0 339.033 250.015" xml:space="preserve">
<g>
	<path fill="#F0282D" d="M152.608,2.001C128.222-3.613,94.925,2.57,63.466,20.733C14.249,49.148-11.828,96.122,5.221,125.653
		c10.894,18.87,36.761,26.049,66.858,21.361c-13.765-3.168-24.692-10.095-30.844-20.75c-17.049-29.53,9.029-76.504,58.246-104.92
		C117.249,11.085,135.603,4.65,152.608,2.001"/>
	<path fill="#00A651" d="M153.033,118.51c7.331,23.925,29.333,49.67,60.793,67.833c49.217,28.415,102.937,27.512,119.986-2.018
		c10.894-18.87,4.178-44.861-14.931-68.582c4.139,13.506,3.604,26.431-2.549,37.086c-17.049,29.531-70.768,30.434-119.986,2.018
		C178.579,144.589,163.83,131.911,153.033,118.51"/>
	<path fill="#0078D0" d="M119.661,60.548c-17.055,18.311-28.349,50.239-28.349,86.564c0,56.832,27.643,102.902,61.741,102.902
		c21.788,0,40.94-18.813,51.928-47.22c-9.627,10.337-21.089,16.336-33.392,16.336c-34.098,0-61.741-46.071-61.741-102.902
		C109.848,95.712,113.452,76.6,119.661,60.548"/>
</g>
</svg>
