<?xml version="1.0" encoding="UTF-8" standalone="no"?>
<!-- Created with Inkscape (http://www.inkscape.org/) -->

<svg
   width="16.021755mm"
   height="15.986477mm"
   viewBox="0 0 16.021755 15.986477"
   version="1.1"
   id="svg1"
   inkscape:version="1.4 (e7c3feb1, 2024-10-09)"
   sodipodi:docname="AQ.svg"
   xmlns:inkscape="http://www.inkscape.org/namespaces/inkscape"
   xmlns:sodipodi="http://sodipodi.sourceforge.net/DTD/sodipodi-0.dtd"
   xmlns="http://www.w3.org/2000/svg"
   xmlns:svg="http://www.w3.org/2000/svg">
  <sodipodi:namedview
     id="namedview1"
     pagecolor="#ffffff"
     bordercolor="#000000"
     borderopacity="0.25"
     inkscape:showpageshadow="2"
     inkscape:pageopacity="0.0"
     inkscape:pagecheckerboard="0"
     inkscape:deskcolor="#d1d1d1"
     inkscape:document-units="mm"
     inkscape:zoom="3.4212031"
     inkscape:cx="12.714825"
     inkscape:cy="35.806118"
     inkscape:window-width="1440"
     inkscape:window-height="872"
     inkscape:window-x="0"
     inkscape:window-y="28"
     inkscape:window-maximized="0"
     inkscape:current-layer="layer1" />
  <defs
     id="defs1">
    <clipPath
       clipPathUnits="userSpaceOnUse"
       id="clipPath22">
      <path
         d="M 0,0 H 841.89 V 595.276 H 0 Z"
         transform="translate(-116.31291,-375.94591)"
         id="path22" />
    </clipPath>
    <clipPath
       clipPathUnits="userSpaceOnUse"
       id="clipPath24">
      <path
         d="M 0,0 H 841.89 V 595.276 H 0 Z"
         transform="translate(-139.1415,-392.50891)"
         id="path24" />
    </clipPath>
    <clipPath
       clipPathUnits="userSpaceOnUse"
       id="clipPath26">
      <path
         d="M 0,0 H 841.89 V 595.276 H 0 Z"
         transform="translate(-125.1015,-387.80331)"
         id="path26" />
    </clipPath>
    <clipPath
       clipPathUnits="userSpaceOnUse"
       id="clipPath28">
      <path
         d="M 0,0 H 841.89 V 595.276 H 0 Z"
         transform="translate(-116.4081,-398.42731)"
         id="path28" />
    </clipPath>
    <clipPath
       clipPathUnits="userSpaceOnUse"
       id="clipPath30">
      <path
         d="M 0,0 H 841.89 V 595.276 H 0 Z"
         transform="translate(-112.43691,-405.29651)"
         id="path30" />
    </clipPath>
    <clipPath
       clipPathUnits="userSpaceOnUse"
       id="clipPath32">
      <path
         d="M 0,0 H 841.89 V 595.276 H 0 Z"
         transform="translate(-118.95111,-403.44641)"
         id="path32" />
    </clipPath>
    <clipPath
       clipPathUnits="userSpaceOnUse"
       id="clipPath34">
      <path
         d="M 0,0 H 841.89 V 595.276 H 0 Z"
         transform="translate(-136.1908,-382.59821)"
         id="path34" />
    </clipPath>
    <clipPath
       clipPathUnits="userSpaceOnUse"
       id="clipPath36">
      <path
         d="M 0,0 H 841.89 V 595.276 H 0 Z"
         transform="translate(-141.81291,-390.33991)"
         id="path36" />
    </clipPath>
    <clipPath
       clipPathUnits="userSpaceOnUse"
       id="clipPath38">
      <path
         d="M 0,0 H 841.89 V 595.276 H 0 Z"
         transform="translate(-109.13571,-383.44741)"
         id="path38" />
    </clipPath>
    <clipPath
       clipPathUnits="userSpaceOnUse"
       id="clipPath40">
      <path
         d="M 0,0 H 841.89 V 595.276 H 0 Z"
         transform="translate(-144.1542,-387.93421)"
         id="path40" />
    </clipPath>
    <clipPath
       clipPathUnits="userSpaceOnUse"
       id="clipPath44">
      <path
         d="M 0,0 H 841.89 V 595.276 H 0 Z"
         transform="translate(-144.82611,-381.53181)"
         id="path44" />
    </clipPath>
  </defs>
  <g
     inkscape:label="Layer 1"
     inkscape:groupmode="layer"
     id="layer1"
     transform="translate(-100.54167,-134.67291)">
    <path
       id="path21"
       d="m 0,0 c -6.806,0 -12.326,5.505 -12.326,12.301 v 20.715 c 0,6.796 5.52,12.3 12.326,12.3 h 20.764 c 6.806,0 12.326,-5.504 12.326,-12.3 V 12.301 C 33.09,5.505 27.57,0 20.764,0 Z m -8.064,41.06 c -2.064,-2.06 -3.339,-4.901 -3.34,-8.044 V 12.301 c 0,-3.143 1.276,-5.984 3.34,-8.044 C -6,2.198 -3.151,0.925 0,0.924 h 20.764 c 3.151,0.001 6,1.274 8.064,3.333 2.065,2.06 3.34,4.901 3.34,8.044 v 20.715 c 0,3.143 -1.275,5.984 -3.34,8.044 -2.064,2.058 -4.913,3.331 -8.064,3.332 H 0 C -3.151,44.391 -6,43.118 -8.064,41.06"
       style="fill:#231f20;fill-opacity:1;fill-rule:nonzero;stroke:none"
       transform="matrix(0.35277776,0,0,-0.35277776,104.89001,150.65939)"
       clip-path="url(#clipPath22)" />
    <path
       id="path23"
       d="M 0,0 C -0.296,1.291 -1.681,2.095 -2.725,2.504 -3.504,2.895 -6.523,3.455 -7.302,2.922 -7.207,2.989 -4.577,0.347 -5,-0.247 -5.12,-0.09 -6.689,1.977 -6.961,1.72 c 0.004,0.011 2.091,-2.931 2.177,-3.071 0.466,-0.791 0.996,-1.212 1.784,-1.388 1.359,-0.297 3.284,0.982 2.694,2.579"
       style="fill:#231f20;fill-opacity:1;fill-rule:nonzero;stroke:none"
       transform="matrix(0.35277776,0,0,-0.35277776,112.94343,144.81632)"
       clip-path="url(#clipPath24)" />
    <path
       id="path25"
       d="m 0,0 c 1.541,-0.244 3.096,-0.379 4.651,-0.379 1.557,0.001 5.652,0.473 6.169,0.597 0.317,0.076 0.842,0.144 1.277,0.268 -0.564,0.239 -1.261,0.666 -1.813,0.969 -1.366,0.749 -4.701,3.519 -5.486,5.846 0,0 6.62,3.348 6.356,3.857 -0.265,0.51 -9.05,-1.686 -9.358,-2.131 -1.26,-1.535 1.372,-6.14 1.372,-6.14 0,0 -2.057,-1.139 -4.262,-2.693 C -0.73,0.124 -0.365,0.059 0,0"
       style="fill:#231f20;fill-opacity:1;fill-rule:nonzero;stroke:none"
       transform="matrix(0.35277776,0,0,-0.35277776,107.99043,146.47636)"
       clip-path="url(#clipPath26)" />
    <path
       id="path27"
       d="M 0,0 C 1.816,0.315 1.968,2.812 0.95,3.924 0.359,4.566 -0.323,4.831 -1.316,4.84 -1.495,4.845 -5.384,5.201 -5.375,5.211 -5.467,4.815 -2.681,4.469 -2.468,4.443 -2.794,3.723 -6.697,4.75 -6.687,4.877 -6.76,3.857 -4.598,1.333 -3.808,0.816 c 0.95,-0.754 2.455,-1.615 3.824,-1.189"
       style="fill:#231f20;fill-opacity:1;fill-rule:nonzero;stroke:none"
       transform="matrix(0.35277776,0,0,-0.35277776,104.9236,142.72844)"
       clip-path="url(#clipPath28)" />
    <path
       id="path29"
       d="m 0,0 c 0.22,-0.324 1.611,-1.982 7.464,-0.79 2.479,0.504 2.53,-0.603 2.403,-1.109 0.281,0.201 0.395,0.371 0.456,0.472 0.14,0.233 1.509,2.637 -2.161,2.935 C 4.49,1.806 4.219,2.376 4.426,4.645 4.519,5.664 6,5.411 6.159,2.453 L 9.546,2.097 c 0,0 0.388,2.028 0.214,3.891 C 9.658,7.079 8.717,10.856 5.09,10.807 2.532,10.772 0.893,9.008 0.172,7.627 -1.293,4.819 -1.151,1.703 0,0"
       style="fill:#231f20;fill-opacity:1;fill-rule:nonzero;stroke:none"
       transform="matrix(0.35277776,0,0,-0.35277776,103.52265,140.30514)"
       clip-path="url(#clipPath30)" />
    <path
       id="path31"
       d="m 0,0 c 0,0 -0.053,-5.416 -0.492,-7.803 0,0 0.433,-0.109 0.596,0.107 0.163,0.218 2.42,4.3 2.731,7.597 C 2.91,0.687 1.904,0.399 1.584,0.372 1.118,0.33 0.239,0.06 0,0"
       style="fill:#231f20;fill-opacity:1;fill-rule:nonzero;stroke:none"
       transform="matrix(0.35277776,0,0,-0.35277776,105.82071,140.95782)"
       clip-path="url(#clipPath32)" />
    <path
       id="path33"
       d="m 0,0 c -0.276,-0.199 -2.466,-0.975 -2.792,-1.061 -0.327,-0.086 -1.496,-0.283 -3.851,-0.315 -2.355,-0.034 -5.156,0.75 -7.701,1.355 -5.228,1.239 -8.52,0.868 -13.118,-1.298 -0.248,-0.113 -0.111,-0.143 0.16,-0.419 0.056,-0.094 0.187,-0.029 0.412,0 0.124,0.015 2.589,1.125 5.832,1.42 2.658,0.241 5.456,-0.238 6.909,-0.635 2.795,-0.766 4.044,-1.225 6.387,-1.423 2.344,-0.199 2.992,-0.126 4.002,0.011 0.395,0.052 0.802,0.122 1.21,0.211 0.41,0.09 0.822,0.199 1.226,0.334 0.404,0.132 0.803,0.289 1.183,0.474 0.381,0.185 0.746,0.397 1.086,0.641 0.087,0.063 0.093,0.154 0.046,0.251 C 0.946,-0.358 0.848,-0.256 0.729,-0.168 0.609,-0.081 0.468,-0.009 0.337,0.025 0.205,0.061 0.083,0.059 0,0"
       style="fill:#231f20;fill-opacity:1;fill-rule:nonzero;stroke:none"
       transform="matrix(0.35277776,0,0,-0.35277776,111.90249,148.3126)"
       clip-path="url(#clipPath34)" />
    <path
       id="path35"
       d="m 0,0 c -0.444,-0.282 -0.915,-0.529 -1.406,-0.746 -0.491,-0.219 -0.69,-0.348 -1.208,-0.513 -0.519,-0.167 -1.467,-0.429 -1.996,-0.556 -0.525,-0.126 -4.6,-0.708 -6.18,-0.709 -1.581,0 -3.16,0.136 -4.723,0.384 -1.564,0.249 -3.111,0.61 -4.628,1.059 -1.516,0.451 -2.999,0.989 -4.438,1.591 -0.257,0.109 -1.02,-0.309 -0.929,-0.44 0.092,-0.129 0.261,-0.262 0.522,-0.372 1.492,-0.624 3.013,-1.181 4.558,-1.65 1.545,-0.47 3.114,-0.854 4.699,-1.133 1.586,-0.279 3.189,-0.453 4.803,-0.508 1.613,-0.053 3.24,0.016 4.871,0.224 0.638,0.082 1.294,0.185 1.955,0.318 0.66,0.132 1.326,0.292 1.979,0.486 0.651,0.193 1.293,0.419 1.908,0.683 0.614,0.265 1.202,0.568 1.747,0.915 0.141,0.09 0.15,0.216 0.073,0.35 C 1.533,-0.483 1.373,-0.342 1.18,-0.222 0.986,-0.102 0.757,-0.005 0.544,0.042 0.331,0.089 0.134,0.085 0,0"
       style="fill:#231f20;fill-opacity:1;fill-rule:nonzero;stroke:none"
       transform="matrix(0.35277776,0,0,-0.35277776,113.88584,145.5815)"
       clip-path="url(#clipPath36)" />
    <path
       id="path37"
       d="m 0,0 c 0.307,0.215 1.313,0.709 1.672,0.847 0.358,0.136 1.102,0.313 1.466,0.42 0.365,0.108 3.354,0.739 4.497,0.779 1.146,0.039 2.288,-0.062 3.421,-0.22 1.131,-0.161 2.254,-0.41 3.361,-0.731 1.108,-0.323 2.193,-0.581 3.262,-1.029 0.089,-0.037 0.184,-0.067 0.281,-0.093 0.098,-0.026 0.2,-0.046 0.303,-0.061 0.102,-0.015 0.206,-0.026 0.307,-0.032 0.102,-0.005 0.398,0.191 0.332,0.219 C 17.759,0.578 16.588,1 15.396,1.356 14.204,1.713 12.991,2.001 11.767,2.208 10.542,2.415 9.306,2.542 8.068,2.574 6.829,2.607 5.588,2.546 4.352,2.378 3.852,2.31 3.334,2.222 2.814,2.112 2.293,2 1.77,1.865 1.255,1.704 0.741,1.541 0.236,1.348 -0.244,1.124 -0.727,0.899 -1.184,0.641 -1.606,0.345 -1.612,0.341 -1.538,0.303 -1.416,0.25 -1.293,0.197 -1.124,0.132 -0.944,0.074 -0.764,0.016 -0.572,-0.032 -0.404,-0.052 -0.235,-0.072 -0.087,-0.061 0,0"
       style="fill:#231f20;fill-opacity:1;fill-rule:nonzero;stroke:none"
       transform="matrix(0.35277776,0,0,-0.35277776,102.35806,148.01302)"
       clip-path="url(#clipPath38)" />
    <path
       id="path39"
       d="m 0,0 c -0.289,-0.251 -2.686,-1.395 -3.047,-1.535 -0.362,-0.138 -3.243,-1.145 -4.362,-1.278 -1.119,-0.134 -2.25,-0.165 -3.38,-0.108 -1.13,0.056 -2.259,0.198 -3.375,0.409 -1.114,0.212 -2.215,0.493 -3.289,0.826 -0.192,0.06 -0.694,-0.319 -0.617,-0.41 0.076,-0.09 0.208,-0.175 0.404,-0.236 1.114,-0.346 2.241,-0.638 3.379,-0.862 1.138,-0.225 2.283,-0.382 3.432,-0.459 1.148,-0.077 2.299,-0.075 3.448,0.022 1.148,0.095 2.294,0.284 3.429,0.579 0.444,0.115 0.9,0.248 1.356,0.403 0.454,0.157 0.912,0.334 1.356,0.535 0.444,0.2 0.878,0.425 1.288,0.676 0.411,0.252 0.799,0.53 1.153,0.837 0.092,0.08 0.087,0.176 0.021,0.271 C 1.13,-0.236 1.005,-0.143 0.856,-0.068 0.707,0.006 0.537,0.061 0.383,0.077 0.228,0.095 0.088,0.074 0,0"
       style="fill:#231f20;fill-opacity:1;fill-rule:nonzero;stroke:none"
       transform="matrix(0.35277776,0,0,-0.35277776,114.7118,146.43018)"
       clip-path="url(#clipPath40)" />
    <path
       id="path41"
       d="m 112.74433,148.37941 h -0.27552 v -0.0776 h 0.65123 v 0.0776 h -0.2734 v 0.69674 h -0.10231 z"
       style="fill:#231f20;fill-opacity:1;fill-rule:nonzero;stroke:none;stroke-width:0.352778" />
    <path
       id="path42"
       d="m 113.23765,148.30191 h 0.14464 l 0.21625,0.60819 h 0.002 l 0.2219,-0.60819 h 0.12947 v 0.77399 h -0.0956 v -0.63852 h -0.002 l -0.21449,0.58702 h -0.10125 l -0.2092,-0.58702 h -0.002 v 0.63852 h -0.09 z"
       style="fill:#231f20;fill-opacity:1;fill-rule:nonzero;stroke:none;stroke-width:0.352778" />
    <path
       id="path43"
       d="m 0,0 c 0,-0.604 -0.491,-1.098 -1.098,-1.098 -0.603,0 -1.099,0.494 -1.099,1.098 0,0.607 0.496,1.097 1.099,1.097 C -0.491,1.097 0,0.607 0,0 m -2.02,0 c 0,-0.518 0.402,-0.924 0.922,-0.924 0.518,0 0.923,0.406 0.923,0.924 0,0.516 -0.405,0.921 -0.923,0.921 C -1.618,0.921 -2.02,0.516 -2.02,0 m 1.319,-0.557 c -0.106,-0.039 -0.239,-0.069 -0.355,-0.069 -0.364,0 -0.606,0.258 -0.606,0.619 0,0.326 0.205,0.624 0.611,0.624 0.134,0 0.279,-0.028 0.35,-0.048 v -0.17 c -0.101,0.041 -0.221,0.077 -0.336,0.077 -0.282,0 -0.419,-0.222 -0.419,-0.483 0,-0.264 0.159,-0.463 0.432,-0.463 0.116,0 0.228,0.028 0.323,0.086 z"
       style="fill:#231f20;fill-opacity:1;fill-rule:nonzero;stroke:none"
       transform="matrix(0.35277776,0,0,-0.35277776,114.94883,148.6888)"
       clip-path="url(#clipPath44)" />
  </g>
</svg>
