<?xml version="1.0" encoding="UTF-8" standalone="no"?>
<!-- Created with Inkscape (http://www.inkscape.org/) -->

<svg
   width="16.022461mm"
   height="15.986124mm"
   viewBox="0 0 16.022461 15.986124"
   version="1.1"
   id="svg1"
   inkscape:version="1.4 (e7c3feb1, 2024-10-09)"
   sodipodi:docname="CSP.svg"
   xmlns:inkscape="http://www.inkscape.org/namespaces/inkscape"
   xmlns:sodipodi="http://sodipodi.sourceforge.net/DTD/sodipodi-0.dtd"
   xmlns="http://www.w3.org/2000/svg"
   xmlns:svg="http://www.w3.org/2000/svg">
  <sodipodi:namedview
     id="namedview1"
     pagecolor="#ffffff"
     bordercolor="#000000"
     borderopacity="0.25"
     inkscape:showpageshadow="2"
     inkscape:pageopacity="0.0"
     inkscape:pagecheckerboard="0"
     inkscape:deskcolor="#d1d1d1"
     inkscape:document-units="mm"
     inkscape:zoom="3.4212031"
     inkscape:cx="29.960221"
     inkscape:cy="30.252516"
     inkscape:window-width="1440"
     inkscape:window-height="872"
     inkscape:window-x="0"
     inkscape:window-y="28"
     inkscape:window-maximized="0"
     inkscape:current-layer="layer1" />
  <defs
     id="defs1">
    <clipPath
       clipPathUnits="userSpaceOnUse"
       id="clipPath22">
      <path
         d="M 0,0 H 841.89 V 595.276 H 0 Z"
         transform="translate(-116.31291,-375.94591)"
         id="path22" />
    </clipPath>
    <clipPath
       clipPathUnits="userSpaceOnUse"
       id="clipPath24">
      <path
         d="M 0,0 H 841.89 V 595.276 H 0 Z"
         transform="translate(-139.1415,-392.50891)"
         id="path24" />
    </clipPath>
    <clipPath
       clipPathUnits="userSpaceOnUse"
       id="clipPath26">
      <path
         d="M 0,0 H 841.89 V 595.276 H 0 Z"
         transform="translate(-125.1015,-387.80331)"
         id="path26" />
    </clipPath>
    <clipPath
       clipPathUnits="userSpaceOnUse"
       id="clipPath28">
      <path
         d="M 0,0 H 841.89 V 595.276 H 0 Z"
         transform="translate(-116.4081,-398.42731)"
         id="path28" />
    </clipPath>
    <clipPath
       clipPathUnits="userSpaceOnUse"
       id="clipPath30">
      <path
         d="M 0,0 H 841.89 V 595.276 H 0 Z"
         transform="translate(-112.43691,-405.29651)"
         id="path30" />
    </clipPath>
    <clipPath
       clipPathUnits="userSpaceOnUse"
       id="clipPath32">
      <path
         d="M 0,0 H 841.89 V 595.276 H 0 Z"
         transform="translate(-118.95111,-403.44641)"
         id="path32" />
    </clipPath>
    <clipPath
       clipPathUnits="userSpaceOnUse"
       id="clipPath34">
      <path
         d="M 0,0 H 841.89 V 595.276 H 0 Z"
         transform="translate(-136.1908,-382.59821)"
         id="path34" />
    </clipPath>
    <clipPath
       clipPathUnits="userSpaceOnUse"
       id="clipPath36">
      <path
         d="M 0,0 H 841.89 V 595.276 H 0 Z"
         transform="translate(-141.81291,-390.33991)"
         id="path36" />
    </clipPath>
    <clipPath
       clipPathUnits="userSpaceOnUse"
       id="clipPath38">
      <path
         d="M 0,0 H 841.89 V 595.276 H 0 Z"
         transform="translate(-109.13571,-383.44741)"
         id="path38" />
    </clipPath>
    <clipPath
       clipPathUnits="userSpaceOnUse"
       id="clipPath40">
      <path
         d="M 0,0 H 841.89 V 595.276 H 0 Z"
         transform="translate(-144.1542,-387.93421)"
         id="path40" />
    </clipPath>
    <clipPath
       clipPathUnits="userSpaceOnUse"
       id="clipPath44">
      <path
         d="M 0,0 H 841.89 V 595.276 H 0 Z"
         transform="translate(-144.82611,-381.53181)"
         id="path44" />
    </clipPath>
    <clipPath
       clipPathUnits="userSpaceOnUse"
       id="clipPath148">
      <path
         d="M 0,0 H 841.89 V 595.276 H 0 Z"
         transform="translate(-203.72161,-375.94491)"
         id="path148" />
    </clipPath>
    <clipPath
       clipPathUnits="userSpaceOnUse"
       id="clipPath150">
      <path
         d="M 0,0 H 841.89 V 595.276 H 0 Z"
         transform="translate(-227.7187,-401.97671)"
         id="path150" />
    </clipPath>
    <clipPath
       clipPathUnits="userSpaceOnUse"
       id="clipPath152">
      <path
         d="M 0,0 H 841.89 V 595.276 H 0 Z"
         transform="translate(-208.15131,-404.98461)"
         id="path152" />
    </clipPath>
    <clipPath
       clipPathUnits="userSpaceOnUse"
       id="clipPath154">
      <path
         d="M 0,0 H 841.89 V 595.276 H 0 Z"
         transform="translate(-215.76651,-396.58801)"
         id="path154" />
    </clipPath>
    <clipPath
       clipPathUnits="userSpaceOnUse"
       id="clipPath170">
      <path
         d="M 0,0 H 841.89 V 595.276 H 0 Z"
         transform="translate(-232.2265,-381.55531)"
         id="path170" />
    </clipPath>
    <clipPath
       clipPathUnits="userSpaceOnUse"
       id="clipPath80">
      <path
         d="M 0,0 H 841.89 V 595.276 H 0 Z"
         transform="translate(-291.13081,-375.94491)"
         id="path80" />
    </clipPath>
    <clipPath
       clipPathUnits="userSpaceOnUse"
       id="clipPath82">
      <path
         d="M 0,0 H 841.89 V 595.276 H 0 Z"
         transform="translate(-312.07221,-408.45181)"
         id="path82" />
    </clipPath>
    <clipPath
       clipPathUnits="userSpaceOnUse"
       id="clipPath84">
      <path
         d="M 0,0 H 841.89 V 595.276 H 0 Z"
         transform="translate(-318.26261,-405.37271)"
         id="path84" />
    </clipPath>
    <clipPath
       clipPathUnits="userSpaceOnUse"
       id="clipPath103">
      <path
         d="M 0,0 H 841.89 V 595.276 H 0 Z"
         transform="translate(-319.63711,-381.55531)"
         id="path103" />
    </clipPath>
    <clipPath
       clipPathUnits="userSpaceOnUse"
       id="clipPath105">
      <path
         d="M 0,0 H 841.89 V 595.276 H 0 Z"
         transform="translate(-378.54291,-375.94491)"
         id="path105" />
    </clipPath>
    <clipPath
       clipPathUnits="userSpaceOnUse"
       id="clipPath107">
      <path
         d="M 0,0 H 841.89 V 595.276 H 0 Z"
         transform="translate(-388.22751,-406.46441)"
         id="path107" />
    </clipPath>
    <clipPath
       clipPathUnits="userSpaceOnUse"
       id="clipPath109">
      <path
         d="M 0,0 H 841.89 V 595.276 H 0 Z"
         transform="translate(-399.21871,-404.85851)"
         id="path109" />
    </clipPath>
    <clipPath
       clipPathUnits="userSpaceOnUse"
       id="clipPath111">
      <path
         d="M 0,0 H 841.89 V 595.276 H 0 Z"
         transform="translate(-398.46961,-403.62021)"
         id="path111" />
    </clipPath>
    <clipPath
       clipPathUnits="userSpaceOnUse"
       id="clipPath113">
      <path
         d="M 0,0 H 841.89 V 595.276 H 0 Z"
         transform="translate(-392.92381,-412.60211)"
         id="path113" />
    </clipPath>
    <clipPath
       clipPathUnits="userSpaceOnUse"
       id="clipPath115">
      <path
         d="M 0,0 H 841.89 V 595.276 H 0 Z"
         transform="translate(-381.55561,-411.76331)"
         id="path115" />
    </clipPath>
    <clipPath
       clipPathUnits="userSpaceOnUse"
       id="clipPath117">
      <path
         d="M 0,0 H 841.89 V 595.276 H 0 Z"
         transform="translate(-378.83101,-412.57871)"
         id="path117" />
    </clipPath>
    <clipPath
       clipPathUnits="userSpaceOnUse"
       id="clipPath119">
      <path
         d="M 0,0 H 841.89 V 595.276 H 0 Z"
         transform="translate(-392.68351,-413.64611)"
         id="path119" />
    </clipPath>
    <clipPath
       clipPathUnits="userSpaceOnUse"
       id="clipPath121">
      <path
         d="M 0,0 H 841.89 V 595.276 H 0 Z"
         transform="translate(-395.06831,-415.78961)"
         id="path121" />
    </clipPath>
    <clipPath
       clipPathUnits="userSpaceOnUse"
       id="clipPath123">
      <path
         d="M 0,0 H 841.89 V 595.276 H 0 Z"
         transform="translate(-394.66791,-411.71051)"
         id="path123" />
    </clipPath>
    <clipPath
       clipPathUnits="userSpaceOnUse"
       id="clipPath125">
      <path
         d="M 0,0 H 841.89 V 595.276 H 0 Z"
         transform="translate(-393.35831,-411.70421)"
         id="path125" />
    </clipPath>
    <clipPath
       clipPathUnits="userSpaceOnUse"
       id="clipPath146">
      <path
         d="M 0,0 H 841.89 V 595.276 H 0 Z"
         transform="translate(-407.04781,-381.55531)"
         id="path146" />
    </clipPath>
    <clipPath
       clipPathUnits="userSpaceOnUse"
       id="clipPath172">
      <path
         d="M 0,0 H 841.89 V 595.276 H 0 Z"
         transform="translate(-465.95301,-375.99521)"
         id="path172" />
    </clipPath>
    <clipPath
       clipPathUnits="userSpaceOnUse"
       id="clipPath193">
      <path
         d="M 0,0 H 841.89 V 595.276 H 0 Z"
         transform="translate(-494.45991,-381.60611)"
         id="path193" />
    </clipPath>
    <clipPath
       clipPathUnits="userSpaceOnUse"
       id="clipPath195">
      <path
         d="M 0,0 H 841.89 V 595.276 H 0 Z"
         transform="translate(-489.57711,-415.26861)"
         id="path195" />
    </clipPath>
    <clipPath
       clipPathUnits="userSpaceOnUse"
       id="clipPath197">
      <path
         d="M 0,0 H 841.89 V 595.276 H 0 Z"
         transform="translate(-485.58101,-410.73591)"
         id="path197" />
    </clipPath>
    <clipPath
       clipPathUnits="userSpaceOnUse"
       id="clipPath199">
      <path
         d="M 0,0 H 841.89 V 595.276 H 0 Z"
         transform="translate(-484.44131,-413.28631)"
         id="path199" />
    </clipPath>
    <clipPath
       clipPathUnits="userSpaceOnUse"
       id="clipPath201">
      <path
         d="M 0,0 H 841.89 V 595.276 H 0 Z"
         transform="translate(-489.50481,-414.45521)"
         id="path201" />
    </clipPath>
    <clipPath
       clipPathUnits="userSpaceOnUse"
       id="clipPath203">
      <path
         d="M 0,0 H 841.89 V 595.276 H 0 Z"
         transform="translate(-489.30561,-412.84191)"
         id="path203" />
    </clipPath>
    <clipPath
       clipPathUnits="userSpaceOnUse"
       id="clipPath205">
      <path
         d="M 0,0 H 841.89 V 595.276 H 0 Z"
         transform="translate(-487.04191,-416.12701)"
         id="path205" />
    </clipPath>
    <clipPath
       clipPathUnits="userSpaceOnUse"
       id="clipPath207">
      <path
         d="M 0,0 H 841.89 V 595.276 H 0 Z"
         transform="translate(-477.55361,-409.56751)"
         id="path207" />
    </clipPath>
    <clipPath
       clipPathUnits="userSpaceOnUse"
       id="clipPath209">
      <path
         d="M 0,0 H 841.89 V 595.276 H 0 Z"
         transform="translate(-481.92471,-410.93271)"
         id="path209" />
    </clipPath>
    <clipPath
       clipPathUnits="userSpaceOnUse"
       id="clipPath211">
      <path
         d="M 0,0 H 841.89 V 595.276 H 0 Z"
         transform="translate(-483.36611,-412.48541)"
         id="path211" />
    </clipPath>
    <clipPath
       clipPathUnits="userSpaceOnUse"
       id="clipPath213">
      <path
         d="M 0,0 H 841.89 V 595.276 H 0 Z"
         transform="translate(-486.98141,-406.47911)"
         id="path213" />
    </clipPath>
    <clipPath
       clipPathUnits="userSpaceOnUse"
       id="clipPath215">
      <path
         d="M 0,0 H 841.89 V 595.276 H 0 Z"
         transform="translate(-481.97551,-407.67001)"
         id="path215" />
    </clipPath>
    <clipPath
       clipPathUnits="userSpaceOnUse"
       id="clipPath217">
      <path
         d="M 0,0 H 841.89 V 595.276 H 0 Z"
         transform="translate(-466.52821,-402.89471)"
         id="path217" />
    </clipPath>
    <clipPath
       clipPathUnits="userSpaceOnUse"
       id="clipPath219">
      <path
         d="M 0,0 H 841.89 V 595.276 H 0 Z"
         transform="translate(-458.91301,-401.85211)"
         id="path219" />
    </clipPath>
    <clipPath
       clipPathUnits="userSpaceOnUse"
       id="clipPath221">
      <path
         d="M 0,0 H 841.89 V 595.276 H 0 Z"
         transform="translate(-493.70791,-385.98501)"
         id="path221" />
    </clipPath>
    <clipPath
       clipPathUnits="userSpaceOnUse"
       id="clipPath223">
      <path
         d="M 0,0 H 841.89 V 595.276 H 0 Z"
         transform="translate(-553.36271,-375.99521)"
         id="path223" />
    </clipPath>
    <clipPath
       clipPathUnits="userSpaceOnUse"
       id="clipPath225">
      <path
         d="M 0,0 H 841.89 V 595.276 H 0 Z"
         transform="translate(-562.67131,-395.72181)"
         id="path225" />
    </clipPath>
    <clipPath
       clipPathUnits="userSpaceOnUse"
       id="clipPath227">
      <path
         d="M 0,0 H 841.89 V 595.276 H 0 Z"
         transform="translate(-568.48582,-408.67101)"
         id="path227" />
    </clipPath>
    <clipPath
       clipPathUnits="userSpaceOnUse"
       id="clipPath229">
      <path
         d="M 0,0 H 841.89 V 595.276 H 0 Z"
         transform="translate(-568.90571,-399.87561)"
         id="path229" />
    </clipPath>
    <clipPath
       clipPathUnits="userSpaceOnUse"
       id="clipPath231">
      <path
         d="M 0,0 H 841.89 V 595.276 H 0 Z"
         transform="translate(-567.55222,-398.50311)"
         id="path231" />
    </clipPath>
    <clipPath
       clipPathUnits="userSpaceOnUse"
       id="clipPath245">
      <path
         d="M 0,0 H 841.89 V 595.276 H 0 Z"
         transform="translate(-581.86661,-381.60611)"
         id="path245" />
    </clipPath>
    <clipPath
       clipPathUnits="userSpaceOnUse"
       id="clipPath276">
      <path
         d="M 0,0 H 841.89 V 595.276 H 0 Z"
         transform="translate(-640.77292,-375.99521)"
         id="path276" />
    </clipPath>
    <clipPath
       clipPathUnits="userSpaceOnUse"
       id="clipPath278">
      <path
         d="M 0,0 H 841.89 V 595.276 H 0 Z"
         transform="translate(-655.01512,-387.61921)"
         id="path278" />
    </clipPath>
    <clipPath
       clipPathUnits="userSpaceOnUse"
       id="clipPath280">
      <path
         d="M 0,0 H 841.89 V 595.276 H 0 Z"
         transform="translate(-668.49941,-385.23111)"
         id="path280" />
    </clipPath>
    <clipPath
       clipPathUnits="userSpaceOnUse"
       id="clipPath282">
      <path
         d="M 0,0 H 841.89 V 595.276 H 0 Z"
         transform="translate(-668.89982,-391.53231)"
         id="path282" />
    </clipPath>
    <clipPath
       clipPathUnits="userSpaceOnUse"
       id="clipPath284">
      <path
         d="M 0,0 H 841.89 V 595.276 H 0 Z"
         transform="translate(-640.93112,-391.82281)"
         id="path284" />
    </clipPath>
    <clipPath
       clipPathUnits="userSpaceOnUse"
       id="clipPath286">
      <path
         d="M 0,0 H 841.89 V 595.276 H 0 Z"
         transform="translate(-641.40182,-392.46691)"
         id="path286" />
    </clipPath>
    <clipPath
       clipPathUnits="userSpaceOnUse"
       id="clipPath288">
      <path
         d="M 0,0 H 841.89 V 595.276 H 0 Z"
         transform="translate(-647.81192,-406.74281)"
         id="path288" />
    </clipPath>
    <clipPath
       clipPathUnits="userSpaceOnUse"
       id="clipPath290">
      <path
         d="M 0,0 H 841.89 V 595.276 H 0 Z"
         transform="translate(-651.41741,-404.28961)"
         id="path290" />
    </clipPath>
    <clipPath
       clipPathUnits="userSpaceOnUse"
       id="clipPath292">
      <path
         d="M 0,0 H 841.89 V 595.276 H 0 Z"
         transform="translate(-663.88222,-391.85711)"
         id="path292" />
    </clipPath>
    <clipPath
       clipPathUnits="userSpaceOnUse"
       id="clipPath294">
      <path
         d="M 0,0 H 841.89 V 595.276 H 0 Z"
         transform="translate(-652.23581,-397.11541)"
         id="path294" />
    </clipPath>
    <clipPath
       clipPathUnits="userSpaceOnUse"
       id="clipPath316">
      <path
         d="M 0,0 H 841.89 V 595.276 H 0 Z"
         transform="translate(-669.27872,-381.60561)"
         id="path316" />
    </clipPath>
  </defs>
  <g
     inkscape:label="Layer 1"
     inkscape:groupmode="layer"
     id="layer1"
     transform="translate(-132.82083,-135.99582)">
    <path
       id="path275"
       d="M 0,0 C -6.809,0 -12.326,5.505 -12.328,12.301 V 33.016 C -12.326,39.811 -6.809,45.315 0,45.315 h 20.762 c 6.806,0 12.326,-5.504 12.328,-12.299 V 12.301 C 33.088,5.505 27.568,0 20.762,0 Z m -8.064,41.059 c -2.065,-2.059 -3.34,-4.9 -3.34,-8.043 V 12.301 c 0,-3.143 1.275,-5.984 3.34,-8.045 C -6,2.197 -3.15,0.924 0,0.924 h 20.762 c 3.152,0 6.002,1.273 8.066,3.332 2.065,2.061 3.34,4.902 3.34,8.045 v 20.715 c 0,3.143 -1.275,5.984 -3.34,8.043 -2.064,2.059 -4.914,3.332 -8.066,3.332 H 0 c -3.15,0 -6,-1.273 -8.064,-3.332"
       style="fill:#231f20;fill-opacity:1;fill-rule:nonzero;stroke:none"
       transform="matrix(0.35277776,0,0,-0.35277776,137.16987,151.98194)"
       clip-path="url(#clipPath276)" />
    <path
       id="path277"
       d="m 0,0 c 3.975,2.61 12.09,4.391 12.09,4.391 0,0 -16.608,0.5 -22.791,-0.987 0,0 3.232,-1.885 5.435,-2.514 C -4.022,0.536 -1.338,-0.08 0,0"
       style="fill:#231f20;fill-opacity:1;fill-rule:nonzero;stroke:none"
       transform="matrix(0.35277776,0,0,-0.35277776,142.19421,147.88125)"
       clip-path="url(#clipPath278)" />
    <path
       id="path279"
       d="m 0,0 c -0.295,0.174 -1.252,0.558 -1.59,0.657 -0.338,0.099 -1.029,0.21 -1.371,0.283 -0.344,0.073 -3.123,0.443 -4.17,0.398 -1.053,-0.044 -2.092,-0.216 -3.117,-0.44 -1.025,-0.225 -2.035,-0.532 -3.027,-0.904 -0.991,-0.373 -1.963,-0.685 -2.913,-1.169 l -0.25,-0.105 c -0.087,-0.031 -0.179,-0.058 -0.273,-0.078 -0.092,-0.021 -0.185,-0.038 -0.279,-0.051 -0.092,-0.012 -0.377,0.147 -0.319,0.177 1.012,0.519 2.055,0.987 3.121,1.396 1.067,0.41 2.157,0.758 3.262,1.034 1.108,0.276 2.229,0.478 3.362,0.594 1.129,0.117 2.271,0.148 3.414,0.079 0.462,-0.027 0.943,-0.07 1.425,-0.135 C -2.24,1.67 -1.75,1.584 -1.267,1.471 -0.785,1.358 -0.31,1.217 0.145,1.045 0.602,0.873 1.039,0.67 1.447,0.428 1.451,0.424 1.387,0.384 1.279,0.328 1.168,0.27 1.02,0.199 0.859,0.134 0.697,0.068 0.523,0.01 0.373,-0.019 0.219,-0.05 0.086,-0.049 0,0"
       style="fill:#231f20;fill-opacity:1;fill-rule:nonzero;stroke:none"
       transform="matrix(0.35277776,0,0,-0.35277776,146.95116,148.72373)"
       clip-path="url(#clipPath280)" />
    <path
       id="path281"
       d="m 0,0 c -0.535,0.486 -1.27,0.818 -1.809,0.809 -2.388,0.001 -5.877,-0.31 -11.713,-3.545 -2.855,-1.584 -6.226,-2.49 -9.542,-2.489 -3.481,0 -6.893,0.958 -9.387,1.558 -2.496,0.6 -3.096,0.874 -3.547,1.055 -0.453,0.18 -0.789,-0.473 -0.789,-0.473 h -0.002 c 0.021,-0.006 6.619,-2.793 13.725,-2.795 3.386,0 7.257,0.864 9.531,1.884 C -9.242,-2.072 -6.551,-0.181 0,0"
       style="fill:#231f20;fill-opacity:1;fill-rule:nonzero;stroke:none"
       transform="matrix(0.35277776,0,0,-0.35277776,147.09242,146.5008)"
       clip-path="url(#clipPath282)" />
    <path
       id="path283"
       d="m 0,0 c -0.148,0.073 -0.217,0.259 -0.148,0.413 l 7.285,15.948 c 0.066,0.155 0.42,0.428 0.572,0.355 L 8.012,16.9 C 8.16,16.826 7.926,16.458 7.857,16.304 L 6.191,12.502 0.822,0.353 0.207,-0.019 Z"
       style="fill:#231f20;fill-opacity:1;fill-rule:nonzero;stroke:none"
       transform="matrix(0.35277776,0,0,-0.35277776,137.22568,146.39832)"
       clip-path="url(#clipPath284)" />
    <path
       id="path285"
       d="M 0,0 C 0,0 -1.721,0.223 -2.572,-1.406 -3.52,-3.218 -4.113,-5.062 -4.113,-5.062 l 3.986,-0.886 c 0,0 1.328,3.378 1.391,4.205 C 1.326,-0.915 0.359,-0.192 0,0"
       style="fill:#231f20;fill-opacity:1;fill-rule:nonzero;stroke:none"
       transform="matrix(0.35277776,0,0,-0.35277776,137.39173,146.17109)"
       clip-path="url(#clipPath286)" />
    <path
       id="path287"
       d="M 0,0 C 0,0 1.936,0.646 3.072,2.324 4.768,4.835 4.84,5.58 4.934,6.283 5.027,6.985 2.16,6.238 1.385,5.293 0.611,4.348 -0.248,2.083 -0.34,1.176 -0.432,0.267 -0.428,0.243 0,0"
       style="fill:#231f20;fill-opacity:1;fill-rule:nonzero;stroke:none"
       transform="matrix(0.35277776,0,0,-0.35277776,139.65308,141.13487)"
       clip-path="url(#clipPath288)" />
    <path
       id="path289"
       d="m 0,0 c -0.559,-2.074 2.008,-3.46 3.682,-2.929 0.968,0.31 1.584,0.902 2.08,1.947 0.093,0.187 2.375,4.125 2.382,4.11 C 7.771,3.42 6.039,0.643 5.906,0.431 5.307,1.128 8.307,4.751 8.436,4.678 7.394,5.258 3.664,4.207 2.73,3.626 1.467,2.991 -0.18,1.823 -0.402,0.168"
       style="fill:#231f20;fill-opacity:1;fill-rule:nonzero;stroke:none"
       transform="matrix(0.35277776,0,0,-0.35277776,140.92502,142.00031)"
       clip-path="url(#clipPath290)" />
    <path
       id="path291"
       d="m 0,0 c 0,0 -1.852,7.781 -4.977,9.009 -3.017,1.185 -2.968,-0.422 -5.824,-2.729 -1.451,-1.172 -1.746,-1.683 -2.277,-1.821 -1.506,-0.391 -5.018,-0.863 -7.693,-0.641 0,0 -0.28,-0.222 -0.28,-0.446 0,-0.223 6.344,-1.964 8.084,-1.702 1.141,0.17 2.619,0.625 3.807,1.145 0.31,0.137 2.562,-3.074 2.619,-3.632"
       style="fill:#231f20;fill-opacity:1;fill-rule:nonzero;stroke:none"
       transform="matrix(0.35277776,0,0,-0.35277776,145.32232,146.38622)"
       clip-path="url(#clipPath292)" />
    <path
       id="path293"
       d="m 0,0 c 0,0 -1.598,-0.035 -3.273,1.384 -1.331,1.124 -2.352,4.14 -2.352,5.62 l 0.234,0.469 c 0,0 0.946,-2.056 2.627,-3.432 C -1.639,3.121 2.084,3.094 3.879,3.632 4.658,3.866 2.027,0.857 0,0"
       style="fill:#231f20;fill-opacity:1;fill-rule:nonzero;stroke:none"
       transform="matrix(0.35277776,0,0,-0.35277776,141.21373,144.53121)"
       clip-path="url(#clipPath294)" />
    <path
       id="path313"
       d="m 144.94474,149.68286 h -0.2854 v -0.0804 h 0.67487 v 0.0804 h -0.28328 v 0.72072 h -0.10619 z"
       style="fill:#231f20;fill-opacity:1;fill-rule:nonzero;stroke:none;stroke-width:0.352778" />
    <path
       id="path314"
       d="m 145.45532,149.6026 h 0.14958 l 0.22401,0.62971 h 0.002 l 0.22966,-0.62971 h 0.13441 v 0.80116 h -0.0995 v -0.66075 h -0.002 l -0.22189,0.60748 h -0.10478 l -0.2166,-0.60748 h -0.002 v 0.66075 h -0.0931 z"
       style="fill:#231f20;fill-opacity:1;fill-rule:nonzero;stroke:none;stroke-width:0.352778" />
    <path
       id="path315"
       d="m 0,0 c 0,-0.625 -0.508,-1.136 -1.137,-1.136 -0.623,0 -1.134,0.511 -1.134,1.136 0,0.626 0.511,1.133 1.134,1.133 C -0.508,1.133 0,0.626 0,0 m -2.09,0 c 0,-0.537 0.416,-0.958 0.953,-0.958 0.537,0 0.955,0.421 0.955,0.958 0,0.533 -0.418,0.952 -0.955,0.952 C -1.674,0.952 -2.09,0.533 -2.09,0 m 1.365,-0.578 c -0.109,-0.04 -0.248,-0.071 -0.367,-0.071 -0.379,0 -0.627,0.267 -0.627,0.641 0,0.337 0.211,0.647 0.631,0.647 0.141,0 0.291,-0.03 0.363,-0.05 V 0.413 c -0.105,0.043 -0.228,0.078 -0.347,0.078 -0.291,0 -0.434,-0.228 -0.434,-0.499 0,-0.273 0.164,-0.479 0.447,-0.479 0.12,0 0.235,0.029 0.334,0.089 z"
       style="fill:#231f20;fill-opacity:1;fill-rule:nonzero;stroke:none"
       transform="matrix(0.35277776,0,0,-0.35277776,147.22609,150.00272)"
       clip-path="url(#clipPath316)" />
  </g>
</svg>
