<?xml version="1.0" encoding="UTF-8" standalone="no"?>
<!-- Created with Inkscape (http://www.inkscape.org/) -->

<svg
   width="16.022461mm"
   height="15.985418mm"
   viewBox="0 0 16.022461 15.985418"
   version="1.1"
   id="svg1"
   inkscape:version="1.4 (e7c3feb1, 2024-10-09)"
   sodipodi:docname="HOC.svg"
   xmlns:inkscape="http://www.inkscape.org/namespaces/inkscape"
   xmlns:sodipodi="http://sodipodi.sourceforge.net/DTD/sodipodi-0.dtd"
   xmlns="http://www.w3.org/2000/svg"
   xmlns:svg="http://www.w3.org/2000/svg">
  <sodipodi:namedview
     id="namedview1"
     pagecolor="#ffffff"
     bordercolor="#000000"
     borderopacity="0.25"
     inkscape:showpageshadow="2"
     inkscape:pageopacity="0.0"
     inkscape:pagecheckerboard="0"
     inkscape:deskcolor="#d1d1d1"
     inkscape:document-units="mm"
     inkscape:zoom="3.4212031"
     inkscape:cx="7.7458132"
     inkscape:cy="22.360555"
     inkscape:window-width="1440"
     inkscape:window-height="872"
     inkscape:window-x="0"
     inkscape:window-y="28"
     inkscape:window-maximized="0"
     inkscape:current-layer="layer1" />
  <defs
     id="defs1">
    <clipPath
       clipPathUnits="userSpaceOnUse"
       id="clipPath22">
      <path
         d="M 0,0 H 841.89 V 595.276 H 0 Z"
         transform="translate(-116.31291,-375.94591)"
         id="path22" />
    </clipPath>
    <clipPath
       clipPathUnits="userSpaceOnUse"
       id="clipPath24">
      <path
         d="M 0,0 H 841.89 V 595.276 H 0 Z"
         transform="translate(-139.1415,-392.50891)"
         id="path24" />
    </clipPath>
    <clipPath
       clipPathUnits="userSpaceOnUse"
       id="clipPath26">
      <path
         d="M 0,0 H 841.89 V 595.276 H 0 Z"
         transform="translate(-125.1015,-387.80331)"
         id="path26" />
    </clipPath>
    <clipPath
       clipPathUnits="userSpaceOnUse"
       id="clipPath28">
      <path
         d="M 0,0 H 841.89 V 595.276 H 0 Z"
         transform="translate(-116.4081,-398.42731)"
         id="path28" />
    </clipPath>
    <clipPath
       clipPathUnits="userSpaceOnUse"
       id="clipPath30">
      <path
         d="M 0,0 H 841.89 V 595.276 H 0 Z"
         transform="translate(-112.43691,-405.29651)"
         id="path30" />
    </clipPath>
    <clipPath
       clipPathUnits="userSpaceOnUse"
       id="clipPath32">
      <path
         d="M 0,0 H 841.89 V 595.276 H 0 Z"
         transform="translate(-118.95111,-403.44641)"
         id="path32" />
    </clipPath>
    <clipPath
       clipPathUnits="userSpaceOnUse"
       id="clipPath34">
      <path
         d="M 0,0 H 841.89 V 595.276 H 0 Z"
         transform="translate(-136.1908,-382.59821)"
         id="path34" />
    </clipPath>
    <clipPath
       clipPathUnits="userSpaceOnUse"
       id="clipPath36">
      <path
         d="M 0,0 H 841.89 V 595.276 H 0 Z"
         transform="translate(-141.81291,-390.33991)"
         id="path36" />
    </clipPath>
    <clipPath
       clipPathUnits="userSpaceOnUse"
       id="clipPath38">
      <path
         d="M 0,0 H 841.89 V 595.276 H 0 Z"
         transform="translate(-109.13571,-383.44741)"
         id="path38" />
    </clipPath>
    <clipPath
       clipPathUnits="userSpaceOnUse"
       id="clipPath40">
      <path
         d="M 0,0 H 841.89 V 595.276 H 0 Z"
         transform="translate(-144.1542,-387.93421)"
         id="path40" />
    </clipPath>
    <clipPath
       clipPathUnits="userSpaceOnUse"
       id="clipPath44">
      <path
         d="M 0,0 H 841.89 V 595.276 H 0 Z"
         transform="translate(-144.82611,-381.53181)"
         id="path44" />
    </clipPath>
    <clipPath
       clipPathUnits="userSpaceOnUse"
       id="clipPath148">
      <path
         d="M 0,0 H 841.89 V 595.276 H 0 Z"
         transform="translate(-203.72161,-375.94491)"
         id="path148" />
    </clipPath>
    <clipPath
       clipPathUnits="userSpaceOnUse"
       id="clipPath150">
      <path
         d="M 0,0 H 841.89 V 595.276 H 0 Z"
         transform="translate(-227.7187,-401.97671)"
         id="path150" />
    </clipPath>
    <clipPath
       clipPathUnits="userSpaceOnUse"
       id="clipPath152">
      <path
         d="M 0,0 H 841.89 V 595.276 H 0 Z"
         transform="translate(-208.15131,-404.98461)"
         id="path152" />
    </clipPath>
    <clipPath
       clipPathUnits="userSpaceOnUse"
       id="clipPath154">
      <path
         d="M 0,0 H 841.89 V 595.276 H 0 Z"
         transform="translate(-215.76651,-396.58801)"
         id="path154" />
    </clipPath>
    <clipPath
       clipPathUnits="userSpaceOnUse"
       id="clipPath170">
      <path
         d="M 0,0 H 841.89 V 595.276 H 0 Z"
         transform="translate(-232.2265,-381.55531)"
         id="path170" />
    </clipPath>
    <clipPath
       clipPathUnits="userSpaceOnUse"
       id="clipPath80">
      <path
         d="M 0,0 H 841.89 V 595.276 H 0 Z"
         transform="translate(-291.13081,-375.94491)"
         id="path80" />
    </clipPath>
    <clipPath
       clipPathUnits="userSpaceOnUse"
       id="clipPath82">
      <path
         d="M 0,0 H 841.89 V 595.276 H 0 Z"
         transform="translate(-312.07221,-408.45181)"
         id="path82" />
    </clipPath>
    <clipPath
       clipPathUnits="userSpaceOnUse"
       id="clipPath84">
      <path
         d="M 0,0 H 841.89 V 595.276 H 0 Z"
         transform="translate(-318.26261,-405.37271)"
         id="path84" />
    </clipPath>
    <clipPath
       clipPathUnits="userSpaceOnUse"
       id="clipPath103">
      <path
         d="M 0,0 H 841.89 V 595.276 H 0 Z"
         transform="translate(-319.63711,-381.55531)"
         id="path103" />
    </clipPath>
    <clipPath
       clipPathUnits="userSpaceOnUse"
       id="clipPath105">
      <path
         d="M 0,0 H 841.89 V 595.276 H 0 Z"
         transform="translate(-378.54291,-375.94491)"
         id="path105" />
    </clipPath>
    <clipPath
       clipPathUnits="userSpaceOnUse"
       id="clipPath107">
      <path
         d="M 0,0 H 841.89 V 595.276 H 0 Z"
         transform="translate(-388.22751,-406.46441)"
         id="path107" />
    </clipPath>
    <clipPath
       clipPathUnits="userSpaceOnUse"
       id="clipPath109">
      <path
         d="M 0,0 H 841.89 V 595.276 H 0 Z"
         transform="translate(-399.21871,-404.85851)"
         id="path109" />
    </clipPath>
    <clipPath
       clipPathUnits="userSpaceOnUse"
       id="clipPath111">
      <path
         d="M 0,0 H 841.89 V 595.276 H 0 Z"
         transform="translate(-398.46961,-403.62021)"
         id="path111" />
    </clipPath>
    <clipPath
       clipPathUnits="userSpaceOnUse"
       id="clipPath113">
      <path
         d="M 0,0 H 841.89 V 595.276 H 0 Z"
         transform="translate(-392.92381,-412.60211)"
         id="path113" />
    </clipPath>
    <clipPath
       clipPathUnits="userSpaceOnUse"
       id="clipPath115">
      <path
         d="M 0,0 H 841.89 V 595.276 H 0 Z"
         transform="translate(-381.55561,-411.76331)"
         id="path115" />
    </clipPath>
    <clipPath
       clipPathUnits="userSpaceOnUse"
       id="clipPath117">
      <path
         d="M 0,0 H 841.89 V 595.276 H 0 Z"
         transform="translate(-378.83101,-412.57871)"
         id="path117" />
    </clipPath>
    <clipPath
       clipPathUnits="userSpaceOnUse"
       id="clipPath119">
      <path
         d="M 0,0 H 841.89 V 595.276 H 0 Z"
         transform="translate(-392.68351,-413.64611)"
         id="path119" />
    </clipPath>
    <clipPath
       clipPathUnits="userSpaceOnUse"
       id="clipPath121">
      <path
         d="M 0,0 H 841.89 V 595.276 H 0 Z"
         transform="translate(-395.06831,-415.78961)"
         id="path121" />
    </clipPath>
    <clipPath
       clipPathUnits="userSpaceOnUse"
       id="clipPath123">
      <path
         d="M 0,0 H 841.89 V 595.276 H 0 Z"
         transform="translate(-394.66791,-411.71051)"
         id="path123" />
    </clipPath>
    <clipPath
       clipPathUnits="userSpaceOnUse"
       id="clipPath125">
      <path
         d="M 0,0 H 841.89 V 595.276 H 0 Z"
         transform="translate(-393.35831,-411.70421)"
         id="path125" />
    </clipPath>
    <clipPath
       clipPathUnits="userSpaceOnUse"
       id="clipPath146">
      <path
         d="M 0,0 H 841.89 V 595.276 H 0 Z"
         transform="translate(-407.04781,-381.55531)"
         id="path146" />
    </clipPath>
    <clipPath
       clipPathUnits="userSpaceOnUse"
       id="clipPath172">
      <path
         d="M 0,0 H 841.89 V 595.276 H 0 Z"
         transform="translate(-465.95301,-375.99521)"
         id="path172" />
    </clipPath>
    <clipPath
       clipPathUnits="userSpaceOnUse"
       id="clipPath193">
      <path
         d="M 0,0 H 841.89 V 595.276 H 0 Z"
         transform="translate(-494.45991,-381.60611)"
         id="path193" />
    </clipPath>
    <clipPath
       clipPathUnits="userSpaceOnUse"
       id="clipPath195">
      <path
         d="M 0,0 H 841.89 V 595.276 H 0 Z"
         transform="translate(-489.57711,-415.26861)"
         id="path195" />
    </clipPath>
    <clipPath
       clipPathUnits="userSpaceOnUse"
       id="clipPath197">
      <path
         d="M 0,0 H 841.89 V 595.276 H 0 Z"
         transform="translate(-485.58101,-410.73591)"
         id="path197" />
    </clipPath>
    <clipPath
       clipPathUnits="userSpaceOnUse"
       id="clipPath199">
      <path
         d="M 0,0 H 841.89 V 595.276 H 0 Z"
         transform="translate(-484.44131,-413.28631)"
         id="path199" />
    </clipPath>
    <clipPath
       clipPathUnits="userSpaceOnUse"
       id="clipPath201">
      <path
         d="M 0,0 H 841.89 V 595.276 H 0 Z"
         transform="translate(-489.50481,-414.45521)"
         id="path201" />
    </clipPath>
    <clipPath
       clipPathUnits="userSpaceOnUse"
       id="clipPath203">
      <path
         d="M 0,0 H 841.89 V 595.276 H 0 Z"
         transform="translate(-489.30561,-412.84191)"
         id="path203" />
    </clipPath>
    <clipPath
       clipPathUnits="userSpaceOnUse"
       id="clipPath205">
      <path
         d="M 0,0 H 841.89 V 595.276 H 0 Z"
         transform="translate(-487.04191,-416.12701)"
         id="path205" />
    </clipPath>
    <clipPath
       clipPathUnits="userSpaceOnUse"
       id="clipPath207">
      <path
         d="M 0,0 H 841.89 V 595.276 H 0 Z"
         transform="translate(-477.55361,-409.56751)"
         id="path207" />
    </clipPath>
    <clipPath
       clipPathUnits="userSpaceOnUse"
       id="clipPath209">
      <path
         d="M 0,0 H 841.89 V 595.276 H 0 Z"
         transform="translate(-481.92471,-410.93271)"
         id="path209" />
    </clipPath>
    <clipPath
       clipPathUnits="userSpaceOnUse"
       id="clipPath211">
      <path
         d="M 0,0 H 841.89 V 595.276 H 0 Z"
         transform="translate(-483.36611,-412.48541)"
         id="path211" />
    </clipPath>
    <clipPath
       clipPathUnits="userSpaceOnUse"
       id="clipPath213">
      <path
         d="M 0,0 H 841.89 V 595.276 H 0 Z"
         transform="translate(-486.98141,-406.47911)"
         id="path213" />
    </clipPath>
    <clipPath
       clipPathUnits="userSpaceOnUse"
       id="clipPath215">
      <path
         d="M 0,0 H 841.89 V 595.276 H 0 Z"
         transform="translate(-481.97551,-407.67001)"
         id="path215" />
    </clipPath>
    <clipPath
       clipPathUnits="userSpaceOnUse"
       id="clipPath217">
      <path
         d="M 0,0 H 841.89 V 595.276 H 0 Z"
         transform="translate(-466.52821,-402.89471)"
         id="path217" />
    </clipPath>
    <clipPath
       clipPathUnits="userSpaceOnUse"
       id="clipPath219">
      <path
         d="M 0,0 H 841.89 V 595.276 H 0 Z"
         transform="translate(-458.91301,-401.85211)"
         id="path219" />
    </clipPath>
    <clipPath
       clipPathUnits="userSpaceOnUse"
       id="clipPath221">
      <path
         d="M 0,0 H 841.89 V 595.276 H 0 Z"
         transform="translate(-493.70791,-385.98501)"
         id="path221" />
    </clipPath>
    <clipPath
       clipPathUnits="userSpaceOnUse"
       id="clipPath223">
      <path
         d="M 0,0 H 841.89 V 595.276 H 0 Z"
         transform="translate(-553.36271,-375.99521)"
         id="path223" />
    </clipPath>
    <clipPath
       clipPathUnits="userSpaceOnUse"
       id="clipPath225">
      <path
         d="M 0,0 H 841.89 V 595.276 H 0 Z"
         transform="translate(-562.67131,-395.72181)"
         id="path225" />
    </clipPath>
    <clipPath
       clipPathUnits="userSpaceOnUse"
       id="clipPath227">
      <path
         d="M 0,0 H 841.89 V 595.276 H 0 Z"
         transform="translate(-568.48582,-408.67101)"
         id="path227" />
    </clipPath>
    <clipPath
       clipPathUnits="userSpaceOnUse"
       id="clipPath229">
      <path
         d="M 0,0 H 841.89 V 595.276 H 0 Z"
         transform="translate(-568.90571,-399.87561)"
         id="path229" />
    </clipPath>
    <clipPath
       clipPathUnits="userSpaceOnUse"
       id="clipPath231">
      <path
         d="M 0,0 H 841.89 V 595.276 H 0 Z"
         transform="translate(-567.55222,-398.50311)"
         id="path231" />
    </clipPath>
    <clipPath
       clipPathUnits="userSpaceOnUse"
       id="clipPath245">
      <path
         d="M 0,0 H 841.89 V 595.276 H 0 Z"
         transform="translate(-581.86661,-381.60611)"
         id="path245" />
    </clipPath>
    <clipPath
       clipPathUnits="userSpaceOnUse"
       id="clipPath276">
      <path
         d="M 0,0 H 841.89 V 595.276 H 0 Z"
         transform="translate(-640.77292,-375.99521)"
         id="path276" />
    </clipPath>
    <clipPath
       clipPathUnits="userSpaceOnUse"
       id="clipPath278">
      <path
         d="M 0,0 H 841.89 V 595.276 H 0 Z"
         transform="translate(-655.01512,-387.61921)"
         id="path278" />
    </clipPath>
    <clipPath
       clipPathUnits="userSpaceOnUse"
       id="clipPath280">
      <path
         d="M 0,0 H 841.89 V 595.276 H 0 Z"
         transform="translate(-668.49941,-385.23111)"
         id="path280" />
    </clipPath>
    <clipPath
       clipPathUnits="userSpaceOnUse"
       id="clipPath282">
      <path
         d="M 0,0 H 841.89 V 595.276 H 0 Z"
         transform="translate(-668.89982,-391.53231)"
         id="path282" />
    </clipPath>
    <clipPath
       clipPathUnits="userSpaceOnUse"
       id="clipPath284">
      <path
         d="M 0,0 H 841.89 V 595.276 H 0 Z"
         transform="translate(-640.93112,-391.82281)"
         id="path284" />
    </clipPath>
    <clipPath
       clipPathUnits="userSpaceOnUse"
       id="clipPath286">
      <path
         d="M 0,0 H 841.89 V 595.276 H 0 Z"
         transform="translate(-641.40182,-392.46691)"
         id="path286" />
    </clipPath>
    <clipPath
       clipPathUnits="userSpaceOnUse"
       id="clipPath288">
      <path
         d="M 0,0 H 841.89 V 595.276 H 0 Z"
         transform="translate(-647.81192,-406.74281)"
         id="path288" />
    </clipPath>
    <clipPath
       clipPathUnits="userSpaceOnUse"
       id="clipPath290">
      <path
         d="M 0,0 H 841.89 V 595.276 H 0 Z"
         transform="translate(-651.41741,-404.28961)"
         id="path290" />
    </clipPath>
    <clipPath
       clipPathUnits="userSpaceOnUse"
       id="clipPath292">
      <path
         d="M 0,0 H 841.89 V 595.276 H 0 Z"
         transform="translate(-663.88222,-391.85711)"
         id="path292" />
    </clipPath>
    <clipPath
       clipPathUnits="userSpaceOnUse"
       id="clipPath294">
      <path
         d="M 0,0 H 841.89 V 595.276 H 0 Z"
         transform="translate(-652.23581,-397.11541)"
         id="path294" />
    </clipPath>
    <clipPath
       clipPathUnits="userSpaceOnUse"
       id="clipPath316">
      <path
         d="M 0,0 H 841.89 V 595.276 H 0 Z"
         transform="translate(-669.27872,-381.60561)"
         id="path316" />
    </clipPath>
    <clipPath
       clipPathUnits="userSpaceOnUse"
       id="clipPath247">
      <path
         d="M 0,0 H 841.89 V 595.276 H 0 Z"
         transform="translate(-728.12642,-376.12661)"
         id="path247" />
    </clipPath>
    <clipPath
       clipPathUnits="userSpaceOnUse"
       id="clipPath249">
      <path
         d="M 0,0 H 841.89 V 595.276 H 0 Z"
         transform="translate(-720.10692,-408.93321)"
         id="path249" />
    </clipPath>
    <clipPath
       clipPathUnits="userSpaceOnUse"
       id="clipPath251">
      <path
         d="M 0,0 H 841.89 V 595.276 H 0 Z"
         transform="translate(-742.48192,-394.07681)"
         id="path251" />
    </clipPath>
    <clipPath
       clipPathUnits="userSpaceOnUse"
       id="clipPath253">
      <path
         d="M 0,0 H 841.89 V 595.276 H 0 Z"
         transform="translate(-756.57954,-395.99371)"
         id="path253" />
    </clipPath>
    <clipPath
       clipPathUnits="userSpaceOnUse"
       id="clipPath255">
      <path
         d="M 0,0 H 841.89 V 595.276 H 0 Z"
         transform="translate(-748.75532,-405.31991)"
         id="path255" />
    </clipPath>
    <clipPath
       clipPathUnits="userSpaceOnUse"
       id="clipPath257">
      <path
         d="M 0,0 H 841.89 V 595.276 H 0 Z"
         transform="translate(-745.71622,-413.08851)"
         id="path257" />
    </clipPath>
    <clipPath
       clipPathUnits="userSpaceOnUse"
       id="clipPath259">
      <path
         d="M 0,0 H 841.89 V 595.276 H 0 Z"
         transform="translate(-721.41742,-387.86731)"
         id="path259" />
    </clipPath>
    <clipPath
       clipPathUnits="userSpaceOnUse"
       id="clipPath274">
      <path
         d="M 0,0 H 841.89 V 595.276 H 0 Z"
         transform="translate(-756.68889,-381.81501)"
         id="path274" />
    </clipPath>
    <clipPath
       clipPathUnits="userSpaceOnUse"
       id="clipPath46">
      <path
         d="M 0,0 H 841.89 V 595.276 H 0 Z"
         transform="translate(-70.686002,-284.28821)"
         id="path46" />
    </clipPath>
    <clipPath
       clipPathUnits="userSpaceOnUse"
       id="clipPath48">
      <path
         d="M 0,0 H 841.89 V 595.276 H 0 Z"
         transform="translate(-74.136602,-306.70221)"
         id="path48" />
    </clipPath>
    <clipPath
       clipPathUnits="userSpaceOnUse"
       id="clipPath50">
      <path
         d="M 0,0 H 841.89 V 595.276 H 0 Z"
         transform="translate(-73.939402,-316.70421)"
         id="path50" />
    </clipPath>
    <clipPath
       clipPathUnits="userSpaceOnUse"
       id="clipPath52">
      <path
         d="M 0,0 H 841.89 V 595.276 H 0 Z"
         transform="translate(-63.382202,-304.51431)"
         id="path52" />
    </clipPath>
    <clipPath
       clipPathUnits="userSpaceOnUse"
       id="clipPath54">
      <path
         d="M 0,0 H 841.89 V 595.276 H 0 Z"
         transform="translate(-75.873902,-295.74671)"
         id="path54" />
    </clipPath>
    <clipPath
       clipPathUnits="userSpaceOnUse"
       id="clipPath56">
      <path
         d="M 0,0 H 841.89 V 595.276 H 0 Z"
         transform="translate(-66.602501,-293.58161)"
         id="path56" />
    </clipPath>
    <clipPath
       clipPathUnits="userSpaceOnUse"
       id="clipPath78">
      <path
         d="M 0,0 H 841.89 V 595.276 H 0 Z"
         transform="translate(-99.1918,-289.8995)"
         id="path78" />
    </clipPath>
    <clipPath
       clipPathUnits="userSpaceOnUse"
       id="clipPath318">
      <path
         d="M 0,0 H 841.89 V 595.276 H 0 Z"
         transform="translate(-158.0971,-284.28721)"
         id="path318" />
    </clipPath>
    <clipPath
       clipPathUnits="userSpaceOnUse"
       id="clipPath320">
      <path
         d="M 0,0 H 841.89 V 595.276 H 0 Z"
         transform="translate(-167.78901,-316.63441)"
         id="path320" />
    </clipPath>
    <clipPath
       clipPathUnits="userSpaceOnUse"
       id="clipPath322">
      <path
         d="M 0,0 H 841.89 V 595.276 H 0 Z"
         transform="translate(-153.3954,-313.80871)"
         id="path322" />
    </clipPath>
    <clipPath
       clipPathUnits="userSpaceOnUse"
       id="clipPath324">
      <path
         d="M 0,0 H 841.89 V 595.276 H 0 Z"
         transform="translate(-176.6845,-312.86141)"
         id="path324" />
    </clipPath>
    <clipPath
       clipPathUnits="userSpaceOnUse"
       id="clipPath326">
      <path
         d="M 0,0 H 841.89 V 595.276 H 0 Z"
         transform="translate(-176.41401,-311.52401)"
         id="path326" />
    </clipPath>
    <clipPath
       clipPathUnits="userSpaceOnUse"
       id="clipPath342">
      <path
         d="M 0,0 H 841.89 V 595.276 H 0 Z"
         transform="translate(-186.6025,-289.89761)"
         id="path342" />
    </clipPath>
    <clipPath
       clipPathUnits="userSpaceOnUse"
       id="clipPath344">
      <path
         d="M 0,0 H 841.89 V 595.276 H 0 Z"
         transform="translate(-245.50531,-284.2862)"
         id="path344" />
    </clipPath>
    <clipPath
       clipPathUnits="userSpaceOnUse"
       id="clipPath346">
      <path
         d="M 0,0 H 841.89 V 595.276 H 0 Z"
         transform="translate(-261.02481,-317.53181)"
         id="path346" />
    </clipPath>
    <clipPath
       clipPathUnits="userSpaceOnUse"
       id="clipPath348">
      <path
         d="M 0,0 H 841.89 V 595.276 H 0 Z"
         transform="translate(-244.6405,-313.76231)"
         id="path348" />
    </clipPath>
    <clipPath
       clipPathUnits="userSpaceOnUse"
       id="clipPath350">
      <path
         d="M 0,0 H 841.89 V 595.276 H 0 Z"
         transform="translate(-251.80561,-294.36481)"
         id="path350" />
    </clipPath>
    <clipPath
       clipPathUnits="userSpaceOnUse"
       id="clipPath367">
      <path
         d="M 0,0 H 841.89 V 595.276 H 0 Z"
         transform="translate(-274.01121,-289.89761)"
         id="path367" />
    </clipPath>
    <clipPath
       clipPathUnits="userSpaceOnUse"
       id="clipPath419">
      <path
         d="M 0,0 H 841.89 V 595.276 H 0 Z"
         transform="translate(-332.91501,-284.28721)"
         id="path419" />
    </clipPath>
    <clipPath
       clipPathUnits="userSpaceOnUse"
       id="clipPath421">
      <path
         d="M 0,0 H 841.89 V 595.276 H 0 Z"
         transform="translate(-351.76261,-303.32241)"
         id="path421" />
    </clipPath>
    <clipPath
       clipPathUnits="userSpaceOnUse"
       id="clipPath423">
      <path
         d="M 0,0 H 841.89 V 595.276 H 0 Z"
         transform="translate(-345.17421,-292.9952)"
         id="path423" />
    </clipPath>
    <clipPath
       clipPathUnits="userSpaceOnUse"
       id="clipPath425">
      <path
         d="M 0,0 H 841.89 V 595.276 H 0 Z"
         transform="translate(-361.50091,-295.5182)"
         id="path425" />
    </clipPath>
    <clipPath
       clipPathUnits="userSpaceOnUse"
       id="clipPath427">
      <path
         d="M 0,0 H 841.89 V 595.276 H 0 Z"
         transform="translate(-340.09711,-315.02161)"
         id="path427" />
    </clipPath>
    <clipPath
       clipPathUnits="userSpaceOnUse"
       id="clipPath429">
      <path
         d="M 0,0 H 841.89 V 595.276 H 0 Z"
         transform="translate(-339.97061,-303.90731)"
         id="path429" />
    </clipPath>
    <clipPath
       clipPathUnits="userSpaceOnUse"
       id="clipPath451">
      <path
         d="M 0,0 H 841.89 V 595.276 H 0 Z"
         transform="translate(-361.42131,-289.89851)"
         id="path451" />
    </clipPath>
    <clipPath
       clipPathUnits="userSpaceOnUse"
       id="clipPath369">
      <path
         d="M 0,0 H 841.89 V 595.276 H 0 Z"
         transform="translate(-420.32611,-284.28721)"
         id="path369" />
    </clipPath>
    <clipPath
       clipPathUnits="userSpaceOnUse"
       id="clipPath371">
      <path
         d="M 0,0 H 841.89 V 595.276 H 0 Z"
         transform="translate(-437.28171,-318.69201)"
         id="path371" />
    </clipPath>
    <clipPath
       clipPathUnits="userSpaceOnUse"
       id="clipPath373">
      <path
         d="M 0,0 H 841.89 V 595.276 H 0 Z"
         transform="translate(-420.03261,-316.74131)"
         id="path373" />
    </clipPath>
    <clipPath
       clipPathUnits="userSpaceOnUse"
       id="clipPath375">
      <path
         d="M 0,0 H 841.89 V 595.276 H 0 Z"
         transform="translate(-426.12981,-320.71491)"
         id="path375" />
    </clipPath>
    <clipPath
       clipPathUnits="userSpaceOnUse"
       id="clipPath392">
      <path
         d="M 0,0 H 841.89 V 595.276 H 0 Z"
         transform="translate(-448.83201,-289.89851)"
         id="path392" />
    </clipPath>
    <clipPath
       clipPathUnits="userSpaceOnUse"
       id="clipPath394">
      <path
         d="M 0,0 H 841.89 V 595.276 H 0 Z"
         transform="translate(-507.73721,-284.28721)"
         id="path394" />
    </clipPath>
    <clipPath
       clipPathUnits="userSpaceOnUse"
       id="clipPath396">
      <path
         d="M 0,0 H 841.89 V 595.276 H 0 Z"
         transform="translate(-512.39051,-305.39611)"
         id="path396" />
    </clipPath>
    <clipPath
       clipPathUnits="userSpaceOnUse"
       id="clipPath398">
      <path
         d="M 0,0 H 841.89 V 595.276 H 0 Z"
         transform="translate(-523.96091,-304.38491)"
         id="path398" />
    </clipPath>
    <clipPath
       clipPathUnits="userSpaceOnUse"
       id="clipPath400">
      <path
         d="M 0,0 H 841.89 V 595.276 H 0 Z"
         transform="translate(-523.65031,-317.42781)"
         id="path400" />
    </clipPath>
    <clipPath
       clipPathUnits="userSpaceOnUse"
       id="clipPath402">
      <path
         d="M 0,0 H 841.89 V 595.276 H 0 Z"
         transform="translate(-534.63661,-294.44101)"
         id="path402" />
    </clipPath>
    <clipPath
       clipPathUnits="userSpaceOnUse"
       id="clipPath404">
      <path
         d="M 0,0 H 841.89 V 595.276 H 0 Z"
         transform="translate(-536.29291,-298.1627)"
         id="path404" />
    </clipPath>
    <clipPath
       clipPathUnits="userSpaceOnUse"
       id="clipPath417">
      <path
         d="M 0,0 H 841.89 V 595.276 H 0 Z"
         transform="translate(-536.24212,-289.89661)"
         id="path417" />
    </clipPath>
  </defs>
  <g
     inkscape:label="Layer 1"
     inkscape:groupmode="layer"
     id="layer1"
     transform="translate(-153.98749,-117.21038)">
    <path
       id="path393"
       d="M 0,0 C -6.808,0 -12.326,5.505 -12.327,12.296 V 33.014 C -12.326,39.808 -6.808,45.313 0,45.313 h 20.765 c 6.804,0 12.324,-5.505 12.326,-12.299 V 12.296 C 33.089,5.505 27.569,0 20.765,0 Z m -8.065,41.056 c -2.064,-2.059 -3.339,-4.901 -3.341,-8.042 V 12.296 C -11.404,9.155 -10.129,6.317 -8.065,4.257 -5.999,2.197 -3.153,0.924 0,0.924 h 20.765 c 3.148,0 5.998,1.273 8.062,3.333 2.065,2.06 3.34,4.898 3.34,8.039 v 20.718 c 0,3.141 -1.275,5.983 -3.34,8.042 -2.064,2.06 -4.914,3.332 -8.062,3.332 H 0 c -3.153,0 -5.999,-1.272 -8.065,-3.332"
       style="fill:#231f20;fill-opacity:1;fill-rule:nonzero;stroke:none"
       transform="matrix(0.35277776,0,0,-0.35277776,158.33618,133.1958)"
       clip-path="url(#clipPath394)" />
    <path
       id="path395"
       d="m 0,0 c 1.281,-0.854 4.27,-2.063 6.41,-5.438 1.233,-1.944 -0.582,-5.31 -0.842,-7.639 0,0 -0.486,-0.069 -0.677,0.327 -0.942,1.937 -1.683,4.648 -2.106,5.175 -0.831,1.031 -1.749,1.013 -3.238,1.36 -0.564,0.13 -0.531,1.634 0.105,2.9 C 0.223,-2.182 -0.484,-0.477 0,0"
       style="fill:#231f20;fill-opacity:1;fill-rule:nonzero;stroke:none"
       transform="matrix(0.35277776,0,0,-0.35277776,159.97776,125.74905)"
       clip-path="url(#clipPath396)" />
    <path
       id="path397"
       d="m 0,0 c -1.979,-0.066 -6.135,4.755 -7.372,4.813 -1.224,0.058 -2.497,-2.8 -3.107,-4.691 -0.722,-2.243 -1.278,-5.909 -3.232,-7.961 -2.592,-2.723 -10.116,-4.613 -10.325,-4.405 -0.086,0.088 -0.077,0.597 0.014,0.731 0.351,0.526 3.793,2.471 6.17,5.909 0.659,0.947 -0.423,5.3 0.245,7.614 1.805,6.232 4.007,7.873 4.736,8.399 0.762,0.55 2.271,1.696 4.039,0.983 2.314,-0.935 4.398,-4.209 5.109,-5.276 0.711,-1.068 3.684,-5.475 3.684,-5.475 z"
       style="fill:#231f20;fill-opacity:1;fill-rule:nonzero;stroke:none"
       transform="matrix(0.35277776,0,0,-0.35277776,164.05954,126.10578)"
       clip-path="url(#clipPath398)" />
    <path
       id="path399"
       d="m 0,0 c 0.783,-2.234 -1.928,-3.966 -3.81,-3.517 -1.092,0.263 -1.816,0.863 -2.446,1.972 -0.117,0.198 -2.943,4.343 -2.951,4.327 0.387,0.35 2.518,-2.562 2.679,-2.785 0.602,0.816 -2.988,4.556 -3.122,4.466 1.097,0.721 5.283,-0.132 6.355,-0.696 C -1.856,3.17 0.053,2.02 0.43,0.217"
       style="fill:#231f20;fill-opacity:1;fill-rule:nonzero;stroke:none"
       transform="matrix(0.35277776,0,0,-0.35277776,163.94996,121.50454)"
       clip-path="url(#clipPath400)" />
    <path
       id="path401"
       d="m 0,0 c -0.285,0.085 -0.705,-0.24 -1.273,-0.215 -1.555,0.071 -2.44,1.167 -2.44,1.167 l -10.07,13.994 c -0.111,0.139 -0.311,0.159 -0.446,0.046 -0.138,-0.115 -0.056,-0.677 0.055,-0.816 L -4.527,0.28 c 0.353,-0.424 0.662,-0.761 1.05,-1.085 1.295,-1.085 3.016,-0.965 3.653,-0.4 C 0.6,-0.829 0.57,-0.167 0,0"
       style="fill:#231f20;fill-opacity:1;fill-rule:nonzero;stroke:none"
       transform="matrix(0.35277776,0,0,-0.35277776,167.82569,129.61377)"
       clip-path="url(#clipPath402)" />
    <path
       id="path403"
       d="m 0,0 c 0,-0.585 -0.475,-1.06 -1.059,-1.06 -0.587,0 -1.062,0.475 -1.062,1.06 0,0.586 0.475,1.061 1.062,1.061 C -0.475,1.061 0,0.586 0,0"
       style="fill:#231f20;fill-opacity:1;fill-rule:nonzero;stroke:none"
       transform="matrix(0.35277776,0,0,-0.35277776,168.40999,128.30084)"
       clip-path="url(#clipPath404)" />
    <path
       id="path414"
       d="m 166.11073,130.89689 h -0.28469 v -0.0804 h 0.67416 v 0.0804 h -0.28328 v 0.72072 h -0.10619 z"
       style="fill:#231f20;fill-opacity:1;fill-rule:nonzero;stroke:none;stroke-width:0.352778" />
    <path
       id="path415"
       d="m 166.6213,130.81628 h 0.14958 l 0.22401,0.62971 h 0.002 l 0.23036,-0.62971 h 0.133 v 0.80116 h -0.0988 v -0.66075 h -0.002 l -0.2226,0.60748 h -0.10407 l -0.21625,-0.60748 h -0.002 v 0.66075 h -0.0931 z"
       style="fill:#231f20;fill-opacity:1;fill-rule:nonzero;stroke:none;stroke-width:0.352778" />
    <path
       id="path416"
       d="m 0,0 c 0,-0.625 -0.508,-1.136 -1.135,-1.136 -0.625,0 -1.138,0.511 -1.138,1.136 0,0.627 0.513,1.134 1.138,1.134 C -0.508,1.134 0,0.627 0,0 m -2.09,0 c 0,-0.536 0.416,-0.956 0.955,-0.956 0.535,0 0.955,0.42 0.955,0.956 0,0.534 -0.42,0.953 -0.955,0.953 C -1.674,0.953 -2.09,0.534 -2.09,0 m 1.365,-0.577 c -0.109,-0.039 -0.248,-0.071 -0.369,-0.071 -0.377,0 -0.625,0.266 -0.625,0.641 0,0.336 0.211,0.647 0.633,0.647 0.137,0 0.287,-0.031 0.361,-0.049 V 0.413 c -0.105,0.045 -0.23,0.078 -0.347,0.078 -0.291,0 -0.434,-0.226 -0.434,-0.498 0,-0.272 0.164,-0.478 0.447,-0.478 0.12,0 0.235,0.027 0.334,0.087 z"
       style="fill:#231f20;fill-opacity:1;fill-rule:nonzero;stroke:none"
       transform="matrix(0.35277776,0,0,-0.35277776,168.39207,131.21693)"
       clip-path="url(#clipPath417)" />
  </g>
</svg>
