<?xml version="1.0" encoding="UTF-8" standalone="no"?>
<!-- Created with Inkscape (http://www.inkscape.org/) -->

<svg
   width="99.63942mm"
   height="84.92115mm"
   viewBox="0 0 99.63942 84.92115"
   version="1.1"
   id="svg1"
   inkscape:version="1.4 (e7c3feb1, 2024-10-09)"
   sodipodi:docname="P-AR.svg"
   xmlns:inkscape="http://www.inkscape.org/namespaces/inkscape"
   xmlns:sodipodi="http://sodipodi.sourceforge.net/DTD/sodipodi-0.dtd"
   xmlns="http://www.w3.org/2000/svg"
   xmlns:svg="http://www.w3.org/2000/svg">
  <sodipodi:namedview
     id="namedview1"
     pagecolor="#ffffff"
     bordercolor="#000000"
     borderopacity="0.25"
     inkscape:showpageshadow="2"
     inkscape:pageopacity="0.0"
     inkscape:pagecheckerboard="0"
     inkscape:deskcolor="#d1d1d1"
     inkscape:document-units="mm"
     inkscape:zoom="1.0482005"
     inkscape:cx="189.37217"
     inkscape:cy="142.62539"
     inkscape:window-width="1440"
     inkscape:window-height="872"
     inkscape:window-x="0"
     inkscape:window-y="28"
     inkscape:window-maximized="0"
     inkscape:current-layer="layer1" />
  <defs
     id="defs1" />
  <g
     inkscape:label="Layer 1"
     inkscape:groupmode="layer"
     id="layer1"
     transform="translate(-58.827829,-105.93979)">
    <path
       d="m 59.052152,140.06498 c 0.342035,-2.55374 0.474339,-3.24625 0.986586,-5.16405 1.511004,-5.65707 4.007712,-10.54028 7.665675,-14.993 6.014302,-7.321 14.138502,-11.97422 23.927022,-13.70443 2.009375,-0.35517 9.853405,-0.35033 11.918115,0.007 6.63771,1.14993 12.2765,3.56726 17.41878,7.4674 1.70908,1.29624 4.26965,3.62707 5.16222,4.69905 0.2405,0.28884 0.71652,0.83915 1.05782,1.22291 0.76003,0.85458 3.59496,4.92238 4.0775,5.85076 0.19316,0.37161 0.41731,0.7817 0.49811,0.9113 0.38055,0.61039 1.79188,3.86212 2.36982,5.46013 1.42602,3.94289 1.92507,6.82918 2.02044,11.68526 0.0909,4.62785 -0.11233,6.73349 -1.00358,10.39794 -0.35,1.43907 -1.7491,5.54486 -2.0746,6.08812 -0.0729,0.12164 -0.3675,0.73835 -0.65471,1.37047 -0.54068,1.18998 -1.24459,2.45796 -2.21105,3.98288 l -0.56051,0.8844 -0.11439,-0.67941 c -0.14345,-0.85194 -0.31464,-1.38231 -0.93523,-2.89739 -2.01536,-4.92018 -7.09352,-8.99629 -12.7799,-10.2581 -1.44995,-0.32174 -5.03431,-0.32228 -6.48797,-0.001 -1.4355,0.3173 -3.42492,1.07912 -4.51337,1.72834 -0.79366,0.47339 -0.79928,0.7557 -0.006,0.32288 1.37863,-0.75259 7.30778,-0.63712 10.10635,0.19682 2.1951,0.65411 4.07105,1.79963 5.98806,3.65648 0.94152,0.91197 2.74123,3.30948 2.74123,3.65176 0,0.0869 0.0887,0.28536 0.19719,0.44109 0.34675,0.49787 1.03174,2.64072 1.26722,3.96427 0.37351,2.09934 0.28755,3.38588 -0.36976,5.53403 -0.3074,1.00459 -4.46509,4.36385 -7.84739,6.34039 -4.15509,2.42813 -8.99505,4.0979 -14.15746,4.88428 -2.68779,0.40941 -9.71995,0.29105 -12.164335,-0.20476 -8.679389,-1.76049 -15.768955,-5.64232 -21.467448,-11.75433 -1.45253,-1.55794 -4.697753,-5.97747 -5.407945,-7.36486 -0.190225,-0.37161 -0.412277,-0.78169 -0.493448,-0.9113 -0.08117,-0.12961 -0.480965,-0.96469 -0.888429,-1.85574 -1.53299,-3.35239 -2.894515,-8.14033 -3.282481,-11.54318 -0.282776,-2.48022 -0.273534,-7.23796 0.01828,-9.4168 z m 13.16401,0.60753 c 0.337042,0 1.590558,-0.0921 2.785597,-0.20468 1.195035,-0.11258 5.346255,-0.47744 9.22493,-0.81082 3.878678,-0.33338 9.686113,-0.83522 12.905415,-1.11521 3.219306,-0.28 9.502756,-0.82595 13.963236,-1.21324 11.34656,-0.98518 15.0109,-1.33299 15.07938,-1.43132 0.0326,-0.0468 -1.55397,-0.088 -3.52563,-0.0917 -1.97166,-0.004 -8.09115,-0.0908 -13.59887,-0.19354 -15.823824,-0.29526 -29.509574,-0.50856 -32.629694,-0.50856 h -2.869668 l -0.845852,2.32888 c -0.465217,1.28089 -0.903404,2.41546 -0.973746,2.52128 -0.300077,0.45138 -0.119629,0.71891 0.484902,0.71891 z m 3.860252,18.51813 c 0.274984,1.22585 1.385538,4.39136 1.723168,4.9117 0.132064,0.20354 0.299334,0.51885 0.371713,0.70071 0.300159,0.75415 1.738133,2.91254 2.8014,4.20488 6.766407,8.22417 17.574599,11.16414 27.547325,7.49325 3.94666,-1.45275 7.57254,-4.00223 9.98743,-7.02253 2.03282,-2.54243 2.53278,-3.26348 2.39036,-3.44745 -0.25689,-0.33185 -4.15888,-4.09494 -4.24609,-4.09494 -0.047,0 -0.55058,0.62356 -1.11895,1.38569 -1.51691,2.03401 -2.92478,3.52235 -4.58598,4.84812 -4.76644,3.80398 -9.45594,5.57434 -14.731465,5.56135 -4.586398,-0.0113 -7.956851,-1.13087 -11.840223,-3.933 -0.771684,-0.55682 -1.691986,-1.29464 -2.045121,-1.6396 -1.076809,-1.05186 -3.046372,-3.52197 -3.767791,-4.72534 -0.375332,-0.62608 -0.756695,-1.25086 -0.847468,-1.3884 -0.30126,-0.45646 -1.597991,-3.83276 -1.597991,-4.16069 0,-0.17731 -0.05731,-0.40896 -0.127351,-0.51478 -0.07005,-0.10581 -0.163148,-0.37464 -0.206894,-0.59741 -0.04375,-0.22276 -0.0472,-2e-4 -0.0077,0.49458 0.03952,0.49478 0.175246,1.36052 0.301617,1.92386 z m 16.09621,-39.49815 c 0.8538,0.7447 1.342012,1.3624 1.889035,2.39007 0.176062,0.33076 0.402969,0.72875 0.50424,0.88443 0.416206,0.6398 1.053275,3.05971 1.115833,4.23848 0.05358,1.0097 0.007,1.36911 -0.275691,2.12638 -0.435266,1.16605 -1.696272,2.47432 -2.960391,3.07134 -0.521851,0.24646 -0.926586,0.48003 -0.899411,0.51905 0.10868,0.15604 2.085583,-0.55465 2.993446,-1.07615 1.323453,-0.76021 2.28324,-1.68033 3.083758,-2.95628 0.992852,-1.58253 1.256715,-2.548 1.262848,-4.62076 0.0044,-1.47186 -0.05033,-1.88278 -0.377296,-2.83516 -0.210314,-0.6126 -0.622022,-1.49232 -0.914902,-1.95493 -0.629658,-0.99457 -2.215322,-2.50033 -2.632996,-2.50033 -0.24425,0 -3.611748,1.82142 -3.611748,1.95353 0,0.0233 0.370475,0.36539 0.823275,0.76033 z m 27.526706,1.90092 c 2.60089,1.03056 5.05283,3.03627 6.60123,5.39988 1.47602,2.2531 2.13666,4.00984 2.50243,6.65432 0.22924,1.65732 0.22954,1.85966 0.005,3.48114 -0.29117,2.10504 -0.49185,2.81422 -1.28641,4.54592 -1.96701,4.28697 -5.77883,7.39749 -10.29115,8.39778 -0.87549,0.19408 -1.08911,0.28749 -0.68843,0.30102 1.64626,0.0556 5.00252,-1.1892 7.05539,-2.61672 3.69594,-2.57008 5.99875,-6.42379 6.42508,-10.75225 0.17784,-1.80557 0.003,-4.31703 -0.37153,-5.34946 -0.12021,-0.33101 -0.21896,-0.66366 -0.21944,-0.73921 -5.3e-4,-0.0755 -0.23888,-0.71135 -0.52978,-1.41287 -0.97307,-2.34664 -3.17434,-5.06186 -5.26734,-6.49717 -1.76497,-1.21035 -4.57718,-2.23374 -6.75655,-2.45876 l -1.05782,-0.10922 1.41042,0.36816 c 0.77574,0.20248 1.88662,0.55683 2.46863,0.78744 z m -45.358045,59.58157 c 0.03191,0 0.571952,0.31583 1.200086,0.70186 3.191351,1.96126 8.000855,3.85733 12.30367,4.85052 5.277734,1.21822 12.114075,1.29685 17.749719,0.20414 9.47629,-1.83738 18.44507,-7.13454 24.61196,-14.53635 1.38677,-1.66447 4.17643,-5.78475 5.10644,-7.54212 1.96074,-3.70506 3.68784,-8.56334 4.27653,-12.02971 0.5964,-3.51182 0.72036,-5.1582 0.65565,-8.70801 -0.0778,-4.26586 -0.18983,-5.28766 -0.97309,-8.87283 -0.15365,-0.70325 -0.25297,-1.31652 -0.22072,-1.36282 0.0322,-0.0463 1.86013,-0.10883 4.06196,-0.13895 l 4.00333,-0.0548 0.22728,0.9113 c 0.96694,3.87695 1.35034,9.76904 0.91834,14.11294 -0.52444,5.27332 -1.53193,9.37605 -3.39709,13.8337 -0.78112,1.86681 -1.76129,3.96017 -2.14625,4.58375 -0.13291,0.21529 -0.59074,0.98072 -1.01739,1.70094 -5.07268,8.56306 -14.21423,15.97303 -23.96108,19.42242 -4.60502,1.62971 -8.81893,2.40793 -13.97943,2.58172 -8.6994,0.29296 -16.551619,-1.68709 -24.400127,-6.15283 -2.768012,-1.57498 -5.53209,-3.50491 -5.019788,-3.50491 z m 61.883565,-56.09579 c 1.1859,-2.46728 3.35242,-4.21317 8.19037,-6.60024 4.21217,-2.07831 7.10329,-4.30119 8.83222,-6.79079 l 0.75596,-1.08857 -0.10158,1.0876 c -0.13823,1.48003 -0.69712,2.96514 -1.57217,4.17771 -0.74828,1.03691 -2.00833,2.11673 -6.74927,5.78392 -3.96141,3.06422 -4.93057,4.04052 -5.6617,5.70348 -0.43937,0.99935 -0.45187,2.28991 -0.0273,2.81863 0.39132,0.4873 1.55386,0.98362 2.30397,0.98362 1.39644,0 2.57738,-0.78669 5.65591,-3.76776 1.23337,-1.19431 2.75059,-2.515 3.3716,-2.93487 1.28741,-0.87041 3.27589,-1.74534 4.39641,-1.93443 l 0.76182,-0.12856 -1.45346,2.10455 c -2.28731,3.31193 -4.23608,5.25506 -6.3142,6.2959 -1.98535,0.99437 -7.45103,1.32782 -9.49024,0.57898 -1.28803,-0.47299 -1.85095,-0.86059 -2.4758,-1.7047 -1.01589,-1.37234 -1.16884,-3.03181 -0.42255,-4.58447 z m 5.9372,2.24449 c 0.18984,-0.53838 0.73649,-1.41246 1.37322,-2.19573 0.88115,-1.08395 1.6584,-1.72751 4.65386,-3.85332 3.97365,-2.82 5.16796,-3.78144 6.48823,-5.22311 1.1767,-1.2849 2.70706,-3.52162 3.27791,-4.7909 l 0.46001,-1.0228 0.0449,0.88368 c 0.11903,2.34307 -1.28067,6.25804 -3.026,8.46375 -1.41223,1.78476 -2.86995,2.91802 -5.76354,4.4807 -3.81827,2.06206 -6.35665,3.87562 -7.36948,5.26517 l -0.45839,0.62889 0.002,-0.87094 c 10e-4,-0.49484 0.13816,-1.25719 0.31735,-1.76539 z"
       style="fill:#000000;stroke-width:0.264583"
       id="path1" />
  </g>
</svg>
