<?xml version="1.0" encoding="UTF-8" standalone="no"?>
<!-- Created with Inkscape (http://www.inkscape.org/) -->

<svg
   width="99.9478mm"
   height="85.039696mm"
   viewBox="0 0 99.9478 85.039696"
   version="1.1"
   id="svg1"
   inkscape:version="1.4 (e7c3feb1, 2024-10-09)"
   sodipodi:docname="P-AT.svg"
   xmlns:inkscape="http://www.inkscape.org/namespaces/inkscape"
   xmlns:sodipodi="http://sodipodi.sourceforge.net/DTD/sodipodi-0.dtd"
   xmlns="http://www.w3.org/2000/svg"
   xmlns:svg="http://www.w3.org/2000/svg">
  <sodipodi:namedview
     id="namedview1"
     pagecolor="#ffffff"
     bordercolor="#000000"
     borderopacity="0.25"
     inkscape:showpageshadow="2"
     inkscape:pageopacity="0.0"
     inkscape:pagecheckerboard="0"
     inkscape:deskcolor="#d1d1d1"
     inkscape:document-units="mm"
     inkscape:zoom="1.0482005"
     inkscape:cx="189.37217"
     inkscape:cy="160.75169"
     inkscape:window-width="1440"
     inkscape:window-height="872"
     inkscape:window-x="0"
     inkscape:window-y="28"
     inkscape:window-maximized="0"
     inkscape:current-layer="layer1" />
  <defs
     id="defs1" />
  <g
     inkscape:label="Layer 1"
     inkscape:groupmode="layer"
     id="layer1"
     transform="translate(-58.863441,-101.20514)">
    <path
       d="m 58.98689,136.84301 c 0.06228,-0.94674 0.186214,-2.08587 0.275405,-2.53139 1.73183,-8.65049 4.438491,-14.36518 9.51783,-20.09533 11.945249,-13.47582 31.680225,-16.918202 47.480585,-8.28206 6.217,3.39808 11.8059,8.93659 15.14814,15.0116 0.30639,0.55691 0.59193,1.05813 0.63452,1.11382 0.5183,0.67771 2.42777,5.58376 2.95572,7.59419 0.17547,0.66829 0.36764,1.39733 0.42701,1.6201 0.72705,2.72797 1.03341,5.93189 0.93919,9.82182 -0.0819,3.38282 -0.30374,4.9636 -1.17927,8.40424 -0.5796,2.27766 -1.69492,5.47872 -2.3285,6.68289 -0.0586,0.11139 -0.52982,1.02269 -1.04719,2.02512 -2.03176,3.93677 -5.67126,8.52395 -8.99155,11.33281 -2.29441,1.94102 -6.57476,4.75601 -8.0282,5.27977 l -0.38449,0.13856 v -2.80649 c -0.003,-6.89273 -1.01187,-12.97489 -3.17952,-19.16434 -0.59248,-1.69172 -2.03084,-5.00773 -2.41975,-5.57853 -0.10028,-0.14718 -0.18336,-0.32944 -0.1846,-0.40502 0,-0.0756 -0.19635,-0.45638 -0.43357,-0.84621 -0.23725,-0.38984 -0.73695,-1.21001 -1.11049,-1.82261 -2.65411,-4.35294 -6.02493,-8.20664 -9.228873,-10.55093 l -1.217692,-0.89099 -0.377005,0.70879 c -1.330113,2.50071 -4.246668,5.66829 -7.091918,7.7023 -5.681689,4.06171 -12.945348,4.84174 -18.575787,1.99482 -4.644813,-2.34857 -8.116782,-6.36206 -9.915657,-11.46221 -0.546365,-1.54899 -0.534882,-1.10857 0.02302,0.8795 0.789385,2.81347 1.553369,4.40387 3.348752,6.97124 3.945335,5.6418 10.507848,9.10274 17.260279,9.10274 5.020971,0 9.14482,-1.37297 13.493591,-4.49247 l 2.180643,-1.56423 1.031557,0.49719 c 1.412426,0.68078 3.13669,1.94973 4.45093,3.27565 1.19631,1.20695 3.26249,4.01706 4.1348,5.62351 0.30186,0.55591 0.69164,1.23846 0.86619,1.51677 0.17455,0.2783 0.31734,0.56878 0.31734,0.6455 0,0.0767 0.0825,0.25991 0.18341,0.40709 0.53189,0.77598 3.13428,7.50304 3.75055,9.69493 0.10798,0.38405 0.30554,1.06279 0.43905,1.50831 0.68215,2.27658 1.76776,6.89665 1.96339,8.35572 l 0.1157,0.86278 -1.35723,0.6015 c -4.75147,2.10575 -9.66092,3.09986 -15.320456,3.10222 -7.959937,0.003 -15.125489,-2.15465 -21.682049,-6.52972 -1.259152,-0.84022 -4.021349,-3.06646 -5.098812,-4.10948 -2.213821,-2.14308 -5.528733,-6.41346 -6.802596,-8.7634 -0.301889,-0.5569 -0.584438,-1.05812 -0.627856,-1.11381 -0.216456,-0.27762 -1.707065,-3.71796 -2.149687,-4.96154 -2.019723,-5.67444 -2.620142,-10.1716 -2.203608,-16.50472 z m 16.569955,-6.04742 c 2.343758,-7.23015 9.375695,-11.19854 16.141355,-9.10919 4.023837,1.24262 6.085787,2.97245 10.33082,8.66677 1.788,2.39844 4.04418,4.0079 7.01746,5.00591 1.16017,0.38943 2.03197,0.5222 4.02511,0.61303 3.67889,0.16765 6.01024,-0.28264 9.10896,-1.75934 2.91391,-1.38863 4.68329,-2.8906 6.55291,-5.56255 1.17647,-1.68137 1.87164,-3.18807 2.42147,-5.24827 0.36468,-1.3664 0.42392,-2.19737 0.0813,-1.13979 -0.12629,0.38983 -0.35668,1.09161 -0.51197,1.5595 -0.38362,1.15587 -1.71561,3.2228 -2.95434,4.58437 -2.56738,2.822 -6.88329,4.79177 -10.49914,4.79177 -1.41221,0 -3.90633,-0.5264 -5.37437,-1.1343 -1.3212,-0.54709 -3.68237,-2.09589 -4.63728,-3.04178 -0.32366,-0.32062 -1.11096,-1.26643 -1.74953,-2.10179 -3.624,-4.74082 -7.433122,-7.60289 -11.343108,-8.5229 -1.606868,-0.37808 -4.968584,-0.27803 -6.890756,0.2051 -5.434594,1.36593 -9.892294,5.46311 -11.473391,10.54543 -0.555255,1.78476 -0.588433,1.90308 -0.653018,2.32889 -0.133403,0.87957 -0.05681,0.75163 0.407538,-0.68086 z m 30.913865,-7.5983 c 4.45066,1.23684 9.3586,-1.59999 10.55211,-6.09918 0.38005,-1.43263 0.34139,-3.34804 -0.094,-4.65778 l -0.33658,-1.01255 -2.01689,-0.17555 c -1.10929,-0.0965 -2.05377,-0.12259 -2.09883,-0.0579 -0.0451,0.0647 0.0156,0.41711 0.13472,0.78308 0.50988,1.5658 0.56137,2.19712 0.32515,3.9852 -0.40846,3.09154 -1.39827,5.21453 -2.84692,6.10612 -0.90236,0.55536 -2.28899,0.85455 -3.57264,0.77084 -0.61328,-0.04 -1.08916,-0.0355 -1.05749,0.01 0.0317,0.0455 0.48678,0.20194 1.01135,0.34772 z m -32.069751,53.33805 c 0.02807,0 0.45765,0.26472 0.954617,0.58827 3.057895,1.99078 8.983557,4.28816 13.310208,5.16037 4.223782,0.85146 10.542376,1.09617 14.245326,0.55171 7.27244,-1.0693 13.0959,-3.32071 18.92527,-7.31673 3.00625,-2.06078 4.85432,-3.72337 8.27122,-7.44114 0.7705,-0.83834 3.47295,-4.59273 4.18899,-5.81957 0.94462,-1.61845 1.9567,-3.52283 2.26013,-4.25275 0.1852,-0.44552 0.38936,-0.90118 0.45368,-1.01256 0.19547,-0.33851 0.7911,-1.93509 1.35996,-3.64521 1.71794,-5.16465 2.49462,-11.74933 1.97617,-16.7541 -0.19108,-1.84453 -0.62751,-4.57125 -0.96494,-6.02849 -0.14184,-0.61259 -0.23802,-1.16426 -0.21373,-1.22591 0.0586,-0.14878 8.05813,-0.1185 8.16219,0.0309 0.0445,0.0638 0.26416,1.06507 0.48829,2.22499 0.46513,2.40744 0.86116,6.30025 0.86116,8.46505 0,1.4339 -0.356,6.09708 -0.51191,6.70593 -0.0428,0.16708 -0.20199,0.98725 -0.35378,1.82261 -0.255,1.40344 -0.47649,2.39615 -0.88061,3.94694 -0.66511,2.5523 -2.97564,8.25064 -4.10649,10.12763 -2.40459,3.99112 -3.89433,6.00881 -6.53757,8.85432 -2.84096,3.05834 -7.39227,6.7098 -10.81119,8.67363 -5.33522,3.06456 -11.50826,5.09866 -17.77137,5.85588 -2.18864,0.26461 -8.264264,0.26333 -10.437181,-0.002 -6.064779,-0.7411 -11.451881,-2.46585 -16.853323,-5.39583 -2.627683,-1.42536 -6.558624,-4.11373 -6.015117,-4.11373 z m 61.775951,-55.3871 c 0.65018,-1.6039 1.55199,-2.71477 3.33422,-4.10713 1.24048,-0.96911 2.44145,-1.66562 5.14805,-2.98567 4.58201,-2.23469 6.99019,-4.11269 8.90929,-6.94781 l 0.61111,-0.90279 v 0.58916 c 0,0.80421 -0.47363,2.60173 -0.94033,3.56867 -0.81129,1.6809 -1.65327,2.46424 -7.24016,6.7359 -4.38629,3.35372 -5.36956,4.37942 -6.06793,6.32988 -0.52607,1.46923 -0.15052,2.41971 1.18028,2.98716 1.89373,0.80747 3.20556,0.16793 6.86644,-3.34753 2.97241,-2.85432 4.40322,-3.83674 6.76587,-4.64554 1.21198,-0.41488 2.19766,-0.54618 1.8723,-0.24939 -0.0951,0.0867 -0.80788,1.03481 -1.58409,2.1069 -2.57884,3.56195 -4.76186,5.61863 -6.71012,6.32177 -2.10799,0.76079 -6.84977,0.99074 -8.71689,0.42273 -1.68447,-0.51245 -2.91232,-1.56266 -3.3955,-2.90428 -0.25699,-0.71356 -0.27517,-2.37351 -0.0325,-2.97203 z m 5.97569,2.43014 c 0.1084,-0.62731 0.94102,-2.16458 1.5416,-2.84617 1.26637,-1.43723 2.72899,-2.57647 6.81826,-5.31078 1.08084,-0.7227 3.92707,-3.19319 4.7291,-4.1048 0.46774,-0.53163 1.26111,-1.60611 1.76306,-2.38773 1.1427,-1.77948 1.1853,-1.85603 1.46539,-2.63366 0.1266,-0.35154 0.26345,-0.63916 0.30409,-0.63916 0.1298,0 -0.10459,2.49449 -0.33301,3.54396 -0.21129,0.97081 -0.83479,2.79232 -1.24772,3.64521 -0.415,0.8571 -1.97935,2.98652 -2.69518,3.66875 -1.18808,1.13229 -2.77714,2.20338 -5.34199,3.60071 -3.68035,2.00504 -5.64232,3.41711 -6.64792,4.78467 l -0.45839,0.62339 0.0164,-0.76968 c 0.009,-0.42333 0.0478,-0.95195 0.0863,-1.17471 z"
       style="fill:#000000;stroke-width:0.264583"
       id="path1" />
  </g>
</svg>
