<?xml version="1.0" encoding="UTF-8" standalone="no"?>
<!-- Created with Inkscape (http://www.inkscape.org/) -->

<svg
   width="100.08824mm"
   height="85.030014mm"
   viewBox="0 0 100.08824 85.030015"
   version="1.1"
   id="svg1"
   inkscape:version="1.4 (e7c3feb1, 2024-10-09)"
   sodipodi:docname="P-CY.svg"
   xmlns:inkscape="http://www.inkscape.org/namespaces/inkscape"
   xmlns:sodipodi="http://sodipodi.sourceforge.net/DTD/sodipodi-0.dtd"
   xmlns="http://www.w3.org/2000/svg"
   xmlns:svg="http://www.w3.org/2000/svg">
  <sodipodi:namedview
     id="namedview1"
     pagecolor="#ffffff"
     bordercolor="#000000"
     borderopacity="0.25"
     inkscape:showpageshadow="2"
     inkscape:pageopacity="0.0"
     inkscape:pagecheckerboard="0"
     inkscape:deskcolor="#d1d1d1"
     inkscape:document-units="mm"
     inkscape:zoom="1.0482005"
     inkscape:cx="189.37217"
     inkscape:cy="160.75169"
     inkscape:window-width="1440"
     inkscape:window-height="872"
     inkscape:window-x="0"
     inkscape:window-y="28"
     inkscape:window-maximized="0"
     inkscape:current-layer="layer1" />
  <defs
     id="defs1" />
  <g
     inkscape:label="Layer 1"
     inkscape:groupmode="layer"
     id="layer1"
     transform="translate(-58.869192,-101.29326)">
    <path
       d="m 58.98418,136.43725 c 0.510328,-3.78539 0.89191,-5.55827 1.746673,-8.1152 1.015577,-3.03806 2.657925,-6.5797 4.062333,-8.76025 0.984065,-1.52791 2.250678,-3.28588 2.76987,-3.84442 0.271516,-0.29208 0.842725,-0.95248 1.269392,-1.46755 2.1327,-2.57467 6.09256,-5.81431 9.520396,-7.78883 10.528379,-6.06464 23.163896,-6.83076 34.470446,-2.09002 4.67974,1.96218 10.32819,5.92963 13.31738,9.35408 0.93768,1.07425 3.51366,4.43916 4.04111,5.27877 0.27385,0.43595 0.56462,0.8916 0.64617,1.01256 0.0815,0.12095 0.57224,1.04009 1.09048,2.04252 0.51821,1.00243 1.0016,1.92456 1.07415,2.04917 0.0726,0.12461 0.50922,1.26374 0.97036,2.5314 3.14664,8.64997 3.22683,17.53374 0.23514,26.04832 -0.54089,1.53945 -0.61148,1.6663 -0.53589,0.96296 0.0479,-0.44553 0.14219,-0.96354 0.20955,-1.15113 0.0674,-0.1876 0.12248,-1.20118 0.12248,-2.25241 0,-1.50255 -0.0773,-2.2513 -0.3614,-3.50092 -0.34287,-1.50814 -1.05338,-3.42703 -1.68008,-4.53746 -1.73318,-3.07096 -5.06568,-6.159 -8.20182,-7.60015 -2.13598,-0.98155 -4.14641,-1.47676 -2.48896,-0.61308 3.21969,1.67776 6.00239,4.73453 7.38463,8.11197 1.02933,2.51514 1.18687,3.29463 1.18687,5.87285 0,2.41375 -0.14579,3.33433 -0.81764,5.16405 -2.4579,6.69348 -8.39836,10.90918 -15.89593,11.28069 -5.72736,0.28379 -10.95653,-1.81011 -14.581137,-5.83867 -0.765916,-0.85127 -0.182007,0.26944 0.861324,1.65319 3.626403,4.80961 9.211763,7.48564 15.623883,7.48564 3.42149,0 6.44356,-0.69843 9.2383,-2.13509 1.68799,-0.86772 4.22127,-2.81324 5.25007,-4.03199 0.52155,-0.61784 0.98833,-1.12335 1.03728,-1.12335 0.0883,0 -1.02778,1.59216 -2.49172,3.55445 -4.70268,6.30358 -12.16284,11.2996 -20.22713,13.54596 -3.89702,1.08554 -5.0156,1.21795 -10.296101,1.21876 -5.490845,7.9e-4 -6.699806,-0.15436 -11.001348,-1.41222 -7.254981,-2.12153 -13.653797,-6.29604 -18.489613,-12.06238 -2.003927,-2.38955 -4.821422,-6.57746 -4.61981,-6.86692 0.03961,-0.0569 0.14613,0.0354 0.236776,0.20493 0.277601,0.51943 2.03753,2.32093 3.104144,3.17745 2.038139,1.63669 5.137785,3.17187 8.121915,4.02259 l 1.188296,0.33877 0.433679,-0.70183 c 0.238548,-0.386 0.719323,-1.19182 1.068387,-1.7907 0.349092,-0.59889 1.301142,-2.18478 2.115662,-3.52421 2.230755,-3.66833 2.43369,-4.00493 3.291469,-5.45911 0.322977,-0.54749 0.650664,-1.09512 0.728239,-1.21696 0.07758,-0.12184 0.647886,-1.08641 1.267381,-2.1435 0.619469,-1.05708 1.190704,-2.02081 1.269365,-2.1416 0.07869,-0.1208 0.4073,-0.66758 0.73025,-1.21507 0.32295,-0.5475 0.725144,-1.22327 0.893762,-1.50172 0.168619,-0.27846 0.570813,-0.95423 0.893763,-1.50172 0.32295,-0.54749 0.651192,-1.09427 0.72943,-1.21507 0.07824,-0.1208 0.585999,-0.99424 1.128342,-1.94099 0.542369,-0.94674 1.113049,-1.91243 1.268201,-2.14598 0.322474,-0.48548 0.578961,-0.91315 2.035677,-3.39444 1.192081,-2.03049 1.140989,-2.0118 2.742116,-1.00342 2.251762,1.41813 4.169148,3.80745 5.020438,6.25606 0.4563,1.3125 0.4876,1.53034 0.49258,3.42672 0.005,1.90041 -0.0238,2.10829 -0.46689,3.37584 -0.72845,2.08383 -2.689088,5.11944 -4.033647,6.24528 -0.841772,0.70482 -0.726017,0.76629 0.345069,0.18329 2.184878,-1.18923 4.265428,-3.24558 5.268168,-5.20692 1.18513,-2.31807 1.7688,-5.18669 1.50136,-7.37865 -0.29824,-2.44441 -0.86572,-4.15618 -2.05992,-6.21374 -0.86357,-1.4879 -2.838263,-3.19002 -4.706512,-4.05684 -1.89312,-0.87836 -3.405214,-1.22162 -6.007391,-1.36368 l -2.266659,-0.12375 -0.305938,0.89046 c -0.168248,0.48975 -0.517022,1.43724 -0.775044,2.10553 -0.626718,1.62337 -1.48463,3.86296 -1.862799,4.86299 -0.169016,0.44701 -0.6146,1.58614 -0.99015,2.5314 -0.37555,0.94525 -0.820579,2.08317 -0.98896,2.52869 -0.16838,0.44553 -0.505592,1.33405 -0.749326,1.9745 -0.973005,2.55654 -1.348661,3.54924 -1.820069,4.80965 -0.270801,0.72398 -0.53975,1.40746 -0.59772,1.51884 -0.05794,0.11138 -0.328877,0.79486 -0.602033,1.51884 -0.273156,0.72398 -0.766709,1.9998 -1.096777,2.83516 -0.330041,0.83537 -0.704056,1.79224 -0.831109,2.12638 -1.082146,2.84611 -1.317202,3.34145 -1.585569,3.34145 -0.6282,0 -3.199738,-0.87141 -4.815972,-1.63198 -3.009265,-1.41609 -5.843614,-3.70583 -7.747661,-6.25898 -1.222561,-1.6393 -1.956065,-3.1248 -2.550081,-5.16436 -0.35904,-1.23281 -0.41693,-1.69653 -0.43053,-3.4494 -0.01746,-2.25054 0.216667,-3.63698 0.940488,-5.56908 1.055423,-2.81725 2.981748,-5.39009 5.527304,-7.38241 0.661829,-0.51798 1.203299,-0.97756 1.203299,-1.02129 0,-0.22213 -3.254216,2.04856 -4.301807,3.00166 -1.005708,0.91501 -1.266587,1.23447 -2.609268,3.19497 -1.312942,1.91704 -1.354349,1.98691 -1.788848,3.01712 -0.930487,2.20619 -1.282436,3.60248 -1.412637,5.60444 -0.04993,0.7677 -0.130916,1.20632 -0.193225,1.04646 -0.396425,-1.01713 -0.669317,-8.316 -0.388726,-10.39737 z m 45.13172,-1.26821 c 0.64305,2.66797 2.27172,5.49482 4.25826,7.39103 1.97403,1.88429 5.03465,3.2879 8.04971,3.69163 0.84751,0.11349 1.5657,0.17082 1.59594,0.12739 0.0302,-0.0434 -0.40931,-0.1838 -0.97679,-0.31194 -5.37204,-1.21305 -9.6956,-6.06016 -10.07681,-11.29707 -0.0984,-1.35196 0.1153,-3.07743 0.53795,-4.34297 0.38735,-1.15981 2.30026,-3.85275 3.20373,-4.5101 0.39571,-0.28791 0.71948,-0.59467 0.71948,-0.68167 0,-0.18658 -2.74605,-2.13012 -3.00968,-2.13012 -0.26707,0 -1.90572,1.61734 -2.60946,2.57552 -1.42446,1.93954 -1.98435,3.75297 -1.9921,6.45233 -0.004,1.30498 0.0752,2.10408 0.29977,3.03597 z m 14.57693,-17.98952 c 1.45357,2.1268 2.05386,4.55272 1.49651,6.04796 -0.25439,0.68251 -1.2741,1.72199 -2.26115,2.305 -0.99769,0.5893 -0.50737,0.61881 0.78327,0.0471 2.39951,-1.06282 3.78777,-2.72781 4.35202,-5.21952 0.21884,-0.96627 0.22561,-1.22014 0.0592,-2.21618 -0.18833,-1.12715 -0.79356,-2.48032 -1.51728,-3.39222 -0.4509,-0.56811 -1.88941,-1.70457 -2.15765,-1.70457 -0.10512,0 -0.88056,0.38097 -1.7232,0.84659 l -1.5321,0.8466 0.82619,0.5992 c 0.46387,0.33643 1.19806,1.14334 1.6742,1.84 z m -44.601868,59.25382 c 0.0217,0 0.577109,0.3269 1.234122,0.72644 3.584099,2.17956 7.945359,3.94448 12.195916,4.93548 13.83255,3.22498 28.51536,-0.63138 38.92783,-10.2242 4.53202,-4.17527 8.33239,-9.62824 10.76775,-15.45011 0.47754,-1.14162 0.86825,-2.11394 0.86825,-2.1607 0,-0.0468 0.18577,-0.65869 0.41278,-1.35982 0.50279,-1.55281 1.01042,-3.70602 1.44632,-6.13508 0.2958,-1.64832 0.32708,-2.268 0.32708,-6.48038 0,-4.71628 -0.10219,-5.98647 -0.70062,-8.70801 -0.098,-0.44552 -0.21963,-1.06065 -0.27035,-1.36695 l -0.0922,-0.55691 3.1409,0.001 c 1.72749,8e-4 3.56526,0.059 4.08392,0.12933 1.07064,0.1452 1.05725,0.12197 1.44235,2.50189 1.05376,6.51222 0.8441,12.59251 -0.65286,18.93485 -0.5947,2.51967 -2.35937,7.58399 -3.10486,8.91052 -0.0626,0.11139 -0.5357,1.02269 -1.05135,2.02513 -1.1667,2.26818 -4.05267,6.42343 -5.82731,8.39027 -7.54928,8.36686 -16.44158,13.34372 -27.36231,15.31416 -2.45933,0.44374 -9.55627,0.61731 -12.382631,0.30283 -6.630617,-0.73775 -13.35614,-3.02392 -18.916862,-6.43031 -2.266183,-1.38822 -4.864867,-3.29987 -4.485825,-3.29987 z m 62.253578,-54.98198 c 0.30017,-0.81781 1.34196,-2.22714 2.28996,-3.09786 1.28998,-1.18483 2.95058,-2.2037 6.03502,-3.70282 4.45569,-2.16558 7.23603,-4.2352 9.05161,-6.73774 l 0.75625,-1.04244 -0.0953,0.96543 c -0.29562,2.99393 -1.5811,4.7677 -5.71902,7.89131 -0.6594,0.49775 -2.1509,1.61591 -3.31452,2.48482 -2.51796,1.88025 -3.75718,3.00387 -4.49035,4.07142 -0.67661,0.98524 -1.1272,2.35305 -1.01544,3.08257 0.19643,1.28196 2.08235,2.13935 3.65726,1.66267 1.02875,-0.31137 2.47716,-1.39414 4.59499,-3.435 3.00109,-2.89203 4.5493,-3.89902 7.17658,-4.66777 1.81489,-0.53103 1.85148,-0.52478 1.21037,0.20678 -0.29779,0.33979 -0.89303,1.13072 -1.32274,1.75763 -1.00779,1.47033 -2.52589,3.19826 -3.83598,4.36627 -2.12849,1.89763 -3.47919,2.35124 -7.45564,2.5039 -2.32484,0.0892 -3.09602,0.0483 -3.93591,-0.20898 -1.08472,-0.33229 -2.55702,-1.24666 -3.0457,-1.89155 -0.75904,-1.00166 -1.00806,-2.93738 -0.54144,-4.20864 z m 6.05665,2.22763 c 0.38291,-1.07737 1.22478,-2.3379 2.20676,-3.30419 0.7058,-0.69454 1.53972,-1.3134 5.60657,-4.16085 1.66783,-1.16774 3.44498,-2.50799 3.9492,-2.97834 1.78755,-1.66743 3.64903,-4.18745 4.47739,-6.06134 l 0.31331,-0.70879 0.003,1.05611 c 0.005,2.41855 -1.11683,5.56083 -2.80636,7.85763 -1.46685,1.9941 -3.15878,3.29548 -6.71165,5.16241 -1.31877,0.69296 -3.09801,1.74718 -3.95388,2.3427 -1.56054,1.08581 -3.16879,2.57398 -3.16879,2.93218 0,0.10525 -0.0635,0.19136 -0.14105,0.19136 -0.26289,0 -0.13557,-1.31128 0.22612,-2.32888 z"
       style="fill:#000000;stroke-width:0.264583"
       id="path1" />
  </g>
</svg>
