<?xml version="1.0" encoding="UTF-8" standalone="no"?>
<!-- Created with Inkscape (http://www.inkscape.org/) -->

<svg
   width="99.936935mm"
   height="85.054337mm"
   viewBox="0 0 99.936934 85.054338"
   version="1.1"
   id="svg1"
   inkscape:version="1.4 (e7c3feb1, 2024-10-09)"
   sodipodi:docname="P-EQ.svg"
   xmlns:inkscape="http://www.inkscape.org/namespaces/inkscape"
   xmlns:sodipodi="http://sodipodi.sourceforge.net/DTD/sodipodi-0.dtd"
   xmlns="http://www.w3.org/2000/svg"
   xmlns:svg="http://www.w3.org/2000/svg">
  <sodipodi:namedview
     id="namedview1"
     pagecolor="#ffffff"
     bordercolor="#000000"
     borderopacity="0.25"
     inkscape:showpageshadow="2"
     inkscape:pageopacity="0.0"
     inkscape:pagecheckerboard="0"
     inkscape:deskcolor="#d1d1d1"
     inkscape:document-units="mm"
     inkscape:zoom="1.0482005"
     inkscape:cx="188.41815"
     inkscape:cy="160.75169"
     inkscape:window-width="1440"
     inkscape:window-height="872"
     inkscape:window-x="0"
     inkscape:window-y="28"
     inkscape:window-maximized="0"
     inkscape:current-layer="layer1" />
  <defs
     id="defs1" />
  <g
     inkscape:label="Layer 1"
     inkscape:groupmode="layer"
     id="layer1"
     transform="translate(-59.069073,-101.33164)">
    <path
       d="m 59.140514,136.54726 c 0.239739,-2.18316 0.629894,-4.41493 0.991262,-5.67033 0.457358,-1.58882 0.664871,-2.2352 1.235233,-3.84772 1.839066,-5.19933 4.485482,-9.41326 8.924158,-14.21 4.127368,-4.46032 11.199151,-8.54583 17.798917,-10.28277 6.476762,-1.70457 14.147406,-1.59491 20.569736,0.29407 12.13917,3.57047 21.59688,12.60957 25.79011,24.64857 0.24135,0.69296 0.43883,1.2989 0.43883,1.34652 0,0.0476 -0.66357,-0.23146 -1.4746,-0.6202 l -1.47463,-0.7068 0.32094,-0.74097 c 0.17653,-0.40754 0.36783,-0.8549 0.42511,-0.99412 0.20584,-0.50015 -0.14155,-0.23722 -0.83167,0.62947 l -0.70278,0.88262 -1.12834,-0.29912 c -1.80436,-0.47832 -5.29852,-0.41765 -7.23025,0.12554 -5.04512,1.41866 -9.01327,4.98988 -13.27258,11.94489 -0.88117,1.43885 -1.91101,2.59181 -3.07229,3.43961 l -0.58515,0.42718 -0.93845,-1.00722 c -0.51615,-0.55397 -1.07792,-1.22459 -1.24841,-1.49028 -1.47384,-2.29691 -2.10617,-3.88157 -2.55696,-6.40818 -0.41524,-2.32723 -0.1796,-4.6672 0.64913,-6.44615 0.22674,-0.4867 0.38933,-0.91782 0.36134,-0.95803 -0.064,-0.0919 -3.830323,-0.89096 -4.199311,-0.89096 -0.604441,0 -1.545775,3.69973 -1.545775,6.07535 0,4.17438 1.960298,8.38433 5.396756,11.59019 0.60365,0.56316 1.07273,1.05961 1.04233,1.10323 -0.15028,0.2158 -3.475171,1.07976 -5.028645,1.30669 -1.69336,0.24734 -1.735164,0.26449 -1.057831,0.43381 1.032087,0.25801 6.481336,0.24685 7.520916,-0.0154 0.83682,-0.21111 0.9703,-0.18728 2.16207,0.38601 2.38701,1.14826 3.50911,1.41805 6.39619,1.53783 2.9709,0.12326 4.6885,-0.14422 6.76974,-1.05425 l 1.12834,-0.49336 -0.91675,0.14619 c -1.98515,0.31654 -6.15337,-0.0689 -8.46257,-0.78259 -1.02489,-0.31674 -2.67996,-1.04379 -2.67817,-1.17647 0,-0.0673 0.52457,-0.51428 1.16362,-0.99325 1.22819,-0.92053 2.27716,-2.17938 3.07117,-3.68565 2.28492,-4.33465 6.64721,-8.78357 10.29097,-10.49537 2.02814,-0.95281 3.29462,-1.28019 5.39488,-1.39457 1.21894,-0.0664 2.08037,-0.0367 2.08037,0.0717 0,0.10173 -0.0855,0.36473 -0.18995,0.58443 -0.92823,1.95191 -0.8759,5.78095 0.12899,9.43725 0.82439,2.99958 0.72019,6.60391 -0.30525,10.55932 -0.2439,0.94074 -0.24718,1.06062 -0.0196,0.71916 1.38284,-2.07513 2.36043,-5.58426 2.36043,-8.47313 0,-1.32859 -0.28993,-3.69592 -0.55756,-4.55272 -0.50184,-1.60654 -0.73234,-5.8617 -0.40304,-7.43982 l 0.16775,-0.80392 0.64325,0.12263 c 0.35377,0.0674 1.07717,0.28194 1.60753,0.47665 l 0.9643,0.35403 0.26882,1.11382 c 0.14785,0.61259 0.32721,1.43277 0.39859,1.8226 0.0714,0.38984 0.24458,1.25558 0.38486,1.92386 0.37783,1.79957 0.37921,9.92623 0.003,11.84695 -0.58359,2.97186 -0.9974,4.62779 -1.61814,6.47521 -0.43778,1.3029 -2.11682,5.23648 -2.42258,5.6755 -0.0388,0.0557 -0.32303,0.55691 -0.63161,1.11382 -1.35763,2.44994 -3.86995,5.83213 -5.76413,7.75988 -6.11955,6.22806 -13.32979,10.00374 -21.95386,11.49627 -2.56691,0.44424 -8.845521,0.51015 -11.424468,0.11992 -5.135112,-0.777 -10.639874,-2.73 -14.692153,-5.21255 -1.758289,-1.07718 -5.115507,-3.62502 -6.393736,-4.8523 -2.448639,-2.35102 -5.217821,-5.80906 -6.818312,-8.51443 -0.424074,-0.71686 -0.462968,-0.88617 -0.387668,-1.68767 0.04604,-0.48998 0.139303,-0.99119 0.207275,-1.11381 0.068,-0.12262 0.170841,-0.45077 0.228573,-0.72922 0.165841,-0.79978 1.268413,-3.08415 1.985645,-4.11396 1.702832,-2.44493 4.254051,-4.61278 6.828552,-5.80236 2.260812,-1.04464 4.04577,-1.45923 6.91216,-1.60548 2.591515,-0.13221 2.600696,-0.1343 1.35001,-0.30672 -1.898359,-0.26171 -5.667348,-0.023 -7.537053,0.47731 -4.447434,1.19013 -8.569563,4.15108 -11.255613,8.08501 l -0.979699,1.43482 -0.572267,-1.66634 c -0.314749,-0.91648 -0.654923,-1.98529 -0.755968,-2.37513 -0.101044,-0.38983 -0.226827,-0.79992 -0.279479,-0.9113 -0.05268,-0.11138 -0.237808,-0.97712 -0.411454,-1.92387 -0.173619,-0.94674 -0.378856,-2.0403 -0.456062,-2.43014 -0.178938,-0.90327 -0.272944,-7.4718 -0.126074,-8.80926 z m 26.623116,9.00088 c 2.290921,0.82827 4.362952,2.54763 6.072108,5.03865 1.229148,1.79141 1.215257,1.76702 1.834329,3.22033 0.922708,2.16616 1.303576,4.16157 1.303576,6.82956 0,2.23652 -0.419708,4.37231 -1.235578,6.28736 -0.621559,1.45896 -0.877755,1.8872 -2.43152,4.06451 -2.089918,2.92864 -3.829341,4.69668 -5.263304,5.34992 -1.016555,0.4631 -0.430979,0.39838 0.850398,-0.094 3.340708,-1.28368 6.375717,-3.72325 8.362103,-6.72156 1.916933,-2.89349 2.928302,-5.67753 3.408574,-9.38304 0.162904,-1.2567 0.0717,-5.11445 -0.138933,-5.87775 -0.07609,-0.27575 -0.206295,-0.86589 -0.289348,-1.31142 -0.177747,-0.95353 -1.400016,-4.07601 -1.956964,-4.99932 -1.746224,-2.89489 -4.047517,-5.00324 -7.01765,-6.42929 l -1.269391,-0.60947 -1.443408,2.07006 c -0.793856,1.13854 -1.444413,2.12759 -1.445683,2.1979 0,0.0703 0.296068,0.23571 0.660691,0.36754 z m 19.54141,-19.1445 c 3.47834,-0.4154 6.55439,-2.76935 7.56116,-5.7862 1.01033,-3.02753 0.4046,-6.47355 -1.52326,-8.66591 l -0.54264,-0.61707 -1.95426,0.637 c -1.07485,0.35035 -1.97983,0.66804 -2.01107,0.70599 -0.0312,0.038 0.1157,0.26379 0.32649,0.50187 1.40536,1.58723 2.33961,4.4315 2.33961,7.1228 0,3.18205 -1.41846,4.9183 -4.83071,5.91295 -0.72583,0.21157 -0.39098,0.31105 0.63468,0.18857 z m -30.782577,50.20915 c 0.116364,0.0592 0.97319,0.55728 1.904074,1.10683 9.103386,5.37423 21.355261,6.92366 32.157753,4.06683 6.77772,-1.79245 13.67112,-5.64722 18.54713,-10.37152 0.89154,-0.86381 3.3342,-3.50886 3.93792,-4.2642 1.24979,-1.56365 3.4353,-4.89027 4.35423,-6.62764 0.55329,-1.04612 1.05844,-1.99316 1.12254,-2.10455 0.23421,-0.407 1.15483,-2.6718 1.68752,-4.15149 0.98515,-2.73649 1.66645,-5.76357 2.16503,-9.61931 0.23625,-1.82716 0.23625,-7.08337 0,-8.91052 -0.26578,-2.05546 -0.69247,-4.54206 -0.92956,-5.4172 l -0.20572,-0.75942 h 4.13293 4.13292 l 0.23622,1.16445 c 0.28713,1.41543 0.49128,2.7029 0.7466,4.7084 0.22889,1.79795 0.26348,7.60059 0.0545,9.15369 -0.71598,5.32269 -1.017,6.66911 -2.43575,10.89498 -4.03844,12.02879 -13.8385,22.3955 -25.91051,27.40871 -10.49981,4.3603 -22.363459,4.65203 -33.047996,0.81264 -3.917315,-1.40765 -8.2423,-3.66107 -11.227488,-5.8498 -1.199938,-0.8798 -1.881769,-1.47462 -1.422373,-1.24088 z m 61.814077,-55.09251 c 0.0952,-0.35675 0.45876,-1.07855 0.80785,-1.60399 1.24486,-1.87382 3.21379,-3.33819 7.01511,-5.21744 5.53707,-2.73733 7.32539,-4.07076 9.47221,-7.06269 l 0.76105,-1.06065 -0.0863,1.08514 c -0.0967,1.21585 -0.71337,2.95318 -1.41288,3.98031 -0.58174,0.85414 -2.04113,2.19445 -3.97216,3.64801 -7.27612,5.47697 -8.03331,6.19826 -8.81433,8.39635 -0.38193,1.07494 -0.35713,1.48485 0.13232,2.1876 0.74885,1.07521 2.55833,1.37581 3.99867,0.66428 0.96359,-0.476 1.59417,-0.99432 4.04863,-3.32782 3.02937,-2.88009 5.59112,-4.42201 8.10996,-4.88143 l 0.70522,-0.12863 -0.36492,0.36471 c -0.20068,0.20058 -0.93059,1.15866 -1.62197,2.12905 -2.55641,3.58797 -4.95361,5.69694 -7.25141,6.37951 -0.94351,0.28028 -1.90487,0.35672 -4.51337,0.35889 -3.05099,0.003 -3.39505,-0.0336 -4.32768,-0.45464 -1.03931,-0.46918 -1.98959,-1.35361 -2.48423,-2.31206 -0.33956,-0.658 -0.44154,-2.24654 -0.20182,-3.1445 z m 6.08406,2.10333 c 0.6204,-2.01349 1.98673,-3.53173 5.16094,-5.73472 3.86509,-2.68245 5.11757,-3.63539 6.62331,-5.0392 1.6183,-1.50873 3.65067,-4.23852 4.36156,-5.85818 l 0.4396,-1.00158 v 0.7208 c 0,2.61016 -0.95964,5.60608 -2.51571,7.85374 -1.70296,2.45982 -3.1677,3.68316 -6.53031,5.45407 -3.78053,1.991 -6.26782,3.74797 -7.27967,5.14218 l -0.45839,0.63161 0.0114,-0.79914 c 0.006,-0.43953 0.0905,-1.05584 0.18722,-1.36958 z"
       style="fill:#000000;stroke-width:0.264583"
       id="path1" />
  </g>
</svg>
