<?xml version="1.0" encoding="UTF-8" standalone="no"?>
<!-- Created with Inkscape (http://www.inkscape.org/) -->

<svg
   width="99.966957mm"
   height="85.04882mm"
   viewBox="0 0 99.966957 85.048821"
   version="1.1"
   id="svg1"
   inkscape:version="1.4 (e7c3feb1, 2024-10-09)"
   sodipodi:docname="P-FT.svg"
   xmlns:inkscape="http://www.inkscape.org/namespaces/inkscape"
   xmlns:sodipodi="http://sodipodi.sourceforge.net/DTD/sodipodi-0.dtd"
   xmlns="http://www.w3.org/2000/svg"
   xmlns:svg="http://www.w3.org/2000/svg">
  <sodipodi:namedview
     id="namedview1"
     pagecolor="#ffffff"
     bordercolor="#000000"
     borderopacity="0.25"
     inkscape:showpageshadow="2"
     inkscape:pageopacity="0.0"
     inkscape:pagecheckerboard="0"
     inkscape:deskcolor="#d1d1d1"
     inkscape:document-units="mm"
     inkscape:zoom="0.74118967"
     inkscape:cx="78.927166"
     inkscape:cy="265.11433"
     inkscape:window-width="1440"
     inkscape:window-height="872"
     inkscape:window-x="0"
     inkscape:window-y="28"
     inkscape:window-maximized="0"
     inkscape:current-layer="layer1" />
  <defs
     id="defs1" />
  <g
     inkscape:label="Layer 1"
     inkscape:groupmode="layer"
     id="layer1"
     transform="translate(-696.32013,1196.498)">
    <path
       d="m 696.36263,-1160.6833 c 0.041,-0.059 0.14076,-0.7417 0.22198,-1.5182 0.60114,-5.7397 3.17633,-12.502 6.66274,-17.4948 6.60585,-9.4604 16.40523,-15.351 27.67939,-16.6386 2.92708,-0.3343 8.5463,-0.133 11.32231,0.4055 12.86563,2.4957 23.44341,10.9867 28.43133,22.8225 1.06918,2.5367 1.69042,4.4523 2.27118,7.0018 1.59597,7.0078 1.09591,14.4009 -1.45679,21.5396 -0.44635,1.2479 -0.88265,2.3937 -0.96996,2.5462 -0.0873,0.1525 -0.63421,1.1995 -1.2155,2.3265 -5.44195,10.5522 -15.55247,17.9428 -27.72331,20.2652 -2.38945,0.4559 -10.21159,0.5202 -12.55289,0.1031 -4.17168,-0.7431 -7.56205,-1.8189 -11.05826,-3.5089 -1.17104,-0.5661 -2.25054,-1.1218 -2.39897,-1.2351 -0.22093,-0.1685 0.0309,-0.3301 1.3843,-0.8887 4.8088,-1.9847 8.75268,-4.4965 12.36239,-7.8735 6.65691,-6.2275 10.68043,-13.6476 12.40181,-22.8702 l 0.28416,-1.5229 -0.36803,-1.1696 c -0.37492,-1.1914 -1.17369,-2.8588 -1.95025,-4.0704 -0.47042,-0.734 -2.31245,-2.5537 -3.3229,-3.2828 -0.85487,-0.6169 -2.94296,-1.6192 -3.01519,-1.4473 -0.0317,0.076 -0.2323,0.8659 -0.44556,1.7557 -1.04642,4.3669 -2.84956,8.5149 -5.32976,12.2613 -1.04035,1.5718 -3.0951,4.0698 -4.20053,5.107 -1.19565,1.1219 -3.85233,3.0508 -5.23822,3.8033 -0.67839,0.3684 -1.20782,0.7067 -1.17634,0.7518 0.1151,0.1654 3.44699,-0.3956 5.12974,-0.8638 3.07737,-0.8561 5.67664,-2.2001 8.13065,-4.2037 2.06322,-1.6847 3.66448,-3.7305 4.91146,-6.2749 0.31459,-0.6419 0.59505,-1.1337 0.62362,-1.093 0.0894,0.1286 -1.20967,4.6076 -1.93093,6.6566 -0.5924,1.6832 -2.27779,5.6047 -2.74187,6.3802 -0.081,0.1353 -0.21167,0.3632 -0.29025,0.5062 -1.01865,1.8516 -1.55258,2.6977 -3.24194,5.1366 -1.08611,1.5683 -2.56355,3.5177 -3.28295,4.3322 -2.05449,2.3251 -5.08952,5.1108 -7.4377,6.8267 l -2.15345,1.5734 -2.1664,-1.5516 c -4.58126,-3.2806 -9.1612,-8.4735 -11.55595,-13.1023 -0.37994,-0.7341 -0.74189,-1.4258 -0.80459,-1.5372 -0.0627,-0.1114 -0.43524,-0.9771 -0.82788,-1.9239 -1.40653,-3.3922 -2.3249,-6.746 -2.74479,-10.0243 -0.1651,-1.2893 -0.34131,-7.8255 -0.2159,-8.0057 z m 18.58169,-15.4084 c 0.51276,0.013 1.90923,0.163 3.10303,0.3328 14.92541,2.1237 26.4586,6.6761 30.19531,11.9187 2.14497,3.0095 2.87284,6.871 1.91135,10.1418 -0.75856,2.5812 -2.83766,5.4011 -5.28876,7.1734 -0.9062,0.6551 -1.17396,0.9836 -0.5035,0.6177 1.50204,-0.82 4.11824,-3.0617 5.38374,-4.6131 1.80869,-2.2172 3.12393,-5.8804 3.12393,-8.7011 0,-0.9266 -0.34316,-3.0666 -0.64426,-4.0173 -0.11112,-0.351 -0.20214,-0.7001 -0.20214,-0.7758 0,-0.076 -0.23415,-0.6444 -0.5207,-1.2639 -2.97921,-6.4449 -10.77965,-10.1122 -23.80906,-11.1938 -4.20396,-0.349 -15.32175,-0.1762 -14.10441,0.2192 0.23284,0.076 0.8427,0.1482 1.35547,0.1614 z m 15.50431,51.0959 c 0.19765,1.0211 1.18772,2.2374 2.18917,2.6898 1.10516,0.499 2.98714,0.3606 3.87059,-0.2846 2.47729,-1.8094 2.44316,-5.0739 -0.0704,-6.7367 -0.59082,-0.3908 -0.93425,-0.4652 -2.11561,-0.4588 -1.62084,0.01 -2.52757,0.4466 -3.30227,1.5942 -0.65484,0.9699 -0.82153,1.9029 -0.5715,3.1961 z m 15.28763,-51.1779 c 4.46352,-1.2963 7.08501,-5.6834 6.05631,-10.1354 -0.29448,-1.2742 -0.87445,-2.3986 -1.91161,-3.706 l -0.37915,-0.4779 -1.95977,0.6579 -1.95977,0.658 0.63103,0.8337 c 1.25148,1.6538 2.00845,4.1016 2.01745,6.5237 0.008,1.9521 -0.41407,3.1411 -1.46103,4.1253 -0.79931,0.7512 -2.50216,1.6051 -3.32026,1.665 -0.30823,0.022 -0.18018,0.069 0.31221,0.1124 0.45958,0.041 1.34806,-0.075 1.97459,-0.2567 z m -34.01616,54.8452 c 0.0971,0.057 0.77947,0.468 1.51659,0.9125 3.5986,2.1701 8.69686,4.098 13.1871,4.9866 4.2635,0.8437 9.91473,1.0193 14.15283,0.4396 8.23807,-1.1267 16.28087,-4.7583 22.44778,-10.1359 3.54039,-3.0871 7.19772,-7.5804 9.37948,-11.5229 0.23257,-0.4206 0.49874,-0.8839 0.59134,-1.0296 1.03108,-1.6247 3.11838,-7.2625 3.82905,-10.3416 0.84349,-3.6559 0.93927,-4.6456 0.93927,-9.7206 0,-3.796 -0.0466,-4.92 -0.25082,-6.0754 -0.42096,-2.3811 -0.67601,-3.628 -0.82021,-4.0078 -0.20876,-0.5503 -0.0413,-0.7323 0.61542,-0.669 0.32808,0.032 2.16006,0.072 4.07088,0.089 l 3.47451,0.031 0.0775,0.4557 c 0.0429,0.2506 0.2757,1.5492 0.51752,2.8858 0.39291,2.171 0.44794,2.8404 0.51832,6.2778 0.0749,3.6598 -0.008,5.3521 -0.36565,7.493 -0.56224,3.3643 -0.74692,4.3207 -0.97764,5.0628 -0.0693,0.2227 -0.37068,1.2252 -0.66966,2.2276 -0.62415,2.0915 -1.93304,5.444 -2.76701,7.0879 -4.50876,8.8878 -12.22401,16.4723 -21.12407,20.7667 -15.2572,7.3614 -32.76811,5.945 -46.609,-3.7701 -1.05039,-0.7373 -1.90976,-1.3871 -1.90976,-1.4441 0,-0.057 0.0794,-0.057 0.17621,8e-4 z m 62.02945,-55.448 c 0.42545,-1.1297 0.90249,-1.8131 1.99416,-2.8575 1.29249,-1.2364 3.19961,-2.4819 5.54593,-3.622 5.284,-2.5676 7.56021,-4.2408 9.50384,-6.986 l 0.90037,-1.2718 -0.096,0.9895 c -0.14526,1.4939 -0.83661,3.3642 -1.61475,4.3684 -0.8091,1.044 -2.74029,2.6769 -6.64845,5.6218 -3.60574,2.717 -4.28255,3.3381 -5.18901,4.7623 -1.20809,1.898 -1.26788,3.2036 -0.18865,4.1147 0.5797,0.4893 0.79455,0.5509 1.9222,0.5509 1.16761,0 1.35493,-0.059 2.33812,-0.7329 0.58791,-0.4031 2.01957,-1.6459 3.18162,-2.7616 2.51751,-2.4176 3.40942,-3.1212 4.94083,-3.8974 1.12844,-0.5721 3.0091,-1.2148 3.55441,-1.2148 0.52017,0 -2.96651,4.5514 -4.91781,6.4198 -2.27092,2.1744 -3.64305,2.6698 -7.82796,2.826 -2.35189,0.088 -3.16998,0.047 -3.97272,-0.1993 -1.55284,-0.4758 -2.61144,-1.308 -3.42477,-2.6924 -0.3519,-0.5991 -0.35269,-2.4849 0,-3.4177 z m 5.87639,2.5924 c 0.4826,-2.0033 2.31511,-3.9971 5.95313,-6.4776 5.47132,-3.7306 7.98671,-6.1314 9.60993,-9.1714 0.19023,-0.3564 0.42492,-0.7699 0.52149,-0.919 0.0968,-0.149 0.25189,-0.5285 0.34476,-0.8432 l 0.1688,-0.5721 0.0532,0.5655 c 0.0807,0.8562 -0.3474,3.3174 -0.84376,4.8517 -0.24315,0.7518 -0.49027,1.3669 -0.54874,1.3669 -0.0587,0 -0.14526,0.1746 -0.19235,0.388 -0.12727,0.575 -1.76663,2.8812 -2.63367,3.7043 -1.1758,1.1166 -2.95354,2.3324 -4.97205,3.4007 -3.70998,1.9635 -6.10896,3.6646 -7.01754,4.9761 -0.25982,0.3747 -0.51964,0.6842 -0.57785,0.6878 -0.16325,0.01 -0.0929,-1.0139 0.13467,-1.9577 z"
       style="fill:#000000;stroke-width:0.264583"
       id="path1" />
  </g>
</svg>
