<?xml version="1.0" encoding="UTF-8" standalone="no"?>
<!-- Created with Inkscape (http://www.inkscape.org/) -->

<svg
   width="99.752968mm"
   height="84.956192mm"
   viewBox="0 0 99.752966 84.956194"
   version="1.1"
   id="svg1"
   inkscape:version="1.4 (e7c3feb1, 2024-10-09)"
   sodipodi:docname="P-GB.svg"
   xmlns:inkscape="http://www.inkscape.org/namespaces/inkscape"
   xmlns:sodipodi="http://sodipodi.sourceforge.net/DTD/sodipodi-0.dtd"
   xmlns="http://www.w3.org/2000/svg"
   xmlns:svg="http://www.w3.org/2000/svg">
  <sodipodi:namedview
     id="namedview1"
     pagecolor="#ffffff"
     bordercolor="#000000"
     borderopacity="0.25"
     inkscape:showpageshadow="2"
     inkscape:pageopacity="0.0"
     inkscape:pagecheckerboard="0"
     inkscape:deskcolor="#d1d1d1"
     inkscape:document-units="mm"
     inkscape:zoom="1.0482005"
     inkscape:cx="188.41815"
     inkscape:cy="160.75169"
     inkscape:window-width="1440"
     inkscape:window-height="872"
     inkscape:window-x="0"
     inkscape:window-y="28"
     inkscape:window-maximized="0"
     inkscape:current-layer="layer1" />
  <defs
     id="defs1" />
  <g
     inkscape:label="Layer 1"
     inkscape:groupmode="layer"
     id="layer1"
     transform="translate(-59.122139,-101.33072)">
    <path
       d="m 59.174619,138.102 c 0.14912,-2.7959 0.563166,-5.58713 1.070981,-7.21977 0.109167,-0.35098 0.19849,-0.73952 0.19849,-0.86343 0,-0.1239 0.06056,-0.38352 0.134594,-0.57693 0.07406,-0.1934 0.446431,-1.26295 0.827537,-2.37676 1.098444,-3.21037 2.236444,-5.49085 4.179147,-8.37489 2.185352,-3.24425 4.818459,-6.27867 7.058924,-8.13481 5.819352,-4.82113 11.910986,-7.65236 19.252327,-8.94795 2.353707,-0.41538 10.312241,-0.3493 12.693861,0.1054 6.2847,1.19988 12.15279,3.7967 16.97919,7.51382 1.53416,1.18155 3.71832,3.17627 4.64645,4.24343 2.78236,3.19917 4.57885,5.76086 6.05332,8.63171 0.37235,0.72494 0.7256,1.4092 0.78502,1.52058 0.65598,1.22968 2.14548,5.51659 2.49791,7.18917 0.12906,0.6126 0.29014,1.34165 0.35792,1.6201 0.57508,2.36245 0.87525,8.12083 0.57531,11.0369 -0.22161,2.15463 -0.46413,3.82495 -0.58803,4.05023 -0.0613,0.11138 -0.15603,0.54526 -0.21053,0.96417 -0.0545,0.41891 -0.15542,0.81159 -0.22418,0.87263 -0.0688,0.061 -0.12507,0.27303 -0.12507,0.47112 0,0.5534 -1.68725,5.28271 -2.28333,6.40009 -0.0594,0.11138 -0.41267,0.79565 -0.78502,1.52059 -5.94661,11.57823 -17.13539,19.31459 -30.18856,20.87356 -2.549894,0.30454 -8.490928,0.13597 -10.889482,-0.30897 -8.111807,-1.50477 -14.933559,-5.0152 -20.592229,-10.59661 -1.759638,-1.7356 -2.692876,-2.87631 -4.666827,-5.70432 -2.595695,-3.71877 -3.8345,-6.33027 -5.400225,-11.38393 -0.125994,-0.40667 -0.229076,-0.84077 -0.229076,-0.96468 0,-0.1239 -0.0589,-0.38352 -0.130863,-0.57693 -0.348165,-0.93558 -0.685165,-3.01511 -0.954934,-5.89292 -0.07496,-0.79958 -0.05747,-0.87228 0.18415,-0.76544 2.455862,1.086 6.786218,2.4372 10.069433,3.14195 3.718295,0.79815 5.298731,0.93728 10.5782,0.93124 5.55715,-0.006 7.288451,-0.21784 11.516069,-1.40671 0.996844,-0.28033 1.886135,-0.51005 1.976199,-0.51048 0.17608,-7.9e-4 0.608674,1.17475 0.959247,2.60671 0.562213,2.2965 0.0077,6.69136 -1.178401,9.34071 -1.727094,3.85752 -5.245656,6.7166 -9.323917,7.57636 -3.287924,0.69315 -7.987956,0.75258 -9.926981,0.12553 -1.271323,-0.41114 -0.831347,-0.046 0.923396,0.76625 2.786327,1.28983 4.086013,1.5562 7.593144,1.5562 3.491813,0 4.818169,-0.27049 7.508717,-1.53125 5.165804,-2.42062 8.892116,-6.70426 10.44903,-12.01184 0.3905,-1.33123 0.42421,-1.63853 0.4358,-3.97419 0.01,-1.95882 -0.0474,-2.80009 -0.25255,-3.7193 -0.62709,-2.81008 -1.671028,-5.05473 -3.669955,-7.89113 -1.188535,-1.68646 -1.613456,-2.17142 -1.837875,-2.09755 -0.16055,0.0529 -1.085268,0.52096 -2.05494,1.04025 -4.906962,2.62783 -11.182614,4.63452 -17.471601,5.58667 -2.603818,0.39421 -7.323534,0.56856 -10.243238,0.37837 -2.583656,-0.16829 -6.069171,-0.62594 -6.198023,-0.8138 -0.137928,-0.20112 -0.171715,-1.6718 -0.07853,-3.41915 z m 42.978251,6.07536 c 0.25096,1.29884 0.89411,3.24176 1.40777,4.25274 0.67771,1.33384 2.72915,4.02757 3.79085,4.97768 1.34503,1.20368 3.14063,2.3069 4.85529,2.98308 1.95172,0.76968 2.73484,0.87812 1.26939,0.17579 -3.52378,-1.6888 -6.18398,-4.69166 -7.65662,-8.64282 -0.68339,-1.83358 -0.73544,-2.17036 -0.73544,-4.75903 0,-2.48865 0.008,-2.55528 0.49366,-3.94559 0.58942,-1.68854 1.91442,-3.69272 3.25702,-4.92653 0.91761,-0.84322 3.16638,-2.26603 3.58151,-2.26603 0.49347,0 0.23466,-0.38891 -1.91802,-2.88211 -0.26273,-0.30428 -0.58639,-0.55488 -0.71927,-0.55691 -0.54104,-0.008 -3.16039,1.73448 -4.3039,2.86352 -1.90052,1.87651 -3.39521,5.29612 -3.61513,8.27095 -0.0823,1.11308 0.0573,3.23578 0.29289,4.45526 z m 13.86205,-10.11778 c 2.9718,0.03 5.48159,-1.15452 7.10142,-3.35153 0.36076,-0.48932 0.65588,-0.91681 0.6558,-0.94998 -8e-5,-0.0332 -0.49197,-0.0732 -1.0931,-0.0889 -0.60111,-0.0157 -1.3647,-0.17218 -1.69686,-0.3477 l -0.60393,-0.31912 -0.24233,0.75272 c -0.36722,1.14071 -1.0731,2.26833 -1.74136,2.78173 -0.79396,0.60996 -2.45528,1.11967 -3.71954,1.14118 -1.88777,0.0321 -0.73411,0.36066 1.3399,0.38158 z m -0.12729,8.84592 c 0.45945,1.18893 0.75023,1.54772 2.16908,2.6763 2.72439,2.167 5.56165,3.18958 8.30308,2.9925 1.55622,-0.11188 3.25424,-0.64636 4.02651,-1.26742 l 0.36761,-0.29565 -0.42312,0.14395 c -0.23273,0.0792 -1.27998,0.14201 -2.32722,0.13965 -2.26217,-0.005 -3.7845,-0.47234 -5.60092,-1.719 -1.41766,-0.97298 -2.86559,-2.92753 -3.48154,-4.69968 -0.22461,-0.64615 -0.47848,-1.13475 -0.56417,-1.08578 -1.15301,0.65888 -2.76514,1.87203 -2.76514,2.08078 0,0.14782 0.13314,0.61328 0.29583,1.03435 z m 0.69469,13.02662 c 0.63278,1.7809 2.59609,2.94659 4.67601,2.77632 1.73972,-0.14243 3.08147,-1.13492 3.82431,-2.8289 0.37198,-0.8482 0.32253,-2.61455 -0.10011,-3.57583 -1.61282,-3.66832 -7.028,-3.48038 -8.45095,0.2933 -0.31602,0.8381 -0.29274,2.3684 0.0507,3.33511 z m 2.57313,-28.68354 c 0.36007,0.90409 0.98877,1.65227 1.21772,1.44911 0.29895,-0.26528 0.16523,-0.9283 -0.2308,-1.1445 -0.48191,-0.26307 -0.81423,-0.76727 -1.07852,-1.63635 l -0.20505,-0.67434 -0.009,0.60753 c -0.005,0.33415 0.13258,0.96349 0.30583,1.39855 z m 0.76427,-4.9988 c 0.50025,1.12284 0.52213,1.24857 0.58238,3.34808 0.0609,2.12403 0.0718,2.18477 0.41412,2.30811 0.43995,0.15855 2.32887,-0.0524 3.0276,-0.33806 0.28829,-0.11786 0.62151,-0.35407 0.74049,-0.5249 0.28396,-0.4077 0.28515,-2.51242 0.003,-3.67913 -0.2272,-0.93648 -0.80936,-2.35852 -1.05466,-2.5762 -0.14811,-0.13144 -4.23179,0.0861 -4.23179,0.22537 0,0.0385 0.23391,0.59508 0.51977,1.23673 z m -45.177361,54.32948 c 0.02916,0 0.42582,0.23843 0.881538,0.52984 4.308264,2.75504 11.117924,5.05453 17.064011,5.76222 2.631017,0.31313 9.669492,0.13935 12.074602,-0.29812 11.93641,-2.17115 21.53386,-8.36123 28.43549,-18.34007 2.07592,-3.00154 3.51014,-5.69002 4.64923,-8.7151 0.2726,-0.72398 0.54716,-1.45302 0.61015,-1.62009 0.38048,-1.00939 1.32176,-4.59978 1.53964,-5.87284 0.74523,-4.35404 0.89403,-8.76869 0.4267,-12.657 -0.32018,-2.66388 -0.49414,-3.69988 -0.85863,-5.11342 l -0.27414,-1.06319 h 4.13208 4.13211 l 0.23188,1.16445 c 0.4994,2.50791 0.68143,3.87011 0.90582,6.77856 0.21913,2.84016 0.21836,3.20849 -0.0127,6.09602 -0.38108,4.76253 -1.12236,8.40523 -2.45932,12.085 -0.34399,0.94675 -0.72277,1.99474 -0.84175,2.32889 -0.28678,0.80536 -1.59025,3.52231 -2.47745,5.16405 -1.59113,2.94428 -4.61767,6.95471 -7.21125,9.55556 -3.5923,3.60236 -8.48053,7.15142 -12.75437,9.2602 -7.27617,3.59017 -16.44192,5.26709 -24.410405,4.46601 -6.913694,-0.69504 -12.593902,-2.5151 -18.758402,-6.01061 -2.742459,-1.55507 -5.534951,-3.50036 -5.024861,-3.50036 z m 61.631831,-55.5937 c 0.42883,-1.08012 0.88786,-1.78957 1.68788,-2.60869 1.33892,-1.37087 3.74782,-3.00342 6.16141,-4.17568 4.89783,-2.37884 7.26871,-4.15545 9.2842,-6.95715 l 0.89215,-1.24015 -0.0985,1.01255 c -0.14261,1.46663 -0.68062,2.96731 -1.47471,4.11349 -0.64976,0.93786 -2.99511,3.04731 -5.21814,4.69327 -4.92596,3.64728 -6.49896,5.14857 -7.29747,6.96473 -0.43992,1.00059 -0.48821,2.15395 -0.11499,2.74607 0.41188,0.65349 1.65584,1.09107 2.77487,0.97611 1.25063,-0.12848 2.42493,-0.93499 4.9902,-3.42727 2.21102,-2.14809 3.43974,-3.16774 4.58391,-3.80391 0.97644,-0.54292 3.46186,-1.42749 4.01185,-1.42784 l 0.41526,-2.6e-4 -0.42828,0.45565 c -0.23558,0.25061 -0.93345,1.1847 -1.55083,2.07575 -2.35019,3.39197 -4.87119,5.5886 -7.24347,6.31145 -1.56739,0.4776 -7.27922,0.53629 -8.39203,0.0862 -1.41615,-0.57272 -2.39149,-1.46934 -2.93129,-2.69472 -0.27826,-0.63166 -0.30885,-2.45286 -0.052,-3.09963 z m 6.17122,1.82381 c 0.73088,-1.9892 1.96075,-3.22724 6.14738,-6.18823 3.81773,-2.70009 5.13416,-3.76265 6.43385,-5.19306 1.19888,-1.31946 2.84133,-3.74473 3.30806,-4.88469 l 0.38671,-0.94453 0.0449,0.90634 c 0.15155,3.05727 -1.67188,7.3113 -4.18656,9.76727 -1.36448,1.33262 -2.30637,1.9893 -4.71977,3.29058 -3.86667,2.08489 -6.23168,3.77152 -7.25273,5.17236 l -0.45839,0.62889 v -0.87394 c 0,-0.49721 0.12782,-1.22184 0.29652,-1.68099 z"
       style="fill:#000000;stroke-width:0.264583"
       id="path1" />
  </g>
</svg>
