<?xml version="1.0" encoding="UTF-8" standalone="no"?>
<!-- Created with Inkscape (http://www.inkscape.org/) -->

<svg
   width="99.684181mm"
   height="85.094307mm"
   viewBox="0 0 99.684178 85.094307"
   version="1.1"
   id="svg1"
   inkscape:version="1.4 (e7c3feb1, 2024-10-09)"
   sodipodi:docname="P-LB.svg"
   xmlns:inkscape="http://www.inkscape.org/namespaces/inkscape"
   xmlns:sodipodi="http://sodipodi.sourceforge.net/DTD/sodipodi-0.dtd"
   xmlns="http://www.w3.org/2000/svg"
   xmlns:svg="http://www.w3.org/2000/svg">
  <sodipodi:namedview
     id="namedview1"
     pagecolor="#ffffff"
     bordercolor="#000000"
     borderopacity="0.25"
     inkscape:showpageshadow="2"
     inkscape:pageopacity="0.0"
     inkscape:pagecheckerboard="0"
     inkscape:deskcolor="#d1d1d1"
     inkscape:document-units="mm"
     inkscape:zoom="0.52410024"
     inkscape:cx="-304.33109"
     inkscape:cy="613.43227"
     inkscape:window-width="1440"
     inkscape:window-height="872"
     inkscape:window-x="0"
     inkscape:window-y="28"
     inkscape:window-maximized="0"
     inkscape:current-layer="layer1" />
  <defs
     id="defs1" />
  <g
     inkscape:label="Layer 1"
     inkscape:groupmode="layer"
     id="layer1"
     transform="translate(-1050.3491,-358.81248)">
    <path
       d="m 1050.4142,395.56733 c 0.033,-0.0466 0.1317,-0.85917 0.2206,-1.80573 0.3473,-3.69932 1.2117,-7.05871 2.8137,-10.9353 2.1158,-5.11992 4.9328,-9.18154 9.3185,-13.43579 8.3561,-8.10561 20.4957,-11.92623 32.2498,-10.14976 6.1426,0.92836 11.728,3.19507 16.6977,6.77631 3.8593,2.78105 6.466,5.43947 9.2326,9.41578 1.3836,1.98851 1.7154,2.52521 2.5048,4.05201 0.2879,0.55691 0.5744,1.10369 0.6368,1.21507 0.062,0.11139 0.3447,0.75153 0.6277,1.42255 3.4408,8.16128 4.1082,16.17134 2.058,24.70148 -0.39,1.62285 -1.843,5.96247 -2.22,6.63047 -0.079,0.14022 -0.5431,1.02954 -1.0308,1.97629 -3.3878,6.57512 -8.2586,11.77412 -14.5705,15.5521 -4.1888,2.5072 -8.5354,4.07268 -14.1694,5.10335 -2.0317,0.37168 -6.9253,0.48563 -9.4499,0.22006 -3.2263,-0.3394 -3.2729,-0.3728 -1.4432,-1.03499 4.4536,-1.61175 8.1939,-4.81342 10.7215,-9.17744 0.5574,-0.96243 1.6973,-3.9779 2.0313,-5.37349 0.2772,-1.15858 0.3212,-1.75307 0.3236,-4.37829 0,-2.79336 -0.028,-3.15984 -0.3771,-4.55652 -1.2938,-5.17177 -4.1141,-9.27924 -8.3493,-12.16016 -1.5963,-1.0858 -3.5331,-2.05598 -4.8434,-2.42613 l -0.8721,-0.24635 -2.298,1.88505 c -1.2639,1.03677 -2.901,2.39809 -3.6379,3.02514 -0.737,0.62705 -2.1333,1.81031 -3.103,2.62946 -0.9696,0.81915 -2.6516,2.26203 -3.7376,3.20641 -6.2386,5.42491 -7.3016,6.35365 -8.392,7.33191 -0.6594,0.59156 -1.6749,1.50285 -2.2567,2.02509 -0.5818,0.52224 -1.3515,1.18763 -1.7104,1.47864 l -0.6525,0.5291 -0.6941,-1.15831 c -1.8,-3.00382 -2.878,-5.44973 -4.0359,-9.15752 -0.7323,-2.34511 -1.1356,-4.43924 -1.4402,-7.47798 -0.1952,-1.94775 -0.2904,-5.50467 -0.1526,-5.70251 z m 39.7835,-2.96788 c 0.9964,7.47651 7.2021,13.87573 15.3052,15.78257 1.4113,0.3321 5.9894,0.32424 7.3343,-0.0126 2.0103,-0.50348 5.7893,-2.10986 5.6006,-2.38073 -0.031,-0.0442 -0.322,0.0544 -0.6472,0.21912 -1.0788,0.54653 -2.885,0.94518 -4.8124,1.06215 -8.2081,0.49817 -16.033,-5.15038 -17.6389,-12.73313 -0.4078,-1.92561 -0.3737,-4.55586 0.084,-6.46936 0.1966,-0.8221 0.3917,-1.63921 0.4335,-1.8158 0.066,-0.27747 -0.2175,-0.35329 -2.0853,-0.55822 -2.997,-0.32883 -2.7141,-0.40813 -3.073,0.86163 -0.1705,0.60288 -0.3935,1.81036 -0.4956,2.68328 -0.1022,0.87293 -0.1922,1.6327 -0.2002,1.68839 -0.01,0.0557 0.08,0.8084 0.195,1.67268 z m 13.1766,-7.04953 c 1.5375,-0.48885 2.3998,-0.99466 3.5683,-2.09293 3.0998,-2.91355 3.6647,-7.47734 1.3587,-10.97628 -0.3367,-0.51083 -0.8221,-1.13585 -1.0786,-1.38893 l -0.4664,-0.46015 -1.2261,0.43883 c -0.6744,0.24135 -1.5598,0.57686 -1.9676,0.74556 l -0.7415,0.30674 0.6005,0.70538 c 0.8902,1.04587 1.2129,1.64519 1.7302,3.21401 0.7837,2.37631 0.9358,4.72785 0.4026,6.22371 -0.513,1.43932 -1.9869,2.75037 -3.648,3.24492 l -0.8463,0.25194 0.6217,0.0638 c 0.342,0.0351 1.1036,-0.0894 1.6925,-0.27664 z m 16.4474,16.9281 c 0.4297,1.19311 2.2379,1.94352 3.3971,1.40977 1.9448,-0.89553 2.2554,-3.43938 0.5667,-4.64115 -1.2661,-0.90106 -2.9585,-0.57987 -3.7481,0.71132 -0.485,0.79308 -0.5527,1.58437 -0.2157,2.52006 z m -62.458,17.14289 c 0.077,-0.068 0.7367,-0.44069 1.4667,-0.82807 0.73,-0.38738 3.39,-1.8533 5.9112,-3.2576 2.5211,-1.4043 6.1706,-3.41085 8.1099,-4.45899 1.9394,-1.04814 5.0177,-2.73903 6.8406,-3.75753 5.8076,-3.2447 5.6273,-3.16644 6.3634,-2.7628 1.5115,0.82878 4.7166,4.56848 5.7019,6.65282 0.2289,0.48428 0.4514,0.92608 0.4943,0.98177 0.1473,0.19088 0.8466,2.23952 1.1599,3.39808 0.2663,0.98419 0.3135,1.55442 0.3138,3.79109 0,2.83963 -0.1022,3.45685 -0.9602,5.77159 -1.5067,4.06506 -5.1721,7.93654 -9.3859,9.91366 -1.5922,0.74708 -1.8805,0.75446 -4.3093,0.11036 -6.6127,-1.75359 -13.3563,-5.71175 -17.7134,-10.39693 -2.1568,-2.31914 -4.207,-4.96739 -3.9929,-5.15745 z m 9.6156,15.13798 c 4.1335,2.5403 9.4958,4.48036 15.2516,5.51798 2.446,0.44096 10.3659,0.50101 12.9054,0.0979 9.5045,-1.50885 18.2083,-5.97513 24.5784,-12.61225 2.0424,-2.12801 2.8478,-3.11802 4.5844,-5.63528 1.8207,-2.63914 3.2282,-5.16675 4.2992,-7.72033 0.7895,-1.88248 2.0055,-5.40232 2.0084,-5.81369 0,-0.14074 0.062,-0.41413 0.1355,-0.60754 0.1341,-0.3528 0.5346,-2.34542 0.8351,-4.15501 0.5194,-3.12671 0.4935,-9.27618 -0.053,-12.5111 -0.3458,-2.04801 -0.6388,-3.50074 -0.7833,-3.88335 -0.073,-0.1934 -0.1327,-0.44539 -0.1327,-0.55996 0,-0.13922 1.3636,-0.19051 4.1106,-0.15464 l 4.1106,0.0537 0.2679,1.31633 c 0.1474,0.72398 0.329,1.63528 0.4037,2.02512 0.68,3.55044 0.682,11.5459 0,15.18839 -0.2976,1.59836 -1.0188,4.74688 -1.2904,5.63366 -0.5225,1.70585 -1.9141,5.51232 -2.0864,5.707 -0.049,0.0557 -0.3432,0.64804 -0.6531,1.31633 -0.3099,0.66829 -0.6432,1.33549 -0.7405,1.48267 -0.097,0.14719 -0.177,0.32949 -0.177,0.40512 0,0.32488 -2.6118,4.22177 -4.0961,6.11143 -0.6562,0.83536 -1.2248,1.56721 -1.2635,1.62633 -0.5269,0.80314 -4.5976,4.703 -6.4933,6.22085 -8.9946,7.20167 -20.3902,10.80304 -31.5908,9.98367 -7.469,-0.54641 -14.238,-2.63025 -20.4466,-6.2946 -1.6768,-0.98965 -4.7976,-3.15483 -4.7976,-3.32854 0,-0.0505 0.4992,0.21491 1.1094,0.58986 z m 60.6046,-56.1199 c 0.2264,-0.74236 1.2675,-2.27299 2.1166,-3.1117 1.3327,-1.31654 3.1552,-2.45418 6.9024,-4.30857 3.9639,-1.96164 6.3149,-3.85994 8.2491,-6.66062 l 0.7401,-1.07169 -0.099,1.01256 c -0.1506,1.54749 -0.8559,3.41682 -1.7143,4.54324 -0.7015,0.92064 -2.073,2.16981 -3.8619,3.51751 -0.4267,0.32143 -1.1566,0.88245 -1.622,1.24671 -0.4654,0.36426 -1.6396,1.28171 -2.6093,2.03877 -0.9697,0.75707 -2.121,1.749 -2.5586,2.2043 -1.3972,1.45386 -2.2102,3.50712 -1.8446,4.65896 0.3044,0.95952 1.974,1.60822 3.3446,1.29961 1.1366,-0.25592 2.0763,-0.94619 4.7022,-3.45438 3.4194,-3.26608 5.7338,-4.71362 8.204,-5.13132 0.7703,-0.13025 0.7732,-0.12867 0.4231,0.22492 -0.1939,0.19585 -0.9238,1.1597 -1.622,2.14188 -1.3209,1.85826 -2.8961,3.65494 -4.1965,4.78634 -1.762,1.5331 -3.8935,2.12079 -7.7921,2.14838 -2.8995,0.0205 -3.8006,-0.18974 -5.138,-1.19885 -0.8522,-0.64299 -1.0334,-0.86368 -1.4729,-1.7935 -0.4194,-0.88747 -0.4754,-2.03052 -0.1514,-3.09255 z m 6.096,2.12765 c 0.7417,-2.26745 2.9047,-4.47336 6.9129,-7.04986 3.8739,-2.49019 7.3434,-6.0535 8.7109,-8.94666 0.2285,-0.48328 0.4536,-0.92425 0.5004,-0.97994 0.047,-0.0557 0.1266,-0.23795 0.1774,-0.40503 0.051,-0.16707 0.067,0.43395 0.036,1.3356 -0.031,0.90165 -0.1213,1.81296 -0.2005,2.02512 -0.079,0.21216 -0.2253,0.69818 -0.3245,1.08004 -0.2675,1.02996 -1.2222,3.0266 -1.9517,4.08167 -1.3616,1.96929 -3.6751,3.85979 -6.5386,5.34314 -3.4422,1.78307 -6.0333,3.6979 -7.2554,5.3618 l -0.3174,0.43206 v -0.76731 c 0,-0.42202 0.1131,-1.10181 0.2469,-1.51063 z"
       style="fill:#000000;stroke-width:0.264583"
       id="path1" />
  </g>
</svg>
