<?xml version="1.0" encoding="UTF-8" standalone="no"?>
<!-- Created with Inkscape (http://www.inkscape.org/) -->

<svg
   width="99.87471mm"
   height="84.984627mm"
   viewBox="0 0 99.874707 84.984627"
   version="1.1"
   id="svg1"
   inkscape:version="1.4 (e7c3feb1, 2024-10-09)"
   sodipodi:docname="P-WL.svg"
   xmlns:inkscape="http://www.inkscape.org/namespaces/inkscape"
   xmlns:sodipodi="http://sodipodi.sourceforge.net/DTD/sodipodi-0.dtd"
   xmlns="http://www.w3.org/2000/svg"
   xmlns:svg="http://www.w3.org/2000/svg">
  <sodipodi:namedview
     id="namedview1"
     pagecolor="#ffffff"
     bordercolor="#000000"
     borderopacity="0.25"
     inkscape:showpageshadow="2"
     inkscape:pageopacity="0.0"
     inkscape:pagecheckerboard="0"
     inkscape:deskcolor="#d1d1d1"
     inkscape:document-units="mm"
     inkscape:zoom="0.52410024"
     inkscape:cx="187.94115"
     inkscape:cy="161.2287"
     inkscape:window-width="1440"
     inkscape:window-height="872"
     inkscape:window-x="0"
     inkscape:window-y="28"
     inkscape:window-maximized="0"
     inkscape:current-layer="layer1" />
  <defs
     id="defs1" />
  <g
     inkscape:label="Layer 1"
     inkscape:groupmode="layer"
     id="layer1"
     transform="translate(-919.85389,-478.5413)">
    <path
       d="m 919.93453,514.12275 c 0.0356,-0.0511 0.13768,-0.76844 0.2269,-1.59411 0.47104,-4.35887 2.58765,-10.67338 4.88638,-14.57752 0.57253,-0.97238 2.48788,-3.76848 2.90182,-4.23621 0.23241,-0.2626 0.24008,-0.24315 0.10517,0.26632 -0.6504,2.45627 0.77893,5.02154 3.21119,5.76317 1.22836,0.37454 1.63412,0.262 0.658,-0.18251 -1.41269,-0.64333 -2.6043,-2.47612 -2.6043,-4.00567 0,-1.30518 0.81338,-2.77068 1.97461,-3.5577 0.51195,-0.34697 0.89382,-0.42861 1.97459,-0.42212 1.63338,0.01 2.43795,0.45812 3.37198,1.87894 l 0.62315,0.94788 -0.34031,-0.89249 c -0.40214,-1.05465 -1.33294,-2.09686 -2.31489,-2.59194 -0.97795,-0.49305 -3.30512,-0.4877 -4.09025,0.009 -0.6872,0.43511 -0.60587,0.32598 0.91678,-1.23006 5.21587,-5.33028 12.42301,-9.10143 20.45118,-10.70112 2.51429,-0.50099 9.51252,-0.61751 12.23487,-0.20371 6.53102,0.99272 11.85378,3.14637 17.17257,6.94821 3.5424,2.53208 5.94127,4.95625 9.1006,9.19651 0.56378,0.75668 2.28262,3.66417 2.74659,4.64599 0.23252,0.49201 0.45842,0.94012 0.50202,0.99581 0.36251,0.46297 2.38974,5.97794 2.38974,6.50118 0,0.10296 0.0561,0.34545 0.1246,0.53886 0.64182,1.81151 1.28976,6.62259 1.28119,9.51312 -0.005,1.51546 -0.36677,5.25576 -0.69165,7.14073 -0.60624,3.51743 -2.58749,8.89556 -4.47619,12.15071 -1.37237,2.36525 -4.63437,6.69505 -6.04071,8.01813 -0.40544,0.38144 -0.40814,0.38126 -0.29011,-0.0195 0.79084,-2.68472 0.82979,-2.9609 0.84235,-5.97355 0.01,-2.35273 -0.0405,-3.17255 -0.25286,-4.12432 -1.00465,-4.50198 -3.51674,-8.54208 -7.35343,-11.82628 -2.0936,-1.7921 -5.32469,-3.46191 -8.17827,-4.22646 -2.15101,-0.57632 -6.795,-0.52508 -8.79819,0.0971 -1.65103,0.51279 -4.05773,1.57511 -4.17251,1.84175 -0.0417,0.0969 0.048,0.52658 0.19942,0.95485 0.29591,0.8371 0.94827,2.92067 1.14736,3.66446 0.15198,0.56787 0.17153,0.56699 1.23892,-0.0557 2.25626,-1.31637 5.61371,-1.90883 8.65722,-1.52767 5.28222,0.66154 9.83829,3.32763 12.71817,7.44235 0.80709,1.15315 2.1971,3.81267 2.1971,4.20373 0,0.0747 0.13042,0.56362 0.2898,1.08658 0.15939,0.52295 0.34526,1.13308 0.41304,1.35584 0.26988,0.88674 0.68218,2.90685 0.85545,4.19116 0.15084,1.11791 0.1501,1.55259 -0.004,2.47567 -0.1814,1.08571 -0.21958,1.14983 -1.25849,2.11363 -5.0427,4.67817 -12.07339,8.09144 -19.47749,9.45594 -2.43297,0.44837 -7.8936,0.60923 -10.51309,0.30969 -9.00906,-1.03022 -17.00847,-4.80356 -23.12561,-10.90839 -2.04142,-2.03732 -4.75096,-5.50169 -6.13762,-7.84743 -1.07407,-1.817 -2.26515,-4.39139 -3.25255,-7.03007 -0.12605,-0.33688 1.05995,-0.35439 23.99726,-0.35439 22.90487,0 24.12743,-0.018 24.08232,-0.3544 -0.045,-0.33556 -1.33273,-0.35797 -24.23446,-0.42162 -13.3028,-0.037 -24.22789,-0.1281 -24.27798,-0.20251 -0.20108,-0.29869 -1.22832,-5.10648 -1.4429,-6.75329 -0.21095,-1.61892 -0.33642,-7.63992 -0.16436,-7.88698 z m 2.62413,3.46808 c 0.086,0.83536 0.17291,1.54281 0.19307,1.5721 0.0201,0.0293 0.46498,-0.1782 0.98846,-0.46112 1.77628,-0.95997 5.7142,-1.15931 7.94342,-0.40208 2.38514,0.81019 3.73089,2.74221 3.75703,5.39376 0.0109,1.10973 0.0161,1.12441 0.18913,0.53366 0.25328,-0.86486 0.22145,-3.1129 -0.0594,-4.19941 -1.39687,-5.40306 -7.59947,-8.11648 -12.5053,-5.47062 -0.76671,0.41351 -0.81886,0.48223 -0.74364,0.97979 0.0445,0.29429 0.15127,1.21856 0.23728,2.05392 z m 10.16654,-4.86029 c 0.36594,0 2.20305,1.45287 2.69459,2.131 l 0.52893,0.72968 -0.008,-0.77217 c -0.004,-0.4247 -0.0676,-1.50122 -0.14097,-2.39227 -0.0733,-0.89105 -0.22646,-2.85036 -0.34023,-4.35401 -0.1138,-1.50365 -0.30591,-3.96417 -0.42696,-5.46782 -0.12102,-1.50365 -0.27416,-3.44432 -0.34028,-4.3126 -0.0661,-0.86827 -0.15962,-1.63529 -0.2078,-1.70447 -0.0482,-0.0692 -0.0879,-0.0422 -0.0882,0.0599 0,0.26167 -0.683,5.95248 -0.99338,8.28611 -0.0741,0.55691 -0.23556,1.83273 -0.35883,2.83516 -0.12329,1.00244 -0.27395,2.18713 -0.33483,2.63266 -0.17258,1.26315 -0.16547,2.32888 0.0156,2.32888 z m 4.51583,-17.19776 c 1.50008,-0.12036 3.28276,-0.27394 3.96152,-0.3413 1.15801,-0.11491 1.23413,-0.0982 1.23413,0.27171 0,0.79323 0.86444,2.87496 1.57445,3.79152 0.81574,1.05305 2.35535,2.19593 3.54036,2.62808 0.44715,0.16306 1.36745,0.34392 2.04513,0.40191 l 1.23211,0.10542 -0.76547,-0.28379 c -1.2578,-0.46634 -2.00908,-0.92941 -2.88993,-1.78126 -1.87098,-1.8094 -2.63949,-4.19006 -2.2006,-6.81691 0.32317,-1.93415 1.8205,-3.7768 3.90568,-4.80644 0.94022,-0.46426 1.33432,-0.54462 2.65554,-0.54146 1.34715,0.003 1.69077,0.0781 2.60927,0.56862 1.64624,0.87915 3.2109,2.62345 3.70456,4.12986 0.0633,0.19332 0.0756,0.0924 0.0296,-0.24432 -0.17721,-1.29813 -1.1354,-2.93654 -2.39286,-4.09148 -1.44865,-1.33056 -3.13838,-1.95009 -5.28714,-1.93848 -2.57056,0.0139 -4.84116,1.1897 -6.33683,3.28148 -0.85397,1.19434 -1.27346,2.34054 -1.38263,3.77786 -0.0444,0.58475 -0.11946,1.06384 -0.16679,1.06464 -0.0858,10e-4 -4.33689,0.46565 -6.68229,0.72969 -2.25063,0.25336 -1.16237,0.31726 1.61216,0.0947 z m 7.31128,31.17108 h 2.96191 l -0.006,-0.65816 c -0.003,-0.36199 -0.0636,-1.29608 -0.13369,-2.07575 -0.0702,-0.77967 -0.23056,-2.60228 -0.35648,-4.05023 -0.12594,-1.44796 -0.32173,-3.68066 -0.43513,-4.96155 -0.1134,-1.28088 -0.30541,-3.46801 -0.42667,-4.86028 -0.12126,-1.39227 -0.27003,-3.03261 -0.33062,-3.64521 -0.0606,-0.6126 -0.19055,-2.0757 -0.28887,-3.25133 l -0.1787,-2.13751 -0.54002,-0.4247 -0.54001,-0.4247 -0.0808,0.7396 c -0.0445,0.40679 -0.14068,1.28639 -0.21383,1.95468 -0.0732,0.66829 -0.19971,1.89855 -0.28123,2.73391 -0.22106,2.26556 -0.52176,5.30461 -0.76142,7.69545 -0.11723,1.16951 -0.30821,3.08324 -0.42441,4.25275 -0.26289,2.64585 -0.64321,6.28699 -0.78264,7.49294 -0.20706,1.79079 -0.50409,1.62009 2.81882,1.62009 z m -8.77991,27.25721 c 4.3443,2.78841 9.66947,4.80352 15.52462,5.87474 2.32002,0.42446 9.24922,0.59948 11.7639,0.29713 6.17045,-0.74188 11.37277,-2.45079 16.81181,-5.5225 3.83006,-2.16304 8.28529,-5.89366 11.28932,-9.45316 1.38033,-1.63558 3.61664,-4.79443 4.51908,-6.38331 0.30986,-0.54554 0.62715,-1.09233 0.70512,-1.21507 0.078,-0.12274 0.39531,-0.76995 0.70522,-1.43824 0.30991,-0.66829 0.59854,-1.26063 0.64143,-1.31632 0.35705,-0.46373 2.3903,-6.31346 2.3903,-6.87704 0,-0.11901 0.06,-0.37462 0.1327,-0.56802 0.1698,-0.44955 0.5373,-2.2859 0.7188,-3.59184 0.3723,-2.67769 0.4427,-4.056 0.3776,-7.39168 -0.071,-3.65624 -0.305,-5.76887 -0.9348,-8.45353 -0.1619,-0.68985 -0.2943,-1.3027 -0.2943,-1.36191 0,-0.0592 1.8322,-0.10764 4.0715,-0.10764 h 4.0716 l 0.3637,1.58021 c 0.8155,3.54266 1.1539,8.96558 0.8049,12.89939 -0.1833,2.06647 -0.4156,3.97721 -0.5539,4.55651 -0.067,0.27845 -0.2366,1.05306 -0.3781,1.72135 -0.1415,0.66829 -0.3076,1.30165 -0.3693,1.40746 -0.062,0.10581 -0.112,0.31586 -0.112,0.46676 0,0.15091 -0.1315,0.70225 -0.2921,1.2252 -2.5636,8.34667 -6.3051,14.50191 -12.26075,20.17068 -2.78251,2.64848 -4.68098,4.14277 -7.70088,6.06141 -15.52009,9.86035 -35.93812,9.23 -50.95296,-1.57303 -1.90116,-1.36788 -2.48896,-1.93597 -1.04251,-1.00755 z m 61.23985,-54.9043 c 0.42053,-2.55582 3.03695,-5.03382 7.76585,-7.35507 5.2943,-2.5988 7.5651,-4.28891 9.5635,-7.11814 0.4116,-0.58272 0.7883,-1.00223 0.8371,-0.93223 0.111,0.15943 -0.2039,1.95649 -0.4936,2.81648 -0.7578,2.2498 -1.9829,3.48036 -8.003,8.03808 -2.874,2.17592 -3.9622,3.16106 -4.8137,4.35801 -1.8168,2.55374 -1.4948,4.4048 0.8621,4.95558 1.6361,0.38232 2.6454,-0.20449 6.4118,-3.72786 1.4737,-1.37865 3.1686,-2.79898 3.7664,-3.1563 1.0706,-0.63994 3.0798,-1.44383 4.2388,-1.69596 l 0.5923,-0.12886 -1.3681,1.89577 c -1.7725,2.45629 -2.1168,2.87104 -3.5542,4.28137 -2.2467,2.20449 -3.3713,2.73538 -6.6995,3.16264 -2.1297,0.2734 -4.7134,0.1251 -5.9161,-0.33957 -1.68724,-0.65184 -2.93755,-1.93851 -3.11432,-3.20482 -0.0484,-0.3464 -0.10774,-0.7665 -0.13195,-0.93358 -0.0243,-0.16707 0,-0.57906 0.0566,-0.91554 z m 6.20775,1.42182 c 0.5038,-1.59664 2.0259,-3.45421 4.0263,-4.91363 0.4655,-0.33957 2.0204,-1.44168 3.4555,-2.44913 4.3105,-3.02596 7.0008,-5.88572 8.4479,-8.98005 l 0.5789,-1.23776 v 0.70325 c 0,1.02824 -0.2641,2.90955 -0.4993,3.55694 -0.1123,0.30917 -0.2046,0.62912 -0.205,0.71098 0,0.17378 -0.8394,2.173 -1.0538,2.51277 -2.1205,3.3615 -3.2744,4.40018 -7.394,6.6557 -4.2713,2.33854 -5.9189,3.54005 -7.1736,5.23137 l -0.4584,0.6179 0.01,-0.79914 c 0.01,-0.43953 0.1249,-1.16367 0.2655,-1.6092 z"
       style="fill:#000000;stroke-width:0.264583"
       id="path1" />
  </g>
</svg>
