<?xml version="1.0" encoding="UTF-8" standalone="no"?>
<!-- Created with Inkscape (http://www.inkscape.org/) -->

<svg
   width="99.803612mm"
   height="84.908348mm"
   viewBox="0 0 99.803612 84.908349"
   version="1.1"
   id="svg1"
   inkscape:version="1.4 (e7c3feb1, 2024-10-09)"
   sodipodi:docname="P-SH.svg"
   xmlns:inkscape="http://www.inkscape.org/namespaces/inkscape"
   xmlns:sodipodi="http://sodipodi.sourceforge.net/DTD/sodipodi-0.dtd"
   xmlns="http://www.w3.org/2000/svg"
   xmlns:svg="http://www.w3.org/2000/svg">
  <sodipodi:namedview
     id="namedview1"
     pagecolor="#ffffff"
     bordercolor="#000000"
     borderopacity="0.25"
     inkscape:showpageshadow="2"
     inkscape:pageopacity="0.0"
     inkscape:pagecheckerboard="0"
     inkscape:deskcolor="#d1d1d1"
     inkscape:document-units="mm"
     inkscape:zoom="0.74118967"
     inkscape:cx="189.56012"
     inkscape:cy="159.8781"
     inkscape:window-width="1440"
     inkscape:window-height="872"
     inkscape:window-x="0"
     inkscape:window-y="28"
     inkscape:window-maximized="0"
     inkscape:current-layer="layer1" />
  <defs
     id="defs1" />
  <g
     inkscape:label="Layer 1"
     inkscape:groupmode="layer"
     id="layer1"
     transform="translate(-666.99236,1168.5154)">
    <path
       d="m 667.0294,-1133.3903 c 0.4662,-3.5862 0.94403,-5.8061 1.75842,-8.1691 0.66569,-1.9307 1.85473,-4.8056 2.44263,-5.9055 0.23813,-0.4455 0.49716,-0.9298 0.57547,-1.0762 0.21352,-0.3993 1.76504,-2.8402 2.33072,-3.6669 1.33694,-1.953 4.48892,-5.4204 6.41508,-7.0568 5.45254,-4.6322 11.81788,-7.5921 19.11139,-8.8868 2.73896,-0.4862 9.35011,-0.484 12.12956,0 5.06042,0.8887 9.27338,2.4135 13.75171,4.9775 2.42809,1.3901 6.84504,4.925 8.38253,6.7085 3.24009,3.7591 4.93051,6.1995 6.35371,9.174 0.27305,0.5707 0.53128,1.0832 0.57414,1.1389 0.37359,0.4877 1.88119,4.7505 2.3712,6.7052 0.91493,3.6484 1.19062,6.2071 1.10384,10.2391 -0.0807,3.7607 -0.17118,4.5823 -0.87683,7.9647 -0.60219,2.8863 -1.97326,6.5684 -3.58219,9.6193 -0.84429,1.601 -1.90606,3.3414 -2.03888,3.3414 -0.0368,0 -0.2032,-0.524 -0.36989,-1.1644 -0.97605,-3.754 -3.23823,-6.9643 -6.58812,-9.3499 -3.50282,-2.4943 -7.23318,-3.6302 -11.17389,-3.4023 -2.22144,0.1285 -3.72507,0.5123 -5.79173,1.4783 -1.47796,0.691 -2.35558,1.2786 -1.48087,0.9916 2.24975,-0.7381 4.64344,-0.8842 7.92612,-0.4836 4.26853,0.5209 7.93327,2.7359 10.36664,6.2656 0.84799,1.2299 1.94548,3.3611 1.94787,3.7818 0,0.089 0.0947,0.4201 0.20955,0.7361 0.3085,0.8496 0.54054,3.066 0.45799,4.3747 -0.0884,1.3984 -0.56515,3.0601 -0.98954,3.4494 -5.74993,5.2732 -12.78229,8.7824 -20.28005,10.1202 -4.99427,0.8911 -11.82,0.5532 -16.70473,-0.8269 -6.35847,-1.7965 -11.69194,-4.8109 -16.3285,-9.2291 -3.31126,-3.1554 -5.76924,-6.3799 -7.68588,-10.0829 -0.40349,-0.7797 -0.79825,-1.5277 -0.87736,-1.6622 -0.0788,-0.1345 -0.1434,-0.3096 -0.1434,-0.3891 0,-0.079 -0.0897,-0.2883 -0.1995,-0.4642 -0.38973,-0.6243 -1.75366,-4.6688 -2.16826,-6.4297 -0.80222,-3.4072 -0.90858,-4.3526 -0.95329,-8.4708 -0.0238,-2.1163 -0.0132,-4.0756 0.0238,-4.354 z m 17.27332,18.2586 c 1.14776,5.032 3.52293,9.0011 7.57688,12.6603 6.97547,6.2963 17.65194,7.9188 26.18369,3.9792 4.46855,-2.0634 6.75587,-3.971 10.23144,-8.5334 0.77311,-1.0148 0.7747,-1.0197 0.49371,-1.4107 -0.15505,-0.2159 -1.15491,-1.2374 -2.22144,-2.2701 l -1.93966,-1.8776 -0.5215,0.8542 c -0.71781,1.1758 -3.06228,3.8532 -4.22724,4.8275 -4.0005,3.3454 -7.53084,5.1075 -11.89408,5.9363 -1.75207,0.3329 -5.64092,0.3326 -7.33425,-5e-4 -5.17578,-1.0183 -9.90838,-4.1821 -13.16038,-8.7982 -1.62666,-2.3087 -2.73579,-4.7644 -3.42132,-7.5742 -0.30983,-1.2698 -0.32809,-1.303 -0.25004,-0.458 0.0463,0.5012 0.26432,1.7006 0.48419,2.6653 z m 0,-19.6762 c 0.23945,0 2.12778,-0.091 4.19603,-0.2033 2.06798,-0.1118 8.32988,-0.4301 13.91523,-0.7074 5.58535,-0.2773 11.93218,-0.5982 14.10414,-0.7131 12.08644,-0.6397 16.21208,-0.8052 20.07526,-0.8058 3.35968,-5e-4 4.26562,-0.055 4.21958,-0.2537 -0.0455,-0.1964 -1.80896,-0.2808 -7.87479,-0.3766 -4.29895,-0.068 -9.91077,-0.2715 -12.47088,-0.4525 -2.55984,-0.1811 -9.19241,-0.6054 -14.73887,-0.9431 -5.54646,-0.3376 -12.23592,-0.7509 -14.86535,-0.9185 -2.62943,-0.1675 -4.80378,-0.2715 -4.83209,-0.2311 -0.18256,0.2623 -2.15186,5.1474 -2.15741,5.3519 -0.003,0.1501 0.17092,0.2532 0.42915,0.2532 z m 19.90963,-19.9326 c 0.56833,0.2568 1.87114,1.6461 2.48471,2.6495 1.35255,2.2124 2.05845,4.9302 1.72984,6.6617 -0.29263,1.5432 -1.50257,2.9886 -3.21416,3.8398 -1.13929,0.5665 -0.9898,0.6299 0.41725,0.1771 1.29302,-0.4161 2.90089,-1.4726 3.86318,-2.5386 2.20425,-2.4417 2.76966,-5.9765 1.50125,-9.3867 -0.34978,-0.9401 -1.63936,-2.5767 -2.62864,-3.3354 l -0.89429,-0.6862 -1.78832,1.0937 c -0.98345,0.6016 -1.78832,1.1585 -1.78832,1.2377 0,0.079 0.14288,0.2085 0.3175,0.2874 z m 3.91901,21.839 c 0.77629,1.0071 2.34897,2.4545 3.42556,3.1529 5.11149,3.3159 12.81166,3.2732 17.44372,-0.097 1.82668,-1.3291 3.6449,-3.4947 4.63417,-5.5194 0.38709,-0.7924 0.2286,-0.8613 -0.26193,-0.114 -1.19619,1.8225 -5.46074,4.5231 -8.24204,5.2195 -1.59597,0.3996 -4.563,0.3991 -6.28147,0 -2.38337,-0.5549 -5.28453,-2.2458 -6.74476,-3.9308 l -0.54848,-0.6329 -1.80605,0.2106 c -0.99324,0.1158 -1.95765,0.2106 -2.14312,0.2106 -0.28337,0 -0.31486,0.059 -0.19844,0.3718 0.0762,0.2045 0.40164,0.7128 0.72284,1.1296 z m -23.87679,40.6642 c 9.66523,5.623 21.97655,7.0771 32.98322,3.8955 9.57315,-2.7672 17.45509,-8.3665 23.31244,-16.5606 3.52557,-4.9321 6.26612,-11.2917 7.21492,-16.7422 0.58103,-3.3368 0.71782,-5.1605 0.65326,-8.708 -0.0775,-4.2601 -0.2159,-5.4814 -1.02712,-9.0695 -0.10795,-0.4773 -0.19632,-0.9115 -0.19632,-0.965 0,-0.053 1.85658,-0.073 4.12565,-0.044 l 4.12538,0.054 0.18971,1.0126 c 0.85064,4.5384 1.09987,8.1194 0.86704,12.4439 -0.0868,1.6093 -0.18706,2.9937 -0.22278,3.0766 -0.0355,0.083 -0.13044,0.68 -0.21087,1.3269 -0.127,1.0242 -0.76623,4.0292 -1.11178,5.2264 -0.37227,1.2903 -1.52188,4.6297 -1.9521,5.6703 -4.06902,9.8437 -12.70238,18.8605 -22.57398,23.5764 -5.94757,2.8413 -11.7565,4.2278 -18.49702,4.4147 -8.99689,0.2496 -16.4809,-1.5948 -24.18874,-5.9613 -1.75842,-0.9961 -5.57107,-3.584 -5.57107,-3.7813 0,-0.042 0.9361,0.4688 2.08016,1.1345 z m 59.7998,-55.8351 c 0.20082,-1.1518 1.45812,-2.9671 2.89137,-4.1751 1.38906,-1.1706 2.56487,-1.8863 5.30463,-3.2289 1.34514,-0.6592 3.14642,-1.6232 4.00288,-2.1421 1.80684,-1.0952 4.10527,-3.2036 5.11651,-4.6939 0.38788,-0.5716 0.74877,-1.0416 0.80222,-1.0445 0.12515,-0.01 -0.005,1.364 -0.19368,2.0199 -0.3982,1.3944 -0.66728,1.9929 -1.31683,2.9287 -0.8972,1.2927 -1.78197,2.0458 -7.61312,6.4808 -3.16495,2.4072 -4.19338,3.4809 -4.9231,5.141 -0.94827,2.1566 0.054,3.6715 2.43073,3.6745 1.30519,0 2.38707,-0.7005 5.24271,-3.4031 1.35758,-1.2847 3.05356,-2.7349 3.76899,-3.2226 1.3044,-0.8892 3.24353,-1.7066 4.69345,-1.9787 l 0.77576,-0.1456 -0.49583,0.4894 c -0.27252,0.2692 -0.84588,0.9852 -1.27397,1.591 -2.49635,3.5324 -4.89665,5.8433 -6.80667,6.5528 -2.19816,0.8166 -7.05406,1.0582 -8.88418,0.442 -2.66674,-0.8978 -3.95102,-2.825 -3.52187,-5.2856 z m 6.13304,1.8616 c 0.30586,-1.6558 2.79585,-4.4467 5.58059,-6.2546 2.43047,-1.578 3.40122,-2.2715 4.66355,-3.3319 1.59173,-1.3367 3.27184,-3.0123 3.9706,-3.9598 0.68104,-0.9233 1.97379,-3.0896 1.97908,-3.3169 0.003,-0.1028 0.10504,-0.3691 0.22807,-0.5918 0.20744,-0.3765 0.21802,-0.2978 0.14711,1.1138 -0.10266,2.0504 -0.60219,3.8303 -1.61528,5.7543 -1.53035,2.9063 -3.73115,4.9086 -7.59671,6.9112 -1.90897,0.9892 -2.16006,1.1371 -3.86133,2.2756 -1.18296,0.7914 -2.69135,2.1449 -3.27925,2.9422 l -0.38788,0.5259 0.0132,-0.6485 c 0.008,-0.3567 0.0786,-0.9954 0.1569,-1.4195 z"
       style="fill:#000000;stroke-width:0.264583"
       id="path1" />
  </g>
</svg>
