<?xml version="1.0" encoding="UTF-8" standalone="no"?>
<!-- Created with Inkscape (http://www.inkscape.org/) -->

<svg
   width="99.856819mm"
   height="84.920174mm"
   viewBox="0 0 99.856819 84.920174"
   version="1.1"
   id="svg1"
   inkscape:version="1.4 (e7c3feb1, 2024-10-09)"
   sodipodi:docname="P-SW.svg"
   xmlns:inkscape="http://www.inkscape.org/namespaces/inkscape"
   xmlns:sodipodi="http://sodipodi.sourceforge.net/DTD/sodipodi-0.dtd"
   xmlns="http://www.w3.org/2000/svg"
   xmlns:svg="http://www.w3.org/2000/svg">
  <sodipodi:namedview
     id="namedview1"
     pagecolor="#ffffff"
     bordercolor="#000000"
     borderopacity="0.25"
     inkscape:showpageshadow="2"
     inkscape:pageopacity="0.0"
     inkscape:pagecheckerboard="0"
     inkscape:deskcolor="#d1d1d1"
     inkscape:document-units="mm"
     inkscape:zoom="0.74118967"
     inkscape:cx="-215.19458"
     inkscape:cy="386.54073"
     inkscape:window-width="1440"
     inkscape:window-height="872"
     inkscape:window-x="0"
     inkscape:window-y="28"
     inkscape:window-maximized="0"
     inkscape:current-layer="layer1" />
  <defs
     id="defs1" />
  <g
     inkscape:label="Layer 1"
     inkscape:groupmode="layer"
     id="layer1"
     transform="translate(-774.27441,1228.5894)">
    <path
       d="m 774.38517,-1193.8987 c 0.43127,-3.2805 0.82365,-5.0215 1.79652,-7.975 0.54213,-1.6457 1.26418,-3.5115 1.61607,-4.1757 0.059,-0.1114 0.50536,-0.9771 0.9914,-1.9239 3.72533,-7.2526 10.63731,-13.7589 18.28271,-17.2094 4.91834,-2.2199 9.1178,-3.1859 14.68887,-3.3792 7.31229,-0.2536 13.54084,1.2369 20.0832,4.8063 9.36095,5.1072 16.40972,14.4768 18.88119,25.0979 0.68633,2.9495 0.8382,4.2378 0.90752,7.6954 0.12092,6.0331 -0.54107,9.8396 -2.69398,15.4922 -0.28284,0.7427 -1.72191,3.8434 -1.9267,4.1517 -0.11113,0.1673 -0.43471,0.714 -0.71861,1.2151 -0.7493,1.3215 -1.7391,2.7524 -2.94164,4.2525 -0.58049,0.724 -1.0869,1.3671 -1.1258,1.4292 -0.28495,0.456 -2.58048,2.7757 -3.7375,3.777 -9.67687,8.374 -22.47741,11.5122 -34.87394,8.5497 -3.10065,-0.7409 -7.20037,-2.3779 -10.11872,-4.0403 -5.93593,-3.381 -11.52896,-9.1772 -14.74973,-15.2847 -2.33204,-4.4226 -3.76634,-9.0183 -4.3606,-13.9733 -0.1479,-1.2323 -0.14816,-7.3818 0,-8.5055 z m 9.9814,12.527 c 8.89953,4.1145 19.42915,5.0445 30.00349,2.65 13.29716,-3.0113 19.07884,-3.2 23.59792,-0.7703 0.51885,0.279 0.88001,0.421 0.80248,0.3154 -0.0775,-0.1055 -0.55377,-0.4249 -1.05807,-0.7098 -3.31549,-1.8725 -7.33954,-2.7709 -12.41874,-2.7722 -4.00923,0 -6.57199,0.3218 -12.12242,1.5275 -6.20659,1.348 -8.38491,1.5934 -14.17478,1.5964 -5.48085,0 -7.45173,-0.193 -11.16595,-1.1095 -1.3761,-0.3396 -4.0976,-1.2515 -5.1599,-1.7289 -0.13574,-0.061 -0.24686,-0.063 -0.24686,0 0,0.059 0.87445,0.5112 1.94283,1.0053 z m 19.70564,-3.5515 c 0.0492,0.071 4.44262,-0.5326 4.95221,-0.6804 0.26352,-0.076 0.30586,-0.2718 0.38232,-1.7603 0.16457,-3.1986 1.35705,-6.4609 3.32767,-9.1034 1.37556,-1.8445 2.25557,-2.6898 4.24497,-4.077 4.74133,-3.3065 10.53941,-4.4623 16.33432,-3.2561 1.21867,0.2537 2.45983,0.6809 4.04627,1.3928 0.99219,0.4453 -1.63486,-1.2626 -2.79532,-1.8173 -5.01121,-2.3952 -11.23289,-2.5472 -16.83518,-0.4113 -4.15766,1.585 -8.03883,4.5338 -10.43887,7.931 -1.63274,2.311 -2.52941,4.477 -3.0771,7.4318 -0.25982,1.4014 -0.32491,2.1519 -0.26617,3.0689 0.0429,0.6676 0.099,1.2442 0.12488,1.2813 z m 13.65912,-1.4421 c 1.23534,0.4924 4.47437,0.4832 5.7359,-0.016 1.6375,-0.6482 3.0771,-1.7232 4.16084,-3.1067 0.37861,-0.4832 1.19856,-1.9952 1.19962,-2.212 0,-0.095 0.10477,-0.4468 0.23177,-0.7809 0.31671,-0.8332 0.33893,-3.8228 0.0318,-4.2638 -0.22463,-0.3224 -3.99521,-1.2814 -4.1521,-1.056 -0.0463,0.067 -0.0159,0.3051 0.0683,0.5301 0.38841,1.0425 0.027,3.6599 -0.78502,5.6848 -1.32133,3.294 -2.97656,4.6787 -5.58139,4.6691 -1.19512,0 -1.60522,-0.077 -2.649,-0.4705 -0.19394,-0.073 -0.0775,0.049 0.25849,0.2713 0.33602,0.2223 1.00251,0.5601 1.48088,0.7508 z m -27.72648,33.1904 c 1.77561,1.1015 2.62995,1.5704 4.16718,2.2872 6.19099,2.8873 11.69247,4.1258 18.36447,4.1341 4.56565,0.01 7.78325,-0.4085 11.63611,-1.4978 8.54763,-2.417 15.73106,-7.0373 21.50877,-13.8347 0.97949,-1.1522 3.92456,-5.3709 4.44288,-6.3642 0.19394,-0.3716 0.41937,-0.7817 0.50086,-0.9113 0.38285,-0.6093 1.33906,-2.6105 1.905,-3.9874 0.80169,-1.9497 0.94059,-2.3595 1.81822,-5.3613 0.87497,-2.9922 1.41896,-7.2181 1.41472,-10.9864 -0.003,-3.1832 -0.47678,-7.4825 -1.05886,-9.6233 -0.11403,-0.4199 -0.20743,-0.8542 -0.20743,-0.965 0,-0.1302 1.45282,-0.1825 4.10951,-0.1478 l 4.10977,0.054 0.34502,1.6201 c 1.11521,5.2398 1.1512,12.3792 0.0881,17.5173 -1.99099,9.6228 -5.85232,17.0791 -12.23909,23.6327 -7.09957,7.2853 -15.77975,11.795 -26.103,13.5615 -2.62043,0.4485 -10.9302,0.5149 -13.39903,0.1071 -7.58746,-1.2533 -13.89486,-3.7534 -19.78131,-7.8408 -1.18295,-0.8215 -2.1508,-1.5449 -2.1508,-1.6077 0,-0.063 0.23813,0.034 0.52891,0.214 z m 61.48228,-55.4059 c 0.73052,-2.4477 3.63326,-4.901 8.51032,-7.1921 4.28678,-2.0138 6.44076,-3.6395 8.56033,-6.4603 l 1.01468,-1.3504 -0.0762,0.7679 c -0.18256,1.8395 -0.80063,3.4518 -1.85552,4.8416 -0.59267,0.7808 -3.00858,2.7865 -6.79662,5.6426 -3.17209,2.3917 -3.87297,3.0224 -4.73472,4.2597 -1.05859,1.52 -1.34699,3.068 -0.72707,3.9041 0.78078,1.0535 2.55111,1.3557 3.93515,0.6719 1.09325,-0.54 1.39938,-0.7882 4.1148,-3.3363 2.59,-2.4305 3.71554,-3.2931 5.16863,-3.9611 1.05781,-0.4862 2.73738,-1.0192 3.22818,-1.0243 0.31353,0 0.30136,0.037 -0.17674,0.5825 -0.28257,0.3222 -0.85037,1.0741 -1.2618,1.6707 -1.42822,2.0703 -3.54383,4.3689 -4.96464,5.3945 -0.86783,0.6262 -2.41009,1.2284 -3.73248,1.4574 -1.67825,0.2906 -5.67504,0.2488 -6.70956,-0.07 -1.01204,-0.312 -2.39925,-1.1892 -2.86306,-1.8103 -0.80354,-1.0761 -1.04643,-2.6048 -0.63368,-3.9879 z m 5.93302,2.5424 c 0.10292,-0.5816 0.67892,-1.8302 1.12712,-2.4436 0.87313,-1.1951 2.58445,-2.6391 5.70918,-4.8174 1.80896,-1.2612 4.02405,-2.9811 4.92231,-3.822 1.78911,-1.675 3.62453,-4.0907 4.43548,-5.8378 l 0.51699,-1.1138 -0.0833,1.5679 c -0.046,0.8623 -0.13732,1.7281 -0.2032,1.9239 -0.0659,0.1958 -0.35375,1.0491 -0.64003,1.8963 -1.28138,3.7935 -3.64516,6.263 -8.4119,8.7874 -2.82813,1.4978 -5.35834,3.2526 -6.53732,4.5339 l -0.93795,1.0193 0.0159,-0.65 c 0.008,-0.3576 0.0479,-0.8274 0.0863,-1.0441 z"
       style="fill:#000000;stroke-width:0.264583"
       id="path1" />
  </g>
</svg>
