<?xml version="1.0" encoding="UTF-8" standalone="no"?>
<!-- Created with Inkscape (http://www.inkscape.org/) -->

<svg
   width="100.41899mm"
   height="85.176247mm"
   viewBox="0 0 100.41899 85.176247"
   version="1.1"
   id="svg1"
   inkscape:version="1.4 (e7c3feb1, 2024-10-09)"
   sodipodi:docname="P-VT.svg"
   xmlns:inkscape="http://www.inkscape.org/namespaces/inkscape"
   xmlns:sodipodi="http://sodipodi.sourceforge.net/DTD/sodipodi-0.dtd"
   xmlns="http://www.w3.org/2000/svg"
   xmlns:svg="http://www.w3.org/2000/svg">
  <sodipodi:namedview
     id="namedview1"
     pagecolor="#ffffff"
     bordercolor="#000000"
     borderopacity="0.25"
     inkscape:showpageshadow="2"
     inkscape:pageopacity="0.0"
     inkscape:pagecheckerboard="0"
     inkscape:deskcolor="#d1d1d1"
     inkscape:document-units="mm"
     inkscape:zoom="0.74118967"
     inkscape:cx="46.54679"
     inkscape:cy="142.33873"
     inkscape:window-width="1440"
     inkscape:window-height="872"
     inkscape:window-x="0"
     inkscape:window-y="28"
     inkscape:window-maximized="0"
     inkscape:current-layer="layer1" />
  <defs
     id="defs1" />
  <g
     inkscape:label="Layer 1"
     inkscape:groupmode="layer"
     id="layer1"
     transform="translate(-705.09068,1164.0668)">
    <path
       d="m 705.15788,-1128.2816 c 0.0344,-0.05 0.12911,-0.7255 0.21061,-1.5019 0.35877,-3.4277 1.18718,-6.5552 2.68049,-10.1198 1.98279,-4.7329 4.32911,-8.2965 8.17959,-12.4235 3.06944,-3.2898 7.86633,-6.6201 12.27958,-8.5253 13.34267,-5.7601 28.59775,-3.6784 39.80418,5.4318 3.56844,2.901 6.77651,6.6614 9.17813,10.758 1.22317,2.0865 2.72257,5.6158 3.48457,8.2017 0.16404,0.5569 0.35268,1.1948 0.4191,1.4176 0.15663,0.5257 0.47889,2.0683 0.80353,3.8477 0.21141,1.1578 0.25877,2.1969 0.25903,5.6704 0,4.635 -0.0646,5.2991 -0.86545,8.8822 -0.44106,1.972 -1.99099,6.7207 -2.28653,7.0045 -0.064,0.061 -0.28257,0.5233 -0.48604,1.0264 -0.2032,0.503 -0.48339,1.0963 -0.6223,1.3184 -0.13917,0.2221 -0.50429,0.8585 -0.81148,1.4142 -0.71225,1.288 -2.71727,4.1699 -3.8137,5.4814 -3.71687,4.4461 -8.39576,8.0464 -13.4964,10.3853 -1.70682,0.7826 -4.94347,1.9638 -6.24945,2.2808 l -0.98743,0.2396 -0.98742,-0.8656 c -1.47823,-1.2961 -3.50282,-3.3375 -5.00698,-5.048 -1.59808,-1.8177 -4.58549,-6.0186 -5.57107,-7.8343 -0.38787,-0.7146 -0.84984,-1.55 -1.02658,-1.8564 -0.17648,-0.3065 -0.48816,-0.9673 -0.69241,-1.4686 -0.204,-0.5012 -0.526,-1.1799 -0.71544,-1.5082 -0.32914,-0.5699 -2.2897,-6.1452 -2.29129,-6.5158 0,-0.098 -0.0897,-0.4222 -0.19844,-0.721 -0.10848,-0.2988 -0.24235,-0.8455 -0.29739,-1.215 -0.055,-0.3695 -0.14896,-0.763 -0.20875,-0.8744 -0.11272,-0.2105 -0.30745,-1.299 -0.63342,-3.5425 -0.18997,-1.3069 -0.18864,-1.862 0.003,-0.9972 0.055,0.2488 0.3855,1.128 0.73475,1.9538 1.98966,4.7055 6.2648,8.5067 11.91286,10.5925 1.17634,0.4345 4.18439,1.2095 4.67572,1.2048 0.16669,0 -0.33152,-0.4418 -1.10728,-0.9783 -5.55625,-3.8425 -9.46388,-9.5553 -11.66707,-17.0563 -0.2757,-0.939 -0.54319,-1.9682 -0.59452,-2.287 l -0.0929,-0.5797 3.00382,0.1225 c 1.65206,0.067 7.85918,0.17 13.79352,0.228 1.4187,0.014 2.83475,0.03 4.18544,0.048 4.29922,0.057 7.93698,0.1288 8.89635,0.1804 2.26854,0.1218 2.29182,0.1187 2.29182,-0.3065 0,-0.4125 -0.063,-0.4295 -1.5867,-0.4261 -0.8726,0 -8.12403,-0.099 -16.11418,-0.225 -12.46373,-0.196 -14.55076,-0.2707 -14.69179,-0.5254 -0.0905,-0.1634 -0.20637,-0.7684 -0.25717,-1.3445 -0.13309,-1.5083 -0.20162,-1.7563 -0.48551,-1.7563 -0.52811,0 -3.15833,1.4165 -4.34499,2.3398 l -1.23587,0.9618 -7.92771,-0.1266 c -7.75573,-0.1239 -8.38359,-0.086 -7.98989,0.4788 0.0672,0.097 3.0099,0.1986 6.53918,0.2264 3.52901,0.028 6.93711,0.084 7.57317,0.1254 l 1.15649,0.075 -0.52043,0.6431 c -0.71676,0.8858 -0.91625,1.2282 -1.73197,2.9719 -0.7059,1.5096 -0.70987,1.5263 -0.61806,2.7339 0.14023,1.8517 0.6985,5.291 1.05172,6.4804 0.0661,0.2228 0.35851,1.2252 0.64955,2.2277 0.29104,1.0024 0.70829,2.2427 0.92683,2.7563 0.21855,0.5135 0.39741,0.9909 0.39741,1.0609 0,0.2087 1.69836,3.5756 2.51777,4.992 1.61846,2.7968 4.24789,6.1359 6.65004,8.4448 2.69372,2.5892 5.77929,4.7491 10.36664,7.2568 0.36724,0.2007 -0.27675,0.382 -2.39765,0.6747 -12.32588,1.701 -24.70971,-2.5526 -33.14515,-11.3847 -3.93118,-4.1161 -6.69713,-8.509 -8.62648,-13.6996 -1.05701,-2.8447 -1.54913,-4.9647 -2.15318,-9.2804 -0.14499,-1.0346 -0.21801,-6.9594 -0.0881,-7.1458 z m 12.24306,-10.4607 c 0.32967,0.049 2.15292,0.1097 4.05157,0.1342 2.16217,0.028 3.48562,0.1218 3.54145,0.2512 0.0489,0.1137 0.26643,1.0881 0.48365,2.1653 0.21696,1.0773 0.43471,2.0258 0.48366,2.1079 0.0759,0.1274 5.00592,-1.3876 11.93959,-3.669 l 1.84706,-0.6077 7.67344,0.1141 7.67318,0.1141 0.42307,0.56 c 0.71808,0.9501 1.32768,1.2776 2.55773,1.3739 1.36022,0.1065 2.35823,-0.2858 3.09721,-1.2173 l 0.48101,-0.6065 4.93633,0.072 c 4.62624,0.067 4.93634,0.05 4.93634,-0.2825 0,-0.3271 -0.24713,-0.3544 -3.20887,-0.3553 -1.76477,-5e-4 -3.92721,-0.06 -4.8051,-0.133 -1.58406,-0.131 -1.59597,-0.1358 -1.51394,-0.6049 0.0455,-0.26 -0.0132,-0.8056 -0.13256,-1.2124 -1.01653,-3.4929 -5.82348,-3.5856 -6.85456,-0.1321 -0.17251,0.5775 -0.25056,1.1499 -0.19817,1.4502 l 0.0868,0.4961 -3.49912,-0.1335 c -1.92457,-0.073 -4.79504,-0.1338 -6.37884,-0.134 -1.58379,-3e-4 -2.85247,-0.039 -2.8194,-0.087 0.0532,-0.076 6.11056,-2.0564 14.1568,-4.6277 1.47108,-0.4702 2.5437,-0.8822 2.38363,-0.9156 -0.16034,-0.033 -2.47465,0.2617 -5.14323,0.6557 -3.9759,0.5871 -24.02708,3.445 -27.13673,3.8678 -1.261,0.1715 -1.62189,0.3011 -1.62189,0.5825 0,0.1999 -0.8554,0.2338 -4.01982,0.159 -3.5433,-0.084 -4.01981,-0.058 -4.01981,0.2149 0,0.2155 0.18256,0.3372 0.59954,0.3996 z m 15.95702,-15.9841 c 0.37889,0.343 1.02315,1.2048 1.43113,1.9153 1.85791,3.234 2.1807,6.0488 0.91335,7.9639 -0.45032,0.6804 -1.63566,1.6854 -2.52677,2.142 -0.55616,0.2851 -0.73158,0.4295 -0.4363,0.3593 2.19974,-0.5234 3.83884,-1.6059 5.11254,-3.3763 0.99827,-1.3878 1.37531,-2.3036 1.6473,-4.0029 0.43577,-2.7221 -0.9406,-6.0685 -3.18347,-7.7404 l -0.86625,-0.6458 -1.39038,0.8448 c -0.76465,0.4646 -1.58062,0.9463 -1.81345,1.0704 l -0.42307,0.2256 0.42307,0.3103 c 0.23283,0.1706 0.73316,0.5908 1.1123,0.9338 z m 7.82056,22.483 c 2.07168,1.3991 3.66104,1.9579 5.94704,2.0911 2.18678,0.1275 4.01002,-0.1937 5.92402,-1.0433 1.18401,-0.5258 3.80815,-2.2647 3.80815,-2.5238 0,-0.073 -0.46038,-0.018 -1.02262,0.1226 -1.70815,0.428 -4.14205,0.5533 -5.69807,0.2933 -2.08147,-0.3476 -3.68432,-1.0312 -5.98355,-2.5523 -1.11919,-0.7403 -2.10793,-1.3907 -2.19736,-1.4451 -0.0894,-0.054 -0.56251,0.659 -1.05119,1.5857 -0.48869,0.9266 -0.93927,1.7151 -1.00119,1.7523 -0.0616,0.037 -0.11218,0.2284 -0.11218,0.4251 0,0.254 0.40164,0.6288 1.38695,1.2944 z m -21.53841,42.8699 c 0.0484,0 0.55616,0.3028 1.12818,0.6766 4.73261,3.0923 10.7786,5.2882 17.18972,6.2433 2.61249,0.3892 9.41493,0.3242 12.05362,-0.1152 13.71045,-2.2832 24.61287,-9.955 31.4579,-22.1361 0.0775,-0.1381 0.20638,-0.3681 0.28602,-0.5112 0.0799,-0.1431 0.45825,-0.9436 0.84111,-1.779 0.38285,-0.8354 0.74586,-1.5492 0.80698,-1.5864 0.0611,-0.037 0.11112,-0.1637 0.11112,-0.2813 0,-0.1176 0.17886,-0.6341 0.3974,-1.1476 0.82445,-1.9364 1.77165,-5.5825 2.37279,-9.1354 0.20849,-1.231 0.2577,-2.3633 0.25955,-5.9741 0.003,-4.5017 -0.10451,-5.8059 -0.69797,-8.5055 -0.40851,-1.8574 -0.4064,-1.8946 0.1016,-1.8338 0.25189,0.03 2.08466,0.068 4.07273,0.084 l 3.61474,0.029 0.15478,0.5569 c 0.84032,3.0239 1.25201,10.2529 0.8054,14.1431 -0.38074,3.3144 -0.94298,6.2725 -1.59385,8.3864 -1.36393,4.4286 -2.7567,7.6897 -4.54078,10.6319 -1.03294,1.7035 -3.65655,5.3312 -4.79875,6.6352 -1.21629,1.3884 -4.10951,4.235 -5.5073,5.4183 -2.60668,2.2068 -6.58442,4.7553 -9.73191,6.2355 -12.78281,6.011 -27.3095,5.9264 -39.84466,-0.232 -2.66303,-1.3083 -4.75218,-2.5661 -6.98156,-4.2036 -1.64571,-1.2087 -2.11587,-1.5928 -1.95686,-1.5984 z m 63.00708,-54.175 c 0.79481,-2.3811 3.32555,-4.5176 7.91977,-6.6859 5.38639,-2.5422 7.31679,-3.9592 9.4914,-6.967 l 0.8173,-1.1305 -0.0889,0.9113 c -0.12224,1.2537 -0.7911,3.1851 -1.42663,4.1195 -0.82974,1.2202 -1.44251,1.7477 -6.07166,5.2279 -2.38892,1.796 -4.61089,3.528 -4.93792,3.849 -1.39779,1.3729 -2.15609,2.8152 -2.15609,4.1014 0,0.7595 0.0545,0.8886 0.58367,1.3811 1.08373,1.0089 2.81914,1.0127 4.35504,0.01 0.50298,-0.3284 1.64465,-1.2762 2.53656,-2.106 4.11242,-3.8254 6.15289,-5.0909 8.95641,-5.5543 l 0.84614,-0.1399 -0.49583,0.4917 c -0.27252,0.2703 -1.01494,1.2012 -1.64941,2.0685 -2.43575,3.3289 -4.61724,5.2809 -6.6892,5.9857 -1.48722,0.506 -4.75826,0.8754 -6.32777,0.7146 -2.67626,-0.2741 -4.52808,-1.2294 -5.40756,-2.7895 -0.54133,-0.9604 -0.64161,-2.3299 -0.25532,-3.4871 z m 5.90709,2.5314 c 0.50694,-2.0808 2.62281,-4.2499 6.79873,-6.9689 2.71913,-1.7706 4.97417,-3.5705 6.4397,-5.1395 1.12315,-1.2026 2.34553,-2.846 2.73738,-3.68 0.11641,-0.2477 0.32252,-0.638 0.45852,-0.8674 0.13573,-0.2295 0.24659,-0.5399 0.24659,-0.6899 0,-0.1501 0.0635,-0.2728 0.14102,-0.2728 0.20135,0 0.17489,0.7788 -0.0796,2.3544 -0.79877,4.9446 -3.54224,8.6042 -8.34152,11.1269 -3.22024,1.6927 -4.12458,2.2122 -5.2615,3.0224 -1.35652,0.9668 -2.66912,2.1302 -2.94825,2.6131 -0.46408,0.8028 -0.56277,0.029 -0.19103,-1.4983 z"
       style="fill:#000000;stroke-width:0.264583"
       id="path1" />
  </g>
</svg>
