<?xml version="1.0" encoding="UTF-8" standalone="no"?>
<!-- Created with Inkscape (http://www.inkscape.org/) -->

<svg
   width="99.96373mm"
   height="85.064758mm"
   viewBox="0 0 99.963728 85.06476"
   version="1.1"
   id="svg1"
   inkscape:version="1.4 (e7c3feb1, 2024-10-09)"
   sodipodi:docname="P-WF.svg"
   xmlns:inkscape="http://www.inkscape.org/namespaces/inkscape"
   xmlns:sodipodi="http://sodipodi.sourceforge.net/DTD/sodipodi-0.dtd"
   xmlns="http://www.w3.org/2000/svg"
   xmlns:svg="http://www.w3.org/2000/svg">
  <sodipodi:namedview
     id="namedview1"
     pagecolor="#ffffff"
     bordercolor="#000000"
     borderopacity="0.25"
     inkscape:showpageshadow="2"
     inkscape:pageopacity="0.0"
     inkscape:pagecheckerboard="0"
     inkscape:deskcolor="#d1d1d1"
     inkscape:document-units="mm"
     inkscape:zoom="1.0482005"
     inkscape:cx="188.41815"
     inkscape:cy="160.75169"
     inkscape:window-width="1440"
     inkscape:window-height="872"
     inkscape:window-x="0"
     inkscape:window-y="28"
     inkscape:window-maximized="0"
     inkscape:current-layer="layer1" />
  <defs
     id="defs1" />
  <g
     inkscape:label="Layer 1"
     inkscape:groupmode="layer"
     id="layer1"
     transform="translate(-59.016515,-101.25436)">
    <path
       d="m 59.150486,137.66027 c 0.246275,-2.80654 0.749618,-5.90134 1.111145,-6.83202 0.07511,-0.19341 0.136577,-0.45511 0.136577,-0.58157 0,-0.44955 1.474523,-4.56181 2.239672,-6.24616 1.445921,-3.18295 3.302979,-6.07878 5.87031,-9.15395 5.980033,-7.16294 14.883051,-12.03452 24.400378,-13.35149 2.325237,-0.32176 7.785632,-0.32082 10.081872,0.002 7.48384,1.05125 14.17653,4.06044 20.22207,9.09234 1.11199,0.92556 3.43723,3.27064 4.05146,4.08603 0.12584,0.16707 0.4445,0.5636 0.70811,0.88118 1.96773,2.37058 4.3916,6.38046 5.58802,9.24441 1.18494,2.83643 2.39842,7.30312 2.70905,9.97167 0.0874,0.7507 0.19565,1.50253 0.24061,1.67072 0.0724,0.27097 -1.05913,0.30581 -9.93209,0.30581 h -10.01384 l -0.0885,-0.50628 c -0.0487,-0.27845 -0.17473,-0.50628 -0.28011,-0.50628 -0.36962,0 -0.52343,0.56184 -0.48035,1.75489 0.0376,1.04147 0.0795,1.18906 0.35364,1.24505 0.24871,0.0508 0.33523,-0.0709 0.43209,-0.60754 l 0.12107,-0.67105 9.96985,-0.052 9.96981,-0.052 -0.003,2.88715 c -0.003,3.14224 -0.30885,6.04168 -0.8428,7.94995 -0.0623,0.22276 -0.22302,0.86068 -0.35709,1.41758 -0.76332,3.17085 -2.46922,7.3318 -4.10977,10.02434 -0.16968,0.27845 -0.49514,0.81544 -0.72326,1.19329 l -0.41479,0.68701 -0.0937,-0.71725 c -0.31858,-2.43822 -2.26843,-5.89996 -4.5793,-8.13009 -5.43076,-5.24095 -12.90987,-6.70924 -19.10599,-3.75086 -0.68405,0.32661 -1.41396,0.73599 -1.622,0.90973 -0.21352,0.17833 -0.2554,0.25875 -0.0961,0.18467 1.27593,-0.59354 2.65721,-0.74783 5.78274,-0.64595 3.40188,0.11089 4.35139,0.26996 6.20657,1.03984 2.7886,1.15724 4.83557,2.83725 6.5578,5.38218 1.309,1.93429 1.26764,1.85509 1.7988,3.44624 0.95332,2.85586 1.11098,4.94974 0.53228,7.06993 -0.39909,1.46215 -0.37708,1.43268 -2.26054,3.02756 -7.83593,6.63527 -17.00647,9.87186 -26.863201,9.4809 -12.380118,-0.49104 -23.059469,-6.27805 -30.197345,-16.36355 -2.313384,-3.26872 -3.481837,-5.51077 -4.79081,-9.19277 -1.279684,-3.59964 -1.847162,-6.22423 -2.174584,-10.05738 -0.237993,-2.78612 -0.244184,-3.39552 -0.05636,-5.53604 z m 17.406435,15.46099 c 1.05074,5.44669 3.268424,9.58085 7.183887,13.39207 5.965666,5.80685 14.747055,8.13519 22.946122,6.08406 3.07446,-0.76912 6.43943,-2.41029 8.98951,-4.38438 2.09166,-1.61922 2.80953,-2.39207 5.25812,-5.66069 l 0.8047,-1.07422 -0.87524,-0.88994 c -1.37388,-1.39695 -3.46493,-3.38549 -3.56,-3.38549 -0.0475,0 -0.41211,0.47275 -0.81034,1.05056 -3.72033,5.39824 -9.79267,9.35598 -16.10984,10.49984 -1.862904,0.33733 -5.51217,0.28676 -7.334223,-0.10162 -5.264653,-1.1222 -9.598263,-4.05658 -12.958551,-8.77453 -1.684469,-2.36502 -3.030617,-5.35136 -3.464798,-7.68642 -0.08803,-0.47337 -0.189336,-0.86068 -0.225134,-0.86068 -0.121629,0 -0.06567,0.64346 0.155787,1.79144 z m 7.452254,-30.04184 c 0.133482,0.66829 0.298794,1.39733 0.367348,1.6201 0.06853,0.22276 0.263048,0.86067 0.432249,1.41758 0.279771,0.92077 1.035976,2.6275 1.747335,3.94361 0.152109,0.28141 0.925539,1.44391 1.71876,2.58334 2.881683,4.13945 7.068211,7.39433 11.504586,8.94439 4.217727,1.47367 8.251537,1.5599 12.451977,0.2662 l 1.12834,-0.34752 0.0388,-3.41522 c 0.0363,-3.20487 0.0233,-3.40577 -0.21159,-3.26171 -0.70218,0.43063 -3.48483,1.34352 -4.91683,1.61305 -3.06232,0.57639 -6.52457,0.27751 -9.553684,-0.82472 -5.143473,-1.87162 -9.536535,-6.23772 -11.903366,-11.83031 -1.20433,-2.84571 -1.751859,-5.51203 -1.746594,-8.50549 0.0037,-2.10525 0.29726,-4.05719 0.776685,-5.16406 0.09647,-0.22276 0.221694,-0.58728 0.278262,-0.81004 0.09001,-0.35437 0.07829,-0.36704 -0.09371,-0.10126 -0.782135,1.20868 -1.877219,4.64433 -2.219616,6.9637 -0.196321,1.32991 -0.07403,5.53102 0.201083,6.90836 z m 14.788303,-7.39168 c 1.312382,0.90221 2.781932,3.19143 3.540762,5.51568 0.45857,1.40462 0.52559,3.12908 0.1634,4.20489 -0.39475,1.17258 -1.71899,2.51167 -3.242146,3.27852 -0.688049,0.34642 -0.692389,0.35342 -0.145045,0.23476 2.447291,-0.53052 4.912201,-2.53469 5.918011,-4.81181 1.31041,-2.96666 1.19917,-5.30783 -0.39341,-8.28157 -0.45466,-0.84895 -2.24596,-2.67668 -2.82937,-2.88693 -0.27578,-0.0994 -0.80163,0.14071 -2.061607,0.94123 -0.930301,0.59105 -1.690449,1.12511 -1.689232,1.18679 0,0.0617 0.333587,0.33999 0.738637,0.61844 z m -22.811131,61.67129 c 3.9946,2.40296 9.385115,4.33803 14.735995,5.28987 2.930234,0.52124 10.902158,0.5202 13.822178,-0.002 4.25958,-0.76147 7.79087,-1.89914 11.72252,-3.77658 7.5242,-3.59296 13.40326,-8.91546 18.11769,-16.40254 0.77663,-1.23338 2.43499,-4.48415 3.04766,-5.9741 1.91185,-4.64952 2.74293,-8.21621 3.14486,-13.4964 0.19973,-2.62402 0.20026,-3.1787 0.005,-5.69716 -0.1847,-2.38561 -0.36092,-3.619 -1.0046,-7.03172 -0.0525,-0.27845 -0.15758,-0.62019 -0.23344,-0.75942 -0.10967,-0.20126 0.71123,-0.25314 4.00566,-0.25314 h 4.14362 l 0.16909,0.55691 c 0.15843,0.52177 0.29565,1.23381 0.61463,3.18956 0.73472,4.50485 0.69355,10.55051 -0.10134,14.88462 -0.59309,3.23376 -1.00089,4.81019 -1.93834,7.49294 -0.43399,1.24198 -1.31532,3.50686 -1.53265,3.93867 -0.0589,0.11705 -0.42201,0.85073 -0.8069,1.63041 -1.15085,2.33138 -1.27068,2.53109 -3.10496,5.17403 -3.42927,4.94113 -6.79416,8.3237 -11.7778,11.83964 -4.5575,3.21531 -8.79239,5.23231 -14.0122,6.67378 -11.98649,3.31012 -24.340526,1.71221 -35.389658,-4.57741 -1.629278,-0.92745 -5.111194,-3.31562 -5.111194,-3.50566 0,-0.0479 0.667782,0.31454 1.483942,0.8055 z m 60.485603,-56.40912 c 0.82486,-2.24404 3.51152,-4.5152 7.85926,-6.64381 4.92964,-2.41351 7.12769,-4.06205 9.20607,-6.90459 l 0.82664,-1.13057 -0.0995,1.01256 c -0.23992,2.44256 -1.25222,4.29132 -3.30493,6.03577 -0.58836,0.5 -2.52955,2.02397 -4.31374,3.3866 -4.71168,3.59841 -5.71866,4.61796 -6.45269,6.53326 -0.7462,1.94697 0.26146,3.37048 2.39242,3.3798 1.5822,0.007 2.78619,-0.80476 6.36066,-4.28806 2.34336,-2.2836 4.25863,-3.48518 6.5501,-4.1093 1.56755,-0.42696 1.63807,-0.3976 0.937,0.39021 -0.34084,0.38302 -0.9134,1.13485 -1.27238,1.67072 -2.00999,3.00057 -4.55541,5.44543 -6.46999,6.21439 -1.33355,0.5356 -3.08345,0.78478 -5.64171,0.80335 -1.97803,0.0144 -2.66433,-0.0563 -3.45554,-0.3557 -2.90113,-1.09787 -4.08562,-3.37243 -3.12171,-5.99463 z m 5.89666,2.67762 c 0.10038,-0.64432 0.34391,-1.17536 0.94044,-2.0507 1.05116,-1.54244 2.17823,-2.57923 4.67664,-4.30205 3.94295,-2.71891 5.03036,-3.57716 6.8072,-5.37258 1.72717,-1.74527 3.91207,-5.01969 3.91207,-5.8629 0,-0.15105 0.0634,-0.27464 0.14103,-0.27464 0.2014,0 0.17431,0.984 -0.0685,2.48704 -0.26501,1.64064 -0.53742,2.57473 -1.1553,3.96162 -1.36623,3.06654 -3.4135,5.12463 -7.19815,7.23618 -3.57883,1.99672 -4.23791,2.39538 -5.25926,3.18113 -1.43761,1.10603 -1.96418,1.60548 -2.50348,2.37456 l -0.45839,0.65369 0.0151,-0.58094 c 0.008,-0.31951 0.076,-0.9722 0.15054,-1.45041 z"
       style="fill:#000000;stroke-width:0.264583"
       id="path1" />
  </g>
</svg>
