<?xml version="1.0" encoding="UTF-8" standalone="no"?>
<!-- Created with Inkscape (http://www.inkscape.org/) -->

<svg
   width="100.12734mm"
   height="84.935493mm"
   viewBox="0 0 100.12734 84.935494"
   version="1.1"
   id="svg1"
   inkscape:version="1.4 (e7c3feb1, 2024-10-09)"
   sodipodi:docname="P-WT.svg"
   xmlns:inkscape="http://www.inkscape.org/namespaces/inkscape"
   xmlns:sodipodi="http://sodipodi.sourceforge.net/DTD/sodipodi-0.dtd"
   xmlns="http://www.w3.org/2000/svg"
   xmlns:svg="http://www.w3.org/2000/svg">
  <sodipodi:namedview
     id="namedview1"
     pagecolor="#ffffff"
     bordercolor="#000000"
     borderopacity="0.25"
     inkscape:showpageshadow="2"
     inkscape:pageopacity="0.0"
     inkscape:pagecheckerboard="0"
     inkscape:deskcolor="#d1d1d1"
     inkscape:document-units="mm"
     inkscape:zoom="0.74118967"
     inkscape:cx="15.515597"
     inkscape:cy="11.46805"
     inkscape:window-width="1440"
     inkscape:window-height="872"
     inkscape:window-x="0"
     inkscape:window-y="28"
     inkscape:window-maximized="0"
     inkscape:current-layer="layer1" />
  <defs
     id="defs1" />
  <g
     inkscape:label="Layer 1"
     inkscape:groupmode="layer"
     id="layer1"
     transform="translate(-713.14413,1129.375)">
    <path
       d="m 713.3312,-1093.405 c 0.35798,-4.4809 1.22714,-8.0457 2.99006,-12.2612 0.2794,-0.6683 0.54398,-1.2606 0.58764,-1.3163 0.0439,-0.056 0.26987,-0.5038 0.50244,-0.9958 1.46315,-3.0963 4.17327,-6.8774 7.07364,-9.8693 5.56551,-5.7407 12.78493,-9.5467 21.13438,-11.1419 2.69188,-0.5142 10.0973,-0.514 12.83494,6e-4 5.00751,0.941 8.10022,2.0368 12.42378,4.4019 6.50319,3.5575 12.13908,9.3344 15.42044,15.8066 0.47308,0.9332 0.90937,1.7878 0.96944,1.8992 0.86439,1.6045 2.4294,6.5443 2.85511,9.0118 0.34317,1.9897 0.70062,5.5284 0.70062,6.9373 0,1.4305 -0.34978,5.1763 -0.63791,6.8335 -0.83,4.7734 -2.98529,10.3546 -5.4692,14.1621 l -0.58552,0.8975 -0.17913,-0.8975 c -0.24871,-1.2475 -0.56118,-2.096 -1.35652,-3.6832 -3.49541,-6.9766 -12.23327,-11.0858 -19.44793,-9.146 -1.72614,0.4641 -4.73975,1.8066 -4.57782,2.0393 0.0304,0.044 0.46117,-0.059 0.95726,-0.2281 1.97194,-0.6724 7.02548,-0.5683 9.58691,0.1974 5.81713,1.739 10.04041,6.8559 10.55027,12.7834 0.14684,1.7058 0.0728,2.6661 -0.31989,4.1412 -0.22251,0.8364 -0.38496,1.0504 -1.67613,2.2075 -5.71394,5.1204 -13.44348,8.5947 -21.16085,9.5113 -2.57439,0.3058 -7.3017,0.265 -9.8425,-0.085 -9.34508,-1.2866 -17.95568,-5.9506 -23.95114,-12.9733 -2.08359,-2.4406 -3.35703,-4.2803 -4.69106,-6.7761 -2.88872,-5.4053 -4.17169,-9.7427 -4.70191,-15.8972 -0.2368,-2.7483 -0.23733,-2.456 0.0106,-5.5599 z m 17.349,15.9581 c 0.74559,3.8306 1.78726,6.3732 3.792,9.2542 2.16721,3.1147 3.66448,4.6451 6.35186,6.4917 2.70668,1.86 5.43004,3.0424 8.8855,3.8578 2.19234,0.5173 7.80706,0.5193 10.01421,0 1.9386,-0.453 4.40796,-1.3339 6.06478,-2.1634 1.55205,-0.7771 4.62968,-2.9162 5.79782,-4.0297 1.11998,-1.0676 4.00473,-4.7094 4.00473,-5.0556 0,-0.083 -0.46038,-0.607 -1.02262,-1.165 -0.5625,-0.5579 -1.53405,-1.526 -2.15926,-2.1513 l -1.13691,-1.1369 -0.83768,1.2254 c -2.77336,4.0559 -7.56285,7.7278 -12.192,9.347 -2.59662,0.9082 -4.49738,1.223 -7.33425,1.2147 -3.63325,-0.011 -6.16611,-0.6285 -9.16754,-2.236 -4.45506,-2.3859 -8.39523,-6.9084 -10.19731,-11.7039 -0.36116,-0.9606 -0.80407,-2.4842 -0.80618,-2.7734 0,-0.1454 -0.0638,-0.401 -0.13891,-0.5681 -0.21696,-0.4817 -0.17939,0.2475 0.0818,1.589 z m 5.00062,-33.5057 c 0.17727,2.2194 0.43074,3.3789 1.22052,5.5818 1.69466,4.7268 4.97311,8.948 9.28212,11.951 6.59341,4.5949 14.02767,5.475 20.73327,2.4547 l 0.84641,-0.3812 -0.0611,-0.8821 c -0.15029,-2.1687 -0.31512,-1.8967 1.96506,-3.2402 1.12501,-0.6627 2.66673,-1.5813 3.42662,-2.0415 l 1.38112,-0.8366 0.62124,0.4334 c 2.02221,1.4106 5.09456,0.8461 7.45967,-1.3709 1.34143,-1.2572 1.92087,-2.4064 1.92087,-3.8088 0,-1.1394 -0.34263,-1.7874 -1.338,-2.5298 -0.79904,-0.5958 -2.78156,-0.7134 -4.25847,-0.2524 -2.9845,0.9316 -5.44168,4.0608 -4.87653,6.2106 0.14102,0.5367 0.12488,0.6221 -0.14975,0.7964 -0.16934,0.1074 -1.6727,0.9995 -3.34037,1.9826 -3.38693,1.9963 -3.13214,1.998 -3.30544,-0.022 -0.055,-0.6405 -0.11827,-1.1645 -0.14076,-1.1645 -0.0238,0 -0.48471,0.2627 -1.02711,0.5838 -1.24857,0.7392 -3.1332,1.525 -4.76515,1.9866 -0.98001,0.2773 -1.97617,0.3595 -4.37224,0.3606 -2.67705,0 -3.3229,-0.062 -4.70535,-0.4626 -6.90827,-2.0008 -12.34863,-7.375 -14.59415,-14.4166 -0.79137,-2.4819 -0.99166,-3.7066 -0.99351,-6.0753 0,-1.4889 0.0698,-2.4169 0.23733,-3.0954 0.35402,-1.4337 0.28126,-1.6199 -0.13546,-0.3473 -0.56753,1.7328 -0.91758,3.4145 -1.03294,4.9615 -0.0579,0.7797 -0.11377,1.5087 -0.12356,1.6201 -0.0106,0.1114 0.0466,1.0132 0.12568,2.004 z m 39.3229,9.3366 c 0.88874,-2.0923 3.44461,-3.7562 5.82243,-3.7907 0.99007,-0.014 1.33773,0.067 1.87272,0.4391 0.63447,0.4409 1.07262,1.2303 1.07262,1.9321 0,1.1456 -1.17952,2.9655 -2.50587,3.8664 -0.95039,0.6457 -2.71383,1.2996 -3.50414,1.2996 -1.74308,0 -3.01731,-1.0141 -3.01625,-2.4005 0,-0.4061 0.11668,-1.0118 0.25849,-1.346 z m -20.07499,-11.3382 c 1.30254,1.8911 2.05766,3.9759 2.06243,5.6942 0,0.6539 -0.0635,1.4408 -0.14553,1.7488 -0.3048,1.1459 -1.56977,2.5342 -3.00725,3.301 -1.10649,0.5902 -0.79428,0.6242 0.67548,0.073 1.67878,-0.629 3.42821,-2.0233 4.17275,-3.3257 0.12779,-0.2234 0.3974,-0.6796 0.59928,-1.0137 0.20187,-0.3342 0.3675,-0.6987 0.36803,-0.8101 0,-0.1114 0.10451,-0.4759 0.23125,-0.81 0.15557,-0.41 0.23336,-1.1344 0.23998,-2.2277 0.008,-1.3678 -0.0498,-1.7935 -0.37148,-2.7339 -0.60193,-1.7589 -1.81663,-3.4393 -3.23956,-4.4816 l -0.55748,-0.4085 -1.21946,0.7524 c -0.67072,0.4138 -1.50416,0.9278 -1.85261,1.1423 l -0.63315,0.3899 0.84481,0.6374 c 0.48446,0.3655 1.26604,1.2492 1.83251,2.0718 z m 22.82349,2.6102 c 0.59028,0.6301 1.77985,0.5955 2.27039,-0.066 1.30915,-1.7661 -1.15809,-3.6272 -2.49899,-1.8848 -0.37042,0.4814 -0.2593,1.43 0.2286,1.9507 z m -49.70092,55.6095 c 0.073,0 0.17145,0.09 0.21881,0.2002 0.0495,0.1148 -0.008,0.1488 -0.13256,0.08 -0.24448,-0.1346 -0.28919,-0.2798 -0.0863,-0.2798 z m 0.57255,0.4711 c 0.11616,0.055 1.06839,0.5957 2.11561,1.201 4.44474,2.5691 9.75916,4.3574 15.23365,5.1262 2.77548,0.3897 8.11319,0.438 10.92967,0.099 9.08633,-1.0939 17.8988,-5.2522 24.33003,-11.4801 1.20227,-1.1645 2.56699,-2.5438 3.03239,-3.0653 1.05648,-1.1837 4.2164,-5.6365 4.8297,-6.8057 0.25189,-0.4797 0.56912,-1.0606 0.70538,-1.2907 0.13626,-0.2302 0.3429,-0.622 0.45905,-0.8706 0.11642,-0.2487 0.34317,-0.69 0.50377,-0.9808 0.62733,-1.1351 2.23785,-5.4069 2.49502,-6.6177 0.0458,-0.2153 0.2413,-1.0294 0.43471,-1.809 0.63156,-2.5451 0.98108,-5.082 1.15888,-8.4043 0.14181,-2.6554 -0.34528,-7.8274 -1.00674,-10.6895 -0.36222,-1.5676 -0.66437,-1.4632 3.85445,-1.3315 2.23017,0.065 4.07246,0.1406 4.09363,0.168 0.0794,0.1019 0.57732,2.9034 0.82921,4.6639 0.20796,1.4553 0.25717,2.6591 0.24394,5.9741 -0.0159,4.209 -0.0434,4.5183 -0.75538,8.708 -0.20664,1.2158 -0.77735,3.4097 -1.36129,5.2327 -0.26193,0.8174 -0.47598,1.5195 -0.47598,1.5601 0,0.1738 -1.79467,4.3407 -2.30743,5.3579 -3.04985,6.0479 -7.94438,11.7465 -13.84194,16.1162 -2.83581,2.1009 -4.48337,3.1069 -7.33187,4.4765 -5.96345,2.8673 -11.77131,4.2641 -18.54968,4.4613 -7.93908,0.231 -14.50578,-1.1827 -21.57941,-4.6455 -2.59345,-1.2697 -6.21586,-3.493 -7.49512,-4.6003 -0.41566,-0.3599 -0.66066,-0.6091 -0.54425,-0.5538 z m 62.0149,-55.0999 c 0.93027,-2.4021 3.47001,-4.5793 7.73059,-6.6278 4.9366,-2.3735 7.52713,-4.2701 9.51019,-6.9629 0.42095,-0.5717 0.7866,-1.0394 0.81253,-1.0394 0.13706,0 -0.17886,1.8588 -0.46725,2.75 -0.72523,2.2415 -1.84335,3.4506 -6.25872,6.7687 -4.97337,3.7371 -5.66129,4.316 -6.49711,5.4672 -0.92181,1.2694 -1.26047,2.105 -1.26047,3.1109 0,0.9126 0.5797,1.6337 1.55442,1.9338 2.01163,0.6194 3.00911,0.08 7.22842,-3.9105 2.78765,-2.6364 4.45161,-3.675 6.85615,-4.2797 1.54596,-0.3887 1.54596,-0.3887 0.98028,0.2597 -0.26723,0.3063 -0.79878,1.0011 -1.1811,1.544 -1.63804,2.3244 -3.6068,4.4733 -5.09641,5.562 -1.61078,1.1775 -4.35292,1.7394 -7.82849,1.6041 -1.97749,-0.077 -2.61831,-0.177 -3.3655,-0.5247 -1.08902,-0.5072 -2.12831,-1.4468 -2.55799,-2.3128 -0.42175,-0.8506 -0.499,-2.4667 -0.15954,-3.3426 z m 5.88221,2.9521 c 0.48842,-2.6045 2.58657,-4.7846 7.84278,-8.1491 1.35811,-0.8693 4.02035,-3.079 5.16493,-4.2869 1.36922,-1.4451 2.67309,-3.3321 3.41604,-4.9437 l 0.32676,-0.7088 -0.0693,1.5442 c -0.0381,0.8492 -0.13388,1.715 -0.21299,1.9238 -0.0788,0.2089 -0.33893,0.9814 -0.57785,1.7167 -1.23666,3.8058 -3.80048,6.3863 -9.03499,9.0931 -2.96413,1.5329 -5.80073,3.6262 -6.545,4.83 -0.51885,0.8392 -0.60537,0.5546 -0.31036,-1.0193 z"
       style="fill:#000000;stroke-width:0.264583"
       id="path1" />
  </g>
</svg>
