<?xml version="1.0" encoding="UTF-8" standalone="no"?>
<!-- Generator: Adobe Illustrator 13.0.0, SVG Export Plug-In . SVG Version: 6.00 Build 14948)  -->
<svg
   xmlns:dc="http://purl.org/dc/elements/1.1/"
   xmlns:cc="http://creativecommons.org/ns#"
   xmlns:rdf="http://www.w3.org/1999/02/22-rdf-syntax-ns#"
   xmlns:svg="http://www.w3.org/2000/svg"
   xmlns="http://www.w3.org/2000/svg"
   xmlns:sodipodi="http://sodipodi.sourceforge.net/DTD/sodipodi-0.dtd"
   xmlns:inkscape="http://www.inkscape.org/namespaces/inkscape"
   version="1.1"
   id="Layer_1"
   x="0px"
   y="0px"
   width="300px"
   height="300px"
   viewBox="0 0 300 300"
   style="enable-background:new 0 0 300 300;"
   xml:space="preserve"
   sodipodi:version="0.32"
   inkscape:version="0.46"
   sodipodi:docname="London_Paralympics_2012[1].svg"
   inkscape:output_extension="org.inkscape.output.svg.inkscape"><metadata
   id="metadata102"><rdf:RDF><cc:Work
       rdf:about=""><dc:format>image/svg+xml</dc:format><dc:type
         rdf:resource="http://purl.org/dc/dcmitype/StillImage" /></cc:Work></rdf:RDF></metadata><defs
   id="defs100"><inkscape:perspective
     sodipodi:type="inkscape:persp3d"
     inkscape:vp_x="0 : 150 : 1"
     inkscape:vp_y="0 : 1000 : 0"
     inkscape:vp_z="300 : 150 : 1"
     inkscape:persp3d-origin="150 : 100 : 1"
     id="perspective104" /></defs><sodipodi:namedview
   inkscape:window-height="669"
   inkscape:window-width="640"
   inkscape:pageshadow="2"
   inkscape:pageopacity="0.0"
   guidetolerance="10.0"
   gridtolerance="10.0"
   objecttolerance="10.0"
   borderopacity="1.0"
   bordercolor="#666666"
   pagecolor="#ffffff"
   id="base"
   showgrid="false"
   inkscape:zoom="1.54"
   inkscape:cx="150"
   inkscape:cy="150"
   inkscape:window-x="69"
   inkscape:window-y="69"
   inkscape:current-layer="Layer_1" />
<g
   id="g3"
   transform="matrix(0.9845766,0.1749541,-0.1749541,0.9845766,28.517774,-24.065963)">
	<path
   style="fill:#feea00"
   d="M 208.284,123.762 L 212.783,127.33 L 189.353,147.49 L 208.284,123.762 z M 179.741,190.583 L 181.267,168.691 L 191.638,181.816 L 179.741,190.583 z M 140.558,196.109 L 173.566,195.13 L 138.729,220.778 L 140.558,196.109 z M 109.187,171.538 L 139.103,164.06 L 135.576,192.021 L 109.187,171.538 z M 99.87,108.261 L 111.39,115.965 L 98.119,118.247 L 99.87,108.261 z M 170.271,157.139 L 146.523,157.391 L 126.253,125.909 L 170.271,157.139 z M 282.629,241.116 L 225.231,215.583 L 260.223,187.628 L 258.119,184.909 L 262.421,181.085 L 221.602,134.065 L 247.871,72.854 L 243.048,68.712 L 244.4,64.946 L 217.275,46.563 L 172.365,7.987 L 168.152,13.269 L 162.564,9.471 L 135.922,47.028 L 125.6,39.507 L 123.853,43.578 L 119.602,40.828 L 106.917,75.81 L 34.544,47.173 L 32.605,54.798 L 29.139,53.642 L 18.879,106.028 L 47.706,114.705 L 45.728,128.311 L 34.517,183.35 L 37.824,182.725 L 36.83,189.589 L 73.283,180.477 L 46.481,192.54 L 51.567,196.907 L 49.287,198.087 L 78.148,220.22 L 67.552,287.233 L 76.456,283.86 L 75.698,291.436 L 135.459,264.864 L 138.079,229.51 L 203.389,268.785 L 276.993,248.746 L 270.247,245.265 L 282.629,241.116 z"
   id="path5" />
	<polygon
   style="fill:#ec008c"
   points="137.976,196.923 104.627,172.188 53.908,198.505 85.126,222.423 78.589,287.386 133.071,263.184 137.976,196.923 "
   id="polygon7" />
	<polygon
   style="fill:#ec008c"
   points="241.402,65.921 163.18,12.915 134.499,53.389 120.881,44.63 99.068,104.731 177.659,157.27 206.339,116.789 219.534,126.028 241.402,65.921 "
   id="polygon9" />
	<polygon
   style="fill:#ec008c"
   points="50.464,112.927 39.813,186.255 145.255,159.934 116.421,118.983 93.723,124.243 98.991,79.432 31.029,56.904 21.752,104.281 50.464,112.927 "
   id="polygon11" />
	<polygon
   style="fill:#00b8a5"
   points="177.27,190.292 140.635,193.622 142.761,162.7 179.391,159.378 177.27,190.292 "
   id="polygon13" />
	<polygon
   style="fill:#00b8a5"
   points="197.754,180.081 140.898,225.954 210.486,262.609 275.74,240.813 219.814,215.952 258.932,180.866 214.232,129.396 179.391,159.378 197.754,180.081 "
   id="polygon15" />
	<polygon
   style="fill:#00b8a5"
   points="100.545,258.566 135.499,230.402 137.976,196.923 111.186,177.048 100.545,258.566 "
   id="polygon17" />
	<polygon
   style="fill:#00b2d5"
   points="31.029,56.904 21.752,104.281 26.81,105.802 36.061,58.572 31.029,56.904 "
   id="polygon19" />
	<polygon
   style="fill:#00b2d5"
   points="69.036,118.346 78.018,72.478 72.843,70.761 63.818,116.827 69.036,118.346 "
   id="polygon21" />
	<polygon
   style="fill:#00b2d5"
   points="58.462,115.267 67.531,69 62.351,67.284 53.249,113.751 58.462,115.267 "
   id="polygon23" />
	<polygon
   style="fill:#00b2d5"
   points="51.865,63.81 42.696,110.587 47.91,112.155 57.039,65.523 51.865,63.81 "
   id="polygon25" />
	<polygon
   style="fill:#00b2d5"
   points="41.373,60.332 32.149,107.412 37.362,108.98 46.553,62.049 41.373,60.332 "
   id="polygon27" />
	<polygon
   style="fill:#00b2d5"
   points="98.997,79.432 93.816,77.715 91.366,90.229 98.997,79.432 "
   id="polygon29" />
	<polygon
   style="fill:#00b2d5"
   points="83.549,101.249 88.504,75.955 83.33,74.238 75.941,111.979 83.549,101.249 "
   id="polygon31" />
	<polygon
   style="fill:#f04e23"
   points="254.548,184.761 254.575,184.768 258.932,180.866 247.143,167.292 244.286,181.643 254.548,184.761 "
   id="polygon33" />
	<polygon
   style="fill:#f04e23"
   points="217.051,172.544 213.902,188.337 223.473,191.249 219.814,215.952 244.286,181.643 217.051,172.544 "
   id="polygon35" />
	<polygon
   style="fill:#f04e23"
   points="220.71,147.828 217.051,172.544 232.674,150.633 214.232,129.396 211.141,144.917 220.71,147.828 "
   id="polygon37" />
	<polygon
   style="fill:#ffffff"
   points="56.523,161.421 54.309,161.234 54.82,145.776 57.034,145.966 56.523,161.421 "
   id="polygon39" />
	<g
   id="g41">
		<path
   style="fill:#ffffff"
   d="M 64.197,150.77 C 62.307,151.1 61.126,152.962 61.462,154.862 C 61.797,156.759 63.56,158.1 65.433,157.77 C 67.307,157.44 68.476,155.557 68.152,153.682 C 67.817,151.785 66.07,150.438 64.197,150.77 M 65.79,159.813 C 62.758,160.346 59.808,158.286 59.275,155.249 C 58.737,152.208 60.802,149.264 63.84,148.728 C 66.883,148.193 69.8,150.261 70.333,153.3 C 70.871,156.335 68.833,159.273 65.79,159.813"
   id="path43" />
	</g>
	<polygon
   style="fill:#ffffff"
   points="81.764,156.973 79.528,156.788 79.819,148.638 74.909,152.511 74.738,158.208 72.497,158.025 72.887,147.155 75.101,147.342 75.007,149.792 79.721,145.952 82.121,147.331 81.764,156.973 "
   id="polygon45" />
	<path
   style="fill:#ffffff"
   d="M 87.203,147.312 L 86.999,153.361 L 91.877,149.495 L 91.938,147.704 L 87.203,147.312 z M 93.92,154.827 L 91.707,154.642 L 91.795,152.29 L 87.137,156.02 L 84.736,154.641 L 85.066,145.004 L 92.009,145.559 L 92.218,139.182 L 94.432,139.369 L 93.92,154.827 z"
   id="path47" />
	<g
   id="g49">
		<path
   style="fill:#ffffff"
   d="M 101.468,144.197 C 99.568,144.532 98.397,146.391 98.733,148.286 C 99.068,150.184 100.831,151.527 102.704,151.197 C 104.578,150.865 105.747,148.982 105.418,147.108 C 105.083,145.213 103.341,143.865 101.468,144.197 M 103.062,153.241 C 100.024,153.777 97.08,151.711 96.541,148.677 C 96.008,145.634 98.068,142.69 101.106,142.151 C 104.144,141.618 107.066,143.686 107.604,146.721 C 108.137,149.759 106.099,152.706 103.062,153.241"
   id="path51" />
	</g>
	<polygon
   style="fill:#ffffff"
   points="119.036,150.399 116.794,150.215 117.091,142.068 112.18,145.941 112.004,151.637 109.769,151.457 110.159,140.583 112.373,140.767 112.279,143.217 116.987,139.379 119.393,140.761 119.036,150.399 "
   id="polygon53" />
	<g
   id="g55">
		<path
   style="fill:#ffffff"
   d="M 141.97,68.446 C 136.955,72.857 128.627,81.701 129.143,91.38 C 129.445,97.022 131.703,100.93 135.851,103.004 C 142.173,106.163 150.82,103.853 151.56,103.353 L 151.736,103.235 L 151.599,103.081 C 151.523,102.996 151.461,102.998 150.978,103.015 C 146.222,103.171 142.689,101.979 140.471,99.48 C 138.081,96.789 137.302,92.636 138.142,87.145 C 140.476,72.014 151.007,65.353 158.691,60.492 C 160.382,59.423 161.976,58.415 163.267,57.446 L 163.597,57.194 L 163.191,57.12 C 159.922,56.522 150.402,61.024 141.97,68.446"
   id="path57" />
		<path
   style="fill:#ffffff"
   d="M 156.67,68.188 C 154.106,70.308 151.44,80.498 151.703,91.729 C 151.857,98.401 153.279,110.464 161.031,116.29 C 165.547,119.685 169.99,120.47 174.242,118.624 C 180.724,115.811 184.513,107.698 184.607,106.811 L 184.634,106.6 L 184.42,106.611 C 184.31,106.616 184.273,106.663 183.976,107.039 C 181.037,110.786 177.851,112.73 174.51,112.824 C 170.917,112.92 167.232,110.852 163.568,106.672 C 153.472,95.164 155.142,82.815 156.355,73.8 C 156.629,71.82 156.882,69.949 156.964,68.337 L 156.985,67.922 L 156.67,68.188 z"
   id="path59" />
		<path
   style="fill:#ffffff"
   d="M 205.443,76.026 C 205.422,76.136 205.455,76.185 205.746,76.567 C 208.598,80.38 209.65,83.958 208.877,87.21 C 208.037,90.707 205.087,93.728 200.106,96.183 C 186.377,102.956 174.88,98.147 166.487,94.637 C 164.641,93.866 162.901,93.14 161.368,92.64 L 160.972,92.514 L 161.148,92.893 C 162.534,95.912 171.678,101.122 182.593,103.775 C 189.081,105.352 201.101,107.104 208.736,101.127 C 213.185,97.647 215.091,93.558 214.417,88.976 C 213.379,81.986 206.529,76.218 205.688,75.894 L 205.491,75.82 L 205.443,76.026 z"
   id="path61" />
	</g>
	<path
   style="fill:#ffffff"
   d="M 177.346,214.896 L 180.571,215.396 L 181.692,213.445 L 179.137,211.814 L 177.346,214.896 z M 178.593,209.706 L 183.719,212.984 L 181.373,217.027 L 176.539,216.302 L 174.648,219.581 L 173.39,218.751 L 178.593,209.706 z"
   id="path63" />
	<path
   style="fill:#ffffff"
   d="M 182.852,220.368 L 186.824,219.639 L 187.483,218.479 L 184.901,216.821 L 182.852,220.368 z M 185.137,222.564 L 185.872,221.273 L 182.092,221.999 L 181.022,220.544 L 184.356,214.766 L 189.464,218.038 L 186.389,223.394 L 185.137,222.564 z"
   id="path65" />
	<polygon
   style="fill:#ffffff"
   points="188.113,223.532 191.771,217.171 193.029,218.001 192.387,219.109 195.628,218.423 195.908,219.884 191.425,220.779 189.371,224.361 188.113,223.532 "
   id="polygon67" />
	<path
   style="fill:#ffffff"
   d="M 195.825,224.575 L 199.797,223.849 L 200.45,222.691 L 197.869,221.032 L 195.825,224.575 z M 198.105,226.771 L 198.839,225.486 L 195.06,226.208 L 193.99,224.757 L 197.325,218.973 L 202.439,222.247 L 199.368,227.601 L 198.105,226.771 z"
   id="path69" />
	<polygon
   style="fill:#ffffff"
   points="201.1,227.745 206.613,218.165 207.872,218.995 202.355,228.575 201.1,227.745 "
   id="polygon71" />
	<polygon
   style="fill:#ffffff"
   points="202.994,232.363 202.961,230.896 208.113,230.814 209.18,228.934 205.587,229.624 204.516,228.173 207.85,222.391 209.104,223.221 206.346,227.993 210.13,227.294 212.146,223.784 213.402,224.614 209.02,232.232 202.994,232.363 "
   id="polygon73" />
	<polygon
   style="fill:#ffffff"
   points="211.559,231.141 215.223,224.777 216.475,225.607 215.755,226.852 219.375,226.13 220.445,227.587 220.045,228.277 223.721,227.542 224.791,228.997 221.445,234.775 220.188,233.941 222.924,229.18 219.1,229.889 217.096,233.363 215.826,232.523 218.578,227.768 214.832,228.448 212.811,231.971 211.559,231.141 "
   id="polygon75" />
	<path
   style="fill:#ffffff"
   d="M 225.802,233.448 L 228.483,235.138 L 230.471,231.605 L 226.417,232.363 L 225.802,233.448 z M 221.609,237.723 L 226.879,228.565 L 228.137,229.395 L 227.34,230.774 L 231.231,229.977 L 232.295,231.432 L 228.966,237.21 L 225.055,234.732 L 222.865,238.548 L 221.609,237.723 z"
   id="path77" />
	<path
   style="fill:#ffffff"
   d="M 235.098,229.889 L 236.3,227.8 L 237.541,228.624 L 236.332,230.728 L 235.098,229.889 z M 230.757,237.374 L 234.356,231.141 L 235.635,231.958 L 232.031,238.21 L 230.757,237.374 z"
   id="path79" />
	<polygon
   style="fill:#ffffff"
   points="239.484,239.716 235.256,239.253 234.18,237.805 237.508,232.02 241.952,234.863 241.161,236.066 238.059,234.073 235.893,237.831 239.645,238.253 239.484,239.716 "
   id="polygon81" />
	<polygon
   style="fill:#ffffff"
   points="173.887,229.232 174.633,227.954 177.604,229.827 175.676,233.167 170.21,232.552 169.37,231.366 174.348,222.741 179.4,225.977 178.609,227.268 174.863,224.872 171.236,231.167 174.907,231.585 175.66,230.307 173.887,229.232 "
   id="polygon83" />
	<path
   style="fill:#ffffff"
   d="M 178.967,233.514 L 182.94,232.788 L 183.598,231.63 L 181.01,229.971 L 178.967,233.514 z M 181.252,235.716 L 181.988,234.425 L 178.209,235.151 L 177.139,233.696 L 180.473,227.911 L 185.58,231.186 L 182.51,236.54 L 181.252,235.716 z"
   id="path85" />
	<polygon
   style="fill:#ffffff"
   points="184.18,236.667 187.844,230.307 189.102,231.134 188.377,232.376 192.002,231.65 193.073,233.105 192.672,233.805 196.348,233.063 197.418,234.52 194.073,240.298 192.814,239.468 195.551,234.7 191.732,235.409 189.723,238.887 188.453,238.05 191.205,233.294 187.459,233.971 185.438,237.495 184.18,236.667 "
   id="polygon87" />
	<path
   style="fill:#ffffff"
   d="M 198.736,238.021 L 202.135,237.439 L 199.883,236.04 L 198.736,238.021 z M 201.709,241.829 L 197.116,241.286 L 196.045,239.831 L 199.38,234.052 L 203.999,236.991 L 203.005,238.648 L 197.93,239.548 L 197.71,239.95 L 201.868,240.366 L 201.709,241.829 z"
   id="path89" />
	<polygon
   style="fill:#ffffff"
   points="209.65,239.841 206.934,238.275 207.768,243.323 206.607,244.368 202.443,241.995 203.164,240.759 206.104,242.443 205.279,237.387 206.438,236.343 210.35,238.609 209.65,239.841 "
   id="polygon91" />
	<path
   style="fill:#ffffff"
   d="M 231.48,128.932 L 232.21,128.99 L 233.078,127.413 L 231.54,127.287 L 231.48,128.932 z M 230.57,132.071 L 230.757,126.429 L 234.042,126.69 L 233.971,127.511 L 233.115,129.065 L 234.011,129.137 L 233.917,131.702 L 233.108,131.622 L 233.17,129.878 L 231.467,129.741 L 231.385,132.147 L 230.57,132.071 z"
   id="path93" />
	<g
   id="g95">
		<path
   style="fill:#ffffff"
   d="M 228.296,129.901 C 227.911,127.707 229.378,125.603 231.575,125.215 C 233.777,124.83 235.876,126.3 236.262,128.494 C 236.653,130.691 235.18,132.795 232.983,133.18 C 230.784,133.568 228.682,132.098 228.296,129.901 M 227.406,130.058 C 227.878,132.747 230.454,134.549 233.14,134.074 C 235.826,133.599 237.627,131.025 237.156,128.342 C 236.677,125.656 234.107,123.854 231.421,124.326 C 228.734,124.801 226.934,127.372 227.406,130.058"
   id="path97" />
	</g>
</g>
</svg>