<?xml version="1.0" encoding="UTF-8" standalone="no"?>
<!-- Created with Inkscape (http://www.inkscape.org/) -->

<svg
   width="22.87034mm"
   height="22.869524mm"
   viewBox="0 0 22.870339 22.869524"
   version="1.1"
   id="svg1"
   inkscape:version="1.4 (e7c3feb1, 2024-10-09)"
   sodipodi:docname="BMX.svg"
   xmlns:inkscape="http://www.inkscape.org/namespaces/inkscape"
   xmlns:sodipodi="http://sodipodi.sourceforge.net/DTD/sodipodi-0.dtd"
   xmlns="http://www.w3.org/2000/svg"
   xmlns:svg="http://www.w3.org/2000/svg">
  <sodipodi:namedview
     id="namedview1"
     pagecolor="#ffffff"
     bordercolor="#000000"
     borderopacity="0.25"
     inkscape:showpageshadow="2"
     inkscape:pageopacity="0.0"
     inkscape:pagecheckerboard="0"
     inkscape:deskcolor="#d1d1d1"
     inkscape:document-units="mm"
     inkscape:zoom="2.7989408"
     inkscape:cx="43.409279"
     inkscape:cy="43.052001"
     inkscape:window-width="1440"
     inkscape:window-height="872"
     inkscape:window-x="0"
     inkscape:window-y="28"
     inkscape:window-maximized="0"
     inkscape:current-layer="layer1" />
  <defs
     id="defs1">
    <clipPath
       clipPathUnits="userSpaceOnUse"
       id="clipPath66">
      <path
         d="m 107.125,266.484 h 64.834 v 64.833 h -64.834 z"
         transform="translate(-170.7181,-300.65661)"
         id="path66" />
    </clipPath>
    <clipPath
       clipPathUnits="userSpaceOnUse"
       id="clipPath68">
      <path
         d="m 107.13,266.484 h 64.83 v 64.827 h -64.83 z"
         transform="translate(-122.74491,-298.74401)"
         id="path68" />
    </clipPath>
    <clipPath
       clipPathUnits="userSpaceOnUse"
       id="clipPath70">
      <path
         d="m 107.13,266.484 h 64.83 v 64.827 h -64.83 z"
         transform="translate(-133.3953,-284.34611)"
         id="path70" />
    </clipPath>
    <clipPath
       clipPathUnits="userSpaceOnUse"
       id="clipPath72">
      <path
         d="m 107.125,266.484 h 64.834 v 64.833 h -64.834 z"
         transform="translate(-156.9679,-291.6002)"
         id="path72" />
    </clipPath>
    <clipPath
       clipPathUnits="userSpaceOnUse"
       id="clipPath74">
      <path
         d="m 107.13,266.484 h 64.83 v 64.827 h -64.83 z"
         transform="translate(-134.079,-285.39071)"
         id="path74" />
    </clipPath>
    <clipPath
       clipPathUnits="userSpaceOnUse"
       id="clipPath76">
      <path
         d="m 107.13,266.484 h 64.83 v 64.827 h -64.83 z"
         transform="translate(-159.41481,-308.21091)"
         id="path76" />
    </clipPath>
    <clipPath
       clipPathUnits="userSpaceOnUse"
       id="clipPath97">
      <path
         d="m 188.739,266.484 h 64.833 v 64.833 h -64.833 z"
         transform="translate(-228.40251,-307.92571)"
         id="path97" />
    </clipPath>
    <clipPath
       clipPathUnits="userSpaceOnUse"
       id="clipPath99">
      <path
         d="m 188.743,266.484 h 64.829 v 64.827 h -64.829 z"
         transform="translate(-247.78411,-326.61891)"
         id="path99" />
    </clipPath>
    <clipPath
       clipPathUnits="userSpaceOnUse"
       id="clipPath101">
      <path
         d="m 188.743,266.484 h 64.829 v 64.827 h -64.829 z"
         transform="translate(-247.78411,-323.21321)"
         id="path101" />
    </clipPath>
    <clipPath
       clipPathUnits="userSpaceOnUse"
       id="clipPath120">
      <path
         d="m 270.353,266.484 h 64.834 v 64.833 h -64.834 z"
         transform="translate(-299.87551,-288.41351)"
         id="path120" />
    </clipPath>
    <clipPath
       clipPathUnits="userSpaceOnUse"
       id="clipPath122">
      <path
         d="m 270.357,266.484 h 64.83 v 64.827 h -64.83 z"
         transform="translate(-287.13241,-296.58521)"
         id="path122" />
    </clipPath>
    <clipPath
       clipPathUnits="userSpaceOnUse"
       id="clipPath124">
      <path
         d="m 270.357,266.484 h 64.83 v 64.827 h -64.83 z"
         transform="translate(-307.82851,-291.9554)"
         id="path124" />
    </clipPath>
    <clipPath
       clipPathUnits="userSpaceOnUse"
       id="clipPath126">
      <path
         d="m 270.353,266.484 h 64.834 v 64.833 h -64.834 z"
         transform="translate(-301.21691,-302.64941)"
         id="path126" />
    </clipPath>
    <clipPath
       clipPathUnits="userSpaceOnUse"
       id="clipPath153">
      <path
         d="m 351.967,266.484 h 64.834 v 64.833 h -64.834 z"
         transform="translate(-386.76671,-296.0063)"
         id="path153" />
    </clipPath>
    <clipPath
       clipPathUnits="userSpaceOnUse"
       id="clipPath155">
      <path
         d="m 351.967,266.484 h 64.834 v 64.833 h -64.834 z"
         transform="translate(-378.13211,-295.2368)"
         id="path155" />
    </clipPath>
    <clipPath
       clipPathUnits="userSpaceOnUse"
       id="clipPath157">
      <path
         d="m 351.967,266.484 h 64.834 v 64.833 h -64.834 z"
         transform="translate(-369.91191,-288.41351)"
         id="path157" />
    </clipPath>
    <clipPath
       clipPathUnits="userSpaceOnUse"
       id="clipPath159">
      <path
         d="m 351.971,266.484 h 64.83 v 64.827 h -64.83 z"
         transform="translate(-410.06331,-281.46701)"
         id="path159" />
    </clipPath>
    <clipPath
       clipPathUnits="userSpaceOnUse"
       id="clipPath161">
      <path
         d="m 351.971,266.484 h 64.83 v 64.827 h -64.83 z"
         transform="translate(-364.62521,-302.19451)"
         id="path161" />
    </clipPath>
  </defs>
  <g
     inkscape:label="Layer 1"
     inkscape:groupmode="layer"
     id="layer1"
     transform="translate(-3682.4708,3417.8875)">
    <g
       id="g527"
       transform="matrix(0.26458333,0,0,0.26458333,3558.3033,-3511.0085)">
      <path
         id="path152"
         d="m 0,0 c 0,-4.751 3.865,-8.616 8.616,-8.616 4.75,0 8.615,3.865 8.615,8.616 0,4.751 -3.865,8.616 -8.615,8.616 C 3.865,8.616 0,4.751 0,0"
         style="fill:#190900;fill-opacity:1;fill-rule:nonzero;stroke:none"
         transform="matrix(1.3333333,0,0,-1.3333333,515.68893,399.02627)"
         clip-path="url(#clipPath153)" />
      <path
         id="path154"
         d="M 0,0 V 6.011 H -6.011 Z"
         style="fill:#190900;fill-opacity:1;fill-rule:nonzero;stroke:none"
         transform="matrix(1.3333333,0,0,-1.3333333,504.17613,400.05227)"
         clip-path="url(#clipPath155)" />
      <path
         id="path156"
         d="m 0,0 c -4.751,0 -8.616,-3.865 -8.616,-8.616 0,-4.75 3.865,-8.615 8.616,-8.615 4.751,0 8.616,3.865 8.616,8.615 C 8.616,-3.865 4.751,0 0,0"
         style="fill:#190900;fill-opacity:1;fill-rule:nonzero;stroke:none"
         transform="matrix(1.3333333,0,0,-1.3333333,493.21587,409.15)"
         clip-path="url(#clipPath157)" />
      <path
         id="path158"
         d="m 0,0 c -4.594,0 -9.076,-0.891 -13.321,-2.65 -4.244,-1.758 -8.044,-4.296 -11.292,-7.545 l -4.788,-4.788 H 6.737 V 0 Z"
         style="fill:#190900;fill-opacity:1;fill-rule:nonzero;stroke:none"
         transform="matrix(1.3333333,0,0,-1.3333333,546.75107,418.412)"
         clip-path="url(#clipPath159)" />
      <path
         id="path160"
         d="m 0,0 c -0.943,0.943 -1.526,2.245 -1.526,3.684 l 17.348,10e-4 c 1.279,0 2.316,-1.037 2.316,-2.316 v -12.958 l 3.991,-3.992 c 0.873,-0.907 0.863,-2.349 -0.03,-3.243 -0.894,-0.894 -2.336,-0.904 -3.243,-0.03 z m 5.287,-32.237 c -5.435,0 -9.841,4.406 -9.841,9.84 0,5.435 4.406,9.841 9.841,9.841 5.435,0 9.841,-4.406 9.841,-9.841 0,-5.434 -4.406,-9.84 -9.841,-9.84 m 5.227,49.728 c 0.733,0.733 1.746,1.187 2.865,1.187 1.135,0 2.161,-0.468 2.896,-1.22 l 6.86,-6.86 h 9.471 c 1.278,0 2.315,-1.036 2.315,-2.315 0,-1.279 -1.037,-2.316 -2.315,-2.316 L 22.18,5.985 C 21.581,5.979 20.979,6.205 20.522,6.662 L 15.834,11.35 10.417,5.933 H -1.044 Z m 8.695,5.814 c 1.582,1.582 4.148,1.582 5.73,0 1.583,-1.582 1.583,-4.148 0,-5.731 -1.582,-1.582 -4.148,-1.582 -5.73,0 -1.583,1.583 -1.583,4.149 0,5.731 M 40.598,-6.188 c 0,-5.435 -4.406,-9.841 -9.841,-9.841 -5.435,0 -9.841,4.406 -9.841,9.841 0,5.435 4.406,9.841 9.841,9.841 5.435,0 9.841,-4.406 9.841,-9.841 m -8.949,-16.057 c 4.394,1.82 9.033,2.743 13.789,2.743 h 6.737 v 48.625 h -64.833 v -64.834 h 26.962 l 5.655,5.655 c 3.363,3.363 7.296,5.991 11.69,7.811"
         style="fill:#190900;fill-opacity:1;fill-rule:nonzero;stroke:none"
         transform="matrix(1.3333333,0,0,-1.3333333,486.16693,390.77533)"
         clip-path="url(#clipPath161)" />
    </g>
  </g>
</svg>
