<?xml version="1.0" encoding="UTF-8" standalone="no"?>
<!-- Created with Inkscape (http://www.inkscape.org/) -->

<svg
   width="22.87023mm"
   height="22.869526mm"
   viewBox="0 0 22.870229 22.869524"
   version="1.1"
   id="svg1"
   inkscape:version="1.4 (e7c3feb1, 2024-10-09)"
   sodipodi:docname="SWM.svg"
   xmlns:inkscape="http://www.inkscape.org/namespaces/inkscape"
   xmlns:sodipodi="http://sodipodi.sourceforge.net/DTD/sodipodi-0.dtd"
   xmlns="http://www.w3.org/2000/svg"
   xmlns:svg="http://www.w3.org/2000/svg">
  <sodipodi:namedview
     id="namedview1"
     pagecolor="#ffffff"
     bordercolor="#000000"
     borderopacity="0.25"
     inkscape:showpageshadow="2"
     inkscape:pageopacity="0.0"
     inkscape:pagecheckerboard="0"
     inkscape:deskcolor="#d1d1d1"
     inkscape:document-units="mm"
     inkscape:zoom="2.7989408"
     inkscape:cx="43.409279"
     inkscape:cy="42.694723"
     inkscape:window-width="1440"
     inkscape:window-height="872"
     inkscape:window-x="0"
     inkscape:window-y="28"
     inkscape:window-maximized="0"
     inkscape:current-layer="layer1" />
  <defs
     id="defs1">
    <clipPath
       clipPathUnits="userSpaceOnUse"
       id="clipPath66">
      <path
         d="m 107.125,266.484 h 64.834 v 64.833 h -64.834 z"
         transform="translate(-170.7181,-300.65661)"
         id="path66" />
    </clipPath>
    <clipPath
       clipPathUnits="userSpaceOnUse"
       id="clipPath68">
      <path
         d="m 107.13,266.484 h 64.83 v 64.827 h -64.83 z"
         transform="translate(-122.74491,-298.74401)"
         id="path68" />
    </clipPath>
    <clipPath
       clipPathUnits="userSpaceOnUse"
       id="clipPath70">
      <path
         d="m 107.13,266.484 h 64.83 v 64.827 h -64.83 z"
         transform="translate(-133.3953,-284.34611)"
         id="path70" />
    </clipPath>
    <clipPath
       clipPathUnits="userSpaceOnUse"
       id="clipPath72">
      <path
         d="m 107.125,266.484 h 64.834 v 64.833 h -64.834 z"
         transform="translate(-156.9679,-291.6002)"
         id="path72" />
    </clipPath>
    <clipPath
       clipPathUnits="userSpaceOnUse"
       id="clipPath74">
      <path
         d="m 107.13,266.484 h 64.83 v 64.827 h -64.83 z"
         transform="translate(-134.079,-285.39071)"
         id="path74" />
    </clipPath>
    <clipPath
       clipPathUnits="userSpaceOnUse"
       id="clipPath76">
      <path
         d="m 107.13,266.484 h 64.83 v 64.827 h -64.83 z"
         transform="translate(-159.41481,-308.21091)"
         id="path76" />
    </clipPath>
    <clipPath
       clipPathUnits="userSpaceOnUse"
       id="clipPath97">
      <path
         d="m 188.739,266.484 h 64.833 v 64.833 h -64.833 z"
         transform="translate(-228.40251,-307.92571)"
         id="path97" />
    </clipPath>
    <clipPath
       clipPathUnits="userSpaceOnUse"
       id="clipPath99">
      <path
         d="m 188.743,266.484 h 64.829 v 64.827 h -64.829 z"
         transform="translate(-247.78411,-326.61891)"
         id="path99" />
    </clipPath>
    <clipPath
       clipPathUnits="userSpaceOnUse"
       id="clipPath101">
      <path
         d="m 188.743,266.484 h 64.829 v 64.827 h -64.829 z"
         transform="translate(-247.78411,-323.21321)"
         id="path101" />
    </clipPath>
    <clipPath
       clipPathUnits="userSpaceOnUse"
       id="clipPath120">
      <path
         d="m 270.353,266.484 h 64.834 v 64.833 h -64.834 z"
         transform="translate(-299.87551,-288.41351)"
         id="path120" />
    </clipPath>
    <clipPath
       clipPathUnits="userSpaceOnUse"
       id="clipPath122">
      <path
         d="m 270.357,266.484 h 64.83 v 64.827 h -64.83 z"
         transform="translate(-287.13241,-296.58521)"
         id="path122" />
    </clipPath>
    <clipPath
       clipPathUnits="userSpaceOnUse"
       id="clipPath124">
      <path
         d="m 270.357,266.484 h 64.83 v 64.827 h -64.83 z"
         transform="translate(-307.82851,-291.9554)"
         id="path124" />
    </clipPath>
    <clipPath
       clipPathUnits="userSpaceOnUse"
       id="clipPath126">
      <path
         d="m 270.353,266.484 h 64.834 v 64.833 h -64.834 z"
         transform="translate(-301.21691,-302.64941)"
         id="path126" />
    </clipPath>
    <clipPath
       clipPathUnits="userSpaceOnUse"
       id="clipPath153">
      <path
         d="m 351.967,266.484 h 64.834 v 64.833 h -64.834 z"
         transform="translate(-386.76671,-296.0063)"
         id="path153" />
    </clipPath>
    <clipPath
       clipPathUnits="userSpaceOnUse"
       id="clipPath155">
      <path
         d="m 351.967,266.484 h 64.834 v 64.833 h -64.834 z"
         transform="translate(-378.13211,-295.2368)"
         id="path155" />
    </clipPath>
    <clipPath
       clipPathUnits="userSpaceOnUse"
       id="clipPath157">
      <path
         d="m 351.967,266.484 h 64.834 v 64.833 h -64.834 z"
         transform="translate(-369.91191,-288.41351)"
         id="path157" />
    </clipPath>
    <clipPath
       clipPathUnits="userSpaceOnUse"
       id="clipPath159">
      <path
         d="m 351.971,266.484 h 64.83 v 64.827 h -64.83 z"
         transform="translate(-410.06331,-281.46701)"
         id="path159" />
    </clipPath>
    <clipPath
       clipPathUnits="userSpaceOnUse"
       id="clipPath161">
      <path
         d="m 351.971,266.484 h 64.83 v 64.827 h -64.83 z"
         transform="translate(-364.62521,-302.19451)"
         id="path161" />
    </clipPath>
    <clipPath
       clipPathUnits="userSpaceOnUse"
       id="clipPath183">
      <path
         d="m 433.585,266.484 h 64.829 v 64.827 h -64.829 z"
         transform="translate(-447.47361,-318.51471)"
         id="path183" />
    </clipPath>
    <clipPath
       clipPathUnits="userSpaceOnUse"
       id="clipPath185">
      <path
         d="m 433.585,266.484 h 64.829 v 64.827 h -64.829 z"
         transform="translate(-447.30121,-283.25371)"
         id="path185" />
    </clipPath>
    <clipPath
       clipPathUnits="userSpaceOnUse"
       id="clipPath187">
      <path
         d="m 433.58,266.484 h 64.833 v 64.833 H 433.58 Z"
         transform="translate(-479.89031,-296.50231)"
         id="path187" />
    </clipPath>
    <clipPath
       clipPathUnits="userSpaceOnUse"
       id="clipPath189">
      <path
         d="m 433.585,266.484 h 64.829 v 64.827 h -64.829 z"
         transform="translate(-465.83701,-301.62171)"
         id="path189" />
    </clipPath>
    <clipPath
       clipPathUnits="userSpaceOnUse"
       id="clipPath191">
      <path
         d="m 433.585,266.484 h 64.829 v 64.827 h -64.829 z"
         transform="translate(-489.73111,-317.42451)"
         id="path191" />
    </clipPath>
    <clipPath
       clipPathUnits="userSpaceOnUse"
       id="clipPath215">
      <path
         d="m 515.194,266.484 h 64.833 v 64.833 h -64.833 z"
         transform="translate(-559.18861,-299.99081)"
         id="path215" />
    </clipPath>
    <clipPath
       clipPathUnits="userSpaceOnUse"
       id="clipPath217">
      <path
         d="m 515.199,266.484 h 64.829 v 64.827 h -64.829 z"
         transform="translate(-536.03392,-293.49221)"
         id="path217" />
    </clipPath>
    <clipPath
       clipPathUnits="userSpaceOnUse"
       id="clipPath219">
      <path
         d="m 515.199,266.484 h 64.829 v 64.827 h -64.829 z"
         transform="translate(-559.18861,-273.4304)"
         id="path219" />
    </clipPath>
    <clipPath
       clipPathUnits="userSpaceOnUse"
       id="clipPath263">
      <path
         d="m 596.812,266.484 h 64.829 v 64.827 h -64.829 z"
         transform="translate(-640.80242,-273.4304)"
         id="path263" />
    </clipPath>
    <clipPath
       clipPathUnits="userSpaceOnUse"
       id="clipPath265">
      <path
         d="m 596.808,266.484 h 64.833 v 64.833 h -64.833 z"
         transform="translate(-640.80242,-299.99081)"
         id="path265" />
    </clipPath>
    <clipPath
       clipPathUnits="userSpaceOnUse"
       id="clipPath304">
      <path
         d="m 678.426,266.484 h 64.829 v 64.827 h -64.829 z"
         transform="translate(-722.38652,-295.45711)"
         id="path304" />
    </clipPath>
    <clipPath
       clipPathUnits="userSpaceOnUse"
       id="clipPath335">
      <path
         d="m 760.04,266.484 h 64.829 v 64.827 H 760.04 Z"
         transform="translate(-794.74629,-317.44881)"
         id="path335" />
    </clipPath>
    <clipPath
       clipPathUnits="userSpaceOnUse"
       id="clipPath338">
      <path
         d="m 760.04,166.217 h 64.829 v 64.827 H 760.04 Z"
         transform="translate(-791.29479,-170.8486)"
         id="path338" />
    </clipPath>
    <clipPath
       clipPathUnits="userSpaceOnUse"
       id="clipPath307">
      <path
         d="m 678.426,166.217 h 64.829 v 64.827 h -64.829 z"
         transform="translate(-720.65752,-217.73701)"
         id="path307" />
    </clipPath>
    <clipPath
       clipPathUnits="userSpaceOnUse"
       id="clipPath268">
      <path
         d="m 596.812,166.217 h 64.829 v 64.827 h -64.829 z"
         transform="translate(-645.43331,-212.88301)"
         id="path268" />
    </clipPath>
    <clipPath
       clipPathUnits="userSpaceOnUse"
       id="clipPath222">
      <path
         d="m 515.199,166.217 h 64.829 v 64.827 h -64.829 z"
         transform="translate(-540.08591,-180.0382)"
         id="path222" />
    </clipPath>
    <clipPath
       clipPathUnits="userSpaceOnUse"
       id="clipPath224">
      <path
         d="m 515.199,166.217 h 64.829 v 64.827 h -64.829 z"
         transform="translate(-519.35711,-177.1142)"
         id="path224" />
    </clipPath>
    <clipPath
       clipPathUnits="userSpaceOnUse"
       id="clipPath194">
      <path
         d="m 433.585,166.217 h 64.829 v 64.827 h -64.829 z"
         transform="translate(-460.20881,-180.043)"
         id="path194" />
    </clipPath>
    <clipPath
       clipPathUnits="userSpaceOnUse"
       id="clipPath196">
      <path
         d="m 433.585,166.217 h 64.829 v 64.827 h -64.829 z"
         transform="translate(-492.65831,-209.05781)"
         id="path196" />
    </clipPath>
    <clipPath
       clipPathUnits="userSpaceOnUse"
       id="clipPath165">
      <path
         d="m 351.971,166.217 h 64.83 v 64.827 h -64.83 z"
         transform="translate(-400.10161,-199.27231)"
         id="path165" />
    </clipPath>
    <clipPath
       clipPathUnits="userSpaceOnUse"
       id="clipPath167">
      <path
         d="m 351.971,166.217 h 64.83 v 64.827 h -64.83 z"
         transform="translate(-383.75371,-182.5082)"
         id="path167" />
    </clipPath>
    <clipPath
       clipPathUnits="userSpaceOnUse"
       id="clipPath129">
      <path
         d="m 270.357,166.217 h 64.83 v 64.827 h -64.83 z"
         transform="translate(-328.25781,-203.60221)"
         id="path129" />
    </clipPath>
    <clipPath
       clipPathUnits="userSpaceOnUse"
       id="clipPath105">
      <path
         d="m 188.743,166.217 h 64.829 v 64.827 h -64.829 z"
         transform="translate(-223.44981,-217.18241)"
         id="path105" />
    </clipPath>
    <clipPath
       clipPathUnits="userSpaceOnUse"
       id="clipPath79">
      <path
         d="m 107.13,166.217 h 64.83 v 64.827 h -64.83 z"
         transform="translate(-141.83601,-217.18241)"
         id="path79" />
    </clipPath>
    <clipPath
       clipPathUnits="userSpaceOnUse"
       id="clipPath47">
      <path
         d="m 25.516,166.217 h 64.83 v 64.827 h -64.83 z"
         transform="translate(-85.748005,-198.6343)"
         id="path47" />
    </clipPath>
    <clipPath
       clipPathUnits="userSpaceOnUse"
       id="clipPath50">
      <path
         d="m 25.516,65.951 h 64.83 v 64.827 h -64.83 z"
         transform="translate(-84.589405,-107.6362)"
         id="path50" />
    </clipPath>
    <clipPath
       clipPathUnits="userSpaceOnUse"
       id="clipPath52">
      <path
         d="m 25.511,65.951 h 64.834 v 64.833 H 25.511 Z"
         transform="translate(-46.930001,-119.27461)"
         id="path52" />
    </clipPath>
    <clipPath
       clipPathUnits="userSpaceOnUse"
       id="clipPath83">
      <path
         d="m 107.13,65.951 h 64.83 v 64.827 h -64.83 z"
         transform="translate(-166.2082,-76.054804)"
         id="path83" />
    </clipPath>
    <clipPath
       clipPathUnits="userSpaceOnUse"
       id="clipPath108">
      <path
         d="m 188.743,65.951 h 64.829 v 64.827 h -64.829 z"
         transform="translate(-247.822,-76.054804)"
         id="path108" />
    </clipPath>
    <clipPath
       clipPathUnits="userSpaceOnUse"
       id="clipPath132">
      <path
         d="m 270.353,65.951 h 64.834 v 64.833 h -64.834 z"
         transform="translate(-330.85161,-94.000805)"
         id="path132" />
    </clipPath>
    <clipPath
       clipPathUnits="userSpaceOnUse"
       id="clipPath134">
      <path
         d="m 270.353,65.951 h 64.834 v 64.833 h -64.834 z"
         transform="translate(-319.48901,-126.0751)"
         id="path134" />
    </clipPath>
    <clipPath
       clipPathUnits="userSpaceOnUse"
       id="clipPath136">
      <path
         d="m 270.353,65.951 h 64.834 v 64.833 h -64.834 z"
         transform="translate(-287.73531,-121.577)"
         id="path136" />
    </clipPath>
    <clipPath
       clipPathUnits="userSpaceOnUse"
       id="clipPath138">
      <path
         d="m 270.353,65.951 h 64.834 v 64.833 h -64.834 z"
         transform="translate(-287.73531,-124.9891)"
         id="path138" />
    </clipPath>
    <clipPath
       clipPathUnits="userSpaceOnUse"
       id="clipPath170">
      <path
         d="m 351.971,65.951 h 64.83 v 64.827 h -64.83 z"
         transform="translate(-391.39871,-93.230502)"
         id="path170" />
    </clipPath>
    <clipPath
       clipPathUnits="userSpaceOnUse"
       id="clipPath199">
      <path
         d="m 433.585,65.951 h 64.829 v 64.827 h -64.829 z"
         transform="translate(-485.70341,-108.9122)"
         id="path199" />
    </clipPath>
    <clipPath
       clipPathUnits="userSpaceOnUse"
       id="clipPath227">
      <path
         d="m 515.194,65.951 h 64.833 v 64.833 h -64.833 z"
         transform="translate(-527.73721,-119.957)"
         id="path227" />
    </clipPath>
    <clipPath
       clipPathUnits="userSpaceOnUse"
       id="clipPath229">
      <path
         d="m 515.194,65.951 h 64.833 v 64.833 h -64.833 z"
         transform="translate(-548.95792,-97.887605)"
         id="path229" />
    </clipPath>
    <clipPath
       clipPathUnits="userSpaceOnUse"
       id="clipPath231">
      <path
         d="m 515.199,65.951 h 64.829 v 64.827 h -64.829 z"
         transform="translate(-541.59011,-105.25531)"
         id="path231" />
    </clipPath>
    <clipPath
       clipPathUnits="userSpaceOnUse"
       id="clipPath233">
      <path
         d="m 515.199,65.951 h 64.829 v 64.827 h -64.829 z"
         transform="translate(-574.23931,-122.6725)"
         id="path233" />
    </clipPath>
    <clipPath
       clipPathUnits="userSpaceOnUse"
       id="clipPath235">
      <path
         d="m 515.194,65.951 h 64.833 v 64.833 h -64.833 z"
         transform="translate(-574.23931,-126.0782)"
         id="path235" />
    </clipPath>
    <clipPath
       clipPathUnits="userSpaceOnUse"
       id="clipPath272">
      <path
         d="m 596.812,65.951 h 64.829 v 64.827 h -64.829 z"
         transform="translate(-629.61832,-99.3236)"
         id="path272" />
    </clipPath>
    <clipPath
       clipPathUnits="userSpaceOnUse"
       id="clipPath274">
      <path
         d="m 596.812,65.951 h 64.829 v 64.827 h -64.829 z"
         transform="translate(-640.77892,-109.13551)"
         id="path274" />
    </clipPath>
    <clipPath
       clipPathUnits="userSpaceOnUse"
       id="clipPath276">
      <path
         d="m 596.812,65.951 h 64.829 v 64.827 h -64.829 z"
         transform="translate(-658.04402,-81.115805)"
         id="path276" />
    </clipPath>
    <clipPath
       clipPathUnits="userSpaceOnUse"
       id="clipPath278">
      <path
         d="m 596.812,65.951 h 64.829 v 64.827 h -64.829 z"
         transform="translate(-603.29201,-83.384705)"
         id="path278" />
    </clipPath>
    <clipPath
       clipPathUnits="userSpaceOnUse"
       id="clipPath311">
      <path
         d="m 678.426,65.951 h 64.829 v 64.827 h -64.829 z"
         transform="translate(-706.98242,-111.9458)"
         id="path311" />
    </clipPath>
    <clipPath
       clipPathUnits="userSpaceOnUse"
       id="clipPath313">
      <path
         d="m 678.426,65.951 h 64.829 v 64.827 h -64.829 z"
         transform="translate(-740.94002,-87.777102)"
         id="path313" />
    </clipPath>
    <clipPath
       clipPathUnits="userSpaceOnUse"
       id="clipPath343">
      <path
         d="m 760.04,65.951 h 64.829 v 64.827 H 760.04 Z"
         transform="translate(-792.17724,-87.656105)"
         id="path343" />
    </clipPath>
    <clipPath
       clipPathUnits="userSpaceOnUse"
       id="clipPath345">
      <path
         d="m 760.04,65.951 h 64.829 v 64.827 H 760.04 Z"
         transform="translate(-821.39612,-120.87481)"
         id="path345" />
    </clipPath>
    <clipPath
       clipPathUnits="userSpaceOnUse"
       id="clipPath376">
      <path
         d="m 25.516,467.017 h 64.83 v 64.827 h -64.83 z"
         transform="translate(-83.398802,-470.49011)"
         id="path376" />
    </clipPath>
    <clipPath
       clipPathUnits="userSpaceOnUse"
       id="clipPath378">
      <path
         d="M 25.511,467.017 H 90.345 V 531.85 H 25.511 Z"
         transform="translate(-83.398802,-473.89591)"
         id="path378" />
    </clipPath>
    <clipPath
       clipPathUnits="userSpaceOnUse"
       id="clipPath380">
      <path
         d="M 25.511,467.017 H 90.345 V 531.85 H 25.511 Z"
         id="path380" />
    </clipPath>
    <clipPath
       clipPathUnits="userSpaceOnUse"
       id="clipPath395">
      <path
         d="m 107.13,467.017 h 64.83 v 64.827 h -64.83 z"
         transform="translate(-161.53943,-492.42351)"
         id="path395" />
    </clipPath>
    <clipPath
       clipPathUnits="userSpaceOnUse"
       id="clipPath397">
      <path
         d="m 107.13,467.017 h 64.83 v 64.827 h -64.83 z"
         transform="translate(-144.44693,-481.47331)"
         id="path397" />
    </clipPath>
    <clipPath
       clipPathUnits="userSpaceOnUse"
       id="clipPath400">
      <path
         d="m 107.125,467.017 h 64.834 v 64.833 h -64.834 z"
         transform="translate(-158.9373,-524.25751)"
         id="path400" />
    </clipPath>
    <clipPath
       clipPathUnits="userSpaceOnUse"
       id="clipPath402">
      <path
         d="m 107.125,467.017 h 64.834 v 64.833 h -64.834 z"
         transform="translate(-133.82858,-497.13341)"
         id="path402" />
    </clipPath>
    <clipPath
       clipPathUnits="userSpaceOnUse"
       id="clipPath427">
      <path
         d="m 188.743,467.017 h 64.829 v 64.827 h -64.829 z"
         transform="translate(-237.61118,-513.33161)"
         id="path427" />
    </clipPath>
    <clipPath
       clipPathUnits="userSpaceOnUse"
       id="clipPath448">
      <path
         d="m 270.357,467.017 h 64.83 v 64.827 h -64.83 z"
         transform="translate(-324.76688,-476.21131)"
         id="path448" />
    </clipPath>
    <clipPath
       clipPathUnits="userSpaceOnUse"
       id="clipPath450">
      <path
         d="m 270.357,467.017 h 64.83 v 64.827 h -64.83 z"
         transform="translate(-324.76688,-472.80561)"
         id="path450" />
    </clipPath>
    <clipPath
       clipPathUnits="userSpaceOnUse"
       id="clipPath464">
      <path
         d="m 351.967,467.017 h 64.834 v 64.833 h -64.834 z"
         transform="translate(-415.35669,-501.17031)"
         id="path464" />
    </clipPath>
    <clipPath
       clipPathUnits="userSpaceOnUse"
       id="clipPath466">
      <path
         d="m 351.967,467.017 h 64.834 v 64.833 h -64.834 z"
         transform="translate(-370.80721,-499.25781)"
         id="path466" />
    </clipPath>
    <clipPath
       clipPathUnits="userSpaceOnUse"
       id="clipPath468">
      <path
         d="m 351.967,467.017 h 64.834 v 64.833 h -64.834 z"
         transform="translate(-369.09518,-494.42411)"
         id="path468" />
    </clipPath>
    <clipPath
       clipPathUnits="userSpaceOnUse"
       id="clipPath470">
      <path
         d="m 351.971,467.017 h 64.83 v 64.827 h -64.83 z"
         transform="translate(-364.93441,-482.06871)"
         id="path470" />
    </clipPath>
    <clipPath
       clipPathUnits="userSpaceOnUse"
       id="clipPath472">
      <path
         d="m 351.971,467.017 h 64.83 v 64.827 h -64.83 z"
         transform="translate(-366.45593,-515.64201)"
         id="path472" />
    </clipPath>
    <clipPath
       clipPathUnits="userSpaceOnUse"
       id="clipPath474">
      <path
         d="m 351.971,467.017 h 64.83 v 64.827 h -64.83 z"
         transform="translate(-413.20269,-482.11531)"
         id="path474" />
    </clipPath>
    <clipPath
       clipPathUnits="userSpaceOnUse"
       id="clipPath476">
      <path
         d="m 351.967,467.017 h 64.834 v 64.833 h -64.834 z"
         transform="translate(-403.83399,-482.06871)"
         id="path476" />
    </clipPath>
    <clipPath
       clipPathUnits="userSpaceOnUse"
       id="clipPath486">
      <path
         d="m 433.585,467.017 h 64.829 v 64.827 h -64.829 z"
         transform="translate(-491.14524,-504.81711)"
         id="path486" />
    </clipPath>
    <clipPath
       clipPathUnits="userSpaceOnUse"
       id="clipPath488">
      <path
         d="m 433.585,467.017 h 64.829 v 64.827 h -64.829 z"
         transform="translate(-491.88174,-493.54821)"
         id="path488" />
    </clipPath>
    <clipPath
       clipPathUnits="userSpaceOnUse"
       id="clipPath500">
      <path
         d="m 515.199,467.017 h 64.829 v 64.827 h -64.829 z"
         transform="translate(-572.75889,-504.81711)"
         id="path500" />
    </clipPath>
    <clipPath
       clipPathUnits="userSpaceOnUse"
       id="clipPath502">
      <path
         d="m 515.199,467.017 h 64.829 v 64.827 h -64.829 z"
         transform="translate(-573.49554,-493.54821)"
         id="path502" />
    </clipPath>
    <clipPath
       clipPathUnits="userSpaceOnUse"
       id="clipPath510">
      <path
         d="m 596.812,467.017 h 64.829 v 64.827 h -64.829 z"
         transform="translate(-642.72812,-479.72511)"
         id="path510" />
    </clipPath>
    <clipPath
       clipPathUnits="userSpaceOnUse"
       id="clipPath512">
      <path
         d="m 596.812,467.017 h 64.829 v 64.827 h -64.829 z"
         id="path512" />
    </clipPath>
    <clipPath
       clipPathUnits="userSpaceOnUse"
       id="clipPath514">
      <path
         d="m 596.812,467.017 h 64.829 v 64.827 h -64.829 z"
         transform="translate(-600.28164,-503.48571)"
         id="path514" />
    </clipPath>
    <clipPath
       clipPathUnits="userSpaceOnUse"
       id="clipPath525">
      <path
         d="m 678.426,467.017 h 64.829 v 64.827 h -64.829 z"
         transform="translate(-729.36264,-517.88981)"
         id="path525" />
    </clipPath>
    <clipPath
       clipPathUnits="userSpaceOnUse"
       id="clipPath533">
      <path
         d="m 760.04,467.017 h 64.829 v 64.827 H 760.04 Z"
         transform="translate(-810.96092,-505.90052)"
         id="path533" />
    </clipPath>
    <clipPath
       clipPathUnits="userSpaceOnUse"
       id="clipPath536">
      <path
         d="m 760.04,366.751 h 64.829 v 64.827 H 760.04 Z"
         transform="translate(-814.48652,-372.08121)"
         id="path536" />
    </clipPath>
    <clipPath
       clipPathUnits="userSpaceOnUse"
       id="clipPath538">
      <path
         d="m 760.036,366.751 h 64.833 v 64.833 h -64.833 z"
         transform="translate(-791.41142,-422.20551)"
         id="path538" />
    </clipPath>
    <clipPath
       clipPathUnits="userSpaceOnUse"
       id="clipPath528">
      <path
         d="m 678.426,366.751 h 64.829 v 64.827 h -64.829 z"
         transform="translate(-731.87769,-374.37521)"
         id="path528" />
    </clipPath>
    <clipPath
       clipPathUnits="userSpaceOnUse"
       id="clipPath530">
      <path
         d="m 678.426,366.751 h 64.829 v 64.827 h -64.829 z"
         transform="translate(-689.70744,-419.96181)"
         id="path530" />
    </clipPath>
    <clipPath
       clipPathUnits="userSpaceOnUse"
       id="clipPath518">
      <path
         d="m 596.812,366.751 h 64.829 v 64.827 h -64.829 z"
         transform="translate(-629.23052,-379.19921)"
         id="path518" />
    </clipPath>
    <clipPath
       clipPathUnits="userSpaceOnUse"
       id="clipPath520">
      <path
         d="m 596.812,366.751 h 64.829 v 64.827 h -64.829 z"
         transform="translate(-628.31319,-409.40521)"
         id="path520" />
    </clipPath>
    <clipPath
       clipPathUnits="userSpaceOnUse"
       id="clipPath505">
      <path
         d="m 515.199,366.751 h 64.829 v 64.827 h -64.829 z"
         transform="translate(-529.08729,-418.84881)"
         id="path505" />
    </clipPath>
    <clipPath
       clipPathUnits="userSpaceOnUse"
       id="clipPath492">
      <path
         d="m 433.58,366.751 h 64.833 v 64.833 H 433.58 Z"
         transform="translate(-478.15374,-386.36851)"
         id="path492" />
    </clipPath>
    <clipPath
       clipPathUnits="userSpaceOnUse"
       id="clipPath494">
      <path
         d="m 433.585,366.751 h 64.829 v 64.827 h -64.829 z"
         transform="translate(-489.74851,-420.42191)"
         id="path494" />
    </clipPath>
    <clipPath
       clipPathUnits="userSpaceOnUse"
       id="clipPath496">
      <path
         d="m 433.585,366.751 h 64.829 v 64.827 h -64.829 z"
         transform="translate(-493.06404,-410.77711)"
         id="path496" />
    </clipPath>
    <clipPath
       clipPathUnits="userSpaceOnUse"
       id="clipPath479">
      <path
         d="m 351.971,366.751 h 64.83 v 64.827 h -64.83 z"
         transform="translate(-405.70254,-417.79171)"
         id="path479" />
    </clipPath>
    <clipPath
       clipPathUnits="userSpaceOnUse"
       id="clipPath453">
      <path
         d="m 270.353,366.751 h 64.834 v 64.833 h -64.834 z"
         transform="translate(-328.75928,-409.14611)"
         id="path453" />
    </clipPath>
    <clipPath
       clipPathUnits="userSpaceOnUse"
       id="clipPath455">
      <path
         d="m 270.357,366.751 h 64.83 v 64.827 h -64.83 z"
         transform="translate(-328.75928,-414.29881)"
         id="path455" />
    </clipPath>
    <clipPath
       clipPathUnits="userSpaceOnUse"
       id="clipPath457">
      <path
         d="m 270.357,366.751 h 64.83 v 64.827 h -64.83 z"
         transform="translate(-331.64843,-403.39771)"
         id="path457" />
    </clipPath>
    <clipPath
       clipPathUnits="userSpaceOnUse"
       id="clipPath430">
      <path
         d="m 188.743,366.751 h 64.829 v 64.827 h -64.829 z"
         transform="translate(-221.54933,-406.39261)"
         id="path430" />
    </clipPath>
    <clipPath
       clipPathUnits="userSpaceOnUse"
       id="clipPath432">
      <path
         d="m 188.743,366.751 h 64.829 v 64.827 h -64.829 z"
         transform="translate(-249.97508,-392.81571)"
         id="path432" />
    </clipPath>
  </defs>
  <g
     inkscape:label="Layer 1"
     inkscape:groupmode="layer"
     id="layer1"
     transform="translate(-3682.471,3417.8877)">
    <g
       id="g593"
       transform="matrix(0.26458333,0,0,0.26458333,3313.5949,-3475.6367)">
      <path
         id="path429"
         d="m 0,0 c 1.582,1.583 4.148,1.583 5.73,0 1.583,-1.582 1.583,-4.148 0,-5.73 C 4.148,-7.313 1.582,-7.313 0,-5.73 -1.582,-4.148 -1.582,-1.582 0,0 m -26.326,-11.308 c 1.817,0 2.763,-0.676 3.598,-1.272 0.784,-0.56 1.461,-1.044 2.885,-1.044 1.425,0 2.102,0.484 2.886,1.044 0.16,0.115 0.325,0.232 0.498,0.347 l 7.769,5.404 -3.488,3.488 -6.013,-4.183 c -1.05,-0.73 -2.493,-0.471 -3.223,0.579 -0.731,1.05 -0.472,2.493 0.578,3.223 l 7.603,5.289 c 0.936,0.65 2.182,0.515 2.96,-0.264 L 0.571,-9.541 h 17.513 c 0.593,0 1.185,-0.226 1.637,-0.678 0.905,-0.904 0.905,-2.37 0,-3.274 -0.035,-0.036 -0.072,-0.07 -0.109,-0.102 1.06,0.109 1.656,0.534 2.331,1.015 0.834,0.596 1.78,1.272 3.597,1.272 1.817,0 2.763,-0.676 3.598,-1.272 0.784,-0.56 1.461,-1.044 2.885,-1.044 V 25.191 H -32.81 v -38.815 c 1.425,0 2.102,0.484 2.886,1.044 0.834,0.596 1.781,1.272 3.598,1.272"
         style="fill:#190900;fill-opacity:1;fill-rule:nonzero;stroke:none"
         transform="matrix(1.3333333,0,0,-1.3333333,1437.9191,251.84453)"
         clip-path="url(#clipPath430)" />
      <path
         id="path431"
         d="M 0,0 C -0.784,0.56 -1.461,1.044 -2.885,1.044 -4.31,1.044 -4.987,0.56 -5.771,0 c -0.835,-0.596 -1.781,-1.272 -3.598,-1.272 -1.817,0 -2.763,0.676 -3.597,1.272 -0.784,0.56 -1.461,1.044 -2.886,1.044 -1.424,0 -2.101,-0.484 -2.885,-1.044 -0.835,-0.596 -1.781,-1.272 -3.598,-1.272 -1.817,0 -2.763,0.676 -3.598,1.272 -0.784,0.56 -1.461,1.044 -2.885,1.044 -1.425,0 -2.102,-0.484 -2.886,-1.044 -0.835,-0.596 -1.78,-1.272 -3.598,-1.272 -1.817,0 -2.763,0.676 -3.597,1.272 -0.784,0.56 -1.461,1.044 -2.886,1.044 -1.424,0 -2.101,-0.484 -2.886,-1.044 -0.834,-0.596 -1.78,-1.272 -3.597,-1.272 -1.818,0 -2.764,0.676 -3.598,1.272 -0.784,0.56 -1.461,1.044 -2.886,1.044 -1.425,0 -2.102,-0.484 -2.886,-1.044 -0.834,-0.596 -1.78,-1.272 -3.598,-1.272 V -26.065 H 3.598 V -1.272 C 1.781,-1.272 0.835,-0.596 0,0"
         style="fill:#190900;fill-opacity:1;fill-rule:nonzero;stroke:none"
         transform="matrix(1.3333333,0,0,-1.3333333,1475.8201,269.94707)"
         clip-path="url(#clipPath432)" />
    </g>
  </g>
</svg>
