<?xml version="1.0" encoding="UTF-8"?>
<!-- Created with Inkscape (http://www.inkscape.org/) -->
<svg width="148.93" height="201.37" version="1.1" viewBox="0 0 148.93 201.37" xmlns="http://www.w3.org/2000/svg" xmlns:cc="http://creativecommons.org/ns#" xmlns:dc="http://purl.org/dc/elements/1.1/" xmlns:rdf="http://www.w3.org/1999/02/22-rdf-syntax-ns#">
 <metadata>
  <rdf:RDF>
   <cc:Work rdf:about="">
    <dc:format>image/svg+xml</dc:format>
    <dc:type rdf:resource="http://purl.org/dc/dcmitype/StillImage"/>
    <dc:title/>
   </cc:Work>
  </rdf:RDF>
 </metadata>
 <path d="m148.93 24.395c-38.51 15.983-79.276 37.591-108.65 66.043-0.37499 0.2816-0.56796 0.7695-0.59375 1.4121s0.11523 1.4389 0.4043 2.3359c0.28907 0.89706 0.72728 1.8945 1.2969 2.9395s1.2702 2.1383 2.0859 3.2246 1.669 2.064 2.5137 2.9023 1.682 1.5368 2.4629 2.0645c0.7809 0.52771 1.5065 0.88466 2.1309 1.0391 0.62432 0.15439 1.1465 0.10582 1.5215-0.17578 25.491-16.164 56.921-28.686 88.916-35.564zm-120.47 78.619c-14.425 16.974-24.701 36.133-28.457 57.688 7.2416-16.669 21.268-32.279 39.502-45.869z" fill="#004d9a" fill-rule="evenodd"/>
 <path d="m26.451 98.216c-9.0364 11.351-16.798 23.526-23.455 36.808 3.1917-15.252 9.4903-29.849 17.543-43.46zm78.4-65.048 5.3496-33.168c-13.319 9.4711-52.786 38.387-80.5 77.477l0.0059 0.0078c-0.0085 8e-3 -0.01903 0.01327-0.02734 0.02148-1.0788 1.066-0.20289 3.7049 1.9551 5.8887 2.158 2.1838 4.7845 3.0914 5.8642 2.0244 17.881-19.147 40.01-36.031 67.353-52.251z" fill="#00936b" fill-rule="evenodd"/>
 <g stroke="#000" stroke-width=".4147">
  <path d="m33.967 149.33-0.39759 4.2646h-2.1558l1.0799-11.583q2.1639-0.087 2.5287-0.087 2.8771 0 4.1249 0.84659 1.2567 0.83867 1.09 2.6268-0.37177 3.9877-5.2969 3.9877-0.36483 0-0.97323-0.0554zm0.51635-5.5385-0.34596 3.7108q0.54207 0.0554 0.85715 0.0554 1.4759 0 2.1993-0.46681 0.72416-0.47472 0.82301-1.5349 0.16818-1.804-2.8748-1.804-0.33995 0-0.65872 0.0396z"/>
  <path d="m49.527 153.6-0.66811-2.3499h-4.1623l-1.0648 2.3499h-2.3962l5.9376-11.749h0.94523l3.7883 11.749zm-2.2117-8.2048-1.8584 4.2804h2.9186z"/>
  <path d="m62.334 153.6-2.7957-4.7868q-0.48847-8e-3 -1.3629-0.0554l-0.45144 4.8422h-2.2387l1.0807-11.591q0.18241 0 1.4064-0.0554 1.2248-0.0633 1.971-0.0633 4.6267 0 4.308 3.418-0.09589 1.0286-0.81327 1.8752-0.71737 0.84659-1.7199 1.1947l3.1034 5.222zm-3.6961-9.8031-0.30022 3.2202q0.59256 0.0475 0.90764 0.0475 1.3515 0 2.0073-0.36396 0.66409-0.36395 0.76219-1.4163 0.07967-0.8545-0.56023-1.1947-0.63989-0.34022-2.0826-0.34022-0.34824 0-0.73408 0.0475z"/>
  <path d="m75.257 153.6-0.66811-2.3499h-4.1623l-1.0648 2.3499h-2.3962l5.9376-11.749h0.94523l3.7883 11.749zm-2.2117-8.2048-1.8584 4.2804h2.9186z"/>
  <path d="m81.215 153.6 1.0807-11.591h2.1558l-0.91026 9.7635h5.489l-0.1704 1.8277z"/>
  <path d="m97.136 148.84-0.44332 4.7552h-2.1558l0.44332-4.7552-3.4587-6.836h2.2885l2.4161 4.945 3.3465-4.945h2.2802z"/>
  <path d="m115.68 153.61h-2.0894l-0.67757-6.2505-3.0428 6.4009h-0.77111l-1.8492-6.4009-1.8928 6.2505h-2.0812l3.5274-11.599h1.1442l1.9003 7.8092 3.2984-7.8092h1.1359z"/>
  <path d="m121.88 149.33-0.3976 4.2646h-2.1558l1.0799-11.583q2.1639-0.087 2.5287-0.087 2.8772 0 4.1249 0.84659 1.2567 0.83867 1.09 2.6268-0.37177 3.9877-5.2969 3.9877-0.36482 0-0.97323-0.0554zm0.51635-5.5385-0.34596 3.7108q0.54209 0.0554 0.85716 0.0554 1.4759 0 2.1993-0.46681 0.72416-0.47472 0.823-1.5349 0.16819-1.804-2.8748-1.804-0.33995 0-0.65872 0.0396z"/>
  <path d="m131.66 153.6 1.0806-11.591h2.1558l-1.0806 11.591z"/>
  <path d="m148.01 142.62-1.0458 1.7011q-0.65719-0.68835-2.2574-0.68835-1.5173 0-2.601 1.2185-1.083 1.2106-1.2563 3.0699-0.17335 1.8593 0.62034 2.9512 0.80197 1.0919 2.3027 1.0919 1.7163 0 2.7956-1.171l0.84837 1.6615q-1.443 1.3371-3.9885 1.3371t-3.806-1.5982q-1.2606-1.5982-1.0031-4.3596 0.23974-2.5714 1.9594-4.2962 1.7286-1.7328 4.1663-1.7328 2.0894 0 3.2655 0.81495z"/>
 </g>
 <path d="m124.69 200.8 0.36722-2.9056h-1.1942l0.064-0.5066h3.0126l-0.064 0.5066h-1.2032l-0.36722 2.9056zm2.23 0 0.43125-3.4122h0.90467l0.58733 2.7256 1.2446-2.7256h0.88659l-0.43126 3.4122h-0.5609l0.36195-2.8637-1.3118 2.8637h-0.55637l-0.62339-2.9056-0.36722 2.9056z"/>
 <path d="m134.89 196.82q0.68575 0 1.339 0.29538 0.65325 0.29237 1.0178 0.84093 0.36452 0.54556 0.36452 1.1393 0 0.58774-0.36091 1.1303-0.3573 0.54254-1.0069 0.84395-0.64604 0.29839-1.3534 0.29839-0.70738 0-1.357-0.29839-0.64603-0.30141-1.0069-0.84395t-0.36091-1.1303q0-0.59378 0.36452-1.1393 0.36814-0.54856 1.0214-0.84093 0.65325-0.29538 1.339-0.29538zm0 0.37676q-0.57384 0-1.1188 0.24716-0.54137 0.24414-0.84815 0.70229-0.30678 0.45512-0.30678 0.94944 0 0.4913 0.29957 0.94341 0.30317 0.44909 0.84453 0.70228 0.54137 0.25018 1.1296 0.25018 0.58829 0 1.1297-0.25018 0.54136-0.25319 0.84092-0.70228 0.29955-0.45211 0.29955-0.94341 0-0.49432-0.30677-0.94944-0.30316-0.45815-0.84815-0.70229-0.54497-0.24716-1.1152-0.24716zm0.87341 2.2666 0.44392 0.1085q-0.10822 0.37676-0.46196 0.60282-0.35009 0.22305-0.85176 0.22305-0.6352 0-1.0322-0.34361t-0.397-0.95246q0-0.39786 0.18045-0.69023 0.18046-0.29538 0.51249-0.44307 0.33565-0.15071 0.76514-0.15071 0.48001 0 0.79761 0.19291 0.31761 0.18988 0.4331 0.51842l-0.42949 0.0874q-0.10822-0.22305-0.32121-0.3406-0.20933-0.12056-0.49445-0.12056-0.41505 0-0.68573 0.24716-0.26708 0.24715-0.26708 0.70831 0 0.46115 0.25264 0.69927 0.25625 0.2351 0.66047 0.2351 0.32482 0 0.57024-0.15673 0.24542-0.15674 0.32482-0.42499z"/>
 <g stroke="#000" stroke-width=".56512">
  <path d="m40.821 161.77-1.4417 2.2534q-0.47854-0.44207-1.523-0.87335-1.0435-0.44205-1.8231-0.44205-2.4406 0-4.0007 1.585-1.5591 1.5742-1.8064 4.2265-0.23522 2.523 1.0025 4.0325 1.2491 1.5095 3.6331 1.5095 1.5706 0 2.6639-0.81943l0.2895-3.1052h-2.2937l0.22316-2.3936h5.2314l-0.65942 7.073q-1.1272 0.81943-2.8314 1.283-1.6919 0.45284-3.3302 0.45284-3.5592 0-5.4424-2.2211-1.8709-2.2319-1.5302-5.887 0.34077-3.6551 2.825-5.9409 2.4842-2.2858 6.3259-2.2858 2.7231 0 4.4879 1.5526z"/>
  <path d="m55.587 176.28-0.91045-3.2022h-5.6721l-1.451 3.2022h-3.2654l8.0914-16.011h1.2881l5.1624 16.011zm-3.014-11.181-2.5324 5.833h3.9773z"/>
  <path d="m79.14 176.29h-2.8474l-0.92334-8.5178-4.1464 8.7226h-1.0508l-2.52-8.7226-2.5794 8.5178h-2.8361l4.8068-15.806h1.5593l2.5897 10.642 4.4948-10.642h1.548z"/>
  <path d="m88.287 162.97-0.34479 3.6982h5.4687l-0.22215 2.3828h-5.4687l-0.44129 4.7333h7.5026l-0.2322 2.4906h-10.44l1.4726-15.796h10.565l-0.2322 2.4906z"/>
  <path d="m99.688 175.4 1.3189-2.5122q1.6315 1.1644 3.315 1.1644 2.5875 0 2.7483-1.7251 0.0754-0.80865-0.46641-1.5418-0.54179-0.73318-2.3669-1.6389-1.8128-0.91647-2.4252-1.4987-0.60006-0.59301-0.88624-1.4017-0.27488-0.80865-0.18341-1.7898 0.17089-1.8329 1.6846-3.0405 1.525-1.2076 3.7283-1.2076 2.87 0 4.119 1.0243l-1.1178 2.4152q-1.4494-1.0566-3.1669-1.0566-1.0169 0-1.6301 0.51754-0.60089 0.50675-0.67728 1.3262-0.12666 1.3585 2.8891 2.8249 1.5886 0.7763 2.2617 1.434 0.67412 0.64691 0.97687 1.5203 0.30375 0.86256 0.20423 1.93-0.17893 1.9192-1.8877 3.1591-1.6975 1.2399-4.364 1.2399-2.3163 0-4.0741-1.1429z"/>
 </g>
 <g stroke="#000" stroke-width=".36636">
  <path d="m24.574 192.46 0.90256-1.5429q1.1165 0.71515 2.2685 0.71515 1.7707 0 1.8807-1.0595 0.05159-0.49663-0.31917-0.94691-0.37076-0.45029-1.6197-1.0065-1.2405-0.56285-1.6596-0.92042-0.41063-0.3642-0.60647-0.86084-0.1881-0.49663-0.12551-1.0992 0.11694-1.1257 1.1528-1.8673 1.0436-0.74164 2.5513-0.74164 1.964 0 2.8187 0.62907l-0.76492 1.4833q-0.99189-0.64894-2.1672-0.64894-0.69589 0-1.1155 0.31785-0.4112 0.31122-0.46348 0.81448-0.08667 0.83435 1.977 1.7349 1.0871 0.47676 1.5477 0.8807 0.46132 0.3973 0.66849 0.93367 0.20786 0.52974 0.13976 1.1853-0.12244 1.1787-1.2918 1.9402-1.1616 0.7615-2.9864 0.7615-1.5851 0-2.788-0.70191z"/>
  <path d="m40.431 189.02-0.41342 3.9797h-2.0104l0.41342-3.9797-3.2253-5.7212h2.1341l2.2531 4.1386 3.1207-4.1386h2.1263z"/>
  <path d="m49.68 193h-2.5129l1.0071-9.6943q2.4123-0.0728 3.0308-0.0728 2.4743 0 3.7909 1.2449 1.325 1.2383 1.1118 3.291-0.54343 5.2312-6.4276 5.2312zm0.34832-8.1912-0.68788 6.6218q0.483 0.0397 1.0474 0.0397 1.5232 0 2.4799-0.94692 0.96437-0.94691 1.1412-2.6487 0.32331-3.1122-3.0556-3.1122-0.32475 0-0.92494 0.0464z"/>
  <path d="m66.906 193.13-4.8599-6.1384-0.6246 6.0126h-1.933l1.0084-9.7075h0.96652l4.7426 5.8537 0.60809-5.8537h1.933l-1.0215 9.8334z"/>
  <path d="m75.072 184.83-0.23594 2.2713h3.7424l-0.15202 1.4634h-3.7424l-0.30198 2.907h5.1341l-0.1589 1.5296h-7.1445l1.0078-9.7009h7.2296l-0.1589 1.5296z"/>
  <path d="m88.482 189.02-0.41342 3.9797h-2.0104l0.41342-3.9797-3.2253-5.7212h2.1341l2.2531 4.1386 3.1207-4.1386h2.1263z"/>
  <path d="m98.719 193 0.05228-0.50325 4.0575-4.5227q1.2158-1.3575 1.3121-2.2845 0.11419-1.0992-1.4245-1.0992-1.1753 0-2.0051 1.0661l-1.2582-0.9138q0.4743-0.6953 1.38-1.1522 0.91415-0.46353 1.958-0.46353 1.7397 0 2.6509 0.68206 0.91181 0.67541 0.78662 1.8806-0.11488 1.1058-1.5465 2.7547l-2.634 3.0262h4.2527l-0.1589 1.5296z"/>
  <path d="m110.06 187.85q0.20637-1.9865 1.4776-3.3572 1.279-1.3707 3.1734-1.3707 3.9511 0 3.438 4.9399-0.24007 2.311-1.4502 3.6883-1.2101 1.3773-3.1354 1.3773-2.0722 0-2.9299-1.2714-0.85763-1.2714-0.57353-4.0062zm2.0753 0.11919q-0.20155 1.9402 0.14426 2.854 0.3458 0.91381 1.3664 0.91381 1.1057 0 1.6549-0.8211 0.54992-0.82772 0.76936-2.9401 0.2043-1.9667-0.16644-2.7149-0.363-0.74827-1.3759-0.74827-2.0336 0-2.3926 3.4566z"/>
  <path d="m121.48 187.85q0.20636-1.9865 1.4776-3.3572 1.279-1.3707 3.1734-1.3707 3.9511 0 3.438 4.9399-0.24007 2.311-1.4502 3.6883-1.2101 1.3773-3.1354 1.3773-2.0722 0-2.9299-1.2714-0.85764-1.2714-0.57354-4.0062zm2.0753 0.11919q-0.20155 1.9402 0.14426 2.854 0.34581 0.91381 1.3664 0.91381 1.1057 0 1.6549-0.8211 0.54991-0.82772 0.76934-2.9401 0.20431-1.9667-0.16642-2.7149-0.363-0.74827-1.3759-0.74827-2.0336 0-2.3926 3.4566z"/>
  <path d="m132.91 187.85q0.20636-1.9865 1.4776-3.3572 1.279-1.3707 3.1734-1.3707 3.9511 0 3.438 4.9399-0.24007 2.311-1.4502 3.6883-1.2101 1.3773-3.1354 1.3773-2.0722 0-2.9298-1.2714-0.85764-1.2714-0.57354-4.0062zm2.0753 0.11919q-0.20155 1.9402 0.14425 2.854 0.3458 0.91381 1.3664 0.91381 1.1057 0 1.6549-0.8211 0.54992-0.82772 0.76935-2.9401 0.2043-1.9667-0.16643-2.7149-0.363-0.74827-1.3759-0.74827-2.0336 0-2.3926 3.4566z"/>
 </g>
 <g>
  <path d="m13.348 44.633c-2.4249-0.10342-4.5333 0.42821-6.2187 1.6621-8.9889 6.5808-2.561 30.668 14.348 53.764 16.909 23.096 37.927 36.499 46.916 29.918 4.8121-3.523 5.2007-12.064 1.9336-22.783 1.5971 7.0302 0.97074 12.445-2.293 14.834-7.32 5.359-25.119-6.4927-39.732-26.453-14.613-19.96-20.533-40.508-13.213-45.867 3.8474-2.8167 10.6-0.84513 18.254 4.5254-7.46-5.9011-14.531-9.3666-19.994-9.5996z" fill="#1a1a1a" fill-rule="evenodd"/>
  <path d="m65.453 6.3809c-2.1865 0.032549-4.3084 0.99629-5.7148 2.8203-10.892 13.411-24.443 36.375-32.117 61.754 12.879-17.905 30.399-37.576 43.438-51.414 0.3131-0.28318 0.61071-0.59025 0.87695-0.93555 2.5003-3.2427 1.7961-7.9805-1.5703-10.576-1.4728-1.1356-3.2115-1.6738-4.9121-1.6484z" fill="#e33e17" fill-rule="evenodd"/>
  <g>
   <path d="m138.74 168.83c0.68635-0.71446 2.0177-1.519 3.7435-0.66567 0.0579 0.0273 0.22327 0.12569 0.31341 0.18606 0.62432 0.41759 2.8926 2.4907 0.17531 5.9439-0.35723 0.45563-2.1814 2.7239-5.9439 2.2873-4.0428-0.46803-6.4045-4.2777-5.5164-7.8458 0 0-0.33077 2.3608 1.7465 3.225 0.94104 0.39444 2.5651 0.68801 3.6922-0.20507 0.4606-0.36467 0.89556-0.93773 1.2098-1.8267 0.0463-0.12735 0.20095-0.70206 0.57968-1.099" fill="#004d9a"/>
   <path d="m125.31 168.95c0.68552-0.71528 2.0177-1.5199 3.7435-0.66731 0.0571 0.0281 0.22244 0.12568 0.31424 0.18688 0.62348 0.41759 2.8901 2.4907 0.17448 5.9439-0.35641 0.45563-2.1823 2.7247-5.9456 2.2872-4.0412-0.46803-6.4037-4.276-5.5139-7.845 0 0-0.33324 2.36 1.7432 3.225 0.94351 0.39279 2.5684 0.68717 3.6963-0.2059 0.45978-0.36385 0.89391-0.93607 1.209-1.8267 0.0447-0.1257 0.20011-0.70206 0.57884-1.0982" fill="#e33e17"/>
   <path d="m131.21 160.17c0.68551-0.71445 2.0168-1.5174 3.7435-0.66567 0.0571 0.0265 0.22078 0.1257 0.31258 0.18607 0.62515 0.41758 2.8909 2.4915 0.17531 5.9447-0.35723 0.4548-2.1822 2.723-5.9439 2.2873-4.042-0.46803-6.4053-4.2777-5.5164-7.8458 0 0-0.33159 2.36 1.7448 3.2242 0.94268 0.39361 2.5684 0.68882 3.6955-0.20508 0.45977-0.36467 0.89307-0.93608 1.2081-1.825 0.0463-0.12736 0.20012-0.7029 0.58051-1.1006" fill="#00936b"/>
  </g>
 </g>
</svg>
